<svg width="381" height="185" viewBox="0 0 381 185" fill="none" xmlns="http://www.w3.org/2000/svg">
<path d="M13.9307 98.335L4.82323 98.8123L1.30625 31.7044L21.4386 30.6493L24.9556 97.7572L15.8481 98.2345L13.3209 50.0127L11.4035 50.1132L13.9307 98.335ZM37.8716 97.0803L28.7641 97.5576L25.2471 30.4497L40.3944 29.6559C43.7178 29.4817 45.4666 31.0563 45.6408 34.3798L47.3993 67.9337C47.5734 71.2572 45.9988 73.006 42.6754 73.1801L36.6357 73.4967L37.8716 97.0803ZM35.3444 48.8585L35.5956 53.6519L37.513 53.5514L37.2618 48.758L35.3444 48.8585ZM61.8125 95.8256L52.705 96.3029L49.188 29.195L58.2955 28.7177L59.014 42.4269L59.3016 42.4118L61.3633 28.5569L70.4708 28.0796L73.9878 95.1875L64.8803 95.6648L64.1719 82.1474L63.8843 82.1625L61.8125 95.8256ZM93.2476 25.3478L76.5665 26.2221L76.064 16.6352L92.7451 15.761L93.2476 25.3478ZM86.9705 94.5071L77.863 94.9844L74.346 27.8765L83.4535 27.3992L84.172 41.1084L84.4596 41.0934L86.5213 27.2385L95.6288 26.7612L99.1458 93.8691L90.0383 94.3464L89.3299 80.8289L89.0423 80.844L86.9705 94.5071ZM118.36 92.8621L107.814 93.4148C104.619 93.5822 102.937 92.0682 102.77 88.8726L99.7552 31.3515C99.5877 28.1559 101.102 26.4743 104.297 26.3069L114.843 25.7542C118.039 25.5867 119.72 27.1008 119.888 30.2964L122.902 87.8175C123.07 91.0131 121.556 92.6946 118.36 92.8621ZM109.601 44.9668L111.139 74.3026L113.056 74.2021L111.519 44.8664L109.601 44.9668ZM136.069 91.934L126.962 92.4113L123.445 25.3034L132.552 24.8261L136.349 38.5662L136.636 38.5512L138.784 24.4995L147.891 24.0222L151.408 91.1301L142.301 91.6074L141.572 77.7065L141.285 77.7216L139.329 91.7632L139.041 91.7782L135.628 78.018L135.341 78.0331L136.069 91.934ZM178.199 89.7261L167.654 90.2787C164.458 90.4462 162.776 88.9321 162.609 85.7365L161.735 69.0554L170.842 68.5781L170.978 71.1666L172.895 71.0661L172.644 66.2726L165.166 66.6645L164.126 46.8198L171.604 46.4279L171.358 41.7303L169.44 41.8308L169.606 44.9945L160.499 45.4718L159.594 28.2155C159.427 25.0198 160.941 23.3383 164.137 23.1708L174.682 22.6182C177.878 22.4507 179.559 23.9647 179.727 27.1604L181.063 52.6614C181.164 54.5787 180.292 55.6819 178.449 55.9707L178.459 56.1625C180.322 56.2571 181.304 57.2631 181.405 59.1804L182.741 84.6814C182.909 87.877 181.395 89.5586 178.199 89.7261ZM192.265 88.9889C188.622 89.1798 186.687 87.1022 186.459 82.7562L184.862 52.27C184.634 47.924 186.693 45.6371 191.039 45.4093L195.545 45.1732L195.299 40.4756L193.381 40.5761L193.547 43.7398L184.44 44.2171L183.535 26.9608C183.368 23.7651 184.882 22.0836 188.077 21.9161L198.623 21.3635C201.819 21.196 203.5 22.7101 203.668 25.9057L206.933 88.2202L197.826 88.6975L197.695 86.2049C197.402 86.7329 196.76 87.3114 195.767 87.9402C194.775 88.569 193.608 88.9185 192.265 88.9889ZM194.668 65.1184L194.919 69.9119L196.836 69.8114L196.585 65.018L194.668 65.1184ZM218.507 87.6136L210.742 88.0206L209.752 69.1345L211.382 69.0491L210.804 58.0242C210.694 55.9151 211.557 54.6522 213.393 54.2355L213.388 54.1396C211.252 53.7389 210.121 52.3241 209.994 49.8955L208.732 25.8325C208.558 22.5091 210.133 20.7603 213.456 20.5861L228.987 19.7721L232.504 86.8801L223.397 87.3574L222.156 63.6779L220.238 63.7783L221.278 83.6231C221.392 85.7961 220.468 87.1263 218.507 87.6136ZM218.952 39.236L219.203 44.0294L221.121 43.929L220.869 39.1355L218.952 39.236ZM251.707 85.8737L236.368 86.6776L232.851 19.5696L248.19 18.7658C251.386 18.5983 253.067 20.1124 253.235 23.308L254.571 48.809C254.672 50.7264 253.8 51.8295 251.957 52.1183L251.967 52.3101C253.83 52.4047 254.812 53.4107 254.913 55.328L256.249 80.829C256.417 84.0247 254.903 85.7062 251.707 85.8737ZM242.948 37.9784L243.194 42.676L245.112 42.5755L244.866 37.8779L242.948 37.9784ZM244.234 62.5207L244.486 67.3142L246.403 67.2137L246.152 62.4203L244.234 62.5207ZM275.648 84.619L265.102 85.1717C261.907 85.3391 260.225 83.8251 260.058 80.6294L257.043 23.1084C256.876 19.9128 258.39 18.2312 261.585 18.0637L272.131 17.5111C275.326 17.3436 277.008 18.8577 277.175 22.0533L280.19 79.5744C280.357 82.77 278.843 84.4515 275.648 84.619ZM266.889 36.7237L268.427 66.0595L270.344 65.959L268.807 36.6233L266.889 36.7237ZM293.357 83.6909L284.25 84.1682L280.733 17.0603L289.84 16.583L291.076 40.1666L292.994 40.0661L291.959 20.3172C291.825 17.7607 292.972 16.4188 295.401 16.2916L302.495 15.9198L303.485 34.8058L301.855 34.8913L302.453 46.2996C302.553 48.217 301.682 49.3201 299.838 49.609L299.848 49.8007C301.712 49.8953 302.694 50.9013 302.794 52.8187L303.392 64.227L305.022 64.1416L306.012 83.0277L299.205 83.3844C296.585 83.5217 295.208 82.3121 295.074 79.7556L294.034 59.9109L292.116 60.0114L293.357 83.6909Z" fill="white"/>
<path d="M145.931 170.991L136.823 171.468L133.306 104.36L142.414 103.883L143.65 127.467L145.567 127.366L144.331 103.783L153.439 103.305L156.956 170.413L147.848 170.891L146.607 147.211L144.69 147.311L145.931 170.991ZM166.229 169.927C162.586 170.118 160.65 168.041 160.422 163.695L158.825 133.208C158.597 128.862 160.656 126.575 165.002 126.348L169.508 126.112L169.262 121.414L167.344 121.514L167.51 124.678L158.403 125.155L157.498 107.899C157.331 104.704 158.845 103.022 162.041 102.854L172.586 102.302C175.782 102.134 177.463 103.648 177.631 106.844L180.896 169.159L171.789 169.636L171.658 167.143C171.366 167.671 170.723 168.25 169.731 168.879C168.738 169.507 167.571 169.857 166.229 169.927ZM168.631 146.057L168.882 150.85L170.799 150.75L170.548 145.956L168.631 146.057ZM201.463 168.081L192.356 168.558L188.839 101.45L197.946 100.973L199.182 124.556L201.1 124.456L200.065 104.707C199.931 102.151 201.078 100.809 203.507 100.681L210.601 100.31L211.591 119.196L209.961 119.281L210.559 130.689C210.659 132.607 209.788 133.71 207.944 133.999L207.954 134.19C209.818 134.285 210.8 135.291 210.9 137.208L211.498 148.617L213.128 148.531L214.118 167.417L207.311 167.774C204.691 167.912 203.314 166.702 203.18 164.145L202.14 144.301L200.222 144.401L201.463 168.081ZM233.321 166.411L222.775 166.964C219.58 167.131 217.898 165.617 217.731 162.422L214.716 104.9C214.549 101.705 216.063 100.023 219.258 99.8558L229.804 99.3032C232.999 99.1357 234.681 100.65 234.848 103.845L237.863 161.366C238.03 164.562 236.516 166.244 233.321 166.411ZM224.562 118.516L226.1 147.852L228.017 147.751L226.48 118.415L224.562 118.516ZM251.03 165.483L241.923 165.96L238.406 98.8524L247.513 98.3751L248.749 121.959L250.667 121.858L249.431 98.2746L258.538 97.7973L262.055 164.905L252.948 165.382L251.707 141.703L249.789 141.803L251.03 165.483ZM274.971 164.228L265.864 164.706L262.347 97.5977L271.454 97.1204L272.69 120.704L274.607 120.604L273.572 100.855C273.439 98.2981 274.586 96.9562 277.015 96.829L284.109 96.4572L285.099 115.343L283.469 115.429L284.067 126.837C284.167 128.754 283.296 129.858 281.452 130.146L281.462 130.338C283.326 130.433 284.308 131.439 284.408 133.356L285.006 144.764L286.636 144.679L287.626 163.565L280.819 163.922C278.199 164.059 276.822 162.85 276.688 160.293L275.648 140.448L273.73 140.549L274.971 164.228ZM307.596 162.519L295.516 163.152C292.832 163.292 291.419 162.02 291.279 159.336L290.334 141.313L299.442 140.836L299.607 143.999L301.525 143.899L301.274 139.105L294.275 139.472C291.591 139.613 290.178 138.341 290.038 135.657L287.973 96.2547L297.08 95.7774L298.316 119.361L300.234 119.261L298.998 95.6769L308.105 95.1996L311.411 158.281C311.552 160.965 310.28 162.378 307.596 162.519ZM324.538 161.631L315.431 162.108L311.914 95L327.061 94.2061C330.384 94.032 332.133 95.6066 332.307 98.9301L334.066 132.484C334.24 135.807 332.665 137.556 329.342 137.73L323.302 138.047L324.538 161.631ZM322.011 113.409L322.262 118.202L324.18 118.102L323.928 113.308L322.011 113.409ZM354.71 160.049L344.165 160.602C340.969 160.769 339.288 159.255 339.12 156.06L336.106 98.5387C335.938 95.3431 337.452 93.6616 340.648 93.4941L351.193 92.9414C354.389 92.7739 356.071 94.288 356.238 97.4836L357.459 120.78L348.352 121.257L347.869 112.054L345.952 112.154L347.489 141.49L349.407 141.389L348.904 131.802L358.012 131.325L359.253 155.005C359.42 158.2 357.906 159.882 354.71 160.049ZM375.28 138.495L364.639 139.053L359.316 92.5157L375.71 91.6566L375.28 138.495ZM378.747 158.79L363.312 159.599L362.323 140.712L377.757 139.904L378.747 158.79Z" fill="white"/>
</svg>
