<svg width="20" height="21" viewBox="0 0 20 21" fill="none" xmlns="http://www.w3.org/2000/svg">
<path d="M14.2969 8.85938L15.4297 9.05469C15.5469 9.52344 15.625 9.99219 15.625 10.5C15.625 13.625 13.0859 16.125 10 16.125C6.875 16.125 4.375 13.625 4.375 10.5C4.375 7.41406 6.875 4.875 10 4.875C10.5078 4.875 10.9766 4.95312 11.4453 5.07031L11.6406 6.20312L10.4297 7.41406C10.2734 7.41406 10.1172 7.375 10 7.375C8.24219 7.375 6.875 8.78125 6.875 10.5C6.875 12.2578 8.24219 13.625 10 13.625C11.7188 13.625 13.125 12.2578 13.125 10.5C13.125 10.3828 13.0859 10.2266 13.0859 10.0703L14.2969 8.85938ZM19.4141 7.21875C19.7656 8.23438 20 9.36719 20 10.5C20 16.0469 15.5078 20.5 10 20.5C4.45312 20.5 0 16.0469 0 10.5C0 4.99219 4.45312 0.5 10 0.5C11.1328 0.5 12.2656 0.734375 13.2812 1.08594L11.25 3.11719C10.8203 3.03906 10.3906 3 10 3C5.82031 3 2.5 6.35938 2.5 10.5C2.5 14.6406 5.82031 18 10 18C14.1406 18 17.5 14.6406 17.5 10.5C17.5 10.1094 17.4609 9.67969 17.3828 9.25L19.4141 7.21875ZM10.625 11.1641C10.2734 11.5547 9.6875 11.5547 9.33594 11.1641C8.94531 10.8125 8.94531 10.2266 9.33594 9.83594L12.9297 6.24219L12.5781 4.28906C12.5391 3.89844 12.6562 3.46875 12.9297 3.19531L14.9219 1.20312C15.2344 0.890625 15.7812 0.96875 15.9766 1.39844L16.875 3.625L19.1016 4.52344C19.5312 4.71875 19.6094 5.22656 19.2969 5.57812L17.3047 7.57031C17.0312 7.84375 16.6016 7.96094 16.2109 7.92188L14.2578 7.57031L10.625 11.1641Z" fill="white"/>
</svg>
