<svg width="20" height="21" viewBox="0 0 20 21" fill="none" xmlns="http://www.w3.org/2000/svg">
<path d="M6.25 10.5C6.25 8.42969 7.89062 6.75 10 6.75C12.0703 6.75 13.75 8.42969 13.75 10.5C13.75 12.5703 12.0703 14.25 10 14.25C7.89062 14.25 6.25 12.5703 6.25 10.5ZM10 8.625C8.94531 8.625 8.125 9.48438 8.125 10.5C8.125 11.5547 8.94531 12.375 10 12.375C11.0156 12.375 11.875 11.5547 11.875 10.5C11.875 9.48438 11.0156 8.625 10 8.625ZM11.4453 0.5C12.3047 0.5 13.0469 1.125 13.2422 1.94531L13.5547 3.23438C13.9062 3.39062 14.2188 3.58594 14.4922 3.78125L15.7812 3.39062C16.6016 3.15625 17.5 3.50781 17.9297 4.25L19.375 6.78906C19.8047 7.53125 19.6484 8.46875 19.0234 9.05469L18.0859 9.95312C18.0859 10.1484 18.125 10.3438 18.125 10.5C18.125 10.6953 18.0859 10.8906 18.0859 11.0469L19.0234 11.9844C19.6484 12.5703 19.8047 13.5078 19.375 14.25L17.9297 16.7891C17.5 17.5312 16.6016 17.8828 15.7812 17.6484L14.4922 17.2578C14.2188 17.4531 13.9062 17.6484 13.5547 17.8047L13.2422 19.0938C13.0469 19.9141 12.3047 20.5 11.4453 20.5H8.51562C7.65625 20.5 6.91406 19.9141 6.71875 19.0938L6.40625 17.8047C6.05469 17.6484 5.74219 17.4531 5.46875 17.2578L4.17969 17.6484C3.35938 17.8828 2.46094 17.5312 2.03125 16.7891L0.585938 14.25C0.15625 13.5078 0.3125 12.5703 0.9375 11.9844L1.875 11.0469C1.875 10.8906 1.875 10.6953 1.875 10.5C1.875 10.3438 1.875 10.1484 1.875 9.95312L0.9375 9.05469C0.3125 8.46875 0.15625 7.53125 0.585938 6.78906L2.03125 4.25C2.46094 3.50781 3.35938 3.15625 4.17969 3.39062L5.46875 3.78125C5.74219 3.58594 6.05469 3.39062 6.40625 3.23438L6.71875 1.94531C6.91406 1.125 7.65625 0.5 8.51562 0.5H11.4453ZM8.00781 4.5625L7.57812 4.75781C7.07031 4.95312 6.60156 5.22656 6.21094 5.53906L5.82031 5.85156L3.67188 5.1875L2.22656 7.72656L3.82812 9.25L3.78906 9.71875C3.75 9.99219 3.75 10.2656 3.75 10.5C3.75 10.7734 3.75 11.0469 3.78906 11.3203L3.82812 11.7891L2.22656 13.3125L3.67188 15.8516L5.82031 15.1875L6.21094 15.5C6.60156 15.8125 7.07031 16.0859 7.57812 16.2812L8.00781 16.4766L8.51562 18.625H11.4453L11.9531 16.4766L12.3828 16.2812C12.8906 16.0859 13.3594 15.8125 13.75 15.5L14.1406 15.1875L16.2891 15.8516L17.7344 13.3125L16.1328 11.7891L16.1719 11.3203C16.2109 11.0469 16.25 10.7734 16.25 10.5C16.25 10.2656 16.2109 9.99219 16.1719 9.71875L16.1328 9.25L17.7344 7.72656L16.2891 5.1875L14.1406 5.85156L13.75 5.53906C13.3594 5.22656 12.8906 4.95312 12.3828 4.75781L11.9531 4.5625L11.4453 2.375H8.51562L8.00781 4.5625Z" fill="white"/>
</svg>
