<svg width="22" height="22" viewBox="0 0 22 22" fill="none" xmlns="http://www.w3.org/2000/svg">
<path d="M19.8672 11.0703L14.7109 12.75H18.5391C18.1484 13.1406 18.6953 12.5938 16.7422 14.5469L10.9609 16.5H14.8281C11.8984 19.3516 7.21094 19.2344 5.17969 18.6094L2.60156 21.1875C2.21094 21.5391 1.625 21.5391 1.27344 21.1875C0.882812 20.7969 0.882812 20.2109 1.27344 19.8594L11.3906 9.70312C11.625 9.46875 11.625 9.07812 11.3906 8.84375C11.1562 8.60938 10.7656 8.60938 10.5312 8.84375L3.53906 15.7969C3.26562 13.4922 3.65625 9.97656 6.03906 7.63281L9.35938 4.27344C12.9141 0.71875 16.7812 0.835938 19.2422 3.25781C21.1953 5.25 21.625 8.14062 19.8672 11.0703Z" fill="white"/>
</svg>
