<svg width="21" height="19" viewBox="0 0 21 19" fill="none" xmlns="http://www.w3.org/2000/svg">
<path d="M21 5.98438C21 10.9844 18.2266 15.1641 14.125 16.5312C13.3438 16.8438 12.4844 17 11.625 17C9.08594 17 6.70312 15.5938 5.53125 13.3281C3.42188 15.2812 2.83594 17.5078 2.83594 17.5469C2.71875 17.9766 2.32812 18.25 1.9375 18.25C1.85938 18.25 1.78125 18.25 1.70312 18.25C1.19531 18.1328 0.882812 17.625 1 17.1172C1.39062 15.5547 4.55469 8.25 14.0859 8.25C14.4375 8.25 14.75 7.97656 14.75 7.625C14.75 7.3125 14.4375 7 14.125 7C9.90625 7 6.89844 8.36719 4.75 9.96875C4.75 9.53906 4.78906 9.10938 4.86719 8.67969C5.41406 6.10156 7.44531 4.03125 10.0234 3.44531C11.1172 3.17188 12.1719 3.21094 13.1875 3.44531C15.375 3.95312 17.7969 3.13281 19.0078 1.0625C19.2422 0.671875 19.7891 0.671875 19.9844 1.0625C20.6094 2.50781 21 4.26562 21 5.98438Z" fill="white"/>
</svg>
