<svg width="24" height="21" viewBox="0 0 24 21" fill="none" xmlns="http://www.w3.org/2000/svg">
<path d="M8.875 18.2734V16.7891H15.0859V18.2734C15.0859 18.5078 15.0078 18.7422 14.8906 18.9766L14.2266 19.9531C14.0312 20.2656 13.5625 20.5391 13.1719 20.5391H10.7891C10.3984 20.5391 9.92969 20.2656 9.73438 19.9531L9.07031 18.9766C8.95312 18.7422 8.875 18.5078 8.875 18.2734ZM11.9609 0.539062C15.75 0.5 18.875 3.58594 18.875 7.375C18.875 9.01562 18.25 10.6172 17.1562 11.8672C16.4922 12.6094 15.5156 14.1719 15.125 15.4609C15.125 15.4609 15.125 15.4609 15.125 15.5H8.83594C8.83594 15.4609 8.83594 15.4609 8.83594 15.4609C8.44531 14.1719 7.46875 12.6094 6.80469 11.8672C5.71094 10.6172 5.125 9.01562 5.125 7.375C5.125 3.74219 7.97656 0.539062 11.9609 0.539062ZM12 4.28906C12.3125 4.28906 12.625 3.97656 12.625 3.66406C12.625 3.3125 12.3125 3.03906 12 3.03906C9.57812 3.03906 7.625 4.99219 7.625 7.375C7.625 7.6875 7.89844 8 8.25 8C8.5625 8 8.875 7.6875 8.875 7.375C8.875 5.65625 10.2422 4.28906 12 4.28906ZM3.875 8C3.875 8.54688 3.44531 8.9375 2.9375 8.9375H0.4375C-0.109375 8.9375 -0.5 8.54688 -0.5 8C-0.5 7.49219 -0.109375 7.0625 0.4375 7.0625H2.9375C3.44531 7.0625 3.875 7.49219 3.875 8ZM23.5625 7.0625C24.0703 7.0625 24.5 7.49219 24.5 8C24.5 8.54688 24.0703 8.9375 23.5625 8.9375H21.0625C20.5156 8.9375 20.125 8.54688 20.125 8C20.125 7.49219 20.5156 7.0625 21.0625 7.0625H23.5625ZM4.61719 2.6875C4.89062 2.84375 5.08594 3.15625 5.08594 3.50781C5.08594 3.82031 4.89062 4.13281 4.61719 4.32812C4.30469 4.48438 3.95312 4.48438 3.67969 4.28906L1.49219 3.03906C1.21875 2.88281 1.02344 2.57031 1.02344 2.21875C1.02344 1.90625 1.17969 1.59375 1.49219 1.39844C1.76562 1.24219 2.15625 1.24219 2.42969 1.4375L4.61719 2.6875ZM22.4688 13C22.8984 13.2344 23.0547 13.8203 22.7812 14.25C22.5469 14.7188 21.9609 14.875 21.5312 14.6016L19.3438 13.3516C19.0703 13.1953 18.875 12.8828 18.875 12.5312C18.875 12.2188 19.0703 11.9062 19.3438 11.7109C19.6562 11.5547 20.0078 11.5547 20.2812 11.75L22.4688 13ZM3.67969 11.75C4.10938 11.4766 4.69531 11.6328 4.92969 12.1016C5.16406 12.5312 5.04688 13.1172 4.61719 13.3516L2.42969 14.6016C2.15625 14.7969 1.76562 14.7969 1.49219 14.6406C1.17969 14.4453 1.02344 14.1328 1.02344 13.8203C1.02344 13.4688 1.21875 13.1562 1.49219 13L3.67969 11.75ZM19.8516 4.40625C19.4219 4.40625 19.0312 4.13281 18.9141 3.74219C18.8359 3.3125 18.9922 2.88281 19.3828 2.6875L21.5312 1.4375C21.9609 1.16406 22.5469 1.32031 22.7812 1.78906C23.0547 2.21875 22.8984 2.76562 22.4688 3.03906L20.3203 4.28906C20.1641 4.36719 20.0078 4.40625 19.8516 4.40625Z" fill="white"/>
</svg>
