<svg width="18" height="19" viewBox="0 0 18 19" fill="none" xmlns="http://www.w3.org/2000/svg">
<path d="M16.9688 10.8672C17.4375 11.0625 17.7109 11.5312 17.5938 12V17.3125C17.5938 17.7812 17.2031 18.2109 16.6953 18.2109H11.4219C10.9141 18.2109 10.4453 17.8984 10.25 17.4297C10.2109 17.2734 10.1719 17.1172 10.1719 16.9609C10.1719 16.6094 10.2891 16.2969 10.5234 16.0625L12.3594 14.2266L8.92188 10.7891L5.44531 14.2266L7.28125 16.0625C7.63281 16.4141 7.75 16.9609 7.55469 17.4297C7.35938 17.8984 6.92969 18.2109 6.42188 18.2109H1.14844C0.640625 18.2109 0.25 17.8203 0.25 17.3125V12.0391C0.25 11.5312 0.523438 11.0625 0.992188 10.8672C1.14844 10.7891 1.30469 10.7891 1.5 10.7891C1.8125 10.7891 2.125 10.9062 2.35938 11.1406L4.19531 12.9766L7.67188 9.5L4.23438 5.98438L2.39844 7.82031C2.04688 8.21094 1.5 8.28906 1.03125 8.09375C0.5625 7.89844 0.25 7.46875 0.25 6.96094V1.6875C0.25 1.17969 0.640625 0.789062 1.1875 0.789062H6.5C6.96875 0.789062 7.4375 1.0625 7.63281 1.53125C7.71094 1.6875 7.71094 1.84375 7.71094 2.03906C7.71094 2.35156 7.59375 2.66406 7.35938 2.89844L5.52344 4.73438L9 8.21094L12.5156 4.77344L10.6797 2.9375C10.2891 2.58594 10.2109 2.03906 10.4062 1.57031C10.6016 1.10156 11.0312 0.789062 11.5391 0.789062H16.8125C17.3203 0.789062 17.7109 1.17969 17.7109 1.6875V7C17.7109 7.50781 17.4375 7.97656 16.9688 8.17188C16.8125 8.25 16.6562 8.25 16.4609 8.25C16.1484 8.25 15.8359 8.13281 15.6016 7.89844L13.7656 6.0625L10.2891 9.5L13.7656 12.9766L15.6016 11.1406C15.9531 10.7891 16.5 10.6719 16.9688 10.8672Z" fill="white"/>
</svg>
