<svg width="22" height="21" viewBox="0 0 22 21" fill="none" xmlns="http://www.w3.org/2000/svg">
<path d="M9.71094 4.28906V6.16406L10.8828 7.33594C10.6094 5.96875 11.0391 4.60156 12.0156 3.625C12.7969 2.80469 13.8516 2.41406 14.9453 2.41406H14.9844L12.7188 4.64062L13.3047 8.15625L16.8203 8.74219L19.0859 6.51562C19.0859 7.60938 18.6562 8.70312 17.8359 9.48438C17.4844 9.875 17.0547 10.1484 16.625 10.3438C16.6641 10.3828 16.7422 10.4609 16.8203 10.5L18.0312 11.7109C18.4219 11.4766 18.8125 11.1641 19.1641 10.8125C20.6484 9.36719 21.2734 7.14062 20.7656 5.10938C20.6484 4.60156 20.2969 4.25 19.8281 4.09375C19.3203 3.97656 18.8125 4.13281 18.5 4.44531L16.2344 6.75L14.9453 6.55469L14.75 5.26562L17.0547 3C17.3672 2.6875 17.5234 2.17969 17.3672 1.71094C17.25 1.20312 16.8594 0.851562 16.3906 0.734375C14.3203 0.226562 12.1719 0.8125 10.6875 2.33594C10.2578 2.72656 9.94531 3.15625 9.67188 3.625H9.71094V4.28906ZM5.14062 18.2344C4.63281 18.7422 3.73438 18.7422 3.22656 18.2344C2.99219 18 2.83594 17.6875 2.83594 17.3359C2.83594 16.9844 2.99219 16.6719 3.22656 16.4375L8.5 11.125L7.17188 9.79688L1.9375 15.0312C1.3125 15.6562 1 16.4766 1 17.2578C0.960938 18.0781 1.3125 18.9375 1.9375 19.5234C2.52344 20.1484 3.34375 20.4609 4.16406 20.4609C4.98438 20.4609 5.80469 20.1484 6.42969 19.5234L10.375 15.6172C9.98438 14.9922 9.75 14.2891 9.75 13.5469L5.14062 18.2344ZM20.5703 15.9688L16 11.3984C15.0625 10.5 13.7344 10.3047 12.6406 10.8516L8.46094 6.67188V4.25L3.5 0.5L1 3L4.75 7.96094H7.17188L11.3125 12.1016C10.8047 13.1953 10.9609 14.5625 11.8594 15.4609L16.4297 20.0312C17.0156 20.5781 17.9141 20.5781 18.5 20.0312L20.5703 17.9609C21.1172 17.4531 21.1172 16.5547 20.5703 15.9688Z" fill="white"/>
</svg>
