<svg width="20" height="19" viewBox="0 0 20 19" fill="none" xmlns="http://www.w3.org/2000/svg">
<path d="M19.6094 7.89844L16.6016 4.89062C16.3672 4.65625 16.0547 4.5 15.7031 4.5H15V2.9375C15 1.76562 13.9844 0.75 12.8125 0.75H7.1875C5.97656 0.75 5 1.76562 5 2.9375V4.5H4.25781C3.90625 4.5 3.59375 4.65625 3.35938 4.89062L0.351562 7.89844C0.117188 8.13281 0 8.44531 0 8.79688V15.75C0 17.1562 1.09375 18.25 2.5 18.25H17.5C18.8672 18.25 20 17.1562 20 15.75V8.79688C20 8.44531 19.8438 8.13281 19.6094 7.89844ZM6.875 2.9375C6.875 2.78125 6.99219 2.625 7.1875 2.625H12.8125C12.9688 2.625 13.125 2.78125 13.125 2.9375V4.5H6.875V2.9375ZM4.49219 6.375H15.4688L18.125 9.03125V11.0625H14.6875V10.4375C14.6875 9.92969 14.2578 9.5 13.75 9.5C13.2031 9.5 12.8125 9.92969 12.8125 10.4375V11.0625H7.1875V10.4375C7.1875 9.92969 6.75781 9.5 6.25 9.5C5.70312 9.5 5.3125 9.92969 5.3125 10.4375V11.0625H1.875V9.03125L4.49219 6.375ZM17.5 16.375H2.5C2.14844 16.375 1.875 16.1016 1.875 15.75V12.9375H5.3125V13.5625C5.3125 14.1094 5.70312 14.5 6.21094 14.5C6.75781 14.5 7.1875 14.1094 7.1875 13.5625V12.9375H12.8125V13.5625C12.8125 14.1094 13.2031 14.5 13.75 14.5C14.2578 14.5 14.6875 14.1094 14.6875 13.6016V12.9375H18.125V15.75C18.125 16.1016 17.8125 16.375 17.5 16.375Z" fill="white"/>
</svg>
