<svg width="24" height="21" viewBox="0 0 24 21" fill="none" xmlns="http://www.w3.org/2000/svg">
<path d="M11.9609 13C9.73438 13 7.89844 11.2031 7.9375 8.9375C7.9375 6.71094 9.73438 4.875 11.9609 4.875C14.1875 4.875 16.0234 6.71094 16.0234 8.9375C16.0234 11.2031 14.2266 13 11.9609 13ZM13.9141 14.25C17 14.25 19.5 16.5938 19.5 19.4844C19.5 20.0703 18.9922 20.5 18.3672 20.5H5.59375C4.96875 20.5 4.5 20.0703 4.5 19.4844C4.5 16.5938 6.96094 14.25 10.0469 14.25H13.9141ZM19.5 6.75C17.7422 6.75 16.375 5.38281 16.375 3.625C16.375 1.90625 17.7422 0.5 19.5 0.5C21.2188 0.5 22.625 1.90625 22.625 3.625C22.625 5.38281 21.2188 6.75 19.5 6.75ZM6.64844 8.9375C6.64844 10.2656 7.15625 11.4766 7.97656 12.375H0.164062C-0.226562 12.375 -0.5 12.0625 -0.5 11.6719C-0.5 9.64062 1.02344 8 2.9375 8H5.32031C5.82812 8 6.29688 8.11719 6.72656 8.35156C6.6875 8.54688 6.64844 8.74219 6.64844 8.9375ZM4.5 6.75C2.74219 6.75 1.375 5.38281 1.375 3.625C1.375 1.90625 2.74219 0.5 4.5 0.5C6.21875 0.5 7.625 1.90625 7.625 3.625C7.625 5.38281 6.21875 6.75 4.5 6.75ZM21.0234 8C22.9375 8 24.5 9.64062 24.5 11.6719C24.5 12.0625 24.1875 12.375 23.7969 12.375H15.9844C16.8047 11.4766 17.2734 10.2656 17.2734 8.9375C17.2734 8.74219 17.2344 8.54688 17.2344 8.35156C17.6641 8.15625 18.1328 8 18.6406 8H21.0234Z" fill="white"/>
</svg>
