
            <svg xmlns="http://www.w3.org/2000/svg">
                <filter id="grayscale">
                    <feColorMatrix type="saturate" values="0"/>
                </filter>
                <g filter="url(#grayscale)">
                    <svg xmlns="http://www.w3.org/2000/svg" viewBox="128.62672210693358 146.26998901367188 317.74656677246094 284.6000094604492"> <svg xmlns="http://www.w3.org/2000/svg" xmlns:xlink="http://www.w3.org/1999/xlink" version="1.1" x="242.07000762939452" y="216.26998901367188" viewBox="303.9000244140625 302.20001220703125 400.69989013671875 401.29998779296875" xml:space="preserve" height="91" width="90.86389846149781" preserveAspectRatio="xMinYMin" enable-background="new 0 0 1000 1000" style="overflow: visible;"><g id="Layer_2" style=""></g><path class="st0" d="M447.8,416.5l-81.8-71l-0.8-0.7l-6,7c0,0,0,0-0.1,0l-17.7,20.4l80.7,70L447.8,416.5z" style="fill: #78EFC4;"></path><polygon class="st0" points="463.2,477.9 551.1,554.2 561.7,515.3 488.9,452.2   " style="fill: #78EFC4;"></polygon><path class="st0" d="M647.7,589.8L647.7,589.8l-4.2-3.6L609.8,557l-2.5-2.2l-0.8,3l-9.7,35.9l3.4,3h0l4.2,3.6l4.2,3.6l41.1,35.6    c8.3-8.9,15.8-18.5,22.4-28.7l-20.1-17.4L647.7,589.8z" style="fill: #78EFC4;"></path><path class="st1" d="M599.1,550.3l0.6-2.1l1.3-4.8l1.3-4.8l20.1-74.2l-32.2-20.1l-18.4,67.8l-1.3,4.8l-1.3,4.8L558.9,560l-0.8,0.2    l0.6,0.5l-1.1,4.2l-0.7,0.2l0.5,0.4l-1.2,4.3l-0.5,0.1l0.4,0.3l-10.7,39.5l-1.3,5l-1.3,5l-22.7,83.8c13.7-1.3,27-4,39.8-7.9    l23.2-85.6l1.3-4.9l1.4-5l0.9-3.4l1.3-4.8l1.3-4.8v0l7.3-27l1.3-5L599.1,550.3z" style="fill: #4CABF2;"></path><path class="st1" d="M650.4,361.4c-9.2-10-19.3-19-30.3-27l-15,55.2l32.2,20.1L650.4,361.4z" style="fill: #4CABF2;"></path><path class="st2" d="M518.2,346.1l-70.4-43.9c-14.9,3.9-29,9.4-42.4,16.4l86.4,53.8L518.2,346.1z" style="fill: #FFCF4A;"></path><path class="st2" d="M700.5,459.7l-57.7-36v0l-4-2.5l-4-2.5v0l-32.2-20.1l-4-2.5l-4-2.5v0l-29.1-18.1l-26.4,26.4l45.6,28.4l4,2.5    l4,2.5l32.2,20.1l4,2.5l4,2.5l71.6,44.6c0-1.6,0.1-3.3,0.1-4.9C704.5,486.2,703.1,472.7,700.5,459.7z" style="fill: #FFCF4A;"></path><path class="st3" d="M339.5,537.5l-31.9,31.9c4.4,12.2,9.9,23.9,16.5,34.9l32-32L339.5,537.5z" style="fill: #3DBF69;"></path><path class="st3" d="M496.4,380.6l-3.3,3.3L461,416l-3.2,3.2l-3.2,3.2l-25.8,25.8l-3.2,3.2l-3.2,3.2l-42.2,42.2l16.5,34.8    l53.1-53.2l3.2-3.2l3.2-3.2l25.8-25.7l3.2-3.2l3.2-3.2l36.3-36.3l3.3-3.3l3.3-3.3l26.4-26.4l3.3-3.3l3.3-3.3l40.1-40.1    c-11-6.5-22.7-12.1-34.9-16.5l-36.8,36.9l-3.3,3.3L526,351l-26.4,26.4L496.4,380.6z" style="fill: #3DBF69;"></path><path class="st4" d="M344.2,526.4l2,4.3l16.5,34.8l2.1,4.3l2,4.3l13.7,28.8l36.1-8.7l-22.5-47.3l-2-4.3l-2-4.3l-16.5-34.8    l-2.1-4.3l-2.1-4.3l-46.3-97.5c-8,13.8-14.5,28.7-19.2,44.3l38.2,80.4L344.2,526.4z" style="fill: #8931FF;"></path><path class="st4" d="M404.4,653.1l17,35.7c14.7,6.1,30.3,10.6,46.5,13.1l-27.4-57.6L404.4,653.1z" style="fill: #8931FF;"></path><path class="st5" d="M654.2,583.6l36.1-8.7c5-12.8,8.8-26.2,11.2-40.1l-81,19.6L654.2,583.6z" style="fill: #FF756E;"></path><path class="st5" d="M546.2,572.3L489,586.1l-4.4,1l-4.4,1.1l-50.7,12.2l-4.5,1.1l-4.5,1.1l-36.1,8.7l-4.5,1.1l-4.5,1.1l-39.1,9.4    c8.4,11.1,17.8,21.4,28.3,30.6l26.8-6.5v0l4.5-1.1l4.5-1.1l36.1-8.7l4.5-1.1l4.5-1.1l47.7-11.5l4.4-1l37.8-9.1L546.2,572.3z" style="fill: #FF756E;"></path></svg> <svg y="327.27" viewBox="0.7534313201904297 3.819999933242798 177.74656677246094 33.599998474121094" x="198.62672210693358" height="33.599998474121094" width="177.74656677246094" xmlns="http://www.w3.org/2000/svg" style="overflow: visible;"><g fill="#000000" fill-opacity="1" style=""><path d="M2.69 37.00L2.69 37.00Q1.60 37.00 1.05 36.08Q0.50 35.15 0.97 34.15L0.97 34.15L12.98 5.54Q13.52 4.20 14.83 4.20L14.83 4.20Q16.21 4.20 16.72 5.54L16.72 5.54L28.77 34.23Q29.19 35.24 28.62 36.12Q28.06 37.00 26.96 37.00L26.96 37.00Q26.42 37.00 25.91 36.69Q25.41 36.37 25.16 35.78L25.16 35.78L14.28 9.07L15.50 9.07L4.54 35.78Q4.28 36.41 3.78 36.71Q3.28 37.00 2.69 37.00ZM24.86 29.57L5.12 29.57L6.68 26.25L23.35 26.25L24.86 29.57ZM42.71 37.00L41.92 37.00Q39.77 37.00 38.05 35.93Q36.33 34.86 35.36 33.03Q34.40 31.21 34.40 28.85L34.40 28.85L34.40 8.65Q34.40 7.81 34.92 7.27Q35.45 6.72 36.29 6.72L36.29 6.72Q37.13 6.72 37.67 7.27Q38.22 7.81 38.22 8.65L38.22 8.65L38.22 28.85Q38.22 30.74 39.27 31.96Q40.32 33.18 41.92 33.18L41.92 33.18L43.22 33.18Q43.93 33.18 44.42 33.73Q44.90 34.27 44.90 35.11L44.90 35.11Q44.90 35.95 44.29 36.48Q43.68 37.00 42.71 37.00L42.71 37.00ZM42.25 18.19L32.13 18.19Q31.37 18.19 30.87 17.72Q30.37 17.26 30.37 16.55L30.37 16.55Q30.37 15.79 30.87 15.33Q31.37 14.87 32.13 14.87L32.13 14.87L42.25 14.87Q43.01 14.87 43.51 15.33Q44.02 15.79 44.02 16.55L44.02 16.55Q44.02 17.26 43.51 17.72Q43.01 18.19 42.25 18.19L42.25 18.19ZM73.16 37.42L73.16 37.42Q70.48 37.42 68.10 36.60Q65.73 35.78 63.97 34.31Q62.20 32.84 61.36 30.87L61.36 30.87Q60.94 30.07 61.34 29.40Q61.74 28.73 62.66 28.52L62.66 28.52Q63.38 28.35 64.05 28.71Q64.72 29.06 65.06 29.78L65.06 29.78Q65.60 30.91 66.78 31.82Q67.96 32.72 69.62 33.26Q71.27 33.81 73.16 33.81L73.16 33.81Q75.26 33.81 76.97 33.14Q78.67 32.47 79.70 31.19Q80.72 29.90 80.72 28.06L80.72 28.06Q80.72 25.70 78.92 23.90Q77.11 22.09 73.12 21.63L73.12 21.63Q68.04 21.08 65.14 18.56Q62.24 16.04 62.24 12.35L62.24 12.35Q62.24 9.66 63.71 7.75Q65.18 5.84 67.75 4.83Q70.31 3.82 73.54 3.82L73.54 3.82Q75.98 3.82 77.89 4.54Q79.80 5.25 81.21 6.49Q82.61 7.73 83.62 9.32L83.62 9.32Q84.13 10.16 84.02 10.90Q83.92 11.63 83.24 12.05L83.24 12.05Q82.49 12.47 81.67 12.22Q80.85 11.97 80.43 11.26L80.43 11.26Q79.80 10.12 78.83 9.28Q77.87 8.44 76.55 7.94Q75.22 7.43 73.42 7.43L73.42 7.43Q70.22 7.39 68.17 8.67Q66.11 9.95 66.11 12.52L66.11 12.52Q66.11 13.86 66.80 15.02Q67.49 16.17 69.24 17.03Q70.98 17.89 74.13 18.27L74.13 18.27Q79.21 18.86 81.90 21.36Q84.59 23.86 84.59 27.93L84.59 27.93Q84.59 30.28 83.69 32.05Q82.78 33.81 81.19 35.01Q79.59 36.20 77.51 36.81Q75.43 37.42 73.16 37.42ZM100.34 37.00L99.54 37.00Q97.40 37.00 95.68 35.93Q93.95 34.86 92.99 33.03Q92.02 31.21 92.02 28.85L92.02 28.85L92.02 8.65Q92.02 7.81 92.55 7.27Q93.07 6.72 93.91 6.72L93.91 6.72Q94.75 6.72 95.30 7.27Q95.84 7.81 95.84 8.65L95.84 8.65L95.84 28.85Q95.84 30.74 96.89 31.96Q97.94 33.18 99.54 33.18L99.54 33.18L100.84 33.18Q101.56 33.18 102.04 33.73Q102.52 34.27 102.52 35.11L102.52 35.11Q102.52 35.95 101.91 36.48Q101.30 37.00 100.34 37.00L100.34 37.00ZM99.88 18.19L89.75 18.19Q89.00 18.19 88.49 17.72Q87.99 17.26 87.99 16.55L87.99 16.55Q87.99 15.79 88.49 15.33Q89.00 14.87 89.75 14.87L89.75 14.87L99.88 14.87Q100.63 14.87 101.14 15.33Q101.64 15.79 101.64 16.55L101.64 16.55Q101.64 17.26 101.14 17.72Q100.63 18.19 99.88 18.19L99.88 18.19ZM117.56 37.17L117.56 37.17Q114.41 37.17 111.93 35.66Q109.45 34.15 108.02 31.50Q106.60 28.85 106.60 25.54L106.60 25.54Q106.60 22.18 108.13 19.55Q109.66 16.93 112.29 15.39Q114.91 13.86 118.19 13.86L118.19 13.86Q121.51 13.86 124.11 15.39Q126.71 16.93 128.25 19.57Q129.78 22.22 129.82 25.54L129.82 25.54L128.31 25.91Q128.31 29.11 126.88 31.67Q125.45 34.23 123.04 35.70Q120.62 37.17 117.56 37.17ZM118.19 33.73L118.19 33.73Q120.46 33.73 122.22 32.66Q123.98 31.58 125.01 29.72Q126.04 27.85 126.04 25.54L126.04 25.54Q126.04 23.18 125.01 21.32Q123.98 19.45 122.22 18.38Q120.46 17.30 118.19 17.30L118.19 17.30Q116.00 17.30 114.20 18.38Q112.39 19.45 111.36 21.32Q110.33 23.18 110.33 25.54L110.33 25.54Q110.33 27.85 111.36 29.72Q112.39 31.58 114.20 32.66Q116.00 33.73 118.19 33.73ZM127.85 37.04L127.85 37.04Q127.01 37.04 126.46 36.50Q125.92 35.95 125.92 35.11L125.92 35.11L125.92 28.39L126.71 24.36L129.82 25.54L129.82 35.11Q129.82 35.95 129.25 36.50Q128.69 37.04 127.85 37.04ZM153.13 16.80L139.65 28.90L137.30 26.29L150.78 14.24Q151.33 13.69 152.02 13.71Q152.71 13.73 153.22 14.32L153.22 14.32Q153.76 14.91 153.74 15.60Q153.72 16.30 153.13 16.80L153.13 16.80ZM138.05 37.00L138.05 37.00Q137.21 37.00 136.69 36.48Q136.16 35.95 136.16 35.11L136.16 35.11L136.16 6.09Q136.16 5.25 136.69 4.73Q137.21 4.20 138.05 4.20L138.05 4.20Q138.89 4.20 139.42 4.73Q139.94 5.25 139.94 6.09L139.94 6.09L139.94 35.11Q139.94 35.95 139.42 36.48Q138.89 37.00 138.05 37.00ZM153.26 36.79L153.26 36.79Q152.63 37.30 151.89 37.23Q151.16 37.17 150.65 36.54L150.65 36.54L141.83 25.66L144.48 23.14L153.51 34.27Q154.01 34.86 153.95 35.55Q153.89 36.25 153.26 36.79ZM168.67 37.17L168.67 37.17Q165.19 37.17 162.52 35.68Q159.85 34.19 158.34 31.56Q156.83 28.94 156.83 25.54L156.83 25.54Q156.83 22.09 158.26 19.47Q159.68 16.84 162.20 15.35Q164.72 13.86 168.04 13.86L168.04 13.86Q171.28 13.86 173.63 15.31Q175.98 16.76 177.24 19.30Q178.50 21.84 178.50 25.16L178.50 25.16Q178.50 25.87 178.02 26.36Q177.53 26.84 176.74 26.84L176.74 26.84L159.47 26.84L159.47 23.73L176.78 23.73L175.06 24.95Q175.01 22.72 174.17 20.96Q173.33 19.19 171.78 18.19Q170.23 17.18 168.04 17.18L168.04 17.18Q165.65 17.18 163.91 18.27Q162.16 19.36 161.24 21.25Q160.31 23.14 160.31 25.54L160.31 25.54Q160.31 27.93 161.39 29.80Q162.46 31.67 164.33 32.76Q166.19 33.85 168.67 33.85L168.67 33.85Q170.02 33.85 171.47 33.35Q172.91 32.84 173.75 32.17L173.75 32.17Q174.34 31.71 175.01 31.69Q175.69 31.67 176.19 32.09L176.19 32.09Q176.82 32.68 176.86 33.37Q176.90 34.06 176.27 34.57L176.27 34.57Q174.85 35.70 172.73 36.44Q170.60 37.17 168.67 37.17Z" transform="translate(0, 0)"></path></g></svg></svg>
                </g>
            </svg>
        