<svg xmlns="http://www.w3.org/2000/svg" xmlns:xlink="http://www.w3.org/1999/xlink" width="500" zoomAndPan="magnify" viewBox="0 0 375 149.999998" height="200" preserveAspectRatio="xMidYMid meet" version="1.0"><path fill="#000000" d="M 168.121094 74.179688 C 169.40625 70.785156 169.777344 67.308594 170.289062 63.859375 C 170.800781 60.410156 171.359375 56.851562 171.898438 53.355469 C 172.132812 51.824219 172.382812 50.289062 172.609375 48.707031 C 172.621094 48.484375 172.679688 48.265625 172.785156 48.066406 C 172.886719 47.867188 173.03125 47.691406 173.207031 47.550781 C 173.382812 47.410156 173.585938 47.308594 173.800781 47.25 C 174.019531 47.195312 174.246094 47.183594 174.46875 47.222656 C 181.332031 47.222656 188.1875 47.222656 195.046875 47.222656 C 196.792969 47.222656 197.15625 48.390625 197.371094 49.710938 C 198.40625 56.050781 199.09375 62.4375 200.285156 68.757812 C 200.648438 70.617188 200.785156 72.597656 201.214844 74.558594 C 202.488281 71.882812 202.675781 68.980469 203.347656 66.195312 C 204.703125 60.53125 205.886719 54.835938 207.070312 49.15625 C 207.089844 48.863281 207.171875 48.582031 207.308594 48.320312 C 207.441406 48.0625 207.628906 47.835938 207.859375 47.652344 C 208.085938 47.472656 208.351562 47.339844 208.632812 47.261719 C 208.914062 47.1875 209.207031 47.167969 209.496094 47.210938 C 212.234375 47.277344 214.96875 47.269531 217.695312 47.210938 C 217.984375 47.171875 218.277344 47.191406 218.558594 47.269531 C 218.839844 47.351562 219.097656 47.488281 219.324219 47.671875 C 219.546875 47.859375 219.730469 48.089844 219.859375 48.347656 C 219.988281 48.609375 220.066406 48.890625 220.078125 49.183594 C 221.613281 56.285156 223.222656 63.367188 224.816406 70.453125 C 225.09375 71.679688 225.421875 72.886719 225.832031 74.496094 C 226.453125 72.570312 226.871094 70.585938 227.074219 68.574219 C 227.679688 65.144531 228.007812 61.667969 228.566406 58.226562 C 229.039062 55.152344 229.644531 52.101562 230.09375 49.023438 C 230.277344 47.742188 230.769531 47.164062 232.121094 47.164062 C 234.855469 47.230469 237.59375 47.164062 240.320312 47.164062 C 242.179688 47.164062 242.347656 47.527344 242.039062 49.3125 C 241.167969 54.332031 240.386719 59.371094 239.492188 64.390625 C 238.792969 68.378906 237.964844 72.347656 237.246094 76.335938 C 236.007812 83.300781 234.765625 90.273438 233.527344 97.25 C 233.347656 98.339844 232.964844 98.71875 231.851562 98.785156 C 228.726562 98.980469 225.605469 98.839844 222.488281 98.867188 C 222.238281 98.894531 221.984375 98.871094 221.742188 98.796875 C 221.5 98.722656 221.277344 98.605469 221.082031 98.445312 C 220.886719 98.285156 220.726562 98.085938 220.609375 97.863281 C 220.492188 97.644531 220.417969 97.398438 220.394531 97.148438 C 219.015625 91.105469 217.417969 85.0625 216.226562 79.011719 C 215.492188 75.292969 214.597656 71.574219 213.554688 67.542969 C 211.285156 76.382812 209.429688 84.960938 207.644531 93.570312 C 207.5625 94.007812 207.339844 94.40625 207.21875 94.832031 C 206.0625 98.90625 206.074219 98.921875 201.792969 98.90625 C 199.613281 98.90625 197.445312 98.832031 195.277344 98.792969 C 194.46875 98.792969 193.824219 98.476562 193.675781 97.632812 C 192.96875 93.753906 192.308594 89.878906 191.621094 86.011719 C 191.15625 83.382812 190.691406 80.761719 190.195312 78.140625 C 189.65625 75.210938 189.183594 72.265625 188.585938 69.34375 C 187.5625 64.34375 187.03125 59.257812 185.792969 54.296875 C 185.375 52.59375 185.664062 50.734375 184.613281 48.886719 C 184.128906 51.367188 183.683594 53.617188 183.261719 55.886719 C 182.714844 58.933594 182.222656 61.984375 181.691406 65.03125 C 180.761719 70.332031 179.828125 75.636719 178.898438 80.9375 C 177.894531 86.515625 176.859375 92.164062 175.855469 97.78125 C 175.847656 97.933594 175.808594 98.085938 175.742188 98.222656 C 175.675781 98.359375 175.582031 98.484375 175.464844 98.585938 C 175.351562 98.6875 175.214844 98.765625 175.070312 98.816406 C 174.925781 98.867188 174.769531 98.886719 174.617188 98.878906 C 171.164062 98.878906 167.710938 98.820312 164.261719 98.785156 C 163.402344 98.785156 163.023438 98.339844 162.84375 97.472656 C 161.261719 90.101562 159.691406 82.730469 157.988281 75.386719 C 157.402344 72.867188 157.058594 70.265625 155.902344 67.699219 C 154.65625 72.652344 153.53125 77.46875 152.628906 82.351562 C 152.070312 85.398438 151.210938 88.390625 150.503906 91.402344 C 150.03125 93.402344 149.574219 95.402344 149.109375 97.410156 C 149.082031 97.644531 149.011719 97.867188 148.894531 98.074219 C 148.777344 98.277344 148.621094 98.457031 148.433594 98.597656 C 148.242188 98.742188 148.027344 98.84375 147.800781 98.898438 C 147.570312 98.953125 147.332031 98.964844 147.097656 98.921875 C 144.140625 98.878906 141.179688 98.921875 138.230469 98.921875 C 136.816406 98.921875 136.285156 98.339844 135.96875 96.886719 C 134.910156 92.074219 134.320312 87.175781 133.417969 82.332031 C 132.785156 78.957031 132.238281 75.554688 131.558594 72.199219 C 130.832031 68.480469 130.3125 64.761719 129.546875 61.136719 C 128.699219 57.066406 128.125 52.949219 127.425781 48.847656 C 127.25 47.789062 127.714844 47.230469 128.765625 47.222656 C 131.78125 47.222656 134.796875 47.222656 137.800781 47.222656 C 139.1875 47.222656 139.429688 48.226562 139.664062 49.210938 C 139.972656 50.902344 140.15625 52.613281 140.4375 54.3125 C 141.488281 60.96875 142.222656 67.679688 143.84375 74.328125 C 144.25 72.625 144.699219 70.933594 145.078125 69.234375 C 146.59375 62.480469 148.097656 55.71875 149.59375 48.949219 C 149.671875 48.425781 149.945312 47.949219 150.367188 47.621094 C 150.785156 47.292969 151.316406 47.140625 151.84375 47.195312 C 154.636719 47.082031 157.429688 47.445312 160.222656 47.195312 C 161.636719 47.074219 162.324219 47.75 162.621094 49.292969 C 163.636719 54.40625 164.894531 59.464844 166.027344 64.546875 C 166.78125 67.8125 167.460938 71 168.121094 74.179688 Z M 168.121094 74.179688 " fill-opacity="1" fill-rule="nonzero"/><path fill="#000000" d="M 53.527344 73.472656 C 53.527344 81.320312 53.527344 89.164062 53.527344 97.007812 C 53.527344 98.46875 53.332031 99.4375 51.460938 98.972656 C 50.574219 98.867188 49.683594 98.867188 48.796875 98.972656 C 34.132812 98.972656 19.464844 98.972656 4.796875 98.972656 C 4.296875 98.972656 3.792969 98.972656 3.292969 98.972656 C 3.050781 98.992188 2.804688 98.957031 2.578125 98.871094 C 2.351562 98.78125 2.148438 98.640625 1.988281 98.460938 C 1.824219 98.28125 1.707031 98.0625 1.640625 97.828125 C 1.578125 97.597656 1.570312 97.351562 1.617188 97.113281 C 1.671875 95.660156 1.617188 94.210938 1.617188 92.769531 L 1.617188 51.070312 C 1.617188 47.25 1.617188 47.257812 5.402344 47.257812 L 50.910156 47.257812 C 53.347656 47.257812 53.496094 47.378906 53.496094 49.769531 C 53.527344 57.671875 53.539062 65.570312 53.527344 73.472656 Z M 53.527344 73.472656 " fill-opacity="1" fill-rule="nonzero"/><path fill="#000000" d="M 100.660156 73.027344 C 100.660156 80.703125 100.660156 88.378906 100.660156 96.050781 C 100.660156 98.515625 100.492188 98.664062 97.972656 98.671875 C 95.449219 98.683594 92.730469 98.609375 90.117188 98.671875 C 88.535156 98.671875 87.941406 98.152344 87.957031 96.542969 C 88.023438 90.96875 87.957031 85.390625 87.957031 79.8125 C 87.957031 78.34375 87.625 77.765625 85.984375 77.84375 C 82.597656 77.992188 79.191406 77.933594 75.75 77.84375 C 74.296875 77.84375 73.765625 78.34375 73.792969 79.785156 C 73.859375 83.679688 73.851562 87.574219 73.792969 91.46875 C 73.792969 93.402344 73.582031 95.34375 73.515625 97.289062 C 73.515625 98.21875 72.992188 98.570312 72.136719 98.570312 L 63.046875 98.570312 C 62.835938 98.601562 62.621094 98.578125 62.421875 98.511719 C 62.222656 98.441406 62.039062 98.328125 61.894531 98.175781 C 61.746094 98.027344 61.632812 97.84375 61.570312 97.640625 C 61.503906 97.441406 61.488281 97.226562 61.519531 97.019531 C 61.519531 95.746094 61.519531 94.460938 61.519531 93.1875 L 61.519531 50.726562 C 61.519531 47.632812 61.519531 47.601562 64.730469 47.601562 C 67.121094 47.601562 69.523438 47.601562 71.914062 47.601562 C 73.097656 47.601562 73.5625 48.03125 73.683594 49.238281 C 74.183594 54.074219 73.851562 58.90625 73.886719 63.742188 C 73.886719 65.253906 74.269531 65.738281 75.859375 65.675781 C 79.3125 65.535156 82.765625 65.554688 86.21875 65.675781 C 87.726562 65.675781 88.078125 65.210938 88.078125 63.75 C 87.976562 59.101562 88.078125 54.40625 88.003906 49.730469 C 88.003906 48.132812 88.617188 47.566406 90.183594 47.613281 C 92.972656 47.6875 95.765625 47.613281 98.558594 47.613281 C 100.53125 47.613281 100.726562 47.816406 100.726562 49.851562 C 100.695312 57.574219 100.671875 65.300781 100.660156 73.027344 Z M 100.660156 73.027344 " fill-opacity="1" fill-rule="nonzero"/><path fill="#000000" d="M 122.140625 73.089844 C 122.140625 80.824219 122.140625 88.570312 122.140625 96.332031 C 122.140625 98.515625 121.953125 98.699219 119.75 98.710938 C 117.125 98.710938 114.507812 98.664062 111.882812 98.710938 C 110.414062 98.710938 109.734375 98.199219 109.734375 96.675781 C 109.734375 80.988281 109.734375 65.304688 109.734375 49.621094 C 109.734375 48.246094 110.285156 47.574219 111.734375 47.601562 C 114.527344 47.660156 117.421875 47.675781 120.261719 47.601562 C 121.757812 47.601562 122.175781 48.1875 122.167969 49.59375 C 122.121094 57.4375 122.167969 65.285156 122.167969 73.121094 Z M 122.140625 73.089844 " fill-opacity="1" fill-rule="nonzero"/></svg>