<?xml version="1.0" encoding="utf-8"?>
<!-- Generator: Adobe Illustrator 26.0.3, SVG Export Plug-In . SVG Version: 6.00 Build 0)  -->
<svg width="240" height="120" version="1.0" id="Layer_1" xmlns="http://www.w3.org/2000/svg" xmlns:xlink="http://www.w3.org/1999/xlink" x="0px" y="0px"
	 viewBox="0 0 240 120" enable-background="new 0 0 240 120" xml:space="preserve">
<rect fill="#FFFFFF" width="240" height="120"/>
<path fill="#0B1324" d="M96.0275,68.3522V51.2233h-3.554v17.1289H96.0275z M104.599,68.584c1.835,0,3.298-0.5795,4.39-1.7616
	c1.092-1.1821,1.649-2.7582,1.649-4.7052v-0.8576c-0.139-1.808-0.743-3.245-1.835-4.2881c-1.091-1.043-2.485-1.5761-4.204-1.5761
	c-1.123-0.03-2.233,0.2508-3.206,0.8113c-0.911,0.539-1.639,1.3383-2.0902,2.2946c-0.5068,1.0472-0.7614,2.1981-0.7433,3.3609l0,0
	v0.1623c0,2.0165,0.5575,3.6158,1.6495,4.7979C101.3,68.0045,102.741,68.584,104.599,68.584z M104.599,65.8489
	c-0.382,0.016-0.762-0.0623-1.107-0.2281c-0.344-0.1658-0.642-0.4139-0.867-0.7222c-0.442-0.649-0.674-1.5761-0.674-2.7814
	s0.232-2.3642,0.674-3.0132c0.231-0.2968,0.528-0.5365,0.868-0.7007c0.339-0.1642,0.711-0.2484,1.088-0.2461
	c0.378,0.0022,0.749,0.0908,1.086,0.259c0.338,0.1682,0.632,0.4114,0.86,0.7109c0.465,0.649,0.697,1.553,0.697,2.7351
	c0,1.1821-0.232,2.4106-0.697,3.0364c-0.215,0.3077-0.505,0.5562-0.842,0.7224C105.348,65.7871,104.975,65.8655,104.599,65.8489
	L104.599,65.8489z M116.492,68.3522v-6.0264h3.113c2.021,0,3.624-0.4868,4.785-1.4603c1.161-0.9735,1.719-2.2946,1.719-3.9635
	c0.023-1.0436-0.251-2.0724-0.79-2.9669c-0.545-0.8706-1.327-1.5697-2.253-2.0165c-1.072-0.4841-2.239-0.7217-3.415-0.6953h-6.69
	v17.1289H116.492z M119.651,59.4517h-3.159v-5.3775h3.252c0.377-0.0173,0.753,0.0452,1.104,0.1833
	c0.35,0.1381,0.668,0.3487,0.931,0.618s0.467,0.5912,0.596,0.9445c0.13,0.3532,0.183,0.7299,0.157,1.1052
	c0.019,0.3479-0.037,0.696-0.166,1.0201c-0.128,0.3241-0.325,0.6166-0.578,0.8573C121.301,59.243,120.58,59.4517,119.651,59.4517
	L119.651,59.4517z M136.864,68.3522l1.185-3.5231h6.202l1.184,3.5231h3.763l-6.434-17.1289h-3.275l-6.388,17.1289H136.864z
	 M143.298,61.9781h-4.297l2.137-6.4205L143.298,61.9781z M154.193,68.3522V50.2729h-3.438v18.0793H154.193z M160.581,68.3522
	V50.2729h-3.415v18.0793H160.581z M165.273,54.0974c0.255,0.0138,0.51-0.0243,0.749-0.112c0.24-0.0877,0.459-0.2231,0.645-0.3979
	c0.173-0.1586,0.31-0.3523,0.402-0.5682s0.137-0.4489,0.132-0.6835c0.003-0.2376-0.043-0.4734-0.135-0.6926
	c-0.092-0.2193-0.228-0.4174-0.399-0.5822c-0.396-0.316-0.888-0.4881-1.394-0.4881c-0.507,0-0.998,0.1721-1.394,0.4881
	c-0.169,0.1659-0.301,0.3648-0.389,0.5842c-0.088,0.2193-0.129,0.4545-0.122,0.6906c-0.006,0.2346,0.039,0.4676,0.131,0.6835
	c0.093,0.2159,0.23,0.4096,0.403,0.5682c0.182,0.1731,0.398,0.3075,0.633,0.3951C164.771,54.0703,165.022,54.1093,165.273,54.0974z
	 M166.992,68.3522v-12.725h-3.415v12.725H166.992z M173.635,68.584c1.324,0,2.393-0.4404,3.229-1.3675
	c0.054,0.392,0.163,0.7744,0.325,1.1357h3.461v-0.1854c-0.348-0.6258-0.511-1.553-0.511-2.7583V59.892
	c0-1.4138-0.464-2.5264-1.393-3.3145c-0.93-0.7881-2.161-1.1821-3.74-1.1821c-0.964-0.0223-1.922,0.1594-2.811,0.5331
	c-0.775,0.2939-1.446,0.81-1.928,1.4834c-0.452,0.5843-0.697,1.3017-0.697,2.0398h3.415c-0.01-0.2139,0.028-0.4272,0.113-0.6239
	c0.084-0.1967,0.212-0.3718,0.375-0.5119c0.383-0.2979,0.862-0.4463,1.347-0.4172c0.65,0,1.138,0.1854,1.44,0.5331
	c0.314,0.4026,0.47,0.9048,0.441,1.4139v0.7417h-1.556c-1.905,0-3.345,0.3709-4.344,1.0894c-0.999,0.7185-1.51,1.7616-1.51,3.1059
	c-0.009,0.5182,0.097,1.032,0.31,1.5048c0.213,0.4727,0.527,0.8928,0.922,1.2303C171.336,68.2363,172.381,68.584,173.635,68.584z
	 M174.379,65.988c-0.449,0.0223-0.889-0.1269-1.232-0.4172c-0.149-0.1282-0.266-0.289-0.343-0.47
	c-0.076-0.1809-0.11-0.377-0.098-0.573v-0.1855c0.116-1.1821,1.022-1.7847,2.741-1.7847h1.254v2.2019
	c-0.21,0.3884-0.534,0.7036-0.929,0.904C175.34,65.879,174.862,65.9902,174.379,65.988z M186.086,68.3522v-8.9701
	c0.211-0.3844,0.524-0.7028,0.906-0.9197c0.381-0.2169,0.815-0.3238,1.254-0.3087c0.743,0,1.255,0.1622,1.58,0.4867
	s0.464,0.8576,0.464,1.5761v8.1357h3.415v-8.2284c-0.023-1.5761-0.372-2.7582-1.022-3.5463c-0.651-0.7881-1.673-1.1821-3.02-1.1821
	s-2.764,0.5563-3.67,1.692l-0.093-1.4602h-3.229v12.725H186.086z M201.649,68.584c0.923,0.0148,1.838-0.1835,2.672-0.5795
	c0.779-0.3672,1.439-0.9455,1.904-1.6688c0.464-0.7097,0.706-1.5404,0.697-2.3874h-3.182c-0.001,0.2627-0.058,0.5222-0.166,0.7618
	c-0.108,0.2395-0.265,0.4538-0.461,0.6289c-0.425,0.3637-0.975,0.5467-1.533,0.5099c-0.814,0-1.417-0.2781-1.812-0.8576
	c-0.395-0.5794-0.604-1.5066-0.604-2.8278v-0.3476c0-1.298,0.209-2.2252,0.604-2.8046c0.395-0.5795,0.999-0.8576,1.788-0.8576
	c0.288-0.0191,0.577,0.0249,0.845,0.1291c0.269,0.1041,0.512,0.2657,0.712,0.4735c0.402,0.4358,0.626,1.0066,0.627,1.5993h3.182
	c0-1.4989-0.488-2.7042-1.463-3.6159c-0.953-0.9039-2.23-1.3443-3.833-1.3443c-1.603,0-3.252,0.5795-4.297,1.7384
	c-1.046,1.1589-1.58,2.735-1.58,4.7052v0.2318c0,2.0397,0.534,3.6391,1.58,4.798C198.374,68.0277,199.814,68.584,201.649,68.584
	L201.649,68.584z M214.75,68.584c1.001,0.02,1.994-0.186,2.904-0.6027c0.835-0.3576,1.552-0.9443,2.067-1.692l0,0l-1.672-1.8543
	c-0.72,0.9504-1.766,1.4139-3.066,1.4139c-0.773,0.0254-1.528-0.2392-2.114-0.7417c-0.565-0.5306-0.92-1.2464-0.999-2.0165H220V61.7
	c0-2.0166-0.488-3.5695-1.51-4.6589c-1.022-1.0894-2.369-1.6457-4.111-1.6457c-1.094-0.0262-2.172,0.2549-3.113,0.8113
	c-0.914,0.5627-1.648,1.3751-2.114,2.341c-0.509,1.0711-0.764,2.2451-0.743,3.4304l0,0v0.3245c0,1.9006,0.604,3.4304,1.765,4.5662
	C211.336,68.0045,212.892,68.584,214.75,68.584z M216.655,60.7728h-4.739c0.117-0.8344,0.372-1.4834,0.813-1.947
	c0.205-0.2245,0.457-0.4012,0.738-0.5173c0.281-0.1162,0.584-0.1691,0.888-0.1548c0.744,0,1.301,0.1854,1.696,0.6026
	c0.405,0.4967,0.619,1.1213,0.604,1.7616l0,0V60.7728z"/>
<path fill="#0B1324" d="M78.5135,60.8192v-1.7847c-0.4878-0.0696-0.8362-0.3941-1.2543-0.6258
	c-0.4182-0.2318-0.1394-0.5332-0.1859-0.7881c-0.1626-0.6722-0.0696-1.2285,0.604-1.5993c0.1732-0.0811,0.3111-0.222,0.388-0.3968
	s0.0876-0.3715,0.0301-0.5536c-0.1394-0.4635-0.0232-1.0893-0.7433-1.1821c-1.115-0.139-1.1382-1.043-1.3241-1.8542
	c-0.0464-0.255,0.1394-0.3941,0.2788-0.5563c0.6736-0.7417,0.6968-1.298,0.1626-2.1324c-0.1626-0.255-0.4414-0.1855-0.6737-0.2318
	c-0.2322-0.0464-0.72-0.0001-0.9059-0.2782c-0.2692-0.4176-0.4802-0.8699-0.6272-1.3443c-0.1161-0.3014,0.1859-0.5563,0.3252-0.8345
	c0.1394-0.2781,0.093-1.5298-0.4413-1.8543s-0.511-0.0927-0.7666-0.0695c-0.2555,0.0232-0.9756-0.0927-1.1846-0.6258l-0.0697-0.0927
	c-0.4646-0.4636-0.4878-0.9735-0.2323-1.5993c0.2555-0.6259-0.4878-1.8775-1.4867-1.6921
	c-0.2787,0.0464-0.6039,0.2318-0.8362,0.0464c-0.4264-0.3134-0.7957-0.6976-1.0917-1.1358c-0.1859-0.2549,0-0.649,0.0929-0.9503
	c0.2323-0.6953-0.3717-0.904-0.7201-1.2516c-0.3485-0.3477-0.604-0.3245-0.9756-0.1391c-0.3717,0.1854-0.6272,0.394-0.906,0.255
	c-0.481-0.217-0.921-0.5149-1.3008-0.8808c-0.2555-0.2318-0.1161-0.6258-0.1161-0.9503c-0.0081-0.217-0.0707-0.4285-0.1819-0.6151
	c-0.1113-0.1867-0.2677-0.3425-0.4549-0.4532c-0.1872-0.1107-0.3992-0.1727-0.6167-0.1805
	c-0.2175-0.0077-0.4334,0.0391-0.6281,0.1362c-0.2787,0.1622-0.5575,0.4867-0.8827,0.394
	c-0.4885-0.1509-0.9565-0.3611-1.3937-0.6258c-0.2091-0.1391-0.1626-0.4404-0.2091-0.6722
	c-0.0464-0.2318,0.0233-0.7185-0.2555-0.8808c-0.4087-0.2398-0.8571-0.4046-1.324-0.4867
	c-0.3252-0.0464-0.5343,0.3245-0.7433,0.5099c-0.2091,0.1854-0.6504,0.3477-1.0918,0.2782
	c-0.8595-0.1391-1.324-0.5331-1.4634-1.3676c-0.0232-0.2086-0.0697-0.2086-0.0929-0.394c-0.0233-0.1855-1.3938-0.1854-1.8351-0.1854
	c-0.0225,0.1674-0.0787,0.3286-0.1652,0.4738c-0.0866,0.1452-0.2017,0.2714-0.3384,0.371
	c-0.1367,0.0996-0.2923,0.1706-0.4572,0.2086c-0.165,0.0381-0.336,0.0424-0.5026,0.0128l-0.3485-0.0464
	c-0.7665-0.0695-0.9523-0.2086-1.1614-1.0198c-0.7093-0.2319-1.4742-0.2319-2.1835,0c-0.2323,0.9039-0.604,1.1125-1.9048,1.1125
	c-0.3949,0-0.9059-0.5331-1.0685-1.1125c-0.4181-0.1159-1.7654,0.2317-1.8583,0.2317c-0.302,0.3709-0.1394,0.6027-0.2788,1.0431
	c-0.1393,0.4404-0.3484,0.4172-0.6504,0.5331c-0.8594,0.3708-1.5563,0.2086-2.1603-0.5099
	c-0.0472-0.0694-0.1196-0.1179-0.2019-0.1352c-0.0823-0.0172-0.1681-0.0021-0.2394,0.0424l-0.2323,0.0928
	c-1.4867,0.4867-1.1847,0.6258-1.1847,1.437c0.0009,0.1404-0.044,0.2773-0.1277,0.3902c-0.0838,0.1128-0.202,0.1955-0.3369,0.2356
	l-0.1858,0.0928c-0.6504,0.4635-1.2776,0.4867-1.9048-0.0464c-0.6271-0.5331-0.5342-0.1623-0.8827,0
	c-0.2019,0.11-0.396,0.2339-0.5807,0.3708c-0.4181,0.3014-0.4181,0.3246-0.3716,0.8577c0.0464,0.5331,0.1626,0.6722-0.0929,0.9039
	c-0.374,0.3454-0.7966,0.6343-1.2544,0.8576c-0.302,0.1391-0.6736-0.1159-0.9756-0.2549c-0.302-0.1391-0.6272-0.0696-0.9756,0.1622
	l-0.5343,0.51c-0.2555,0.3245-0.2555,0.3013-0.1626,0.6953c0.0929,0.3941,0.302,0.6954,0.0929,0.9967
	c-0.3005,0.3924-0.652,0.7432-1.0453,1.043c-0.3484,0.2318-0.7898,0.0232-1.1614-0.0695c-0.3717-0.0927-0.5111,0.0695-0.7898,0.3245
	c-0.1689,0.184-0.317,0.3861-0.4414,0.6026c-0.2322,0.4404-0.209,0.4404,0,0.8808c0.2091,0.4404,0.3252,0.5563,0.1859,0.8344
	c-0.1958,0.4725-0.4886,0.8989-0.8595,1.2517c-0.2555,0.2318-0.6504,0.1159-0.9524,0.0927
	c-0.302-0.0232-0.6272,0.1622-0.9059,0.5099c-0.2787,0.3477-0.1858,0.4172-0.302,0.6258c-0.1161,0.2087-0.1394,0.4172,0.0929,0.7649
	c0.234,0.3558,0.3365,0.7818,0.2898,1.2048c-0.0466,0.423-0.2394,0.8165-0.5453,1.1131c-0.209,0.2086-0.5575,0.1622-0.8362,0.2318
	c-0.2788,0.0695-0.604-0.0232-0.7201,0.2317c-0.1162,0.255-0.4414,0.8577-0.4414,1.3444c0,0.4868,0.3252,0.5563,0.5575,0.7881
	s0.2788,0.5794,0.2323,0.9735c-0.1394,0.8808-0.5807,1.3675-1.4402,1.5298c-0.0538-0.0001-0.1072,0.0108-0.1567,0.032
	c-0.0494,0.0213-0.0941,0.0524-0.131,0.0915c-0.037,0.039-0.0656,0.0853-0.084,0.1358c-0.0185,0.0505-0.0263,0.1042-0.0232,0.1579
	c-0.0099,0.1333-0.0332,0.2653-0.0696,0.394c-0.2556,0.649-0.0233,1.1126,0.5574,1.4371c0.5808,0.3245,0.4646,0.7417,0.4414,1.2053
	c-0.0697,0.9271-0.6272,1.5066-1.6028,1.6225v1.692c0.543,0.0795,1.0428,0.341,1.417,0.7417
	c0.3716,0.3477,0.1858,1.7384-0.2091,2.0629c-0.3949,0.3245-0.8595,1.1358-0.4878,2.0165c0.0198,0.053,0.0508,0.1012,0.0908,0.1412
	c0.0401,0.04,0.0884,0.0709,0.1415,0.0906l0.2787,0.0927c0.9524,0.3477,1.3241,0.8576,1.3705,1.8775
	c0,0.3709-0.2787,0.5795-0.4878,0.7881c-0.209,0.2086-0.3949,0.7185-0.2323,1.2285c0.1626,0.5099,0.5343,0.9503,1.2079,0.9503
	c0.6737,0,0.813,0.2549,0.9524,0.7649c0.0582,0.1707,0.1362,0.334,0.2323,0.4867c0.0981,0.1138,0.1501,0.2601,0.1458,0.4101
	c-0.0043,0.1501-0.0646,0.2931-0.169,0.4012c-0.0396,0.0487-0.071,0.1035-0.0929,0.1622c-0.4414,0.7881-0.3717,1.3907,0.2787,2.0166
	c0.2091,0.2317,0.4878,0.139,0.7433,0.1622c0.2556,0.0232,0.6737-0.1159,0.906,0.0927c0.3727,0.3472,0.6727,0.7648,0.8827,1.2285
	c0.1393,0.2781-0.1162,0.5563-0.2091,0.8576c-0.0929,0.3013-0.302,0.5099-0.1626,0.7185c0.2406,0.417,0.5649,0.7799,0.9524,1.0662
	c0.2555,0.1854,0.6736-0.0232,0.9988-0.1159c0.1629-0.0594,0.3412-0.062,0.5058-0.0073c0.1645,0.0548,0.3056,0.1636,0.4002,0.3087
	l0.0696,0.0695c0.6737,0.4635,0.8595,1.0894,0.5808,1.8543c-0.1394,0.3476,0,0.5563,0.2555,0.7649
	c0.227,0.1649,0.4441,0.3429,0.6504,0.5331c0.0749,0.0782,0.1773,0.1244,0.2857,0.1287c0.1083,0.0043,0.2141-0.0335,0.295-0.1055
	c0.8362-0.5332,1.5099-0.2087,2.1603,0.3476c0.2323,0.2086,0.3949,0.3941,0.3252,0.6954c-0.2555,1.0198,0.3949,1.4139,1.1614,1.7616
	c0.0735,0.0476,0.1602,0.071,0.2477,0.0668c0.0875-0.0041,0.1715-0.0356,0.2401-0.09c0.7898-0.7186,1.5564-0.5563,2.3694-0.0232
	c0.1858,0.1391,0.3484,0.2318,0.3484,0.4868c-0.0056,0.0627,0.0023,0.1259,0.0233,0.1854c0.209,1.0198,0.4878,1.2748,1.4866,1.4834
	c0.302,0.0464,0.4413-0.1391,0.604-0.2781c0.7665-0.649,1.3472-0.7186,2.2532-0.255c0.3019,0.1391,0.3019,0.4404,0.4181,0.6954
	c0.1161,0.2549,0.0929,0.6953,0.3949,0.8112c0.4395,0.1575,0.9035,0.236,1.3705,0.2318c0.2787,0,0.4181-0.3477,0.5575-0.5563
	c0.1393-0.2086,0.7201-0.5563,1.3008-0.5563s1.2079,0.3709,1.4634,1.0431c0.0432,0.1423,0.1397,0.2627,0.2695,0.336
	c0.1297,0.0734,0.2827,0.0941,0.4274,0.058h0.1858c0.6504,0.1159,1.115-0.0695,1.3473-0.7417
	c0.2323-0.6722,0.5575-0.5795,1.0453-0.6722c0.4878-0.0927,1.3008,0.1391,1.7189,0.7881c0.0297,0.0675,0.073,0.1281,0.1273,0.1781
	c0.0544,0.0499,0.1185,0.088,0.1883,0.112c0.0699,0.024,0.144,0.0332,0.2176,0.0271c0.0736-0.006,0.1451-0.0272,0.2101-0.0623
	h0.2091c0.6504,0.0232,1.0685-0.2781,1.1847-0.9503c0.1161-0.6722,0.4181-0.7185,0.9059-0.8808
	c0.4878-0.1622,1.3008-0.1391,1.7886,0.4404c0.0439,0.0695,0.1021,0.1289,0.1708,0.1742c0.0687,0.0454,0.1462,0.0757,0.2275,0.0888
	c0.0813,0.0132,0.1644,0.0089,0.2439-0.0125c0.0796-0.0213,0.1536-0.0593,0.2173-0.1114l0.1393-0.0464
	c0.6969-0.1159,1.0221-0.5099,1.0221-1.2052c0-0.6954,0.3252-0.7418,0.7433-0.9736c0.4182-0.2317,1.1383-0.394,1.7654,0.0464
	c0.6272,0.4404,1.8583-0.1622,1.8816-1.0894c0-0.3245-0.1626-0.7185,0.0929-0.9503c0.3671-0.3599,0.7909-0.6575,1.2543-0.8808
	c0.3253-0.1391,0.6737,0.0927,0.9757,0.255c0.3019,0.1622,0.6504,0.0927,0.9988-0.1623c0.3484-0.2549,0.9059-0.8808,0.5807-1.6225
	c-0.1393-0.3477,0-0.649,0.2555-0.9735c0.5343-0.6953,1.1847-0.9271,1.9977-0.6258c0.0615,0.0346,0.1298,0.0554,0.2001,0.0611
	s0.1411-0.0039,0.2073-0.0282c0.0663-0.0242,0.1264-0.0625,0.1764-0.1122c0.05-0.0497,0.0886-0.1096,0.1131-0.1757
	c0.0232-0.0463,0.0929-0.0927,0.1394-0.139c0.4645-0.4636,0.6736-0.9504,0.2787-1.5762s-0.0929-0.7185,0.1394-1.1125
	c0.2323-0.3941,0.8827-1.0199,1.6725-0.8808c0.1601,0.0425,0.3307,0.0201,0.4743-0.0624s0.2487-0.2185,0.2922-0.378
	c0.0316-0.0974,0.0876-0.1852,0.1626-0.255c0.1748-0.1849,0.2721-0.4295,0.2721-0.6837c0-0.2543-0.0973-0.4989-0.2721-0.6838
	c-0.1858-0.2086-0.4646-0.4868-0.3484-0.7881c0.1821-0.4884,0.4323-0.9488,0.7433-1.3675c0.1626-0.1854,0.5807-0.1855,0.8827-0.2086
	c0.302-0.0232,0.6272-0.3014,0.8362-0.6954c0.2091-0.394,0.1859-1.2285-0.3484-1.692c-0.142-0.1027-0.2416-0.2535-0.2801-0.4242
	c-0.0384-0.1707-0.0132-0.3495,0.0711-0.503v-0.0463c0.0696-0.8345,0.511-1.3444,1.3705-1.4835
	c0.1395-0.0173,0.2674-0.0867,0.3578-0.1942c0.0905-0.1074,0.1369-0.245,0.13-0.3852c0.0197-0.1795,0.0507-0.3575,0.0929-0.5331
	c0.1161-0.4172,0-0.6954-0.3717-0.9735c-0.3716-0.2782-0.9756-1.5993-0.5342-2.2483c0.1574-0.2116,0.3599-0.3858,0.5928-0.5101
	C77.9921,60.9035,78.2497,60.8323,78.5135,60.8192L78.5135,60.8192z M49.3613,85.1335c-6.709,0-13.1432-2.6593-17.8872-7.393
	c-4.7439-4.7337-7.409-11.154-7.409-17.8484c0-6.6945,2.6651-13.1147,7.409-17.8484c4.744-4.7337,11.1782-7.3931,17.8872-7.3931
	c14.0999,0,25.3659,11.4039,25.3195,25.1951C74.6343,73.637,63.4844,85.1335,49.3613,85.1335z"/>
<path fill="#0B1324" d="M46.1803,61.0278l0.0464,0.0928l0.1859,0.1159l1.9512,0.649l1.9512,0.6026h0.302l0.1161-0.0463h0.0233
	l0.1161-0.0696l2.5784-2.2251c0.0929-0.0696,0.1394-0.1159,0.1394-0.1855c0-0.0695-0.0232-0.139-0.0929-0.2318
	c-0.139-0.2115-0.2557-0.4367-0.3485-0.6721c-0.0787-0.2413-0.1332-0.4897-0.1626-0.7417c-0.0198-0.1693-0.0276-0.3396-0.0232-0.51
	l0,0c0.0645-0.6216,0.2797-1.2183,0.6272-1.7383l0.302-0.2782l0.0696-0.0695l0.2091-0.1623l0.0929-0.0695l0.1858-0.1159
	l0.093-0.0696l0.1858-0.0927l0.0929-0.0695l0.1858-0.0927h0.0697l0.2555-0.0696h0.0697l0.2091-0.0463h0.7433l0.2323,0.0463h0.0697
	l0.2091,0.0696h0.0929l0.1858,0.0695l0.0929,0.0464l0.1858,0.0695l0.093,0.0464l0.3019,0.139h0.3717l0.0465-0.0463
	c0.9523-1.1358,1.8815-2.2947,2.7642-3.4768c0.0569-0.0642,0.0897-0.1461,0.0929-0.2318c0.0232-0.0927-0.0465-0.1854-0.1626-0.3013
	c-0.4406-0.3784-0.7429-0.892-0.8595-1.4603l0,0c-0.0054-0.039-0.0132-0.0777-0.0232-0.1159l0,0l-0.0465-0.0695l-0.0464-0.0464
	c0-0.0231,0-0.0231-0.0232-0.0231c-0.0233,0-0.0233-0.0232-0.0233-0.0464h-0.3949c-2.3228,0.0464-4.6225,0.2086-6.9454,0.4868
	c-3.3845,0.4127-6.7265,1.1185-9.9884,2.1092c-0.0929,0.0464-0.2091,0.0464-0.2788,0.0927l-0.9756,0.3014l-1.7886,0.6721
	c-1.0453,0.3245-1.9977,0.7881-2.9965,1.1822c-0.1031,0.0274-0.1917,0.093-0.2479,0.1835
	c-0.0561,0.0905-0.0755,0.1989-0.0541,0.3032c0.0589,0.4911,0.0114,0.9891-0.1394,1.4602
	c-0.0696,0.1855,0.0465,0.2782,0.1859,0.3477c0.6457,0.3918,1.3126,0.7478,1.9977,1.0662l0,0l0.3019,0.1391l1.417,0.7417
	l0.1161,0.0696h0.3252l0.0465-0.0464c0.0062,0,0.0121-0.0025,0.0164-0.0068c0.0044-0.0044,0.0068-0.0102,0.0068-0.0164
	l0.0697-0.0927l0.2323-0.2781l0.0697-0.0696l0.209-0.1854l0.0465-0.0464l0.2788-0.2086l0.0464-0.0463l0.2323-0.1159l0.0697-0.0464
	l0.302-0.139l0.3252-0.0928h0.0696l0.2556-0.0463h1.0685l0.2091,0.0463h0.0929l0.2787,0.1159l0.4646,0.255
	c0.1532,0.0892,0.2938,0.1983,0.4181,0.3245c0.4453,0.4069,0.7537,0.9412,0.8827,1.5298l0.0697,0.2549
	c0.0498,0.3699,0.042,0.7452-0.0232,1.1126C46.1778,60.9814,46.1778,61.0047,46.1803,61.0278L46.1803,61.0278z M38.8864,56.508
	l-0.0465-0.0463h-0.0464c-0.4181-0.1855-0.813-0.4172-1.2544-0.649c0.0188-0.1693,0.0266-0.3397,0.0233-0.51l0.4413-0.1854
	l1.1615-0.4636c-0.093,0.3245,0,0.4173,0.3019,0.4404c0.3823,0.0018,0.7635,0.0406,1.1382,0.1159
	c0.6737,0.2086,1.0918-0.0463,1.4867-0.5794c0.3949-0.5331,0.7433-0.9272,1.1382-1.3907c0.7898-0.2318,1.6028-0.4636,2.4158-0.649
	c0.0063,0.0347,0.0225,0.0668,0.0465,0.0927l1.324,2.6655c0.0541,0.1673,0.1598,0.3134,0.302,0.4172l1.0453-1.7152
	c0.1626-0.255,0-0.3708-0.1626-0.5099l-1.3938-1.2517l1.1615-0.2549l3.4611,1.437c0.0557,0.0376,0.1185,0.0632,0.1846,0.0754
	c0.066,0.0121,0.1339,0.0106,0.1993-0.0047c0.0655-0.0152,0.127-0.0438,0.1809-0.0838c0.0538-0.0401,0.0988-0.0909,0.1321-0.1491
	c0.6039-0.7417,1.2311-1.4603,1.8583-2.202l1.1846-0.0927l0.8595,1.0199c0.1858,0.2086,0.1626,0.3245-0.0464,0.4867l-1.8816,1.5298
	c-0.5175,0.3005-0.9938,0.6667-1.4169,1.0894l-0.1162,0.1159l-0.0929,0.1391c-0.4656,0.7093-0.7525,1.5204-0.8362,2.3642
	c0,0.0927,0.0232,0.1854,0.0232,0.2781l-2.1835,0.4172c-0.1189,0.0287-0.243,0.0268-0.3609-0.0057
	C49,58.4169,48.8924,58.355,48.8051,58.2696l-2.741-2.4569c-0.0823-0.0793-0.1813-0.1392-0.2899-0.1753
	c-0.1085-0.0361-0.2237-0.0474-0.3373-0.0333l-5.0871,0.2086c-0.1131-0.0032-0.2255,0.018-0.3297,0.062
	c-0.1042,0.0439-0.1977,0.1098-0.2742,0.193c-0.1626,0.2086-0.3485,0.394-0.5343,0.6026L38.8864,56.508z"/>
<path fill="#0B1324" d="M30.2458,73.9614h0.0929l0.1858-0.0463h0.2788l0.1394-0.0464l0.1393-0.0464l0.5343-0.2317l0.4646-0.1623
	c0.4645-0.1159,0.5807-0.3245,0.511-0.8344c-0.2091-1.4835,0.511-2.7815,1.7422-3.3377c0.4093-0.1825,0.8525-0.2773,1.3008-0.2782
	c0.4359,0.006,0.8662,0.0993,1.2652,0.2745c0.3991,0.1752,0.7588,0.4287,1.0577,0.7454c0.2555,0.3013,0.3949,0.4404,0.5575,0.4404
	c0.2079-0.0478,0.4049-0.1343,0.5807-0.255l0.1394-0.1391h0.1161l0.1161-0.0463c1.2776-0.6954,2.5552-1.4139,3.7864-2.1556
	c2.0673-1.2517,4.065-2.6192,5.993-4.0563l0.1161-0.0927c0.0697-0.0464,0.1394-0.0927,0.1162-0.2086l-1.7886-0.5794l-1.7887-0.6027
	l-0.1161-0.0464h-0.1394l-0.0929,0.0464h-0.0232l-0.0929,0.0927l-0.2323,0.2086l-0.0697,0.0696l-0.1858,0.139L44.88,62.8589
	l-0.2555,0.1622h-0.0233l-0.2323,0.1159H44.276l-0.1858,0.0927h-0.0697l-0.2787,0.0696h-0.0233l-0.2555,0.0463h-0.9988
	l-0.1859-0.0695h-0.0929l-0.2555-0.0927c-1.3008-0.6027-1.928-1.6457-1.9048-3.0828v-0.0463
	c0.0069-0.0727-0.0094-0.1457-0.0464-0.2086c-0.0106-0.0236-0.0266-0.0443-0.0468-0.0604c-0.0202-0.0161-0.044-0.0272-0.0694-0.0324
	l-0.3019-0.139c-0.6969-0.3477-1.3705-0.7649-2.1139-1.0199c-0.3252-0.3013-0.7665-0.4172-1.1382-0.6721
	c-0.2294-0.1956-0.5129-0.3168-0.813-0.3477c-0.131,0.0131-0.2574,0.0553-0.3699,0.1235c-0.1126,0.0681-0.2084,0.1606-0.2805,0.2705
	l-0.1161,0.0696c-0.4887,0.279-1.0399,0.4305-1.6028,0.4403c-0.753-0.0149-1.4767-0.2939-2.0442-0.788
	c-0.1161-0.0927-0.209-0.1855-0.3484-0.1855l-0.2091,0.0696c-1.1614,0.7649-2.3229,1.4834-3.3914,2.3874
	c-0.4979,0.3457-0.9713,0.7251-1.4169,1.1357c-0.0781,0.058-0.1389,0.1361-0.1757,0.2259c-0.0369,0.0899-0.0484,0.1881-0.0334,0.284
	c0.2438,4.2305,1.6326,8.3158,4.0186,11.8211l0.0929,0.1623l0.0465,0.0463c0,0.0232,0.0232,0.0464,0.0464,0.0696v0.0463
	l0.0697,0.0695v0.0464l0.0465,0.0464h0.0232l0.0697,0.0695l0.0697,0.0464h0.209L30.2458,73.9614z M27.8532,60.9351h0.0697
	l0.0465-0.0696c0.8773-0.6913,1.7924-1.3336,2.741-1.9238c0.7099,0.4915,1.5517,0.7581,2.4158,0.7649
	c0.7636-0.0174,1.5121-0.216,2.1835-0.5795l0.302-0.1854c0.1947,0.1269,0.3963,0.243,0.6039,0.3477
	c0.115,0.0397,0.2244,0.0942,0.3252,0.1622h0.0232l-1.1846,1.2749c-0.1628,0.1383-0.2768,0.3252-0.3252,0.5331
	c-0.093,1.2516-0.2091,2.5264-0.3252,3.7781c0.0016,0.1932,0.0669,0.3805,0.1858,0.5331l1.7189,2.1092
	c-0.3278-0.0742-0.6627-0.113-0.9988-0.1159c-0.6337-0.0083-1.261,0.1264-1.8351,0.3941c-0.813,0.3568-1.4952,0.9563-1.9527,1.7159
	c-0.4576,0.7595-0.6681,1.6419-0.6025,2.5257h-0.1393l-0.2323,0.0928h-0.0233c-0.1691-0.264-0.2666-0.5673-0.2829-0.8802
	c-0.0163-0.3128,0.0492-0.6246,0.19-0.9046c0.0454-0.1248,0.0564-0.2594,0.0319-0.3899c-0.0245-0.1304-0.0836-0.2519-0.1713-0.3518
	c-0.8826-1.4139-1.7421-2.851-2.6248-4.288c-0.134-0.2242-0.2356-0.4661-0.302-0.7186c-0.2345-1.1235-0.3897-2.262-0.4646-3.4072
	C27.4257,61.1996,27.6352,61.0603,27.8532,60.9351L27.8532,60.9351z"/>
<path fill="#0B1324" d="M58.9987,38.4286c0.9989,1.7384,1.928,3.5232,2.7643,5.3543l0.6271,1.4834l0.0697,0.1623v0.0463
	l0.0465,0.1159l0.0464,0.0464c0.0064,0.0347,0.0225,0.0668,0.0465,0.0927l0.0464,0.0464l0.0465,0.0695
	c0.0232,0,0.0232,0.0232,0.0465,0.0464l0.0697,0.0463h0.0696l0.0697,0.0464h0.8827l0.1626,0.0463h0.0465l0.1161,0.0464h0.2323
	c0-0.0062,0.0025-0.0121,0.0068-0.0164c0.0044-0.0044,0.0103-0.0068,0.0164-0.0068h0.0465l0.0465-0.0463
	c0.0061,0,0.012-0.0025,0.0164-0.0068c0.0043-0.0044,0.0068-0.0103,0.0068-0.0164l0.0464-0.0696
	c0.3949-0.8808,0.7898-1.7383,1.2079-2.596c0.0705-0.1076,0.0954-0.2388,0.0693-0.3647c-0.0261-0.126-0.1011-0.2365-0.2086-0.3074
	c-1.3745-1.2915-2.8945-2.4193-4.5297-3.3609c-0.5575-0.3245-1.1149-0.6027-1.6957-0.8808l-0.0697-0.0464h-0.3716L58.9987,38.4286z"
	/>
<path fill="#0B1324" d="M72.3804,65.8027v-0.0464h-0.3716l-0.3252,0.0464l-1.0453,0.0927h-0.4878
	c-0.3717,0-0.5343,0.1855-0.6504,0.6259c-0.1123,0.4403-0.3293,0.8471-0.6325,1.186c-0.3033,0.3389-0.6839,0.5999-1.1097,0.761
	c-0.1064,0.0321-0.1977,0.1012-0.2573,0.1948c-0.0597,0.0935-0.0838,0.2053-0.0679,0.3151v3.8476l-0.1394,1.4139
	c-0.0464,0.5331-0.0929,1.0662-0.1393,1.6457c0.1414-0.1459,0.2733-0.3008,0.3948-0.4636c0.9661-1.1237,1.8145-2.3431,2.532-3.639
	l0.3717-0.6722c0.3484-0.6722,0.6504-1.3675,0.9291-2.0629c0.3841-0.9371,0.7099-1.897,0.9756-2.8741
	c0-0.0464,0.0232-0.0696,0.0232-0.1159V65.965V65.8027z M69.6859,68.6305c-0.2787,0.649-0.6039,1.298-0.9291,1.9238v-1.2516
	C69.0938,69.1188,69.406,68.893,69.6859,68.6305L69.6859,68.6305z"/>
<path fill="#0B1324" d="M61.0197,76.5807c0.4414-0.9504,0.8827-1.9007,1.3705-2.8974c-1.5795,1.0199-2.741,2.2484-3.0197,4.0795
	C60.439,77.6005,60.5784,77.5078,61.0197,76.5807z"/>
<path fill="#0B1324" d="M43.8541,48.6504c-0.1394-0.7417-0.302-1.4603-0.4646-2.3179l-2.3461,2.3179
	c-0.1858,0.1854-0.1161,0.2781,0.0697,0.3708l0.9291,0.4636c0.0643,0.0345,0.1361,0.0525,0.2091,0.0525
	c0.073,0,0.1448-0.018,0.2091-0.0525l1.115-0.3941C43.7844,48.998,43.9006,48.9053,43.8541,48.6504z"/>
<path fill="#0B1324" d="M41.4656,44.6407c0.302,0.1854,0.5575,0.4403,0.8362,0.6258c0.2788,0.1854,0.2091,0.3245,0.3949,0.1622
	c0.1858-0.1622,0.3717-0.3013,0.3949-0.6258c0.0232-0.3245-0.2787-0.8344-0.5807-1.1126c-0.302-0.2781-0.5343,0.2318-0.813,0.3709
	l-0.1859,0.0927C41.2333,44.293,41.1404,44.4321,41.4656,44.6407z"/>
<path fill="#0B1324" d="M52.2665,63.0212c1.6493,0.4172,3.3218,0.7881,5.0175,1.043l0.7433,0.0927
	c0.6504,0.1159,2.9501,0.3941,3.043,0.4172c0.7201,0.0928,1.4402-0.0231,2.137,0.1623h0.1162c0.1858,0,0.2323-0.1622,0.3019-0.3245
	c0.1529-0.4448,0.4095-0.8471,0.7488-1.1735c0.3392-0.3265,0.7514-0.5677,1.2025-0.704c0.2787-0.0927,0.3949-0.1854,0.3252-0.4867
	s-0.0929-0.7185-0.1626-1.0894c-0.1923-1.5077-0.4794-3.0018-0.8595-4.4735c-0.2107-1.134-0.482-2.2559-0.813-3.3609l-0.1394-0.4635
	c0.0011-0.0126-0.0004-0.0252-0.0044-0.0372c-0.004-0.0119-0.0104-0.023-0.0188-0.0324v-0.1159
	c-0.0135-0.0118-0.0218-0.0285-0.0232-0.0463l0,0c0.001-0.0126-0.0005-0.0252-0.0045-0.0372
	c-0.004-0.0119-0.0104-0.0229-0.0188-0.0323l0,0v-0.0464h-0.0232c-0.0062,0-0.0121-0.0025-0.0164-0.0068
	c-0.0044-0.0044-0.0068-0.0102-0.0068-0.0164h-0.6504l-0.2091-0.0463h-0.813c-0.0062,0-0.0121,0.0024-0.0164,0.0068
	c-0.0044,0.0043-0.0068,0.0102-0.0068,0.0163c-0.0465,0.0232-0.0929,0.0232-0.1162,0.0696
	c-0.0428,0.0274-0.0755,0.0681-0.0929,0.1158c-0.8362,1.1358-1.6957,2.2716-2.6249,3.3146l-0.2322,0.2781l-0.0697,0.1391
	c-0.0449,0.0942-0.0687,0.197-0.0697,0.3013c-0.0095,0.19,0.0222,0.3797,0.0929,0.5563l0.1161,0.2781l0.0697,0.255
	c0.0261,0.1767,0.0416,0.3547,0.0465,0.5331c0.0232,1.0431-0.5575,1.947-1.6957,2.7351c-0.3859,0.1329-0.7821,0.2337-1.1847,0.3013
	h-1.2311l-0.1394-0.0463h-0.0929l-0.1858-0.0928l-0.093-0.0463h-0.3252l-0.0696,0.0463l-1.0221,0.904l-1.0221,0.8808
	c-0.0697,0.0695-0.1858,0.0927-0.1858,0.2086v0.0464C52.0342,63.0212,52.1736,62.998,52.2665,63.0212z M62.6731,63.3225h-0.7666
	c0.7433-0.7881,1.4634-1.5761,2.23-2.3642c0.2787-0.3013,0.2323-0.4404-0.0697-0.6722c-1.2079-0.8344-2.3694-1.692-3.554-2.5265
	c-0.0228-0.3576-0.1011-0.7094-0.2323-1.043c0.2366-0.1488,0.5101-0.229,0.7898-0.2318h2.4622l0.0465,0.1855v0.1622
	c0.3235,1.1964,0.5718,2.4118,0.7433,3.6391c0.0232,0.2317,0.0697,0.4867,0.0929,0.7185c0.0284,0.1138,0.044,0.2304,0.0465,0.3477
	C63.7037,61.9458,63.082,62.5662,62.6731,63.3225L62.6731,63.3225z M57.9576,62.0477l0.1626-0.0695l0.1394-0.0928l0.7665,1.0894
	c-0.2586-0.0146-0.5152-0.0534-0.7665-0.1159h-0.0697l-0.9756-0.139l-0.2091-0.3941
	C57.3304,62.2563,57.6556,62.1404,57.9576,62.0477z"/>
<path fill="#0B1324" d="M25.9682,59.4285c0.2787-0.255,0.5807-0.4636,0.8595-0.6954l0.4181-0.3477l2.741-1.8079
	c0.0864-0.049,0.1512-0.1287,0.1813-0.2232c0.0302-0.0945,0.0235-0.1969-0.0187-0.2867c-0.1627-0.5445-0.1627-1.1245,0-1.6689
	c0.0429-0.0993,0.0476-0.2109,0.0133-0.3135c-0.0342-0.1026-0.1051-0.189-0.1992-0.2428l-1.5563-1.1125l-1.0685-0.8808
	l-0.0697-0.0696h-0.2555l-0.0465,0.0464h-0.0232v0.0463h-0.0232c-0.0233,0.0464-0.0233,0.0928-0.0465,0.1391
	c-0.6775,1.8836-1.107,3.847-1.2776,5.841c-0.0697,0.6258-0.1858,1.2517-0.0697,1.9702L25.9682,59.4285z M28.082,54.1206
	l0.6736,0.4635c-0.0581,0.4075-0.0581,0.8211,0,1.2285l-1.324,0.8808c0.1164-0.9016,0.3028-1.7928,0.5575-2.6656L28.082,54.1206z"/>
<path fill="#0B1324" d="M66.5058,49.6936h-0.2323l-0.0929,0.0463l-0.0697,0.0696c-0.0259,0.0422-0.0418,0.0898-0.0465,0.1391
	c-0.0833,0.3128-0.2167,0.6102-0.3949,0.8807c-0.0943,0.164-0.2306,0.3-0.3949,0.3941l-0.1626,0.139
	c-0.1016,0.0917-0.1767,0.2088-0.2175,0.3393c-0.0409,0.1304-0.046,0.2694-0.0148,0.4025c0.0141,0.1251,0.0373,0.2491,0.0697,0.3708
	c0.2013,0.6799,0.3872,1.3521,0.5575,2.0166c0.1859,0.6721,0.3485,1.3443,0.5343,2.0165c0.0232,0.1622,0.0232,0.3477,0.0464,0.4867
	c0.3562,1.6225,0.635,3.245,0.8363,4.8675c0.0464,0.3477,0.1394,0.51,0.4878,0.6027c0.4149,0.105,0.8011,0.3009,1.1306,0.5735
	c0.3295,0.2727,0.594,0.6152,0.7742,1.0026c0.2787,0.5563,0.3716,0.6954,0.6968,0.6954l0.5807-0.0464l0.3485-0.0463h1.5795
	c0-0.0232,0.0233-0.0232,0.0465-0.0232c0.0232,0,0.0232-0.0232,0.0232-0.0464h0.0697c0-0.0232,0.0232-0.0231,0.0232-0.0463v-0.0927
	c0-0.0251,0.0082-0.0495,0.0233-0.0696l0,0c0.01-0.0381,0.0178-0.0768,0.0232-0.1159l0.1394-0.9735
	c0.1204-0.9611,0.1825-1.9287,0.1858-2.8973c0.0207-1.2335-0.0648-2.4665-0.2555-3.6854c-0.1441-1.0587-0.3693-2.1048-0.6736-3.1291
	c-0.1394-0.4636-0.2788-0.9271-0.4414-1.3907c-0.0642-0.135-0.1185-0.2744-0.1626-0.4172
	c-0.1161-0.3013-0.2323-0.6258-0.3717-0.9272v-0.0695l-0.1393-0.2086h-0.0233c-0.0478-0.0601-0.1076-0.1096-0.1756-0.1455
	c-0.0679-0.0359-0.1426-0.0574-0.2193-0.0631h-0.1393c-0.9756-0.1391-1.9745-0.2318-2.9733-0.3477L66.5058,49.6936z M70.8263,63.369
	h-0.3716c-0.4733-0.9425-1.2866-1.6713-2.2765-2.0398c-0.0929-0.6953-0.209-1.3907-0.3252-2.1092
	c0.4878,0.6953,0.9524,1.4139,1.417,2.1324c0.2323,0.3477,0.3717,0.4172,0.7433,0.1623c0.3717-0.255,0.5807-0.51,0.5111-1.0199
	c-0.2788-2.2715-0.5111-4.5662-0.7666-6.8608c-0.0232-0.2318-0.0232-0.4868-0.0465-0.7418
	c-0.0068-0.0402-0.0046-0.0814,0.0063-0.1207c0.0109-0.0393,0.0304-0.0757,0.0569-0.1067c0.0266-0.0309,0.0597-0.0557,0.097-0.0725
	c0.0372-0.0167,0.0777-0.0251,0.1186-0.0246c0.1858-0.0463,0.1858,0.1391,0.2091,0.255c0.9799,2.8512,1.3672,5.8718,1.1382,8.8774
	c-0.0465,0.5331-0.1162,1.0662-0.1859,1.5993L70.8263,63.369z"/>
<path fill="#0B1324" d="M66.437,69.0477c0-0.3477-0.0929-0.4636-0.4645-0.5331c-0.5754-0.0725-1.1141-0.3208-1.5425-0.7109
	c-0.4283-0.3901-0.7253-0.9028-0.8501-1.4679c-0.1162-0.4404-0.302-0.6026-0.6272-0.6026h-0.4413
	c-0.1329-0.0551-0.2744-0.0865-0.4182-0.0928c-0.9291-0.139-1.8583-0.0695-2.8106-0.2317l-2.9966-0.4868l-2.0209-0.394
	c-0.9988-0.2086-1.9744-0.4404-2.9733-0.6954h-0.1394c0-0.0061-0.0024-0.012-0.0068-0.0164
	c-0.0043-0.0043-0.0102-0.0068-0.0164-0.0068h-0.2323c-0.0232,0-0.0232,0-0.0232,0.0232H50.595l-0.1162,0.0927
	c-1.7888,1.4052-3.6581,2.7054-5.5981,3.894c-1.1847,0.7649-2.4158,1.4835-3.6238,2.202l-2.3228,1.2053
	c-0.2091,0.0927-0.2091,0.2549-0.2091,0.4404c0.0929,1.3211-0.4413,2.341-1.626,2.9668c-0.4602,0.2634-0.9795,0.4069-1.5099,0.4172
	c-0.6862-0.0071-1.3465-0.2624-1.8583-0.7185c-0.0889-0.0974-0.1963-0.1761-0.3159-0.2318
	c-0.1196-0.0557-0.2491-0.0872-0.381-0.0927c-0.2416,0.0304-0.4725,0.1178-0.6736,0.255l0,0l-0.3717,0.1159
	c-0.3716,0.1854-1.0453,0.2086-1.115,0.5099v0.1391c0.0465,0.3476,0.5111,0.6258,0.7898,0.9271
	c0.5282,0.5774,1.0865,1.1267,1.6725,1.6457c0.7108,0.6415,1.4552,1.245,2.23,1.8079c0.2987,0.2244,0.6088,0.4333,0.9291,0.6258
	c0.4878,0.3245,0.9756,0.6027,1.4634,0.8808c0.9765,0.5356,1.994,0.9929,3.043,1.3676l1.0686,0.3708
	c1.8562,0.5701,3.7751,0.9126,5.7143,1.0199l0.7433,0.0463h2.137l0.9757-0.0695h0.1393l1.0221-0.1159h0.0697l0.9988-0.1623
	c0.0233,0,0.0465,0,0.0465-0.0231c0.3376-0.045,0.6715-0.1147,0.9988-0.2087h0.1162l0.9291-0.2549l0.1626-0.0464
	c0.302-0.0695,0.604-0.1854,0.906-0.2781l0.1393-0.0464l0.906-0.3476l0.1393-0.0464l0.8827-0.394h0.0929l0.906-0.4404h0.0232
	l0.9059-0.4868l0.0929-0.0695l0.8363-0.5099l0.1393-0.0928l0.8131-0.5331l0.1393-0.1158l0.7898-0.5795l0.1394-0.0927l0.7898-0.649
	l0.0929-0.0696l0.813-0.7417c0.1473-0.1284,0.2525-0.298,0.302-0.4867l0.0697-0.6027c0.0423-0.2067,0.0733-0.4157,0.0929-0.6258
	c0.0464-0.394,0.0697-0.8112,0.0929-1.2285C66.3906,72.594,66.437,70.8325,66.437,69.0477z M37.7262,75.8622
	c0.6862-0.3396,1.2657-0.8607,1.6754-1.5065c0.4096-0.6459,0.6336-1.3915,0.6474-2.1557l1.1847-0.6027l0.6272-0.3245h0.0697
	l1.1382-0.6721l0.4413-0.2782l1.6493,0.1391c0.3252,0.0232,0.4646,0.1622,0.3484,0.4636c-0.3716,0.9966-0.0697,1.7615,0.6969,2.4337
	c0.4194,0.3332,0.7372,0.7766,0.9178,1.2803c0.1805,0.5037,0.2167,1.0476,0.1043,1.5707c-0.2091,1.043,0.209,1.8311,0.9291,2.5496
	c0.6021,0.6243,1.1682,1.282,1.6957,1.9702c0.0644,0.0982,0.1552,0.1763,0.262,0.2255s0.2253,0.0674,0.342,0.0526
	c0.9524-0.0927,1.928-0.1391,2.9036-0.1854c0.2988-0.0079,0.5825-0.1328,0.7898-0.3477l4.6225-4.3807
	c0.1083-0.0866,0.1883-0.2034,0.2297-0.3355c0.0414-0.1321,0.0423-0.2736,0.0026-0.4062c-0.1394-0.6954-0.2555-1.4139-0.4181-2.1093
	c-0.0497-0.1486-0.0608-0.3072-0.0324-0.4613c0.0285-0.154,0.0955-0.2983,0.195-0.4195c0.8827-1.1126,1.7422-2.2715,2.6248-3.384
	c0.3787-0.4356,0.6352-0.9634,0.7434-1.5298l0.0697-0.3014h0.2555c0.2085,0.6098,0.5595,1.1611,1.0241,1.6085
	c0.4645,0.4474,1.0292,0.778,1.6472,0.9644c0,1.5993-0.0697,3.1291-0.1858,4.5893v0.0464c-0.0465,0.5099-0.0929,1.043-0.1626,1.5761
	c-0.7091,0.7119-1.47,1.3704-2.2765,1.9702c-4.9709,3.6159-10.5226,5.0297-16.5854,4.1026
	c-4.4754-0.6477-8.6305-2.6924-11.8699-5.841c0.493,0.2044,1.0224,0.3069,1.5563,0.3013
	C36.3398,76.4393,37.0731,76.2325,37.7262,75.8622L37.7262,75.8622z"/>
<path fill="#0B1324" d="M28.7552,51.6406h0.0465c0.5343,0.5331,1.1614,0.904,1.7654,1.3444
	c0.0263,0.0293,0.0585,0.0528,0.0946,0.0687c0.036,0.016,0.075,0.0242,0.1145,0.024c0.0998-0.0122,0.1912-0.0619,0.2555-0.1391
	c0.5787-0.5237,1.3325-0.813,2.1138-0.8112c0.4638,0.0014,0.9214,0.1062,1.3393,0.3067c0.418,0.2005,0.7858,0.4917,1.0765,0.8522
	c0.0336,0.0493,0.0785,0.0897,0.1311,0.118c0.0526,0.0282,0.1112,0.0434,0.1709,0.0443c0.0725,0.0029,0.1446-0.0131,0.209-0.0464
	c1.9786-0.891,4.0113-1.6574,6.086-2.2947c0.8362-0.2627,1.6725-0.4944,2.5087-0.6953c1.417-0.3709,2.8339-0.6954,4.2509-0.9503
	c3.4709-0.6439,6.9924-0.9775,10.5227-0.9967c0.3949-0.0232,0.6272-0.0696,0.7665-0.5099c0.0857-0.3065,0.2362-0.591,0.4414-0.8345
	c0.2084-0.2512,0.4601-0.4631,0.7433-0.6258l0.0929-0.0464c0.038-0.0214,0.0704-0.0515,0.0946-0.0877
	c0.0242-0.0363,0.0396-0.0776,0.0448-0.1209c0.0145-0.0779,0.0064-0.1583-0.0232-0.2318l-0.0465-0.0927
	c-0.7123-1.7152-1.5021-3.384-2.3693-5.0065c-0.5111-0.9967-1.0453-1.947-1.6261-2.9205c-0.0671-0.1215-0.1627-0.2249-0.2787-0.3014
	c-0.0897-0.0723-0.1921-0.1273-0.302-0.1622h-0.0464l-0.8595-0.255l-0.2555-0.0927l-0.604-0.1622l-0.2787-0.0696l-0.7201-0.1622
	h-0.1394l-0.8362-0.1623l-0.2323-0.0463l-0.6504-0.0927H52.077l-0.6504-0.0696h-0.209l-0.8595-0.0695h-2.0674l-0.9059,0.0463
	h-0.2323l-0.6969,0.0928h-0.2787l-0.9059,0.1622c-7.7585,1.4139-13.4495,5.6556-17.1894,12.5628
	C27.2918,50.6671,27.3383,50.6903,28.7552,51.6406z M41.7634,49.8559c-1.9265,0.59-3.8187,1.2865-5.6678,2.0861
	c-0.8067-0.733-1.8591-1.1382-2.9501-1.1358c-0.8463,0.0089-1.6739,0.2494-2.3926,0.6954l-0.0697-0.0464
	c-0.3419-0.2245-0.6679-0.4724-0.9756-0.7417l-0.209-0.2086l-0.1626-0.0696c0.4361-0.9053,0.9327-1.7803,1.4866-2.6191
	c0.0614-0.1259,0.1572-0.2319,0.2764-0.3057c0.1192-0.0739,0.2569-0.1125,0.3972-0.1115h0.1859
	c0.4945,0.0197,0.9854-0.0922,1.4222-0.3244c0.4368-0.2322,0.8038-0.5763,1.0633-0.9968c0.4431-0.6365,0.9405-1.2336,1.4866-1.7848
	c0.6896-0.6381,1.1677-1.471,1.3705-2.3874c0.0229-0.1365,0.0795-0.2651,0.1647-0.3744c0.0851-0.1092,0.1962-0.1956,0.3231-0.2514
	c1.3657-0.8668,2.8223-1.5818,4.3438-2.1324c0.2072-0.0719,0.4338-0.0643,0.6356,0.0214c0.2018,0.0857,0.3645,0.2434,0.4562,0.4422
	c0.0697,0.2318-0.1394,0.2781-0.2788,0.3477c-1.3705,0.9503-2.7874,1.8774-4.1812,2.8277l-0.8362,0.5795
	c-0.0595,0.0258-0.1106,0.0677-0.1475,0.1209c-0.037,0.0533-0.0583,0.1158-0.0616,0.1804
	c-0.0232,0.4868,0.1162,0.6026,0.5575,0.4404l3.8328-1.2748c0.4211-0.1387,0.8143-0.3506,1.1614-0.6258l0.6505-0.4636
	c1.9744-1.4603,1.9744-1.4834,4.4367-1.6457c1.4634-0.0695,2.8571-0.3477,4.1347-1.1589c0.3484-0.2086,0.3252-0.3245,0.0232-0.51
	l-0.4413-0.394c1.1497,0.1001,2.2861,0.3176,3.3914,0.649c0.3717,0.1159,0.0929,0.3245,0,0.4636l-2.6481,3.9867
	c-0.1858,0.2781-0.3717,0.5563-0.5343,0.8344c-0.1626,0.2782-0.2787,0.3013-0.5575,0.1391
	c-0.2787-0.1623-1.1614-0.6027-1.7421-0.9272c-0.0411-0.0322-0.0881-0.056-0.1385-0.07c-0.0503-0.014-0.103-0.0179-0.1548-0.0114
	c-0.0519,0.0065-0.1019,0.0232-0.1473,0.0491c-0.0453,0.0259-0.0851,0.0605-0.1169,0.1019l-2.6946,2.6655
	c-0.1857,0.2128-0.2923,0.4829-0.3019,0.7649c-0.0233,1.1126-0.5111,1.8775-1.417,2.3411l-2.9501,0.8112L41.7634,49.8559z"/>
<path fill="#0B1324" d="M66.7626,43.8989c-0.4646,0.9735-0.906,1.9007-1.3705,2.8278c-0.0305,0.0648-0.0402,0.1375-0.0277,0.208
	c0.0125,0.0705,0.0465,0.1355,0.0973,0.186c0.3154,0.3371,0.5323,0.754,0.6272,1.2053c0.0234,0.0516,0.039,0.1062,0.0465,0.1623
	c0.0396,0.0557,0.0918,0.1016,0.1523,0.1337c0.0604,0.0322,0.1276,0.0499,0.1961,0.0517l1.928,0.1854l2.0209,0.2086l-0.3949-0.7185
	c-0.2555-0.4636-0.5342-0.904-0.8362-1.3444c-0.302-0.4404-0.5807-0.8808-0.9059-1.298c-0.3252-0.4172-0.6504-0.8344-0.9989-1.2284
	L66.7626,43.8989z"/>
</svg>
