<svg width="160" height="195" viewBox="0 0 160 195" fill="none" xmlns="http://www.w3.org/2000/svg">
<path d="M9.94103 64.7976C9.31916 66.0025 8.36038 66.8068 7.06468 67.2105C6.6606 67.3266 6.24832 67.384 5.82785 67.3829C5.0877 67.3895 4.39737 67.2076 3.75688 66.8371C-1.16167 64.1656 -5.62 61.5803 -9.90576 58.9375C-10.7192 58.3659 -11.2848 57.6094 -11.6028 56.6682C-11.6481 56.5562 -11.7056 56.4509 -11.7754 56.3522L-11.9767 55.9788V55.5767C-11.9888 54.6304 -11.7667 53.7426 -11.3105 52.9132C-10.8542 52.0838 -10.223 51.4204 -9.41678 50.9231C-8.75554 50.5393 -8.04252 50.3448 -7.27773 50.3397C-6.51293 50.3346 -5.79737 50.5195 -5.13103 50.8944C-0.356292 53.4797 4.36092 56.2661 8.3878 58.6503C8.88767 58.965 9.31113 59.3612 9.65818 59.8389C10.0052 60.3165 10.2511 60.8414 10.3956 61.4137C10.5402 61.9859 10.5732 62.5644 10.4946 63.1493C10.4161 63.7342 10.2315 64.2837 9.94103 64.7976ZM76.586 24.4094H76.701C77.9542 24.4431 79.0376 24.0314 79.9513 23.1742C80.984 22.1093 81.4826 20.8358 81.447 19.3537C81.4757 17.6876 81.4757 16.0215 81.4757 14.3554L81.447 11.1095V10.0179C81.447 8.3518 81.4757 6.68572 81.447 5.01963C81.4844 4.36623 81.3906 3.73221 81.1655 3.11755C80.9405 2.50289 80.6026 1.95799 80.1519 1.48286C79.7012 1.00772 79.1747 0.641305 78.5723 0.383602C77.9699 0.125899 77.3411 -0.00196054 76.6857 2.27197e-05C76.0304 0.00200591 75.4023 0.13367 74.8015 0.395014C74.2007 0.656358 73.6764 1.02596 73.2286 1.50381C72.7808 1.98166 72.4463 2.52859 72.2249 3.1446C72.0036 3.76061 71.9136 4.3952 71.955 5.04836C71.9263 9.8168 71.8975 14.5565 71.9263 19.325C71.8645 19.9787 71.9381 20.6168 72.1472 21.2393C72.3562 21.8619 72.6827 22.4153 73.1265 22.8997C73.5704 23.384 74.0936 23.7577 74.6961 24.0206C75.2985 24.2835 75.9285 24.4131 76.586 24.4094ZM5.74156 126.356L5.22382 126.414C4.75548 126.442 4.31444 126.566 3.9007 126.787L1.5421 128.137C-2.34097 130.349 -6.22404 132.561 -10.0496 134.859C-10.5232 135.184 -10.9198 135.585 -11.2395 136.061C-11.5592 136.538 -11.7792 137.057 -11.8996 137.618C-12.0199 138.179 -12.0321 138.742 -11.9361 139.308C-11.8401 139.874 -11.6427 140.402 -11.3439 140.892C-10.949 141.648 -10.3879 142.251 -9.66071 142.699C-8.93349 143.147 -8.14269 143.378 -7.28829 143.391C-6.58429 143.4 -5.92273 143.237 -5.30361 142.902C-0.902797 140.489 3.61307 137.904 8.53162 134.945C8.96222 134.675 9.33343 134.34 9.64525 133.939C9.95707 133.538 10.1906 133.095 10.3458 132.612C10.5011 132.128 10.5686 131.633 10.5485 131.126C10.5284 130.618 10.4217 130.13 10.2287 129.66C10.0871 129.177 9.8721 128.73 9.58357 128.318C9.29505 127.906 8.94817 127.551 8.54292 127.253C8.13768 126.954 7.69532 126.728 7.21586 126.575C6.73639 126.422 6.24496 126.349 5.74156 126.356ZM159.914 55.2032C159.839 54.3004 159.552 53.4714 159.051 52.7161C158.55 51.9608 157.898 51.3727 157.095 50.9518C156.311 50.5691 155.482 50.3956 154.61 50.4312C153.738 50.4669 152.927 50.7075 152.176 51.1529C147.977 53.5084 143.777 55.9501 139.607 58.4205C139.05 58.7255 138.573 59.1256 138.177 59.6209C137.78 60.1161 137.494 60.6684 137.319 61.2778C137.143 61.8872 137.092 62.5069 137.164 63.1369C137.237 63.7669 137.428 64.3587 137.737 64.9125C138.143 65.6622 138.711 66.2559 139.444 66.6935C140.176 67.1311 140.968 67.3513 141.821 67.3541C142.708 67.3453 143.532 67.1154 144.295 66.6647C148.466 64.338 152.895 61.8101 157.181 59.1961C157.988 58.6245 158.63 57.9064 159.108 57.0417C159.281 56.7544 159.453 56.4959 159.626 56.2373L160 55.7777L159.914 55.2032ZM157.181 134.457C153.01 132.044 148.83 129.641 144.64 127.247C143.354 126.435 141.974 126.215 140.498 126.586C139.261 126.929 138.341 127.666 137.737 128.798C137.424 129.384 137.239 130.008 137.181 130.67C137.123 131.331 137.197 131.978 137.403 132.609C137.61 133.241 137.932 133.807 138.369 134.307C138.806 134.807 139.324 135.202 139.923 135.491C143.921 137.818 147.948 140.145 152.004 142.472C152.539 142.753 153.095 142.983 153.672 143.161L154.334 143.391H154.65C155.188 143.41 155.714 143.34 156.227 143.179C156.741 143.019 157.214 142.779 157.645 142.458C158.077 142.136 158.442 141.753 158.743 141.307C159.043 140.861 159.261 140.378 159.396 139.858C159.553 139.349 159.62 138.829 159.596 138.297C159.572 137.766 159.459 137.254 159.257 136.761C159.055 136.269 158.776 135.825 158.419 135.429C158.063 135.034 157.65 134.71 157.181 134.457ZM95.426 184.296H78.4268C77.9232 184.296 77.4388 184.392 76.9734 184.584C76.5081 184.776 76.0974 185.05 75.7413 185.406C75.3852 185.761 75.1108 186.172 74.9183 186.636C74.7258 187.101 74.6297 187.585 74.6301 188.088V205.208C74.6297 205.711 74.7257 206.195 74.9183 206.66C75.1108 207.124 75.3851 207.535 75.7412 207.89C76.0973 208.246 76.5081 208.52 76.9734 208.712C77.4388 208.904 77.9232 209 78.4268 209H95.426C95.9274 208.997 96.4092 208.899 96.8715 208.705C97.3338 208.512 97.7416 208.237 98.0947 207.882C98.4479 207.526 98.7197 207.117 98.9101 206.654C99.1005 206.191 99.1952 205.709 99.194 205.208V188.088C99.1952 187.587 99.1005 187.105 98.9101 186.642C98.7197 186.179 98.4479 185.77 98.0947 185.414C97.7416 185.059 97.3338 184.784 96.8715 184.591C96.4092 184.397 95.9274 184.299 95.426 184.296ZM123.729 109.466C121.72 114.724 118.719 119.339 114.726 123.312C110.686 127.222 107.331 131.65 104.66 136.596C101.99 141.542 100.13 146.775 99.079 152.296C97.8422 158.041 97.3532 163.93 96.5478 169.761C96.404 170.709 96.404 171.628 96.3177 172.633H76.6435C76.586 171.456 76.5284 170.278 76.4709 169.186C76.4709 169.1 76.4134 169.014 76.4134 168.928C76.4134 168.842 76.4421 168.784 76.4421 168.698C76.0395 161.057 75.7518 155.341 75.7518 152.411C75.8107 151.045 75.4656 149.791 74.7163 148.648C73.732 147.425 72.476 146.63 70.9483 146.263C66.7069 144.862 62.6321 143.081 58.7239 140.92C54.4381 138.651 53.6902 138.536 50.0948 141.84C48.3978 143.391 46.6432 144.856 45.09 146.177C44.5435 146.637 43.997 147.096 43.508 147.527L36.6911 141.581C37.4101 140.719 38.1292 139.886 38.8195 139.082C40.6316 136.956 42.3574 134.945 44.1696 132.992C44.5662 132.568 44.8831 132.092 45.1204 131.563C45.3576 131.033 45.5023 130.48 45.5544 129.902C45.6065 129.325 45.5632 128.754 45.4245 128.191C45.2858 127.628 45.0593 127.103 44.7448 126.615C42.8752 122.45 41.0919 117.997 39.3085 112.999C39.1897 112.456 38.9847 111.948 38.6938 111.474C38.4028 111 38.0419 110.587 37.6112 110.235C37.1805 109.883 36.7038 109.612 36.1812 109.421C35.6586 109.23 35.119 109.13 34.5626 109.121C30.9096 108.891 27.8319 108.662 24.7542 108.259C24.0064 108.173 22.8846 107.369 22.8558 107.024C22.6917 105.054 22.6438 103.082 22.712 101.107C22.7408 100.475 22.7408 99.8428 22.7408 99.2108L26.2787 98.8661C29.1838 98.5501 31.9451 98.2916 34.6776 98.0905C35.2298 98.0757 35.7641 97.9704 36.2806 97.7747C36.7971 97.579 37.2669 97.3037 37.6899 96.949C38.113 96.5943 38.4658 96.1799 38.7482 95.7058C39.0307 95.2317 39.227 94.7244 39.3373 94.1838C41.1206 89.1856 42.8464 84.8193 44.6585 80.8552C44.9665 80.3646 45.1874 79.8375 45.3212 79.2741C45.455 78.7107 45.4946 78.1407 45.4399 77.5643C45.3853 76.9878 45.2394 76.4354 45.0023 75.907C44.7651 75.3786 44.4491 74.9023 44.0545 74.4781C42.2424 72.4098 40.4878 70.2554 38.8196 68.1872C38.158 67.4116 37.5252 66.636 36.8924 65.8891L43.2204 59.5408C43.9682 60.144 44.7448 60.776 45.4927 61.4079C47.4774 63.0166 49.4908 64.6827 51.4467 66.4062C51.8841 66.8313 52.3816 67.1676 52.9393 67.4152C53.497 67.6628 54.0803 67.8063 54.6893 67.8458C55.2983 67.8853 55.8953 67.8183 56.4804 67.6448C57.0654 67.4713 57.6023 67.2021 58.0911 66.8371C62.4247 64.5671 66.8831 62.5754 71.4661 60.8622C72.0609 60.7313 72.6174 60.5062 73.1357 60.1869C73.6541 59.8676 74.1052 59.4719 74.4891 58.9997C74.8731 58.5276 75.1684 58.0055 75.375 57.4333C75.5817 56.8612 75.6881 56.271 75.6943 55.6628C75.8094 53.2499 76.0682 50.8082 76.2983 48.424L76.5572 45.5801L76.586 45.5514C108.082 46.3845 136.126 79.2753 123.729 109.466ZM76.3559 128.109C76.2985 127.795 76.2697 127.479 76.2696 127.161V79.2753C75.9199 79.1888 75.5843 79.0643 75.2628 78.9018C73.8532 79.2095 72.48 79.6346 71.1433 80.1772C69.8066 80.7197 68.5257 81.3717 67.3008 82.1333C66.0759 82.8949 64.9247 83.7549 63.8473 84.7134C62.7698 85.6719 61.7818 86.7148 60.8832 87.8423C59.9846 88.9697 59.1885 90.1652 58.4949 91.4288C57.8012 92.6924 57.2202 94.0057 56.7518 95.3686C56.2834 96.7316 55.9344 98.1244 55.7048 99.547C55.4752 100.97 55.3684 102.401 55.3843 103.842C55.4003 105.283 55.5387 106.712 55.7997 108.13C56.0607 109.547 56.4404 110.932 56.9388 112.284C57.4373 113.636 58.0472 114.936 58.7685 116.184C59.4899 117.432 60.3122 118.61 61.2356 119.717C62.1589 120.825 63.1697 121.846 64.2681 122.78C65.3665 123.715 66.5364 124.549 67.7778 125.283C69.0193 126.018 70.3142 126.641 71.6626 127.154C73.011 127.667 74.3932 128.062 75.8093 128.339C75.9244 128.31 76.0107 128.224 76.1257 128.195C76.2042 128.171 76.2809 128.142 76.3559 128.109Z" fill="#047C54"/>
</svg>
