<svg width="24" height="24" viewBox="0 0 24 24" fill="none" xmlns="http://www.w3.org/2000/svg">
<path d="M10.5901 13.4101C11.0001 13.8001 11.0001 14.4401 10.5901 14.8301C10.2001 15.2201 9.56007 15.2201 9.17007 14.8301C7.22007 12.8801 7.22007 9.71007 9.17007 7.76007L12.7101 4.22007C14.6601 2.27007 17.8301 2.27007 19.7801 4.22007C21.7301 6.17007 21.7301 9.34007 19.7801 11.2901L18.2901 12.7801C18.3001 11.9601 18.1701 11.1401 17.8901 10.3601L18.3601 9.88007C19.5401 8.71007 19.5401 6.81007 18.3601 5.64007C17.1901 4.46007 15.2901 4.46007 14.1201 5.64007L10.5901 9.17007C9.41007 10.3401 9.41007 12.2401 10.5901 13.4101ZM13.4101 9.17007C13.8001 8.78007 14.4401 8.78007 14.8301 9.17007C16.7801 11.1201 16.7801 14.2901 14.8301 16.2401L11.2901 19.7801C9.34007 21.7301 6.17007 21.7301 4.22007 19.7801C2.27007 17.8301 2.27007 14.6601 4.22007 12.7101L5.71007 11.2201C5.70007 12.0401 5.83007 12.8601 6.11007 13.6501L5.64007 14.1201C4.46007 15.2901 4.46007 17.1901 5.64007 18.3601C6.81007 19.5401 8.71007 19.5401 9.88007 18.3601L13.4101 14.8301C14.5901 13.6601 14.5901 11.7601 13.4101 10.5901C13.0001 10.2001 13.0001 9.56007 13.4101 9.17007Z" fill="#8F8F8F"/>
</svg>
