<svg width="437" height="182" viewBox="0 0 437 182" fill="none" xmlns="http://www.w3.org/2000/svg">
<path d="M19.0271 56.4258C18.4871 57.4753 17.6585 58.1749 16.5354 58.5248C16.1856 58.6291 15.8235 58.6782 15.4614 58.6782C14.817 58.6843 14.2217 58.5248 13.6632 58.1995C9.3978 55.8735 5.53133 53.6211 1.8183 51.3258C1.11252 50.8225 0.621537 50.1658 0.345361 49.3496C0.308537 49.2514 0.259439 49.1593 0.198068 49.0734L0.0200874 48.7481V48.3983C0.0139506 47.5698 0.204205 46.7965 0.596988 46.0784C0.995909 45.3542 1.54212 44.7773 2.24177 44.3416C2.81253 44.0102 3.4324 43.8383 4.09522 43.8383C4.75804 43.8322 5.3779 43.9918 5.96094 44.317C10.0974 46.5694 14.191 48.9936 17.6831 51.0742C18.1127 51.3442 18.4809 51.694 18.7816 52.1052C19.0824 52.5225 19.2972 52.9828 19.4199 53.4799C19.5488 53.9771 19.5733 54.4803 19.5058 54.9897C19.4383 55.4991 19.2788 55.9778 19.0271 56.4258ZM76.8154 21.2533H76.9198C78.0061 21.284 78.9451 20.928 79.7368 20.1793C80.6328 19.2525 81.0624 18.1417 81.0317 16.8529C81.0563 15.4045 81.0563 13.95 81.0563 12.5016L81.0317 9.6723V8.72102C81.0317 7.27264 81.0563 5.82424 81.0317 4.36972C81.0624 3.79895 80.9826 3.2466 80.7862 2.71266C80.596 2.17872 80.3014 1.70615 79.9086 1.28882C79.5158 0.877626 79.0617 0.558489 78.54 0.331411C78.0183 0.11047 77.4721 0 76.9014 0C76.3367 0 75.7905 0.116608 75.2689 0.343686C74.7472 0.570763 74.293 0.889902 73.9064 1.30723C73.5197 1.72457 73.2251 2.20327 73.0349 2.73721C72.8446 3.27115 72.7649 3.82964 72.8017 4.39427C72.7771 8.54918 72.7526 12.6734 72.7771 16.8283C72.7219 17.3991 72.7894 17.9514 72.9674 18.4977C73.1515 19.0377 73.4338 19.5164 73.8205 19.9399C74.201 20.3634 74.6551 20.6887 75.1768 20.9157C75.6985 21.1428 76.2447 21.2594 76.8154 21.2533ZM15.3877 110.035L14.9397 110.084C14.5285 110.108 14.148 110.213 13.7921 110.409L11.7422 111.581C8.37901 113.508 5.00967 115.435 1.69556 117.436C1.28436 117.718 0.940675 118.068 0.658361 118.486C0.382185 118.897 0.19193 119.351 0.0875971 119.836C-0.0167356 120.327 -0.0290113 120.818 0.0569109 121.309C0.142832 121.8 0.308538 122.26 0.572439 122.69C0.909987 123.346 1.40097 123.874 2.0331 124.261C2.6591 124.654 3.34647 124.856 4.08908 124.868C4.69667 124.875 5.27357 124.733 5.80751 124.439C9.62488 122.34 13.5404 120.087 17.8058 117.51C18.1802 117.277 18.4993 116.982 18.7694 116.632C19.0394 116.282 19.2419 115.902 19.377 115.478C19.512 115.061 19.5733 114.625 19.5549 114.183C19.5365 113.742 19.4445 113.318 19.2788 112.907C19.156 112.49 18.9658 112.097 18.7203 111.741C18.4686 111.379 18.1679 111.072 17.8181 110.814C17.4621 110.55 17.0816 110.354 16.6643 110.225C16.247 110.09 15.8235 110.022 15.3877 110.035ZM149.075 48.073C149.008 47.2875 148.762 46.5633 148.327 45.9066C147.891 45.2499 147.326 44.7344 146.627 44.3661C145.951 44.0347 145.233 43.8813 144.472 43.9181C143.718 43.9488 143.018 44.1575 142.367 44.5441C138.722 46.594 135.082 48.7236 131.468 50.8716C130.983 51.1355 130.572 51.4853 130.228 51.915C129.884 52.3507 129.633 52.8294 129.479 53.3633C129.332 53.8911 129.283 54.4312 129.344 54.9774C129.412 55.5298 129.577 56.0453 129.841 56.524C130.197 57.1807 130.688 57.6962 131.326 58.0767C131.959 58.4573 132.646 58.6475 133.382 58.6536C134.156 58.6414 134.868 58.445 135.53 58.0522C139.145 56.0269 142.987 53.8236 146.706 51.5467C147.406 51.0496 147.958 50.4236 148.376 49.6749C148.523 49.4232 148.676 49.1962 148.824 48.9691L149.149 48.5702L149.075 48.073ZM146.706 117.086C143.085 114.987 139.464 112.895 135.831 110.808C134.714 110.102 133.517 109.906 132.241 110.231C131.167 110.532 130.369 111.17 129.841 112.158C129.571 112.668 129.412 113.214 129.363 113.791C129.313 114.361 129.375 114.926 129.553 115.478C129.731 116.025 130.013 116.522 130.394 116.957C130.768 117.393 131.222 117.737 131.738 117.989C135.205 120.014 138.697 122.039 142.214 124.064C142.68 124.31 143.159 124.512 143.662 124.666L144.233 124.868H144.509C144.976 124.881 145.43 124.819 145.878 124.684C146.32 124.543 146.731 124.334 147.105 124.052C147.48 123.776 147.799 123.438 148.057 123.052C148.32 122.665 148.505 122.242 148.627 121.787C148.762 121.346 148.818 120.891 148.799 120.431C148.775 119.965 148.676 119.523 148.505 119.093C148.327 118.664 148.087 118.277 147.78 117.933C147.467 117.59 147.111 117.307 146.706 117.086ZM93.1528 160.489H78.4111C77.9754 160.483 77.558 160.569 77.153 160.734C76.7479 160.906 76.392 161.146 76.0851 161.452C75.7782 161.759 75.5389 162.121 75.3732 162.527C75.2075 162.932 75.1216 163.349 75.1216 163.791V178.698C75.1216 179.134 75.2075 179.557 75.3732 179.962C75.5389 180.367 75.7782 180.723 76.0851 181.03C76.392 181.343 76.7479 181.583 77.153 181.748C77.558 181.914 77.9754 182 78.4111 182H93.1528C93.5885 181.994 94.0059 181.908 94.4048 181.742C94.8098 181.577 95.1597 181.337 95.4665 181.024C95.7734 180.717 96.0127 180.361 96.1784 179.956C96.338 179.551 96.4239 179.134 96.4239 178.698V163.791C96.4239 163.355 96.338 162.932 96.1784 162.527C96.0127 162.128 95.7734 161.772 95.4665 161.459C95.1597 161.152 94.8098 160.912 94.4048 160.741C94.0059 160.575 93.5885 160.489 93.1528 160.489ZM117.696 95.3237C115.953 99.9021 113.35 103.922 109.889 107.383C106.385 110.783 103.476 114.644 101.162 118.946C98.8481 123.254 97.234 127.814 96.3196 132.62C95.2517 137.622 94.8282 142.752 94.1286 147.828C93.9997 148.656 93.9997 149.454 93.9261 150.332H76.8645C76.8154 149.307 76.7663 148.282 76.7172 147.331C76.7172 147.251 76.6681 147.177 76.6681 147.104C76.6681 147.03 76.6927 146.981 76.6927 146.901C76.3429 140.248 76.0912 135.271 76.0912 132.718C76.1465 131.533 75.8457 130.441 75.1952 129.441C74.3421 128.379 73.2558 127.685 71.9302 127.366C68.254 126.145 64.7189 124.598 61.3312 122.714C57.612 120.738 56.9614 120.64 53.8437 123.512C52.3769 124.868 50.8549 126.139 49.5047 127.293C49.0321 127.692 48.5596 128.09 48.1361 128.465L42.2259 123.291C42.8458 122.536 43.4718 121.812 44.0671 121.112C45.6382 119.265 47.1357 117.51 48.7069 115.81C49.0505 115.442 49.3267 115.024 49.5354 114.564C49.7379 114.104 49.8668 113.625 49.9098 113.122C49.9527 112.618 49.9159 112.121 49.7993 111.63C49.6765 111.139 49.4801 110.679 49.204 110.256C47.5837 106.628 46.0371 102.75 44.4906 98.3984C44.3924 97.9259 44.2144 97.484 43.9628 97.0728C43.705 96.6616 43.392 96.2995 43.0238 95.9926C42.6494 95.6858 42.2321 95.4526 41.784 95.2869C41.3299 95.115 40.8573 95.0291 40.3786 95.023C37.2118 94.8204 34.5421 94.624 31.8724 94.2742C31.2218 94.2006 30.2522 93.4948 30.2276 93.1941C30.0864 91.4818 30.0435 89.7633 30.0987 88.0449C30.1294 87.4926 30.1294 86.9464 30.1294 86.394L33.1919 86.0933C35.7143 85.8171 38.1078 85.59 40.4768 85.4182C40.9555 85.4059 41.4219 85.3138 41.87 85.142C42.318 84.9702 42.723 84.7308 43.0913 84.4239C43.4534 84.1171 43.7602 83.755 44.0057 83.3438C44.2512 82.9265 44.4231 82.4846 44.5151 82.0181C46.0617 77.6607 47.5592 73.8617 49.1303 70.4065C49.4004 69.983 49.5906 69.5227 49.7072 69.0317C49.8238 68.5407 49.8545 68.0436 49.8116 67.5404C49.7625 67.0433 49.6336 66.5584 49.431 66.0981C49.2224 65.6378 48.9523 65.2266 48.6087 64.8584C47.0375 63.0541 45.5155 61.1761 44.0671 59.3778C43.4963 58.7027 42.944 58.0277 42.3978 57.3771L47.8845 51.8474C48.535 52.3752 49.204 52.9215 49.8545 53.4738C51.5791 54.8731 53.3221 56.3276 55.0159 57.8251C55.3965 58.1995 55.8261 58.4879 56.3109 58.7027C56.7957 58.9237 57.3051 59.0464 57.8329 59.0771C58.3607 59.1139 58.8763 59.0587 59.3857 58.9053C59.8889 58.7518 60.3553 58.5186 60.7788 58.1995C64.5348 56.2233 68.4013 54.4926 72.3782 53.0012C72.8937 52.8846 73.3786 52.6882 73.8266 52.4121C74.2746 52.1298 74.6674 51.7861 74.9988 51.3749C75.3302 50.9637 75.588 50.5095 75.766 50.0124C75.9439 49.5153 76.036 48.9998 76.0421 48.472C76.1465 46.3669 76.3674 44.2434 76.5699 42.169L76.7909 39.6896L76.8154 39.665C104.126 40.3892 128.448 69.0317 117.696 95.3237ZM76.619 111.557C76.5699 111.287 76.5454 111.01 76.5454 110.734V69.0317C76.2385 68.9581 75.9501 68.8476 75.6678 68.7065C74.4465 68.9765 73.2558 69.3447 72.0959 69.8173C70.936 70.2899 69.8313 70.8606 68.7634 71.5235C67.7016 72.1863 66.7074 72.935 65.7684 73.7697C64.8355 74.6043 63.9825 75.5127 63.203 76.4946C62.4236 77.4766 61.7301 78.5138 61.1286 79.6185C60.5272 80.717 60.0239 81.8586 59.6189 83.0492C59.2138 84.2337 58.907 85.4489 58.7106 86.6886C58.5142 87.9222 58.4221 89.1742 58.4344 90.4262C58.4467 91.6782 58.5694 92.924 58.7903 94.1576C59.0174 95.3912 59.3488 96.6002 59.7784 97.7786C60.2142 98.9569 60.742 100.086 61.368 101.172C61.994 102.259 62.7059 103.284 63.5037 104.253C64.3077 105.217 65.1854 106.101 66.1366 106.917C67.0879 107.733 68.1005 108.457 69.1807 109.096C70.2547 109.734 71.3778 110.28 72.55 110.728C73.7161 111.176 74.919 111.52 76.1465 111.759C76.2447 111.735 76.3183 111.655 76.4165 111.63C76.484 111.612 76.5515 111.587 76.619 111.557Z" fill="white"/>
<path d="M216.181 63.3655L214.953 48.0224H214.806L209.503 63.2182H205.968L200.666 48.0224H200.518L199.291 63.3655H193.375L195.707 37.4663H201.991L207.736 52.4166L213.48 37.4663H219.765L222.072 63.3655H216.181Z" fill="white"/>
<path d="M240.438 37.4663L250.896 63.3655H244.537L242.623 58.1856H232.778L230.864 63.3655H224.505L234.963 37.4663H240.438ZM240.61 53.0058L237.737 45.4693H237.664L234.767 53.0058H240.61Z" fill="white"/>
<path d="M278.269 63.3655H270.143L260.593 52.3675V63.3655H254.702V37.4663H260.593V48.0469L269.48 37.4663H276.648L266.215 49.7408L278.269 63.3655Z" fill="white"/>
<path d="M297.022 37.4663V42.6461H288.111V47.8014H296.654V52.9813H288.111V58.1856H297.022V63.3655H282.219V37.4663H297.022Z" fill="white"/>
<path d="M303.241 37.4663H312.496C314.982 37.4663 317.013 38.1291 318.585 39.4548C320.156 40.7804 320.941 42.683 320.941 45.1501C320.941 47.065 320.463 48.6729 319.517 49.9617C318.566 51.2383 317.271 52.1405 315.639 52.6621L324.55 63.3655H317.063L309.133 53.1286V63.3655H303.241V37.4663ZM309.133 48.9552H309.821C310.373 48.9552 310.839 48.9491 311.22 48.9307C311.594 48.9 312.018 48.8264 312.496 48.7097C312.969 48.5809 313.356 48.4029 313.65 48.1697C313.945 47.9426 314.196 47.605 314.411 47.1632C314.62 46.7213 314.73 46.1935 314.73 45.5675C314.73 44.9292 314.62 44.4014 314.411 43.9718C314.196 43.5299 313.945 43.1985 313.65 42.9653C313.356 42.7382 312.969 42.5602 312.496 42.4252C312.018 42.2963 311.594 42.2227 311.22 42.2043C310.839 42.192 310.373 42.1797 309.821 42.1797H309.133V48.9552Z" fill="white"/>
<path d="M338.08 37C339.467 37 340.836 37.2087 342.18 37.6137C343.518 38.0249 344.518 38.4238 345.175 38.8166L346.107 39.4303L343.726 44.1438C343.53 44.0333 343.26 43.8737 342.916 43.6773C342.585 43.4687 341.965 43.1986 341.05 42.8672C340.13 42.5235 339.271 42.3517 338.473 42.3517C337.491 42.3517 336.73 42.5665 336.19 42.99C335.662 43.4196 335.404 43.9842 335.404 44.6838C335.404 45.0459 335.527 45.3835 335.772 45.6903C336.03 45.9849 336.466 46.3041 337.073 46.6477C337.675 46.9914 338.209 47.2737 338.669 47.4824C339.123 47.6972 339.835 48.0102 340.805 48.4153C342.474 49.1395 343.898 50.1092 345.076 51.3366C346.267 52.5518 346.868 53.9327 346.868 55.4854C346.868 56.9767 346.598 58.2778 346.058 59.3887C345.518 60.4872 344.782 61.3526 343.849 61.9909C342.928 62.6169 341.897 63.071 340.756 63.3656C339.627 63.6725 338.405 63.832 337.098 63.832C335.969 63.832 334.852 63.7154 333.759 63.4883C332.679 63.2613 331.771 62.9728 331.034 62.6291C330.298 62.2854 329.635 61.954 329.046 61.6226C328.469 61.2789 328.046 60.9966 327.769 60.7634L327.352 60.4197L330.322 55.4608C330.568 55.6572 330.912 55.9211 331.354 56.2464C331.795 56.5778 332.569 57.0197 333.686 57.572C334.815 58.1121 335.803 58.3822 336.656 58.3822C339.142 58.3822 340.388 57.5352 340.388 55.8291C340.388 55.4731 340.296 55.1417 340.118 54.8471C339.933 54.5402 339.614 54.2334 339.16 53.9388C338.718 53.6319 338.325 53.3864 337.982 53.2023C337.638 53.0243 337.073 52.7543 336.288 52.3922C335.502 52.0362 334.919 51.7539 334.545 51.5575C332.974 50.7904 331.759 49.8268 330.912 48.6608C330.059 47.5008 329.635 46.2488 329.635 44.9048C329.635 42.5849 330.482 40.6823 332.188 39.2094C333.907 37.7365 335.871 37 338.08 37Z" fill="white"/>
<path d="M200.666 85.7788V111.678H194.774V85.7788H200.666Z" fill="white"/>
<path d="M213.154 95.5984V111.678H207.263V85.7788H213.154L223.465 101.858H223.514V85.7788H229.43V111.678H223.514L213.228 95.5984H213.154Z" fill="white"/>
<path d="M241.895 95.5984V111.678H236.003V85.7788H241.895L252.206 101.858H252.255V85.7788H258.171V111.678H252.255L241.969 95.5984H241.895Z" fill="white"/>
<path d="M263.565 98.716C263.565 94.9723 264.842 91.8055 267.395 89.2155C269.948 86.6134 273.023 85.3123 276.625 85.3123C280.258 85.3123 283.333 86.6072 285.856 89.191C288.39 91.7809 289.661 94.9539 289.661 98.716C289.661 102.497 288.415 105.682 285.929 108.266C283.438 110.855 280.338 112.144 276.625 112.144C272.845 112.144 269.715 110.868 267.248 108.315C264.793 105.749 263.565 102.546 263.565 98.716ZM269.948 98.716C269.948 100.078 270.15 101.318 270.562 102.447C270.985 103.564 271.722 104.503 272.771 105.271C273.814 106.044 275.103 106.424 276.625 106.424C278.835 106.424 280.492 105.676 281.609 104.166C282.738 102.662 283.303 100.846 283.303 98.716C283.303 96.6048 282.726 94.7882 281.584 93.2661C280.436 91.7441 278.786 90.9831 276.625 90.9831C274.496 90.9831 272.851 91.7441 271.691 93.2661C270.525 94.7882 269.948 96.6048 269.948 98.716Z" fill="white"/>
<path d="M303.185 111.678L292.31 85.7788H298.963L305.493 102.791L312.023 85.7788H318.7L307.825 111.678H303.185Z" fill="white"/>
<path d="M335.665 85.7788L346.123 111.678H339.765L337.85 106.498H328.006L326.091 111.678H319.733L330.191 85.7788H335.665ZM335.837 101.318L332.965 93.7818H332.891L329.994 101.318H335.837Z" fill="white"/>
<path d="M348.285 90.9586V85.7788H366.5V90.9586H360.338V111.678H354.446V90.9586H348.285Z" fill="white"/>
<path d="M377.346 85.7788V111.678H371.454V85.7788H377.346Z" fill="white"/>
<path d="M382.765 98.716C382.765 94.9723 384.041 91.8055 386.594 89.2155C389.147 86.6134 392.222 85.3123 395.825 85.3123C399.458 85.3123 402.533 86.6072 405.055 89.191C407.59 91.7809 408.86 94.9539 408.86 98.716C408.86 102.497 407.614 105.682 405.129 108.266C402.637 110.855 399.538 112.144 395.825 112.144C392.044 112.144 388.914 110.868 386.447 108.315C383.992 105.749 382.765 102.546 382.765 98.716ZM389.147 98.716C389.147 100.078 389.35 101.318 389.761 102.447C390.185 103.564 390.921 104.503 391.971 105.271C393.014 106.044 394.303 106.424 395.825 106.424C398.034 106.424 399.691 105.676 400.808 104.166C401.937 102.662 402.502 100.846 402.502 98.716C402.502 96.6048 401.925 94.7882 400.784 93.2661C399.636 91.7441 397.985 90.9831 395.825 90.9831C393.695 90.9831 392.05 91.7441 390.89 93.2661C389.724 94.7882 389.147 96.6048 389.147 98.716Z" fill="white"/>
<path d="M420.175 95.5984V111.678H414.283V85.7788H420.175L430.486 101.858H430.535V85.7788H436.451V111.678H430.535L420.249 95.5984H420.175Z" fill="white"/>
<path d="M207.932 134.091L218.39 159.99H212.032L210.117 154.81H200.273L198.358 159.99H192L202.458 134.091H207.932ZM208.104 149.631L205.232 142.094H205.158L202.261 149.631H208.104Z" fill="white"/>
<path d="M242.056 159.99L237.932 145.457L233.783 159.99H227.204L219.84 134.091H226.394L230.813 151.865H230.985L235.698 134.091H240.142L244.855 151.865H245.027L249.446 134.091H255.976L248.586 159.99H242.056Z" fill="white"/>
<path d="M273.35 134.091L283.808 159.99H277.45L275.535 154.81H265.691L263.776 159.99H257.418L267.876 134.091H273.35ZM273.522 149.631L270.65 142.094H270.576L267.679 149.631H273.522Z" fill="white"/>
<path d="M287.615 134.091H296.87C299.356 134.091 301.387 134.754 302.958 136.08C304.529 137.405 305.315 139.308 305.315 141.775C305.315 143.69 304.836 145.298 303.891 146.586C302.94 147.863 301.645 148.765 300.012 149.287L308.924 159.99H301.436L293.507 149.753V159.99H287.615V134.091ZM293.507 145.58H294.194C294.746 145.58 295.213 145.574 295.593 145.555C295.968 145.525 296.391 145.451 296.87 145.334C297.343 145.206 297.729 145.028 298.024 144.794C298.318 144.567 298.57 144.23 298.785 143.788C298.993 143.346 299.104 142.818 299.104 142.192C299.104 141.554 298.993 141.026 298.785 140.597C298.57 140.155 298.318 139.823 298.024 139.59C297.729 139.363 297.343 139.185 296.87 139.05C296.391 138.921 295.968 138.847 295.593 138.829C295.213 138.817 294.746 138.804 294.194 138.804H293.507V145.58Z" fill="white"/>
<path d="M312.904 134.091H320.391C323.988 134.091 327.069 135.319 329.622 137.773C332.175 140.228 333.452 143.315 333.452 147.028C333.452 150.748 332.181 153.841 329.646 156.308C327.106 158.763 324.025 159.99 320.391 159.99H312.904V134.091ZM318.796 154.712H319.704C321.864 154.712 323.632 153.988 325.007 152.527C326.381 151.073 327.075 149.25 327.093 147.053C327.093 144.862 326.406 143.039 325.031 141.579C323.657 140.106 321.877 139.369 319.704 139.369H318.796V154.712Z" fill="white"/>
</svg>
