<svg width="718" height="233" viewBox="0 0 718 233" fill="none" xmlns="http://www.w3.org/2000/svg">
<path d="M155.392 162.955C155.415 162.92 155.427 162.885 155.451 162.85C155.521 162.756 155.58 162.673 155.627 162.556C155.65 162.497 155.662 162.438 155.686 162.368C155.697 162.309 155.733 162.262 155.733 162.192C155.733 162.145 155.721 162.11 155.721 162.063C155.721 162.027 155.733 161.992 155.733 161.957L151.303 110.798C151.303 110.762 151.28 110.739 151.28 110.704C151.268 110.61 151.233 110.527 151.198 110.433C151.162 110.363 151.139 110.292 151.092 110.222C151.068 110.198 151.068 110.163 151.045 110.128C151.01 110.081 150.951 110.057 150.916 110.01C150.88 109.975 150.857 109.928 150.81 109.893L117.725 85.1651C117.643 85.0946 117.537 85.0593 117.443 85.0241C117.419 85.0124 117.396 85.0006 117.372 84.9889C117.231 84.9419 117.079 84.9184 116.938 84.9301C116.902 84.9301 116.855 84.9419 116.82 84.9536C116.714 84.9654 116.609 84.9889 116.503 85.0359C116.479 85.0476 116.456 85.0476 116.432 85.0593L77.6255 104.008C77.5785 104.031 77.5315 104.066 77.4962 104.102C77.4727 104.125 77.4376 104.125 77.4141 104.149L0.48172 163.966C0.469971 163.977 0.458187 163.989 0.446438 164.001C0.340697 164.095 0.246729 164.189 0.176235 164.306C0.164486 164.318 0.152714 164.33 0.152714 164.342C0.0822199 164.471 0.0352584 164.612 0.0117605 164.753C1.14734e-05 164.8 0.0117605 164.835 0.0117605 164.882C0.0117605 164.952 0 165.023 0 165.093L7.90704 231.5C7.91879 231.559 7.94229 231.618 7.96579 231.677C7.98928 231.747 8.00103 231.806 8.02453 231.876C8.07153 231.97 8.13032 232.053 8.18906 232.123C8.21256 232.158 8.22426 232.205 8.25951 232.229C8.27126 232.241 8.28303 232.241 8.28303 232.252C8.37702 232.335 8.48278 232.405 8.58852 232.452C8.62376 232.464 8.64724 232.499 8.68249 232.511C8.82347 232.569 8.9762 232.605 9.14068 232.605C9.17593 232.605 9.21122 232.605 9.24647 232.605C9.5167 232.581 36.974 230.267 48.4998 230.655C60.1195 231.042 92.2295 229.492 92.5584 229.48C92.7112 229.468 92.8639 229.433 92.9932 229.374C93.0049 229.362 93.0167 229.374 93.0402 229.363C93.193 229.292 93.3221 229.186 93.4396 229.069C93.4514 229.057 93.4514 229.045 93.4631 229.034C93.4749 229.022 93.4867 229.022 93.4867 229.01C93.6511 228.799 110.158 207.654 112.449 205.116L113.284 204.188C116.315 200.793 124.375 191.771 129.474 187.871C135.207 183.49 154.57 163.801 155.392 162.955ZM150.457 164.389C150.434 163.919 150.41 163.425 150.375 162.908L151.785 163.049C151.386 163.449 150.951 163.895 150.457 164.389ZM116.996 87.7495L148.025 110.95C144.36 113.84 133.715 122.286 128.593 126.915C124.903 130.251 110.946 142.703 100.195 152.265C97.54 150.139 92.5115 146.838 89.4333 144.853C87.8941 143.854 86.4137 142.738 85.0391 141.505L84.7219 141.223L80.88 114.98L116.996 87.7495ZM134.361 125.223C135.219 130.098 137.228 139.766 138.591 144.042C139.449 146.744 140.917 153.311 142.022 159.525L102.898 155.472C102.862 154.615 102.839 153.863 102.827 153.252C113.436 143.807 126.689 132.001 130.261 128.747C131.401 127.749 132.81 126.527 134.361 125.223ZM27.5161 196.106C27.5044 196.094 27.4926 196.094 27.4809 196.083C26.6349 187.742 25.8595 179.977 25.8595 179.542C25.8595 178.591 24.8256 174.092 24.3674 173.34C24.1206 172.917 23.1807 168.817 22.605 166.068L21.3009 156.212C26.0357 153.722 30.5473 151.255 33.3671 149.481C36.0811 147.766 45.0926 141.705 47.7596 139.919L59.4851 148.53L78.2834 160.406L64.173 174.538H49.6042C49.2635 174.538 48.9345 174.679 48.6995 174.926L40.0405 184.03C40.0288 184.042 40.0288 184.053 40.017 184.053C40.0053 184.077 39.9936 184.089 39.9701 184.112C39.8878 184.218 39.8173 184.335 39.7703 184.453C39.7703 184.465 39.7585 184.476 39.7468 184.5C39.6998 184.641 39.688 184.782 39.688 184.934C39.688 184.946 39.6763 184.958 39.688 184.981C39.688 184.993 39.6998 185.005 39.6998 185.017C39.6998 185.04 39.6998 185.064 39.6998 185.075L41.4974 197.234L28.8907 209.862C28.5265 206.361 28.08 201.98 27.6453 197.645C27.9273 197.152 27.9156 196.541 27.5161 196.106ZM85.9321 156.248L94.7085 157.152C91.3953 160.101 88.8458 162.368 87.6826 163.402L82.2312 159.948L85.9321 156.248ZM84.9099 142.48C86.1905 143.596 87.5535 144.641 88.9868 145.558C92.0181 147.508 96.9408 150.75 99.5726 152.829C98.7737 153.534 97.9983 154.227 97.2463 154.897L86.5783 153.792L84.9099 142.48ZM80.0693 158.585L73.7719 154.603L82.7128 144.712L84.1462 154.497L80.0693 158.585ZM73.0551 154.157L65.9001 149.634L79.9518 138.063L82.0079 139.907L82.5601 143.643L73.0551 154.157ZM65.1598 149.164L60.8832 146.462L58.181 144.477L74.1948 133.047C74.7705 133.47 75.3345 133.916 75.8632 134.398L79.3291 137.511L65.1598 149.164ZM57.4642 143.96L49.8627 138.38L64.5371 127.314L72.174 131.731C72.6087 131.99 73.0199 132.272 73.4428 132.553L57.4642 143.96ZM56.3011 182.397C56.2659 182.432 56.2424 182.491 56.2072 182.526L44.0587 183.396L50.1329 177.017H61.6704L56.3011 182.397ZM58.6509 195.389L43.8824 196.341L42.3668 186.027L57.1823 184.97L58.6509 195.389ZM63.8557 178.368L65.2304 188.118L60.9068 193.522L59.4851 183.478C59.4733 183.407 59.4381 183.349 59.4146 183.278C59.3911 183.208 59.3793 183.125 59.3324 183.055C59.3089 183.02 59.2971 182.996 59.2736 182.961L63.8557 178.368ZM43.3655 198.878L60.1665 197.798H60.1783C60.2018 197.798 60.2371 197.798 60.2606 197.786C60.3428 197.774 60.4132 197.727 60.4837 197.704C60.5542 197.68 60.6247 197.668 60.6835 197.633C60.7892 197.574 60.8597 197.504 60.942 197.422C60.9772 197.386 61.0242 197.375 61.0477 197.328L67.5214 189.246C67.7329 188.975 67.8269 188.635 67.7799 188.294L66.0645 176.148L80.4218 161.757L86.6135 165.669L90.4789 217.885C83.8407 218.273 54.198 220.023 50.6381 220.54C47.8301 220.951 32.7092 221.445 20.737 221.515L43.3655 198.878ZM89.1043 165.481C90.3027 164.424 93.6981 161.393 98.0688 157.505L102.181 157.928C102.334 160.923 102.569 164.553 102.804 167.877C100.877 169.416 96.2477 173.046 95.5427 173.446C94.9083 173.81 93.052 175.96 90.2557 179.331C90.2087 179.39 90.1734 179.425 90.1264 179.484L89.1043 165.481ZM100.606 155.249C101.065 154.838 101.535 154.427 102.016 153.992C102.028 154.415 102.052 154.885 102.063 155.39L100.606 155.249ZM105.882 93.0122L80.4688 112.172L79.5406 105.864L105.882 93.0122ZM81.8199 138.627L76.4154 133.787C75.7927 133.223 75.123 132.706 74.4298 132.213C74.418 132.201 74.3945 132.189 74.3828 132.178C73.8071 131.766 73.2079 131.367 72.597 131.015L65.2656 126.774L78.6124 116.706L81.8199 138.627ZM77.2495 107.438L78.1895 113.875L55.7019 130.838L30.7118 143.631L77.2495 107.438ZM27.1989 146.356L51.8482 133.74L47.0547 137.358C46.5965 137.664 35.0707 145.428 32.016 147.355C29.4312 148.976 25.3308 151.232 20.9367 153.558L20.6547 151.443L27.1989 146.356ZM19.891 152.042L20.1495 153.98C17.412 155.425 14.5805 156.87 11.9604 158.209L19.891 152.042ZM8.16554 212.529L2.58478 165.692C5.11081 164.447 12.9826 160.559 20.4902 156.624L21.7591 166.209C22.0059 167.349 23.2278 173.093 23.639 173.775C23.9679 174.327 25.0136 178.708 25.0136 179.554C25.0136 180.024 25.8125 187.965 26.5997 195.73C26.2942 195.73 25.9888 195.836 25.742 196.059L8.16554 212.529ZM9.22295 221.386L8.52977 215.536C8.60027 215.489 8.68249 215.465 8.74123 215.407L26.8699 198.42C27.4574 204.212 27.9978 209.392 28.1153 210.602L17.2123 221.527C14.0635 221.527 11.279 221.48 9.22295 221.386ZM9.52843 223.9C10.9853 223.959 12.7476 223.994 14.745 224.018L10.1041 228.669L9.52843 223.9ZM48.5938 228.164C39.2534 227.847 20.2082 229.233 12.4422 229.844L18.2579 224.018C30.6648 224.006 47.9711 223.454 51.0141 223.007C54.4331 222.514 84.2519 220.752 90.6786 220.376L91.1721 227.048C85.0626 227.342 58.8154 228.505 48.5938 228.164ZM90.2322 180.682C90.4084 180.482 90.6316 180.2 90.9136 179.871C92.2412 178.274 95.343 174.526 95.9657 174.174C96.7411 173.739 101.217 170.203 102.886 168.888C103.133 172.283 103.438 176.077 103.556 176.641C103.65 177.04 104.014 179.155 104.425 181.669C100.724 184.512 95.2608 188.647 94.6028 189.034C94.3561 189.093 94.1564 189.375 93.4514 190.35C92.8875 191.149 92.1003 192.218 91.1721 193.322L90.2322 180.682ZM91.2544 194.497C92.4528 193.146 93.4278 191.795 94.121 190.832C94.4618 190.362 94.8143 189.868 94.9201 189.786C95.39 189.539 97.0935 188.329 104.578 182.597C105.212 186.462 105.894 190.879 105.894 191.525C105.894 191.83 105.988 193.146 106.117 194.931L92.3705 209.486L91.2544 194.497ZM93.5102 224.934L93.0754 219.001L92.4293 210.344C92.4528 210.344 92.4762 210.367 92.4997 210.367C92.6054 210.367 92.723 210.32 92.8052 210.238L106.199 196.059C106.493 199.924 106.927 205.198 107.127 207.677C103.062 212.74 96.7294 220.822 93.5102 224.934ZM127.946 185.886C122.659 189.927 114.776 198.749 111.416 202.52L110.593 203.448C110.135 203.953 109.16 205.14 107.891 206.726C107.527 202.215 106.728 192.406 106.728 191.525C106.728 190.315 104.625 177.569 104.378 176.465C104.284 176.018 103.99 172.553 103.661 168.042C103.426 164.706 103.191 161.041 103.027 158.01L142.468 162.086C143.091 165.892 143.514 169.334 143.502 171.331C137.639 177.123 130.86 183.666 127.946 185.886ZM140.976 143.29C139.531 138.791 137.216 127.396 136.582 123.379C138.262 121.993 140.013 120.56 141.693 119.197C141.939 124.742 142.703 133.458 143.044 135.843C143.373 138.145 145.887 150.409 146.533 152.113C146.78 152.782 147.273 156.53 147.626 160.113L144.63 159.807C143.455 153.135 141.845 146.004 140.976 143.29ZM148.014 166.844C147.344 167.513 146.627 168.23 145.887 168.97C145.734 167.09 145.429 164.811 145.041 162.368L147.837 162.662C148.002 164.576 148.084 166.186 148.014 166.844ZM145.511 135.479C145.135 132.835 144.23 122.333 144.113 117.235C146.075 115.661 147.802 114.286 149.024 113.335L153.124 160.688L150.14 160.383C149.67 155.942 148.895 151.314 148.86 151.243C148.319 149.798 145.852 137.816 145.511 135.479Z" fill="white"/>
<path d="M243.692 3.78457C242.661 3.65157 241.896 3.08626 240.932 2.38798C239.834 1.58994 238.488 0.575788 236.476 0.126891C232.502 -0.754278 214.53 3.08626 210.141 7.54199C207.497 10.2354 204.538 16.0212 202.177 20.6764C201.379 22.2392 200.498 23.9849 199.949 24.8827C199.218 24.65 198.07 24.1845 197.173 23.8187C192.451 21.9234 189.192 20.7762 187.164 21.8568C186.815 22.0397 186.216 22.2725 185.501 22.5385C182.01 23.8685 175.493 26.3624 172.35 33.9771C168.693 42.822 168.626 62.2244 170.671 67.6278C170.954 68.3593 171.22 69.1739 171.536 70.0717C173.298 75.2424 175.958 83.0565 182.675 88.0609C188.012 92.0345 197.488 95.9581 204.388 98.8178C207.314 100.031 209.841 101.079 211.338 101.827C213 102.658 214.231 103.589 215.428 104.504C217.789 106.283 220.232 108.128 225.253 108.66C228.911 109.043 232.519 109.142 235.229 107.895C235.179 111.271 235.312 115.394 235.429 119.45C235.611 125.303 235.794 131.371 235.429 134.48C234.78 140.233 229.576 187.816 229.526 192.055C228.03 192.371 226.002 192.571 223.741 192.787C218.154 193.319 211.205 193.984 206.117 197.027C205.835 197.193 205.751 197.559 205.918 197.841C206.034 198.024 206.217 198.124 206.416 198.124C206.516 198.124 206.616 198.091 206.716 198.041C211.57 195.131 218.37 194.483 223.84 193.967C226.268 193.735 228.329 193.535 229.892 193.186C230.208 193.618 230.707 193.918 231.289 193.918C232.27 193.918 233.051 193.119 233.051 192.155C233.051 188.764 238.155 141.845 238.937 134.896C239.319 131.537 239.136 125.619 238.953 119.367C238.77 113.498 238.587 107.447 238.92 104.072C239.369 102.908 239.568 101.112 239.519 99.0672C240.367 92.633 241.613 84.7856 242.229 81.3773C242.661 78.9666 244.972 68.8082 247.017 59.8469C248.43 53.6787 249.743 47.8929 250.325 45.1164C250.525 44.1687 249.926 43.221 248.962 43.0215C248.014 42.822 247.067 43.4205 246.867 44.3848C246.269 47.1447 244.955 52.9139 243.559 59.0654C241.414 68.4923 239.186 78.2516 238.737 80.7455C238.405 82.6242 237.889 85.7 237.357 89.1582C236.626 87.5787 235.711 86.2154 234.597 85.301C232.02 83.1729 227.066 77.2042 223.79 73.2639C221.962 71.0693 220.648 69.4898 219.983 68.8082C218.188 67.0126 207.979 55.7236 207.88 55.6073C207.231 54.8757 206.117 54.8258 205.386 55.4743C204.654 56.1227 204.604 57.2532 205.253 57.9681C205.452 58.2009 207.88 60.8777 210.556 63.8038C207.148 63.2884 202.094 62.5569 199.134 62.2077C198.153 62.0913 197.289 62.7896 197.173 63.7539C197.106 64.3857 197.389 64.9676 197.854 65.3334C193.199 64.818 188.91 64.1529 186.615 63.4048C186.299 63.305 185.967 63.4713 185.867 63.7872C185.767 64.1031 185.933 64.4356 186.249 64.5353C191.038 66.0982 203.457 67.2786 211.271 67.4947C212.635 67.6942 213.549 67.8439 213.566 67.8439C213.649 67.8605 213.749 67.8605 213.832 67.8605C213.948 67.8605 214.064 67.8273 214.181 67.794C215.677 69.4233 216.924 70.7534 217.456 71.302C218.005 71.8507 219.418 73.5465 221.047 75.5084C224.605 79.7978 229.493 85.6834 232.336 88.0276C234.564 89.8565 235.778 94.8442 235.977 98.6515C235.761 100.264 235.578 101.794 235.429 103.141C234.448 104.87 232.286 105.85 225.569 105.152C221.529 104.72 219.75 103.39 217.506 101.694C216.242 100.746 214.812 99.6657 212.867 98.6848C211.255 97.8701 208.678 96.8061 205.685 95.5757C198.952 92.7826 189.708 88.9587 184.72 85.2511C178.884 80.8952 176.54 73.9954 174.811 68.9578C174.495 68.0268 174.196 67.1622 173.913 66.3974C172.284 62.0747 172.151 43.5868 175.559 35.357C178.119 29.1556 183.49 27.094 186.698 25.8803C187.513 25.5644 188.211 25.2984 188.71 25.0323C189.757 24.7331 193.831 26.3458 195.793 27.1439C198.968 28.4074 200.265 28.9394 201.412 28.3908C202.31 27.9585 202.825 27.0774 205.253 22.3224C207.397 18.116 210.34 12.3635 212.601 10.0525C216.093 6.49457 232.735 2.95327 235.645 3.60167C236.908 3.88431 237.773 4.51608 238.754 5.24761C239.918 6.09553 241.214 7.07648 243.176 7.30924C245.753 7.62513 266.752 17.0686 270.842 21.4911C274.749 25.7307 277.525 41.758 277.924 49.1731C278.273 55.6904 272.371 69.3901 269.861 74.0121C268.414 76.6722 263.31 80.9616 259.603 84.1039C258.09 85.3841 256.776 86.4814 255.828 87.3626C255.28 87.878 254.731 88.3768 254.216 88.8423C251.522 91.2863 248.995 93.5973 247.017 97.2217C244.29 102.226 243.858 137.706 243.858 138.055C243.858 142.926 241.663 193.319 241.647 193.818C241.597 194.799 242.362 195.613 243.343 195.663C243.376 195.663 243.392 195.663 243.426 195.663C244.373 195.663 245.155 194.915 245.188 193.967C245.271 191.889 247.399 142.993 247.399 138.038C247.399 129.542 248.363 102.126 250.126 98.9009C251.822 95.7919 254.033 93.7635 256.61 91.4359C257.142 90.9372 257.707 90.4384 258.272 89.923C259.137 89.1083 260.417 88.0276 261.897 86.7807C266.053 83.2893 271.224 78.9333 272.986 75.6913C275.397 71.2688 281.898 56.7212 281.482 48.9735C281.166 42.9716 278.672 24.7165 273.468 19.0969C268.713 13.8931 246.917 4.20022 243.692 3.78457Z" fill="white"/>
<path d="M215.262 38.5158C214.646 37.7676 213.532 37.6512 212.768 38.2664C212.003 38.8815 211.903 39.9955 212.518 40.7603C215.079 43.8859 222.128 49.8546 222.427 50.1206C222.76 50.4033 223.159 50.5363 223.574 50.5363C224.073 50.5363 224.572 50.3201 224.921 49.9045C225.553 49.1563 225.453 48.0424 224.722 47.4106C224.639 47.3441 217.606 41.392 215.262 38.5158Z" fill="white"/>
<path d="M246.069 14.1758C246.053 14.1758 246.053 14.1758 246.069 14.1758C245.737 14.1758 245.471 14.4252 245.471 14.7577C245.338 20.8427 244.074 32.6969 242.345 40.3781C239.668 45.3658 236.875 50.603 236.659 50.9854C236.194 51.8499 236.526 52.9139 237.391 53.3795C237.657 53.5125 237.939 53.5956 238.222 53.5956C238.854 53.5956 239.469 53.2631 239.785 52.6646C239.868 52.4983 248.63 36.072 250.159 33.4617C250.658 32.6138 250.359 31.5331 249.527 31.051C248.679 30.5522 247.599 30.8515 247.117 31.6827C246.651 32.4808 245.57 34.4593 244.274 36.8534C245.637 29.3053 246.535 19.9117 246.668 14.8075C246.651 14.4418 246.385 14.1758 246.069 14.1758Z" fill="white"/>
<path d="M256.71 51.002C265.638 44.8172 267.35 35.5234 268.581 28.7234C268.697 28.075 268.813 27.4598 268.93 26.8779C268.996 26.562 268.78 26.2462 268.464 26.1797C268.148 26.1132 267.833 26.3293 267.766 26.6452C267.65 27.2271 267.533 27.8589 267.417 28.5073C266.203 35.0911 264.557 44.1189 256.028 50.0211C255.762 50.204 255.696 50.5698 255.879 50.8358C255.995 51.002 256.178 51.0852 256.361 51.0852C256.477 51.1018 256.61 51.0685 256.71 51.002Z" fill="white"/>
<path d="M206.384 46.0976C203.773 46.0976 191.62 40.9103 184.039 36.1886C183.756 36.0223 183.407 36.1054 183.224 36.3715C183.058 36.6541 183.141 37.0032 183.407 37.1861C190.722 41.7416 203.325 47.278 206.384 47.278C206.4 47.278 206.417 47.278 206.417 47.278C206.749 47.278 206.999 46.9954 206.999 46.6795C206.999 46.3636 206.733 46.0976 206.417 46.0976C206.417 46.0976 206.4 46.0976 206.384 46.0976Z" fill="white"/>
<path d="M206.45 84.4532L225.47 83.8879C225.803 83.8712 226.052 83.6052 226.036 83.2727C226.019 82.9568 225.77 82.7075 225.454 82.7075H225.437L206.417 83.2727C206.085 83.2893 205.835 83.5554 205.852 83.8879C205.868 84.2038 206.118 84.4532 206.434 84.4532C206.434 84.4532 206.434 84.4532 206.45 84.4532Z" fill="white"/>
<path d="M261.831 177.475C261.498 177.425 261.199 177.641 261.149 177.957L258.971 191.175L257.757 189.329L256.444 176.112C256.411 175.796 256.111 175.547 255.796 175.58C255.48 175.613 255.23 175.896 255.263 176.228L256.361 187.185L252.903 181.881C252.72 181.615 252.354 181.532 252.088 181.715C251.822 181.898 251.739 182.263 251.922 182.529L256.627 189.728L256.876 192.206C256.893 192.339 256.959 192.455 257.042 192.555C256.76 192.388 256.494 192.239 256.261 192.089C253.468 190.427 252.72 190.127 248.447 191.574C248.148 191.674 247.982 192.006 248.081 192.322C248.181 192.638 248.514 192.787 248.829 192.688C252.736 191.358 253.135 191.59 255.663 193.087C256.278 193.453 257.026 193.901 257.94 194.4C258.023 194.45 258.123 194.467 258.223 194.467C258.439 194.467 258.639 194.35 258.738 194.151C258.888 193.868 258.788 193.502 258.506 193.353C258.023 193.087 257.591 192.854 257.209 192.621C257.292 192.671 257.375 192.721 257.475 192.721C257.491 192.721 257.508 192.721 257.541 192.721C257.857 192.688 258.107 192.405 258.073 192.073L258.057 191.856L258.855 193.07C258.905 193.137 258.971 193.203 259.054 193.253C259.071 193.27 259.104 193.27 259.121 193.286C259.154 193.303 259.204 193.32 259.237 193.336C259.27 193.336 259.304 193.336 259.337 193.336C259.453 193.336 259.553 193.303 259.653 193.236C259.669 193.22 259.669 193.22 259.686 193.203C259.703 193.187 259.719 193.17 259.736 193.153C259.819 193.07 259.885 192.954 259.919 192.837C259.919 192.837 259.919 192.837 259.919 192.821L262.346 178.107C262.363 177.841 262.147 177.525 261.831 177.475Z" fill="white"/>
<path d="M713.191 28.9579C713.13 28.8361 713.054 28.7143 712.978 28.6077C712.963 28.5924 712.963 28.5772 712.947 28.5619C712.947 28.5619 712.948 28.5619 712.932 28.5619C712.826 28.4401 712.704 28.3183 712.567 28.2269L703.642 22.5766C702.881 22.1045 701.891 22.3177 701.403 23.0792C701.099 23.5513 701.114 24.13 701.327 24.6021L701.038 24.8763C700.946 24.6479 700.809 24.4499 700.626 24.2824L696.073 20.2921C695.951 20.1855 695.799 20.0942 695.631 20.018L686.173 16.0277C685.427 15.7079 684.605 16.0125 684.193 16.6826C683.904 16.4998 683.584 16.3933 683.219 16.4085L677.142 16.9111C677.096 16.9111 677.051 16.9263 677.005 16.9415C676.959 16.9568 676.898 16.9568 676.853 16.972C676.67 17.0177 676.487 17.0939 676.335 17.2005L675.863 17.5355C670.334 21.4496 661.623 27.7091 660.222 29.2321C658.424 30.7246 636.189 42.3145 632.32 44.2487C630.493 45.1625 596.759 59.6005 579.199 67.1088C579.183 67.124 579.168 67.1393 579.138 67.1545C579.031 67.2002 578.94 67.2764 578.833 67.3677C578.757 67.4287 578.681 67.4744 578.62 67.5353C578.559 67.6114 578.513 67.7028 578.452 67.7941C578.391 67.8855 578.331 67.9769 578.3 68.0835C578.285 68.0987 578.27 68.114 578.27 68.1445L575.604 76.7341L571.492 75.6528C571.066 75.5462 570.594 75.6071 570.213 75.8507C569.832 76.0944 569.573 76.4904 569.497 76.9321L567.807 86.2985C567.654 87.1513 568.203 87.9738 569.04 88.1718L581.864 91.035C581.986 91.0654 582.107 91.0806 582.214 91.0806C582.534 91.0806 582.854 90.9893 583.128 90.7913C583.219 90.7304 583.28 90.6237 583.372 90.5476C583.326 91.3091 583.798 92.0097 584.544 92.2077L596.896 95.4516L596.561 96.67C596.347 97.462 596.743 98.2844 597.505 98.589L610.039 103.782C610.1 103.813 610.161 103.798 610.237 103.828C610.298 103.843 610.344 103.889 610.42 103.889C610.862 103.965 613.588 104.361 616.436 104.361C618.05 104.361 619.71 104.239 621.02 103.843C624.416 102.823 649.485 90.6999 652.317 89.314C652.363 89.2836 652.424 89.2683 652.47 89.2379C653.917 88.3393 687.986 67.1545 691.687 64.6416C695.54 62.0221 713.876 44.9493 715.323 43.533C717.151 41.7511 717.212 38.9792 717.212 38.6746C717.212 38.4614 717.166 38.2329 717.075 38.0349L713.191 28.9579ZM712.78 36.1769C708.089 40.5631 687.605 57.1941 684.437 59.0979C682.945 59.9964 677.553 63.4384 671.827 67.0784C664.669 71.6473 656.566 76.8103 655.074 77.6632C652.119 79.3232 622.497 93.487 614.471 96.3502L615.141 94.4464C615.415 93.6697 615.05 92.8016 614.303 92.4513L613.968 92.299C620.563 89.7404 643.773 79.5669 647.124 77.8916C650.947 75.9879 672.345 63.2404 675.391 61.2605C678.193 59.4482 704.145 37.9588 711.074 32.2171L712.78 36.1769ZM703.886 26.643C703.901 26.6278 703.901 26.6125 703.916 26.5973L708.942 29.7803C696.804 39.8473 675.908 57.0723 673.609 58.5648C670.593 60.5295 649.424 73.1398 645.647 75.0131C642.387 76.6427 620.197 86.3746 613.207 89.116L614.852 84.547C618.339 83.0088 625.299 79.5973 630.95 76.8407C634.986 74.8608 638.793 73.0028 639.463 72.7439C641.458 71.9671 663.329 58.3364 669.07 54.27C674.903 50.158 690.514 39.3599 690.666 39.2533C690.742 39.2076 690.803 39.1467 690.864 39.0858L703.886 26.643ZM695.022 23.6732L698.494 26.7039C698.616 26.8105 698.738 26.8714 698.875 26.9324L688.732 36.6338C687.346 37.5932 672.802 47.645 667.212 51.6048C660.861 56.0824 639.859 69.0582 638.306 69.6979C637.544 69.9872 634.635 71.4189 629.549 73.9013C623.914 76.658 616.969 80.0542 613.557 81.562L605.287 78.2571L606.003 75.8203C617.349 71.6321 646.18 57.7272 649.713 55.7321C653.673 53.4933 680.889 36.2378 683.28 34.5321C685.701 32.7959 694.23 24.7697 694.595 24.4347C694.824 24.2367 694.946 23.9626 695.022 23.6732ZM611.547 84.2577L609.415 90.1668L602.653 86.9838L604.374 81.3945L611.547 84.2577ZM684.848 18.9671C684.879 18.9823 684.894 19.0128 684.924 19.0281L692.326 22.1502C689.874 24.4651 683.265 30.6027 681.406 31.9277C679.046 33.6183 652.043 50.7214 648.129 52.945C644.626 54.9249 615.689 68.8755 604.663 72.8962L595.266 69.774C599.332 68.0226 606.46 64.9462 607.389 64.4436C607.861 64.1999 612.43 62.1744 617.73 59.8442C626.67 55.9149 637.788 51.0108 639.174 50.2036C640.834 49.2441 644.352 47.447 647.764 45.6956C651.266 43.8984 654.587 42.1927 656.11 41.3094C658.135 40.1367 668.111 33.6944 669.679 32.4913C671.142 31.3643 679.762 23.9473 680.371 23.3381C680.721 22.9574 683.325 20.4292 684.848 18.9671ZM633.783 47.1729C634.057 47.0358 661.47 33.07 662.689 31.3643C663.42 30.5571 669.877 25.8358 675.436 21.8608H675.451L677.873 20.1398L682.518 19.7591C681.208 21.0232 679.868 22.3329 679.625 22.5766C679.213 23.003 670.639 30.4048 669.04 31.6536C667.502 32.8568 657.602 39.2229 655.592 40.3956C654.099 41.2637 650.642 43.0456 647.291 44.7513C643.865 46.5028 640.331 48.3151 638.656 49.2898C637.316 50.0665 625.756 55.1533 617.304 58.8847C611.775 61.3214 607.404 63.2556 606.902 63.5145C605.927 64.0323 597.414 67.7028 593.743 69.2867L592.784 68.9669C592.372 68.8298 591.916 68.8602 591.52 69.0734C591.124 69.2714 590.834 69.6369 590.712 70.0634L590.682 70.17L584.62 68.3881C596.865 63.1033 631.772 48.1781 633.783 47.1729ZM580.889 87.4864L571.264 85.339L572.36 79.2166L581.757 81.6838L580.889 87.4864ZM585.534 78.9425L585.123 81.0899L585.169 80.7548C585.291 79.9324 584.788 79.1557 583.981 78.9425L578.742 77.5565L580.889 70.6269L589.753 73.2312L588.413 77.8611C588.397 77.8916 588.413 77.9221 588.397 77.9678L587.605 77.7088C587.164 77.5717 586.676 77.6174 586.28 77.8459C585.915 78.0743 585.626 78.4703 585.534 78.9425ZM596.256 91.9183L586.859 89.4511L588.382 81.3487L597.688 84.4252L596.256 91.9183ZM591.459 78.9577C591.489 78.8815 591.535 78.8358 591.565 78.7597L593.362 72.5307L602.714 75.6375L601.8 78.7597L600.718 82.2473C600.536 82.0493 600.322 81.8818 600.048 81.7904L591.459 78.9577ZM609.719 100.127L600.094 96.137L601.739 90.1364L609.643 93.8525L611.593 94.7663L609.719 100.127ZM713.085 41.1876C711.744 42.4821 693.408 59.5396 689.874 61.9459C686.31 64.3674 652.637 85.3086 650.84 86.4203C643.118 90.1669 622.756 99.9292 620.091 100.721C618.263 101.269 615.096 101.132 612.872 100.904L614.014 97.6447C621.05 95.4212 653.338 79.8867 655.607 78.6074C657.13 77.7545 664.897 72.7895 672.421 68.0073C678.132 64.3674 683.523 60.9255 685.001 60.0421C687.346 58.641 707.526 42.5887 713.237 37.243L713.983 38.964C713.907 39.5427 713.694 40.6088 713.085 41.1876Z" fill="white"/>
<path d="M702.18 74.3429C702.149 74.282 702.104 74.2363 702.058 74.1906L702.043 74.1754L699.895 72.5001C699.834 72.4544 699.774 72.424 699.697 72.4088C699.682 72.4088 699.667 72.4088 699.652 72.4088C697.58 72.4088 666.39 93.7306 666.085 93.9438C662.11 96.7309 644.139 105.519 643.956 105.61C643.941 105.61 643.941 105.625 643.941 105.625C643.865 105.671 643.804 105.732 643.743 105.808C643.727 105.823 643.728 105.838 643.712 105.854C643.682 105.93 643.651 106.006 643.651 106.097V110.651C643.651 110.925 643.865 111.154 644.139 111.184L647.733 111.565C647.748 111.565 647.763 111.565 647.794 111.565C647.885 111.565 647.977 111.534 648.053 111.489C648.068 111.489 648.068 111.489 648.083 111.473C648.464 111.23 652.134 109.28 656.018 107.209C663.983 102.96 670.121 99.6702 670.73 99.2285C671.126 98.9392 673.197 97.5228 675.604 95.8932C679.426 93.3041 683.752 90.3648 684.544 89.7251C685.107 89.2834 696.24 81.6381 702.043 77.6631C702.195 77.5565 702.271 77.4041 702.271 77.2213V74.6018C702.271 74.5257 702.256 74.4496 702.225 74.3886C702.21 74.3582 702.195 74.3581 702.18 74.3429ZM647.246 110.423L644.733 110.164V106.767L647.246 107.361V110.423ZM647.718 106.356L645.784 105.899C650.094 103.782 663.268 97.2182 666.709 94.8119C671.537 91.4156 696.636 74.6323 699.438 73.5053L700.779 74.5561C698.692 75.8963 692.783 79.6734 692.189 80.2369C691.793 80.5872 685.945 84.4403 681.254 87.532C676.67 90.5475 672.344 93.3955 671.461 94.0504C669.999 95.1317 655.394 102.518 647.718 106.356ZM701.175 76.932C699.058 78.3788 684.528 88.3392 683.843 88.8875C683.082 89.5119 678.573 92.5579 674.964 95.0099C672.451 96.7156 670.471 98.0559 670.06 98.3757C669.481 98.8022 661.394 103.112 655.485 106.265C652.013 108.123 649.53 109.433 648.312 110.103V107.27C651.023 105.915 670.273 96.2587 672.086 94.9337C672.954 94.2941 677.477 91.3242 681.833 88.4458C688.488 84.0596 692.555 81.3791 692.92 81.0288C693.347 80.6176 697.809 77.724 701.175 75.5918V76.932Z" fill="white"/>
<path d="M547.66 67.3748C548.532 66.3531 549.123 65.6558 549.206 65.5423C549.584 65.0882 549.699 64.4882 549.534 63.9369C549.354 63.3855 548.91 62.9476 548.351 62.7855L536.201 59.3151L534.376 48.1744C534.278 47.5582 533.85 47.0392 533.258 46.8284C532.666 46.6014 532.009 46.7311 531.516 47.1365L503.024 71.0397C502.301 71.6398 502.202 72.6938 502.794 73.4235L508.959 81.0778L507.266 82.5696C507.052 82.748 506.888 82.9913 506.773 83.267C506.756 83.2832 506.756 83.3156 506.74 83.3318C506.674 83.5264 506.641 83.7211 506.658 83.9157V101.121C506.658 102.078 507.447 102.84 508.4 102.84C509.354 102.84 510.143 102.062 510.143 101.121V86.3157L514.352 87.7914L527.241 103.797C527.586 104.219 528.096 104.446 528.606 104.446C528.984 104.446 529.362 104.316 529.691 104.073C530.447 103.473 530.578 102.402 529.97 101.657L520.566 89.9806L522.013 90.4833C522.588 90.6779 523.213 90.5806 523.69 90.2076C524.117 89.8671 534.13 81.9697 537.303 78.9048C539.111 77.1534 542.564 73.2614 545.276 70.1154L551.573 79.3588C551.918 79.8615 552.461 80.121 553.02 80.121C553.349 80.121 553.694 80.0237 553.99 79.8291C554.796 79.2939 555.009 78.2237 554.467 77.4453L547.66 67.3748ZM506.592 72.5803L531.433 51.7421L532.798 60.0125L511.59 78.7587L506.592 72.5803ZM513.76 81.4832L535.116 62.6071L538.486 63.5639L516.242 84.5481L513.76 81.4832ZM534.902 76.4398C532.338 78.9209 524.742 84.9859 522.309 86.9157L517.278 85.1481L539.769 63.9206L544.816 65.364C542.153 68.4775 537.122 74.283 534.902 76.4398Z" fill="white"/>
<path d="M542.258 225.357C541.872 225.357 541.485 225.357 541.114 225.373L542.258 225.357Z" fill="white"/>
<path d="M613.684 152.964L598.825 149.257C598.809 149.225 598.825 149.177 598.809 149.144C598.809 149.144 598.809 149.144 598.809 149.128L600.163 138.814C600.195 138.524 600.018 138.266 599.744 138.185L599.357 138.089C599.519 137.702 599.551 137.267 599.406 136.832C599.083 135.945 598.1 135.478 597.214 135.8L597.165 135.816L598.519 126.131C598.519 126.131 598.519 126.131 598.519 126.115C598.535 126.034 598.519 125.953 598.503 125.873C598.487 125.841 598.471 125.824 598.471 125.808C598.455 125.792 598.455 125.776 598.439 125.76C598.374 125.663 598.31 125.599 598.213 125.55C598.213 125.55 598.213 125.534 598.197 125.534L583.95 119.443L585.111 116.429C585.175 116.284 585.159 116.123 585.095 115.978C585.03 115.833 584.901 115.72 584.74 115.688L567.528 110.482C567.383 110.434 567.238 110.45 567.093 110.53L557.182 115.736C557.182 115.736 557.182 115.736 557.166 115.752H557.15C557.133 115.768 557.117 115.784 557.085 115.8C557.053 115.833 557.005 115.865 556.988 115.897C556.972 115.913 556.956 115.945 556.94 115.978C556.924 116.026 556.892 116.058 556.892 116.107C556.892 116.123 556.876 116.123 556.876 116.139L555.683 122.666C555.296 121.973 554.507 121.602 553.717 121.844L544.112 124.777C543.983 124.809 543.854 124.874 543.741 124.938C543.709 124.954 543.693 125.003 543.644 125.019C543.515 125.115 543.403 125.212 543.306 125.341C543.258 125.405 543.193 125.454 543.145 125.534C543.048 125.712 542.984 125.889 542.935 126.098C542.935 126.131 542.903 126.163 542.903 126.195L542.532 129.112L522.951 135.091C522.935 135.091 522.919 135.107 522.903 135.107C522.742 135.156 522.597 135.22 522.452 135.317C522.42 135.333 522.403 135.365 522.387 135.381C522.355 135.413 522.323 135.43 522.307 135.462C522.162 135.591 522.033 135.736 521.936 135.913C521.936 135.913 521.936 135.913 521.936 135.929C521.839 136.106 521.791 136.284 521.775 136.477C521.775 136.525 521.759 136.558 521.759 136.606C521.759 136.638 521.743 136.671 521.743 136.703L521.549 155.43C521.549 156.139 521.985 156.783 522.645 157.041L541.791 164.454L541.501 168.113C541.437 168.919 541.936 169.66 542.71 169.886L569.43 178.008C569.591 178.056 569.768 178.089 569.929 178.089C570.252 178.089 570.59 177.992 570.864 177.815C571.283 177.541 571.573 177.089 571.638 176.59L571.767 175.574L595.667 181.408C595.796 181.441 595.941 181.457 596.07 181.457C596.086 181.457 596.086 181.457 596.102 181.457C596.215 181.554 596.344 181.618 596.489 181.618C596.618 181.618 596.73 181.586 596.827 181.505L611.057 170.691C611.17 170.611 611.251 170.482 611.267 170.337L614.12 153.608C614.152 153.318 613.974 153.028 613.684 152.964ZM598.825 150.434L610.01 153.222L600.244 158.62C600.131 158.556 600.018 158.475 599.873 158.443L588.672 155.301L597.907 151.401C598.342 151.207 598.664 150.853 598.825 150.434ZM598.358 139.04C598.374 139.04 598.374 139.023 598.374 139.023L598.954 139.168L597.778 148.193C597.391 148.064 596.972 148.048 596.569 148.226L586.884 152.319L588.318 142.682L598.358 139.04ZM578.729 146.856C578.729 146.84 578.729 146.824 578.729 146.807V146.791C578.713 146.695 578.664 146.614 578.616 146.55C578.6 146.533 578.584 146.517 578.568 146.517C578.519 146.469 578.455 146.421 578.39 146.405C578.374 146.405 578.374 146.388 578.358 146.372L560.631 140.941C561.162 140.683 561.533 140.168 561.581 139.539L561.839 135.333L561.92 134.978L584.95 142.134L583.225 153.753L578.068 152.303L578.761 146.985C578.745 146.936 578.729 146.904 578.729 146.856ZM573.201 134.914L574.41 125.615L587.576 129.676L586.481 139.04L573.201 134.914ZM595.908 136.284L587.593 139.314L588.721 129.708L597.214 126.904L595.908 136.284ZM596.311 126.002L588.205 128.677L574.651 124.487L575.183 122.601L583.112 120.361L596.311 126.002ZM567.367 111.659L583.757 116.622L582.726 119.314L574.732 121.57L558.826 116.155L567.367 111.659ZM557.843 117.009L574.039 122.521L573.427 124.68C573.427 124.696 573.411 124.696 573.411 124.712C573.411 124.729 573.411 124.745 573.411 124.761L573.394 124.809L572.105 134.575L561.211 131.191L555.667 128.983L557.843 117.009ZM554.684 125.115C554.909 125.051 555.103 124.938 555.264 124.809L554.587 128.548L549.752 126.63L554.684 125.115ZM545.369 133.915L545.997 128.822L558.632 133.85L558.439 134.704C558.423 134.801 558.407 134.882 558.407 134.978L558.133 139.33C558.116 139.668 558.213 139.99 558.374 140.264L555.377 139.346C555.457 139.233 555.506 139.104 555.49 138.975C555.474 138.749 555.312 138.556 555.103 138.492C555.038 138.476 550.752 137.09 544.499 135.172C544.966 134.898 545.304 134.463 545.369 133.915ZM542.049 132.835L541.968 133.48C541.92 133.818 542.017 134.14 542.162 134.43C541.291 134.173 540.389 133.899 539.47 133.608L542.049 132.835ZM537.504 134.221C544.853 136.429 550.945 138.347 553.491 139.152L550.316 140.877L550.284 140.893L550.268 140.909L546.642 143.036C546.481 142.907 546.304 142.795 546.11 142.73L528.979 136.832L537.504 134.221ZM543.225 146.453L542.065 160.893L524.966 154.269L525.111 139.104L543.66 145.486C543.435 145.776 543.258 146.098 543.225 146.453ZM568.463 174.156L545.014 167.017L545.143 165.518C545.401 165.486 545.643 165.405 545.868 165.26C546.336 164.954 546.61 164.438 546.642 163.89L547.125 149.08L570.655 156.558L568.463 174.156ZM571.606 153.286L571.235 153.173L571.67 152.835L571.606 153.286ZM570.091 152.609C570.042 152.658 570.026 152.722 569.994 152.77L547.222 145.518L547.254 144.39C547.254 144.261 547.222 144.132 547.206 144.019L550.816 141.892L554.071 140.135L576.956 147.13L570.091 152.609ZM577.423 148.242L576.924 151.997L573.862 151.143C573.846 151.143 573.813 151.143 573.797 151.143L577.423 148.242ZM594.668 177.653L572.766 172.303L574.861 154.978L597.456 161.328L594.668 177.653ZM610.155 169.934L597.875 179.281L600.776 162.247L612.137 155.961C612.331 155.849 612.492 155.72 612.621 155.558L610.155 169.934Z" fill="white"/>
<path d="M510.381 140.925C510.059 140.876 509.769 141.086 509.72 141.392L507.061 157.572L505.401 155.042L503.822 139.184C503.79 138.878 503.5 138.636 503.193 138.668C502.887 138.701 502.645 138.975 502.678 139.297L504.048 152.963L499.6 146.162C499.422 145.888 499.068 145.824 498.81 146.001C498.552 146.179 498.471 146.533 498.649 146.791L504.305 155.445L504.612 158.443C504.644 158.733 504.886 158.958 505.176 158.958C505.192 158.958 505.208 158.958 505.24 158.958C505.546 158.926 505.788 158.652 505.756 158.33L505.675 157.524L506.932 159.442C506.981 159.506 507.045 159.571 507.126 159.619C507.142 159.635 507.174 159.635 507.19 159.651C507.222 159.668 507.271 159.684 507.303 159.7C507.335 159.7 507.367 159.7 507.4 159.7C507.512 159.7 507.609 159.668 507.706 159.603C507.722 159.587 507.722 159.587 507.738 159.571C507.754 159.555 507.77 159.539 507.786 159.523C507.867 159.442 507.931 159.329 507.964 159.216C507.964 159.216 507.964 159.216 507.964 159.2L510.865 141.569C510.913 141.263 510.703 140.973 510.381 140.925Z" fill="white"/>
<path d="M434.178 107.369C433.743 106.725 432.937 106.451 432.195 106.692C431.454 106.95 430.987 107.659 431.035 108.433L431.083 109.142C431.212 110.979 431.374 113.252 431.067 114.815C430.826 116.007 429.472 117.49 428.731 118.296C428.521 118.521 428.344 118.731 428.215 118.876C427.957 119.15 426.362 120.665 424.798 122.115C421.366 125.322 417.095 129.319 415.741 130.931C413.017 134.202 412.26 141.454 412.131 142.873C412.051 143.807 412.743 144.645 413.694 144.726C414.661 144.807 415.467 144.114 415.548 143.163C415.854 139.585 416.869 134.927 418.368 133.122C419.577 131.672 424.121 127.417 427.135 124.613C429.649 122.26 430.552 121.422 430.842 121.068C430.955 120.939 431.1 120.778 431.261 120.6C431.793 120.02 432.502 119.231 433.13 118.328C433.324 127.401 432.905 134.766 432.083 136.088C431.776 136.587 430.584 138.054 426.297 140.923C425.797 141.261 424.46 142.019 423.058 142.824C419.222 145.016 416.208 146.773 415.096 147.788C413.13 149.593 410.793 152.365 410.793 155.346C410.793 156.297 411.567 157.055 412.502 157.055C413.436 157.055 414.21 156.281 414.21 155.346C414.21 154.009 415.37 152.172 417.401 150.318C418.32 149.48 422.187 147.272 424.734 145.806C426.313 144.903 427.57 144.178 428.166 143.791C431.793 141.374 434.017 139.456 434.967 137.909C436.917 134.75 436.643 120.729 436.434 114.847C436.321 110.625 434.258 107.498 434.178 107.369Z" fill="white"/>
<path d="M389.053 183.034C387.634 181.035 386.361 179.231 385.636 178.151C383.525 174.992 379.947 167.401 379.657 165.435C379.383 163.711 377.949 162.567 376.369 162.792C374.226 163.082 372.308 165.58 372.872 170.544C373.63 177.216 378.658 185.58 380.076 187.192C381.124 188.4 385.749 197.135 386.232 198.28C386.265 198.409 386.297 198.634 386.313 198.908C387.441 198.908 388.585 198.892 389.73 198.892C389.681 198.102 389.584 197.442 389.423 197.022C388.956 195.878 384.153 186.628 382.671 184.936C381.607 183.711 376.966 176.007 376.289 170.157C376.095 168.53 376.273 167.498 376.498 166.886C377.449 170.27 380.93 177.232 382.816 180.052C383.557 181.148 384.846 182.985 386.281 185.016C388.779 188.545 392.211 193.38 392.808 194.67C393.243 195.588 393.485 197.184 393.613 198.892C394.758 198.892 395.902 198.876 397.046 198.876C396.869 196.442 396.547 194.557 395.918 193.219C395.193 191.753 392.614 188.078 389.053 183.034Z" fill="white"/>
<path d="M341.189 181.293C343.316 182.647 346.136 183.582 348.634 183.582C349.15 183.582 349.633 183.55 350.117 183.469L350.326 183.437C352.969 182.986 356.257 182.421 362.284 176.491C368.408 170.463 370.536 159.44 370.632 158.973C370.697 158.586 370.648 158.183 370.455 157.829C370.133 157.248 369.472 156.604 368.521 156.507C368.038 156.475 367.119 156.539 366.281 157.555C365.588 158.393 358.223 164.887 353.453 168.014C349.875 170.351 344.331 170.657 341.672 170.592C341.753 168.948 341.801 167.643 341.833 166.853C341.994 162.067 339.19 157.087 337.514 154.106C337.16 153.477 336.869 152.961 336.692 152.575C334.371 147.643 334.452 143.082 334.549 137.812C334.565 137.103 334.565 136.346 334.565 135.621C335.677 136.12 339.561 138.779 352.856 150.19C353.646 150.866 354.194 151.334 354.371 151.479C355.242 152.188 356.386 152.478 357.482 152.478C358.803 152.478 360.076 152.075 360.802 151.511C361.333 151.092 362.043 150.544 364.025 138.924C366.458 139.843 370.648 140.826 375.064 139.263C376.402 138.796 382.413 134.154 383.944 132.623C385.105 131.463 388.843 126.306 387.071 123.84C385.427 121.584 374.919 121.229 373.582 121.326C372.325 121.406 371.196 121.568 370.246 121.745C370.52 119.666 370.826 116.862 370.713 115.508C370.407 112.285 368.666 108.788 366.555 107.192C363.654 105.016 355.612 106.596 355.532 106.612C353.711 106.983 351.583 107.418 350.246 107.692C348.682 104.597 344.508 96.3622 343.848 95.1374C342.639 92.9134 339.754 92.1075 337.401 93.3324C336.176 93.977 333.292 96.5072 331.616 97.9899C328.086 95.1696 317.562 86.8215 315.645 85.3388C312.728 83.0987 308.538 82.0512 306.185 84.3719C304.025 86.4992 305.266 93.2034 305.701 95.2018C305.782 95.5886 305.798 95.8464 305.798 95.9915C305.556 95.9754 305.185 95.8948 304.879 95.782C299.593 91.8175 287.313 83.0665 283.107 83.9529C281.269 84.3397 278.175 85.8062 278.207 91.1728C278.223 96.2655 279.738 100.44 282.688 103.598C283.316 104.259 284.331 105.097 285.411 105.983C286.297 106.709 287.7 107.853 288.28 108.498C288.167 108.804 288.006 109.223 287.845 109.609C286.523 112.945 284.074 119.166 285.508 124.291C286.459 127.659 291.97 126.128 294.307 125.484C296.209 124.952 299.368 123.421 300.947 122.631C301.156 122.792 301.366 122.937 301.575 123.082C301.833 126.338 303.767 132.913 304.331 134.283C304.911 135.685 308.038 141.761 310.407 143.453C311.503 144.243 314.194 145.468 316.418 145.468C316.837 145.468 317.24 145.419 317.595 145.323C321.237 144.356 325.185 141.616 326.587 139.65C327.458 138.441 329.408 136.007 330.375 134.815C330.633 134.863 330.89 134.912 331.148 134.96C331.148 135.895 331.148 136.845 331.132 137.732C331.035 143.195 330.955 148.352 333.614 154.009C333.807 154.444 334.146 155.04 334.549 155.75C336.048 158.409 338.545 162.873 338.417 166.708C338.4 167.208 338.368 167.917 338.336 168.787C337.111 167.16 335.564 165.097 333.662 162.583C331.148 159.263 328.296 155.492 327.973 154.992C326.765 153.01 323.719 148.417 321.688 148.417C320.882 148.417 320.206 148.884 319.674 149.787C318.401 151.962 316.95 158.151 319.4 162.534C322.027 167.224 336.031 176.733 337.627 177.812C337.724 177.877 337.82 177.909 337.917 177.941C337.627 184.774 337.337 192.945 337.417 199.166C338.545 199.166 339.69 199.15 340.834 199.15C340.753 194.009 340.947 187.289 341.189 181.293ZM341.495 174.009C344.428 174.073 350.794 173.848 355.306 170.882C358.723 168.642 363.3 164.855 366.2 162.293C365.105 165.806 363.09 170.85 359.851 174.041C354.581 179.231 352.115 179.65 349.714 180.052L349.504 180.085C346.217 180.665 341.817 178.054 341.35 176.894C341.414 175.894 341.462 174.928 341.495 174.009ZM358.449 148.916C357.917 149.094 356.918 149.158 356.531 148.836C356.354 148.691 355.838 148.24 355.08 147.595C349.279 142.615 344.944 139.005 341.785 136.539C347.345 137.136 352.067 137.426 355.999 137.426C357.772 137.426 359.367 137.345 360.818 137.232C359.996 142.099 358.964 147.434 358.449 148.916ZM373.775 124.759C376.466 124.581 382.139 125.306 384.025 125.919C383.735 126.966 382.607 129.094 381.495 130.222C379.98 131.737 374.71 135.669 373.904 136.056C371.213 137.007 368.57 136.7 366.62 136.185C368.682 135.492 370.068 134.525 370.745 133.268C372.018 130.899 371.68 128.256 369.762 125.371C370.713 125.145 372.131 124.871 373.775 124.759ZM356.192 109.996C359.657 109.287 363.703 109.384 364.46 109.964C365.636 110.85 367.039 113.413 367.264 115.846C367.361 116.846 367.055 119.553 366.748 121.825C365.588 120.697 364.218 119.537 362.623 118.344C360.802 116.975 356.08 114.058 350.778 111.108C352.115 110.834 354.307 110.383 356.192 109.996ZM308.57 86.8538C309.247 86.193 311.567 86.5959 313.55 88.1108C315.79 89.8191 330.455 101.503 330.6 101.616C331.261 102.148 332.212 102.116 332.824 101.535C334.839 99.682 338.078 96.8618 338.948 96.3944C339.561 96.0721 340.431 96.1365 340.802 96.7973C341.43 97.9415 345.443 105.854 347.055 109.062C343.977 107.434 340.866 105.887 338.159 104.726C330.181 101.294 316.225 98.1188 309.005 97.1841C309.214 96.4427 309.231 95.5725 309.005 94.5249C308.409 91.7046 308.102 87.6273 308.57 86.8538ZM287.538 103.357C286.588 102.583 285.621 101.793 285.153 101.294C282.816 98.7957 281.608 95.3952 281.592 91.2051C281.576 87.8207 283.123 87.4984 283.783 87.3533C285.556 87.0471 293.082 91.5757 300.077 96.5878C295.532 96.7812 291.358 98.2155 289.779 103.115C289.585 103.727 289.472 104.323 289.392 104.92C288.86 104.452 288.248 103.937 287.538 103.357ZM293.356 122.212C290.455 123.018 289.15 123.034 288.65 122.97C287.861 119.327 289.569 114.509 290.681 111.672C292.26 114.831 294.968 117.764 297.933 120.294C296.37 121.052 294.484 121.89 293.356 122.212ZM323.767 137.667C322.865 138.924 319.674 141.229 316.692 142.019C315.903 142.228 313.485 141.471 312.357 140.681C310.971 139.682 308.199 134.767 307.458 132.978C307.039 131.962 306.04 128.497 305.427 125.725C308.844 127.869 311.487 129.158 311.567 129.19C315.87 131.253 321.479 132.865 326.604 134.025C325.604 135.266 324.428 136.765 323.767 137.667ZM313.05 126.112C305.395 122.438 290.423 112.236 293.034 104.162C294.597 99.3759 300.399 99.6337 307.828 100.488C315.274 101.342 329.569 104.759 336.821 107.885C345.201 111.495 357.417 118.699 360.592 121.084C366.491 125.5 369.021 129.255 367.748 131.624C367.361 132.333 364.25 135.701 339.948 132.897L339.271 132.816C335.097 132.333 321.366 130.109 313.05 126.112ZM322.381 160.891C320.995 158.409 321.479 154.783 322.107 152.784C323.09 153.961 324.396 155.766 325.04 156.813C325.379 157.361 327.087 159.634 330.907 164.678C333.324 167.885 336.499 172.075 337.707 173.751C332.776 170.318 324.025 163.856 322.381 160.891Z" fill="white"/>
<path d="M307.232 107.079C307.168 106.773 306.862 106.58 306.555 106.644L303.606 107.273C303.3 107.337 303.107 107.643 303.171 107.949C303.236 108.223 303.461 108.401 303.735 108.401C303.767 108.401 303.816 108.401 303.848 108.385L306.797 107.756C307.103 107.692 307.297 107.385 307.232 107.079Z" fill="white"/>
<path d="M311.406 108.481L313.904 108.884C313.937 108.884 313.969 108.884 314.001 108.884C314.275 108.884 314.517 108.691 314.565 108.401C314.614 108.094 314.404 107.804 314.098 107.74L311.6 107.337C311.31 107.289 310.987 107.498 310.939 107.804C310.891 108.127 311.1 108.433 311.406 108.481Z" fill="white"/>
<path d="M319.255 108.675L323.09 109.464C323.122 109.464 323.171 109.48 323.203 109.48C323.477 109.48 323.703 109.287 323.767 109.029C323.832 108.723 323.638 108.417 323.316 108.352L319.48 107.563C319.174 107.498 318.868 107.708 318.803 108.014C318.739 108.304 318.932 108.61 319.255 108.675Z" fill="white"/>
<path d="M316.209 111.85L318.723 112.736C318.787 112.752 318.852 112.768 318.916 112.768C319.158 112.768 319.367 112.623 319.448 112.381C319.561 112.091 319.4 111.753 319.11 111.656L316.595 110.77C316.289 110.657 315.967 110.818 315.87 111.108C315.757 111.414 315.919 111.737 316.209 111.85Z" fill="white"/>
<path d="M314.435 113.123L311.583 111.688C311.309 111.543 310.954 111.656 310.809 111.946C310.664 112.22 310.777 112.575 311.067 112.72L313.92 114.154C314 114.202 314.081 114.218 314.177 114.218C314.387 114.218 314.58 114.106 314.693 113.896C314.838 113.606 314.709 113.252 314.435 113.123Z" fill="white"/>
<path d="M307.538 112.156C307.312 111.93 306.958 111.93 306.732 112.14C306.507 112.365 306.507 112.72 306.716 112.946L310.02 116.346C310.133 116.459 310.278 116.523 310.423 116.523C310.568 116.523 310.713 116.475 310.826 116.362C311.051 116.137 311.051 115.782 310.842 115.556L307.538 112.156Z" fill="white"/>
<path d="M317.143 120.004L315.532 119.118C315.258 118.973 314.903 119.053 314.758 119.343C314.613 119.617 314.71 119.972 314.984 120.117L316.595 121.003C316.676 121.052 316.773 121.068 316.869 121.068C317.063 121.068 317.272 120.955 317.369 120.778C317.514 120.504 317.417 120.165 317.143 120.004Z" fill="white"/>
<path d="M321.865 119.118C322.075 119.118 322.268 119.005 322.365 118.812C322.51 118.538 322.413 118.183 322.139 118.038L319.286 116.491C319.012 116.346 318.658 116.443 318.513 116.717C318.368 116.991 318.465 117.345 318.739 117.49L321.591 119.037C321.672 119.086 321.768 119.118 321.865 119.118Z" fill="white"/>
<path d="M323.154 114.589C322.993 114.863 323.09 115.218 323.364 115.363L327.022 117.474C327.119 117.523 327.216 117.555 327.312 117.555C327.506 117.555 327.699 117.458 327.812 117.265C327.973 116.991 327.876 116.636 327.602 116.491L323.944 114.38C323.654 114.235 323.316 114.315 323.154 114.589Z" fill="white"/>
<path d="M330.02 113.88C330.133 113.977 330.261 114.025 330.39 114.025C330.552 114.025 330.713 113.961 330.826 113.832C331.035 113.59 331.003 113.235 330.777 113.026L328.311 110.882C328.07 110.673 327.715 110.689 327.506 110.931C327.296 111.172 327.328 111.527 327.554 111.737L330.02 113.88Z" fill="white"/>
<path d="M336.032 114.202C336.145 114.315 336.29 114.38 336.451 114.38C336.596 114.38 336.741 114.331 336.854 114.218C337.079 114.009 337.095 113.638 336.87 113.413L335.5 111.978C335.29 111.753 334.92 111.737 334.694 111.962C334.468 112.172 334.452 112.542 334.678 112.768L336.032 114.202Z" fill="white"/>
<path d="M335.757 120.278C335.967 120.278 336.16 120.165 336.257 119.972C336.402 119.698 336.305 119.343 336.031 119.198L333.05 117.587C332.776 117.442 332.421 117.538 332.276 117.812C332.131 118.086 332.228 118.441 332.502 118.586L335.483 120.198C335.58 120.246 335.677 120.278 335.757 120.278Z" fill="white"/>
<path d="M331.18 122.293L327.168 120.778C326.878 120.665 326.539 120.81 326.426 121.116C326.313 121.406 326.459 121.745 326.765 121.858L330.778 123.373C330.842 123.405 330.907 123.405 330.971 123.405C331.197 123.405 331.422 123.26 331.503 123.034C331.616 122.744 331.471 122.406 331.18 122.293Z" fill="white"/>
<path d="M324.476 124.211L322.333 122.954C322.059 122.792 321.704 122.889 321.559 123.163C321.398 123.437 321.495 123.791 321.769 123.937L323.912 125.194C324.009 125.242 324.105 125.274 324.202 125.274C324.396 125.274 324.589 125.177 324.702 124.984C324.831 124.726 324.75 124.372 324.476 124.211Z" fill="white"/>
<path d="M340.382 118.312L344.218 120.117C344.299 120.149 344.379 120.166 344.46 120.166C344.669 120.166 344.879 120.037 344.976 119.843C345.104 119.553 344.992 119.215 344.702 119.086L340.866 117.281C340.592 117.152 340.237 117.265 340.109 117.555C339.98 117.845 340.092 118.183 340.382 118.312Z" fill="white"/>
<path d="M337.917 122.76L341.043 123.985C341.108 124.017 341.188 124.017 341.253 124.017C341.478 124.017 341.704 123.872 341.785 123.646C341.898 123.356 341.752 123.018 341.462 122.905L338.336 121.68C338.046 121.567 337.707 121.712 337.595 122.003C337.482 122.293 337.611 122.647 337.917 122.76Z" fill="white"/>
<path d="M338.851 126.467L335.37 125.758C335.048 125.693 334.758 125.886 334.694 126.209C334.629 126.515 334.822 126.821 335.145 126.886L338.626 127.595C338.658 127.595 338.706 127.611 338.739 127.611C339.013 127.611 339.238 127.417 339.303 127.16C339.367 126.837 339.174 126.531 338.851 126.467Z" fill="white"/>
<path d="M346.071 124.645H347.506C347.828 124.645 348.07 124.388 348.07 124.081C348.07 123.775 347.812 123.517 347.506 123.517H346.071C345.749 123.517 345.507 123.775 345.507 124.081C345.507 124.388 345.749 124.645 346.071 124.645Z" fill="white"/>
<path d="M345.54 128.143H345.556L348.586 128.046C348.908 128.03 349.15 127.772 349.134 127.45C349.118 127.144 348.876 126.902 348.57 126.902H348.554L345.524 126.998C345.201 127.015 344.96 127.272 344.976 127.595C344.976 127.885 345.218 128.143 345.54 128.143Z" fill="white"/>
<path d="M350.89 121.31C351.003 121.39 351.132 121.438 351.245 121.438C351.406 121.438 351.567 121.374 351.68 121.229C351.874 120.987 351.841 120.617 351.6 120.423L350.616 119.617C350.375 119.424 350.004 119.456 349.811 119.698C349.617 119.94 349.65 120.31 349.891 120.504L350.89 121.31Z" fill="white"/>
<path d="M356.031 125.918C356.144 126.031 356.289 126.08 356.434 126.08C356.579 126.08 356.724 126.015 356.837 125.918C357.063 125.693 357.063 125.338 356.837 125.113L355.403 123.678C355.177 123.453 354.823 123.453 354.597 123.678C354.371 123.904 354.371 124.259 354.597 124.484L356.031 125.918Z" fill="white"/>
<path d="M351.132 129.19C351.18 129.464 351.422 129.658 351.696 129.658C351.728 129.658 351.776 129.658 351.809 129.642L354.049 129.19C354.355 129.126 354.564 128.836 354.5 128.514C354.436 128.207 354.145 127.998 353.823 128.062L351.583 128.514C351.277 128.578 351.067 128.884 351.132 129.19Z" fill="white"/>
<path d="M303.058 110.383C302.897 110.109 302.542 110.028 302.268 110.189C301.994 110.35 301.913 110.705 302.075 110.979L302.719 112.059C302.832 112.236 303.009 112.333 303.203 112.333C303.299 112.333 303.412 112.3 303.493 112.252C303.767 112.091 303.847 111.736 303.686 111.462L303.058 110.383Z" fill="white"/>
<path d="M410.761 186.821C410.213 180.004 405.99 155.846 404.83 149.996C404.218 146.918 402.783 142.099 401.269 136.974C399.641 131.495 397.804 125.274 396.692 120.294C395.451 114.751 394.645 106.612 394.258 100.327C395.837 100.407 397.417 100.472 398.964 100.472C400.011 100.472 401.059 100.456 402.074 100.407C412.179 99.956 433.404 93.6547 436.998 91.3984C439.592 89.7546 440.946 87.9174 441.945 86.048C448.456 82.7603 463.637 73.2035 464.379 72.72C465.104 72.2043 470.551 68.3687 472.356 65.3067C472.598 65.0327 472.759 64.6943 472.807 64.3236C472.888 64.0657 472.952 63.8079 472.936 63.5662C472.936 63.3244 472.775 63.1149 472.566 63.0504C471.873 61.9384 469.197 59.8756 458.561 54.6863C460.334 50.9796 464.443 42.2769 464.572 41.5195C464.701 40.7782 464.491 34.8314 462.88 33.3648C462.686 33.1876 462.396 33.2037 462.187 33.3487C461.172 32.414 459.85 31.866 458.464 31.866C458.448 31.866 458.432 31.866 458.416 31.866C456.224 31.8822 453.388 33.0425 451.502 33.8L450.97 34.0095C449.729 34.5091 438.48 38.7314 434.306 40.3108C432.147 35.1214 430.035 29.7226 429.89 28.804C429.826 28.1432 429.439 26.9345 427.715 26.2254C425.878 25.4841 423.75 25.8709 422.187 27.2246C419.899 29.2069 412.517 35.5888 410.406 37.281C408.875 37.0232 403.847 33.4293 399.367 29.3681L387.876 18.5381C386.893 17.6195 385.507 17.3456 384.266 17.8129C383.589 18.0708 383.041 18.522 382.655 19.0861C381.075 20.6977 379.754 23.6469 379.738 23.6952C379.48 24.3399 377.691 34.9603 377.111 38.5219C366.587 33.5421 354.145 27.6114 353.323 27.1602C353.178 27.0796 349.633 25.0167 347.232 25.9353C346.394 26.2577 345.765 26.8862 345.491 27.7403C345.394 28.0465 345.12 28.8846 345.556 43.534C345.572 43.808 345.652 44.0497 345.765 44.2753C344.75 44.5815 343.896 44.9038 343.412 45.2262C341.124 46.7572 338.722 48.6427 338.384 51.0924C338.013 53.6387 342.848 57.6194 346.023 59.8272C343.702 61.4388 340.398 63.9368 339.383 65.774C338.062 68.1431 335.306 74.2672 335.145 78.0544C335.064 79.9561 335.886 80.907 336.579 81.3582C338.319 82.5024 340.624 81.4871 341.075 81.2615C341.188 81.2131 341.285 81.1486 341.382 81.0681L346.539 77.0391C347.908 79.247 350.358 82.9698 352.405 84.6781C355.128 86.9666 368.924 95.5563 375.547 97.4419C379.319 98.5217 384.943 99.5048 390.841 100.037C391.196 106.483 392.018 114.896 393.372 121.003C394.5 126.096 396.369 132.365 398.013 137.909C398.078 138.151 398.158 138.376 398.223 138.618C394.339 137.361 389.391 136.636 387.667 136.99C386.925 137.136 386.345 137.684 386.184 138.409C385.926 139.553 385.652 140.746 399.866 151.463C400.173 151.688 400.543 151.801 400.898 151.801C401.188 151.801 401.446 151.72 401.704 151.575C403.202 159.359 406.909 180.907 407.393 187.015C407.86 192.881 407.779 193.944 407.489 197.925L407.425 198.715C408.569 198.715 409.713 198.699 410.858 198.699L410.89 198.183C411.148 194.186 411.244 192.945 410.761 186.821ZM463.734 71.7853C463.573 71.8981 449.858 80.5363 442.799 84.3235C442.864 84.1946 442.928 84.0657 442.977 83.9368C444.137 81.4388 445.233 79.0697 448.762 76.8779C451.792 75.7337 464.201 69.7225 469.584 66.9505C467.876 68.6911 465.507 70.5605 463.734 71.7853ZM462.783 41.1811C462.815 41.1166 463.17 40.3108 463.444 39.6823C463.492 40.472 463.508 41.1005 463.46 41.3583C463.299 42.0352 459.898 49.2874 457.545 54.2189C456.756 53.8321 455.918 53.4453 455.047 53.0263C457.207 49.9642 461.655 43.5824 462.783 41.1811ZM452.211 37.2488L452.775 37.0231C454.306 36.3946 456.885 35.3471 458.432 35.331H458.448C459.125 35.331 459.737 35.6372 460.14 36.1851C460.527 36.7008 460.64 37.3455 460.446 37.9257C460.334 38.2319 459.786 39.4889 459.657 39.7467C458.657 41.9063 453.952 48.6427 451.615 51.8982C449.761 49.1584 446.216 47.1279 440.414 44.4688C439.286 43.953 438.077 43.4857 436.82 43.0666C441.72 41.2294 451.051 37.7161 452.211 37.2488ZM424.379 29.8677C424.959 29.352 425.749 29.1908 426.377 29.4486C426.426 29.4648 426.458 29.4809 426.49 29.497C426.877 31.3503 429.359 37.4744 430.986 41.4067C425.088 40.0529 418.803 39.3922 413.646 39.0699C416.482 36.7008 421.865 32.0594 424.379 29.8677ZM385.475 21.0845L396.982 31.9305C400.688 35.2987 403.476 37.4261 405.604 38.7637C405.152 38.7637 404.75 38.7637 404.395 38.7637C398.448 38.7637 390.874 39.3277 383.38 40.5042C383.928 35.2665 385.249 22.7283 385.475 21.0845ZM380.753 24.1626C380.93 23.7113 381.349 22.9217 381.849 22.0997C381.478 25.7097 380.463 35.4115 379.995 39.9562C379.383 39.6662 378.771 39.3761 378.142 39.0699C379.093 33.252 380.543 24.7589 380.753 24.1626ZM404.395 42.1803C409.762 42.1803 428.102 42.567 439.012 47.5791C447.65 51.5436 449.246 53.3486 449.697 56.1206C450.68 62.1318 447.811 66.5315 439.786 71.3502C432.598 75.6692 422.364 79.1503 416.369 80.2462C406.281 82.0996 386.555 82.0996 377.481 80.8103C369.584 79.6822 354.113 73.1551 354.113 63.1793C354.113 58.2962 358.706 51.2535 365.539 48.5138C375.934 44.3398 392.953 42.1803 404.395 42.1803ZM348.714 29.1747C349.375 29.223 350.632 29.6259 351.551 30.1739C352.437 30.6896 367.586 37.8773 375.999 41.8741C373.291 42.4704 370.68 43.1472 368.247 43.9208C364.492 42.6154 354.613 42.567 354.516 42.567C354.226 42.567 351.599 42.9538 348.94 43.5179C348.94 43.5017 348.956 43.4857 348.956 43.4695C348.763 37.6033 348.65 31.1247 348.714 29.1747ZM394.097 91.6402C394.21 90.7054 393.533 89.8513 392.598 89.7385C391.631 89.6257 390.809 90.3025 390.696 91.2373C390.584 92.1559 390.567 94.1221 390.648 96.6684C385.153 96.1527 379.963 95.234 376.45 94.2187C370.487 92.5104 357.014 84.1623 354.564 82.1156C352.566 80.4395 349.472 75.4759 348.456 73.7031C348.215 73.268 347.78 72.9779 347.296 72.8812C346.813 72.7845 346.313 72.9134 345.91 73.2196L339.399 78.3123C339.125 78.4251 338.755 78.5218 338.513 78.5379C338.513 78.4734 338.513 78.3767 338.513 78.2639C338.626 75.2824 341.043 69.7869 342.316 67.5146C343.09 66.1125 347.312 63.0343 350.052 61.2938C350.6 60.9554 350.906 60.3269 350.842 59.6822C350.777 59.0376 350.374 58.4897 349.778 58.2479C348.005 57.5388 342.477 52.978 341.768 51.4631C341.962 50.8507 342.751 49.8031 345.265 48.127C346.377 47.4018 353.404 46.1126 354.5 45.9998C356.385 45.9998 359.431 46.1287 362.107 46.3543C354.919 50.206 350.697 57.6193 350.697 63.1793C350.697 68.6749 354.129 73.7998 360.608 77.9738C366.345 81.6644 372.824 83.6144 376.998 84.2107C381.236 84.8231 387.731 85.1455 394.532 85.1455C402.703 85.1455 411.309 84.6781 416.982 83.6306C423.412 82.4541 433.919 78.8602 441.542 74.2994C448.021 70.4154 454.435 65.1777 453.114 55.9272C459.076 58.7636 465.458 62.0512 468.263 63.824C463.218 66.4348 449.794 72.9295 447.425 73.7676C447.36 73.7837 447.328 73.832 447.28 73.8643C447.215 73.8965 447.167 73.8965 447.102 73.9287C442.606 76.6846 441.156 79.7949 439.882 82.5346C438.819 84.8392 437.884 86.8376 435.176 88.5459C432.276 90.3832 411.905 96.5878 401.929 97.039C399.415 97.1518 396.756 97.1035 394.097 96.9584C394 94.4282 394 92.5104 394.097 91.6402ZM391.76 140.665C394.274 141.068 397.465 141.841 399.415 142.808C399.963 144.694 400.463 146.467 400.849 147.982C397.497 145.451 394.016 142.647 391.76 140.665Z" fill="white"/>
<path d="M459.48 174.702C461.865 172.607 464.347 170.431 465.523 166.564C467.151 161.213 466.651 150.512 466.361 144.114C466.281 142.503 466.232 141.213 466.232 140.472C466.232 139.295 466.764 137.361 467.344 135.315C468.344 131.705 469.488 127.627 468.988 123.872C468.247 118.2 464.782 99.4406 463.444 95.8145C462.816 94.1062 461.881 93.2199 460.64 93.1876C458.851 93.0748 457.771 95.1054 457.498 95.7017C457.401 95.9274 457.352 96.1691 457.352 96.3947C457.352 97.3294 457.224 106.37 457.046 115.573C456.676 114.3 456.305 113.107 455.95 112.172C454.516 108.466 452.743 100.762 452.727 100.682C452.663 100.408 452.421 100.198 452.147 100.246C451.873 100.263 451.647 100.472 451.615 100.73L451.067 104.743C451.067 104.775 451.067 104.791 451.067 104.823C451.083 107.547 451.051 112.011 451.003 116.733C450.938 125.001 450.858 133.542 451.067 135.895C451.454 140.262 451.502 148.739 449.182 152.768C447.151 156.314 445.894 161.729 445.427 163.985C443.783 167.386 441.801 173.123 439.867 179.005L439.415 180.359C438.207 183.969 437.401 193.59 437.159 198.602C438.303 198.602 439.448 198.586 440.592 198.586C440.85 193.284 441.688 184.388 442.671 181.455L443.122 180.085C444.476 175.975 447.635 166.37 449.407 163.856C451.083 161.487 456.966 152.623 457.836 150.238C458.529 148.353 459.254 142.051 459.899 136.056C460.221 133.026 460.656 106.999 460.769 98.8121C462.22 104.453 464.911 119.038 465.604 124.324C466.007 127.386 464.959 131.125 464.057 134.412C463.396 136.797 462.832 138.844 462.832 140.488C462.832 141.262 462.896 142.599 462.977 144.291C463.251 150.061 463.751 160.81 462.284 165.581C461.381 168.53 459.464 170.206 457.256 172.156C455.225 173.929 452.937 175.943 451.502 179.15C449.504 183.598 446.216 193.365 444.492 198.57C445.701 198.554 446.909 198.554 448.118 198.538C449.907 193.187 452.872 184.501 454.645 180.536C455.709 178.006 457.546 176.394 459.48 174.702ZM456.45 135.75C456.144 138.602 455.225 147.289 454.597 149.046C454.049 150.561 449.859 157.104 447.328 160.794C447.973 158.377 448.908 155.46 450.133 153.332C453.146 148.079 452.26 137.039 452.147 135.798C451.938 133.51 452.018 124.598 452.099 116.749C452.147 112.043 452.179 107.611 452.163 104.872L452.292 103.889C452.953 106.499 453.952 110.271 454.871 112.607C455.596 114.461 456.353 117.313 456.95 119.892C456.788 127.482 456.595 134.332 456.45 135.75Z" fill="white"/>
<path d="M488.15 39.2311C488.714 38.9249 489.133 38.3931 489.278 37.7323C489.455 36.9104 489.149 36.0885 488.488 35.5728C488.343 35.46 488.15 35.3472 487.924 35.3472C487.811 35.3472 487.473 35.3472 483.508 36.846C483.573 34.8315 481.413 33.0426 480.64 32.398L480.479 32.2691C479.512 31.4471 477.062 31.3988 477.03 31.3988C476.804 31.3988 476.45 31.4955 476.095 31.9145C475.499 32.6397 474.983 34.203 475.289 35.9596C475.499 37.1522 476.949 38.232 478.545 38.796C478.255 38.9733 477.965 39.1989 477.674 39.5374C476.143 41.3101 476.675 42.4866 477.32 43.3085C477.739 43.8564 478.464 44.066 479.238 44.066C480.076 44.066 480.962 43.8242 481.607 43.518C481.8 43.4213 481.977 43.3246 482.123 43.2279C483.041 44.1304 484.798 44.6622 486.377 44.6622C486.635 44.6622 486.877 44.6461 487.118 44.6139C488.666 44.4366 489.649 43.6792 489.826 42.551C490.019 41.1651 489.133 40.0531 488.15 39.2311ZM487.828 36.5237C488.23 36.8621 488.198 37.3133 488.15 37.5067C488.085 37.8452 487.828 38.232 487.328 38.3448C487.231 38.3609 487.151 38.4092 487.086 38.4737C486.683 38.2158 486.313 38.0224 486.071 37.8935L485.894 37.7968C485.636 37.6518 485.297 37.5712 484.943 37.539C486.216 37.0555 487.392 36.6365 487.828 36.5237ZM481.43 42.3415C481.365 42.3738 481.268 42.4221 481.107 42.5027C480.027 43.0184 478.561 43.0829 478.206 42.6316C477.852 42.1643 477.401 41.6002 478.529 40.3109C478.948 39.8274 479.334 39.6663 479.818 39.4568C479.995 39.3923 480.172 39.2956 480.35 39.2151C480.479 39.2312 480.592 39.2311 480.72 39.2311C480.914 39.2311 481.075 39.1989 481.236 39.1828C481.059 40.0208 481.091 41.149 481.51 42.3093C481.494 42.3093 481.462 42.3093 481.43 42.3415ZM480.35 38.0547C478.593 37.8935 476.563 36.7171 476.401 35.7662C476.095 34.0257 476.804 32.6719 477.014 32.543C477.82 32.543 479.302 32.7687 479.721 33.1232L479.899 33.2682C480.624 33.8806 482.848 35.7179 482.251 37.3295C481.961 38.0869 480.946 38.103 480.35 38.0547ZM486.973 43.4858C485.233 43.6953 482.993 42.9539 482.638 42.0676C481.977 40.4399 482.38 38.9572 482.574 38.796C482.993 38.6993 483.621 38.6349 484.185 38.6349C484.669 38.6349 485.12 38.6832 485.33 38.796L485.523 38.9088C486.361 39.344 488.923 40.6977 488.666 42.3899C488.569 43.1796 487.554 43.4213 486.973 43.4858Z" fill="white"/>
<path d="M314.79 65.4516C314.774 65.4516 313.034 65.4838 312.244 66.1607C311.728 66.5797 310.391 67.7078 310.262 69.0616C307.78 68.1268 307.538 68.1107 307.441 68.1107C307.232 68.1107 307.071 68.2236 306.942 68.3042C306.442 68.6909 306.2 69.3194 306.346 69.9479C306.426 70.3508 306.668 70.6893 306.99 70.931C306.362 71.4951 305.846 72.2525 305.991 73.1873C306.12 74.0414 306.845 74.6055 307.973 74.7344C308.15 74.7505 308.328 74.7667 308.505 74.7667C309.553 74.7667 310.697 74.4443 311.39 73.848C311.47 73.8964 311.551 73.9286 311.632 73.9769C312.083 74.2026 312.711 74.3638 313.308 74.3638C313.888 74.3638 314.436 74.2026 314.758 73.7836C315.193 73.2195 315.644 72.317 314.516 70.9955C314.404 70.8666 314.291 70.7538 314.178 70.6571C315.177 70.2381 316.031 69.529 316.176 68.7232C316.386 67.4823 316.031 66.3541 315.596 65.8384C315.274 65.5322 314.984 65.4516 314.79 65.4516ZM307.554 69.3033C307.812 69.3839 308.296 69.5451 308.843 69.7546C308.763 69.7868 308.682 69.8191 308.602 69.8513C308.457 69.9319 308.231 70.0446 307.989 70.1897C307.957 70.1736 307.909 70.1414 307.877 70.1414C307.619 70.0769 307.49 69.8835 307.458 69.7062C307.441 69.6417 307.425 69.4645 307.554 69.3033ZM310.826 72.7682C310.632 73.2517 309.23 73.7514 308.086 73.6224C307.748 73.5741 307.167 73.4451 307.103 73.0422C306.958 72.0269 308.586 71.1567 309.134 70.8827L309.262 70.8183C309.375 70.7538 309.633 70.7216 309.939 70.7216C310.246 70.7216 310.616 70.7538 310.89 70.8021C311.019 71.0116 311.196 71.8335 310.826 72.7682ZM313.839 73.0906C313.694 73.2839 312.824 73.3001 312.115 72.9617C312.051 72.9294 312.018 72.9133 311.97 72.8972C312.179 72.2365 312.212 71.624 312.147 71.0922C312.196 71.0922 312.244 71.1083 312.292 71.1083C312.357 71.1083 312.437 71.1083 312.502 71.0922C312.615 71.1405 312.727 71.1889 312.824 71.2372C313.146 71.3661 313.372 71.4629 313.63 71.753C314.275 72.5265 314.065 72.8005 313.839 73.0906ZM315.016 68.562C314.935 69.0616 313.678 69.8513 312.518 69.9641C312.179 69.9963 311.583 69.9963 311.438 69.5934C311.084 68.6265 312.502 67.45 312.969 67.0632L313.082 66.9665C313.275 66.7892 314.113 66.6281 314.677 66.612C314.855 66.8054 315.193 67.579 315.016 68.562Z" fill="white"/>
<path d="M368.311 53.9125C368.376 53.9125 368.456 53.8964 368.521 53.8641L375.128 51.1889C375.418 51.0761 375.563 50.7376 375.451 50.4475C375.338 50.1574 374.999 50.0124 374.709 50.1252L368.102 52.8005C367.812 52.9133 367.667 53.2517 367.78 53.5418C367.876 53.7674 368.086 53.9125 368.311 53.9125Z" fill="white"/>
<path d="M382.784 48.7237C382.864 48.7237 382.961 48.7076 383.042 48.6592L384.686 47.8534C384.976 47.7084 385.088 47.3699 384.943 47.0959C384.815 46.822 384.46 46.693 384.186 46.8381L382.542 47.6439C382.252 47.7889 382.139 48.1274 382.284 48.4013C382.365 48.6109 382.574 48.7237 382.784 48.7237Z" fill="white"/>
<path d="M399.399 46.757C399.431 46.757 399.448 46.757 399.48 46.757L402.091 46.4025C402.397 46.3542 402.622 46.0641 402.574 45.7579C402.526 45.4517 402.236 45.2099 401.929 45.2744L399.319 45.6289C399.012 45.6772 398.787 45.9673 398.835 46.2735C398.867 46.5636 399.109 46.757 399.399 46.757Z" fill="white"/>
<path d="M406.893 46.5801H411.534C411.856 46.5801 412.098 46.3223 412.098 46.0161C412.098 45.7099 411.84 45.452 411.534 45.452H406.893C406.57 45.452 406.329 45.7099 406.329 46.0161C406.329 46.3223 406.586 46.5801 406.893 46.5801Z" fill="white"/>
<path d="M420.156 47.9015L424.975 49.0619C425.024 49.078 425.072 49.078 425.104 49.078C425.362 49.078 425.604 48.9008 425.652 48.6429C425.733 48.3367 425.539 48.0304 425.233 47.9499L420.414 46.7896C420.108 46.709 419.802 46.9024 419.721 47.2086C419.657 47.5309 419.85 47.8371 420.156 47.9015Z" fill="white"/>
<path d="M431.632 50.6249L435.564 52.8167C435.644 52.8651 435.741 52.8812 435.838 52.8812C436.031 52.8812 436.241 52.7684 436.337 52.5911C436.483 52.3171 436.386 51.9625 436.112 51.8175L432.18 49.6258C431.906 49.4807 431.551 49.5613 431.406 49.8514C431.261 50.1254 431.358 50.4638 431.632 50.6249Z" fill="white"/>
<path d="M440.382 58.3285C440.495 58.4736 440.672 58.5542 440.833 58.5542C440.962 58.5542 441.075 58.5219 441.172 58.4413C441.43 58.2479 441.478 57.8934 441.285 57.6355L439.222 54.9119C439.028 54.6541 438.674 54.6057 438.416 54.7991C438.158 54.9925 438.11 55.347 438.303 55.6049L440.382 58.3285Z" fill="white"/>
<path d="M436.24 63.3082L433.388 67.9819C433.226 68.2558 433.307 68.5943 433.581 68.7715C433.678 68.836 433.774 68.8521 433.871 68.8521C434.065 68.8521 434.258 68.7554 434.355 68.5781L437.207 63.9045C437.368 63.6305 437.288 63.2921 437.014 63.1148C436.756 62.9536 436.401 63.0343 436.24 63.3082Z" fill="white"/>
<path d="M427.441 71.6242L424.943 72.4461C424.637 72.5428 424.476 72.8651 424.572 73.1713C424.653 73.413 424.879 73.5582 425.12 73.5582C425.185 73.5582 425.233 73.542 425.298 73.5259L427.796 72.704C428.102 72.6073 428.263 72.2849 428.166 71.9787C428.07 71.6725 427.731 71.5275 427.441 71.6242Z" fill="white"/>
<path d="M417.916 74.4603L414.339 74.7827C414.016 74.8149 413.791 75.0889 413.823 75.3951C413.855 75.6852 414.097 75.9108 414.387 75.9108C414.403 75.9108 414.419 75.9108 414.435 75.9108L418.013 75.5885C418.335 75.5562 418.561 75.2823 418.529 74.9761C418.513 74.6699 418.223 74.4442 417.916 74.4603Z" fill="white"/>
<path d="M404.395 75.9268H409.053C409.375 75.9268 409.617 75.669 409.617 75.3628C409.617 75.0566 409.359 74.7987 409.053 74.7987H404.395C404.073 74.7987 403.831 75.0566 403.831 75.3628C403.831 75.669 404.073 75.9268 404.395 75.9268Z" fill="white"/>
<path d="M396.499 74.4768L391.503 73.252C391.197 73.1714 390.89 73.3648 390.81 73.671C390.729 73.9772 390.923 74.2835 391.229 74.364L396.225 75.5888C396.273 75.6049 396.322 75.6049 396.354 75.6049C396.612 75.6049 396.837 75.4277 396.902 75.1698C396.982 74.8636 396.805 74.5574 396.499 74.4768Z" fill="white"/>
<path d="M379.028 73.2518L375.273 72.027C374.967 71.9303 374.645 72.0914 374.548 72.3977C374.451 72.7039 374.612 73.0262 374.919 73.1229L378.674 74.3477C378.738 74.3638 378.787 74.3799 378.851 74.3799C379.093 74.3799 379.318 74.2348 379.399 73.977C379.496 73.6708 379.318 73.3485 379.028 73.2518Z" fill="white"/>
<path d="M365.814 68.9161L367.071 71.7526C367.167 71.9621 367.377 72.091 367.586 72.091C367.667 72.091 367.747 72.0749 367.812 72.0426C368.102 71.9137 368.231 71.5753 368.102 71.2852L366.845 68.4488C366.716 68.1587 366.378 68.0298 366.087 68.1587C365.83 68.2877 365.701 68.6261 365.814 68.9161Z" fill="white"/>
<path d="M364.734 61.7608L364.202 63.4369C364.106 63.7431 364.267 64.0654 364.573 64.1621C364.637 64.1782 364.686 64.1944 364.75 64.1944C364.992 64.1944 365.218 64.0332 365.298 63.7915L365.83 62.1154C365.927 61.8092 365.766 61.4869 365.459 61.3902C365.153 61.2935 364.831 61.4708 364.734 61.7608Z" fill="white"/>
<path d="M371.857 57.9418C371.922 58.1996 372.148 58.3769 372.405 58.3769C372.454 58.3769 372.502 58.3769 372.55 58.3608L377.111 57.1844C377.417 57.1038 377.595 56.7975 377.514 56.4913C377.434 56.1851 377.111 56.0079 376.821 56.0884L372.26 57.265C371.97 57.3294 371.793 57.6356 371.857 57.9418Z" fill="white"/>
<path d="M395.096 52.5753H395.983C396.305 52.5753 396.547 52.3174 396.547 52.0112C396.547 51.705 396.289 51.4471 395.983 51.4471H395.096C394.774 51.4471 394.532 51.705 394.532 52.0112C394.532 52.3174 394.79 52.5753 395.096 52.5753Z" fill="white"/>
<path d="M408.472 51.9626C408.456 52.2849 408.698 52.5427 409.004 52.5589L414.355 52.865C414.371 52.865 414.371 52.865 414.387 52.865C414.693 52.865 414.935 52.6233 414.951 52.3332C414.967 52.0109 414.725 51.753 414.419 51.7369L409.069 51.4307C408.795 51.3824 408.505 51.6564 408.472 51.9626Z" fill="white"/>
<path d="M423.122 52.7683C422.912 52.5426 422.542 52.5265 422.316 52.736C422.09 52.9455 422.074 53.3162 422.284 53.5418L423.283 54.6216C423.396 54.7344 423.541 54.7988 423.702 54.7988C423.847 54.7988 423.976 54.7505 424.089 54.6376C424.314 54.4281 424.331 54.0575 424.121 53.8318L423.122 52.7683Z" fill="white"/>
<path d="M427.828 58.4412C427.941 58.6346 428.134 58.7313 428.327 58.7313C428.424 58.7313 428.521 58.7152 428.601 58.6507C428.875 58.4896 428.972 58.1511 428.811 57.8771L428.279 56.9263C428.118 56.6523 427.779 56.5557 427.505 56.7168C427.231 56.878 427.135 57.2164 427.296 57.4904L427.828 58.4412Z" fill="white"/>
<path d="M427.683 61.5198L424.733 64.1628C424.492 64.3723 424.475 64.7429 424.685 64.9686C424.798 65.0975 424.959 65.162 425.104 65.162C425.233 65.162 425.378 65.1137 425.491 65.017L428.44 62.3739C428.682 62.1644 428.698 61.7937 428.488 61.5681C428.279 61.3263 427.908 61.3103 427.683 61.5198Z" fill="white"/>
<path d="M422.445 65.516L420.399 66.5797C420.125 66.7248 420.012 67.0632 420.157 67.3533C420.253 67.5467 420.463 67.6595 420.656 67.6595C420.737 67.6595 420.834 67.6434 420.914 67.5951L422.961 66.5314C423.235 66.3864 423.348 66.0479 423.203 65.7578C423.074 65.4838 422.719 65.371 422.445 65.516Z" fill="white"/>
<path d="M414.064 68.2072C414.016 67.8849 413.726 67.6754 413.42 67.7237L410.39 68.1266C410.084 68.175 409.858 68.4651 409.906 68.7713C409.939 69.0613 410.197 69.2709 410.47 69.2709C410.503 69.2709 410.519 69.2709 410.551 69.2709L413.581 68.868C413.887 68.8035 414.113 68.5134 414.064 68.2072Z" fill="white"/>
<path d="M404.395 69.0618H406.893C407.215 69.0618 407.457 68.804 407.457 68.4978C407.457 68.1916 407.199 67.9337 406.893 67.9337H404.395C404.073 67.9337 403.831 68.1916 403.831 68.4978C403.831 68.804 404.073 69.0618 404.395 69.0618Z" fill="white"/>
<path d="M396.144 68.4817C396.144 68.804 396.401 69.0458 396.708 69.0458H398.674C398.996 69.0458 399.238 68.7879 399.238 68.4817C399.238 68.1755 398.98 67.9177 398.674 67.9177H396.708C396.401 67.9177 396.144 68.1755 396.144 68.4817Z" fill="white"/>
<path d="M391.567 68.2884C391.567 67.966 391.309 67.7243 391.003 67.7243H388.859C388.537 67.7243 388.295 67.9822 388.295 68.2884C388.295 68.5946 388.553 68.8524 388.859 68.8524H391.003C391.309 68.8524 391.567 68.5946 391.567 68.2884Z" fill="white"/>
<path d="M381.527 67.015C381.639 67.0956 381.752 67.1439 381.881 67.1439C382.042 67.1439 382.219 67.0634 382.332 66.9345C382.526 66.6927 382.477 66.322 382.236 66.1287L379.738 64.1625C379.496 63.9691 379.125 64.0174 378.932 64.2592C378.738 64.5009 378.787 64.8716 379.029 65.065L381.527 67.015Z" fill="white"/>
<path d="M379.915 61.7774C380.06 61.7774 380.205 61.7129 380.318 61.6001L381.349 60.5203C381.575 60.2946 381.559 59.924 381.333 59.7145C381.107 59.4888 380.753 59.505 380.527 59.7306L379.496 60.8104C379.27 61.036 379.286 61.4067 379.512 61.6162C379.641 61.7129 379.77 61.7774 379.915 61.7774Z" fill="white"/>
<path d="M385.814 59.0861C385.83 59.0861 385.862 59.0861 385.878 59.0861L392.373 58.2481C392.679 58.1998 392.905 57.9258 392.872 57.6035C392.824 57.2973 392.566 57.0717 392.228 57.1039L385.733 57.9419C385.427 57.9902 385.201 58.2642 385.234 58.5865C385.298 58.8766 385.54 59.0861 385.814 59.0861Z" fill="white"/>
<path d="M401.994 56.636H399.931C399.609 56.636 399.367 56.8938 399.367 57.2C399.367 57.5062 399.625 57.7641 399.931 57.7641H401.994C402.316 57.7641 402.558 57.5062 402.558 57.2C402.558 56.8938 402.316 56.636 401.994 56.636Z" fill="white"/>
<path d="M412.517 57.7802C412.84 57.7802 413.081 57.5223 413.081 57.2161C413.081 56.9099 412.824 56.652 412.517 56.652H411.534C411.212 56.652 410.97 56.9099 410.97 57.2161C410.97 57.5223 411.228 57.7802 411.534 57.7802H412.517Z" fill="white"/>
<path d="M418.625 59.2629C418.738 59.3919 418.883 59.4402 419.044 59.4402C419.189 59.4402 419.318 59.3919 419.431 59.2952C419.657 59.0857 419.673 58.715 419.463 58.4894L418.754 57.7158C418.545 57.4902 418.174 57.4741 417.948 57.6836C417.723 57.8931 417.707 58.2638 417.916 58.4894L418.625 59.2629Z" fill="white"/>
<path d="M418.352 60.1975L414.597 62.8084C414.339 62.9856 414.274 63.3402 414.452 63.598C414.564 63.7592 414.742 63.8398 414.919 63.8398C415.032 63.8398 415.145 63.8075 415.241 63.7431L418.996 61.1323C419.254 60.955 419.319 60.6005 419.141 60.3426C418.98 60.0848 418.626 60.0203 418.352 60.1975Z" fill="white"/>
<path d="M407.973 62.6957C407.651 62.6957 407.409 62.9536 407.409 63.2598C407.409 63.566 407.667 63.8239 407.973 63.8239H410.826C411.148 63.8239 411.39 63.566 411.39 63.2598C411.39 62.9536 411.132 62.6957 410.826 62.6957H407.973Z" fill="white"/>
<path d="M397.691 63.8396H401.994C402.316 63.8396 402.558 63.5817 402.558 63.2755C402.558 62.9693 402.3 62.7115 401.994 62.7115H397.691C397.368 62.7115 397.126 62.9693 397.126 63.2755C397.126 63.5817 397.384 63.8396 397.691 63.8396Z" fill="white"/>
<path d="M392.164 62.7763C392.164 63.0987 392.421 63.3404 392.728 63.3404H393.84C394.162 63.3404 394.404 63.0825 394.404 62.7763C394.404 62.4701 394.146 62.2123 393.84 62.2123H392.728C392.421 62.2123 392.164 62.454 392.164 62.7763Z" fill="white"/>
<path d="M387.812 52.8818C387.876 52.8818 387.941 52.8657 388.005 52.8496L391.196 51.7537C391.486 51.657 391.647 51.3346 391.551 51.0284C391.454 50.7383 391.116 50.5611 390.826 50.6739L387.635 51.7698C387.345 51.8665 387.183 52.1888 387.28 52.495C387.345 52.7367 387.57 52.8818 387.812 52.8818Z" fill="white"/>
<path d="M389.923 48.4973H392.405C392.727 48.4973 392.969 48.2394 392.969 47.9332C392.969 47.627 392.711 47.3691 392.405 47.3691H389.923C389.601 47.3691 389.359 47.627 389.359 47.9332C389.359 48.2394 389.617 48.4973 389.923 48.4973Z" fill="white"/>
<path d="M364.572 56.2493L362.332 58.8602C362.123 59.1019 362.155 59.4565 362.397 59.666C362.51 59.7627 362.638 59.7949 362.767 59.7949C362.929 59.7949 363.09 59.7304 363.203 59.6015L365.443 56.9907C365.652 56.749 365.62 56.3944 365.378 56.1849C365.136 55.9915 364.782 56.0076 364.572 56.2493Z" fill="white"/>
<path d="M371.615 61.3742C371.293 61.3742 371.051 61.6321 371.051 61.9383V66.5635C371.051 66.8858 371.309 67.1276 371.615 67.1276C371.922 67.1276 372.179 66.8697 372.179 66.5635V61.9383C372.179 61.6321 371.922 61.3742 371.615 61.3742Z" fill="white"/>
<path d="M434.065 57.958C433.775 57.8451 433.436 57.9902 433.324 58.2964L431.535 63.0668C431.422 63.3568 431.567 63.6953 431.873 63.8081C431.938 63.8403 432.002 63.8403 432.067 63.8403C432.292 63.8403 432.518 63.6953 432.598 63.4696L434.387 58.6993C434.516 58.3931 434.371 58.0708 434.065 57.958Z" fill="white"/>
<path d="M443.573 63.2601C443.67 63.3246 443.767 63.3407 443.879 63.3407C444.073 63.3407 444.25 63.244 444.363 63.0668L447.038 58.7799C447.199 58.5059 447.119 58.1675 446.861 57.9902C446.587 57.8291 446.249 57.9097 446.071 58.1675L443.396 62.4543C443.219 62.7444 443.299 63.099 443.573 63.2601Z" fill="white"/>
<path d="M385.814 75.9268H389.069C389.391 75.9268 389.633 75.669 389.633 75.3628C389.633 75.0566 389.375 74.7987 389.069 74.7987H385.814C385.491 74.7987 385.25 75.0566 385.25 75.3628C385.25 75.669 385.507 75.9268 385.814 75.9268Z" fill="white"/>
<path d="M384.412 70.9469H382.413C382.091 70.9469 381.849 71.2048 381.849 71.511C381.849 71.8172 382.107 72.075 382.413 72.075H384.412C384.734 72.075 384.976 71.8172 384.976 71.511C384.976 71.2048 384.734 70.9469 384.412 70.9469Z" fill="white"/>
</svg>
