<?xml version="1.0" encoding="UTF-8" standalone="no"?><!DOCTYPE svg PUBLIC "-//W3C//DTD SVG 1.1//EN" "http://www.w3.org/Graphics/SVG/1.1/DTD/svg11.dtd"><svg width="100%" height="100%" viewBox="0 0 340 206" version="1.1" xmlns="http://www.w3.org/2000/svg" xmlns:xlink="http://www.w3.org/1999/xlink" xml:space="preserve" xmlns:serif="http://www.serif.com/" style="fill-rule:evenodd;clip-rule:evenodd;stroke-linejoin:round;stroke-miterlimit:2;"><rect id="Artboard1" x="0" y="0" width="339.361" height="205.79" style="fill:none;"/><g opacity="0.2"><path d="M88.227,81.799c1.506,-3.899 4.676,-5.563 7.226,-6.911c1.081,-0.571 2.102,-1.105 2.855,-1.737c1.299,-1.105 4.615,-3.814 7.834,-5.733c0.608,0.632 1.276,1.203 1.822,1.336c1.227,0.304 39.523,5.053 41.15,5.259l0.049,0c0.073,0 0.133,-0.012 0.194,-0.048c1.166,-0.595 28.628,-14.599 30.511,-15.948c1.87,-1.336 17.222,-13.008 17.38,-13.129c0.122,-0.085 0.183,-0.231 0.17,-0.389l-0.631,-6.571c0.012,-0.134 0.012,-0.279 -0.012,-0.425c-0.11,-0.51 -0.511,-0.911 -1.033,-0.996l-31.482,-5.854l-14.368,-23.077c-0.328,-0.523 -0.984,-0.741 -1.567,-0.523l-58.568,23.029c-0.219,0.085 -0.389,0.243 -0.534,0.425c-3.037,3.717 -5.442,8.174 -5.466,8.223c-0.085,0.145 -0.061,0.34 0.036,0.473l20.588,26.053c0.097,0.146 0.57,0.802 1.178,1.506c-3.073,1.847 -6.17,4.349 -7.798,5.733c-0.668,0.571 -1.615,1.069 -2.696,1.628c-2.685,1.409 -6.012,3.158 -7.64,7.36c-1.397,3.632 -6.547,7.737 -11.976,11.15l1.494,0.012c5.174,-3.376 9.923,-7.324 11.284,-10.846Zm103.981,-43.3c-5.162,3.547 -16.555,11.368 -19.191,12.996c-3.182,1.968 -23.976,12.389 -26.891,13.858c-7.724,-0.838 -27.012,-3.072 -29.514,-3.898c-0.935,-0.316 -2.138,-1.154 -3.377,-2.211c6.486,-3.765 31.045,-18.024 32.867,-19.166c3,-1.883 15.328,-6.17 17.454,-6.899l28.652,5.32Zm-43.944,-28.64l13.251,21.28c-3.874,1.348 -13.895,4.931 -16.773,6.728c-1.834,1.154 -28.373,16.567 -33.474,19.519c-1.47,-1.458 -2.806,-2.976 -3.595,-3.996c-1.118,-1.458 -12.098,-16.822 -15.438,-21.498l56.029,-22.033Zm-43.203,54.887l-20.417,-25.858c0.485,-0.887 2.271,-3.984 4.506,-6.899c0.012,0.012 0.012,0.036 0.024,0.048c0.619,0.863 15.109,21.171 16.458,22.932c0.643,0.838 2.429,2.951 4.518,4.943c0.012,0.012 0.025,0.024 0.037,0.037c1.834,1.736 3.899,3.376 5.611,3.947c3.267,1.093 27.656,3.765 30.426,4.057c0.048,-0 0.097,0.012 0.145,0.012c0.207,-0 0.401,-0.049 0.583,-0.134c0.972,-0.486 23.928,-11.976 27.426,-14.138c3.328,-2.052 19.518,-13.214 21.644,-14.684l0.522,5.356c-1.786,1.361 -15.425,11.721 -17.174,12.972c-1.774,1.263 -28.288,14.806 -30.292,15.826c-13.822,-1.712 -39.984,-4.992 -40.92,-5.222c-0.327,-0.086 -0.777,-0.462 -1.263,-0.948c1.543,-0.85 3.025,-1.482 4.203,-1.603c0.23,-0.024 0.413,-0.231 0.388,-0.474c-0.024,-0.231 -0.23,-0.401 -0.473,-0.388c-1.348,0.145 -3.012,0.85 -4.713,1.809c-0.462,-0.546 -0.911,-1.117 -1.239,-1.591Z" style="fill:#fff;fill-rule:nonzero;"/><path d="M131.928,53.001l-4.943,2.733c-0.62,0.34 -0.851,1.129 -0.511,1.749c0.231,0.425 0.681,0.668 1.13,0.668c0.206,-0 0.425,-0.049 0.619,-0.158l4.944,-2.733c0.619,-0.34 0.85,-1.129 0.51,-1.749c-0.34,-0.619 -1.13,-0.85 -1.749,-0.51Z" style="fill:#fff;fill-rule:nonzero;"/><path d="M138.001,51.896c0.218,-0 0.437,-0.061 0.644,-0.171l3.838,-2.222c0.619,-0.352 0.826,-1.142 0.473,-1.761c-0.352,-0.62 -1.153,-0.826 -1.761,-0.474l-3.838,2.223c-0.619,0.352 -0.826,1.141 -0.474,1.761c0.243,0.413 0.668,0.644 1.118,0.644Z" style="fill:#fff;fill-rule:nonzero;"/><path d="M148.094,46.345c0.219,0 0.437,-0.048 0.632,-0.17l3.741,-2.125c0.619,-0.353 0.838,-1.142 0.486,-1.762c-0.353,-0.619 -1.142,-0.838 -1.762,-0.485l-3.741,2.125c-0.619,0.352 -0.838,1.142 -0.485,1.761c0.243,0.413 0.68,0.656 1.129,0.656Z" style="fill:#fff;fill-rule:nonzero;"/><path d="M157.799,41.499c0.206,0 0.425,-0.048 0.619,-0.158l4.64,-2.526c0.631,-0.34 0.862,-1.13 0.522,-1.749c-0.34,-0.632 -1.129,-0.862 -1.749,-0.522l-4.64,2.526c-0.631,0.34 -0.862,1.13 -0.522,1.749c0.219,0.425 0.668,0.68 1.13,0.68Z" style="fill:#fff;fill-rule:nonzero;"/><path d="M138.463,54.398l-3.96,2.417c-0.607,0.364 -0.802,1.166 -0.425,1.773c0.243,0.401 0.668,0.62 1.105,0.62c0.231,-0 0.462,-0.061 0.668,-0.195l3.96,-2.417c0.607,-0.364 0.801,-1.166 0.425,-1.773c-0.377,-0.607 -1.166,-0.802 -1.773,-0.425Z" style="fill:#fff;fill-rule:nonzero;"/><path d="M147.645,48.993l-3.571,2.125c-0.608,0.365 -0.814,1.154 -0.45,1.774c0.243,0.4 0.668,0.631 1.118,0.631c0.218,0 0.449,-0.06 0.656,-0.182l3.571,-2.125c0.607,-0.365 0.813,-1.154 0.449,-1.774c-0.377,-0.619 -1.166,-0.814 -1.773,-0.449Z" style="fill:#fff;fill-rule:nonzero;"/><path d="M152.722,48.592c0.231,0.425 0.68,0.68 1.129,0.68c0.207,0 0.426,-0.048 0.62,-0.158l4.64,-2.526c0.631,-0.34 0.862,-1.129 0.522,-1.749c-0.34,-0.631 -1.13,-0.862 -1.749,-0.522l-4.64,2.526c-0.631,0.34 -0.862,1.13 -0.522,1.749Z" style="fill:#fff;fill-rule:nonzero;"/><path d="M162.827,42.847c0.231,0.425 0.68,0.656 1.13,0.656c0.218,0 0.425,-0.049 0.631,-0.17l4.336,-2.429c0.62,-0.352 0.851,-1.13 0.498,-1.761c-0.352,-0.632 -1.129,-0.851 -1.761,-0.498l-4.336,2.429c-0.619,0.364 -0.85,1.154 -0.498,1.773Z" style="fill:#fff;fill-rule:nonzero;"/><path d="M145.823,56.171l-3.972,2.526c-0.607,0.389 -0.777,1.179 -0.401,1.786c0.243,0.389 0.668,0.595 1.093,0.595c0.243,-0 0.474,-0.061 0.693,-0.206l3.971,-2.527c0.608,-0.389 0.778,-1.178 0.401,-1.785c-0.389,-0.583 -1.19,-0.765 -1.785,-0.389Z" style="fill:#fff;fill-rule:nonzero;"/><path d="M153.632,51.798l-2.927,1.616c-0.619,0.34 -0.85,1.129 -0.51,1.749c0.231,0.425 0.68,0.668 1.13,0.668c0.206,-0 0.425,-0.049 0.619,-0.158l2.927,-1.615c0.62,-0.34 0.851,-1.13 0.51,-1.749c-0.34,-0.632 -1.129,-0.863 -1.749,-0.511Z" style="fill:#fff;fill-rule:nonzero;"/><path d="M165.572,45.543l-3.984,1.871c-0.644,0.303 -0.923,1.069 -0.619,1.712c0.218,0.474 0.68,0.741 1.166,0.741c0.182,0 0.364,-0.036 0.546,-0.121l3.984,-1.871c0.644,-0.303 0.923,-1.068 0.619,-1.712c-0.291,-0.644 -1.056,-0.923 -1.712,-0.62Z" style="fill:#fff;fill-rule:nonzero;"/><path d="M171.827,44.621c0.231,-0 0.474,-0.061 0.68,-0.195l2.429,-1.518c0.608,-0.377 0.79,-1.178 0.413,-1.773c-0.376,-0.608 -1.178,-0.79 -1.773,-0.413l-2.429,1.518c-0.607,0.377 -0.79,1.178 -0.413,1.773c0.243,0.389 0.668,0.608 1.093,0.608Z" style="fill:#fff;fill-rule:nonzero;"/><path d="M301.379,131.453l-33.68,-14.878c-0.219,-0.097 -0.462,-0 -0.559,0.218l-0.364,0.802c-1.871,-0.668 -10.446,-2.964 -13.021,0.656c-0.073,0.097 -0.121,0.206 -0.194,0.303l-3.948,-1.967c-0.097,-0.049 -0.218,-0.061 -0.328,-0.024c-0.072,0.024 -0.133,0.097 -0.182,0.157l-10.214,-4.651c-0.656,-0.292 -1.409,-0.013 -1.713,0.643c-0.291,0.644 -0.012,1.421 0.644,1.713l10.214,4.652c0.037,0.109 0.11,0.206 0.219,0.267l4.13,2.053c-0.28,1.287 -0.268,2.635 0.073,3.898c0.57,2.114 2.307,5.09 7.311,7.434l-0.255,0.534c-0.097,0.207 -0.012,0.462 0.195,0.559l11.538,6c-0.194,0.461 -0.522,1.239 -0.692,1.931l-0.061,0.255c-0.291,1.093 -0.887,3.316 1.603,4.713c-0.911,2.004 -2.441,5.332 -3.109,6.388c-1.324,2.102 -2.502,2.296 -2.551,2.296l-2.708,0.607c-0.085,0.012 -0.158,0.061 -0.219,0.122c-0.146,0.146 -3.522,3.668 -1.822,5.757c1.458,1.797 11.332,6.704 14.005,6.704c0.121,-0 0.218,-0.012 0.303,-0.024c2.284,-0.498 10.069,-18.34 10.13,-18.522c0.182,-0.51 0.316,-1.045 0.449,-1.506c0.219,-0.838 0.462,-1.725 0.753,-1.652c0.316,0.06 1.142,0.425 1.931,0.777c2.247,0.996 3.766,1.628 4.458,1.312c0.96,-0.437 4.3,-3.875 6.182,-7.227c1.859,-3.291 1.737,-9.632 1.725,-9.911c0.012,-0.17 -0.097,-0.316 -0.243,-0.389Zm-51.729,-12.388c0.17,-0.122 0.316,-0.292 0.413,-0.498c0.109,-0.255 0.121,-0.523 0.073,-0.778l2.988,1.494c-0.207,0.401 -0.377,0.814 -0.523,1.239l-2.951,-1.457Zm3.631,6c-0.57,-2.126 -0.133,-4.482 1.166,-6.316c2.09,-2.94 10.021,-1.081 11.964,-0.377l-6.279,13.567c-3.741,-1.749 -6.11,-4.117 -6.851,-6.874Zm18.037,17.162l0.073,-0.267c0.146,-0.596 0.437,-1.312 0.619,-1.737l2.077,1.081l-1.287,3.85c-0,0.012 -0.134,0.304 -0.34,0.765c-1.822,-1.081 -1.433,-2.636 -1.142,-3.692Zm4.494,25.494c-1.555,0.328 -12.012,-4.603 -13.458,-6.377c-0.971,-1.202 0.814,-3.595 1.689,-4.53l2.417,-0.547l12.583,6.547c-1.433,2.672 -2.697,4.737 -3.231,4.907Zm24.717,-31.434l-6.535,-3.036c-0.218,-0.097 -0.473,-0 -0.571,0.206c-0.097,0.219 -0.012,0.474 0.207,0.571l6.777,3.146c-0.133,0.85 -0.315,1.7 -0.558,2.49l-6.863,-3.134c-0.218,-0.097 -0.473,-0 -0.571,0.207c-0.097,0.218 -0,0.474 0.207,0.571l6.935,3.158c-0.121,0.303 -0.255,0.583 -0.401,0.85c-0.267,0.461 -0.558,0.935 -0.862,1.384l-6.741,-2.854c-0.219,-0.097 -0.474,0.012 -0.559,0.231c-0.097,0.219 0.012,0.474 0.231,0.559l6.571,2.781c-0.413,0.571 -0.85,1.13 -1.287,1.652l-6.025,-2.551c-0.218,-0.097 -0.473,0.012 -0.559,0.231c-0.097,0.219 0.013,0.474 0.231,0.559l5.782,2.441c-1.154,1.3 -2.174,2.247 -2.551,2.417c-0.461,0.158 -2.672,-0.838 -3.753,-1.312c-0.959,-0.425 -1.713,-0.753 -2.113,-0.838c-1.118,-0.206 -1.446,1.045 -1.762,2.272c-0.121,0.473 -0.255,0.959 -0.413,1.433c-0.412,1.129 -3.327,7.469 -5.866,12.316l-11.903,-6.195c0.583,-0.352 1.36,-1.008 2.174,-2.307c0.741,-1.166 2.429,-4.883 3.316,-6.851l-0,-0.012c0.304,-0.692 0.522,-1.166 0.559,-1.239l1.409,-4.239c0.073,-0.206 -0.025,-0.425 -0.207,-0.522l-2.818,-1.47l-11.514,-5.987l7.263,-15.717l33.037,14.599c-0.024,0.668 -0.049,2.344 -0.267,4.19Z" style="fill:#fff;fill-rule:nonzero;"/><path d="M166.627,116.392l14.004,5.855c0.048,0.024 0.109,0.036 0.17,0.036c0.061,-0 0.133,-0.012 0.194,-0.049l12.389,-6.097c0.146,-0.073 0.243,-0.218 0.243,-0.388c-0,-0.171 -0.097,-0.316 -0.243,-0.389c-0.462,-0.219 -11.247,-5.381 -14.041,-6.194c-3.024,-0.911 -11.805,5.732 -12.789,6.485c-0.122,0.098 -0.182,0.243 -0.17,0.401c-0,0.146 0.097,0.28 0.243,0.34Zm12.449,-6.401c2.296,0.681 10.506,4.531 13.118,5.77l-6.413,3.158l-14.004,-5.855c2.854,-1.809 5.987,-3.461 7.299,-3.073Zm-8.186,3.632l13.858,5.794l-3.971,1.955l-13.13,-5.49c0.862,-0.631 2.004,-1.445 3.243,-2.259Z" style="fill:#fff;fill-rule:nonzero;"/><path d="M167.939,164.296c-4.835,2.465 -7.677,3.388 -10.422,4.275c-0.716,0.231 -1.433,0.462 -2.174,0.717c-6.814,2.344 -23.198,2.538 -35.818,-0.948c-15.826,-4.372 -23.053,-13.834 -24.426,-20.599c-0.546,-2.672 0.17,-7.057 1.968,-12.025c0.243,-0.668 -0.109,-1.409 -0.777,-1.651c-0.668,-0.243 -1.409,0.109 -1.652,0.777c-0.863,2.393 -2.089,6.364 -2.271,9.996c-0.438,3.498 -0.341,7.348 0.303,10.518c1.555,7.604 9.097,17.345 25.653,21.924c6.838,1.894 14.781,2.72 21.789,2.72c6.231,-0 11.733,-0.656 15.049,-1.797c0.729,-0.255 1.421,-0.474 2.138,-0.705c2.818,-0.911 5.72,-1.846 10.676,-4.384c0.206,-0.11 0.291,-0.365 0.182,-0.584c-0.109,-0.206 -0.364,-0.291 -0.583,-0.182c-4.895,2.502 -7.773,3.438 -10.555,4.336c-0.716,0.231 -1.421,0.462 -2.149,0.717c-6.936,2.393 -23.551,2.599 -36.329,-0.935c-10.117,-2.794 -22.761,-10.045 -25.045,-21.268c-0.34,-1.639 -0.51,-3.486 -0.546,-5.356c2.259,7.567 10.056,16.628 25.871,21c6.899,1.907 14.915,2.745 22.008,2.745c6.352,-0 11.952,-0.668 15.34,-1.834c0.717,-0.243 1.421,-0.474 2.126,-0.704c2.842,-0.923 5.793,-1.871 10.797,-4.434c0.632,-0.327 0.887,-1.105 0.559,-1.736c-0.304,-0.656 -1.081,-0.911 -1.712,-0.583Z" style="fill:#fff;fill-rule:nonzero;"/><path d="M211.044,41.938c-8.065,4.907 -15.692,9.534 -11.526,19.397c0.971,2.296 4.907,5.66 9.073,9.207c4.141,3.534 8.417,7.178 9.644,9.704l-6.681,2.332l-0.012,0c-0.073,0.024 -0.121,0.073 -0.17,0.121c-0.012,0.013 -0.024,0.025 -0.024,0.037c-0.037,0.049 -0.049,0.097 -0.061,0.158c-0,0.012 -0.012,0.024 -0.012,0.036l-0,0.025c-0,0.012 -0.012,0.024 -0.012,0.036l-0,1.166c-1.846,0.789 -7.191,2.915 -19.13,6.79c-0.583,0.194 -0.911,0.753 -0.862,1.336l-1.033,-0.268c-0.716,-0.182 -1.469,-0.182 -2.186,0.025l-32.478,9.219c-0.049,0.012 -0.073,0.036 -0.109,0.061c-3.863,-1.968 -7.543,-3.863 -9.851,-5.065c-2.502,-1.3 -4.153,-2.15 -4.579,-2.344c-5.222,-2.442 -12.668,-0.45 -17.903,2.247c-4.882,2.514 -8.83,7.858 -9.06,8.186c-2.964,3.644 -4.081,6.024 -5.903,11.259c-0.049,0.134 -0.085,0.267 -0.134,0.389c-15.353,-7.118 -32.284,-15.51 -42.268,-20.94c-8.259,-4.494 -37.069,-18.462 -37.361,-18.608c-0.157,-0.073 -0.34,-0.048 -0.473,0.061l-7.689,6.729c-0.012,0.012 -0.012,0.012 -0.012,0.024c-0.036,0.037 -0.06,0.073 -0.085,0.122c-0.012,0.012 -0.012,0.024 -0.024,0.036c-0.024,0.061 -0.036,0.122 -0.024,0.182l1.226,11.09c0.013,0.134 0.098,0.231 0.207,0.304c0.036,0.06 0.097,0.121 0.17,0.157c0.291,0.146 29.077,14.102 37.324,18.584c10.178,5.538 32.515,17.016 48.329,24.352l-0.291,0.462c-0.098,0.145 -0.086,0.34 0.012,0.485c0.109,0.146 0.291,0.207 0.461,0.158l2.029,-0.534c0.048,0.413 0.109,0.826 0.17,1.239l-1.033,3.316c-0.048,0.17 0.012,0.364 0.158,0.473c0.146,0.11 0.352,0.11 0.498,0.012l1.13,-0.765c0.085,0.243 0.17,0.474 0.267,0.717l-0.486,3.158c-0.024,0.182 0.061,0.364 0.231,0.449c0.17,0.085 0.364,0.049 0.498,-0.085l1.044,-1.057l0.061,0.098c0.024,0.036 0.049,0.085 0.073,0.121l-0.352,4.13c-0.012,0.194 0.097,0.364 0.267,0.437c0.17,0.073 0.376,0.012 0.498,-0.134l1.36,-1.712c0.049,0.073 0.11,0.146 0.158,0.231l-0,3.898c-0,0.195 0.122,0.353 0.304,0.413c0.17,0.049 0.376,-0.012 0.486,-0.182l1.105,-1.676c0.121,0.134 0.243,0.267 0.364,0.389l0.717,3.777c0.036,0.194 0.194,0.328 0.389,0.352c0.194,0.025 0.376,-0.097 0.437,-0.279l0.716,-1.87c0.122,0.085 0.243,0.169 0.365,0.255l1.445,3.607c0.073,0.17 0.243,0.291 0.413,0.267c0.182,-0 0.34,-0.121 0.401,-0.291l0.668,-2.029c0.061,0.025 0.121,0.049 0.182,0.073l1.518,3.498c0.073,0.17 0.219,0.304 0.413,0.255c0.182,-0.012 0.328,-0.133 0.389,-0.303l0.789,-2.478c0.11,0.024 0.231,0.048 0.341,0.061l2.623,3.267c0.085,0.097 0.206,0.158 0.34,0.158c0.037,-0 0.073,-0 0.109,-0.013c0.17,-0.048 0.292,-0.182 0.316,-0.352l0.486,-3.146c0.085,-0.012 0.17,-0.024 0.255,-0.036l2.611,2.514c0.122,0.122 0.304,0.146 0.462,0.085c0.158,-0.073 0.267,-0.218 0.267,-0.401l-0,-3.194c0.158,-0.061 0.316,-0.121 0.462,-0.182l3.231,2.016c0.145,0.085 0.328,0.085 0.473,-0.012c0.146,-0.097 0.207,-0.267 0.17,-0.437l-0.656,-3.085c0.037,-0.025 0.085,-0.037 0.122,-0.061c0.012,-0 0.012,-0.012 0.024,-0.012l3.51,2.04c0.146,0.085 0.328,0.073 0.474,-0.024c0.134,-0.097 0.206,-0.279 0.17,-0.437l-0.911,-4.057c2.296,0.996 4.773,2.077 7.312,3.182c8.344,3.644 17.806,7.761 23.296,10.045c25.032,10.421 100.871,37.871 104.721,39.267l0.012,0.085c0.025,0.146 0.122,0.28 0.256,0.341c0.048,0.024 0.109,0.036 0.17,0.036c0.085,-0 0.182,-0.024 0.255,-0.085l7.409,-5.381c0.121,-0.085 0.194,-0.23 0.17,-0.388l-1.215,-12.924c-0,-0.012 -0,-0.012 -0.012,-0.012l-0,-0.024c-0.012,-0.036 -0.037,-0.073 -0.049,-0.109c-0.012,-0.025 -0.024,-0.061 -0.036,-0.085c-0.037,-0.037 -0.073,-0.061 -0.109,-0.085c-0.025,-0.012 -0.037,-0.037 -0.061,-0.049l-0.012,-0c-0.717,-0.255 -64.75,-23.417 -95.989,-35.745c0.121,-0.122 0.231,-0.267 0.291,-0.45c2.211,-6.109 0.353,-11.781 -1.834,-15.376l14.053,-8.296c0.085,-0.048 2.199,-1.154 3.437,-2.162c2.332,-1.895 3.486,-4.275 3.268,-6.692c-0.122,-1.251 -0.656,-2.867 -2.199,-4.628c11.065,-4.433 15.778,-14.308 15.814,-14.405c0.097,-0.218 0.012,-0.473 -0.206,-0.571c-0.219,-0.097 -0.474,-0 -0.571,0.207c-0.049,0.097 -4.688,9.862 -15.668,14.101c-1.033,-1.02 -2.405,-2.065 -4.239,-3.121l6.146,-2.867c0.109,-0.048 0.194,-0.145 0.23,-0.255c0.037,-0.097 0.486,-1.469 0.608,-3.073c0.182,0.097 0.4,0.17 0.607,0.17c0.17,-0 0.34,-0.036 0.51,-0.109l14.247,-6.146l2.624,1.822c0.073,0.049 0.158,0.073 0.243,0.073c0.048,-0 0.097,-0.012 0.158,-0.024l9.728,-3.729c0.158,-0.061 0.28,-0.219 0.28,-0.401l0.097,-6.596c-0,-0.012 -0.012,-0.024 -0.012,-0.048c0.012,-0.474 -0.207,-0.911 -0.62,-1.166l-10.105,-6.45c-0.644,-0.412 -1.421,-0.498 -2.138,-0.242l-1.882,0.655c-1.276,-2.72 -5.648,-6.449 -9.899,-10.081c-3.911,-3.328 -7.944,-6.777 -8.83,-8.89c-3.875,-9.183 3.097,-13.422 11.186,-18.329c5.429,-3.303 11.041,-6.704 13.518,-11.988c3.511,-7.506 8.782,-13.846 13.531,-18.595c-0.413,0.012 -0.826,0.024 -1.239,0.037c-4.628,4.737 -9.668,10.907 -13.081,18.206c-2.393,5.053 -7.895,8.405 -13.215,11.636Zm1.506,44.466l0.911,0.571l-14.223,5.38c-0.546,0.207 -0.85,0.754 -0.813,1.313c-0.037,-0.012 -0.061,-0.025 -0.098,-0.025l-1.87,-0l-2.381,-0.62c11.782,-3.85 16.822,-5.89 18.474,-6.619Zm-24.267,6.449c0.571,-0.157 1.166,-0.17 1.725,-0.012l4.882,1.276l-32.502,10.676c-1.858,-0.923 -3.85,-1.931 -5.83,-2.927l31.725,-9.013Zm-160.01,-15.534c2.891,1.409 29.235,14.198 37.069,18.462c10.02,5.454 27.025,13.883 42.414,21.012c-1.275,4.191 -1.495,7.956 -1.507,8.138c-0.012,0.292 0.073,0.559 0.219,0.79c-16.676,-7.762 -38.053,-18.341 -48.413,-23.976c-7.604,-4.142 -32.624,-16.301 -36.778,-18.317l6.996,-6.109Zm80.09,60.73l1.033,-1.64c0.012,0.449 0.048,0.899 0.085,1.348l-1.118,0.292Zm1.045,-4.968l-0.753,-0c0.279,-0.534 0.558,-1.069 0.838,-1.555c-0.037,0.51 -0.061,1.033 -0.085,1.555Zm0.243,-3.462c-0.79,1.154 -1.737,3 -2.077,3.693c-0.061,0.133 -0.061,0.291 0.024,0.413c0.073,0.121 0.219,0.206 0.364,0.206l1.421,-0c-0.012,0.292 -0.012,0.595 -0.012,0.899l-1.567,2.49c-15.802,-7.324 -38.187,-18.838 -48.377,-24.377c-8.065,-4.385 -35.66,-17.781 -37.276,-18.559l-1.117,-10.13c4.445,2.162 29.089,14.151 36.62,18.244c11.113,6.048 34.931,17.793 52.009,25.64c0.048,0.024 0.085,0.024 0.133,0.024c-0.048,0.474 -0.097,0.959 -0.145,1.457Zm0.243,12.644l0.206,-0.656c0.036,0.146 0.085,0.292 0.121,0.438l-0.327,0.218Zm-0.984,-18.121c0.158,-1.494 0.595,-4.616 1.676,-7.725c1.749,-5.016 2.745,-7.118 5.502,-10.518c0.012,-0.013 0.012,-0.025 0.012,-0.037c0.012,-0.012 0.024,-0.012 0.024,-0.024c0.037,-0.049 3.79,-5.162 8.162,-7.421c4.47,-2.296 11.247,-4.251 15.62,-2.199c0.376,0.183 2.198,1.118 4.494,2.308c25.786,13.324 26.356,13.118 27.231,12.838c0.51,-0.17 1.178,-0.534 2.016,-1.008c1.36,-0.753 3.401,-1.883 4.64,-1.955c2.016,0.024 16.992,7.141 18.401,8.732c0.024,0.292 -0.705,1.154 -1.579,1.737c-1.701,0.79 -13.166,6.085 -15.049,7.385c-0.838,0.571 -3.061,-0.158 -4.372,-0.862c-1.81,-0.851 -44.43,-20.843 -48.584,-22.592c-0.061,-0.024 -0.121,-0.024 -0.17,-0.036c-0.085,-0.024 -0.182,-0.049 -0.267,-0.049c-0.085,-0 -0.158,0.012 -0.231,0.025c-0.085,0.012 -0.17,0.024 -0.243,0.048c-0.085,0.025 -0.158,0.073 -0.243,0.122c-0.048,0.036 -0.109,0.048 -0.158,0.085c-0.17,0.133 -4.081,3.376 -6.643,7.19c-2.393,3.547 -5.284,11.466 -6.037,15.62l-4.202,-1.664Zm46.628,-5.332c4.737,2.21 9.17,4.287 12.571,5.878l-3.158,1.045c-0.96,-0.085 -4.579,-0.425 -9.365,-1.154c0.122,-0.753 0.195,-1.397 0.182,-1.883c-0,-0.352 0.013,-0.595 0.037,-0.838c0.061,-0.789 0.061,-1.482 -0.267,-3.048Zm-0.948,10.093l1.178,0.449l-1.579,0.935c0.146,-0.461 0.28,-0.935 0.401,-1.384Zm-22.615,-9.34c-0.049,0.012 -0.097,0.024 -0.158,0.036c-2.575,0.729 -4.008,4.008 -4.215,6.838l-11.951,-0.182c0.68,-3.814 3.437,-11.369 5.635,-14.624c1.798,-2.66 4.397,-5.101 5.551,-6.121c3.413,1.518 14.915,6.862 25.786,11.939c-0,0.11 -0.013,0.219 0.012,0.328c0.085,0.304 0.146,0.583 0.206,0.838l-13.749,7.263c-0.121,-1.87 -0.559,-3.825 -1.907,-4.943c-2.174,-1.81 -5.089,-1.397 -5.21,-1.372Zm4.591,8.927l-0.012,0.692c-0,1.324 -0.814,2.83 -2.612,3.024c-1.7,0.195 -3.17,-1.931 -3.668,-4.02c-0.51,-2.125 0.741,-5.575 2.174,-6.085c0.365,-0.036 1.98,-0.121 3.11,0.802c1.069,0.899 1.02,4.069 1.008,5.587Zm-25.251,17.101l0.085,-0.571c0.06,0.098 0.121,0.207 0.17,0.304l-0.255,0.267Zm1.481,3.498l0.134,-1.591c0.17,0.267 0.34,0.522 0.51,0.777l-0.644,0.814Zm2.162,2.624l-0,-1.263c0.146,0.194 0.304,0.388 0.45,0.57l-0.45,0.693Zm2.685,2.526l-0.207,-1.081c0.146,0.134 0.304,0.267 0.474,0.389l-0.267,0.692Zm3.145,2.308l-0.583,-1.458c0.292,0.158 0.595,0.316 0.923,0.462l-0.34,0.996Zm3.158,1.542l-0.728,-1.676c0.145,0.049 0.279,0.097 0.425,0.158c0.243,0.085 0.485,0.146 0.728,0.207l-0.425,1.311Zm4.288,0.899l-1.494,-1.858c0.17,0.012 0.328,0.024 0.498,0.024c0.437,-0 0.862,-0.024 1.299,-0.073l-0.303,1.907Zm3.923,-0.887l-1.47,-1.421c0.498,-0.133 0.996,-0.267 1.47,-0.437l-0,1.858Zm2.283,-2.781c0.51,-0.231 1.008,-0.474 1.47,-0.704l0.401,1.87l-1.871,-1.166Zm1.203,-3.461c-3,1.53 -7.106,3.643 -11.187,2.259c-5.417,-1.822 -6.911,-4.179 -10.202,-9.328l-0.207,-0.316c-2.842,-4.458 -2.162,-11.502 -1.688,-16.191l1.081,0.426c0.146,0.06 0.304,0.084 0.462,0.084l13.907,0.207c0.765,2.891 2.878,5.781 5.89,5.781c0.17,-0 0.34,-0.012 0.511,-0.024c3.23,-0.34 4.931,-3.073 4.931,-5.587l-0,-0.656c0.012,-0.522 0.012,-1.105 -0,-1.712l13.895,-7.349c0.255,1.251 0.23,1.689 0.194,2.199c-0.024,0.303 -0.049,0.631 -0.037,1.081c0.025,1.506 -1.129,6.097 -2.635,10.469c-0.146,0.401 -0.049,0.826 0.182,1.142c-1.895,-0.838 -3.607,-1.591 -5.028,-2.21c-0.037,-0.013 -0.085,-0.025 -0.134,-0.025l-0.024,-0c-0.11,-0 -0.207,0.037 -0.292,0.097l-0.012,-0l-0.012,0.013l-7.664,6.704c-0.109,0.097 -0.158,0.231 -0.146,0.377l1.458,11.332c-0.231,-0.061 -0.474,-0.073 -0.717,0.012c-0.717,0.291 -1.555,0.717 -2.526,1.215Zm17.781,-19.069l1.433,0.607l-1.773,0.425c0.109,-0.34 0.231,-0.68 0.34,-1.032Zm-15.656,20.89c0.486,-0.243 0.911,-0.437 1.263,-0.558c0.17,-0.061 0.316,-0.146 0.438,-0.268l0.461,2.09l-2.162,-1.264Zm33.256,10.409c-5.49,-2.283 -14.94,-6.4 -23.284,-10.044c-2.794,-1.215 -5.502,-2.393 -7.98,-3.474l-1.275,-9.899c7.093,3.037 25.688,10.859 30.85,13.008c24.863,10.349 99.815,37.495 104.625,39.232l1.324,10.275c-7.191,-2.599 -79.872,-28.956 -104.26,-39.098Zm111.778,34.507l-6.62,4.81l-1.372,-10.64l5.587,-4.895l1.288,-1.13l1.117,11.855Zm-1.603,-12.571l-6.948,6.073c-4.822,-1.749 -79.749,-28.883 -104.6,-39.219c-5.283,-2.199 -24.607,-10.324 -31.312,-13.203l-0.024,-0.231l7.312,-6.388c3.668,1.591 9.218,4.069 14.587,6.473c6.619,2.964 13.47,6.037 16.798,7.422c24.291,10.105 96.365,36.243 104.187,39.073Zm-97.143,-37.628c-0.048,0.146 -0.073,0.304 -0.073,0.461c-0.874,-0.352 -1.724,-0.68 -2.526,-1.008c0.146,-0.121 0.267,-0.267 0.352,-0.449c0.292,-0.644 0.012,-1.421 -0.644,-1.713l-22.579,-10.299c-0.656,-0.292 -1.421,-0.012 -1.712,0.643c-0.17,0.365 -0.134,0.753 0.024,1.094c-1.664,-0.741 -3.304,-1.47 -4.846,-2.162l4.263,-1.021c0.182,-0.048 0.316,-0.194 0.328,-0.388c0.012,-0.195 -0.085,-0.365 -0.255,-0.438l-2.697,-1.141c0.049,-0.158 0.098,-0.304 0.146,-0.462l3.146,-1.87c0.146,-0.085 0.219,-0.243 0.206,-0.401c-0.012,-0.158 -0.121,-0.304 -0.279,-0.364l-2.101,-0.802l-0,-0.012l1.53,-0.486c0.122,-0.037 0.207,-0.122 0.255,-0.219c4.944,0.717 8.357,0.984 8.405,0.984l0.097,-0c0.134,-0 0.28,-0.024 0.401,-0.061l4.239,-1.409c0.462,-0.157 0.765,-0.546 0.85,-1.008c0.644,0.304 1.227,0.571 1.725,0.814c0.097,0.109 0.219,0.207 0.352,0.28c0.049,0.024 4.434,2.234 7.992,5.927c2.648,2.72 5.721,9.109 3.401,15.51Zm20.478,-31.579c0.194,2.125 -0.85,4.239 -2.951,5.951c-1.166,0.948 -3.268,2.053 -3.316,2.077l-14.089,8.32c-0.559,-0.838 -1.13,-1.542 -1.64,-2.077c-0.765,-0.789 -1.555,-1.518 -2.332,-2.174c0.461,-0.097 0.911,-0.267 1.312,-0.534c1.311,-0.899 9.546,-4.81 14.757,-7.203c0.048,-0.024 0.109,-0.049 0.158,-0.085c0.401,-0.255 2.417,-1.628 2.781,-3.389c0.146,-0.716 0.012,-1.421 -0.389,-2.016c-0.546,-0.826 -3.473,-2.563 -6.959,-4.348l5.514,-2.563c0.024,0.012 0.037,0.037 0.061,0.049c4.384,2.392 6.838,5.15 7.093,7.992Zm-0.607,-12.049l-13.045,6.073c-5.089,-2.539 -11.004,-5.028 -12.644,-5.028l-0.085,-0c-1.834,0.109 -4.008,1.311 -5.745,2.283c-0.498,0.279 -1.008,0.559 -1.336,0.717c-1.008,-0.304 -3.959,-1.689 -7.579,-3.474l32.988,-10.834l1.749,-0c0.644,0.34 4.458,2.429 5.685,4.348c1.141,1.773 0.255,5.113 0.012,5.915Zm1.482,-4.931c-0.073,0.024 -0.122,0.085 -0.183,0.121c-0.109,-0.571 -0.279,-1.105 -0.583,-1.567c-0.073,-0.109 -0.145,-0.218 -0.23,-0.328c0.012,-0.012 0.036,0.001 0.048,-0.012c0.535,-0.23 10.276,-4.129 15,-6.012l0.073,1.688l-14.125,6.11Zm14.234,-10.616c-0.072,0.012 -0.145,0.036 -0.206,0.061c-0.619,0.242 -15.267,6.085 -15.996,6.413c-0.328,0.146 -0.559,0.401 -0.68,0.717c-0.802,-0.656 -1.676,-1.239 -2.429,-1.701l16.494,-6.243c0.461,-0.17 0.777,-0.595 0.826,-1.081l-0,-0.024l2.647,1.724l-0.656,0.134Zm3.523,7.519l-1.591,-1.106c0.376,-0.243 0.619,-0.668 0.595,-1.129l-0.195,-4.252c-0,-0.036 -0.024,-0.06 -0.024,-0.097l1.616,1.057l-0.401,5.527Zm9.68,-3.244l-8.83,3.377l0.401,-5.587l8.465,-2.867c0.013,0 0.025,-0.012 0.037,-0.024l-0.073,5.101Zm-11.636,-13.385c0.462,-0.157 0.972,-0.097 1.397,0.158l10.105,6.45c0.17,0.109 0.255,0.279 0.231,0.473l-0,0.013c-0.024,0.194 -0.146,0.352 -0.34,0.413l-8.538,2.89l-11.405,-7.409l8.55,-2.988Z" style="fill:#fff;fill-rule:nonzero;"/><path d="M335.899,23.405c-0,-0 -0,-0.012 -0,-0c-0.097,-0.097 -0.194,-0.17 -0.315,-0.231c-0.158,-0.085 -0.328,-0.121 -0.498,-0.134l-51.815,-20.842c-0.012,-0.012 -0.024,-0.012 -0.024,-0.024c-0.061,-0.049 -0.134,-0.085 -0.206,-0.122c-0.085,-0.048 -0.158,-0.085 -0.243,-0.109c-0.073,-0.024 -0.146,-0.024 -0.231,-0.036c-0.073,-0.013 -0.134,-0.037 -0.207,-0.025c-0.024,0 -0.036,0.013 -0.06,0.013c-0.085,0.012 -0.158,0.036 -0.243,0.06c-0.085,0.025 -0.17,0.049 -0.243,0.085c-0.012,0.012 -0.037,0.012 -0.049,0.025l-41.551,24.971c-0,0 -0,0.013 -0.012,0.013c-0.109,0.06 -0.182,0.157 -0.267,0.242c-0.037,0.037 -0.073,0.061 -0.097,0.098c-0.037,0.06 -0.061,0.121 -0.085,0.182c-0.049,0.085 -0.097,0.17 -0.122,0.267c-0.012,0.036 -0,0.061 -0,0.097c-0.024,0.134 -0.036,0.267 -0.012,0.413l-0,0.012c0.316,1.919 1.713,20.988 2.405,30.766l1.615,31.312c0.025,0.474 0.316,0.911 0.753,1.105c14.697,6.778 37.033,17.163 38.321,18.013c1.263,0.984 8.344,1.482 14.064,1.737l0.122,-0c0.024,-0 0.049,-0.012 0.073,-0.025c0.121,-0.012 0.243,-0.048 0.352,-0.085c0.049,-0.024 0.085,-0.036 0.134,-0.06c0.036,-0.025 0.073,-0.025 0.109,-0.049l39.511,-27.329c0.352,-0.242 0.57,-0.655 0.558,-1.093l-1.348,-58.361c-0.012,-0.352 -0.158,-0.655 -0.389,-0.886Zm-1.105,48.717l-34.518,-13.045l33.692,-22.676l0.826,35.721Zm-37.47,-14.162l-1.931,-0.729l-0.267,-5.296l4.226,-2.574l34.41,-22.689l0.158,6.656l-36.596,24.632Zm-16.737,-2.721c0.243,0 0.425,-0.194 0.425,-0.425l-0,-14.441l6.304,2.587l0.291,19.214l-9.583,-3.862l-0.279,-19.263l2.393,0.984l-0,14.793c0.024,0.219 0.218,0.413 0.449,0.413Zm8.745,25.834c-0.048,0.013 -0.121,0.037 -0.219,0.073c-0.51,0.195 -1.894,0.693 -3.643,0.608c-0.219,-0.013 -1.956,-0.353 -3.523,-0.681c-0.473,-0.23 -2.963,-1.469 -3.461,-1.627c-0.425,-0.158 -2.429,-2.089 -2.587,-2.575c-0.037,-0.097 -0.097,-0.17 -0.17,-0.219c0.182,-0.109 0.352,-0.206 0.534,-0.316c0.826,1.045 4.458,2.952 5.454,3.171l0.388,0.085c1.579,0.34 3.17,0.68 3.705,0.704l0.243,0c1.761,0 3.886,-0.571 3.911,-0.583c1.239,-0.364 2.696,-1.008 3.935,-1.615l0.061,1.299c-1.652,0.656 -3.401,1.324 -4.628,1.676Zm4.664,-0.765l0.061,1.239c-1.105,0.583 -2.016,1.057 -2.381,1.202c-2.623,1.081 -4.093,1.288 -5.502,1.252c-1.445,-0.037 -7.47,-2.041 -8.903,-3.098c-1.178,-0.874 -1.822,-2.623 -2.101,-3.546c0.474,0.886 2.453,2.745 3.049,2.939c0.34,0.109 2.259,1.045 3.388,1.603c0.037,0.012 0.073,0.025 0.098,0.037c0.546,0.121 3.303,0.692 3.716,0.716c0.146,0.012 0.292,0.012 0.437,0.012c1.725,0 3.037,-0.485 3.547,-0.668c0.073,-0.024 0.134,-0.048 0.17,-0.06c1.19,-0.389 2.842,-1.008 4.421,-1.628Zm-4.287,-1.421c-0.025,0 -2.211,0.607 -3.887,0.535c-0.51,-0.013 -2.563,-0.462 -3.547,-0.681l-0.388,-0.085c-0.875,-0.194 -4.179,-1.967 -4.907,-2.793c0.328,-0.219 0.668,-0.437 0.996,-0.668c1.166,0.911 4.542,2.38 5.538,2.453c0.547,0.037 1.883,0.073 3.11,0.073c0.935,0 1.809,-0.024 2.186,-0.085c1.737,-0.267 3.571,-0.51 5.016,-0.704l0.012,0.206c-1.287,0.668 -2.842,1.373 -4.129,1.749Zm-1.045,-2.089c-0.765,0.121 -4.093,0.073 -5.101,-0c-0.765,-0.061 -3.717,-1.336 -4.871,-2.113c0.28,-0.207 0.559,-0.413 0.826,-0.608c0.62,0.365 1.822,0.826 3.049,1.263c0.194,0.073 0.34,0.122 0.413,0.146c0.474,0.195 3.947,0.389 3.984,0.389c3.206,-0 6,-0.692 6.753,-0.899l0.061,1.118c-1.47,0.182 -3.341,0.437 -5.114,0.704Zm-1.688,-4.518c0.619,-0 2.198,-0.365 2.769,-0.51c0.34,0.267 0.595,0.51 0.753,0.765c0.049,0.073 0.146,0.17 0.267,0.279c-0.984,0.207 -3.376,0.583 -5.927,-0.085c-0.595,-0.158 -1.627,-0.522 -2.344,-0.935c0.328,-0.243 0.644,-0.474 0.947,-0.68c0.814,0.631 2.964,1.166 3.535,1.166Zm-2.757,-1.676c1.056,-0.632 1.943,-0.948 2.514,-0.632c0.814,0.449 1.47,0.814 2.004,1.142c-0.68,0.146 -1.445,0.303 -1.773,0.303c-0.523,0 -2.053,-0.449 -2.745,-0.813Zm0.388,2.951c1.179,0.304 2.32,0.413 3.316,0.413c2.016,0 3.474,-0.425 3.559,-0.449c0.036,-0.013 0.073,-0.037 0.109,-0.061c0.353,0.255 0.765,0.534 1.227,0.838c-1.166,0.267 -3.413,0.704 -5.842,0.704c-0.34,-0.012 -3.328,-0.218 -3.668,-0.328c-0.073,-0.024 -0.231,-0.085 -0.438,-0.157c-0.607,-0.219 -1.858,-0.668 -2.587,-1.021c0.195,-0.145 0.401,-0.303 0.583,-0.449c0.304,-0.231 0.596,-0.462 0.887,-0.692c0.85,0.57 2.211,1.032 2.854,1.202Zm6.608,-1.494c-0.547,-0.85 -1.567,-1.457 -3.753,-2.66c0.206,-0.073 0.401,-0.17 0.546,-0.328l5.114,-5.538l0.534,10.299c-1.348,-0.886 -2.283,-1.554 -2.441,-1.773Zm-4.13,-5.793c-0.68,-0.778 -1.348,-1.579 -1.968,-2.32l3.001,1.214l-1.033,1.106Zm-6.559,-4.191c0.972,1.676 3.79,4.944 5.551,6.935c-1.506,0.086 -3.425,1.543 -5.733,3.341c-1.797,1.384 -3.826,2.963 -5.939,4.068c-0.17,0.085 -0.255,0.28 -0.219,0.462c0.024,0.134 0.68,3.279 2.587,4.688c1.543,1.142 7.81,3.231 9.401,3.268l0.292,-0c1.421,-0 2.975,-0.256 5.55,-1.312c0.34,-0.134 1.13,-0.547 2.102,-1.057l0.801,15.487l-47.806,-20.187l28.822,-17.636c0.097,0.085 0.219,0.158 0.353,0.219l4.238,1.724Zm12.596,-11.951c-0.049,0.036 -0.085,0.085 -0.134,0.121c-0.073,0.061 -0.146,0.109 -0.194,0.182c-0.049,0.061 -0.085,0.134 -0.122,0.207c-0.036,0.073 -0.073,0.146 -0.097,0.218c-0.024,0.085 -0.036,0.17 -0.036,0.268c-0,0.06 -0.025,0.109 -0.025,0.17l0.438,8.38l-2.733,1.944l-0.267,-17.6l7.919,3.243l-4.749,2.867Zm40.773,-26.636l-16.506,10.883l-32.709,-13.288l-0.947,-17.782l50.162,20.187Zm-52.02,-6.717l0.17,3.231l-3.231,-1.312l3.061,-1.919Zm-0.62,-11.393l0.45,8.442l-5.855,3.668l-8.806,-3.583l14.211,-8.527Zm-16.968,10.191l50.491,20.514l-4.215,2.781l-49.919,-21.109l3.643,-2.186Zm43.689,25.008l-7.518,4.956l-11.357,-4.64l-0.012,-0l-12.158,-4.968l-17.053,-6.972l-0.631,-8.963l48.729,20.587Zm-65.721,-11.769l14.405,-8.66l0.643,8.988l-14.259,8.951c-0.316,-4.057 -0.607,-7.591 -0.789,-9.279Zm2.332,30.146c-0.049,-0.656 -0.693,-9.753 -1.324,-17.952l15.51,-9.741l16.385,6.705l0.279,19.445l-29.988,18.34l-0.862,-16.797Zm39.692,48.547c-1.202,-0.923 -28.579,-13.591 -38.113,-17.988l-0.34,-6.559l35.49,15.778l0.061,4.797c-0,0.171 0.109,0.328 0.267,0.389l6.801,2.891c0.049,0.024 0.11,0.036 0.171,0.036c0.085,-0 0.17,-0.024 0.242,-0.073c0.122,-0.085 0.195,-0.218 0.195,-0.364l-0,-5.368c-0,-0.183 -0.11,-0.34 -0.28,-0.401l-6.862,-2.599c-0.024,-0.013 -0.049,-0 -0.061,-0.013l-36.049,-16.033l-0.097,-2.004l49.373,20.843l0.401,7.798c-5.028,-0.255 -10.397,-0.753 -11.199,-1.13Zm-2.101,-8.441l6,2.271l-0,4.433l-5.939,-2.526l-0.061,-4.178Zm14.223,-22.3c0.049,-0.025 0.109,-0.061 0.146,-0.085c0.546,0.34 1.081,0.668 1.579,0.971c-0.292,0.122 -0.875,0.377 -1.64,0.705l-0.085,-1.591Zm0.121,2.502c1.191,-0.498 2.053,-0.875 2.15,-0.923c0.11,-0.049 0.182,-0.134 0.219,-0.231c0.243,0.146 0.486,0.291 0.692,0.425c-0.68,0.376 -1.809,0.996 -3.012,1.64l-0.049,-0.911Zm0.948,18.34l-0.85,-16.458c1.992,-1.081 3.886,-2.125 4.032,-2.198c0.134,-0.073 0.219,-0.219 0.219,-0.365c-0,-0.157 -0.073,-0.303 -0.207,-0.376c-1.275,-0.765 -2.599,-1.579 -3.838,-2.344c-0.012,-0.012 -0.036,-0.025 -0.049,-0.025c-0.157,-0.097 -0.303,-0.194 -0.449,-0.279l-0.692,-13.336l2.004,-1.348l34.555,13.057l-34.725,23.672Zm0.522,10.021l-0.364,-6.996l37.239,-25.41l0.158,6.79l-37.033,25.616Z" style="fill:#fff;fill-rule:nonzero;"/><path d="M57.847,22.385c-0.073,-0.304 -0.231,-0.559 -0.425,-0.777c-0.024,-0.025 -0.049,-0.049 -0.073,-0.086c-0.036,-0.036 -0.061,-0.06 -0.097,-0.097c-1.166,-1.093 -5.903,-3.85 -6.79,-4.336c-1.032,-0.558 -2.235,-0.716 -3.376,-0.449l-41.77,9.874c-1.202,0.365 -2.016,1.057 -2.441,2.065c-0.644,1.518 -0.195,3.401 0.449,4.652c0.316,0.619 0.51,1.105 0.62,1.579l4.749,19.737c0.036,0.134 0.121,0.243 0.255,0.292l8.696,3.595l0.024,-0c0.219,0.109 0.486,0.17 0.778,0.17c0.061,-0 0.121,-0 0.194,-0.012c0.474,-0.049 6.595,-1.494 21.11,-4.992c8.441,-2.041 13.445,-3.972 16.129,-5.004c0.559,-0.219 1.021,-0.389 1.373,-0.523c3.085,-1.093 4.652,-2.866 4.409,-4.979c-0.255,-2.223 -2.599,-15.997 -3.814,-20.709Zm-52.312,4.967l41.745,-9.862c0.935,-0.219 1.919,-0.097 2.769,0.364c1.591,0.863 3.838,2.247 5.296,3.219c-8.101,1.798 -42.195,10.907 -42.851,11.174c-0.121,0.049 -0.206,0.146 -0.291,0.219l-8.308,-3.923c0.34,-0.559 0.899,-0.972 1.64,-1.191Zm3.947,26.782l-4.7,-19.518c-0.134,-0.535 -0.353,-1.106 -0.693,-1.774c-0.473,-0.923 -0.862,-2.344 -0.558,-3.522l8.15,3.85c-0.426,1.324 0.267,3.523 0.461,4.106l4.458,19.81l-7.118,-2.952Zm47.503,-6.862c-0.365,0.133 -0.826,0.303 -1.397,0.534c-2.672,1.032 -7.64,2.952 -16.033,4.98c-5.55,1.336 -20.308,4.907 -20.988,4.98c-0.753,0.06 -1.044,-0.571 -1.056,-0.571l-4.519,-20.114c0,-0.012 -0.012,-0.036 -0.012,-0.048c-0.498,-1.433 -0.899,-3.693 -0.182,-3.984c0.899,-0.316 35.66,-9.595 42.996,-11.199c0.073,-0.012 0.146,-0.024 0.219,-0.024c0.461,0 0.874,0.304 0.996,0.777c1.215,4.701 3.547,18.389 3.814,20.612c0.243,2.15 -1.956,3.389 -3.838,4.057Z" style="fill:#fff;fill-rule:nonzero;"/><path d="M37.345,33.826c-2.72,0.486 -4.555,1.506 -5.465,3.036c-0.426,0.729 -0.62,1.579 -0.62,2.503c0,0.036 -0.012,0.085 -0.024,0.121c-0.012,0.073 0.012,0.146 0.036,0.206c0.037,0.656 0.146,1.349 0.389,2.065c0.644,1.895 3.182,2.66 5.794,2.66c1.287,0 2.587,-0.194 3.68,-0.522c0.558,-0.17 1.02,-0.462 1.421,-0.826c0.061,-0.036 0.109,-0.085 0.133,-0.146c0.231,-0.243 0.438,-0.51 0.596,-0.814c0.959,-1.846 0.558,-4.396 0.206,-5.489c-0.51,-1.616 -3.51,-3.268 -6.146,-2.794Zm0.146,0.85c0.559,-0.097 1.142,-0.085 1.713,0.025c0.4,0.583 0.959,2.441 0.206,3.194c-0.583,0.583 -1.324,0.911 -1.785,1.081c-0.231,-1.033 -0.96,-2.114 -2.296,-2.539c-0.692,-0.23 -1.287,-0.255 -1.785,-0.158c0.898,-0.765 2.222,-1.299 3.947,-1.603Zm-5.004,6.814c-0.255,-0.729 -0.364,-1.409 -0.377,-2.028c0.073,-0.51 0.316,-1.312 0.656,-1.81c0.304,-0.449 1.069,-0.79 2.284,-0.401c1.153,0.377 1.712,1.409 1.773,2.271c-0.049,0.341 -0.243,2.004 0.959,3.073c0.535,0.474 1.081,0.717 1.677,0.826c-2.976,0.474 -6.353,-0.146 -6.972,-1.931Zm10.044,0.231c-0.121,0.231 -0.267,0.425 -0.437,0.607c-1.797,0.389 -2.781,0.462 -3.741,-0.389c-0.704,-0.619 -0.728,-1.615 -0.704,-2.076c0.51,-0.158 1.542,-0.559 2.356,-1.361c0.863,-0.862 0.705,-2.405 0.304,-3.486c1.202,0.462 2.162,1.227 2.368,1.871c0.352,1.081 0.62,3.364 -0.146,4.834Z" style="fill:#fff;fill-rule:nonzero;"/><path d="M8.887,41.793c-0.048,-0.23 -0.291,-0.376 -0.51,-0.315c-0.23,0.048 -0.376,0.279 -0.315,0.51l2.283,9.826c0.049,0.194 0.219,0.328 0.413,0.328c0.036,-0 0.061,-0 0.097,-0.012c0.231,-0.049 0.377,-0.28 0.316,-0.511l-2.284,-9.826Z" style="fill:#fff;fill-rule:nonzero;"/><path d="M37.114,29.866c-3.145,0.061 -6.085,2.09 -7.494,3.073c-2.587,1.798 -3.741,8.527 -1.336,12.207c1.737,2.66 5.284,3.219 8.417,3.219c1.336,-0 2.612,-0.098 3.632,-0.183c3.024,-0.243 5.49,-2.623 6.802,-4.773c1.117,-1.834 1.02,-7.069 -0.183,-9.668c-1.481,-3.207 -7.056,-3.947 -9.838,-3.875Zm7.822,12.195c-0.935,1.53 -2.745,3.376 -4.907,3.546c-2.575,0.207 -7.931,0.632 -9.583,-1.882c-1.724,-2.636 -0.619,-7.798 0.644,-8.672c1.202,-0.826 3.704,-2.563 6.073,-2.612l0.279,0c2.927,0 6.498,0.948 7.166,2.381c0.972,2.101 0.838,6.401 0.328,7.239Z" style="fill:#fff;fill-rule:nonzero;"/><path d="M56.05,27.534c-0.11,-0.072 -0.231,-0.085 -0.353,-0.048l-6.741,1.882c-0.218,0.061 -0.352,0.292 -0.303,0.523c0.401,1.615 0.984,3.376 0.996,3.388c0.06,0.183 0.218,0.292 0.413,0.292l0.024,-0c0.583,-0.037 3.534,-0.219 4.178,-0.486c0.607,-0.255 2.284,-1.02 2.284,-1.02c0.17,-0.085 0.279,-0.267 0.242,-0.45l-0.558,-3.789c-0.012,-0.122 -0.085,-0.231 -0.182,-0.292Zm-2.126,4.762c-0.34,0.145 -2.186,0.315 -3.571,0.4c-0.158,-0.51 -0.486,-1.554 -0.765,-2.611l5.866,-1.64l0.438,2.976c-0.498,0.231 -1.519,0.68 -1.968,0.875Z" style="fill:#fff;fill-rule:nonzero;"/><path d="M14.802,30.085c0.389,0.085 0.729,0.121 1.057,0.121c0.437,0 0.862,-0.072 1.397,-0.23c1.068,-0.304 1.919,-0.899 2.332,-1.628c0.255,-0.461 0.328,-0.935 0.194,-1.385c-0.425,-1.481 -1.494,-2.174 -2.915,-1.919l-0.364,0.061c-1.604,0.28 -3.256,0.583 -3.656,1.543c-0.049,0.121 -0.085,0.267 -0.122,0.413c-0.243,1.372 0.68,2.72 2.077,3.024Zm-1.227,-2.854c0.013,-0.097 0.037,-0.182 0.073,-0.243c0.219,-0.522 1.907,-0.826 3.012,-1.02l0.365,-0.061c0.146,-0.024 0.279,-0.037 0.401,-0.037c0.753,0 1.275,0.45 1.53,1.349c0.085,0.279 -0.024,0.546 -0.121,0.728c-0.292,0.535 -0.972,0.996 -1.822,1.227c-0.814,0.231 -1.276,0.255 -2.041,0.085c-0.935,-0.219 -1.567,-1.129 -1.397,-2.028Z" style="fill:#fff;fill-rule:nonzero;"/><path d="M21.531,25.846c0.037,0 0.073,-0 0.11,-0.012l2.781,-0.765c0.231,-0.061 0.364,-0.304 0.304,-0.535c-0.061,-0.231 -0.292,-0.364 -0.535,-0.303l-2.781,0.765c-0.231,0.061 -0.365,0.303 -0.304,0.534c0.061,0.195 0.231,0.316 0.425,0.316Z" style="fill:#fff;fill-rule:nonzero;"/><path d="M22.223,27.413c0.061,0.182 0.231,0.303 0.413,0.303c0.037,0 0.085,0 0.122,-0.024l3.133,-0.96c0.231,-0.072 0.352,-0.315 0.292,-0.534c-0.073,-0.231 -0.316,-0.352 -0.535,-0.291l-3.133,0.959c-0.231,0.073 -0.352,0.316 -0.292,0.547Z" style="fill:#fff;fill-rule:nonzero;"/><path d="M38.608,22.907c0.037,-0 0.073,-0 0.11,-0.013l2.842,-0.765c0.23,-0.061 0.364,-0.303 0.303,-0.522c-0.06,-0.231 -0.291,-0.364 -0.522,-0.304l-2.842,0.765c-0.231,0.061 -0.365,0.304 -0.304,0.523c0.049,0.194 0.231,0.316 0.413,0.316Z" style="fill:#fff;fill-rule:nonzero;"/></g></svg>