<svg width="272" height="216" viewBox="0 0 272 216" fill="none" xmlns="http://www.w3.org/2000/svg">
<path d="M286.757 128.682C286.476 120.245 286.032 119.04 279.163 116.772C275.798 115.661 270.167 113.794 261.031 108.95C259.956 108.383 258.624 108.69 257.9 109.659C256.241 111.88 255.423 112.258 255.447 112.329C255.05 112.093 254.255 110.864 253.718 110.061C252.152 107.674 250.003 104.389 245.984 103.822C242.526 103.326 238.647 104.956 233.88 108.926C230.235 108.005 224.604 108.241 220.866 109.422C220.398 108.265 219.884 106.516 219.51 105.216C218.132 100.537 216.73 95.6694 213.295 94.2988C212.968 94.1806 212.641 94.1098 212.291 94.1098C201.846 94.4642 201.683 93.377 200.374 86.3587C200.024 84.4446 199.58 82.0581 198.855 79.3405C198.739 78.9388 198.552 78.5843 198.271 78.2771C189.579 68.8484 177.523 75.8668 171.775 79.4587C164.158 79.1515 158.55 80.2383 154.695 82.7432C151.891 78.7732 147.077 71.9439 142.918 66.0835L206.94 1.42966C207.267 1.09883 207.267 0.578955 206.94 0.248124C206.613 -0.0827079 206.099 -0.0827079 205.772 0.248124L141.96 64.7129C138.315 59.5614 135.441 55.4968 135.371 55.4023C135.091 55.0242 134.577 54.9297 134.226 55.2133C133.852 55.4732 133.759 55.9932 134.039 56.3713C134.11 56.4895 137.077 60.672 140.792 65.918L112.123 94.8422C108.781 93.8734 104.973 93.1644 101.001 92.55C101.842 89.6434 102.519 87.4222 102.73 86.9024C103.641 84.7992 109.646 51.4325 109.926 46.8008C109.95 46.3282 109.599 45.9502 109.155 45.9029C108.641 45.8084 108.314 46.2337 108.267 46.6827C107.94 51.716 101.912 84.6101 101.211 86.217C100.954 86.8078 100.229 89.2181 99.3416 92.2901C96.8882 91.9357 94.3648 91.6284 91.888 91.2976C84.7148 90.3996 77.9154 89.5489 73.7563 87.9893C73.3591 87.8475 72.9152 87.8002 72.4946 87.8711C65.742 88.9818 61.3025 91.6047 59.2931 95.6928C58.1015 98.1032 57.8678 100.774 58.2416 103.586C50.7647 101.223 37.3529 97.0872 35.3668 96.4728C34.9229 96.3311 34.4555 96.5909 34.3386 97.0398C34.1984 97.4888 34.4556 97.9379 34.8995 98.0797C42.54 100.443 52.9377 103.657 58.5921 105.453C59.3866 109.068 61.0688 112.873 62.9848 116.63C61.3025 119.56 58.2416 122.301 55.0171 125.161C48.6617 130.808 41.5119 137.165 44.2924 146.854C38.007 152.171 35.7639 158.976 38.3108 165.404C40.6473 171.288 46.5354 175.4 53.4984 176.439C52.3535 177.668 48.0776 181.898 43.5214 186.412C36.3715 193.501 28.2403 201.535 27.2589 202.859C25.5766 205.104 9.59456 222.992 0.248352 232.208C-0.0787658 232.539 -0.0787886 233.059 0.224963 233.39C0.388522 233.555 0.598812 233.65 0.809102 233.65C1.01939 233.65 1.22968 233.579 1.39324 233.413C10.7862 224.127 26.8617 206.12 28.5674 203.875C29.4787 202.67 37.9136 194.328 44.6663 187.617C50.6946 181.638 54.433 177.952 55.0171 177.219C55.1106 177.101 55.2976 176.912 55.5312 176.652C57.0733 176.747 58.6623 176.699 60.2511 176.487C60.5315 176.439 60.8119 176.369 61.0455 176.227C64.0597 174.667 68.4523 176.983 72.6815 179.252C76.2564 181.166 79.5977 182.961 82.8689 182.891C83.5699 182.867 84.2474 182.56 84.7148 182.016C86.0933 180.41 91.4207 179.181 94.9489 178.354C97.4257 177.786 99.5753 177.29 101.001 176.652C101.445 176.463 101.818 176.132 102.075 175.707C104.552 171.761 109.365 168.759 114.015 168.239C116.445 167.98 119.88 168.24 122.52 170.863C126.305 175.423 130.137 175.494 132.497 175.494C133.081 175.494 133.829 175.494 133.923 175.494C134.039 175.66 134.624 176.723 134.273 182.158C134.25 182.631 134.343 183.127 134.577 183.529C136.002 186.104 137.755 187.593 139.156 188.775C140.979 190.287 141.984 191.161 142.03 193.879C134.67 196.927 126.399 200.33 124.646 200.968C123.431 201.393 119.436 202.929 114.646 204.749C106.188 207.963 95.6732 211.98 92.7992 212.925C92.3553 213.067 92.1217 213.54 92.2619 213.989C92.3787 214.343 92.7058 214.556 93.0563 214.556C93.1497 214.556 93.2199 214.532 93.3133 214.509C96.2107 213.54 106.748 209.523 115.207 206.309C119.997 204.489 123.969 202.977 125.161 202.551C126.89 201.937 134.6 198.747 141.984 195.699C142.03 196.242 142.194 196.762 142.568 197.164C143.876 198.629 145.605 199.858 147.451 201.181C148.222 201.724 148.97 202.268 149.694 202.835C149.461 202.788 149.274 202.764 149.063 202.764C148.97 202.741 148.877 202.764 148.806 202.764C148.035 202.835 147.147 203 146.189 203.142C143.759 203.544 140.044 204.182 138.923 203.024C138.152 202.221 136.937 202.055 135.955 202.599C134.974 203.142 134.483 204.277 134.74 205.364C136.025 210.94 132.077 218.455 127.497 222.496C127.1 222.85 126.819 223.323 126.703 223.866C125.628 228.9 127.474 231.286 129.179 232.397C133.339 235.115 140.605 232.35 144.414 229.916C144.717 229.987 144.998 230.081 145.325 230.152C148.035 230.885 153.69 232.444 155.372 226.726C155.512 226.253 155.512 225.757 155.372 225.308C155.068 224.221 154.975 223.654 154.952 223.394C155.209 223.252 155.629 223.039 156.003 222.874C156.681 222.543 157.498 222.165 158.41 221.622C158.597 221.527 158.76 221.385 158.9 221.244C160.699 219.495 162.101 216.73 163.573 213.823C165.256 210.491 167.382 206.356 169.485 205.765C169.742 205.694 170.49 205.482 171.938 206.403C172.336 206.64 172.78 206.781 173.223 206.781C173.247 206.781 173.247 206.781 173.27 206.781C174.555 206.781 175.84 206.214 177.172 205.434C176.705 207.136 176.705 208.814 177.546 210.255C179.766 213.989 185.56 213.256 191.706 212.453C193.972 212.169 197.5 211.72 199.136 211.933C191.285 218.195 188.878 221.362 189.649 224.244C190.444 227.175 193.738 227.6 197.243 228.049C200.351 228.451 204.206 228.947 205.351 230.956C206.332 232.657 205.445 235.635 204.533 237.809C204.136 238.754 204.346 239.817 205.071 240.55C207.314 242.818 209.931 244 212.758 244C213.272 244 213.809 243.953 214.347 243.882C219.627 243.078 223.856 238.612 226.076 234.737C226.847 234.335 227.805 233.933 228.787 233.532C231.193 232.539 233.857 231.452 235.726 229.42C236.521 229.538 237.619 229.869 238.553 230.152C241.544 231.05 245.259 232.161 248.227 229.987C248.601 229.703 248.881 229.349 249.068 228.9C249.278 228.356 250.236 227.033 251.077 225.852C253.951 221.834 257.199 217.273 255.961 213.469C255.563 212.287 254.582 210.728 252.105 209.972C251.895 209.901 251.685 209.877 251.475 209.853C248.203 209.688 244.699 211.342 241.217 212.925C239.348 213.776 237.268 214.698 235.703 215.1C233.016 210.657 228.132 209.735 224.114 209.003C222.618 208.719 221.216 208.459 220.001 208.081C223.062 206.569 225.749 204.277 228.366 202.055C231.1 199.739 233.693 197.542 236.591 196.218C236.871 196.1 237.128 195.911 237.338 195.699C239.745 193.241 239.909 193.241 241.965 193.288C242.899 193.312 244.068 193.336 245.68 193.194C246.498 193.123 247.245 192.65 247.643 191.918C249.185 189.176 250.82 188.656 253.788 187.735C255.564 187.191 257.573 186.554 259.91 185.325C259.98 185.277 260.05 185.254 260.12 185.207C270.447 178.354 271.429 175.069 271.686 171.17C271.849 168.783 272.036 166.065 287.761 156.779C288.626 156.259 289.116 155.266 288.976 154.274C287.201 141.253 286.92 133.384 286.757 128.682ZM177.546 125.302C176.425 123.79 174.976 121.687 174.976 120.222C174.976 118.568 176.354 117.859 176.915 117.859C177.359 117.859 177.967 118.189 178.434 118.662C178.925 119.182 179.182 119.82 179.158 120.411C179.112 121.427 178.224 123.696 177.546 125.302ZM136.329 144.632C135.558 143.805 134.53 143.309 133.619 143.309C133.619 143.309 133.619 143.309 133.595 143.309C132.427 143.309 130.838 144.278 130.254 146.003C126.516 143.663 113.454 135.511 111.889 134.353C110.837 133.573 105.72 128.823 101.585 124.972C98.4771 122.065 95.7901 119.56 94.9489 118.875C94.7153 118.686 94.4348 118.686 94.1544 118.78C94.4114 118.166 94.7386 117.386 95.0424 116.583C95.0891 116.606 95.1125 116.63 95.1592 116.63C96.4209 116.961 105.627 117.055 118.478 117.173C124.062 117.221 128.899 117.268 130.067 117.339C133.198 117.528 165.022 122.585 165.349 122.632L174.252 124.097C174.298 124.097 174.345 124.097 174.392 124.097C174.485 124.097 174.579 124.026 174.672 124.003C175.139 124.783 175.677 125.539 176.167 126.224C176.004 126.224 175.864 126.248 175.723 126.342C175.56 126.437 158.83 137.07 156.307 138.228C153.69 139.433 139.928 147.35 137.217 149.098C137.357 148.555 137.474 148.012 137.497 147.61C137.568 146.57 137.147 145.507 136.329 144.632ZM134.25 152.454C133.128 150.942 131.679 148.839 131.679 147.373C131.679 145.719 133.058 145.01 133.619 145.01C134.063 145.01 134.67 145.341 135.138 145.814C135.628 146.334 135.885 146.972 135.862 147.562C135.815 148.602 134.927 150.847 134.25 152.454ZM94.318 113.133C94.2713 114.172 93.3834 116.441 92.7058 118.024C91.5843 116.512 90.1356 114.408 90.1356 112.943C90.1356 111.289 91.5141 110.58 92.0749 110.58C92.5188 110.58 93.1263 110.911 93.5937 111.384C94.0843 111.904 94.3414 112.542 94.318 113.133ZM93.0329 142.246C93.1965 141.348 93.2666 137.449 93.3834 131.116C93.4768 126.484 93.5469 121.734 93.6871 119.867C93.6871 119.844 93.7105 119.82 93.7105 119.82C93.7572 119.938 93.7806 120.08 93.8975 120.175C94.6919 120.836 97.4957 123.459 100.463 126.224C104.832 130.288 109.763 134.896 110.908 135.724C112.66 137 127.52 146.287 130.044 147.87C130.161 148.791 130.558 149.784 131.072 150.753C129.296 150.516 113.408 148.484 110.323 148.271C108.805 148.177 105.043 148.13 101.071 148.106C97.4022 148.083 93.617 148.035 91.631 147.941C92.0749 146.405 92.8226 143.498 93.0329 142.246ZM173.831 122.349L165.63 121.002C164.321 120.789 133.409 115.874 130.184 115.685C128.969 115.614 124.366 115.566 118.525 115.519C109.856 115.448 96.7714 115.33 95.6031 115.023C95.7667 114.48 95.8601 114.007 95.9302 113.558L109.903 99.4502C112.473 100.136 114.74 100.939 116.422 101.955C117.356 102.522 118.571 102.38 119.366 101.648C121.632 99.5211 132.053 98.4104 135.885 100.419C136.61 100.797 137.474 100.774 138.198 100.395C140.909 98.9067 147.054 99.403 150.442 100.325C151.236 100.537 152.101 100.348 152.708 99.8047C153.339 99.2612 153.643 98.4342 153.55 97.6071C153.059 93.4481 153.737 90.4234 155.676 88.3202C155.816 88.1548 156.003 88.0365 156.167 87.8947C159.601 93.5661 173.036 117.41 173.177 117.67C173.34 117.953 173.597 118.095 173.901 118.095C173.901 118.095 173.901 118.095 173.924 118.095C173.574 118.686 173.34 119.371 173.34 120.222C173.34 120.883 173.527 121.616 173.831 122.349ZM141.727 67.3123C145.839 73.1019 150.582 79.813 153.339 83.7357C152.895 84.1138 152.452 84.492 152.078 84.8937C149.741 87.4222 148.549 90.7306 148.479 94.8187C145.138 94.3224 140.488 94.086 137.007 95.4565C131.96 93.6606 122.38 94.086 117.543 96.8744C116.445 96.3309 115.207 95.8584 113.922 95.433L141.727 67.3123ZM108.034 98.9776L95.6499 111.478C95.6499 111.455 95.6265 111.431 95.6265 111.431C95.6966 111.337 95.7666 111.266 95.8134 111.171C96.6545 108.099 98.1966 102.499 99.6453 97.4416C102.543 97.867 105.417 98.3632 108.034 98.9776ZM63.7559 97.9615C64.9709 95.5039 67.9617 93.8261 72.6815 92.9518C77.3546 94.5587 84.1306 95.4094 91.2571 96.3074C93.4535 96.591 95.6966 96.8746 97.9397 97.1818C96.4676 102.381 94.9722 107.839 94.4114 109.871C93.6871 109.257 92.846 108.879 92.0749 108.879C92.0749 108.879 92.0749 108.879 92.0515 108.879C90.6028 108.879 88.5 110.32 88.4766 112.92C88.4766 113.062 88.5 113.227 88.5234 113.369C88.4533 113.109 88.2663 112.873 87.9859 112.778C79.1771 110.131 66.2093 106.185 63.6858 105.358C62.9381 102.57 62.7746 99.9702 63.7559 97.9615ZM42.9138 163.537C41.068 158.858 43.1709 153.848 48.6852 149.784C49.5964 149.099 49.9468 147.894 49.5262 146.806C46.7691 139.883 50.9983 135.44 58.3117 128.941C62.1436 125.539 66.1158 121.994 68.0552 117.67C68.3823 116.961 68.3589 116.134 67.985 115.448C66.5831 112.778 65.2513 109.99 64.3167 107.319C69.5506 108.973 85.4391 113.77 87.542 114.409C87.6121 114.432 87.7056 114.432 87.7757 114.432C88.1261 114.432 88.4532 114.196 88.5701 113.841C88.5934 113.771 88.5935 113.723 88.5935 113.652C88.9206 115.732 90.6496 118.048 91.8646 119.631L92.0983 119.938C91.9581 121.947 91.8647 126.579 91.7946 131.092C91.7011 135.795 91.6076 141.135 91.4674 141.962C91.3038 142.837 90.8833 144.561 90.5095 146.026C90.4394 145.932 90.3926 145.861 90.3225 145.767C89.5514 144.94 88.5233 144.443 87.6121 144.443C86.2569 144.443 84.3176 145.743 84.0839 148.059C80.1585 151.485 75.7658 155.219 75.205 155.526L75.2517 155.644C73.1254 157.038 63.9896 166.018 58.3585 171.619C50.5077 172.162 44.713 168.098 42.9138 163.537ZM89.7851 148.65C89.7384 149.689 88.8505 151.958 88.1729 153.541C87.0514 152.029 85.6027 149.926 85.6027 148.461C85.6027 146.806 86.9812 146.098 87.542 146.098C87.9859 146.098 88.6168 146.428 89.0608 146.901C89.5514 147.421 89.8085 148.059 89.7851 148.65ZM142.311 184.923C141.189 184.001 140.138 183.103 139.25 181.709C139.53 176.368 139.04 173.722 137.521 172.091C136.049 170.508 134.109 170.532 132.591 170.508C130.675 170.508 128.689 170.508 126.165 167.507C122.894 164.222 118.408 162.733 113.478 163.277C107.59 163.939 101.748 167.46 98.3602 172.328C97.2854 172.706 95.6031 173.084 93.8507 173.486C89.5281 174.478 84.6914 175.612 81.9577 177.81C80.0417 177.479 77.4948 176.132 75.0414 174.809C70.7188 172.517 65.9522 169.965 61.3492 170.886C67.2373 165.12 75.1349 157.511 75.8826 156.991C76.5836 156.613 78.4294 155.124 84.2708 150.044C84.855 151.863 86.2803 153.778 87.3083 155.148L87.7056 155.692C87.8692 155.904 88.1028 156.023 88.3598 156.023C88.3832 156.023 88.4065 156.023 88.4532 156.023C88.7336 155.999 88.9906 155.81 89.1308 155.55C89.3411 155.125 90.8832 151.745 91.3505 149.595C93.3132 149.689 97.2855 149.737 101.141 149.76C105.09 149.808 108.828 149.831 110.3 149.926C113.454 150.115 130.955 152.383 131.119 152.407C131.165 152.407 131.189 152.407 131.212 152.407C131.516 152.407 131.75 152.218 131.89 151.958C132.404 152.714 132.918 153.423 133.385 154.037L133.782 154.581C133.946 154.794 134.18 154.912 134.437 154.912C134.46 154.912 134.483 154.912 134.53 154.912C134.811 154.888 135.068 154.699 135.208 154.439C135.278 154.321 135.441 153.919 135.698 153.376C135.745 153.47 135.768 153.589 135.885 153.659C137.054 154.51 152.825 166.444 155.372 168.618C157.872 170.744 166.144 178.141 166.214 178.212C166.377 178.353 166.564 178.424 166.751 178.424C166.985 178.424 167.219 178.33 167.382 178.141C167.686 177.786 167.662 177.267 167.312 176.959C167.218 176.888 158.947 169.468 156.424 167.342C153.853 165.144 138.012 153.163 136.843 152.312C136.656 152.171 136.423 152.123 136.212 152.171C136.423 151.651 136.633 151.107 136.843 150.564C137.007 150.753 137.217 150.871 137.451 150.871C137.614 150.871 137.778 150.824 137.918 150.729C139.741 149.453 154.367 141.04 157.054 139.812C159.671 138.606 175.957 128.256 176.658 127.807C176.775 127.736 176.845 127.642 176.915 127.524C176.588 132.486 173.644 153.352 173.34 154.959C173.013 156.731 172.335 172.162 172.195 175.234C171.938 175.163 171.658 175.116 171.401 175.116C171.401 175.116 171.401 175.116 171.377 175.116C169.929 175.116 167.826 176.558 167.803 179.157C167.803 180.173 168.223 181.307 168.807 182.371C168.737 182.371 168.667 182.394 168.597 182.418C168.48 182.465 156.681 187.948 155.209 188.515C154.695 188.704 151.377 190.098 147.077 191.87C146.984 191.918 146.89 191.941 146.797 191.988C146.19 188.231 144.157 186.459 142.311 184.923ZM169.438 179.11C169.438 177.455 170.817 176.747 171.377 176.747C171.821 176.747 172.429 177.077 172.896 177.55C173.387 178.07 173.644 178.708 173.621 179.299C173.574 180.339 172.686 182.607 172.008 184.19C170.887 182.678 169.415 180.575 169.438 179.11ZM266.732 170.886C266.592 172.918 266.452 175.021 257.479 181C255.61 181.993 253.951 182.489 252.339 182.985C249.442 183.883 246.474 184.805 244.068 188.302C243.297 188.326 242.666 188.326 242.082 188.302C238.997 188.255 237.479 188.515 234.137 191.894C230.819 193.501 227.969 195.911 225.212 198.251C221.59 201.323 218.179 204.206 214.23 204.82C213.389 204.938 212.664 205.505 212.337 206.285C211.987 207.065 212.08 207.987 212.548 208.695C215.048 212.476 219.394 213.303 223.249 214.012C227.829 214.863 230.703 215.548 231.988 218.809C232.362 219.755 233.249 220.369 234.231 220.393C236.871 220.487 240.002 219.069 243.25 217.604C245.914 216.399 248.904 215.052 250.937 214.981C251.171 215.076 251.241 215.17 251.241 215.17C251.755 216.446 248.227 221.385 247.059 223.016C246.171 224.268 245.423 225.308 244.909 226.23C243.764 226.584 241.684 225.97 239.979 225.45C237.876 224.812 235.913 224.221 234.044 224.599C233.39 224.717 232.829 225.119 232.455 225.662C231.474 227.127 229.161 228.073 226.941 228.994C225.586 229.538 224.207 230.129 222.992 230.861C222.595 231.097 222.291 231.428 222.081 231.854C220.118 235.635 216.637 238.589 213.646 239.038C212.291 239.25 211.029 238.943 209.837 238.14C211.169 234.193 211.122 231.05 209.72 228.569C207.36 224.41 201.916 223.701 197.968 223.181C197.056 223.063 195.841 222.898 195 222.708C195.771 221.645 197.851 219.447 203.342 215.147C203.715 214.863 203.996 214.461 204.159 214.012C205.047 211.508 204.37 209.877 203.645 208.979C201.472 206.238 196.682 206.852 191.145 207.561C188.434 207.916 182.803 208.625 181.892 207.798C181.892 207.774 181.542 206.427 184.836 201.724C185.257 201.11 185.397 200.354 185.21 199.621C185.023 198.912 184.532 198.298 183.855 197.991C181.495 196.88 178.901 198.534 176.401 200.118C175.63 200.614 174.415 201.394 173.714 201.701C171.845 200.732 169.999 200.496 168.2 200.992C163.994 202.173 161.541 206.97 159.181 211.602C158.012 213.894 156.821 216.234 155.676 217.486C154.998 217.864 154.414 218.148 153.9 218.384C150.652 219.944 149.32 221.433 150.395 225.852C150.068 226.135 149.227 226.088 146.657 225.379C145.862 225.166 145.091 224.954 144.39 224.812C143.713 224.67 143.012 224.859 142.474 225.261C139.484 227.506 133.712 229.396 131.913 228.215C131.306 227.837 131.352 226.631 131.469 225.71C135.768 221.598 139.554 214.958 139.928 208.672C142.311 208.979 144.904 208.53 147.031 208.176C147.732 208.057 148.386 207.939 148.97 207.868C149.624 208.081 151.096 208.79 152.007 209.239C155.162 210.751 156.587 211.413 157.989 210.019C158.503 209.499 158.76 208.743 158.713 208.01C158.456 202.977 154.134 199.881 150.325 197.14C149.064 196.242 147.872 195.391 146.961 194.564C146.961 194.257 146.937 194.021 146.937 193.737C147.194 193.643 147.428 193.525 147.685 193.43C151.961 191.658 155.255 190.287 155.769 190.098C157.288 189.507 168.784 184.19 169.251 183.954C169.368 183.883 169.485 183.812 169.555 183.694C170.069 184.474 170.606 185.206 171.074 185.821L171.494 186.364C171.658 186.577 171.892 186.695 172.149 186.695C172.172 186.695 172.195 186.695 172.242 186.695C172.522 186.672 172.779 186.483 172.92 186.223C173.13 185.774 174.859 181.993 175.186 179.89C175.303 180.173 175.607 180.386 175.934 180.409C176.892 180.386 181.939 180.079 187.196 179.724C192.687 179.346 198.365 178.944 200 178.921C200.024 178.921 200.07 178.921 200.094 178.921C203.575 178.921 225.165 181.213 225.399 181.236C225.422 181.236 225.469 181.236 225.492 181.236C225.913 181.236 226.263 180.906 226.31 180.48C226.357 180.031 226.03 179.606 225.562 179.559C224.651 179.464 203.248 177.172 199.977 177.243C198.295 177.267 192.593 177.668 187.079 178.046C182.149 178.377 177.055 178.732 175.981 178.732C175.957 178.732 175.934 178.732 175.934 178.732C175.63 178.732 175.373 178.897 175.233 179.157C175.209 178.188 174.812 177.219 174.065 176.439C173.948 176.298 173.808 176.203 173.667 176.085C173.691 176.014 173.761 175.943 173.761 175.849C173.971 170.626 174.625 156.779 174.906 155.266C175.209 153.588 178.364 131.517 178.527 127.169C178.597 127.027 178.714 126.768 178.854 126.437C178.925 126.602 179.041 126.744 179.205 126.838C180.326 127.476 204.697 148.437 208.061 152.856C208.832 153.872 210.281 155.739 211.987 157.937C210.748 158.504 209.884 158.905 209.674 159C209.393 159.142 208.085 159.709 206.145 160.583C178.294 173.013 178.13 173.249 177.897 173.556C177.64 173.84 176.097 174.88 174.789 175.683C174.392 175.919 174.275 176.439 174.509 176.841C174.672 177.101 174.929 177.243 175.21 177.243C175.35 177.243 175.513 177.196 175.63 177.125C176.939 176.321 178.551 175.282 179.088 174.714C180.584 173.816 199.603 165.333 206.8 162.119C208.739 161.245 210.047 160.678 210.328 160.536C210.562 160.418 211.566 159.969 213.015 159.307C218.412 166.231 225.772 175.612 225.866 175.754C226.03 175.967 226.263 176.061 226.52 176.061C226.544 176.061 226.567 176.038 226.59 176.038C226.216 176.628 225.959 177.361 225.959 178.235C225.936 180.457 227.946 183.15 229.277 184.899L229.698 185.443C229.861 185.656 230.095 185.774 230.352 185.774C230.376 185.774 230.399 185.774 230.446 185.774C230.726 185.75 230.983 185.561 231.123 185.301C231.357 184.805 233.366 180.457 233.46 178.495C233.506 177.432 233.086 176.368 232.291 175.494C231.52 174.667 230.492 174.171 229.581 174.171C228.88 174.171 228.039 174.525 227.338 175.14C227.338 174.974 227.315 174.809 227.198 174.667C227.104 174.525 219.954 165.451 214.604 158.551C221.964 155.148 236.31 148.508 237.782 147.775C237.969 147.681 238.11 147.515 238.18 147.326C238.39 147.681 238.6 148.012 238.834 148.342C238.507 148.39 238.226 148.602 238.133 148.933C237.455 151.367 234.628 158.456 232.759 163.135C231.637 165.947 231.1 167.318 231.006 167.649C230.749 168.57 229.371 172.966 229.371 172.966L230.96 173.462C230.96 173.462 232.338 169.019 232.619 168.098C232.689 167.814 233.483 165.853 234.324 163.75C236.17 159.118 238.951 152.171 239.698 149.524C239.885 149.76 240.049 149.997 240.212 150.209L240.61 150.753C240.773 150.965 241.007 151.084 241.264 151.084C241.287 151.084 241.311 151.084 241.357 151.084C241.638 151.06 241.895 150.871 242.035 150.611C242.269 150.115 244.278 145.767 244.371 143.805C244.418 142.742 243.998 141.679 243.18 140.804C242.409 139.977 241.381 139.481 240.469 139.481C240.469 139.481 240.469 139.481 240.446 139.481C238.997 139.481 236.895 140.922 236.871 143.522C236.871 144.372 237.152 145.294 237.596 146.192C237.432 146.145 237.245 146.168 237.058 146.239C235.563 146.972 220.772 153.825 213.552 157.18C211.73 154.841 210.211 152.88 209.393 151.792C205.959 147.303 181.635 126.224 180.023 125.326C179.812 125.208 179.579 125.208 179.369 125.279C179.485 124.995 179.602 124.688 179.719 124.381C179.836 124.499 179.976 124.593 180.163 124.617C182.032 124.924 197.22 128.138 200.584 128.941C203.622 129.674 219.394 135.889 224.02 138.181C226.988 139.646 235.75 144.207 235.75 144.207L236.497 142.718C236.497 142.718 227.688 138.157 224.721 136.692C220.305 134.495 204.393 128.162 200.958 127.335C197.897 126.602 182.523 123.341 180.42 122.986C180.35 122.986 180.28 122.986 180.21 122.986C180.537 122.041 180.771 121.12 180.817 120.482C180.864 119.418 180.443 118.355 179.649 117.481C178.878 116.653 177.85 116.157 176.939 116.157C176.261 116.157 175.42 116.488 174.742 117.103C174.719 117.008 174.695 116.913 174.649 116.819C174.041 115.756 160.886 92.3847 157.522 86.8551C160.583 84.9173 165.419 84.1375 172.312 84.492C172.803 84.5392 173.317 84.3973 173.761 84.1137C181.168 79.4348 188.762 75.8903 194.229 81.2545C194.813 83.4994 195.164 85.4844 195.491 87.2331C197.126 96.0237 198.926 99.4266 211.753 99.0958C212.875 100.136 214.113 104.413 214.744 106.563C215.819 110.273 216.683 113.203 218.529 114.503C219.324 115.07 220.352 115.118 221.193 114.621C223.576 113.227 230.819 112.849 233.483 113.983C234.348 114.361 235.352 114.196 236.077 113.581C241.077 109.21 243.857 108.548 245.329 108.761C247.012 108.997 248.11 110.509 249.605 112.802C250.961 114.881 252.503 117.221 255.213 117.315C255.26 117.315 255.307 117.315 255.353 117.315C257.386 117.315 259.138 115.921 260.587 114.314C269.022 118.662 274.396 120.434 277.667 121.522C279.537 122.136 281.032 122.632 281.289 123.058C281.686 123.696 281.756 125.846 281.85 128.847C282.013 133.431 282.27 140.993 283.883 153.329C268.438 162.615 267.036 166.325 266.732 170.886ZM227.665 178.212C227.665 176.558 229.044 175.849 229.604 175.849C230.048 175.849 230.656 176.18 231.123 176.652C231.614 177.172 231.871 177.81 231.848 178.401C231.801 179.44 230.913 181.709 230.235 183.292C229.114 181.78 227.642 179.677 227.665 178.212ZM238.53 143.569C238.53 141.915 239.909 141.206 240.469 141.206C240.913 141.206 241.521 141.537 241.988 142.009C242.479 142.529 242.736 143.167 242.713 143.758C242.666 144.798 241.778 147.066 241.1 148.65C239.979 147.137 238.53 145.034 238.53 143.569Z" fill="white"/>
</svg>
