<svg width="412" height="199" viewBox="0 0 412 199" fill="none" xmlns="http://www.w3.org/2000/svg">
<path d="M36.5172 88.2037L36.2014 88.1308C36.7844 84.985 36.1285 81.8513 34.2945 79.1914C32.9949 77.3088 31.2216 75.827 29.2782 74.9282L29.5576 73.2642L29.7155 73.3007C29.8127 73.325 29.8977 73.3371 29.9949 73.3371C30.2621 73.3371 30.5293 73.2521 30.7479 73.0942C31.0515 72.8755 31.2337 72.5476 31.2823 72.1832L31.9989 65.7945C32.0718 65.1022 31.586 64.4706 30.8815 64.3735L28.0636 63.9969C27.3592 63.9119 26.7276 64.3856 26.6183 65.0779L25.6709 71.1751C25.5616 71.8432 25.9988 72.4869 26.6669 72.6326L27.0312 72.7177L26.8005 74.1387C26.4725 74.078 26.1446 74.0294 25.8167 73.993C20.0231 73.5557 16.1972 76.4221 14.1931 82.7623L13.9137 82.6894C13.5615 82.6044 13.1729 82.6773 12.8692 82.8837C12.5656 83.0902 12.3712 83.4303 12.3227 83.7947C12.1405 85.4222 9.33475 98.3211 8.35093 101.09C7.35497 103.872 0.164623 122.066 0.0917477 122.261C-0.139024 122.831 0.0796137 123.487 0.58974 123.815C0.917678 124.022 8.59384 129.002 11.4967 130.216C14.4724 131.455 22.4644 132.172 22.8045 132.208C22.8409 132.208 22.8774 132.208 22.9138 132.208C23.4482 132.208 23.9341 131.88 24.1162 131.37C24.3713 130.69 30.42 114.633 32.2419 107.285C34.0273 100.058 37.416 89.9648 37.4524 89.8554C37.5617 89.5154 37.5374 89.1388 37.3552 88.823C37.173 88.5073 36.8694 88.2887 36.5172 88.2037ZM28.9625 66.7176L29.2661 66.7541L28.8531 70.4221C28.8045 70.4099 28.756 70.3735 28.7074 70.3613C28.6224 70.3492 28.5374 70.3614 28.4523 70.3735L28.3916 70.3613L28.9625 66.7176ZM23.1689 76.6286C23.2903 77.0294 23.4847 77.4181 23.7883 77.7703C24.8815 79.0699 27.007 79.7137 28.6345 79.7137C28.7681 79.7137 28.9139 79.7137 29.0353 79.7016C29.8855 79.6408 30.4929 79.4586 30.9544 79.2278C31.3916 79.6651 31.8046 80.1388 32.169 80.6611C33.5779 82.7016 34.088 85.0943 33.6872 87.5113L16.6952 83.3696C18.262 78.5477 20.679 76.993 23.1689 76.6286ZM10.7679 101.965C11.691 99.39 13.8895 89.5033 14.6304 85.5316L22.6102 87.4749L17.3632 105.269L13.4886 113.916C12.4198 113.516 9.28619 112.313 7.16066 111.281C8.80035 107.103 10.3307 103.167 10.7679 101.965ZM29.7155 106.677C28.1851 112.896 23.3632 125.965 22.0272 129.548C19.3551 129.269 14.3631 128.637 12.4684 127.848C10.3307 126.949 4.98651 123.585 2.86098 122.236C3.60188 120.366 5.24162 116.2 6.85702 112.095C9.46838 113.37 13.3793 114.803 13.5737 114.876C13.6222 114.888 13.6708 114.9 13.7194 114.9C13.8895 114.9 14.0352 114.803 14.1081 114.645L18.1648 105.572L23.4361 87.6935L34.5253 90.3899C33.5536 93.3899 31.1366 100.92 29.7155 106.677Z" fill="#707070"/>
<path d="M88.3681 122.163C88.1009 121.507 87.3722 121.192 86.7163 121.447L80.9591 123.645C80.3275 123.888 79.9875 124.58 80.1939 125.236L80.3032 125.588L76.5866 126.973C75.9186 127.216 75.5785 127.969 75.8214 128.637C76.0158 129.159 76.5016 129.475 77.036 129.475C77.1818 129.475 77.3397 129.451 77.4854 129.39L81.0806 128.054L81.1292 128.212C81.2385 128.564 81.4935 128.843 81.8215 129.001C81.9915 129.074 82.1737 129.123 82.3559 129.123C82.5259 129.123 82.7081 129.086 82.866 129.014L88.7689 126.463C89.4127 126.184 89.7163 125.443 89.4491 124.787L88.3681 122.163ZM83.1818 126.062C83.1697 126.013 83.1818 125.953 83.1575 125.904C83.1332 125.819 83.0725 125.758 83.0239 125.698L82.9997 125.637L86.4491 124.313L86.5705 124.605L83.1818 126.062Z" fill="#707070"/>
<path d="M72.5418 86.916L71.8252 86.8431C71.9467 83.9645 70.8414 81.9361 69.7968 80.6851C68.6672 79.3248 67.2219 78.3896 65.8008 77.8187L65.9952 76.6649L66.1531 76.7013C66.2502 76.7256 66.3353 76.7377 66.4324 76.7377C66.6997 76.7377 66.9668 76.6527 67.1855 76.4948C67.4891 76.2762 67.6713 75.9482 67.7199 75.5839L68.4365 69.1952C68.5094 68.4907 68.0235 67.8591 67.3191 67.7741L64.5012 67.3976C63.7967 67.3125 63.1652 67.7862 63.0559 68.4785L62.1085 74.5758C61.9992 75.2438 62.4364 75.8875 63.1044 76.0333L63.4688 76.1183L63.2866 77.1871C63.0923 77.1628 62.9101 77.1507 62.728 77.1386C60.8818 77.1021 55.0274 77.6244 53.7521 85.1184L53.5942 85.1063C52.9505 85.0577 52.3432 85.4828 52.2096 86.1143C49.7805 97.3371 45.6873 115.665 45.0436 117.123C44.8249 117.56 44.8856 118.094 45.1893 118.483C45.3472 118.69 49.2582 123.633 55.3797 124.86C57.0558 125.2 60.8696 125.795 63.8818 125.795C65.6187 125.795 67.1004 125.601 67.7442 125.042C68.5215 124.374 68.898 122.843 69.4568 115.58C69.5175 114.839 69.566 114.22 69.6025 113.819C69.7604 112.277 72.3475 96.5355 73.6956 88.4221C73.7564 88.0698 73.6592 87.7054 73.4406 87.4261C73.2219 87.1467 72.9062 86.9524 72.5418 86.916ZM65.4243 70.1061L65.728 70.1425L65.315 73.8106C65.2664 73.7985 65.2178 73.762 65.1692 73.7499C65.0842 73.7377 64.9992 73.7498 64.9142 73.762L64.8535 73.7499L65.4243 70.1061ZM59.7886 80.2722C59.8858 80.4422 59.983 80.6244 60.1166 80.7823C61.1611 82.0698 63.3595 82.7013 65.0721 82.7013C65.2057 82.7013 65.3514 82.7013 65.485 82.6892C66.4931 82.6285 67.1733 82.4098 67.6591 82.1548C67.7199 82.2155 67.7806 82.2762 67.8292 82.337C68.8252 83.5394 69.2988 84.9726 69.2624 86.6002L56.3392 85.3613C56.8858 82.422 58.3068 80.9645 59.7886 80.2722ZM66.566 88.9322L63.0194 109.957C62.4243 110.151 60.821 110.625 59.3635 110.528C57.8332 110.418 54.8817 109.119 53.9343 108.681L57.6388 88.0698L66.566 88.9322ZM67.0276 113.54C66.9911 113.953 66.9304 114.584 66.8818 115.362C66.7361 117.171 66.3838 121.775 65.9709 123.05C64.817 123.317 60.6024 123.269 55.8898 122.321C51.7966 121.495 48.7602 118.58 47.6671 117.39C49.0153 112.884 53.1448 93.9727 54.493 87.7783L56.7522 87.9969L52.9991 108.864C52.9627 109.058 53.0598 109.24 53.242 109.325C53.4121 109.398 57.2987 111.244 59.2785 111.39C59.4364 111.402 59.5943 111.402 59.7522 111.402C61.5984 111.402 63.4445 110.722 63.5295 110.685C63.6753 110.637 63.7725 110.503 63.7968 110.357L67.4041 89.0293L70.9021 89.3694C70.0762 94.4464 67.2098 111.803 67.0276 113.54Z" fill="#707070"/>
<path d="M50.1948 7.19457C50.377 7.27959 50.5592 7.31603 50.7413 7.31603C50.7535 7.31603 50.7657 7.31602 50.79 7.30387C50.8143 7.30387 50.8264 7.31603 50.8507 7.31603L56.292 7.27956C56.4621 7.27956 56.6078 7.18244 56.6807 7.02454L62.9115 -6.46952C62.9601 -6.57883 62.9601 -6.70033 62.9236 -6.80964C62.8872 -6.91895 62.8022 -7.00398 62.6929 -7.05256L32.1946 -19.9636C32.1339 -19.9879 32.0488 -20 31.9881 -20L25.4415 -19.3685C25.3565 -19.3563 25.2958 -19.3198 25.235 -19.2834C25.1622 -19.2591 25.0893 -19.2591 25.0164 -19.2227L21.7856 -17.5101C21.5548 -17.3886 21.3605 -17.1943 21.239 -16.9635L17.486 -9.62745C17.3281 -9.31165 17.3037 -8.9473 17.4131 -8.61936C17.5224 -8.29142 17.7654 -8.01205 18.0933 -7.8663L29.6683 -2.44923C27.0691 3.59941 23.0245 12.8788 22.4415 13.7412C21.5184 14.895 16.2714 26.6037 15.9191 27.6725C15.6641 28.3405 12.9191 33.3325 11.0972 36.6361C8.64374 41.0815 8.23086 41.8588 8.13369 42.1503C8.1094 42.2354 8.03648 42.3811 7.9636 42.5754C7.16197 44.4702 6.56687 46.1342 7.40494 47.2273C7.61142 47.5067 8.18227 48.2718 16.8787 51.612C17.0245 51.6727 17.1823 51.697 17.3402 51.697C17.3645 51.697 17.401 51.6848 17.4253 51.6848H17.4374C17.4495 51.6848 17.4617 51.6848 17.486 51.6848L22.8545 51.1261C23.0124 51.114 23.1459 51.0047 23.2067 50.8589L42.4701 3.53866L50.1948 7.19457ZM31.9517 -19.1012L61.9399 -6.40879L56.0127 6.42935L51.9803 6.45366L57.6159 -4.57476C57.7738 -4.89055 57.798 -5.26707 57.6766 -5.60715C57.5551 -5.94724 57.288 -6.21446 56.9601 -6.34806L27.482 -18.664L31.9517 -19.1012ZM20.3888 -9.60319L23.3524 -15.3846L25.6845 -16.6235L54.6767 -4.51403L50.1584 4.31598L20.3888 -9.60319ZM16.745 48.8306C13.7572 47.6524 10.5993 46.3164 9.59119 45.7455C9.65192 45.3447 9.90694 44.6281 10.332 43.6078C10.4414 43.3406 10.5264 43.1342 10.5506 43.0734C10.7085 42.7212 12.1175 40.1706 13.3564 37.9114C16.7087 31.8385 18.1419 29.1907 18.3605 28.5348C18.7856 27.2716 23.7897 16.304 24.4456 15.393C25.1865 14.4699 29.7533 3.90304 31.9881 -1.30753L37.0773 1.07307L27.0569 24.0895L19.6723 43.535L16.745 48.8306ZM22.4901 50.3366L18.6399 50.7375L21.98 44.701C22.0043 44.6524 22.0407 44.5917 22.0528 44.5309L29.4497 25.049L39.4214 2.15404L41.6684 3.21069L22.4901 50.3366Z" fill="#707070"/>
<path d="M121.729 125.291L120.988 125.061C120.453 124.891 119.858 125.085 119.53 125.559L117.344 128.704C116.822 128.486 116.215 128.619 115.85 129.069C113.773 131.607 112.559 133.259 111.927 134.425L93.5261 149.085C93.101 149.425 92.9552 149.972 93.0888 150.458L91.1819 151.83C90.9876 151.964 90.939 152.243 91.0847 152.425C91.1698 152.547 91.3033 152.607 91.437 152.607C91.522 152.607 91.607 152.583 91.692 152.522L93.6232 151.126C93.8418 151.271 94.0848 151.381 94.3399 151.381C94.6192 151.381 94.9107 151.284 95.1414 151.101L112.049 137.632C112.34 137.984 112.717 138.287 113.142 138.494C113.518 138.676 113.919 138.761 114.32 138.785L110.834 158.996C110.737 159.543 111.016 160.065 111.466 160.32L111.21 161.741C111.162 161.972 111.32 162.203 111.551 162.239C111.575 162.239 111.599 162.251 111.623 162.251C111.83 162.251 112.012 162.105 112.049 161.899L112.316 160.478C112.838 160.393 113.287 159.992 113.385 159.446L117.223 137.219C117.927 136.368 118.389 135.47 118.389 135.47C118.51 135.263 119.603 133.563 120.563 132.069C120.757 131.765 120.818 131.401 120.733 131.061C120.672 130.806 120.514 130.599 120.32 130.429L122.409 127.271C122.628 126.931 122.688 126.506 122.555 126.129C122.421 125.704 122.117 125.413 121.729 125.291ZM116.105 134.231C115.777 134.862 114.939 136.016 114.575 136.174C114.538 136.186 114.417 136.235 114.247 136.15C114.162 136.113 114.077 136.04 114.016 135.968C114.028 135.943 114.04 135.907 114.053 135.883C114.065 135.87 114.065 135.846 114.077 135.834C114.405 135.117 115.437 133.672 117.162 131.522L117.636 131.789C116.215 134.012 116.142 134.17 116.105 134.231Z" fill="#707070"/>
<path d="M162.133 75.9199C163.639 72.0211 166.809 70.3571 169.359 69.0089C170.44 68.4381 171.461 67.9036 172.214 67.272C173.513 66.1668 176.829 63.4583 180.048 61.5392C180.655 62.1708 181.323 62.7417 181.87 62.8753C183.096 63.1789 221.392 67.9279 223.02 68.1344C223.032 68.1344 223.056 68.1344 223.068 68.1344C223.141 68.1344 223.202 68.1223 223.263 68.0858C224.429 67.4907 251.89 53.4865 253.773 52.1383C255.644 50.8023 270.996 39.1301 271.154 39.0087C271.275 38.9236 271.336 38.7779 271.324 38.62L270.692 32.049C270.704 31.9154 270.704 31.7697 270.68 31.6239C270.571 31.1138 270.17 30.713 269.648 30.628L238.166 24.7737L223.797 1.69654C223.469 1.17427 222.813 0.955668 222.23 1.17429L163.663 24.2029C163.444 24.2879 163.274 24.4458 163.128 24.628C160.092 28.3446 157.687 32.8021 157.663 32.8507C157.578 32.9964 157.602 33.1908 157.699 33.3244L178.287 59.3772C178.384 59.523 178.857 60.1789 179.465 60.8834C176.392 62.7295 173.295 65.2315 171.667 66.6162C170.999 67.187 170.052 67.685 168.971 68.2437C166.286 69.6526 162.958 71.4016 161.331 75.6041C159.934 79.2357 154.784 83.3411 149.355 86.754L150.849 86.7661C156.023 83.3896 160.772 79.4422 162.133 75.9199ZM266.113 32.6199C260.951 36.1665 249.558 43.9884 246.923 45.616C243.741 47.5836 222.947 58.0048 220.032 59.4744C212.307 58.6364 193.019 56.4015 190.517 55.5756C189.582 55.2598 188.38 54.4217 187.141 53.365C193.627 49.5998 218.186 35.3406 220.008 34.1989C223.008 32.3163 235.336 28.0288 237.461 27.3001L266.113 32.6199ZM222.17 3.98L235.421 25.2595C231.546 26.6077 221.526 30.1907 218.647 31.9883C216.813 33.1422 190.274 48.5553 185.173 51.5067C183.704 50.0492 182.368 48.531 181.578 47.5108C180.461 46.0533 169.481 30.6887 166.141 26.0126L222.17 3.98ZM178.967 58.8671L158.55 33.0086C159.035 32.122 160.821 29.0247 163.056 26.1097C163.068 26.1219 163.068 26.1461 163.08 26.1583C163.699 27.0207 178.189 47.3286 179.538 49.0897C180.181 49.9278 181.967 52.0411 184.056 54.033C184.068 54.0452 184.08 54.0574 184.092 54.0695C185.926 55.8064 187.991 57.4461 189.704 58.0169C192.971 59.1101 217.36 61.7821 220.129 62.0736C220.178 62.0736 220.226 62.0858 220.275 62.0858C220.481 62.0858 220.676 62.0372 220.858 61.9522C221.829 61.4663 244.785 49.9764 248.283 47.8144C251.611 45.7618 267.802 34.5997 269.927 33.1301L270.449 38.4863C268.664 39.8467 255.024 50.2071 253.275 51.4582C251.502 52.7213 224.987 66.2639 222.983 67.2842C209.161 65.5716 182.999 62.2922 182.064 62.0615C181.736 61.9765 181.287 61.6 180.801 61.1141C182.343 60.2639 183.825 59.6323 185.003 59.5108C185.234 59.4865 185.416 59.2801 185.392 59.0372C185.368 58.8064 185.161 58.6363 184.918 58.6485C183.57 58.7942 181.906 59.4987 180.206 60.4583C179.744 59.9117 179.295 59.3408 178.967 58.8671Z" fill="#707070"/>
<path d="M205.833 47.122L200.89 49.8548C200.271 50.1949 200.04 50.9844 200.38 51.6038C200.611 52.0289 201.06 52.2718 201.509 52.2718C201.716 52.2718 201.935 52.2233 202.129 52.1139L207.072 49.3811C207.692 49.041 207.922 48.2516 207.582 47.6321C207.242 47.0127 206.453 46.7819 205.833 47.122Z" fill="#707070"/>
<path d="M211.906 46.0166C212.125 46.0166 212.344 45.9559 212.55 45.8466L216.388 43.6239C217.008 43.2717 217.214 42.4822 216.862 41.8627C216.51 41.2433 215.708 41.0368 215.101 41.3891L211.263 43.6117C210.643 43.964 210.437 44.7534 210.789 45.3729C211.032 45.7858 211.457 46.0166 211.906 46.0166Z" fill="#707070"/>
<path d="M222 40.466C222.218 40.466 222.437 40.4175 222.631 40.296L226.372 38.1705C226.992 37.8183 227.21 37.0288 226.858 36.4093C226.506 35.7899 225.716 35.5713 225.097 35.9235L221.356 38.049C220.737 38.4013 220.518 39.1907 220.87 39.8102C221.113 40.2231 221.55 40.466 222 40.466Z" fill="#707070"/>
<path d="M231.704 35.62C231.911 35.62 232.129 35.5714 232.323 35.4621L236.963 32.9358C237.595 32.5957 237.826 31.8062 237.485 31.1868C237.145 30.5552 236.356 30.3244 235.736 30.6645L231.097 33.1908C230.465 33.5309 230.234 34.3204 230.575 34.9398C230.793 35.3649 231.243 35.62 231.704 35.62Z" fill="#707070"/>
<path d="M212.368 48.5189L208.408 50.9359C207.801 51.3003 207.607 52.1019 207.983 52.7092C208.226 53.11 208.651 53.3287 209.089 53.3287C209.319 53.3287 209.55 53.2679 209.757 53.1343L213.716 50.7173C214.323 50.3529 214.518 49.5513 214.141 48.944C213.765 48.3367 212.975 48.1424 212.368 48.5189Z" fill="#707070"/>
<path d="M221.55 43.1139L217.979 45.2395C217.372 45.6038 217.166 46.3933 217.53 47.0128C217.773 47.4136 218.198 47.6444 218.647 47.6444C218.866 47.6444 219.097 47.5836 219.303 47.4622L222.874 45.3367C223.481 44.9723 223.688 44.1828 223.324 43.5634C222.947 42.9439 222.158 42.7496 221.55 43.1139Z" fill="#707070"/>
<path d="M226.627 42.7133C226.858 43.1384 227.307 43.3934 227.757 43.3934C227.963 43.3934 228.182 43.3448 228.376 43.2355L233.016 40.7092C233.648 40.3691 233.878 39.5796 233.538 38.9602C233.198 38.3286 232.409 38.0978 231.789 38.4379L227.149 40.9643C226.518 41.3044 226.287 42.0938 226.627 42.7133Z" fill="#707070"/>
<path d="M236.733 36.9681C236.963 37.3932 237.413 37.624 237.862 37.624C238.081 37.624 238.287 37.5753 238.494 37.4539L242.83 35.0247C243.449 34.6725 243.68 33.8951 243.328 33.2636C242.976 32.632 242.198 32.4134 241.567 32.7656L237.231 35.1948C236.611 35.5592 236.38 36.3486 236.733 36.9681Z" fill="#707070"/>
<path d="M219.728 50.2922L215.756 52.8185C215.149 53.2071 214.979 53.9966 215.356 54.6039C215.599 54.9926 216.024 55.1991 216.449 55.1991C216.692 55.1991 216.922 55.1384 217.141 54.9926L221.113 52.4663C221.72 52.0776 221.89 51.2881 221.514 50.6808C221.125 50.0978 220.323 49.9156 219.728 50.2922Z" fill="#707070"/>
<path d="M227.538 45.9195L224.611 47.5349C223.991 47.875 223.761 48.6645 224.101 49.284C224.332 49.7091 224.781 49.952 225.23 49.952C225.437 49.952 225.655 49.9034 225.85 49.794L228.777 48.1787C229.396 47.8386 229.627 47.0491 229.287 46.4297C228.947 45.7981 228.157 45.5673 227.538 45.9195Z" fill="#707070"/>
<path d="M239.478 39.6644L235.494 41.5349C234.85 41.8385 234.571 42.6037 234.874 43.2474C235.093 43.7211 235.554 43.9883 236.04 43.9883C236.222 43.9883 236.405 43.9519 236.587 43.8669L240.571 41.9964C241.214 41.6928 241.494 40.9276 241.19 40.2839C240.899 39.6401 240.133 39.3608 239.478 39.6644Z" fill="#707070"/>
<path d="M245.732 38.7414C245.963 38.7414 246.206 38.6807 246.413 38.5471L248.842 37.0288C249.449 36.6523 249.631 35.8507 249.255 35.2556C248.878 34.6483 248.077 34.4661 247.481 34.8426L245.052 36.3608C244.445 36.7373 244.263 37.539 244.639 38.1341C244.882 38.5228 245.307 38.7414 245.732 38.7414Z" fill="#707070"/>
<path d="M375.285 125.574L341.604 110.695C341.386 110.598 341.143 110.695 341.046 110.914L340.681 111.715C338.811 111.047 330.236 108.752 327.661 112.371C327.588 112.468 327.539 112.578 327.466 112.675L323.519 110.707C323.422 110.659 323.3 110.646 323.191 110.683C323.118 110.707 323.058 110.78 323.009 110.841L312.794 106.189C312.138 105.897 311.385 106.177 311.082 106.833C310.79 107.476 311.069 108.254 311.725 108.545L321.94 113.197C321.977 113.306 322.049 113.404 322.159 113.464L326.288 115.517C326.009 116.804 326.021 118.153 326.361 119.416C326.932 121.529 328.669 124.505 333.673 126.849L333.418 127.383C333.321 127.59 333.406 127.845 333.612 127.942L345.151 133.942C344.956 134.404 344.629 135.181 344.458 135.873L344.398 136.128C344.106 137.222 343.511 139.444 346.001 140.841C345.09 142.845 343.56 146.173 342.892 147.23C341.568 149.331 340.39 149.525 340.341 149.525L337.632 150.133C337.547 150.145 337.475 150.193 337.414 150.254C337.268 150.4 333.892 153.922 335.592 156.011C337.049 157.809 346.924 162.716 349.596 162.716C349.718 162.716 349.815 162.704 349.9 162.692C352.183 162.194 359.969 144.351 360.029 144.169C360.212 143.659 360.345 143.125 360.479 142.663C360.698 141.825 360.94 140.938 361.232 141.011C361.548 141.072 362.374 141.436 363.163 141.788C365.41 142.784 366.928 143.416 367.621 143.1C368.58 142.663 371.92 139.226 373.803 135.873C375.661 132.582 375.54 126.242 375.528 125.962C375.54 125.792 375.43 125.647 375.285 125.574ZM323.555 113.185C323.726 113.064 323.871 112.893 323.968 112.687C324.078 112.432 324.09 112.165 324.041 111.91L327.029 113.404C326.823 113.804 326.653 114.217 326.507 114.642L323.555 113.185ZM327.187 119.185C326.616 117.059 327.053 114.703 328.353 112.869C330.442 109.93 338.373 111.788 340.317 112.493L334.037 126.06C330.296 124.311 327.928 121.942 327.187 119.185ZM345.224 136.347L345.297 136.08C345.442 135.485 345.734 134.768 345.916 134.343L347.993 135.424L346.705 139.274C346.705 139.286 346.572 139.578 346.365 140.039C344.544 138.959 344.932 137.404 345.224 136.347ZM349.718 161.841C348.163 162.169 337.705 157.238 336.26 155.465C335.288 154.262 337.074 151.87 337.948 150.934L340.365 150.388L352.948 156.934C351.515 159.606 350.252 161.671 349.718 161.841ZM374.434 130.408L367.9 127.371C367.681 127.274 367.426 127.371 367.329 127.578C367.232 127.796 367.317 128.052 367.536 128.149L374.313 131.294C374.179 132.145 373.997 132.995 373.754 133.784L366.892 130.651C366.673 130.554 366.418 130.651 366.321 130.857C366.224 131.076 366.321 131.331 366.528 131.428L373.463 134.586C373.341 134.89 373.208 135.169 373.062 135.436C372.795 135.898 372.503 136.371 372.2 136.821L365.459 133.967C365.24 133.869 364.985 133.979 364.9 134.197C364.803 134.416 364.912 134.671 365.131 134.756L371.702 137.537C371.289 138.108 370.851 138.667 370.414 139.189L364.39 136.639C364.171 136.541 363.916 136.651 363.831 136.869C363.734 137.088 363.843 137.343 364.062 137.428L369.843 139.869C368.689 141.169 367.669 142.116 367.293 142.286C366.831 142.444 364.621 141.448 363.54 140.975C362.58 140.55 361.827 140.222 361.426 140.137C360.309 139.93 359.981 141.181 359.665 142.408C359.544 142.882 359.41 143.367 359.252 143.841C358.839 144.971 355.924 151.311 353.386 156.157L341.483 149.963C342.066 149.61 342.843 148.955 343.657 147.655C344.398 146.489 346.086 142.772 346.973 140.805C346.973 140.805 346.973 140.805 346.973 140.792C347.276 140.1 347.495 139.627 347.531 139.554L348.94 135.315C349.013 135.108 348.916 134.89 348.734 134.792L345.916 133.323L334.402 127.335L341.665 111.618L374.702 126.217C374.677 126.885 374.653 128.562 374.434 130.408Z" fill="#707070"/>
<path d="M240.532 110.513L254.537 116.367C254.585 116.391 254.646 116.404 254.707 116.404C254.767 116.404 254.84 116.391 254.901 116.355L267.29 110.258C267.435 110.185 267.533 110.039 267.533 109.869C267.533 109.699 267.435 109.553 267.29 109.48C266.828 109.262 256.043 104.1 253.249 103.286C250.225 102.375 241.443 109.019 240.46 109.772C240.338 109.869 240.277 110.015 240.289 110.173C240.289 110.318 240.387 110.452 240.532 110.513ZM252.982 104.112C255.277 104.792 263.488 108.642 266.099 109.881L259.686 113.039L245.682 107.185C248.537 105.375 251.67 103.723 252.982 104.112ZM244.796 107.744L258.654 113.537L254.682 115.493L241.553 110.003C242.415 109.371 243.557 108.557 244.796 107.744Z" fill="#707070"/>
<path d="M241.844 158.416C237.01 160.882 234.168 161.805 231.423 162.691C230.707 162.922 229.99 163.153 229.249 163.408C222.435 165.752 206.05 165.947 193.431 162.461C177.605 158.088 170.378 148.627 169.006 141.861C168.459 139.189 169.176 134.805 170.973 129.837C171.216 129.169 170.864 128.428 170.196 128.185C169.528 127.942 168.787 128.294 168.544 128.962C167.682 131.355 166.455 135.327 166.273 138.958C165.835 142.456 165.933 146.307 166.576 149.477C168.131 157.08 175.674 166.821 192.228 171.4C199.067 173.295 207.01 174.121 214.018 174.121C220.249 174.121 225.751 173.465 229.067 172.323C229.796 172.068 230.488 171.849 231.204 171.619C234.022 170.708 236.925 169.773 241.881 167.234C242.087 167.125 242.172 166.87 242.063 166.651C241.954 166.445 241.699 166.359 241.48 166.469C236.585 168.971 233.707 169.906 230.925 170.805C230.209 171.036 229.504 171.266 228.775 171.521C221.84 173.914 205.225 174.121 192.447 170.586C182.33 167.793 169.686 160.542 167.402 149.319C167.062 147.679 166.892 145.833 166.856 143.963C169.115 151.529 176.913 160.59 192.726 164.963C199.625 166.87 207.642 167.708 214.735 167.708C221.087 167.708 226.686 167.04 230.075 165.874C230.792 165.631 231.496 165.4 232.2 165.169C235.043 164.246 237.994 163.299 242.998 160.736C243.63 160.408 243.885 159.631 243.557 158.999C243.253 158.343 242.476 158.088 241.844 158.416Z" fill="#707070"/>
<path d="M284.95 36.059C276.885 40.9659 269.257 45.5935 273.423 55.4559C274.395 57.7515 278.33 61.1159 282.496 64.6625C286.638 68.1969 290.913 71.8407 292.14 74.367L285.46 76.699C285.46 76.699 285.46 76.699 285.448 76.699C285.375 76.7233 285.326 76.7719 285.278 76.8205C285.266 76.8326 285.253 76.8448 285.253 76.8569C285.217 76.9055 285.205 76.9541 285.193 77.0148C285.193 77.0269 285.181 77.0391 285.181 77.0513C285.181 77.0634 285.181 77.0634 285.181 77.0755C285.181 77.0877 285.168 77.0999 285.168 77.112V78.278C283.322 79.0674 277.978 81.193 266.039 85.0675C265.456 85.2619 265.128 85.8206 265.176 86.4036L264.144 86.1364C263.427 85.9542 262.674 85.9542 261.958 86.1607L229.48 95.3794C229.431 95.3915 229.407 95.4158 229.37 95.4401C225.508 93.4725 221.828 91.5777 219.52 90.3753C217.018 89.0756 215.366 88.2255 214.941 88.0311C209.718 85.5898 202.273 87.5817 197.038 90.2781C192.155 92.7923 188.208 98.1365 187.977 98.4644C185.014 102.108 183.896 104.489 182.074 109.724C182.026 109.857 181.989 109.991 181.941 110.112C166.588 102.995 149.657 94.602 139.673 89.1728C131.414 84.6789 102.604 70.7111 102.313 70.5653C102.155 70.4925 101.972 70.5168 101.839 70.6261L94.1505 77.3549C94.1384 77.3671 94.1384 77.367 94.1384 77.3792C94.1019 77.4156 94.0776 77.4521 94.0533 77.5006C94.0412 77.5128 94.0412 77.525 94.0291 77.5371C94.0048 77.5978 93.9926 77.6586 94.0048 77.7193L95.2315 88.8084C95.2436 88.942 95.3287 89.0392 95.438 89.1121C95.4744 89.1728 95.5351 89.2335 95.608 89.27C95.8995 89.4157 124.685 103.371 132.932 107.853C143.11 113.392 165.447 124.869 181.261 132.206L180.969 132.667C180.872 132.813 180.884 133.007 180.981 133.153C181.091 133.299 181.273 133.359 181.443 133.311L183.471 132.776C183.52 133.189 183.58 133.602 183.641 134.015L182.609 137.331C182.56 137.501 182.621 137.696 182.767 137.805C182.912 137.914 183.119 137.914 183.265 137.817L184.394 137.052C184.479 137.295 184.564 137.526 184.661 137.768L184.176 140.926C184.151 141.109 184.236 141.291 184.406 141.376C184.576 141.461 184.771 141.424 184.904 141.291L185.949 140.234L186.01 140.331C186.034 140.368 186.058 140.416 186.083 140.453L185.73 144.582C185.718 144.777 185.827 144.947 185.998 145.019C186.168 145.092 186.374 145.032 186.495 144.886L187.856 143.173C187.904 143.246 187.965 143.319 188.014 143.404V147.303C188.014 147.497 188.135 147.655 188.317 147.716C188.487 147.764 188.694 147.704 188.803 147.534L189.908 145.858C190.03 145.991 190.151 146.125 190.273 146.246L190.989 150.024C191.026 150.218 191.184 150.352 191.378 150.376C191.572 150.4 191.755 150.279 191.815 150.096L192.532 148.226C192.653 148.311 192.775 148.396 192.896 148.481L194.342 152.088C194.415 152.258 194.585 152.38 194.755 152.356C194.937 152.356 195.095 152.234 195.156 152.064L195.824 150.036C195.884 150.06 195.945 150.084 196.006 150.109L197.524 153.607C197.597 153.777 197.743 153.91 197.937 153.862C198.119 153.85 198.265 153.728 198.326 153.558L199.115 151.08C199.224 151.105 199.346 151.129 199.455 151.141L202.079 154.408C202.164 154.505 202.285 154.566 202.419 154.566C202.455 154.566 202.492 154.566 202.528 154.554C202.698 154.505 202.82 154.372 202.844 154.202L203.33 151.056C203.415 151.044 203.5 151.032 203.585 151.02L206.196 153.534C206.318 153.655 206.5 153.68 206.658 153.619C206.816 153.546 206.925 153.4 206.925 153.218V150.024C207.083 149.963 207.241 149.902 207.386 149.841L210.617 151.858C210.763 151.943 210.945 151.943 211.091 151.845C211.237 151.748 211.297 151.578 211.261 151.408L210.605 148.323C210.641 148.299 210.69 148.287 210.726 148.262C210.739 148.262 210.739 148.25 210.751 148.25L214.261 150.291C214.407 150.376 214.589 150.364 214.735 150.267C214.868 150.169 214.941 149.987 214.905 149.829L213.994 145.773C216.289 146.768 218.767 147.85 221.306 148.955C229.65 152.599 239.111 156.716 244.601 158.999C269.634 169.421 345.473 196.87 349.323 198.267L349.335 198.352C349.359 198.498 349.457 198.631 349.59 198.692C349.639 198.716 349.699 198.728 349.76 198.728C349.845 198.728 349.942 198.704 350.015 198.643L357.424 193.263C357.546 193.178 357.619 193.032 357.594 192.874L356.38 179.951C356.38 179.939 356.38 179.939 356.367 179.939C356.367 179.927 356.367 179.927 356.367 179.915C356.355 179.878 356.331 179.842 356.319 179.805C356.307 179.781 356.295 179.745 356.283 179.72C356.246 179.684 356.21 179.659 356.173 179.635C356.149 179.623 356.137 179.599 356.112 179.587C356.112 179.587 356.112 179.587 356.1 179.587C355.384 179.332 291.351 156.169 260.112 143.841C260.233 143.72 260.342 143.574 260.403 143.392C262.614 137.283 260.755 131.61 258.569 128.015L272.622 119.72C272.707 119.671 274.82 118.566 276.059 117.558C278.391 115.663 279.545 113.282 279.326 110.865C279.205 109.614 278.67 107.999 277.128 106.238C288.193 101.805 292.905 91.9299 292.942 91.8328C293.039 91.6141 292.954 91.3591 292.735 91.2619C292.517 91.1648 292.262 91.2619 292.164 91.4684C292.116 91.5655 287.476 101.331 276.496 105.57C275.464 104.549 274.091 103.505 272.257 102.448L278.403 99.5818C278.513 99.5333 278.598 99.4361 278.634 99.3268C278.67 99.2296 279.12 97.8571 279.241 96.2538C279.423 96.351 279.642 96.4239 279.849 96.4239C280.019 96.4239 280.189 96.3874 280.359 96.3146L294.606 90.1688L297.229 91.9907C297.302 92.0393 297.387 92.0635 297.472 92.0635C297.521 92.0635 297.569 92.0514 297.63 92.0393L307.359 88.3105C307.517 88.2497 307.638 88.0919 307.638 87.9097L307.735 81.3144C307.735 81.3023 307.723 81.2901 307.723 81.2659C307.735 80.7922 307.517 80.3549 307.104 80.0998L296.999 73.6504C296.355 73.2375 295.577 73.1525 294.861 73.4075L292.978 74.0634C291.703 71.3427 287.33 67.6139 283.079 63.9823C279.168 60.6544 275.136 57.2049 274.249 55.0915C270.375 45.9093 277.347 41.6704 285.436 36.7634C290.865 33.4598 296.476 30.0589 298.954 24.7754C302.464 17.2693 307.735 10.9292 312.485 6.18018C312.072 6.19232 311.659 6.20444 311.246 6.21659C306.618 10.9535 301.578 17.1236 298.165 24.4232C295.772 29.4759 290.27 32.8282 284.95 36.059ZM286.456 80.5249L287.367 81.0958L273.144 86.4764C272.597 86.6829 272.294 87.2295 272.33 87.7882C272.294 87.7761 272.27 87.7639 272.233 87.7639H270.363L267.982 87.1444C279.764 83.2942 284.804 81.2537 286.456 80.5249ZM262.188 86.9744C262.759 86.8165 263.354 86.8044 263.913 86.9622L268.796 88.2376L236.294 98.9138C234.435 97.9907 232.443 96.9826 230.464 95.9867L262.188 86.9744ZM102.179 71.4399C105.07 72.8488 131.414 85.6384 139.248 89.9016C149.268 95.3551 166.273 103.784 181.661 110.914C180.386 115.104 180.168 118.869 180.155 119.052C180.143 119.343 180.228 119.61 180.374 119.841C163.698 112.08 142.321 101.501 131.961 95.8652C124.357 91.7235 99.3368 79.5654 95.1829 77.5492L102.179 71.4399ZM182.269 132.169L183.301 130.529C183.313 130.979 183.35 131.428 183.386 131.878L182.269 132.169ZM183.313 127.202H182.56C182.84 126.667 183.119 126.133 183.398 125.647C183.362 126.157 183.338 126.679 183.313 127.202ZM183.556 123.74C182.767 124.894 181.819 126.74 181.479 127.432C181.419 127.566 181.419 127.724 181.504 127.845C181.576 127.967 181.722 128.052 181.868 128.052H183.289C183.277 128.343 183.277 128.647 183.277 128.951L181.71 131.44C165.908 124.116 143.523 112.602 133.333 107.064C125.268 102.679 97.6728 89.2821 96.0574 88.5048L94.94 78.3752C99.3854 80.5371 124.029 92.5251 131.56 96.6182C142.673 102.667 166.491 114.412 183.568 122.258C183.617 122.282 183.653 122.282 183.702 122.282C183.653 122.756 183.605 123.242 183.556 123.74ZM183.799 136.384L184.006 135.728C184.042 135.874 184.091 136.019 184.127 136.165L183.799 136.384ZM182.815 118.262C182.973 116.768 183.41 113.647 184.491 110.537C186.24 105.521 187.236 103.42 189.994 100.019C190.006 100.007 190.006 99.9948 190.006 99.9826C190.018 99.9705 190.03 99.9705 190.03 99.9583C190.066 99.9097 193.819 94.7964 198.192 92.5372C202.662 90.2417 209.439 88.2862 213.812 90.3388C214.188 90.521 216.01 91.4563 218.305 92.6466C244.091 105.971 244.662 105.764 245.536 105.485C246.047 105.315 246.715 104.95 247.553 104.477C248.913 103.724 250.954 102.594 252.192 102.521C254.209 102.545 269.185 109.663 270.593 111.254C270.618 111.545 269.889 112.408 269.014 112.991C267.314 113.78 255.848 119.076 253.966 120.376C253.128 120.946 250.905 120.218 249.593 119.513C247.784 118.663 205.164 98.6709 201.01 96.9219C200.949 96.8976 200.888 96.8976 200.84 96.8854C200.755 96.8612 200.658 96.8369 200.573 96.8369C200.488 96.8369 200.415 96.849 200.342 96.8611C200.257 96.8733 200.172 96.8855 200.099 96.9098C200.014 96.9341 199.941 96.9826 199.856 97.0312C199.807 97.0677 199.747 97.0798 199.698 97.1162C199.528 97.2498 195.617 100.493 193.054 104.307C190.662 107.853 187.771 115.772 187.018 119.926L182.815 118.262ZM229.443 112.93C234.18 115.141 238.613 117.218 242.014 118.809L238.856 119.853C237.897 119.768 234.277 119.428 229.492 118.699C229.613 117.946 229.686 117.303 229.674 116.817C229.674 116.465 229.686 116.222 229.71 115.979C229.771 115.189 229.771 114.497 229.443 112.93ZM228.496 123.023L229.674 123.473L228.095 124.408C228.241 123.946 228.374 123.473 228.496 123.023ZM205.88 113.683C205.832 113.695 205.783 113.707 205.722 113.72C203.147 114.448 201.714 117.728 201.508 120.558L189.556 120.376C190.236 116.562 192.994 109.007 195.192 105.752C196.99 103.092 199.589 100.651 200.743 99.6304C204.156 101.149 215.658 106.493 226.528 111.57C226.528 111.679 226.516 111.788 226.54 111.898C226.625 112.201 226.686 112.481 226.747 112.736L212.998 119.999C212.876 118.129 212.439 116.173 211.091 115.056C208.917 113.246 206.002 113.659 205.88 113.683ZM210.471 122.61L210.459 123.303C210.459 124.627 209.646 126.133 207.848 126.327C206.148 126.521 204.678 124.396 204.18 122.307C203.67 120.181 204.921 116.732 206.354 116.222C206.718 116.185 208.334 116.1 209.463 117.023C210.532 117.922 210.484 121.092 210.471 122.61ZM185.22 139.712L185.305 139.141C185.366 139.238 185.427 139.347 185.475 139.445L185.22 139.712ZM186.702 143.21L186.836 141.619C187.006 141.886 187.176 142.141 187.346 142.396L186.702 143.21ZM188.864 145.833V144.57C189.01 144.764 189.168 144.959 189.313 145.141L188.864 145.833ZM191.548 148.36L191.342 147.279C191.487 147.412 191.645 147.546 191.815 147.667L191.548 148.36ZM194.694 150.667L194.111 149.21C194.402 149.368 194.706 149.526 195.034 149.671L194.694 150.667ZM197.852 152.21L197.123 150.534C197.269 150.582 197.402 150.631 197.548 150.692C197.791 150.777 198.034 150.837 198.277 150.898L197.852 152.21ZM202.139 153.109L200.645 151.25C200.815 151.262 200.973 151.275 201.143 151.275C201.581 151.275 202.006 151.25 202.443 151.202L202.139 153.109ZM206.062 152.222L204.593 150.801C205.091 150.667 205.589 150.534 206.062 150.364V152.222ZM208.346 149.441C208.856 149.21 209.354 148.967 209.816 148.736L210.216 150.607L208.346 149.441ZM209.548 145.979C206.548 147.509 202.443 149.623 198.362 148.238C192.945 146.416 191.451 144.06 188.159 138.91L187.953 138.594C185.111 134.137 185.791 127.092 186.265 122.404L187.346 122.829C187.491 122.89 187.649 122.914 187.807 122.914L201.714 123.121C202.479 126.011 204.593 128.902 207.605 128.902C207.775 128.902 207.945 128.89 208.115 128.878C211.346 128.538 213.046 125.805 213.046 123.291V122.635C213.058 122.112 213.058 121.529 213.046 120.922L226.941 113.574C227.196 114.825 227.172 115.262 227.136 115.772C227.111 116.076 227.087 116.404 227.099 116.853C227.123 118.359 225.97 122.95 224.463 127.323C224.318 127.724 224.415 128.149 224.646 128.465C222.751 127.627 221.038 126.874 219.617 126.254C219.581 126.242 219.532 126.23 219.484 126.23C219.471 126.23 219.471 126.23 219.459 126.23C219.35 126.23 219.253 126.266 219.168 126.327H219.156L219.144 126.339L211.48 133.044C211.37 133.141 211.322 133.274 211.334 133.42L212.791 144.752C212.561 144.692 212.318 144.679 212.075 144.764C211.358 145.056 210.52 145.481 209.548 145.979ZM227.33 126.91L228.763 127.517L226.99 127.942C227.099 127.602 227.221 127.262 227.33 126.91ZM211.674 147.801C212.16 147.558 212.585 147.364 212.937 147.242C213.107 147.181 213.253 147.096 213.374 146.975L213.836 149.064L211.674 147.801ZM244.929 158.21C239.439 155.926 229.99 151.809 221.646 148.165C218.852 146.951 216.144 145.773 213.666 144.692L212.39 134.793C219.484 137.829 238.079 145.651 243.241 147.801C268.104 158.149 343.056 185.295 347.865 187.032L349.189 197.307C341.999 194.708 269.318 168.352 244.929 158.21ZM356.708 192.716L350.088 197.526L348.716 186.886L354.303 181.992L355.59 180.862L356.708 192.716ZM355.104 180.145L348.157 186.218C343.335 184.469 268.407 157.335 243.557 146.999C238.273 144.801 218.949 136.675 212.245 133.797L212.22 133.566L219.532 127.177C223.2 128.768 228.751 131.246 234.119 133.651C240.739 136.615 247.589 139.687 250.917 141.072C275.209 151.177 347.282 177.315 355.104 180.145ZM257.962 142.517C257.913 142.663 257.889 142.821 257.889 142.979C257.014 142.627 256.164 142.299 255.363 141.971C255.508 141.849 255.63 141.704 255.715 141.521C256.006 140.878 255.727 140.1 255.071 139.809L232.492 129.509C231.836 129.218 231.071 129.497 230.779 130.153C230.609 130.517 230.646 130.906 230.804 131.246C229.14 130.505 227.5 129.776 225.957 129.084L230.221 128.064C230.403 128.015 230.536 127.87 230.549 127.675C230.561 127.481 230.463 127.311 230.293 127.238L227.597 126.096C227.646 125.938 227.694 125.793 227.743 125.635L230.889 123.764C231.034 123.679 231.107 123.521 231.095 123.363C231.083 123.206 230.974 123.06 230.816 122.999L228.714 122.197V122.185L230.245 121.699C230.366 121.663 230.451 121.578 230.5 121.481C235.443 122.197 238.856 122.465 238.905 122.465C238.941 122.465 238.966 122.465 239.002 122.465C239.136 122.465 239.281 122.44 239.403 122.404L243.642 120.995C244.103 120.837 244.407 120.448 244.492 119.987C245.136 120.291 245.719 120.558 246.217 120.801C246.314 120.91 246.435 121.007 246.569 121.08C246.617 121.104 251.002 123.315 254.561 127.007C257.209 129.728 260.282 136.117 257.962 142.517ZM278.44 110.938C278.634 113.064 277.589 115.177 275.488 116.89C274.322 117.837 272.221 118.942 272.172 118.967L258.083 127.287C257.524 126.448 256.954 125.744 256.443 125.21C255.678 124.42 254.889 123.691 254.111 123.035C254.573 122.938 255.022 122.768 255.423 122.501C256.735 121.602 264.97 117.691 270.18 115.299C270.229 115.274 270.29 115.25 270.338 115.214C270.739 114.958 272.755 113.586 273.12 111.825C273.266 111.108 273.132 110.404 272.731 109.809C272.185 108.983 269.257 107.246 265.772 105.46L271.286 102.898C271.31 102.91 271.322 102.934 271.346 102.946C275.731 105.339 278.185 108.096 278.44 110.938ZM277.832 98.8895L264.788 104.962C259.699 102.424 253.784 99.9341 252.144 99.9341C252.12 99.9341 252.083 99.9341 252.059 99.9341C250.225 100.043 248.051 101.246 246.314 102.217C245.816 102.497 245.306 102.776 244.978 102.934C243.97 102.63 241.018 101.246 237.399 99.4604L270.387 88.6263H272.136C272.78 88.9663 276.593 91.0554 277.82 92.9744C278.962 94.7477 278.075 98.0879 277.832 98.8895ZM279.314 93.9583C279.241 93.9826 279.193 94.0433 279.132 94.0797C279.023 93.5089 278.853 92.9745 278.549 92.5129C278.476 92.4036 278.403 92.2943 278.318 92.185C278.33 92.1728 278.355 92.185 278.367 92.1729C278.901 91.9421 288.642 88.0433 293.367 86.1607L293.44 87.8489L279.314 93.9583ZM293.549 83.3428C293.476 83.355 293.403 83.3792 293.343 83.4035C292.723 83.6465 278.075 89.4886 277.347 89.8165C277.019 89.9623 276.788 90.2174 276.666 90.5332C275.865 89.8773 274.99 89.2943 274.237 88.8328L290.731 82.5897C291.193 82.4197 291.509 81.9946 291.557 81.5088C291.557 81.4966 291.557 81.4967 291.557 81.4845L294.205 83.2092L293.549 83.3428ZM297.071 90.8611L295.48 89.7558C295.857 89.5129 296.1 89.0878 296.075 88.6263L295.881 84.3752C295.881 84.3388 295.857 84.3145 295.857 84.2781L297.472 85.3347L297.071 90.8611ZM306.752 87.6182L297.922 90.9947L298.322 85.4076L306.788 82.5412C306.8 82.5412 306.812 82.5291 306.825 82.5169L306.752 87.6182ZM295.116 74.2334C295.577 74.0755 296.088 74.1362 296.513 74.3913L306.618 80.8408C306.788 80.9501 306.873 81.1201 306.849 81.3144V81.3266C306.825 81.5209 306.703 81.6788 306.509 81.7395L297.97 84.6303L286.565 77.2213L295.116 74.2334Z" fill="#707070"/>
<path d="M409.805 17.5257C409.805 17.5257 409.805 17.5136 409.805 17.5257C409.708 17.4286 409.611 17.3557 409.489 17.295C409.331 17.21 409.161 17.1735 408.991 17.1614L357.177 -3.68088C357.165 -3.69303 357.153 -3.69305 357.153 -3.7052C357.092 -3.75378 357.019 -3.79022 356.946 -3.82666C356.861 -3.87524 356.788 -3.91167 356.703 -3.93596C356.63 -3.96025 356.557 -3.96028 356.472 -3.97243C356.4 -3.98458 356.339 -4.00883 356.266 -3.99669C356.242 -3.99669 356.23 -3.98453 356.205 -3.98453C356.12 -3.97238 356.047 -3.94809 355.962 -3.9238C355.877 -3.89951 355.792 -3.87525 355.719 -3.83881C355.707 -3.82667 355.683 -3.82664 355.671 -3.8145L314.12 21.1574C314.12 21.1574 314.12 21.1695 314.108 21.1695C313.998 21.2302 313.925 21.3274 313.84 21.4124C313.804 21.4489 313.768 21.4732 313.743 21.5096C313.707 21.5704 313.683 21.6311 313.658 21.6918C313.61 21.7768 313.561 21.8618 313.537 21.959C313.525 21.9954 313.537 22.0197 313.537 22.0562C313.513 22.1898 313.5 22.3234 313.525 22.4691V22.4813C313.841 24.4003 315.237 43.4693 315.93 53.2467L317.545 84.5588C317.569 85.0325 317.861 85.4697 318.298 85.664C332.995 92.4414 355.331 102.826 356.618 103.676C357.881 104.66 364.962 105.158 370.683 105.413C370.707 105.413 370.72 105.413 370.744 105.413C370.768 105.413 370.792 105.413 370.805 105.413C370.829 105.413 370.853 105.401 370.878 105.389C370.999 105.377 371.12 105.34 371.23 105.304C371.278 105.28 371.315 105.267 371.363 105.243C371.4 105.219 371.436 105.219 371.473 105.195L410.983 77.8664C411.335 77.6235 411.554 77.2105 411.542 76.7733L410.194 18.4124C410.182 18.0602 410.036 17.7565 409.805 17.5257ZM408.7 66.2428L374.181 53.1982L407.874 30.5218L408.7 66.2428ZM371.23 52.0807L369.299 51.352L369.031 46.0564L373.258 43.4815L407.667 20.793L407.825 27.4489L371.23 52.0807ZM354.493 49.3601C354.736 49.3601 354.918 49.1657 354.918 48.935V34.4935L361.222 37.0806L361.513 56.2954L351.93 52.433L351.651 33.1696L354.043 34.1535V48.9471C354.068 49.1657 354.262 49.3601 354.493 49.3601ZM363.238 75.1943C363.189 75.2065 363.116 75.2308 363.019 75.2672C362.509 75.4615 361.124 75.9595 359.375 75.8745C359.157 75.8624 357.42 75.5223 355.853 75.1943C355.379 74.9636 352.889 73.7247 352.391 73.5668C351.966 73.4089 349.962 71.4777 349.804 70.9918C349.768 70.8947 349.707 70.8218 349.634 70.7732C349.817 70.6639 349.987 70.5667 350.169 70.4574C350.995 71.502 354.626 73.4089 355.622 73.6275L356.011 73.7125C357.59 74.0526 359.181 74.3927 359.715 74.417C359.8 74.417 359.873 74.417 359.958 74.417C361.719 74.417 363.845 73.8461 363.869 73.834C365.108 73.4696 366.566 72.8259 367.805 72.2186L367.865 73.5182C366.214 74.174 364.464 74.8421 363.238 75.1943ZM367.902 74.4291L367.963 75.668C366.857 76.251 365.946 76.7247 365.582 76.8704C362.958 77.9514 361.489 78.1579 360.08 78.1215C358.634 78.0851 352.61 76.081 351.177 75.0243C349.999 74.1498 349.355 72.4008 349.076 71.4777C349.549 72.3643 351.529 74.2227 352.124 74.417C352.464 74.5263 354.383 75.4615 355.513 76.0202C355.549 76.0324 355.586 76.0445 355.61 76.0567C356.157 76.1782 358.914 76.749 359.327 76.7733C359.472 76.7854 359.618 76.7854 359.764 76.7854C361.489 76.7854 362.801 76.2996 363.311 76.1174C363.384 76.0931 363.444 76.0688 363.481 76.0567C364.671 75.668 366.323 75.0485 367.902 74.4291ZM363.614 73.0081C363.59 73.0081 361.404 73.6153 359.728 73.5425C359.218 73.5303 357.165 73.0809 356.181 72.8623L355.792 72.7773C354.918 72.583 351.614 70.8097 350.885 69.9838C351.213 69.7651 351.553 69.5465 351.881 69.3157C353.047 70.2267 356.424 71.6963 357.42 71.7692C357.966 71.8056 359.302 71.8421 360.529 71.8421C361.464 71.8421 362.339 71.8177 362.715 71.757C364.452 71.4898 366.286 71.2469 367.732 71.0526L367.744 71.2591C366.456 71.9271 364.902 72.6315 363.614 73.0081ZM362.57 70.919C361.805 71.0404 358.477 70.9918 357.468 70.919C356.703 70.8582 353.752 69.5829 352.598 68.8056C352.877 68.5991 353.157 68.3926 353.424 68.1983C354.043 68.5627 355.246 69.0242 356.472 69.4615C356.667 69.5343 356.813 69.5829 356.885 69.6072C357.359 69.8016 360.833 69.9959 360.869 69.9959C364.076 69.9959 366.869 69.3036 367.622 69.0971L367.683 70.2145C366.214 70.3967 364.343 70.6517 362.57 70.919ZM360.881 66.4007C361.501 66.4007 363.08 66.0363 363.651 65.8906C363.991 66.1578 364.246 66.4007 364.404 66.6557C364.452 66.7286 364.549 66.8258 364.671 66.9351C363.687 67.1416 361.294 67.5181 358.744 66.8501C358.149 66.6922 357.116 66.3279 356.4 65.9149C356.728 65.672 357.043 65.4412 357.347 65.2347C358.161 65.8663 360.311 66.4007 360.881 66.4007ZM358.124 64.7246C359.181 64.093 360.068 63.7772 360.639 64.093C361.452 64.5424 362.108 64.9068 362.643 65.2347C361.962 65.3805 361.197 65.5384 360.869 65.5384C360.347 65.5384 358.817 65.0889 358.124 64.7246ZM358.513 67.676C359.691 67.9797 360.833 68.089 361.829 68.089C363.845 68.089 365.303 67.6639 365.388 67.6396C365.424 67.6274 365.46 67.6031 365.497 67.5788C365.849 67.8339 366.262 68.1133 366.724 68.4169C365.558 68.6841 363.311 69.1214 360.881 69.1214C360.541 69.1092 357.554 68.9027 357.213 68.7934C357.141 68.7691 356.983 68.7084 356.776 68.6356C356.169 68.4169 354.918 67.9676 354.189 67.6153C354.383 67.4696 354.59 67.3116 354.772 67.1659C355.076 66.9351 355.367 66.7043 355.659 66.4736C356.509 67.0444 357.869 67.506 358.513 67.676ZM365.12 66.1821C364.574 65.3319 363.554 64.7246 361.367 63.5221C361.574 63.4493 361.768 63.3521 361.914 63.1942L367.027 57.6557L367.562 67.9554C366.214 67.0687 365.278 66.4007 365.12 66.1821ZM360.991 60.3885C360.311 59.6112 359.643 58.8096 359.023 58.0687L362.023 59.2832L360.991 60.3885ZM354.432 56.1982C355.404 57.8743 358.222 61.1415 359.983 63.1334C358.477 63.2185 356.557 64.676 354.25 66.4736C352.452 67.8582 350.424 69.4371 348.311 70.5424C348.14 70.6274 348.055 70.8218 348.092 71.004C348.116 71.1376 348.772 74.2834 350.679 75.6923C352.221 76.834 358.489 78.9231 360.08 78.9595C360.177 78.9595 360.274 78.9595 360.371 78.9595C361.792 78.9595 363.347 78.7044 365.922 77.6478C366.262 77.5141 367.052 77.1012 368.023 76.5911L368.825 92.0771L321.019 71.8906L349.841 54.2549C349.938 54.3399 350.06 54.4127 350.193 54.4735L354.432 56.1982ZM367.027 44.2466C366.979 44.2831 366.942 44.3317 366.894 44.3681C366.821 44.4288 366.748 44.4774 366.699 44.5503C366.651 44.611 366.614 44.6839 366.578 44.7568C366.541 44.8297 366.505 44.9025 366.481 44.9754C366.456 45.0604 366.444 45.1455 366.444 45.2426C366.444 45.3033 366.42 45.3519 366.42 45.4127L366.857 53.7933L364.124 55.7366L363.857 38.1373L371.776 41.3803L367.027 44.2466ZM407.801 17.6108L391.295 28.4935L358.586 15.2059L357.639 -2.57566L407.801 17.6108ZM355.78 10.8942L355.95 14.1249L352.719 12.8132L355.78 10.8942ZM355.161 -0.498702L355.61 7.94267L349.756 11.6107L340.95 8.02772L355.161 -0.498702ZM338.193 9.69166L388.683 30.2061L384.469 32.9875L334.549 11.8779L338.193 9.69166ZM381.882 34.7L374.363 39.6555L363.007 35.0158H362.995L350.837 30.0481L333.784 23.0764L333.152 14.1128L381.882 34.7ZM316.16 22.9307L330.565 14.2707L331.209 23.2586L316.95 32.2101C316.634 28.1534 316.343 24.6189 316.16 22.9307ZM318.492 53.0767C318.444 52.4208 317.8 43.3236 317.168 35.1251L332.679 25.3841L349.063 32.0887L349.343 51.5342L319.355 69.8744L318.492 53.0767ZM358.185 101.624C356.983 100.701 329.606 88.0325 320.071 83.6357L319.731 77.0769L355.221 92.8544L355.282 97.652C355.282 97.8221 355.392 97.98 355.549 98.0407L362.351 100.931C362.4 100.956 362.46 100.968 362.521 100.968C362.606 100.968 362.691 100.944 362.764 100.895C362.886 100.81 362.958 100.676 362.958 100.531V95.1621C362.958 94.9799 362.849 94.822 362.679 94.7613L355.817 92.1621C355.792 92.1499 355.768 92.1621 355.756 92.15L319.707 76.1174L319.61 74.1134L368.983 94.9556L369.384 102.753C364.355 102.498 358.987 102 358.185 101.624ZM356.084 93.1824L362.084 95.4536V99.8868L356.145 97.3605L356.084 93.1824ZM370.307 70.8825C370.355 70.8583 370.416 70.8218 370.452 70.7975C370.999 71.1376 371.533 71.4655 372.031 71.7692C371.74 71.8906 371.157 72.1457 370.392 72.4737L370.307 70.8825ZM370.428 73.3846C371.618 72.8866 372.481 72.5101 372.578 72.4615C372.687 72.4129 372.76 72.3279 372.797 72.2307C373.039 72.3765 373.282 72.5222 373.489 72.6559C372.809 73.0324 371.679 73.6518 370.477 74.2955L370.428 73.3846ZM371.375 91.7249L370.525 75.2672C372.517 74.1862 374.412 73.1417 374.558 73.0688C374.691 72.9959 374.776 72.8502 374.776 72.7044C374.776 72.5465 374.703 72.4008 374.57 72.3279C373.294 71.5627 371.971 70.749 370.732 69.9838C370.72 69.9716 370.695 69.9594 370.683 69.9594C370.525 69.8623 370.38 69.7651 370.234 69.6801L369.541 56.3439L371.546 54.9957L406.101 68.0525L371.375 91.7249ZM371.898 101.745L371.533 94.7492L408.773 69.34L408.93 76.1295L371.898 101.745Z" fill="#707070"/>
<path d="M127.466 8.7774C127.394 8.47375 127.236 8.2187 127.041 8.00007C127.017 7.97578 126.993 7.95147 126.968 7.91503C126.932 7.87859 126.908 7.85432 126.871 7.81789C125.705 6.72476 120.968 3.96762 120.082 3.48179C119.049 2.92308 117.847 2.76516 116.705 3.03237L74.9356 12.907C73.7331 13.2714 72.9194 13.9637 72.4943 14.9718C71.8505 16.49 72.2999 18.3726 72.9436 19.6236C73.2594 20.2431 73.4538 20.7289 73.5631 21.2026L78.3121 40.9396C78.3485 41.0732 78.4336 41.1825 78.5672 41.2311L87.2636 44.8263C87.2758 44.8263 87.2879 44.8263 87.2879 44.8263C87.5065 44.9356 87.7737 44.9963 88.0652 44.9963C88.126 44.9963 88.1867 44.9964 88.2596 44.9842C88.7333 44.9356 94.8548 43.4903 109.369 39.9923C117.81 37.9518 122.815 36.0205 125.499 34.9881C126.057 34.7695 126.519 34.5995 126.871 34.4659C129.956 33.3728 131.523 31.5995 131.28 29.4861C131.025 27.2634 128.681 13.49 127.466 8.7774ZM75.1542 13.745L116.9 3.88258C117.835 3.66395 118.819 3.78541 119.669 4.24695C121.26 5.10931 123.507 6.49394 124.964 7.46561C116.863 9.2632 82.7696 18.3726 82.1138 18.6398C81.9923 18.6884 81.9073 18.7856 81.8223 18.8585L73.5145 14.9353C73.8546 14.3766 74.4133 13.9637 75.1542 13.745ZM79.1016 40.5267L74.4011 21.0082C74.2675 20.4738 74.0489 19.903 73.7088 19.235C73.2351 18.3119 72.8465 16.8908 73.1501 15.7127L81.3 19.5629C80.8749 20.8868 81.5672 23.0852 81.7615 23.6682L86.2191 43.4781L79.1016 40.5267ZM126.604 33.6643C126.24 33.7979 125.778 33.9679 125.207 34.1987C122.535 35.2311 117.568 37.1501 109.175 39.1785C103.624 40.5145 88.8669 44.0854 88.1867 44.1583C87.4337 44.219 87.1422 43.5874 87.13 43.5874L82.6118 23.4739C82.6118 23.4617 82.5996 23.4375 82.5996 23.4253C82.1016 21.9921 81.7008 19.7329 82.4174 19.4414C83.3162 19.1256 118.078 9.84624 125.414 8.24299C125.487 8.23084 125.56 8.21868 125.632 8.21868C126.094 8.21868 126.507 8.52231 126.628 8.996C127.843 13.6964 130.175 27.3849 130.442 29.6075C130.685 31.7574 128.487 32.9962 126.604 33.6643Z" fill="#707070"/>
<path d="M106.965 20.2184C104.244 20.7043 102.41 21.7245 101.499 23.2549C101.074 23.9837 100.879 24.8339 100.879 25.757C100.879 25.7934 100.867 25.842 100.855 25.8784C100.843 25.9513 100.867 26.0242 100.892 26.0849C100.928 26.7408 101.037 27.4331 101.28 28.1497C101.924 30.0445 104.463 30.8097 107.074 30.8097C108.361 30.8097 109.661 30.6153 110.754 30.2874C111.313 30.1174 111.774 29.8258 112.175 29.4615C112.236 29.425 112.284 29.3765 112.309 29.3157C112.539 29.0728 112.746 28.8056 112.904 28.5019C113.863 26.6558 113.463 24.1051 113.11 23.012C112.6 21.3966 109.6 19.7448 106.965 20.2184ZM107.11 21.0686C107.669 20.9715 108.252 20.9837 108.823 21.093C109.224 21.676 109.782 23.5343 109.029 24.2873C108.446 24.8703 107.705 25.1983 107.244 25.3683C107.013 24.3359 106.284 23.2549 104.948 22.8298C104.256 22.599 103.661 22.5748 103.163 22.6719C104.062 21.9067 105.386 21.3723 107.11 21.0686ZM102.106 27.8825C101.851 27.1537 101.742 26.4736 101.73 25.8542C101.803 25.344 102.045 24.5424 102.386 24.0444C102.689 23.595 103.454 23.2549 104.669 23.6436C105.823 24.0201 106.382 25.0525 106.442 25.9149C106.394 26.255 106.199 27.9189 107.402 28.9878C107.936 29.4615 108.483 29.7044 109.078 29.8137C106.102 30.2874 102.726 29.6679 102.106 27.8825ZM112.151 28.1132C112.029 28.344 111.884 28.5384 111.714 28.7205C109.916 29.1092 108.932 29.1821 107.973 28.3319C107.268 27.7125 107.244 26.7165 107.268 26.255C107.778 26.0971 108.811 25.6962 109.624 24.8946C110.487 24.0322 110.329 22.4898 109.928 21.4088C111.131 21.8703 112.09 22.6355 112.297 23.2792C112.649 24.3602 112.916 26.6436 112.151 28.1132Z" fill="#707070"/>
<path d="M78.5068 28.1861C78.4583 27.9553 78.2154 27.8095 77.9967 27.8703C77.766 27.9188 77.6202 28.1496 77.6809 28.3804L79.9644 38.2064C80.0129 38.4007 80.183 38.5344 80.3773 38.5344C80.4137 38.5344 80.438 38.5343 80.4745 38.5222C80.7052 38.4736 80.851 38.2428 80.7903 38.012L78.5068 28.1861Z" fill="#707070"/>
<path d="M106.734 16.2589C103.588 16.3196 100.649 18.348 99.2399 19.3318C96.6528 21.1294 95.499 27.8582 97.9038 31.5384C99.6407 34.1983 103.187 34.757 106.321 34.757C107.657 34.757 108.932 34.6599 109.953 34.5748C112.977 34.3319 115.442 31.9514 116.754 29.8015C117.872 27.9675 117.774 22.7326 116.572 20.1334C115.09 16.9269 109.515 16.186 106.734 16.2589ZM114.556 28.4533C113.621 29.9837 111.811 31.8299 109.649 31.9999C107.074 32.2064 101.718 32.6315 100.066 30.1173C98.3411 27.4816 99.4463 22.3197 100.709 21.4452C101.912 20.6192 104.414 18.8824 106.782 18.8338C106.88 18.8338 106.965 18.8338 107.062 18.8338C109.989 18.8338 113.56 19.7812 114.228 21.2144C115.2 23.3156 115.066 27.6153 114.556 28.4533Z" fill="#707070"/>
<path d="M125.669 13.927C125.56 13.8541 125.438 13.842 125.317 13.8784L118.576 15.761C118.357 15.8218 118.224 16.0525 118.272 16.2833C118.673 17.8987 119.256 19.6598 119.268 19.672C119.329 19.8541 119.487 19.9635 119.681 19.9635C119.693 19.9635 119.693 19.9635 119.705 19.9635C120.288 19.9271 123.24 19.7449 123.884 19.4777C124.491 19.2226 126.167 18.4574 126.167 18.4574C126.337 18.3724 126.446 18.1902 126.41 18.008L125.851 14.2185C125.839 14.097 125.766 13.9877 125.669 13.927ZM123.543 18.6882C123.203 18.8339 121.357 19.004 119.973 19.089C119.815 18.5789 119.487 17.5343 119.207 16.4776L125.074 14.8379L125.511 17.8137C125.013 18.0444 123.993 18.4939 123.543 18.6882Z" fill="#707070"/>
<path d="M84.4217 16.4777C84.8104 16.5627 85.1505 16.5991 85.4784 16.5991C85.9157 16.5991 86.3408 16.5263 86.8752 16.3684C87.944 16.0647 88.7943 15.4696 89.2072 14.7408C89.4623 14.2793 89.5351 13.8056 89.4015 13.3562C88.9764 11.8744 87.9076 11.1821 86.4865 11.4372L86.1222 11.4979C84.5189 11.7772 82.8671 12.0809 82.4663 13.0404C82.4177 13.1619 82.3812 13.3076 82.3448 13.4534C82.1019 14.8259 83.025 16.174 84.4217 16.4777ZM83.195 13.6234C83.2072 13.5262 83.2314 13.4412 83.2679 13.3805C83.4865 12.8582 85.1748 12.5546 86.2801 12.3602L86.6444 12.2995C86.7902 12.2752 86.9238 12.263 87.0453 12.263C87.7983 12.263 88.3205 12.7125 88.5756 13.6112C88.6606 13.8906 88.5513 14.1578 88.4542 14.34C88.1627 14.8744 87.4825 15.336 86.6323 15.5667C85.8185 15.7975 85.357 15.8218 84.5918 15.6518C83.6566 15.4332 83.025 14.5222 83.195 13.6234Z" fill="#707070"/>
<path d="M91.1507 12.2386C91.1871 12.2386 91.2235 12.2386 91.26 12.2264L94.0414 11.4613C94.2721 11.4005 94.4057 11.1576 94.345 10.9268C94.2843 10.696 94.0535 10.5624 93.8106 10.6231L91.0292 11.3884C90.7984 11.4491 90.6648 11.692 90.7256 11.9228C90.7863 12.1171 90.9563 12.2386 91.1507 12.2386Z" fill="#707070"/>
<path d="M91.8427 13.8053C91.9034 13.9875 92.0734 14.109 92.2556 14.109C92.2921 14.109 92.3407 14.1089 92.3771 14.0846L95.5107 13.1251C95.7415 13.0522 95.8629 12.8093 95.8022 12.5907C95.7293 12.3599 95.4864 12.2385 95.2678 12.2992L92.1342 13.2587C91.9034 13.3316 91.782 13.5745 91.8427 13.8053Z" fill="#707070"/>
<path d="M108.228 9.29924C108.264 9.29924 108.301 9.29923 108.337 9.28708L111.179 8.52192C111.41 8.46119 111.544 8.2183 111.483 7.99967C111.422 7.7689 111.191 7.63529 110.961 7.69602L108.118 8.46119C107.888 8.52192 107.754 8.76481 107.815 8.98344C107.863 9.17777 108.046 9.29924 108.228 9.29924Z" fill="#707070"/>
<path d="M60.0693 37.6723C60.373 37.7087 60.6888 37.7209 61.0046 37.7209C62.4378 37.7209 63.9074 37.3808 65.3285 36.737L65.6443 36.5913C66.2152 36.3363 66.786 36.069 66.8953 35.4982C66.9196 35.4375 66.9439 35.3767 66.9439 35.316V33.0325C67.867 33.0083 68.2678 32.8382 68.4257 32.6682L68.4379 32.6561L68.45 32.6439C68.4621 32.6318 68.4743 32.6075 68.4864 32.5832C68.4986 32.5589 68.5107 32.5346 68.5229 32.5103C68.5593 32.4253 68.5715 32.3402 68.5593 32.2552V22.2106C68.5593 22.1863 68.5472 22.162 68.5472 22.1377C68.5472 22.1135 68.535 22.0891 68.535 22.0527C68.5229 22.0284 68.5107 22.0041 68.4986 21.9798C68.4864 21.9555 68.4743 21.9313 68.45 21.907C68.4257 21.8827 68.4136 21.8705 68.3893 21.8584C68.365 21.8462 68.3407 21.8219 68.3164 21.8098C68.2921 21.7976 68.2557 21.7977 68.2314 21.7855C68.2071 21.7855 68.1949 21.7734 68.1706 21.7734C68.1706 21.7734 67.1261 21.7126 65.7293 21.6883C61.9277 21.6276 59.5835 21.8827 58.8062 22.4535C57.8953 23.1216 57.3487 23.9717 57.2758 24.8462C57.2758 24.8584 57.2758 24.8827 57.2758 24.8948C57.2758 24.9191 57.2637 24.9313 57.2637 24.9555V34.3443C57.2637 35.7897 57.2637 36.0204 57.9195 36.8099C58.2718 37.2715 58.9884 37.5508 60.0693 37.6723ZM67.6848 22.6114V32.073C67.5512 32.1095 67.3204 32.1459 66.9318 32.1581V25.2228C67.3083 24.2754 67.0897 23.2673 66.7374 22.6357C66.7253 22.6114 66.7131 22.5872 66.701 22.575C67.114 22.5872 67.4419 22.5993 67.6848 22.6114ZM59.2799 23.1458C59.4863 23.0001 60.458 22.5385 64.6119 22.5385C64.8913 22.5385 65.1706 22.5385 65.4743 22.5385C65.4985 22.5507 65.535 22.5629 65.5593 22.575C65.6079 22.5872 65.8265 22.745 66.0208 23.1216C66.1301 23.3523 66.4824 24.1661 66.1058 25.0042C66.0573 25.1135 65.7172 25.4536 65.0127 25.7815C63.3973 26.5345 61.6848 26.8382 60.0815 26.6317C59.1098 26.5103 58.6969 26.2795 58.539 26.0973C58.211 25.7451 58.0653 25.3442 58.1017 24.907C58.1503 24.3118 58.5876 23.6681 59.2799 23.1458ZM58.0896 26.8503C58.4904 27.1783 59.1098 27.3969 59.9722 27.5062C60.3366 27.5548 60.7009 27.5669 61.0653 27.5669C62.4985 27.5669 63.9803 27.2269 65.3892 26.571C65.6443 26.4495 65.8751 26.3159 66.0815 26.1823V35.316C66.0815 35.4618 65.6686 35.6439 65.3042 35.8018L64.9763 35.9476C63.3973 36.6763 61.7333 36.98 60.1787 36.8099C59.0856 36.6885 58.709 36.4091 58.5754 36.2512C58.1139 35.6925 58.1139 35.6925 58.1139 34.3322V26.8503H58.0896Z" fill="#707070"/>
<path d="M60.9925 25.8787C61.2354 26.0002 62.0249 26.073 62.5593 26.073C62.7415 26.073 62.8994 26.0609 62.9844 26.0366C63.8589 25.8301 64.0897 25.2107 64.1383 24.7248C64.1626 24.4698 63.8468 23.5467 63.4581 23.3281C63.0816 23.1216 62.4986 23.073 62.4014 23.0609C61.9034 23.0002 60.5917 22.8665 60.3609 24.1419C60.1788 25.0892 60.6524 25.7087 60.9925 25.8787ZM61.199 24.324C61.2354 24.1419 61.2719 23.9111 61.9035 23.9111C62.0249 23.9111 62.1585 23.9232 62.3164 23.9354H62.3286C62.4865 23.9475 62.8751 23.9961 62.9966 24.069C63.0816 24.1661 63.2517 24.5912 63.276 24.6641C63.2395 25.0285 63.0695 25.1378 62.778 25.2107C62.5715 25.2471 61.5512 25.1743 61.369 25.1135C61.3204 25.0771 61.1018 24.8099 61.199 24.324Z" fill="#707070"/>
</svg>
