<svg width="283" height="239" viewBox="0 0 283 239" fill="none" xmlns="http://www.w3.org/2000/svg">
<path d="M280.803 126.045C280.529 117.781 280.094 116.601 273.367 114.379C270.072 113.291 264.558 111.462 255.612 106.717C254.559 106.162 253.255 106.463 252.546 107.412C250.921 109.587 250.12 109.958 250.143 110.027C249.754 109.796 248.976 108.592 248.45 107.805C246.917 105.467 244.812 102.25 240.877 101.694C237.49 101.208 233.692 102.805 229.025 106.694C225.455 105.791 219.941 106.023 216.28 107.18C215.823 106.046 215.319 104.333 214.953 103.06C213.603 98.4772 212.23 93.7089 208.867 92.3664C208.547 92.2507 208.226 92.1813 207.883 92.1813C197.656 92.5285 197.495 91.4636 196.214 84.589C195.871 82.7142 195.436 80.3765 194.727 77.7147C194.613 77.3212 194.429 76.974 194.155 76.6731C185.643 67.4376 173.837 74.3121 168.208 77.8304C160.749 77.5295 155.258 78.5941 151.483 81.0476C148.737 77.159 144.024 70.4697 139.951 64.7293L202.644 1.40037C202.964 1.07632 202.964 0.567091 202.644 0.243039C202.323 -0.081013 201.82 -0.081013 201.5 0.243039L139.013 63.3869C135.444 58.3409 132.629 54.3596 132.561 54.267C132.286 53.8967 131.783 53.8041 131.44 54.0819C131.074 54.3365 130.982 54.8458 131.257 55.2162C131.325 55.3319 134.231 59.4287 137.869 64.5672L109.795 92.8987C106.523 91.9497 102.793 91.2553 98.9037 90.6535C99.7274 87.8064 100.391 85.6308 100.597 85.1216C101.489 83.0615 107.369 50.3785 107.644 45.8418C107.667 45.3789 107.324 45.0086 106.889 44.9623C106.386 44.8697 106.065 45.2863 106.02 45.7261C105.699 50.6563 99.796 82.8763 99.1096 84.4502C98.8579 85.0289 98.1486 87.3899 97.2791 90.399C94.8767 90.0518 92.4056 89.7508 89.9803 89.4268C82.956 88.5472 76.2978 87.7139 72.2251 86.1862C71.8361 86.0474 71.4014 86.0011 70.9895 86.0705C64.3771 87.1584 60.0298 89.7276 58.0621 93.7319C56.8952 96.0929 56.6664 98.7085 57.0325 101.463C49.7107 99.1483 36.5774 95.0978 34.6326 94.4959C34.1978 94.3571 33.7401 94.6115 33.6257 95.0513C33.4884 95.4911 33.7402 95.931 34.1749 96.0699C41.6568 98.3845 51.8386 101.533 57.3757 103.292C58.1536 106.833 59.801 110.56 61.6772 114.24C60.0298 117.11 57.0324 119.795 53.8749 122.596C47.6514 128.128 40.65 134.354 43.3728 143.844C37.218 149.052 35.0214 155.718 37.5154 162.014C39.8034 167.778 45.5693 171.805 52.3877 172.824C51.2665 174.027 47.0795 178.171 42.6178 182.592C35.6164 189.536 27.654 197.405 26.693 198.702C25.0456 200.901 9.39537 218.423 0.243196 227.45C-0.0771305 227.774 -0.0771529 228.283 0.220293 228.607C0.380456 228.769 0.58638 228.862 0.792304 228.862C0.998228 228.862 1.20415 228.792 1.36431 228.63C10.5622 219.534 26.3041 201.896 27.9743 199.697C28.8667 198.517 37.1265 190.346 43.7389 183.772C49.6421 177.916 53.3029 174.305 53.8749 173.588C53.9664 173.472 54.1495 173.287 54.3783 173.032C55.8884 173.125 57.4444 173.078 59.0002 172.87C59.2748 172.824 59.5493 172.755 59.7781 172.616C62.7297 171.088 67.0312 173.356 71.1725 175.578C74.6732 177.453 77.9452 179.212 81.1484 179.143C81.8348 179.12 82.4984 178.819 82.956 178.287C84.3059 176.713 89.5227 175.509 92.9777 174.699C95.403 174.143 97.508 173.657 98.9037 173.032C99.3384 172.847 99.7045 172.523 99.9562 172.106C102.382 168.241 107.095 165.301 111.648 164.792C114.028 164.537 117.391 164.792 119.977 167.361C123.683 171.829 127.436 171.898 129.746 171.898C130.318 171.898 131.051 171.898 131.142 171.898C131.257 172.06 131.829 173.102 131.485 178.425C131.463 178.888 131.554 179.374 131.783 179.768C133.179 182.291 134.895 183.749 136.267 184.906C138.052 186.388 139.036 187.244 139.082 189.906C131.874 192.892 123.775 196.225 122.059 196.85C120.869 197.267 116.956 198.771 112.266 200.553C103.983 203.701 93.6869 207.636 90.8726 208.562C90.4379 208.701 90.2091 209.164 90.3464 209.604C90.4608 209.951 90.7811 210.159 91.1243 210.159C91.2159 210.159 91.2845 210.136 91.376 210.113C94.2132 209.164 104.532 205.229 112.815 202.081C117.505 200.299 121.395 198.817 122.562 198.401C124.255 197.799 131.806 194.674 139.036 191.688C139.082 192.221 139.242 192.73 139.608 193.123C140.889 194.559 142.582 195.762 144.39 197.058C145.145 197.591 145.877 198.123 146.586 198.679C146.358 198.632 146.175 198.609 145.969 198.609C145.877 198.586 145.786 198.609 145.717 198.609C144.962 198.679 144.093 198.841 143.154 198.979C140.775 199.373 137.137 199.998 136.039 198.864C135.284 198.077 134.094 197.915 133.133 198.447C132.172 198.98 131.691 200.091 131.943 201.155C133.201 206.618 129.335 213.979 124.85 217.937C124.461 218.284 124.187 218.747 124.072 219.279C123.02 224.209 124.827 226.547 126.498 227.635C130.57 230.297 137.686 227.589 141.415 225.204C141.713 225.274 141.987 225.367 142.308 225.436C144.962 226.153 150.499 227.681 152.146 222.08C152.284 221.617 152.284 221.131 152.146 220.691C151.849 219.626 151.757 219.071 151.735 218.816C151.986 218.677 152.398 218.469 152.764 218.307C153.428 217.983 154.229 217.613 155.121 217.08C155.304 216.988 155.464 216.849 155.601 216.71C157.363 214.997 158.736 212.289 160.177 209.442C161.825 206.178 163.907 202.128 165.966 201.549C166.218 201.479 166.95 201.271 168.369 202.174C168.758 202.405 169.192 202.544 169.627 202.544C169.65 202.544 169.65 202.544 169.673 202.544C170.931 202.544 172.19 201.989 173.494 201.225C173.036 202.891 173.036 204.535 173.86 205.947C176.034 209.604 181.708 208.886 187.725 208.099C189.945 207.822 193.4 207.382 195.002 207.59C187.314 213.724 184.957 216.825 185.712 219.649C186.49 222.519 189.716 222.936 193.148 223.376C196.191 223.77 199.967 224.256 201.088 226.223C202.049 227.89 201.179 230.806 200.287 232.936C199.898 233.861 200.104 234.903 200.813 235.62C203.01 237.843 205.572 239 208.341 239C208.844 239 209.37 238.954 209.897 238.884C215.068 238.097 219.209 233.723 221.383 229.926C222.138 229.533 223.076 229.14 224.037 228.746C226.393 227.774 229.002 226.709 230.832 224.718C231.61 224.834 232.686 225.158 233.601 225.436C236.529 226.316 240.167 227.404 243.073 225.274C243.439 224.996 243.714 224.649 243.897 224.209C244.103 223.677 245.041 222.381 245.865 221.223C248.679 217.289 251.859 212.821 250.647 209.095C250.258 207.937 249.297 206.41 246.871 205.669C246.665 205.599 246.46 205.576 246.254 205.553C243.05 205.391 239.618 207.011 236.209 208.562C234.379 209.396 232.342 210.298 230.809 210.692C228.178 206.34 223.396 205.437 219.461 204.72C217.996 204.442 216.623 204.188 215.434 203.817C218.431 202.336 221.062 200.091 223.625 197.915C226.302 195.646 228.842 193.494 231.679 192.198C231.953 192.082 232.205 191.897 232.411 191.688C234.768 189.281 234.928 189.281 236.941 189.327C237.857 189.35 239.001 189.374 240.579 189.235C241.38 189.165 242.112 188.702 242.501 187.985C244.011 185.3 245.613 184.791 248.519 183.888C250.258 183.355 252.225 182.731 254.514 181.527C254.582 181.481 254.651 181.458 254.719 181.411C264.833 174.699 265.794 171.481 266.045 167.662C266.205 165.324 266.388 162.662 281.787 153.566C282.634 153.057 283.114 152.085 282.977 151.112C281.238 138.359 280.963 130.651 280.803 126.045ZM173.86 122.735C172.762 121.253 171.343 119.193 171.343 117.758C171.343 116.138 172.693 115.444 173.242 115.444C173.677 115.444 174.272 115.768 174.729 116.23C175.21 116.74 175.462 117.365 175.439 117.943C175.393 118.939 174.524 121.161 173.86 122.735ZM133.499 141.669C132.744 140.858 131.737 140.372 130.845 140.372C130.845 140.372 130.845 140.372 130.822 140.372C129.678 140.372 128.122 141.321 127.55 143.011C123.889 140.72 111.099 132.734 109.566 131.6C108.536 130.836 103.526 126.184 99.4757 122.411C96.4326 119.564 93.8014 117.11 92.9777 116.439C92.7489 116.254 92.4742 116.254 92.1996 116.346C92.4513 115.744 92.7717 114.981 93.0692 114.194C93.1149 114.217 93.1378 114.24 93.1836 114.24C94.4191 114.564 103.434 114.657 116.018 114.772C121.487 114.819 126.223 114.865 127.367 114.934C130.433 115.119 161.596 120.073 161.916 120.119L170.634 121.554C170.68 121.554 170.725 121.554 170.771 121.554C170.863 121.554 170.954 121.485 171.046 121.462C171.503 122.226 172.029 122.966 172.51 123.637C172.35 123.637 172.213 123.66 172.075 123.753C171.915 123.846 155.533 134.262 153.062 135.396C150.499 136.576 137.022 144.33 134.368 146.043C134.506 145.511 134.62 144.979 134.643 144.585C134.712 143.567 134.3 142.525 133.499 141.669ZM131.462 149.33C130.364 147.849 128.946 145.789 128.946 144.354C128.946 142.733 130.296 142.039 130.845 142.039C131.28 142.039 131.874 142.363 132.332 142.826C132.813 143.335 133.064 143.96 133.041 144.539C132.995 145.557 132.126 147.756 131.462 149.33ZM92.3598 110.814C92.3141 111.833 91.4447 114.055 90.7811 115.605C89.6829 114.124 88.2643 112.064 88.2643 110.629C88.2643 109.009 89.6142 108.314 90.1633 108.314C90.598 108.314 91.1929 108.638 91.6505 109.101C92.131 109.611 92.3827 110.236 92.3598 110.814ZM91.1014 139.331C91.2616 138.451 91.3302 134.632 91.4446 128.429C91.5362 123.892 91.6048 119.24 91.742 117.411C91.742 117.388 91.7649 117.365 91.7649 117.365C91.8107 117.48 91.8336 117.619 91.948 117.712C92.726 118.36 95.4715 120.929 98.3774 123.637C102.656 127.619 107.484 132.132 108.605 132.942C110.321 134.192 124.873 143.289 127.344 144.84C127.458 145.742 127.847 146.714 128.351 147.663C126.612 147.432 111.053 145.441 108.033 145.233C106.546 145.14 102.862 145.094 98.9723 145.071C95.38 145.048 91.6734 145.002 89.7286 144.909C90.1633 143.405 90.8955 140.557 91.1014 139.331ZM170.222 119.841L162.191 118.522C160.91 118.314 130.639 113.499 127.481 113.314C126.292 113.245 121.784 113.198 116.064 113.152C107.575 113.083 94.7623 112.967 93.6183 112.666C93.7784 112.134 93.8699 111.671 93.9386 111.231L107.621 97.4123C110.138 98.0836 112.357 98.8705 114.005 99.8658C114.92 100.421 116.11 100.282 116.888 99.5649C119.107 97.4817 129.312 96.3938 133.064 98.3612C133.773 98.7316 134.62 98.7085 135.329 98.3382C137.983 96.88 144.001 97.3661 147.319 98.2688C148.097 98.4771 148.943 98.2919 149.538 97.7595C150.156 97.2271 150.453 96.4171 150.362 95.6069C149.881 91.5331 150.545 88.5704 152.444 86.5104C152.581 86.3484 152.764 86.2324 152.924 86.0936C156.288 91.6487 169.444 115.004 169.581 115.258C169.741 115.536 169.993 115.675 170.291 115.675C170.291 115.675 170.291 115.675 170.314 115.675C169.97 116.254 169.742 116.925 169.742 117.758C169.742 118.406 169.924 119.124 170.222 119.841ZM138.784 65.933C142.811 71.6039 147.456 78.1775 150.156 82.0199C149.721 82.3902 149.286 82.7606 148.92 83.1541C146.632 85.6308 145.465 88.8713 145.397 92.8757C142.125 92.3896 137.572 92.158 134.162 93.5005C129.22 91.7413 119.839 92.158 115.103 94.8893C114.028 94.3569 112.815 93.894 111.557 93.4774L138.784 65.933ZM105.791 96.9494L93.6641 109.194C93.6641 109.171 93.6412 109.148 93.6412 109.148C93.7098 109.055 93.7784 108.986 93.8242 108.893C94.6479 105.884 96.158 100.398 97.5765 95.4449C100.414 95.8615 103.228 96.3476 105.791 96.9494ZM62.4323 95.9541C63.6221 93.5469 66.5507 91.9034 71.1725 91.047C75.7486 92.621 82.384 93.4543 89.3625 94.3339C91.5133 94.6116 93.7098 94.8894 95.9063 95.1903C94.4649 100.283 93.0005 105.629 92.4513 107.62C91.7421 107.018 90.9184 106.648 90.1633 106.648C90.1633 106.648 90.1633 106.648 90.1404 106.648C88.7218 106.648 86.6626 108.06 86.6397 110.606C86.6397 110.745 86.6627 110.907 86.6855 111.046C86.6169 110.791 86.4338 110.56 86.1592 110.467C77.5333 107.875 64.8347 104.009 62.3636 103.199C61.6314 100.468 61.4713 97.9216 62.4323 95.9541ZM42.0229 160.186C40.2153 155.603 42.2746 150.696 47.6744 146.715C48.5667 146.043 48.9099 144.863 48.498 143.798C45.7981 137.016 49.9395 132.665 57.1011 126.299C60.8535 122.966 64.7432 119.494 66.6423 115.258C66.9626 114.564 66.9396 113.754 66.5736 113.083C65.2007 110.467 63.8966 107.736 62.9814 105.12C68.1066 106.74 83.6653 111.439 85.7245 112.064C85.7932 112.087 85.8847 112.087 85.9533 112.087C86.2965 112.087 86.6168 111.856 86.7312 111.509C86.7541 111.439 86.7541 111.393 86.7541 111.323C87.0745 113.36 88.7676 115.629 89.9574 117.18L90.1862 117.48C90.0489 119.448 89.9575 123.985 89.8888 128.406C89.7973 133.012 89.7057 138.243 89.5684 139.053C89.4082 139.91 88.9965 141.599 88.6304 143.034C88.5617 142.942 88.5159 142.872 88.4473 142.78C87.6922 141.969 86.6855 141.483 85.7931 141.483C84.4661 141.483 82.5671 142.757 82.3383 145.025C78.4943 148.381 74.1928 152.038 73.6437 152.339L73.6894 152.455C71.6073 153.82 62.6611 162.616 57.1469 168.102C49.4591 168.634 43.7847 164.653 42.0229 160.186ZM87.9211 145.604C87.8753 146.622 87.0059 148.844 86.3423 150.395C85.2441 148.914 83.8255 146.854 83.8255 145.418C83.8255 143.798 85.1754 143.104 85.7245 143.104C86.1592 143.104 86.777 143.428 87.2118 143.891C87.6922 144.4 87.9439 145.025 87.9211 145.604ZM139.356 181.134C138.258 180.231 137.228 179.351 136.359 177.985C136.633 172.754 136.153 170.162 134.666 168.565C133.224 167.014 131.325 167.037 129.838 167.014C127.962 167.014 126.017 167.014 123.546 164.074C120.343 160.857 115.95 159.399 111.122 159.931C105.356 160.579 99.6358 164.028 96.3181 168.796C95.2656 169.167 93.6183 169.537 91.9022 169.93C87.6694 170.903 82.9331 172.014 80.2561 174.166C78.3799 173.842 75.8859 172.523 73.4835 171.227C69.2506 168.982 64.583 166.482 60.0755 167.384C65.8414 161.737 73.575 154.283 74.3072 153.774C74.9936 153.404 76.8012 151.946 82.5213 146.969C83.0933 148.751 84.489 150.626 85.4957 151.969L85.8847 152.501C86.0449 152.709 86.2737 152.825 86.5253 152.825C86.5482 152.825 86.5711 152.825 86.6168 152.825C86.8914 152.802 87.1431 152.617 87.2803 152.362C87.4863 151.946 88.9964 148.636 89.454 146.529C91.3759 146.622 95.2657 146.668 99.041 146.691C102.908 146.738 106.569 146.761 108.01 146.853C111.099 147.038 128.236 149.261 128.397 149.284C128.442 149.284 128.465 149.284 128.488 149.284C128.785 149.284 129.014 149.099 129.152 148.844C129.655 149.585 130.158 150.279 130.616 150.881L131.005 151.413C131.165 151.622 131.394 151.737 131.646 151.737C131.668 151.737 131.691 151.737 131.737 151.737C132.012 151.714 132.263 151.529 132.401 151.274C132.469 151.159 132.629 150.765 132.881 150.233C132.927 150.325 132.95 150.441 133.064 150.511C134.208 151.344 149.652 163.033 152.146 165.162C154.595 167.246 162.694 174.49 162.763 174.56C162.923 174.699 163.106 174.768 163.289 174.768C163.518 174.768 163.747 174.676 163.907 174.49C164.204 174.143 164.182 173.634 163.838 173.333C163.747 173.264 155.647 165.996 153.176 163.912C150.659 161.76 135.146 150.025 134.002 149.191C133.819 149.052 133.59 149.006 133.384 149.052C133.59 148.543 133.796 148.011 134.002 147.478C134.162 147.663 134.368 147.779 134.597 147.779C134.757 147.779 134.917 147.733 135.055 147.64C136.839 146.39 151.163 138.15 153.794 136.947C156.356 135.766 172.304 125.628 172.99 125.188C173.105 125.119 173.174 125.026 173.242 124.91C172.922 129.771 170.039 150.21 169.742 151.784C169.421 153.52 168.758 168.634 168.62 171.643C168.369 171.574 168.094 171.528 167.842 171.528C167.842 171.528 167.842 171.528 167.819 171.528C166.401 171.528 164.342 172.94 164.319 175.486C164.319 176.481 164.731 177.592 165.303 178.634C165.234 178.634 165.165 178.657 165.097 178.68C164.982 178.726 153.428 184.096 151.986 184.652C151.483 184.837 148.234 186.202 144.024 187.938C143.932 187.985 143.841 188.008 143.749 188.054C143.154 184.374 141.164 182.638 139.356 181.134ZM165.92 175.439C165.92 173.819 167.27 173.125 167.819 173.125C168.254 173.125 168.849 173.449 169.307 173.912C169.787 174.421 170.039 175.046 170.016 175.625C169.97 176.643 169.101 178.865 168.437 180.416C167.339 178.934 165.898 176.874 165.92 175.439ZM261.195 167.384C261.057 169.375 260.92 171.435 252.134 177.291C250.303 178.263 248.679 178.749 247.1 179.235C244.263 180.115 241.357 181.018 239.001 184.443C238.245 184.467 237.628 184.467 237.056 184.443C234.035 184.397 232.548 184.652 229.276 187.962C226.027 189.536 223.236 191.897 220.536 194.188C216.99 197.197 213.649 200.021 209.782 200.623C208.959 200.739 208.249 201.294 207.929 202.058C207.586 202.822 207.677 203.725 208.135 204.419C210.583 208.122 214.839 208.932 218.614 209.627C223.099 210.46 225.913 211.131 227.171 214.326C227.538 215.251 228.407 215.853 229.368 215.876C231.953 215.969 235.019 214.58 238.2 213.145C240.808 211.965 243.737 210.645 245.727 210.576C245.956 210.669 246.025 210.761 246.025 210.761C246.528 212.011 243.073 216.849 241.929 218.446C241.06 219.673 240.328 220.691 239.824 221.594C238.703 221.941 236.667 221.339 234.996 220.83C232.937 220.205 231.015 219.626 229.185 219.997C228.544 220.112 227.995 220.506 227.629 221.038C226.668 222.473 224.403 223.399 222.229 224.302C220.902 224.834 219.552 225.413 218.362 226.13C217.973 226.362 217.676 226.686 217.47 227.103C215.548 230.806 212.139 233.699 209.21 234.139C207.883 234.348 206.648 234.047 205.481 233.26C206.785 229.394 206.739 226.316 205.366 223.885C203.055 219.812 197.724 219.117 193.857 218.608C192.965 218.492 191.775 218.33 190.952 218.145C191.707 217.103 193.743 214.951 199.12 210.738C199.486 210.46 199.761 210.067 199.921 209.627C200.79 207.173 200.127 205.576 199.417 204.697C197.29 202.012 192.599 202.614 187.176 203.308C184.522 203.655 179.008 204.35 178.116 203.539C178.116 203.516 177.772 202.197 180.999 197.591C181.41 196.989 181.548 196.248 181.365 195.531C181.182 194.836 180.701 194.234 180.038 193.934C177.727 192.846 175.187 194.466 172.739 196.017C171.984 196.503 170.794 197.267 170.108 197.568C168.277 196.619 166.47 196.387 164.708 196.873C160.589 198.031 158.187 202.729 155.876 207.266C154.732 209.511 153.565 211.803 152.444 213.029C151.78 213.4 151.208 213.678 150.705 213.909C147.525 215.437 146.22 216.895 147.273 221.223C146.953 221.501 146.129 221.455 143.612 220.761C142.834 220.552 142.079 220.344 141.393 220.205C140.729 220.066 140.043 220.251 139.516 220.645C136.588 222.844 130.936 224.695 129.174 223.538C128.58 223.168 128.625 221.987 128.74 221.084C132.95 217.057 136.656 210.553 137.023 204.396C139.356 204.697 141.896 204.257 143.978 203.91C144.665 203.794 145.305 203.678 145.877 203.609C146.518 203.817 147.959 204.511 148.852 204.951C151.94 206.433 153.336 207.081 154.709 205.715C155.212 205.206 155.464 204.465 155.418 203.748C155.167 198.818 150.934 195.785 147.204 193.1C145.969 192.221 144.802 191.387 143.909 190.577C143.909 190.276 143.887 190.045 143.887 189.767C144.138 189.675 144.367 189.559 144.619 189.466C148.806 187.73 152.032 186.388 152.535 186.202C154.023 185.624 165.28 180.416 165.737 180.184C165.852 180.115 165.966 180.046 166.035 179.93C166.538 180.694 167.064 181.411 167.522 182.013L167.934 182.545C168.094 182.754 168.323 182.87 168.575 182.87C168.597 182.87 168.62 182.87 168.666 182.87C168.941 182.846 169.192 182.661 169.33 182.407C169.536 181.967 171.229 178.263 171.549 176.203C171.663 176.481 171.961 176.689 172.281 176.712C173.219 176.689 178.161 176.388 183.31 176.041C188.686 175.671 194.246 175.277 195.848 175.254C195.871 175.254 195.917 175.254 195.94 175.254C199.349 175.254 220.49 177.499 220.719 177.523C220.742 177.523 220.788 177.523 220.811 177.523C221.222 177.523 221.566 177.199 221.611 176.782C221.657 176.342 221.337 175.926 220.879 175.879C219.987 175.787 199.028 173.541 195.825 173.611C194.178 173.634 188.595 174.027 183.195 174.398C178.367 174.722 173.379 175.069 172.327 175.069C172.304 175.069 172.281 175.069 172.281 175.069C171.984 175.069 171.732 175.231 171.595 175.486C171.572 174.537 171.183 173.588 170.451 172.824C170.336 172.685 170.199 172.592 170.062 172.477C170.085 172.407 170.153 172.338 170.153 172.245C170.359 167.13 171 153.566 171.274 152.085C171.572 150.441 174.661 128.822 174.821 124.563C174.89 124.424 175.004 124.17 175.141 123.846C175.21 124.008 175.324 124.147 175.484 124.239C176.583 124.864 200.447 145.395 203.742 149.724C204.497 150.719 205.915 152.547 207.586 154.7C206.373 155.256 205.527 155.649 205.321 155.742C205.046 155.881 203.765 156.436 201.866 157.293C174.592 169.468 174.432 169.699 174.203 170C173.952 170.278 172.441 171.296 171.16 172.083C170.771 172.315 170.657 172.824 170.886 173.217C171.046 173.472 171.297 173.611 171.572 173.611C171.709 173.611 171.869 173.565 171.984 173.495C173.265 172.708 174.844 171.69 175.37 171.134C176.834 170.255 195.459 161.945 202.506 158.797C204.405 157.941 205.687 157.385 205.961 157.246C206.19 157.13 207.174 156.691 208.592 156.043C213.878 162.825 221.085 172.014 221.177 172.153C221.337 172.361 221.566 172.454 221.817 172.454C221.84 172.454 221.863 172.43 221.886 172.43C221.52 173.009 221.268 173.727 221.268 174.583C221.245 176.759 223.213 179.397 224.517 181.11L224.929 181.643C225.089 181.851 225.318 181.967 225.57 181.967C225.593 181.967 225.616 181.967 225.661 181.967C225.936 181.944 226.188 181.758 226.325 181.504C226.554 181.018 228.521 176.759 228.613 174.838C228.659 173.796 228.247 172.754 227.469 171.898C226.714 171.088 225.707 170.602 224.815 170.602C224.128 170.602 223.305 170.949 222.618 171.551C222.618 171.389 222.595 171.227 222.481 171.088C222.389 170.949 215.388 162.061 210.148 155.302C217.356 151.969 231.404 145.465 232.846 144.747C233.029 144.654 233.166 144.492 233.235 144.307C233.441 144.654 233.647 144.979 233.875 145.303C233.555 145.349 233.28 145.557 233.189 145.881C232.525 148.265 229.757 155.209 227.926 159.792C226.828 162.547 226.302 163.889 226.21 164.213C225.959 165.116 224.609 169.421 224.609 169.421L226.165 169.907C226.165 169.907 227.515 165.556 227.789 164.653C227.858 164.375 228.636 162.454 229.459 160.394C231.267 155.857 233.99 149.052 234.722 146.46C234.905 146.691 235.065 146.923 235.225 147.131L235.614 147.663C235.774 147.872 236.003 147.988 236.255 147.988C236.278 147.988 236.301 147.988 236.346 147.988C236.621 147.964 236.873 147.779 237.01 147.525C237.239 147.039 239.207 142.78 239.298 140.858C239.344 139.817 238.932 138.775 238.131 137.919C237.376 137.109 236.369 136.623 235.477 136.623C235.477 136.623 235.477 136.623 235.454 136.623C234.035 136.623 231.976 138.035 231.953 140.581C231.953 141.414 232.228 142.317 232.663 143.196C232.503 143.15 232.319 143.173 232.136 143.243C230.672 143.96 216.189 150.673 209.119 153.959C207.334 151.668 205.847 149.747 205.046 148.682C201.683 144.284 177.864 123.637 176.285 122.758C176.079 122.642 175.851 122.642 175.645 122.711C175.759 122.434 175.873 122.133 175.988 121.832C176.102 121.948 176.24 122.04 176.423 122.063C178.253 122.364 193.125 125.512 196.42 126.299C199.394 127.017 214.839 133.104 219.369 135.35C222.275 136.785 230.855 141.252 230.855 141.252L231.587 139.794C231.587 139.794 222.961 135.326 220.056 133.891C215.731 131.739 200.15 125.535 196.786 124.725C193.789 124.008 178.734 120.813 176.674 120.466C176.606 120.466 176.537 120.466 176.468 120.466C176.789 119.54 177.018 118.638 177.063 118.013C177.109 116.971 176.697 115.93 175.919 115.073C175.164 114.263 174.157 113.777 173.265 113.777C172.602 113.777 171.778 114.101 171.114 114.703C171.091 114.61 171.069 114.518 171.023 114.425C170.428 113.383 157.546 90.4915 154.251 85.0752C157.249 83.1772 161.985 82.4134 168.735 82.7606C169.215 82.8069 169.719 82.6679 170.153 82.3901C177.406 77.8071 184.843 74.3352 190.197 79.5895C190.769 81.7884 191.112 83.7327 191.432 85.4455C193.034 94.056 194.796 97.3892 207.357 97.0651C208.455 98.0836 209.668 102.273 210.286 104.379C211.338 108.013 212.185 110.884 213.992 112.157C214.77 112.712 215.777 112.759 216.601 112.272C218.934 110.907 226.027 110.536 228.636 111.647C229.482 112.018 230.466 111.856 231.176 111.254C236.072 106.972 238.795 106.324 240.236 106.532C241.883 106.764 242.959 108.245 244.423 110.49C245.75 112.527 247.26 114.818 249.915 114.911C249.96 114.911 250.006 114.911 250.052 114.911C252.042 114.911 253.758 113.546 255.177 111.972C263.437 116.231 268.699 117.967 271.903 119.031C273.733 119.633 275.197 120.119 275.449 120.536C275.838 121.161 275.907 123.267 275.998 126.207C276.158 130.697 276.41 138.104 277.989 150.187C262.865 159.283 261.492 162.917 261.195 167.384ZM222.939 174.56C222.939 172.94 224.288 172.245 224.838 172.245C225.272 172.245 225.867 172.569 226.325 173.032C226.805 173.541 227.057 174.166 227.034 174.745C226.988 175.763 226.119 177.986 225.455 179.536C224.357 178.055 222.916 175.995 222.939 174.56ZM233.578 140.627C233.578 139.007 234.928 138.312 235.477 138.312C235.912 138.312 236.507 138.636 236.964 139.099C237.445 139.608 237.696 140.233 237.674 140.812C237.628 141.831 236.758 144.053 236.095 145.604C234.997 144.122 233.578 142.062 233.578 140.627Z" fill="#707070"/>
</svg>
