<svg width="531" height="329" viewBox="0 0 531 329" fill="none" xmlns="http://www.w3.org/2000/svg">
<path d="M54.8366 162.486L54.3623 162.376C55.2378 157.652 54.253 152.947 51.4989 148.952C49.5473 146.125 46.8843 143.9 43.9661 142.55L44.3856 140.052L44.6227 140.106C44.7686 140.143 44.8964 140.161 45.0423 140.161C45.4435 140.161 45.8447 140.033 46.173 139.796C46.629 139.468 46.9026 138.975 46.9755 138.428L48.0517 128.835C48.1611 127.795 47.4315 126.847 46.3737 126.701L42.1422 126.135C41.0843 126.007 40.1359 126.719 39.9718 127.758L38.5492 136.914C38.385 137.918 39.0416 138.884 40.0447 139.103L40.5919 139.231L40.2454 141.365C39.7529 141.274 39.2604 141.201 38.768 141.146C30.068 140.489 24.3227 144.794 21.3133 154.314L20.8937 154.205C20.3648 154.077 19.7812 154.187 19.3253 154.497C18.8693 154.807 18.5775 155.318 18.5045 155.865C18.2309 158.309 14.0177 177.679 12.5403 181.837C11.0447 186.014 0.247208 213.336 0.137774 213.628C-0.208767 214.485 0.119553 215.47 0.885592 215.962C1.37805 216.272 12.9051 223.75 17.2642 225.574C21.7328 227.435 33.734 228.511 34.2447 228.565C34.2995 228.565 34.3542 228.565 34.4089 228.565C35.2114 228.565 35.9409 228.073 36.2145 227.307C36.5975 226.286 45.6806 202.174 48.4165 191.139C51.0976 180.287 56.1863 165.13 56.241 164.966C56.4052 164.455 56.3686 163.89 56.095 163.416C55.8215 162.941 55.3655 162.613 54.8366 162.486ZM43.492 130.221L43.9479 130.275L43.3277 135.784C43.2548 135.765 43.1819 135.711 43.1089 135.692C42.9812 135.674 42.8536 135.692 42.7259 135.711L42.6347 135.692L43.492 130.221ZM34.7919 145.104C34.9743 145.706 35.2661 146.289 35.7221 146.818C37.3636 148.77 40.5554 149.736 42.9995 149.736C43.2001 149.736 43.4189 149.737 43.6013 149.718C44.878 149.627 45.7901 149.353 46.4831 149.007C47.1397 149.663 47.7599 150.375 48.307 151.159C50.4228 154.223 51.1888 157.816 50.5869 161.446L25.0705 155.226C27.4234 147.986 31.0529 145.651 34.7919 145.104ZM16.1699 183.15C17.556 179.284 20.8573 164.437 21.9699 158.473L33.9529 161.391L26.0737 188.111L20.2554 201.098C18.6503 200.496 13.9447 198.69 10.7529 197.14C13.2152 190.865 15.5132 184.956 16.1699 183.15ZM44.6227 190.227C42.3246 199.565 35.0837 219.191 33.0775 224.571C29.0649 224.152 21.5686 223.203 18.7233 222.018C15.5132 220.668 7.48806 215.616 4.29623 213.591C5.40881 210.782 7.87115 204.526 10.2969 198.362C14.2183 200.277 20.0913 202.429 20.3831 202.538C20.456 202.557 20.529 202.575 20.602 202.575C20.8573 202.575 21.0761 202.429 21.1856 202.192L27.2774 188.567L35.1932 161.72L51.8454 165.769C50.3863 170.274 46.7567 181.582 44.6227 190.227Z" fill="#DCDCDC"/>
<path d="M132.699 213.481C132.298 212.496 131.203 212.022 130.218 212.405L121.573 215.706C120.625 216.071 120.114 217.111 120.424 218.096L120.588 218.625L115.007 220.704C114.004 221.069 113.493 222.2 113.858 223.203C114.15 223.987 114.879 224.461 115.682 224.461C115.901 224.461 116.138 224.425 116.357 224.334L121.755 222.327L121.828 222.564C121.993 223.093 122.376 223.513 122.868 223.75C123.123 223.859 123.397 223.932 123.671 223.932C123.926 223.932 124.199 223.878 124.437 223.768L133.301 219.938C134.267 219.518 134.723 218.406 134.322 217.421L132.699 213.481ZM124.911 219.336C124.893 219.263 124.911 219.172 124.874 219.099C124.838 218.971 124.747 218.88 124.674 218.789L124.637 218.698L129.817 216.71L129.999 217.147L124.911 219.336Z" fill="#DCDCDC"/>
<path d="M108.933 160.552L107.857 160.442C108.039 156.12 106.379 153.074 104.811 151.195C103.114 149.152 100.944 147.748 98.81 146.891L99.1018 145.158L99.3389 145.213C99.4848 145.249 99.6125 145.267 99.7584 145.267C100.16 145.267 100.561 145.14 100.889 144.903C101.345 144.574 101.619 144.082 101.692 143.535L102.768 133.941C102.877 132.883 102.148 131.935 101.09 131.807L96.8583 131.242C95.8005 131.114 94.8521 131.825 94.6879 132.865L93.2653 142.021C93.1012 143.024 93.7577 143.991 94.7609 144.21L95.308 144.337L95.0344 145.942C94.7426 145.906 94.4691 145.888 94.1955 145.869C91.4232 145.815 82.6319 146.599 80.7168 157.852L80.4797 157.834C79.5131 157.761 78.6011 158.4 78.4005 159.348C74.7527 176.201 68.6062 203.723 67.6395 205.912C67.3112 206.569 67.4023 207.371 67.8583 207.955C68.0954 208.265 73.9684 215.688 83.1609 217.53C85.6779 218.041 91.4049 218.935 95.9282 218.935C98.5364 218.935 100.762 218.643 101.728 217.804C102.895 216.801 103.461 214.503 104.3 203.596C104.391 202.483 104.464 201.553 104.519 200.951C104.756 198.635 108.641 174.997 110.665 162.813C110.757 162.284 110.611 161.737 110.282 161.318C109.954 160.898 109.48 160.606 108.933 160.552ZM98.2445 135.309L98.7005 135.364L98.0804 140.872C98.0074 140.854 97.9344 140.799 97.8615 140.781C97.7338 140.762 97.6062 140.781 97.4785 140.799L97.3873 140.781L98.2445 135.309ZM89.7816 150.575C89.9276 150.83 90.0735 151.104 90.2741 151.341C91.8427 153.274 95.1439 154.223 97.7156 154.223C97.9162 154.223 98.1351 154.223 98.3357 154.205C99.8496 154.113 100.871 153.785 101.6 153.402C101.692 153.493 101.783 153.584 101.856 153.676C103.352 155.481 104.063 157.633 104.008 160.078L84.6018 158.217C85.4225 153.803 87.5565 151.615 89.7816 150.575ZM99.959 163.579L94.6332 195.151C93.7395 195.443 91.332 196.154 89.1433 196.008C86.8452 195.844 82.413 193.893 80.9904 193.236L86.5533 162.284L99.959 163.579ZM100.652 200.532C100.597 201.152 100.506 202.1 100.433 203.267C100.214 205.985 99.6854 212.898 99.0653 214.813C97.3326 215.214 91.0036 215.141 83.9269 213.718C77.7803 212.478 73.2206 208.101 71.5791 206.313C73.6037 199.547 79.8049 171.149 81.8294 161.847L85.2219 162.175L79.586 193.51C79.5313 193.801 79.6772 194.075 79.9508 194.203C80.2062 194.312 86.0426 197.084 89.0156 197.303C89.2527 197.322 89.4898 197.322 89.727 197.322C92.4993 197.322 95.2715 196.3 95.3992 196.245C95.6181 196.172 95.764 195.972 95.8005 195.753L101.218 163.725L106.47 164.236C105.23 171.86 100.926 197.923 100.652 200.532Z" fill="#DCDCDC"/>
<path d="M75.3755 40.8371C75.6491 40.9648 75.9227 41.0195 76.1963 41.0195C76.2145 41.0195 76.2328 41.0195 76.2693 41.0013C76.3058 41.0013 76.324 41.0195 76.3605 41.0195L84.5315 40.9648C84.7869 40.9648 85.0058 40.8189 85.1152 40.5818L94.4718 20.3182C94.5448 20.1541 94.5447 19.9717 94.49 19.8075C94.4353 19.6434 94.3077 19.5157 94.1435 19.4427L48.3453 0.0546814C48.2541 0.0182034 48.1264 0 48.0352 0L38.2044 0.948376C38.0768 0.966615 37.9855 1.02137 37.8943 1.07608C37.7849 1.11256 37.6755 1.11256 37.5661 1.16728L32.7144 3.739C32.3678 3.92139 32.076 4.21321 31.8936 4.55975L26.2579 15.5761C26.0208 16.0503 25.9842 16.5975 26.1483 17.0899C26.3125 17.5824 26.6774 18.0019 27.1698 18.2208L44.5516 26.3554C40.6484 35.4384 34.5748 49.373 33.6994 50.668C32.3132 52.4007 24.4339 69.9831 23.905 71.5882C23.522 72.5913 19.3999 80.0875 16.6641 85.0485C12.9798 91.724 12.3598 92.8913 12.2138 93.329C12.1774 93.4567 12.0679 93.6755 11.9584 93.9674C10.7546 96.8127 9.861 99.3115 11.1195 100.953C11.4296 101.372 12.2868 102.521 25.3459 107.537C25.5648 107.628 25.8019 107.665 26.039 107.665C26.0755 107.665 26.1302 107.647 26.1667 107.647H26.1849C26.2031 107.647 26.2214 107.647 26.2579 107.647L34.3196 106.808C34.5567 106.789 34.7572 106.625 34.8484 106.406L63.7756 35.3472L75.3755 40.8371ZM47.9805 1.34967L93.0127 20.4094L84.1121 39.688L78.0567 39.7245L86.5195 23.1636C86.7566 22.6893 86.7931 22.1239 86.6107 21.6132C86.4283 21.1025 86.0271 20.7013 85.5347 20.5006L41.2686 2.00629L47.9805 1.34967ZM30.6169 15.6125L35.0673 6.93083L38.5692 5.07041L82.1058 23.2547L75.3208 36.5145L30.6169 15.6125ZM25.1452 103.36C20.6584 101.591 15.9164 99.585 14.4025 98.7278C14.4937 98.1259 14.8767 97.0498 15.515 95.5177C15.6792 95.1164 15.8068 94.8064 15.8433 94.7152C16.0804 94.1863 18.1962 90.3561 20.0566 86.9636C25.0906 77.8441 27.2428 73.868 27.5711 72.883C28.2095 70.9862 35.7239 54.5164 36.7088 53.1485C37.8214 51.7623 44.6792 35.8944 48.0352 28.0698L55.6774 31.6447L40.6302 66.2076L29.5409 95.4082L25.1452 103.36ZM33.7724 105.622L27.9906 106.224L33.0063 97.1592C33.0428 97.0862 33.0974 96.9951 33.1157 96.9039L44.2233 67.6485L59.1975 33.268L62.5717 34.8547L33.7724 105.622Z" fill="#DCDCDC"/>
<path d="M182.795 218.179L181.682 217.832C180.88 217.577 179.986 217.869 179.493 218.58L176.21 223.304C175.426 222.976 174.514 223.176 173.967 223.851C170.848 227.663 169.024 230.144 168.076 231.895L140.444 253.909C139.805 254.42 139.586 255.241 139.787 255.97L136.924 258.031C136.632 258.232 136.559 258.651 136.778 258.925C136.905 259.107 137.106 259.198 137.307 259.198C137.434 259.198 137.562 259.162 137.69 259.071L140.59 256.973C140.918 257.192 141.283 257.356 141.666 257.356C142.085 257.356 142.523 257.21 142.869 256.937L168.258 236.71C168.696 237.239 169.261 237.695 169.9 238.005C170.465 238.278 171.067 238.406 171.669 238.442L166.434 268.792C166.288 269.613 166.708 270.397 167.383 270.78L167 272.914C166.927 273.261 167.164 273.607 167.51 273.662C167.547 273.662 167.583 273.68 167.62 273.68C167.93 273.68 168.203 273.461 168.258 273.151L168.659 271.017C169.444 270.89 170.119 270.288 170.264 269.467L176.028 236.09C177.086 234.813 177.779 233.463 177.779 233.463C177.961 233.153 179.603 230.6 181.044 228.356C181.336 227.9 181.427 227.353 181.299 226.842C181.208 226.459 180.971 226.149 180.679 225.894L183.816 221.152C184.144 220.641 184.236 220.003 184.035 219.437C183.834 218.799 183.378 218.361 182.795 218.179ZM174.35 231.603C173.858 232.551 172.599 234.284 172.052 234.521C171.997 234.539 171.815 234.612 171.559 234.484C171.432 234.43 171.304 234.32 171.213 234.211C171.231 234.174 171.249 234.12 171.268 234.083C171.286 234.065 171.286 234.028 171.304 234.01C171.797 232.934 173.347 230.764 175.937 227.535L176.648 227.937C174.514 231.274 174.405 231.512 174.35 231.603Z" fill="#DCDCDC"/>
<path d="M243.471 144.04C245.732 138.185 250.493 135.686 254.323 133.662C255.946 132.805 257.478 132.002 258.609 131.054C260.561 129.394 265.54 125.327 270.373 122.445C271.285 123.393 272.288 124.25 273.109 124.451C274.951 124.907 332.459 132.038 334.903 132.349C334.921 132.349 334.958 132.349 334.976 132.349C335.085 132.349 335.176 132.33 335.268 132.276C337.019 131.382 378.257 110.352 381.084 108.328C383.893 106.322 406.947 88.7938 407.184 88.6114C407.367 88.4837 407.458 88.2648 407.439 88.0277L406.491 78.1604C406.509 77.9598 406.509 77.7409 406.473 77.522C406.309 76.756 405.707 76.1541 404.922 76.0265L357.647 67.2352L336.07 32.5811C335.578 31.7968 334.593 31.4686 333.717 31.7969L245.769 66.3781C245.441 66.5057 245.185 66.7428 244.966 67.0164C240.406 72.5976 236.795 79.2912 236.759 79.3642C236.631 79.583 236.668 79.8749 236.813 80.0755L267.729 119.198C267.874 119.417 268.586 120.402 269.498 121.46C264.883 124.232 260.232 127.989 257.788 130.069C256.785 130.926 255.362 131.674 253.739 132.513C249.708 134.628 244.711 137.255 242.267 143.566C240.169 149.019 232.436 155.184 224.283 160.309L226.527 160.327C234.296 155.257 241.428 149.329 243.471 144.04ZM399.615 79.0177C391.863 84.3435 374.755 96.0894 370.797 98.5334C366.019 101.488 334.793 117.137 330.416 119.344C318.816 118.086 289.852 114.73 286.095 113.489C284.691 113.015 282.885 111.757 281.025 110.17C290.764 104.516 327.644 83.1032 330.38 81.3887C334.885 78.5617 353.397 72.1233 356.589 71.029L399.615 79.0177ZM333.626 36.0101L353.525 67.9648C347.707 69.9893 332.659 75.3698 328.337 78.0692C325.583 79.8019 285.73 102.947 278.07 107.379C275.863 105.191 273.857 102.911 272.671 101.379C270.993 99.19 254.505 76.1177 249.49 69.0956L333.626 36.0101ZM268.75 118.432L238.09 79.6013C238.82 78.2699 241.501 73.6189 244.857 69.2415C244.875 69.2598 244.875 69.2962 244.893 69.3145C245.823 70.6094 267.583 101.105 269.607 103.75C270.574 105.008 273.255 108.182 276.392 111.173C276.41 111.191 276.429 111.21 276.447 111.228C279.201 113.836 282.302 116.298 284.873 117.155C289.78 118.797 326.403 122.81 330.562 123.247C330.635 123.247 330.708 123.266 330.781 123.266C331.091 123.266 331.383 123.193 331.656 123.065C333.115 122.335 367.587 105.081 372.84 101.835C377.837 98.7523 402.15 81.9907 405.342 79.7837L406.126 87.8271C403.445 89.8698 382.963 105.428 380.336 107.306C377.673 109.203 337.858 129.54 334.848 131.072C314.092 128.5 274.805 123.576 273.401 123.229C272.908 123.101 272.234 122.536 271.504 121.806C273.82 120.53 276.046 119.581 277.815 119.399C278.161 119.362 278.435 119.052 278.398 118.688C278.362 118.341 278.052 118.086 277.687 118.104C275.663 118.323 273.164 119.381 270.61 120.822C269.917 120.001 269.242 119.144 268.75 118.432Z" fill="#DCDCDC"/>
<path d="M309.093 100.795L301.67 104.899C300.74 105.41 300.393 106.595 300.904 107.525C301.25 108.164 301.925 108.528 302.6 108.528C302.91 108.528 303.239 108.455 303.53 108.291L310.954 104.188C311.884 103.677 312.23 102.491 311.72 101.561C311.209 100.631 310.023 100.284 309.093 100.795Z" fill="#DCDCDC"/>
<path d="M318.213 99.1346C318.541 99.1346 318.869 99.0435 319.179 98.8793L324.943 95.5416C325.873 95.0127 326.183 93.8271 325.654 92.8969C325.125 91.9668 323.922 91.6567 323.01 92.1856L317.246 95.5233C316.316 96.0523 316.006 97.2378 316.535 98.168C316.9 98.7881 317.538 99.1346 318.213 99.1346Z" fill="#DCDCDC"/>
<path d="M333.373 90.7998C333.701 90.7998 334.03 90.7269 334.321 90.5445L339.939 87.3526C340.869 86.8237 341.197 85.6382 340.668 84.708C340.14 83.7778 338.954 83.4495 338.024 83.9784L332.406 87.1703C331.476 87.6992 331.148 88.8847 331.677 89.8149C332.041 90.435 332.698 90.7998 333.373 90.7998Z" fill="#DCDCDC"/>
<path d="M347.945 83.5229C348.255 83.5229 348.584 83.4499 348.876 83.2858L355.843 79.4921C356.791 78.9814 357.138 77.7959 356.627 76.8657C356.116 75.9173 354.931 75.5707 354.001 76.0814L347.033 79.8751C346.085 80.3858 345.738 81.5713 346.249 82.5015C346.577 83.1399 347.252 83.5229 347.945 83.5229Z" fill="#DCDCDC"/>
<path d="M318.908 102.892L312.962 106.522C312.05 107.069 311.759 108.273 312.324 109.185C312.689 109.787 313.327 110.115 313.984 110.115C314.33 110.115 314.677 110.024 314.987 109.823L320.933 106.194C321.845 105.646 322.137 104.443 321.571 103.531C321.006 102.619 319.82 102.327 318.908 102.892Z" fill="#DCDCDC"/>
<path d="M332.693 94.776L327.33 97.9678C326.419 98.515 326.109 99.7006 326.656 100.631C327.02 101.233 327.659 101.579 328.334 101.579C328.662 101.579 329.008 101.488 329.319 101.306L334.681 98.1138C335.593 97.5666 335.903 96.3811 335.356 95.4509C334.79 94.5207 333.605 94.2288 332.693 94.776Z" fill="#DCDCDC"/>
<path d="M340.321 94.1744C340.668 94.8127 341.343 95.1958 342.018 95.1958C342.328 95.1958 342.656 95.1228 342.948 94.9586L349.915 91.1649C350.864 90.6543 351.21 89.4687 350.699 88.5385C350.189 87.5901 349.003 87.2435 348.073 87.7542L341.106 91.548C340.157 92.0587 339.811 93.2442 340.321 94.1744Z" fill="#DCDCDC"/>
<path d="M355.498 85.547C355.845 86.1854 356.52 86.532 357.195 86.532C357.523 86.532 357.833 86.4589 358.143 86.2766L364.654 82.6288C365.585 82.0998 365.931 80.9325 365.402 79.9841C364.873 79.0357 363.706 78.7074 362.758 79.2364L356.246 82.8842C355.316 83.4313 354.969 84.6168 355.498 85.547Z" fill="#DCDCDC"/>
<path d="M329.959 105.555L323.995 109.349C323.083 109.933 322.828 111.118 323.393 112.03C323.758 112.614 324.396 112.924 325.034 112.924C325.399 112.924 325.746 112.833 326.074 112.614L332.038 108.82C332.95 108.236 333.206 107.051 332.64 106.139C332.057 105.264 330.853 104.99 329.959 105.555Z" fill="#DCDCDC"/>
<path d="M341.689 98.9895L337.293 101.415C336.363 101.926 336.016 103.112 336.527 104.042C336.874 104.68 337.548 105.045 338.223 105.045C338.533 105.045 338.862 104.972 339.153 104.808L343.549 102.382C344.479 101.871 344.826 100.686 344.315 99.7556C343.804 98.8071 342.619 98.4606 341.689 98.9895Z" fill="#DCDCDC"/>
<path d="M359.618 89.596L353.636 92.4048C352.669 92.8608 352.25 94.0098 352.706 94.9765C353.034 95.6878 353.727 96.0891 354.457 96.0891C354.73 96.0891 355.004 96.0344 355.278 95.9067L361.26 93.0979C362.227 92.642 362.646 91.4929 362.19 90.5262C361.752 89.5595 360.603 89.14 359.618 89.596Z" fill="#DCDCDC"/>
<path d="M369.01 88.2104C369.356 88.2104 369.721 88.1192 370.031 87.9186L373.679 85.6387C374.591 85.0733 374.864 83.8696 374.299 82.9759C373.734 82.064 372.53 81.7903 371.636 82.3557L367.988 84.6356C367.076 85.201 366.803 86.4048 367.368 87.2985C367.733 87.8821 368.371 88.2104 369.01 88.2104Z" fill="#DCDCDC"/>
<path d="M563.555 218.603L512.978 196.261C512.65 196.115 512.285 196.261 512.139 196.589L511.592 197.793C508.783 196.789 495.906 193.342 492.04 198.778C491.93 198.923 491.858 199.088 491.748 199.234L485.82 196.279C485.674 196.206 485.492 196.188 485.328 196.242C485.218 196.279 485.127 196.388 485.054 196.479L469.715 189.494C468.73 189.056 467.6 189.476 467.144 190.461C466.706 191.427 467.125 192.594 468.11 193.032L483.449 200.018C483.504 200.182 483.613 200.328 483.778 200.419L489.979 203.502C489.559 205.435 489.578 207.459 490.088 209.356C490.945 212.53 493.554 216.998 501.068 220.518L500.685 221.321C500.539 221.631 500.667 222.014 500.977 222.16L518.304 231.17C518.012 231.863 517.52 233.03 517.264 234.07L517.173 234.453C516.735 236.095 515.842 239.432 519.581 241.53C518.213 244.539 515.915 249.537 514.912 251.124C512.924 254.279 511.154 254.571 511.081 254.571L507.014 255.483C506.886 255.501 506.777 255.574 506.686 255.665C506.467 255.884 501.396 261.173 503.95 264.31C506.139 267.01 520.967 274.378 524.979 274.378C525.162 274.378 525.308 274.36 525.435 274.342C528.864 273.594 540.556 246.801 540.647 246.527C540.92 245.761 541.121 244.959 541.322 244.266C541.65 243.007 542.015 241.676 542.453 241.785C542.927 241.876 544.167 242.424 545.352 242.952C548.727 244.448 551.007 245.396 552.046 244.922C553.487 244.266 558.503 239.104 561.33 234.07C564.12 229.127 563.938 219.607 563.92 219.187C563.938 218.932 563.774 218.713 563.555 218.603ZM485.875 200C486.13 199.817 486.349 199.562 486.495 199.252C486.659 198.869 486.678 198.467 486.605 198.084L491.091 200.328C490.781 200.93 490.526 201.55 490.307 202.188L485.875 200ZM491.328 209.01C490.471 205.818 491.128 202.279 493.079 199.525C496.217 195.112 508.127 197.902 511.045 198.96L501.615 219.333C495.998 216.707 492.441 213.15 491.328 209.01ZM518.413 234.781L518.523 234.38C518.742 233.486 519.179 232.41 519.453 231.772L522.572 233.395L520.639 239.177C520.639 239.195 520.438 239.633 520.128 240.326C517.392 238.703 517.976 236.368 518.413 234.781ZM525.162 273.065C522.827 273.558 507.123 266.153 504.953 263.49C503.494 261.684 506.175 258.091 507.488 256.686L511.118 255.866L530.013 265.697C527.861 269.709 525.964 272.81 525.162 273.065ZM562.278 225.862L552.466 221.303C552.137 221.157 551.754 221.303 551.608 221.613C551.462 221.941 551.59 222.324 551.918 222.47L562.096 227.194C561.895 228.471 561.622 229.747 561.257 230.933L550.952 226.227C550.624 226.081 550.24 226.227 550.095 226.537C549.949 226.866 550.095 227.249 550.405 227.395L560.819 232.137C560.637 232.593 560.436 233.012 560.217 233.413C559.816 234.107 559.378 234.818 558.922 235.493L548.8 231.207C548.471 231.061 548.088 231.225 547.961 231.553C547.815 231.881 547.979 232.264 548.307 232.392L558.174 236.569C557.554 237.426 556.898 238.265 556.241 239.049L547.195 235.219C546.866 235.073 546.483 235.237 546.356 235.566C546.21 235.894 546.374 236.277 546.702 236.405L555.384 240.071C553.651 242.022 552.119 243.445 551.554 243.7C550.861 243.937 547.541 242.442 545.918 241.73C544.477 241.092 543.346 240.6 542.744 240.472C541.066 240.162 540.574 242.041 540.1 243.883C539.917 244.594 539.717 245.324 539.479 246.035C538.859 247.731 534.482 257.252 530.67 264.529L512.796 255.227C513.671 254.698 514.839 253.713 516.061 251.762C517.173 250.011 519.708 244.43 521.04 241.475C521.04 241.475 521.04 241.475 521.04 241.457C521.496 240.417 521.824 239.706 521.879 239.597L523.995 233.231C524.104 232.921 523.958 232.593 523.685 232.447L519.453 230.24L502.162 221.248L513.069 197.647L562.679 219.57C562.643 220.573 562.607 223.09 562.278 225.862Z" fill="#DCDCDC"/>
<path d="M361.203 195.987L382.233 204.778C382.306 204.814 382.397 204.833 382.488 204.833C382.579 204.833 382.689 204.814 382.78 204.76L401.384 195.604C401.602 195.494 401.748 195.275 401.748 195.02C401.748 194.765 401.602 194.546 401.384 194.437C400.69 194.108 384.494 186.357 380.299 185.135C375.758 183.767 362.571 193.743 361.094 194.874C360.911 195.02 360.82 195.239 360.838 195.476C360.838 195.695 360.984 195.896 361.203 195.987ZM379.898 186.375C383.345 187.396 395.675 193.178 399.596 195.038L389.966 199.781L368.936 190.989C373.223 188.272 377.928 185.791 379.898 186.375ZM367.605 191.828L388.416 200.528L382.451 203.465L362.735 195.221C364.03 194.272 365.745 193.05 367.605 191.828Z" fill="#DCDCDC"/>
<path d="M363.176 267.922C355.917 271.624 351.649 273.01 347.527 274.342C346.451 274.688 345.375 275.035 344.262 275.418C334.03 278.938 309.425 279.23 290.475 273.995C266.71 267.429 255.857 253.221 253.796 243.062C252.976 239.049 254.052 232.465 256.751 225.005C257.116 224.002 256.587 222.889 255.584 222.525C254.581 222.16 253.468 222.689 253.103 223.692C251.808 227.285 249.966 233.249 249.693 238.703C249.036 243.955 249.182 249.737 250.149 254.498C252.483 265.915 263.81 280.543 288.669 287.419C298.938 290.264 310.866 291.505 321.39 291.505C330.747 291.505 339.009 290.52 343.988 288.805C345.083 288.422 346.122 288.094 347.198 287.747C351.43 286.379 355.789 284.975 363.231 281.163C363.541 280.999 363.668 280.616 363.504 280.288C363.34 279.978 362.957 279.85 362.629 280.014C355.278 283.771 350.956 285.176 346.779 286.525C345.703 286.872 344.645 287.218 343.551 287.601C333.136 291.195 308.185 291.505 288.998 286.197C273.805 282.002 254.818 271.113 251.389 254.261C250.878 251.798 250.623 249.026 250.568 246.217C253.961 257.58 265.67 271.186 289.417 277.752C299.777 280.616 311.815 281.874 322.466 281.874C332.005 281.874 340.414 280.871 345.502 279.12C346.578 278.756 347.636 278.409 348.694 278.063C352.962 276.676 357.394 275.254 364.909 271.405C365.857 270.913 366.24 269.745 365.748 268.797C365.292 267.812 364.124 267.429 363.176 267.922Z" fill="#DCDCDC"/>
<path d="M427.903 84.1822C415.792 91.5508 404.338 98.4998 410.594 113.31C412.053 116.757 417.963 121.809 424.219 127.135C430.438 132.443 436.858 137.914 438.7 141.708L428.669 145.21C428.669 145.21 428.669 145.21 428.651 145.21C428.541 145.246 428.468 145.319 428.395 145.392C428.377 145.41 428.359 145.429 428.359 145.447C428.304 145.52 428.286 145.593 428.268 145.684C428.268 145.702 428.249 145.721 428.249 145.739C428.249 145.757 428.249 145.757 428.249 145.775C428.249 145.794 428.231 145.812 428.231 145.83V147.581C425.459 148.766 417.434 151.958 399.505 157.777C398.629 158.068 398.137 158.907 398.21 159.783L396.659 159.382C395.583 159.108 394.453 159.108 393.376 159.418L344.605 173.262C344.532 173.28 344.496 173.316 344.441 173.353C338.641 170.398 333.115 167.553 329.649 165.747C325.892 163.795 323.412 162.519 322.773 162.227C314.93 158.561 303.75 161.552 295.889 165.601C288.557 169.377 282.629 177.402 282.283 177.894C277.832 183.366 276.154 186.941 273.418 194.802C273.345 195.002 273.291 195.203 273.218 195.385C250.164 184.697 224.738 172.094 209.746 163.941C197.343 157.193 154.081 136.218 153.643 135.999C153.406 135.89 153.132 135.926 152.931 136.09L141.386 146.195C141.368 146.213 141.368 146.213 141.368 146.231C141.313 146.286 141.277 146.341 141.24 146.414C141.222 146.432 141.222 146.45 141.204 146.468C141.167 146.56 141.149 146.651 141.167 146.742L143.009 163.394C143.028 163.595 143.155 163.741 143.32 163.85C143.374 163.941 143.465 164.033 143.575 164.087C144.013 164.306 187.239 185.263 199.623 191.993C214.908 200.31 248.449 217.546 272.196 228.562L271.759 229.255C271.613 229.474 271.631 229.766 271.777 229.985C271.941 230.204 272.215 230.295 272.47 230.222L275.516 229.419C275.589 230.04 275.68 230.66 275.771 231.28L274.221 236.259C274.148 236.514 274.239 236.806 274.458 236.97C274.677 237.135 274.987 237.135 275.206 236.989L276.902 235.84C277.03 236.204 277.157 236.551 277.303 236.916L276.574 241.658C276.537 241.931 276.665 242.205 276.92 242.333C277.176 242.46 277.467 242.406 277.668 242.205L279.237 240.618L279.328 240.764C279.364 240.819 279.401 240.892 279.437 240.947L278.908 247.148C278.89 247.44 279.054 247.695 279.31 247.804C279.565 247.914 279.875 247.823 280.057 247.604L282.1 245.032C282.173 245.141 282.264 245.251 282.337 245.379V251.233C282.337 251.525 282.52 251.762 282.793 251.853C283.049 251.926 283.359 251.835 283.523 251.58L285.183 249.063C285.365 249.264 285.547 249.464 285.73 249.646L286.806 255.319C286.861 255.611 287.098 255.811 287.39 255.848C287.681 255.884 287.955 255.702 288.046 255.428L289.122 252.62C289.305 252.747 289.487 252.875 289.669 253.002L291.84 258.419C291.949 258.675 292.205 258.857 292.46 258.821C292.734 258.821 292.971 258.638 293.062 258.383L294.065 255.337C294.156 255.374 294.247 255.41 294.339 255.447L296.618 260.699C296.728 260.955 296.947 261.155 297.239 261.082C297.512 261.064 297.731 260.882 297.822 260.626L299.008 256.906C299.172 256.942 299.354 256.979 299.518 256.997L303.458 261.903C303.586 262.049 303.768 262.14 303.969 262.14C304.023 262.14 304.078 262.14 304.133 262.122C304.388 262.049 304.571 261.848 304.607 261.593L305.337 256.869C305.464 256.851 305.592 256.833 305.72 256.814L309.641 260.59C309.824 260.772 310.097 260.809 310.334 260.718C310.571 260.608 310.735 260.389 310.735 260.116V255.319C310.973 255.228 311.21 255.136 311.429 255.045L316.28 258.073C316.499 258.201 316.773 258.201 316.991 258.055C317.21 257.909 317.301 257.653 317.247 257.398L316.262 252.765C316.317 252.729 316.39 252.711 316.444 252.674C316.463 252.674 316.463 252.656 316.481 252.656L321.752 255.72C321.971 255.848 322.244 255.83 322.463 255.684C322.664 255.538 322.773 255.264 322.718 255.027L321.351 248.935C324.798 250.431 328.518 252.054 332.33 253.714C344.861 259.186 359.069 265.369 367.313 268.797C404.904 284.447 518.788 325.667 524.57 327.764L524.588 327.892C524.624 328.111 524.77 328.311 524.971 328.403C525.044 328.439 525.135 328.457 525.226 328.457C525.354 328.457 525.5 328.421 525.609 328.33L536.735 320.25C536.918 320.122 537.027 319.903 536.99 319.666L535.167 300.26C535.167 300.242 535.167 300.242 535.148 300.242C535.148 300.223 535.148 300.223 535.148 300.205C535.13 300.15 535.094 300.096 535.075 300.041C535.057 300.004 535.039 299.95 535.021 299.913C534.966 299.859 534.911 299.822 534.857 299.786C534.82 299.767 534.802 299.731 534.765 299.713C534.765 299.713 534.765 299.713 534.747 299.713C533.671 299.33 437.515 264.548 390.604 246.035C390.786 245.853 390.951 245.634 391.042 245.36C394.361 236.186 391.571 227.668 388.288 222.27L409.39 209.812C409.518 209.74 412.692 208.08 414.552 206.566C418.054 203.721 419.787 200.146 419.458 196.516C419.276 194.638 418.473 192.212 416.157 189.567C432.773 182.91 439.849 168.082 439.904 167.936C440.05 167.607 439.922 167.224 439.594 167.079C439.266 166.933 438.883 167.078 438.737 167.389C438.664 167.534 431.697 182.199 415.209 188.564C413.658 187.032 411.597 185.463 408.843 183.877L418.072 179.572C418.236 179.499 418.364 179.353 418.419 179.189C418.473 179.043 419.148 176.982 419.331 174.575C419.604 174.721 419.932 174.83 420.242 174.83C420.498 174.83 420.753 174.775 421.009 174.666L442.403 165.437L446.343 168.173C446.452 168.246 446.58 168.282 446.707 168.282C446.78 168.282 446.853 168.264 446.944 168.246L461.554 162.646C461.791 162.555 461.973 162.318 461.973 162.045L462.119 152.141C462.119 152.122 462.101 152.104 462.101 152.068C462.119 151.356 461.791 150.7 461.171 150.317L445.996 140.632C445.029 140.012 443.862 139.884 442.786 140.267L439.959 141.252C438.044 137.167 431.478 131.567 425.094 126.114C419.221 121.116 413.166 115.936 411.834 112.763C406.016 98.974 416.485 92.6086 428.632 85.24C436.785 80.279 445.212 75.172 448.932 67.2381C454.204 55.9664 462.119 46.4457 469.251 39.3142C468.631 39.3324 468.01 39.3507 467.39 39.3689C460.441 46.4821 452.872 55.7475 447.747 66.7092C444.154 74.2966 435.892 79.3306 427.903 84.1822ZM430.165 150.955L431.532 151.812L410.175 159.892C409.354 160.202 408.898 161.023 408.953 161.862C408.898 161.844 408.861 161.826 408.807 161.826H405.998L402.423 160.895C420.115 155.114 427.684 152.049 430.165 150.955ZM393.723 160.64C394.58 160.403 395.474 160.385 396.313 160.622L403.645 162.537L354.837 178.569C352.047 177.183 349.056 175.669 346.083 174.173L393.723 160.64ZM153.442 137.312C157.783 139.428 197.343 158.634 209.108 165.036C224.155 173.225 249.689 185.883 272.798 196.589C270.883 202.882 270.555 208.536 270.537 208.809C270.518 209.247 270.646 209.648 270.865 209.995C245.823 198.34 213.722 182.454 198.164 173.991C186.747 167.772 149.174 149.514 142.936 146.487L153.442 137.312ZM273.71 228.507L275.261 226.045C275.279 226.72 275.334 227.395 275.388 228.07L273.71 228.507ZM275.279 221.048H274.148C274.567 220.245 274.987 219.443 275.406 218.713C275.352 219.479 275.315 220.263 275.279 221.048ZM275.644 215.85C274.458 217.582 273.035 220.355 272.525 221.394C272.434 221.595 272.434 221.832 272.561 222.014C272.671 222.197 272.889 222.324 273.108 222.324H275.242C275.224 222.762 275.224 223.218 275.224 223.674L272.871 227.413C249.142 216.415 215.528 199.124 200.225 190.807C188.115 184.223 146.675 164.106 144.25 162.938L142.572 147.727C149.247 150.973 186.254 168.975 197.562 175.122C214.251 184.205 250.018 201.842 275.662 213.624C275.735 213.661 275.79 213.661 275.862 213.661C275.79 214.372 275.717 215.102 275.644 215.85ZM276.008 234.836L276.318 233.851C276.373 234.07 276.446 234.289 276.501 234.508L276.008 234.836ZM274.531 207.624C274.768 205.38 275.425 200.693 277.048 196.024C279.674 188.491 281.17 185.336 285.31 180.229C285.329 180.211 285.328 180.192 285.328 180.174C285.347 180.156 285.365 180.156 285.365 180.138C285.42 180.065 291.056 172.386 297.622 168.994C304.334 165.546 314.511 162.61 321.077 165.692C321.642 165.966 324.378 167.37 327.825 169.158C366.547 189.166 367.404 188.856 368.717 188.436C369.483 188.181 370.486 187.634 371.745 186.923C373.788 185.792 376.852 184.095 378.712 183.986C381.74 184.023 404.229 194.711 406.344 197.1C406.381 197.538 405.286 198.833 403.973 199.708C401.42 200.894 384.202 208.846 381.375 210.797C380.117 211.655 376.779 210.56 374.809 209.502C372.092 208.226 308.091 178.204 301.853 175.578C301.762 175.541 301.671 175.541 301.598 175.523C301.47 175.487 301.324 175.45 301.196 175.45C301.069 175.45 300.959 175.468 300.85 175.487C300.722 175.505 300.595 175.523 300.485 175.56C300.357 175.596 300.248 175.669 300.12 175.742C300.047 175.797 299.956 175.815 299.883 175.87C299.628 176.07 293.755 180.94 289.907 186.667C286.313 191.993 281.973 203.885 280.842 210.123L274.531 207.624ZM344.551 199.617C351.664 202.936 358.321 206.055 363.428 208.445L358.686 210.013C357.245 209.885 351.81 209.375 344.624 208.28C344.806 207.15 344.915 206.183 344.897 205.453C344.897 204.924 344.915 204.56 344.952 204.195C345.043 203.009 345.043 201.97 344.551 199.617ZM343.128 214.774L344.897 215.448L342.526 216.853C342.745 216.16 342.946 215.448 343.128 214.774ZM309.167 200.748C309.094 200.766 309.021 200.784 308.93 200.802C305.063 201.897 302.911 206.821 302.601 211.071L284.654 210.797C285.675 205.07 289.815 193.726 293.117 188.838C295.816 184.843 299.719 181.177 301.452 179.645C306.577 181.925 323.849 189.95 340.173 197.574C340.173 197.738 340.155 197.902 340.191 198.067C340.319 198.523 340.41 198.942 340.502 199.325L319.855 210.232C319.673 207.423 319.016 204.487 316.991 202.809C313.727 200.091 309.349 200.711 309.167 200.748ZM316.061 214.153L316.043 215.193C316.043 217.181 314.821 219.443 312.122 219.735C309.568 220.026 307.361 216.834 306.613 213.697C305.847 210.506 307.726 205.326 309.878 204.56C310.425 204.505 312.851 204.377 314.547 205.763C316.152 207.113 316.079 211.873 316.061 214.153ZM278.142 239.834L278.27 238.977C278.361 239.123 278.452 239.287 278.525 239.433L278.142 239.834ZM280.367 245.087L280.568 242.697C280.823 243.099 281.079 243.482 281.334 243.865L280.367 245.087ZM283.614 249.026V247.13C283.833 247.421 284.07 247.713 284.289 247.987L283.614 249.026ZM287.645 252.82L287.335 251.197C287.554 251.397 287.791 251.598 288.046 251.781L287.645 252.82ZM292.369 256.285L291.493 254.097C291.931 254.334 292.387 254.571 292.879 254.79L292.369 256.285ZM297.111 258.602L296.017 256.085C296.235 256.158 296.436 256.231 296.655 256.322C297.02 256.45 297.385 256.541 297.749 256.632L297.111 258.602ZM303.549 259.952L301.306 257.161C301.561 257.179 301.798 257.197 302.054 257.197C302.71 257.197 303.349 257.161 304.005 257.088L303.549 259.952ZM309.44 258.62L307.234 256.486C307.981 256.286 308.729 256.085 309.44 255.83V258.62ZM312.869 254.443C313.635 254.097 314.383 253.732 315.076 253.385L315.678 256.194L312.869 254.443ZM314.675 249.245C310.17 251.543 304.005 254.717 297.877 252.638C289.742 249.902 287.499 246.363 282.556 238.63L282.246 238.156C277.978 231.462 279 220.884 279.711 213.843L281.334 214.482C281.553 214.573 281.79 214.609 282.027 214.609L302.911 214.919C304.06 219.26 307.234 223.601 311.757 223.601C312.012 223.601 312.268 223.583 312.523 223.565C317.374 223.054 319.928 218.95 319.928 215.175V214.19C319.946 213.406 319.946 212.53 319.928 211.618L340.793 200.584C341.176 202.462 341.14 203.119 341.085 203.885C341.049 204.341 341.012 204.833 341.03 205.508C341.067 207.77 339.334 214.664 337.073 221.23C336.854 221.832 337 222.47 337.346 222.945C334.501 221.686 331.929 220.555 329.795 219.625C329.741 219.607 329.668 219.589 329.595 219.589C329.576 219.589 329.576 219.589 329.558 219.589C329.394 219.589 329.248 219.643 329.12 219.735H329.102L329.084 219.753L317.575 229.821C317.411 229.967 317.338 230.167 317.356 230.386L319.545 247.403C319.198 247.312 318.834 247.294 318.469 247.421C317.393 247.859 316.134 248.497 314.675 249.245ZM341.377 220.61L343.529 221.522L340.866 222.16C341.03 221.65 341.213 221.139 341.377 220.61ZM317.867 251.981C318.596 251.616 319.235 251.325 319.764 251.142C320.019 251.051 320.238 250.923 320.42 250.741L321.113 253.878L317.867 251.981ZM367.805 267.612C359.561 264.183 345.371 258 332.841 252.528C328.646 250.704 324.579 248.935 320.858 247.312L318.943 232.447C329.595 237.007 357.519 248.753 365.27 251.981C402.605 267.521 515.158 308.285 522.381 310.893L524.369 326.323C513.572 322.42 404.429 282.842 367.805 267.612ZM535.659 319.429L525.719 326.652L523.658 310.674L532.048 303.324L533.981 301.628L535.659 319.429ZM533.251 300.552L522.819 309.671C515.578 307.045 403.061 266.299 365.744 250.777C357.81 247.476 328.792 235.274 318.724 230.952L318.688 230.605L329.668 221.011C335.176 223.401 343.511 227.121 351.573 230.733C361.513 235.183 371.8 239.797 376.797 241.877C413.275 257.052 521.506 296.302 533.251 300.552ZM387.376 244.047C387.303 244.266 387.266 244.503 387.266 244.74C385.953 244.211 384.676 243.719 383.473 243.226C383.692 243.044 383.874 242.825 384.002 242.552C384.439 241.585 384.02 240.418 383.035 239.98L349.129 224.513C348.144 224.075 346.995 224.495 346.557 225.48C346.302 226.027 346.356 226.611 346.593 227.121C344.095 226.009 341.632 224.914 339.316 223.875L345.718 222.343C345.991 222.27 346.192 222.051 346.21 221.759C346.229 221.467 346.083 221.212 345.827 221.102L341.778 219.388C341.851 219.151 341.924 218.932 341.997 218.695L346.721 215.886C346.94 215.758 347.049 215.521 347.031 215.284C347.013 215.047 346.849 214.828 346.612 214.737L343.456 213.533V213.515L345.754 212.785C345.937 212.731 346.064 212.603 346.137 212.457C353.561 213.533 358.686 213.935 358.759 213.935C358.814 213.935 358.85 213.935 358.905 213.935C359.105 213.935 359.324 213.898 359.507 213.843L365.872 211.728C366.565 211.49 367.021 210.907 367.149 210.214C368.115 210.67 368.991 211.071 369.739 211.436C369.885 211.6 370.067 211.746 370.268 211.855C370.341 211.892 376.925 215.211 382.269 220.756C386.245 224.841 390.859 234.435 387.376 244.047ZM418.127 196.626C418.419 199.818 416.85 202.991 413.695 205.563C411.944 206.985 408.788 208.645 408.715 208.682L387.558 221.175C386.719 219.917 385.862 218.859 385.096 218.057C383.947 216.871 382.761 215.777 381.594 214.792C382.287 214.646 382.962 214.39 383.564 213.989C385.534 212.64 397.9 206.767 405.724 203.174C405.797 203.137 405.888 203.101 405.961 203.046C406.563 202.663 409.591 200.602 410.138 197.957C410.357 196.881 410.156 195.823 409.554 194.929C408.734 193.689 404.338 191.081 399.103 188.4L407.384 184.551C407.42 184.57 407.439 184.606 407.475 184.624C414.059 188.217 417.744 192.358 418.127 196.626ZM417.215 178.533L397.626 187.652C389.984 183.84 381.102 180.101 378.639 180.101C378.603 180.101 378.548 180.101 378.512 180.101C375.758 180.265 372.493 182.071 369.885 183.53C369.137 183.95 368.371 184.369 367.878 184.606C366.364 184.15 361.932 182.071 356.497 179.39L406.034 163.121H408.661C409.627 163.631 415.354 166.768 417.197 169.65C418.911 172.313 417.58 177.329 417.215 178.533ZM419.44 171.128C419.331 171.164 419.258 171.255 419.166 171.31C419.002 170.453 418.747 169.65 418.291 168.957C418.181 168.793 418.072 168.629 417.944 168.465C417.963 168.446 417.999 168.465 418.017 168.446C418.82 168.1 433.448 162.245 440.543 159.418L440.652 161.953L419.44 171.128ZM440.816 155.187C440.707 155.205 440.597 155.241 440.506 155.278C439.576 155.643 417.58 164.416 416.485 164.908C415.993 165.127 415.646 165.51 415.464 165.984C414.26 164.999 412.947 164.124 411.816 163.431L436.585 154.056C437.278 153.8 437.752 153.162 437.825 152.433C437.825 152.414 437.825 152.414 437.825 152.396L441.801 154.986L440.816 155.187ZM446.105 166.477L443.716 164.817C444.282 164.452 444.646 163.814 444.61 163.121L444.318 156.737C444.318 156.682 444.282 156.646 444.282 156.591L446.707 158.178L446.105 166.477ZM460.642 161.607L447.382 166.677L447.984 158.287L460.697 153.983C460.715 153.983 460.733 153.965 460.751 153.946L460.642 161.607ZM443.169 141.507C443.862 141.27 444.628 141.361 445.266 141.744L460.441 151.429C460.697 151.594 460.824 151.849 460.788 152.141V152.159C460.751 152.451 460.569 152.688 460.277 152.779L447.455 157.12L430.329 145.994L443.169 141.507Z" fill="#DCDCDC"/>
<path d="M615.394 56.3511C615.394 56.3328 615.394 56.3511 615.394 56.3511C615.248 56.2052 615.102 56.0957 614.919 56.0045C614.682 55.8769 614.427 55.8221 614.172 55.8039L536.364 24.5058C536.346 24.4876 536.327 24.4875 536.327 24.4693C536.236 24.3963 536.127 24.3416 536.017 24.2869C535.89 24.214 535.78 24.1593 535.653 24.1228C535.543 24.0863 535.434 24.0863 535.306 24.068C535.197 24.0498 535.105 24.0133 534.996 24.0316C534.96 24.0316 534.941 24.0498 534.905 24.0498C534.777 24.0681 534.668 24.1046 534.54 24.141C534.412 24.1775 534.285 24.2139 534.175 24.2687C534.157 24.2869 534.121 24.2869 534.102 24.3052L471.707 61.8046C471.707 61.8046 471.707 61.8228 471.688 61.8228C471.524 61.914 471.415 62.0599 471.287 62.1876C471.232 62.2423 471.178 62.2788 471.141 62.3335C471.086 62.4247 471.05 62.5159 471.013 62.6071C470.94 62.7348 470.868 62.8624 470.831 63.0083C470.813 63.063 470.831 63.0996 470.831 63.1543C470.795 63.3549 470.776 63.5555 470.813 63.7744V63.7926C471.287 66.6744 473.385 95.3096 474.424 109.992L476.85 157.012C476.886 157.724 477.324 158.38 477.981 158.672C500.05 168.849 533.592 184.444 535.525 185.72C537.422 187.198 548.055 187.946 556.646 188.329C556.682 188.329 556.7 188.329 556.737 188.329C556.773 188.329 556.81 188.329 556.828 188.329C556.864 188.329 556.901 188.31 556.938 188.292C557.12 188.274 557.302 188.219 557.466 188.164C557.539 188.128 557.594 188.11 557.667 188.073C557.722 188.037 557.776 188.037 557.831 188L617.163 146.963C617.692 146.598 618.02 145.978 618.002 145.321L615.977 57.6826C615.959 57.1536 615.74 56.6976 615.394 56.3511ZM613.734 129.508L561.899 109.919L612.494 75.8668L613.734 129.508ZM557.466 108.241L554.566 107.147L554.165 99.1946L560.512 95.3279L612.183 61.2574L612.421 71.2524L557.466 108.241ZM532.333 104.156C532.698 104.156 532.971 103.864 532.971 103.517V81.831L542.438 85.7159L542.875 114.57L528.485 108.77L528.065 79.843L531.658 81.3204V103.535C531.695 103.864 531.987 104.156 532.333 104.156ZM545.465 142.95C545.392 142.968 545.283 143.005 545.137 143.059C544.371 143.351 542.292 144.099 539.665 143.971C539.337 143.953 536.729 143.442 534.376 142.95C533.665 142.603 529.926 140.743 529.178 140.506C528.539 140.269 525.53 137.369 525.293 136.639C525.238 136.493 525.147 136.384 525.037 136.311C525.311 136.147 525.566 136.001 525.84 135.837C527.08 137.405 532.534 140.269 534.029 140.597L534.613 140.725C536.984 141.235 539.373 141.746 540.176 141.783C540.303 141.783 540.413 141.783 540.541 141.783C543.185 141.783 546.377 140.925 546.414 140.907C548.274 140.36 550.463 139.393 552.323 138.481L552.414 140.433C549.934 141.418 547.307 142.421 545.465 142.95ZM552.469 141.801L552.56 143.661C550.9 144.537 549.532 145.248 548.985 145.467C545.046 147.09 542.839 147.4 540.723 147.346C538.553 147.291 529.506 144.281 527.354 142.695C525.585 141.381 524.618 138.755 524.199 137.369C524.91 138.7 527.883 141.491 528.776 141.783C529.287 141.947 532.169 143.351 533.865 144.19C533.92 144.208 533.975 144.227 534.011 144.245C534.832 144.427 538.972 145.285 539.592 145.321C539.811 145.339 540.03 145.339 540.249 145.339C542.839 145.339 544.809 144.61 545.575 144.336C545.684 144.3 545.775 144.263 545.83 144.245C547.617 143.661 550.098 142.731 552.469 141.801ZM546.031 139.667C545.994 139.667 542.711 140.579 540.194 140.469C539.428 140.451 536.346 139.776 534.868 139.448L534.285 139.32C532.971 139.029 528.01 136.366 526.916 135.125C527.408 134.797 527.919 134.469 528.412 134.122C530.163 135.49 535.233 137.697 536.729 137.807C537.55 137.861 539.556 137.916 541.398 137.916C542.802 137.916 544.115 137.879 544.681 137.788C547.289 137.387 550.043 137.022 552.214 136.73L552.232 137.041C550.299 138.044 547.964 139.102 546.031 139.667ZM544.462 136.53C543.313 136.712 538.315 136.639 536.802 136.53C535.653 136.439 531.221 134.524 529.488 133.356C529.907 133.046 530.327 132.736 530.728 132.444C531.658 132.991 533.464 133.685 535.306 134.341C535.598 134.451 535.817 134.524 535.926 134.56C536.637 134.852 541.854 135.144 541.909 135.144C546.724 135.144 550.919 134.104 552.05 133.794L552.141 135.472C549.934 135.746 547.125 136.129 544.462 136.53ZM541.927 129.745C542.857 129.745 545.228 129.198 546.085 128.979C546.596 129.38 546.979 129.745 547.216 130.128C547.289 130.237 547.435 130.383 547.617 130.547C546.14 130.857 542.547 131.423 538.717 130.42C537.823 130.183 536.273 129.636 535.197 129.015C535.689 128.651 536.163 128.304 536.619 127.994C537.841 128.942 541.07 129.745 541.927 129.745ZM537.787 127.228C539.373 126.279 540.705 125.805 541.562 126.28C542.784 126.954 543.769 127.502 544.572 127.994C543.55 128.213 542.401 128.45 541.909 128.45C541.124 128.45 538.826 127.775 537.787 127.228ZM538.37 131.66C540.139 132.116 541.854 132.28 543.349 132.28C546.377 132.28 548.566 131.642 548.693 131.605C548.748 131.587 548.803 131.551 548.858 131.514C549.387 131.897 550.007 132.317 550.7 132.773C548.949 133.174 545.575 133.83 541.927 133.83C541.416 133.812 536.929 133.502 536.419 133.338C536.309 133.301 536.072 133.21 535.762 133.101C534.85 132.773 532.971 132.098 531.877 131.569C532.169 131.35 532.479 131.113 532.753 130.894C533.208 130.547 533.646 130.201 534.084 129.854C535.361 130.712 537.404 131.405 538.37 131.66ZM548.292 129.417C547.471 128.14 545.939 127.228 542.656 125.422C542.966 125.313 543.258 125.167 543.477 124.93L551.156 116.613L551.958 132.079C549.934 130.748 548.529 129.745 548.292 129.417ZM542.091 120.717C541.07 119.549 540.066 118.346 539.136 117.233L543.641 119.057L542.091 120.717ZM532.242 114.424C533.701 116.941 537.932 121.847 540.577 124.839C538.315 124.966 535.434 127.155 531.968 129.854C529.269 131.934 526.223 134.305 523.049 135.964C522.794 136.092 522.666 136.384 522.721 136.658C522.758 136.858 523.743 141.582 526.606 143.698C528.922 145.412 538.334 148.549 540.723 148.604C540.869 148.604 541.015 148.604 541.161 148.604C543.295 148.604 545.629 148.221 549.496 146.634C550.007 146.434 551.192 145.813 552.651 145.047L553.855 168.302L482.066 137.989L525.348 111.506C525.493 111.634 525.676 111.743 525.877 111.834L532.242 114.424ZM551.156 96.4769C551.083 96.5316 551.028 96.6046 550.955 96.6593C550.846 96.7505 550.736 96.8234 550.663 96.9329C550.59 97.0241 550.536 97.1335 550.481 97.243C550.426 97.3524 550.371 97.4618 550.335 97.5712C550.299 97.6989 550.28 97.8266 550.28 97.9725C550.28 98.0637 550.244 98.1367 550.244 98.2279L550.9 110.813L546.797 113.731L546.395 87.3027L558.287 92.1726L551.156 96.4769ZM612.384 56.4788L587.597 72.821L538.48 52.8675L537.057 26.1655L612.384 56.4788ZM534.266 46.3926L534.522 51.2441L529.67 49.2744L534.266 46.3926ZM533.336 29.2844L534.011 41.9605L525.22 47.4687L511.997 42.0882L533.336 29.2844ZM507.856 44.5869L583.676 75.3927L577.347 79.5694L502.385 47.8699L507.856 44.5869ZM573.462 82.1411L562.172 89.5826L545.119 82.6152H545.1L526.843 75.1555L501.236 64.6863L500.287 51.226L573.462 82.1411ZM474.771 64.4674L496.402 51.463L497.369 64.9599L475.956 78.4021C475.482 72.3103 475.044 67.0027 474.771 64.4674ZM478.273 109.737C478.2 108.752 477.233 95.0908 476.285 82.7795L499.576 68.1517L524.18 78.2197L524.6 107.42L479.568 134.961L478.273 109.737ZM537.878 182.638C536.072 181.252 494.961 162.229 480.644 155.626L480.133 145.777L533.427 169.469L533.519 176.674C533.519 176.929 533.683 177.166 533.92 177.258L544.134 181.598C544.207 181.635 544.298 181.653 544.389 181.653C544.517 181.653 544.644 181.617 544.754 181.544C544.936 181.416 545.046 181.215 545.046 180.997V172.935C545.046 172.661 544.882 172.424 544.626 172.333L534.321 168.43C534.285 168.412 534.248 168.43 534.23 168.412L480.097 144.336L479.951 141.327L554.092 172.625L554.694 184.334C547.143 183.951 539.082 183.203 537.878 182.638ZM534.722 169.962L543.732 173.373V180.03L534.814 176.236L534.722 169.962ZM556.08 136.475C556.153 136.439 556.244 136.384 556.299 136.347C557.12 136.858 557.922 137.351 558.67 137.807C558.233 137.989 557.357 138.372 556.208 138.864L556.08 136.475ZM556.263 140.232C558.05 139.485 559.345 138.919 559.491 138.846C559.655 138.773 559.765 138.646 559.819 138.5C560.184 138.719 560.549 138.937 560.859 139.138C559.838 139.703 558.141 140.634 556.336 141.6L556.263 140.232ZM557.685 167.773L556.409 143.059C559.4 141.436 562.245 139.868 562.464 139.758C562.665 139.649 562.792 139.43 562.792 139.211C562.792 138.974 562.683 138.755 562.482 138.646C560.567 137.496 558.579 136.275 556.719 135.125C556.7 135.107 556.664 135.089 556.646 135.089C556.409 134.943 556.19 134.797 555.971 134.669L554.931 114.643L557.941 112.618L609.831 132.225L557.685 167.773ZM558.47 182.82L557.922 172.315L613.843 134.159L614.08 144.354L558.47 182.82Z" fill="#DCDCDC"/>
<path d="M191.412 43.2139C191.303 42.7579 191.066 42.3749 190.774 42.0466C190.737 42.0101 190.701 41.9736 190.664 41.9189C190.61 41.8642 190.573 41.8277 190.519 41.773C188.768 40.1315 181.654 35.9912 180.323 35.2617C178.772 34.4227 176.967 34.1855 175.252 34.5868L112.528 49.4152C110.723 49.9623 109.501 51.002 108.862 52.5158C107.896 54.7957 108.571 57.6227 109.537 59.5013C110.011 60.4315 110.303 61.1611 110.467 61.8724L117.599 91.5108C117.654 91.7114 117.781 91.8755 117.982 91.9485L131.041 97.3473C131.059 97.3473 131.078 97.3473 131.078 97.3473C131.406 97.5114 131.807 97.6026 132.245 97.6026C132.336 97.6026 132.427 97.6027 132.537 97.5844C133.248 97.5115 142.44 95.341 164.236 90.0882C176.912 87.024 184.427 84.124 188.457 82.5737C189.296 82.2454 189.99 81.99 190.519 81.7894C195.151 80.1479 197.504 77.485 197.139 74.3114C196.756 70.9737 193.236 50.2906 191.412 43.2139ZM112.857 50.6736L175.544 35.8635C176.949 35.5352 178.426 35.7176 179.703 36.4107C182.092 37.7057 185.466 39.7849 187.655 41.244C175.49 43.9434 124.293 57.6227 123.308 58.0239C123.125 58.0969 122.998 58.2428 122.87 58.3523L110.394 52.461C110.905 51.622 111.744 51.0019 112.857 50.6736ZM118.784 90.8907L111.726 61.5805C111.525 60.778 111.197 59.9209 110.686 58.9177C109.975 57.5315 109.391 55.3976 109.847 53.6284L122.086 59.4101C121.447 61.3982 122.487 64.6995 122.779 65.5749L129.472 95.3227L118.784 90.8907ZM190.117 80.5856C189.57 80.7863 188.877 81.0416 188.02 81.3881C184.007 82.9384 176.547 85.8202 163.944 88.8661C155.609 90.8724 133.449 96.2347 132.427 96.3441C131.296 96.4353 130.859 95.4869 130.84 95.4869L124.055 65.2831C124.055 65.2649 124.037 65.2284 124.037 65.2102C123.289 63.058 122.688 59.6655 123.764 59.2277C125.113 58.7535 177.313 44.8189 188.33 42.4114C188.439 42.3932 188.549 42.3749 188.658 42.3749C189.351 42.3749 189.971 42.8308 190.154 43.5422C191.978 50.6007 195.479 71.1561 195.881 74.4938C196.246 77.7221 192.944 79.5825 190.117 80.5856Z" fill="#DCDCDC"/>
<path d="M160.622 60.3948C156.537 61.1244 153.783 62.6565 152.415 64.9546C151.776 66.0489 151.485 67.3257 151.485 68.7118C151.485 68.7665 151.466 68.8395 151.448 68.8942C151.43 69.0036 151.466 69.1131 151.503 69.2043C151.558 70.1892 151.722 71.2288 152.087 72.3049C153.053 75.1502 156.865 76.2993 160.787 76.2993C162.72 76.2993 164.672 76.0075 166.313 75.515C167.152 75.2597 167.845 74.8219 168.447 74.2747C168.538 74.22 168.611 74.1471 168.648 74.0559C168.994 73.6911 169.304 73.2898 169.541 72.8339C170.982 70.0615 170.38 66.2313 169.851 64.5898C169.085 62.164 164.58 59.6835 160.622 60.3948ZM160.841 61.6715C161.68 61.5256 162.556 61.5439 163.413 61.7081C164.015 62.5835 164.854 65.3741 163.723 66.5049C162.848 67.3804 161.735 67.8729 161.042 68.1282C160.695 66.5779 159.601 64.9546 157.595 64.3162C156.555 63.9697 155.661 63.9332 154.914 64.0791C156.263 62.9301 158.251 62.1275 160.841 61.6715ZM153.327 71.9037C152.944 70.8093 152.78 69.788 152.761 68.8578C152.871 68.0917 153.236 66.8879 153.746 66.1401C154.202 65.4653 155.351 64.9546 157.175 65.5383C158.908 66.1037 159.747 67.654 159.838 68.949C159.765 69.4597 159.473 71.9584 161.279 73.5634C162.082 74.2747 162.902 74.6395 163.796 74.8036C159.328 75.515 154.257 74.5848 153.327 71.9037ZM168.41 72.2502C168.228 72.5967 168.009 72.8885 167.754 73.1621C165.055 73.7458 163.577 73.8553 162.136 72.5785C161.078 71.6483 161.042 70.1527 161.078 69.4596C161.844 69.2225 163.395 68.6206 164.617 67.4168C165.912 66.1219 165.675 63.8056 165.073 62.1823C166.878 62.8754 168.319 64.0244 168.629 64.9911C169.158 66.6144 169.56 70.0433 168.41 72.2502Z" fill="#DCDCDC"/>
<path d="M117.892 72.359C117.819 72.0124 117.454 71.7936 117.126 71.8848C116.779 71.9577 116.56 72.3043 116.652 72.6508L120.081 87.4062C120.153 87.698 120.409 87.8987 120.701 87.8987C120.755 87.8987 120.792 87.8986 120.847 87.8804C121.193 87.8074 121.412 87.4609 121.321 87.1143L117.892 72.359Z" fill="#DCDCDC"/>
<path d="M160.278 54.4488C155.554 54.54 151.14 57.5859 149.024 59.0632C145.139 61.7626 143.407 71.867 147.018 77.3934C149.626 81.3878 154.952 82.2268 159.658 82.2268C161.664 82.2268 163.579 82.0809 165.111 81.9532C169.653 81.5884 173.355 78.0136 175.325 74.7853C177.003 72.0312 176.857 64.1702 175.051 60.267C172.826 55.4519 164.455 54.3394 160.278 54.4488ZM172.024 72.7607C170.619 75.0589 167.902 77.8311 164.655 78.0865C160.788 78.3966 152.745 79.0349 150.265 75.2594C147.675 71.3016 149.334 63.55 151.231 62.2368C153.037 60.9965 156.794 58.3884 160.351 58.3154C160.497 58.3154 160.624 58.3154 160.77 58.3154C165.166 58.3154 170.528 59.7381 171.531 61.8903C172.99 65.0456 172.79 71.5023 172.024 72.7607Z" fill="#DCDCDC"/>
<path d="M188.71 50.9468C188.546 50.8374 188.364 50.8192 188.181 50.8739L178.059 53.7009C177.731 53.7921 177.53 54.1386 177.603 54.4852C178.205 56.911 179.08 59.5556 179.098 59.5738C179.19 59.8474 179.427 60.0116 179.719 60.0116C179.737 60.0116 179.737 60.0116 179.755 60.0116C180.631 59.9569 185.063 59.6833 186.029 59.2821C186.941 58.8991 189.458 57.7499 189.458 57.7499C189.714 57.6223 189.878 57.3487 189.823 57.0751L188.984 51.3845C188.966 51.2021 188.856 51.038 188.71 50.9468ZM185.519 58.0965C185.008 58.3154 182.236 58.5707 180.156 58.6984C179.919 57.9324 179.427 56.3638 179.007 54.777L187.817 52.3147L188.473 56.7833C187.726 57.1298 186.193 57.8047 185.519 58.0965Z" fill="#DCDCDC"/>
<path d="M126.773 54.777C127.356 54.9047 127.867 54.9594 128.36 54.9594C129.016 54.9594 129.655 54.85 130.457 54.6129C132.062 54.1569 133.339 53.2632 133.959 52.1689C134.342 51.4758 134.451 50.7644 134.251 50.0895C133.612 47.8644 132.007 46.8248 129.873 47.2078L129.326 47.299C126.919 47.7185 124.438 48.1745 123.836 49.6154C123.763 49.7978 123.709 50.0166 123.654 50.2355C123.289 52.2965 124.675 54.321 126.773 54.777ZM124.931 50.4908C124.949 50.3449 124.985 50.2173 125.04 50.1261C125.368 49.3418 127.904 48.8858 129.563 48.594L130.111 48.5028C130.329 48.4663 130.53 48.448 130.712 48.448C131.843 48.448 132.627 49.1229 133.011 50.4726C133.138 50.8921 132.974 51.2933 132.828 51.5669C132.39 52.3694 131.369 53.0625 130.092 53.4091C128.87 53.7556 128.177 53.7921 127.028 53.5368C125.624 53.2085 124.675 51.8405 124.931 50.4908Z" fill="#DCDCDC"/>
<path d="M136.879 48.4114C136.934 48.4114 136.988 48.4114 137.043 48.3932L141.22 47.2442C141.566 47.153 141.767 46.7881 141.676 46.4416C141.585 46.095 141.238 45.8944 140.873 45.9856L136.697 47.1347C136.35 47.2259 136.15 47.5907 136.241 47.9372C136.332 48.229 136.587 48.4114 136.879 48.4114Z" fill="#DCDCDC"/>
<path d="M137.918 50.764C138.009 51.0375 138.264 51.2199 138.538 51.2199C138.593 51.2199 138.666 51.2199 138.72 51.1834L143.426 49.7426C143.773 49.6331 143.955 49.2684 143.864 48.9401C143.754 48.5935 143.39 48.4111 143.061 48.5023L138.356 49.9432C138.009 50.0526 137.827 50.4174 137.918 50.764Z" fill="#DCDCDC"/>
<path d="M162.523 43.9973C162.578 43.9973 162.632 43.9973 162.687 43.9791L166.955 42.8301C167.302 42.7389 167.502 42.3741 167.411 42.0458C167.32 41.6993 166.973 41.4986 166.627 41.5898L162.359 42.7389C162.012 42.8301 161.812 43.1948 161.903 43.5231C161.976 43.8149 162.249 43.9973 162.523 43.9973Z" fill="#DCDCDC"/>
<path d="M90.2034 86.6043C90.6594 86.6591 91.1336 86.6773 91.6078 86.6773C93.76 86.6773 95.967 86.1666 98.1009 85.1999L98.5752 84.9811C99.4324 84.5981 100.29 84.1968 100.454 83.3396C100.49 83.2484 100.527 83.1572 100.527 83.066V79.637C101.913 79.6005 102.515 79.3452 102.752 79.0898L102.77 79.0717L102.788 79.0534C102.807 79.0352 102.825 78.9987 102.843 78.9622C102.861 78.9257 102.88 78.8892 102.898 78.8528C102.953 78.7251 102.971 78.5974 102.953 78.4697V63.3861C102.953 63.3496 102.934 63.3131 102.934 63.2767C102.934 63.2402 102.916 63.2037 102.916 63.1489C102.898 63.1125 102.88 63.076 102.861 63.0395C102.843 63.003 102.825 62.9666 102.788 62.9301C102.752 62.8937 102.734 62.8753 102.697 62.8571C102.661 62.8389 102.624 62.8024 102.588 62.7842C102.551 62.7659 102.497 62.766 102.46 62.7477C102.424 62.7477 102.405 62.7295 102.369 62.7295C102.369 62.7295 100.8 62.6383 98.7028 62.6018C92.994 62.5106 89.4739 62.8937 88.3066 63.7509C86.9387 64.754 86.1179 66.0307 86.0084 67.3439C86.0084 67.3622 86.0084 67.3986 86.0084 67.4169C86.0084 67.4533 85.9902 67.4716 85.9902 67.5081V81.6069C85.9902 83.7773 85.9902 84.1238 86.9751 85.3094C87.5041 86.0024 88.5801 86.422 90.2034 86.6043ZM101.639 63.988V78.1961C101.439 78.2509 101.092 78.3056 100.508 78.3238V67.9093C101.074 66.4867 100.746 64.9729 100.217 64.0245C100.198 63.988 100.18 63.9515 100.162 63.9333C100.782 63.9515 101.274 63.9697 101.639 63.988ZM89.0179 64.7905C89.3279 64.5716 90.7871 63.8785 97.0248 63.8785C97.4443 63.8785 97.8638 63.8785 98.3198 63.8785C98.3563 63.8967 98.411 63.915 98.4474 63.9333C98.5204 63.9515 98.8487 64.1886 99.1405 64.754C99.3047 65.1006 99.8336 66.3226 99.2682 67.5811C99.1952 67.7452 98.6846 68.2559 97.6267 68.7484C95.2009 69.8792 92.6292 70.3352 90.2217 70.0251C88.7626 69.8427 88.1424 69.4962 87.9053 69.2226C87.4129 68.6937 87.194 68.0917 87.2487 67.4351C87.3217 66.5414 87.9783 65.5747 89.0179 64.7905ZM87.2305 70.3534C87.8323 70.8458 88.7625 71.1741 90.0575 71.3382C90.6047 71.4112 91.1518 71.4294 91.699 71.4294C93.8512 71.4294 96.0764 70.9188 98.1921 69.9339C98.5751 69.7515 98.9217 69.5508 99.2317 69.3502V83.066C99.2317 83.2849 98.6116 83.5584 98.0645 83.7955L97.572 84.0144C95.2009 85.1087 92.7022 85.5647 90.3676 85.3094C88.7261 85.127 88.1606 84.7074 87.96 84.4703C87.2669 83.6313 87.267 83.6314 87.267 81.5886V70.3534H87.2305Z" fill="#DCDCDC"/>
<path d="M91.5872 68.8945C91.952 69.0769 93.1375 69.1864 93.94 69.1864C94.2136 69.1864 94.4507 69.1682 94.5784 69.1317C95.8916 68.8216 96.2381 67.8914 96.3111 67.1618C96.3476 66.7788 95.8734 65.3926 95.2897 65.0643C94.7243 64.7543 93.8488 64.6814 93.7029 64.6631C92.9551 64.5719 90.9853 64.3713 90.6388 66.2864C90.3652 67.709 91.0765 68.6392 91.5872 68.8945ZM91.8973 66.56C91.952 66.2864 92.0067 65.9398 92.9551 65.9398C93.1375 65.9398 93.3381 65.958 93.5752 65.9763H93.5935C93.8306 65.9945 94.4142 66.0675 94.5966 66.1769C94.7243 66.3228 94.9797 66.9612 95.0161 67.0706C94.9614 67.6178 94.7061 67.7819 94.2683 67.8914C93.9583 67.9461 92.4262 67.8367 92.1526 67.7455C92.0796 67.6908 91.7513 67.2895 91.8973 66.56Z" fill="#DCDCDC"/>
</svg>
