<svg width="384" height="175" viewBox="0 0 384 175" fill="none" xmlns="http://www.w3.org/2000/svg">
<path d="M36.2065 3.3422C35.2962 3.22474 34.6208 2.72551 33.7693 2.10885C32.8002 1.40409 31.6108 0.508484 29.8343 0.112059C26.3252 -0.666111 10.4535 2.72551 6.57735 6.66041C4.24284 9.03896 1.62931 14.1484 -0.455595 18.2595C-1.16035 19.6397 -1.93844 21.1813 -2.42296 21.9742C-3.06898 21.7686 -4.0821 21.3575 -4.87495 21.0345C-9.04477 19.3607 -11.9226 18.3476 -13.7138 19.302C-14.0221 19.4635 -14.5507 19.669 -15.1821 19.904C-18.2654 21.0786 -24.0208 23.2809 -26.7958 30.0055C-30.0259 37.8165 -30.0848 54.951 -28.2788 59.7228C-28.0292 60.3688 -27.7943 61.0882 -27.5153 61.8811C-25.959 66.4473 -23.6098 73.3481 -17.6781 77.7675C-12.965 81.2766 -4.59607 84.7416 1.49714 87.267C4.08125 88.3388 6.3131 89.2638 7.63451 89.9245C9.10276 90.6586 10.1892 91.4809 11.2463 92.2884C13.3312 93.8594 15.4895 95.4892 19.9236 95.959C23.1537 96.2967 26.3398 96.3848 28.7331 95.2836C28.689 98.2641 28.8065 101.905 28.9093 105.488C29.0708 110.656 29.2323 116.015 28.9093 118.761C28.3367 123.841 23.7411 165.862 23.697 169.606C22.3756 169.885 20.5844 170.061 18.5876 170.252C13.6543 170.722 7.517 171.309 3.02417 173.996C2.77457 174.143 2.70113 174.466 2.84795 174.716C2.95073 174.877 3.11224 174.965 3.28843 174.965C3.37652 174.965 3.46459 174.936 3.55268 174.892C7.83995 172.322 13.8451 171.75 18.6756 171.295C20.8192 171.089 22.6399 170.913 24.0201 170.605C24.299 170.986 24.7396 171.251 25.2534 171.251C26.1197 171.251 26.8097 170.546 26.8097 169.694C26.8097 166.699 31.3173 125.265 32.0074 119.128C32.3451 116.162 32.1835 110.935 32.022 105.414C31.8605 100.232 31.699 94.8872 31.9926 91.9066C32.389 90.8789 32.5653 89.2932 32.5213 87.4872C33.2701 81.8051 34.3712 74.875 34.9145 71.8651C35.2962 69.7362 37.337 60.7652 39.143 52.8514C40.391 47.4042 41.551 42.2947 42.0648 39.8427C42.241 39.0058 41.7124 38.1689 40.8609 37.9928C40.024 37.8166 39.187 38.3451 39.0108 39.1967C38.4822 41.634 37.3224 46.7288 36.0891 52.1613C34.195 60.4863 32.2276 69.1048 31.8312 71.3072C31.5375 72.9663 31.0824 75.6826 30.6125 78.7365C29.9665 77.3417 29.1589 76.1377 28.1752 75.3302C25.8994 73.4508 21.524 68.1798 18.6316 64.7001C17.0165 62.762 15.8567 61.3672 15.2694 60.7652C13.6837 59.1795 4.66855 49.2101 4.58045 49.1074C4.00784 48.4613 3.02411 48.4173 2.37809 48.9899C1.73206 49.5625 1.68804 50.5609 2.26066 51.1923C2.43685 51.3978 4.58054 53.7617 6.94441 56.3458C3.93451 55.8906 -0.52898 55.2446 -3.14245 54.9363C-4.00872 54.8335 -4.77218 55.4502 -4.87495 56.3018C-4.93368 56.8597 -4.68414 57.3736 -4.27303 57.6966C-8.38412 57.2414 -12.1721 56.6541 -14.1983 55.9934C-14.4773 55.9053 -14.7709 56.0521 -14.859 56.3311C-14.9471 56.6101 -14.8003 56.9037 -14.5213 56.9918C-10.2928 58.372 0.67498 59.4144 7.57573 59.6053C8.77969 59.7815 9.5872 59.9136 9.60188 59.9136C9.67529 59.9283 9.76347 59.9283 9.83688 59.9283C9.93966 59.9283 10.0424 59.899 10.1452 59.8696C11.4666 61.3085 12.5678 62.483 13.0376 62.9676C13.5221 63.4521 14.7701 64.9497 16.209 66.6822C19.351 70.4703 23.6677 75.6679 26.1784 77.7381C28.1459 79.3532 29.2176 83.7579 29.3938 87.1202C29.2029 88.5444 29.0414 89.8952 28.9093 91.0845C28.043 92.6115 26.1343 93.4777 20.2026 92.861C16.6348 92.4793 15.0638 91.3047 13.0816 89.8071C11.9658 88.9702 10.703 88.0158 8.98519 87.1495C7.56099 86.4301 5.28532 85.4904 2.64249 84.4039C-3.3039 81.9373 -11.4674 78.5603 -15.8722 75.2862C-21.0257 71.4394 -23.0959 65.3461 -24.6228 60.8974C-24.9018 60.0751 -25.1661 59.3116 -25.4157 58.6362C-26.8546 54.8188 -26.972 38.4919 -23.9621 31.2241C-21.701 25.7476 -16.9586 23.927 -14.1249 22.8551C-13.4055 22.5762 -12.7888 22.3412 -12.3484 22.1063C-11.4234 21.842 -7.8261 23.2663 -6.09357 23.971C-3.28922 25.0869 -2.14402 25.5567 -1.13093 25.0722C-0.338079 24.6905 0.11702 23.9123 2.26066 19.7131C4.15469 15.9985 6.75351 10.9183 8.75032 8.87747C11.8336 5.73543 26.5307 2.60806 29.1001 3.18067C30.216 3.43028 30.9795 3.98819 31.8458 4.63422C32.8736 5.38303 34.0189 6.24931 35.7514 6.45487C38.0272 6.73383 56.571 15.0735 60.1829 18.979C63.6333 22.723 66.0853 36.8769 66.4377 43.4253C66.746 49.1808 61.5338 61.2791 59.3167 65.3608C58.0393 67.71 53.5318 71.4981 50.2576 74.273C48.9215 75.4036 47.7616 76.3727 46.9247 77.1508C46.4402 77.606 45.9556 78.0464 45.5005 78.4575C43.1219 80.6159 40.8902 82.6567 39.143 85.8575C36.7351 90.2769 36.3533 121.609 36.3533 121.918C36.3533 126.22 34.4153 170.722 34.4006 171.162C34.3565 172.029 35.032 172.748 35.8982 172.792C35.9276 172.792 35.9423 172.792 35.9716 172.792C36.8085 172.792 37.4986 172.132 37.5279 171.295C37.6013 169.459 39.4807 126.278 39.4807 121.903C39.4807 114.4 40.3323 90.1888 41.8886 87.3404C43.3862 84.5948 45.339 82.8036 47.6148 80.748C48.0846 80.3075 48.5838 79.8671 49.083 79.4119C49.8465 78.6925 50.977 77.7381 52.2838 76.6369C55.9544 73.5536 60.5206 69.7068 62.077 66.8438C64.2059 62.9382 69.9467 50.0911 69.5797 43.249C69.3007 37.9487 67.0983 21.8274 62.5027 16.8647C58.3035 12.2691 39.0549 3.70926 36.2065 3.3422Z" fill="#707070"/>
<path d="M11.0995 34.0135C10.5563 33.3528 9.57256 33.2501 8.89717 33.7933C8.22177 34.3366 8.13368 35.3203 8.67693 35.9957C10.938 38.756 17.1633 44.027 17.4276 44.2619C17.7213 44.5115 18.0737 44.629 18.4408 44.629C18.8812 44.629 19.3216 44.4381 19.63 44.071C20.1879 43.4103 20.0999 42.4266 19.4539 41.8687C19.3805 41.8099 13.1698 36.5536 11.0995 34.0135Z" fill="#707070"/>
<path d="M38.3062 12.5188C38.2915 12.5188 38.2915 12.5188 38.3062 12.5188C38.0126 12.5188 37.7777 12.739 37.7777 13.0327C37.6602 18.4065 36.5444 28.875 35.0174 35.6583C32.6535 40.063 30.1869 44.688 29.996 45.0257C29.5849 45.7892 29.8784 46.7289 30.6419 47.14C30.8769 47.2574 31.1265 47.3308 31.3761 47.3308C31.934 47.3308 32.4773 47.0372 32.7563 46.5086C32.8297 46.3618 40.5674 31.8556 41.9182 29.5504C42.3586 28.8016 42.0942 27.8473 41.3601 27.4215C40.6113 26.981 39.657 27.2453 39.2312 27.9794C38.8201 28.6841 37.8658 30.4314 36.7205 32.5456C37.9245 25.8798 38.7174 17.5842 38.8349 13.0767C38.8202 12.7537 38.5852 12.5188 38.3062 12.5188Z" fill="#707070"/>
<path d="M47.7029 45.0404C55.5874 39.5786 57.0997 31.3711 58.1862 25.366C58.289 24.7933 58.3917 24.2501 58.4945 23.7362C58.5532 23.4572 58.3624 23.1783 58.0834 23.1195C57.8045 23.0608 57.5255 23.2517 57.4667 23.5306C57.364 24.0445 57.2612 24.6025 57.1585 25.1751C56.0866 30.9893 54.6331 38.9619 47.101 44.1741C46.8661 44.3356 46.8073 44.6587 46.9688 44.8936C47.0716 45.0404 47.2331 45.1138 47.3946 45.1138C47.4974 45.1285 47.6148 45.0992 47.7029 45.0404Z" fill="#707070"/>
<path d="M3.25929 40.7093C0.954147 40.7093 -9.77863 36.1284 -16.4738 31.9586C-16.7234 31.8117 -17.0318 31.8852 -17.1933 32.1201C-17.3401 32.3697 -17.2666 32.678 -17.0317 32.8395C-10.5715 36.8625 0.55772 41.7517 3.25929 41.7517C3.27397 41.7517 3.28868 41.7517 3.28868 41.7517C3.58233 41.7517 3.80257 41.5022 3.80257 41.2232C3.80257 40.9442 3.56765 40.7093 3.28868 40.7093C3.28868 40.7093 3.27397 40.7093 3.25929 40.7093Z" fill="#707070"/>
<path d="M3.31802 74.5815L20.1148 74.0822C20.4084 74.0675 20.6286 73.8326 20.6139 73.539C20.5992 73.26 20.379 73.0398 20.1 73.0398H20.0854L3.28863 73.539C2.99498 73.5537 2.77483 73.7886 2.78951 74.0822C2.80419 74.3612 3.02443 74.5815 3.3034 74.5815C3.3034 74.5815 3.30334 74.5815 3.31802 74.5815Z" fill="#707070"/>
<path d="M52.2253 156.73C51.9316 156.686 51.6674 156.877 51.6233 157.156L49.7 168.829L48.6281 167.199L47.4682 155.526C47.4389 155.247 47.1745 155.027 46.8956 155.056C46.6166 155.086 46.3963 155.335 46.4257 155.629L47.3948 165.305L44.3409 160.621C44.1794 160.386 43.8563 160.313 43.6214 160.474C43.3865 160.636 43.3131 160.959 43.4746 161.194L47.6297 167.551L47.8499 169.739C47.8646 169.856 47.9233 169.959 47.9967 170.047C47.7471 169.9 47.5122 169.768 47.3066 169.636C44.84 168.168 44.1793 167.904 40.4059 169.181C40.1416 169.269 39.9949 169.563 40.083 169.842C40.1711 170.121 40.4647 170.253 40.7437 170.165C44.1941 168.99 44.5464 169.196 46.7781 170.517C47.3214 170.84 47.9821 171.236 48.7897 171.677C48.8631 171.721 48.9512 171.736 49.0393 171.736C49.2302 171.736 49.4063 171.633 49.4944 171.457C49.6265 171.207 49.5384 170.884 49.2888 170.752C48.863 170.517 48.4813 170.311 48.1436 170.106C48.217 170.15 48.2905 170.194 48.3786 170.194C48.3933 170.194 48.4079 170.194 48.4372 170.194C48.7162 170.165 48.9365 169.915 48.9071 169.621L48.8925 169.43L49.5972 170.502C49.6412 170.561 49.7 170.62 49.7734 170.664C49.7881 170.679 49.8174 170.678 49.8321 170.693C49.8614 170.708 49.9055 170.723 49.9349 170.737C49.9642 170.737 49.9935 170.737 50.0229 170.737C50.1257 170.737 50.2138 170.708 50.3019 170.649C50.3166 170.634 50.3166 170.634 50.3313 170.62C50.346 170.605 50.3606 170.59 50.3753 170.576C50.4487 170.502 50.5074 170.4 50.5368 170.297C50.5368 170.297 50.5368 170.297 50.5368 170.282L52.6805 157.288C52.6952 157.053 52.5042 156.774 52.2253 156.73Z" fill="#707070"/>
<path d="M450.827 25.573C450.773 25.4654 450.706 25.3578 450.638 25.2636C450.625 25.2502 450.625 25.2367 450.611 25.2232C450.611 25.2232 450.611 25.2232 450.598 25.2232C450.504 25.1157 450.396 25.0081 450.275 24.9274L442.394 19.9376C441.721 19.5206 440.847 19.7089 440.417 20.3814C440.148 20.7983 440.161 21.3094 440.349 21.7263L440.094 21.9685C440.013 21.7667 439.892 21.5919 439.731 21.4439L435.709 17.9201C435.602 17.826 435.467 17.7453 435.319 17.678L426.967 14.1542C426.308 13.8717 425.582 14.1407 425.218 14.7325C424.963 14.5711 424.68 14.477 424.358 14.4904L418.991 14.9342C418.951 14.9342 418.911 14.9477 418.87 14.9612C418.83 14.9746 418.776 14.9746 418.736 14.9881C418.574 15.0284 418.413 15.0957 418.278 15.1898L417.861 15.4857C412.979 18.9423 405.286 24.4701 404.049 25.8151C402.462 27.1332 382.825 37.3683 379.409 39.0764C377.795 39.8834 348.004 52.6337 332.496 59.2644C332.483 59.2778 332.47 59.2913 332.443 59.3048C332.348 59.3451 332.268 59.4124 332.174 59.4931C332.106 59.5469 332.039 59.5872 331.985 59.641C331.931 59.7083 331.891 59.7889 331.837 59.8696C331.784 59.9503 331.73 60.031 331.703 60.1252C331.689 60.1386 331.676 60.1521 331.676 60.179L329.322 67.7646L325.691 66.8097C325.314 66.7155 324.897 66.7693 324.561 66.9845C324.225 67.1997 323.996 67.5494 323.929 67.9394L322.436 76.211C322.301 76.9642 322.786 77.6905 323.525 77.8653L334.85 80.3938C334.958 80.4207 335.065 80.4342 335.159 80.4342C335.442 80.4342 335.724 80.3535 335.966 80.1786C336.047 80.1248 336.101 80.0307 336.182 79.9634C336.141 80.6359 336.558 81.2546 337.217 81.4295L348.125 84.2942L347.829 85.3702C347.641 86.0696 347.99 86.7959 348.663 87.0649L359.732 91.6512C359.786 91.6781 359.839 91.6647 359.907 91.6916C359.961 91.705 360.001 91.7454 360.068 91.7454C360.458 91.8126 362.866 92.1623 365.381 92.1623C366.806 92.1623 368.273 92.0547 369.429 91.705C372.428 90.8039 394.567 80.098 397.068 78.8741C397.109 78.8472 397.162 78.8337 397.203 78.8068C398.481 78.0133 428.567 59.3048 431.836 57.0856C435.238 54.7722 451.432 39.6951 452.709 38.4443C454.323 36.8707 454.377 34.4229 454.377 34.1539C454.377 33.9656 454.337 33.7638 454.256 33.589L450.827 25.573ZM450.464 31.9481C446.321 35.8216 428.231 50.5086 425.434 52.1898C424.116 52.9834 419.354 56.0231 414.297 59.2375C407.976 63.2724 400.821 67.8319 399.503 68.5851C396.893 70.0511 370.734 82.5592 363.646 85.0878L364.238 83.4066C364.48 82.7206 364.157 81.954 363.498 81.6446L363.202 81.5101C369.026 79.2506 389.523 70.2663 392.482 68.7868C395.858 67.1056 414.755 55.8482 417.445 54.0997C419.919 52.4992 442.838 33.5217 448.957 28.4512L450.464 31.9481ZM442.609 23.5286C442.622 23.5152 442.622 23.5017 442.636 23.4883L447.074 26.2992C436.355 35.1895 417.902 50.401 415.871 51.7191C413.208 53.4541 394.513 64.5904 391.177 66.2448C388.299 67.6839 368.703 76.2782 362.529 78.6992L363.982 74.6643C367.062 73.3059 373.208 70.2931 378.198 67.8587C381.762 66.1103 385.125 64.4694 385.717 64.2408C387.479 63.5548 406.792 51.5174 411.863 47.9263C417.014 44.2949 430.8 34.7591 430.935 34.6649C431.002 34.6246 431.056 34.5708 431.109 34.517L442.609 23.5286ZM434.781 20.906L437.848 23.5824C437.955 23.6766 438.063 23.7304 438.184 23.7842L429.226 32.3516C428.002 33.1989 415.158 42.0757 410.222 45.5726C404.614 49.5268 386.066 60.9859 384.695 61.5508C384.022 61.8064 381.453 63.0707 376.961 65.263C371.985 67.6973 365.852 70.6966 362.839 72.0281L355.536 69.1096L356.168 66.9576C366.188 63.259 391.648 50.9794 394.768 49.2175C398.265 47.2404 422.3 32.0019 424.411 30.4955C426.55 28.9623 434.082 21.8743 434.405 21.5784C434.606 21.4036 434.714 21.1615 434.781 20.906ZM361.063 74.4087L359.181 79.6272L353.209 76.8162L354.729 71.8802L361.063 74.4087ZM425.797 16.75C425.824 16.7634 425.837 16.7904 425.864 16.8038L432.4 19.561C430.235 21.6053 424.398 27.0255 422.757 28.1956C420.672 29.6886 396.826 44.7925 393.37 46.7562C390.276 48.5046 364.722 60.8246 354.984 64.3753L346.686 61.6181C350.277 60.0714 356.571 57.3545 357.392 56.9107C357.809 56.6955 361.844 54.9067 366.524 52.8489C374.419 49.3789 384.237 45.0481 385.461 44.3352C386.927 43.4879 390.034 41.9008 393.047 40.3541C396.14 38.7671 399.072 37.2607 400.417 36.4807C402.206 35.445 411.016 29.7558 412.401 28.6933C413.692 27.698 421.304 21.148 421.842 20.61C422.152 20.2738 424.452 18.0411 425.797 16.75ZM380.7 41.6588C380.942 41.5377 405.151 29.2044 406.227 27.698C406.873 26.9852 412.576 22.8158 417.485 19.3054H417.498L419.637 17.7856L423.739 17.4494C422.582 18.5657 421.399 19.7224 421.184 19.9376C420.82 20.3141 413.248 26.8507 411.836 27.9536C410.478 29.0161 401.735 34.638 399.96 35.6737C398.642 36.4403 395.589 38.0139 392.63 39.5203C389.604 41.067 386.483 42.6675 385.004 43.5283C383.82 44.2142 373.612 48.7064 366.147 52.0016C361.265 54.1535 357.405 55.8616 356.961 56.0903C356.101 56.5475 348.582 59.789 345.341 61.1877L344.493 60.9053C344.13 60.7842 343.727 60.8111 343.377 60.9994C343.027 61.1742 342.772 61.497 342.664 61.8736L342.637 61.9678L337.284 60.3941C348.098 55.7271 378.925 42.5465 380.7 41.6588ZM333.989 77.2601L325.489 75.3637L326.458 69.9569L334.756 72.1358L333.989 77.2601ZM338.091 69.7148L337.728 71.6112L337.769 71.3153C337.876 70.589 337.432 69.9031 336.72 69.7148L332.093 68.4909L333.989 62.3713L341.817 64.6712L340.633 68.7599C340.62 68.7868 340.633 68.8137 340.62 68.854L339.921 68.6254C339.531 68.5043 339.1 68.5447 338.75 68.7464C338.428 68.9482 338.172 69.2979 338.091 69.7148ZM347.56 81.1739L339.261 78.9951L340.606 71.8398L348.824 74.5567L347.56 81.1739ZM343.323 69.7283C343.35 69.661 343.391 69.6206 343.417 69.5534L345.005 64.0525L353.263 66.7962L352.456 69.5534L351.501 72.6334C351.339 72.4585 351.151 72.3106 350.909 72.2299L343.323 69.7283ZM359.45 88.4233L350.949 84.8995L352.402 79.6003L359.382 82.882L361.104 83.689L359.45 88.4233ZM450.732 36.3731C449.549 37.5163 433.355 52.5799 430.235 54.705C427.088 56.8435 397.351 75.3368 395.764 76.3186C388.945 79.6272 370.962 88.2485 368.609 88.9478C366.995 89.432 364.197 89.3109 362.234 89.1092L363.242 86.231C369.456 84.2673 397.969 70.5487 399.973 69.4189C401.318 68.6657 408.178 64.2811 414.822 60.0579C419.865 56.8434 424.627 53.8038 425.931 53.0238C428.002 51.7864 445.823 37.6104 450.867 32.8896L451.526 34.4094C451.459 34.9205 451.27 35.862 450.732 36.3731Z" fill="#707070"/>
<path d="M304.645 59.4992C305.414 58.597 305.937 57.9811 306.009 57.8809C306.343 57.4799 306.445 56.95 306.3 56.4631C306.14 55.9762 305.748 55.5895 305.254 55.4463L294.525 52.3816L292.913 42.5432C292.826 41.999 292.449 41.5407 291.926 41.3545C291.403 41.154 290.823 41.2685 290.387 41.6266L265.226 62.7358C264.587 63.2656 264.5 64.1965 265.023 64.8409L270.467 71.6004L268.972 72.9179C268.783 73.0755 268.638 73.2903 268.536 73.5338C268.522 73.5481 268.522 73.5767 268.507 73.591C268.449 73.7629 268.42 73.9348 268.435 74.1066V89.3012C268.435 90.1461 269.131 90.8192 269.973 90.8192C270.816 90.8192 271.513 90.1318 271.513 89.3012V76.2261L275.229 77.5293L286.612 91.6642C286.917 92.0365 287.367 92.237 287.817 92.237C288.151 92.237 288.485 92.1224 288.775 91.9076C289.443 91.3777 289.559 90.4325 289.022 89.7738L280.717 79.4626L281.995 79.9066C282.503 80.0785 283.055 79.9925 283.476 79.6631C283.853 79.3624 292.696 72.3881 295.498 69.6814C297.095 68.1348 300.144 64.6977 302.539 61.9194L308.1 70.0824C308.405 70.5264 308.884 70.7555 309.378 70.7555C309.668 70.7555 309.973 70.6695 310.234 70.4977C310.946 70.0251 311.134 69.08 310.655 68.3926L304.645 59.4992ZM268.376 64.0963L290.314 45.6938L291.519 52.9975L272.79 69.5525L268.376 64.0963ZM274.707 71.9585L293.567 55.2888L296.543 56.1338L276.899 74.6651L274.707 71.9585ZM293.378 67.5046C291.113 69.6957 284.405 75.0518 282.256 76.756L277.814 75.195L297.675 56.4488L302.133 57.7234C299.781 60.473 295.338 65.5999 293.378 67.5046Z" fill="#707070"/>
<path d="M362.951 135.084L349.829 131.811C349.815 131.782 349.829 131.739 349.815 131.711C349.815 131.711 349.815 131.711 349.815 131.697L351.01 122.588C351.039 122.332 350.882 122.104 350.64 122.033L350.299 121.948C350.441 121.606 350.47 121.222 350.341 120.838C350.057 120.055 349.189 119.642 348.406 119.927L348.363 119.941L349.559 111.387C349.559 111.387 349.559 111.387 349.559 111.373C349.573 111.302 349.559 111.231 349.544 111.16C349.53 111.131 349.516 111.117 349.516 111.103C349.502 111.089 349.502 111.074 349.488 111.06C349.431 110.975 349.374 110.918 349.288 110.875C349.288 110.875 349.288 110.861 349.274 110.861L336.693 105.481L337.717 102.82C337.774 102.692 337.76 102.549 337.703 102.421C337.646 102.293 337.532 102.193 337.39 102.165L322.19 97.5679C322.062 97.5253 321.934 97.5395 321.806 97.6107L313.053 102.208C313.053 102.208 313.053 102.208 313.039 102.222H313.025C313.01 102.236 312.996 102.25 312.968 102.265C312.939 102.293 312.897 102.322 312.882 102.35C312.868 102.364 312.854 102.393 312.84 102.421C312.825 102.464 312.797 102.492 312.797 102.535C312.797 102.549 312.783 102.549 312.783 102.563L311.73 108.327C311.388 107.716 310.691 107.388 309.993 107.602L301.511 110.192C301.397 110.22 301.283 110.277 301.183 110.334C301.155 110.348 301.141 110.391 301.098 110.405C300.984 110.491 300.885 110.576 300.799 110.69C300.756 110.747 300.7 110.79 300.657 110.861C300.571 111.017 300.515 111.174 300.472 111.359C300.472 111.387 300.443 111.416 300.443 111.444L300.116 114.02L282.824 119.301C282.81 119.301 282.795 119.315 282.781 119.315C282.639 119.357 282.511 119.414 282.383 119.5C282.354 119.514 282.34 119.542 282.326 119.557C282.297 119.585 282.269 119.599 282.255 119.628C282.127 119.742 282.013 119.87 281.927 120.026C281.927 120.026 281.927 120.026 281.927 120.041C281.842 120.197 281.799 120.354 281.785 120.524C281.785 120.567 281.771 120.596 281.771 120.638C281.771 120.667 281.757 120.695 281.757 120.724L281.586 137.262C281.586 137.888 281.97 138.457 282.554 138.685L299.461 145.232L299.205 148.462C299.148 149.174 299.59 149.829 300.273 150.028L323.87 157.201C324.012 157.243 324.168 157.272 324.311 157.272C324.595 157.272 324.894 157.187 325.136 157.03C325.506 156.788 325.762 156.39 325.819 155.948L325.933 155.052L347.04 160.204C347.153 160.232 347.281 160.247 347.395 160.247C347.41 160.247 347.41 160.247 347.424 160.247C347.523 160.332 347.637 160.389 347.765 160.389C347.879 160.389 347.979 160.36 348.064 160.289L360.631 150.739C360.731 150.668 360.802 150.554 360.816 150.426L363.335 135.653C363.364 135.397 363.207 135.141 362.951 135.084ZM349.829 132.85L359.706 135.312L351.082 140.08C350.982 140.023 350.882 139.951 350.754 139.923L340.863 137.148L349.018 133.704C349.402 133.533 349.687 133.22 349.829 132.85ZM349.416 122.787C349.431 122.787 349.431 122.773 349.431 122.773L349.943 122.901L348.904 130.871C348.562 130.757 348.192 130.743 347.836 130.9L339.283 134.515L340.55 126.004L349.416 122.787ZM332.082 129.69C332.082 129.676 332.082 129.662 332.082 129.647V129.633C332.067 129.548 332.025 129.477 331.982 129.42C331.968 129.405 331.953 129.391 331.939 129.391C331.897 129.348 331.84 129.306 331.783 129.292C331.768 129.292 331.768 129.277 331.754 129.263L316.099 124.467C316.568 124.239 316.896 123.784 316.938 123.229L317.166 119.514L317.237 119.201L337.575 125.52L336.052 135.781L331.498 134.5L332.11 129.804C332.096 129.761 332.082 129.733 332.082 129.69ZM327.2 119.144L328.267 110.932L339.895 114.518L338.927 122.787L327.2 119.144ZM347.253 120.354L339.909 123.029L340.906 114.547L348.406 112.071L347.253 120.354ZM347.609 111.274L340.45 113.636L328.481 109.936L328.951 108.271L335.953 106.292L347.609 111.274ZM322.048 98.6069L336.522 102.99L335.611 105.367L328.552 107.36L314.505 102.578L322.048 98.6069ZM313.637 103.332L327.94 108.199L327.399 110.107C327.399 110.121 327.385 110.121 327.385 110.135C327.385 110.149 327.385 110.163 327.385 110.178L327.371 110.22L326.232 118.845L316.611 115.856L311.715 113.907L313.637 103.332ZM310.847 110.491C311.046 110.434 311.217 110.334 311.359 110.22L310.762 113.522L306.492 111.829L310.847 110.491ZM302.621 118.262L303.176 113.764L314.334 118.205L314.163 118.959C314.149 119.044 314.135 119.115 314.135 119.201L313.893 123.044C313.879 123.342 313.964 123.627 314.106 123.869L311.459 123.058C311.53 122.958 311.573 122.844 311.559 122.73C311.545 122.531 311.402 122.36 311.217 122.304C311.16 122.289 307.374 121.065 301.852 119.372C302.265 119.13 302.564 118.745 302.621 118.262ZM299.689 117.308L299.618 117.877C299.575 118.176 299.661 118.461 299.789 118.717C299.02 118.489 298.223 118.247 297.412 117.991L299.689 117.308ZM295.676 118.532C302.165 120.482 307.545 122.175 309.794 122.887L306.99 124.41L306.962 124.424L306.947 124.438L303.745 126.317C303.603 126.203 303.446 126.103 303.276 126.047L288.147 120.838L295.676 118.532ZM300.728 129.334L299.703 142.086L284.603 136.237L284.731 122.844L301.112 128.48C300.913 128.736 300.756 129.021 300.728 129.334ZM323.016 153.799L302.308 147.494L302.422 146.171C302.649 146.142 302.863 146.071 303.062 145.943C303.475 145.673 303.717 145.217 303.745 144.733L304.172 131.654L324.951 138.258L323.016 153.799ZM325.791 135.369L325.464 135.269L325.848 134.97L325.791 135.369ZM324.453 134.771C324.41 134.814 324.396 134.871 324.368 134.913L304.258 128.509L304.286 127.513C304.286 127.399 304.258 127.285 304.243 127.185L307.431 125.307L310.306 123.755L330.516 129.932L324.453 134.771ZM330.929 130.914L330.488 134.23L327.783 133.476C327.769 133.476 327.741 133.476 327.726 133.476L330.929 130.914ZM346.157 156.888L326.816 152.163L328.666 136.863L348.619 142.47L346.157 156.888ZM359.834 150.071L348.989 158.325L351.551 143.282L361.585 137.731C361.756 137.632 361.898 137.518 362.012 137.375L359.834 150.071Z" fill="#707070"/>
<path d="M271.723 124.452C271.438 124.409 271.182 124.594 271.139 124.865L268.791 139.154L267.325 136.919L265.93 122.915C265.902 122.645 265.646 122.431 265.375 122.46C265.105 122.488 264.891 122.73 264.92 123.015L266.129 135.083L262.201 129.078C262.045 128.836 261.732 128.779 261.504 128.935C261.276 129.092 261.205 129.405 261.362 129.633L266.357 137.275L266.628 139.922C266.656 140.179 266.87 140.378 267.126 140.378C267.14 140.378 267.154 140.378 267.183 140.378C267.453 140.349 267.667 140.107 267.638 139.823L267.567 139.111L268.677 140.805C268.72 140.862 268.777 140.919 268.848 140.961C268.862 140.976 268.891 140.976 268.905 140.99C268.933 141.004 268.976 141.018 269.004 141.033C269.033 141.033 269.061 141.033 269.09 141.033C269.189 141.033 269.275 141.004 269.36 140.947C269.374 140.933 269.374 140.933 269.389 140.919C269.403 140.904 269.417 140.89 269.431 140.876C269.503 140.805 269.559 140.705 269.588 140.606C269.588 140.606 269.588 140.606 269.588 140.591L272.15 125.021C272.192 124.751 272.007 124.495 271.723 124.452Z" fill="#707070"/>
<path d="M204.427 94.8189C204.042 94.2496 203.331 94.0076 202.676 94.2211C202.021 94.4488 201.609 95.075 201.651 95.7582L201.694 96.3844C201.808 98.0069 201.95 100.014 201.68 101.394C201.466 102.447 200.271 103.757 199.616 104.468C199.431 104.667 199.274 104.853 199.161 104.981C198.933 105.223 197.524 106.56 196.143 107.841C193.112 110.674 189.34 114.203 188.145 115.626C185.74 118.515 185.071 124.92 184.957 126.172C184.886 126.998 185.498 127.738 186.337 127.809C187.191 127.88 187.903 127.268 187.974 126.429C188.245 123.269 189.141 119.156 190.465 117.562C191.532 116.281 195.546 112.524 198.207 110.047C200.427 107.969 201.224 107.229 201.48 106.916C201.58 106.802 201.708 106.66 201.851 106.503C202.32 105.991 202.946 105.294 203.501 104.497C203.672 112.509 203.302 119.014 202.576 120.181C202.306 120.622 201.253 121.917 197.467 124.45C197.026 124.749 195.845 125.418 194.606 126.13C191.219 128.065 188.558 129.617 187.576 130.513C185.839 132.107 183.776 134.555 183.776 137.188C183.776 138.028 184.459 138.697 185.284 138.697C186.11 138.697 186.793 138.014 186.793 137.188C186.793 136.007 187.818 134.384 189.611 132.748C190.422 132.008 193.838 130.058 196.086 128.763C197.481 127.966 198.591 127.325 199.118 126.984C202.32 124.849 204.284 123.155 205.124 121.789C206.846 118.999 206.604 106.617 206.419 101.423C206.319 97.6937 204.498 94.9327 204.427 94.8189Z" fill="#707070"/>
<path d="M164.576 161.639C163.324 159.874 162.199 158.28 161.559 157.327C159.695 154.537 156.535 147.834 156.279 146.097C156.037 144.575 154.77 143.564 153.375 143.763C151.483 144.019 149.789 146.225 150.287 150.609C150.956 156.501 155.396 163.888 156.649 165.311C157.574 166.378 161.659 174.092 162.086 175.103C162.114 175.216 162.142 175.416 162.157 175.658C163.153 175.658 164.163 175.643 165.174 175.643C165.131 174.946 165.046 174.362 164.904 173.992C164.491 172.982 160.25 164.813 158.94 163.318C158.001 162.237 153.902 155.434 153.304 150.267C153.134 148.83 153.29 147.919 153.489 147.378C154.329 150.367 157.403 156.515 159.068 159.006C159.723 159.974 160.862 161.596 162.128 163.389C164.334 166.506 167.366 170.776 167.892 171.915C168.277 172.726 168.49 174.135 168.604 175.643C169.614 175.643 170.625 175.629 171.635 175.629C171.479 173.48 171.194 171.815 170.639 170.634C169.999 169.339 167.722 166.094 164.576 161.639Z" fill="#707070"/>
<path d="M122.307 160.102C124.185 161.297 126.676 162.123 128.882 162.123C129.338 162.123 129.764 162.094 130.191 162.023L130.376 161.995C132.711 161.596 135.614 161.098 140.937 155.861C146.345 150.538 148.224 140.803 148.309 140.39C148.366 140.049 148.323 139.693 148.152 139.38C147.868 138.867 147.284 138.298 146.445 138.213C146.018 138.184 145.206 138.241 144.466 139.138C143.854 139.878 137.35 145.613 133.138 148.374C129.978 150.438 125.082 150.709 122.734 150.652C122.805 149.2 122.848 148.047 122.876 147.35C123.018 143.123 120.542 138.725 119.062 136.092C118.749 135.537 118.493 135.082 118.336 134.74C116.287 130.385 116.358 126.357 116.443 121.703C116.457 121.077 116.457 120.408 116.457 119.768C117.439 120.209 120.869 122.557 132.611 132.634C133.308 133.231 133.792 133.644 133.949 133.772C134.717 134.399 135.728 134.655 136.696 134.655C137.863 134.655 138.987 134.299 139.627 133.801C140.097 133.431 140.723 132.947 142.474 122.685C144.623 123.497 148.323 124.365 152.223 122.984C153.404 122.572 158.713 118.473 160.065 117.121C161.09 116.096 164.391 111.542 162.826 109.364C161.374 107.372 152.095 107.058 150.914 107.144C149.803 107.215 148.807 107.357 147.967 107.514C148.209 105.678 148.48 103.202 148.38 102.006C148.11 99.1596 146.573 96.0712 144.708 94.6622C142.146 92.7409 135.045 94.1356 134.973 94.1498C133.365 94.4772 131.487 94.8615 130.305 95.1034C128.925 92.3708 125.239 85.0982 124.655 84.0166C123.588 82.0525 121.04 81.3409 118.962 82.4225C117.881 82.9918 115.333 85.2263 113.853 86.5356C110.736 84.045 101.442 76.6727 99.7488 75.3634C97.1728 73.3851 93.4724 72.46 91.3945 74.5094C89.4874 76.3881 90.5833 82.3087 90.9676 84.0735C91.0387 84.4151 91.053 84.6428 91.053 84.7708C90.8395 84.7566 90.5121 84.6855 90.2417 84.5859C85.5736 81.0847 74.7287 73.3567 71.0141 74.1394C69.3916 74.481 66.659 75.7761 66.6875 80.5154C66.7017 85.0128 68.0395 88.699 70.644 91.4885C71.1991 92.072 72.0957 92.812 73.0493 93.5948C73.832 94.2352 75.0702 95.2457 75.5826 95.815C75.483 96.0854 75.3406 96.4555 75.1983 96.797C74.0313 99.7431 71.868 105.237 73.1347 109.763C73.9744 112.737 78.8418 111.385 80.9054 110.816C82.5848 110.346 85.3743 108.994 86.7691 108.297C86.9541 108.439 87.1391 108.567 87.3241 108.695C87.5519 111.57 89.2597 117.377 89.7578 118.587C90.2702 119.825 93.0313 125.19 95.1234 126.685C96.0912 127.382 98.468 128.464 100.432 128.464C100.802 128.464 101.158 128.421 101.471 128.336C104.687 127.482 108.174 125.062 109.412 123.326C110.181 122.258 111.903 120.109 112.757 119.056C112.985 119.099 113.212 119.142 113.44 119.184C113.44 120.01 113.44 120.849 113.426 121.632C113.341 126.457 113.269 131.011 115.618 136.007C115.789 136.391 116.087 136.918 116.443 137.544C117.767 139.892 119.973 143.834 119.859 147.222C119.845 147.663 119.816 148.289 119.788 149.058C118.706 147.62 117.34 145.798 115.66 143.578C113.44 140.646 110.921 137.316 110.636 136.875C109.569 135.124 106.879 131.068 105.086 131.068C104.374 131.068 103.777 131.481 103.307 132.278C102.183 134.199 100.902 139.664 103.065 143.536C105.385 147.677 117.753 156.074 119.162 157.028C119.247 157.085 119.332 157.113 119.418 157.141C119.162 163.176 118.905 170.392 118.976 175.885C119.973 175.885 120.983 175.871 121.994 175.871C121.923 171.331 122.093 165.396 122.307 160.102ZM122.577 153.669C125.168 153.726 130.789 153.527 134.774 150.908C137.791 148.93 141.833 145.585 144.395 143.322C143.427 146.425 141.648 150.879 138.788 153.697C134.134 158.28 131.956 158.65 129.836 159.006L129.651 159.034C126.747 159.547 122.862 157.241 122.449 156.216C122.506 155.334 122.549 154.48 122.577 153.669ZM137.549 131.509C137.08 131.666 136.197 131.723 135.856 131.438C135.699 131.31 135.244 130.912 134.575 130.342C129.451 125.945 125.623 122.757 122.833 120.579C127.744 121.106 131.914 121.362 135.386 121.362C136.952 121.362 138.361 121.291 139.642 121.191C138.916 125.489 138.005 130.2 137.549 131.509ZM151.084 110.175C153.461 110.019 158.471 110.659 160.136 111.2C159.88 112.125 158.884 114.004 157.902 115C156.564 116.338 151.91 119.81 151.198 120.152C148.821 120.992 146.487 120.721 144.765 120.266C146.587 119.654 147.811 118.8 148.409 117.69C149.533 115.598 149.234 113.264 147.541 110.716C148.38 110.517 149.633 110.275 151.084 110.175ZM135.557 97.1386C138.617 96.5124 142.189 96.5978 142.858 97.1102C143.897 97.8929 145.135 100.156 145.335 102.305C145.42 103.187 145.149 105.578 144.879 107.585C143.854 106.589 142.645 105.564 141.236 104.511C139.627 103.301 135.457 100.725 130.775 98.1207C131.956 97.8787 133.892 97.4802 135.557 97.1386ZM93.5009 76.7012C94.0987 76.1177 96.1481 76.4735 97.8987 77.8113C99.8769 79.3199 112.828 89.6382 112.956 89.7379C113.54 90.2075 114.38 90.1791 114.92 89.6667C116.699 88.03 119.56 85.5394 120.329 85.1266C120.869 84.842 121.638 84.8989 121.965 85.4825C122.52 86.4929 126.064 93.481 127.487 96.3132C124.769 94.8757 122.022 93.5094 119.631 92.4847C112.586 89.4533 100.261 86.6495 93.8852 85.824C94.0702 85.1693 94.0844 84.4008 93.8852 83.4757C93.3586 80.9851 93.0882 77.3844 93.5009 76.7012ZM74.9279 91.275C74.0882 90.5918 73.2343 89.8944 72.8215 89.4532C70.7579 87.2472 69.6905 84.2443 69.6762 80.5439C69.662 77.5552 71.0283 77.2705 71.6118 77.1424C73.1773 76.872 79.8238 80.8713 86.0005 85.2975C81.9871 85.4682 78.3009 86.7349 76.9062 91.0615C76.7354 91.6023 76.6358 92.1289 76.5646 92.6555C76.095 92.2427 75.5541 91.7873 74.9279 91.275ZM80.0657 107.927C77.5039 108.638 76.3511 108.652 75.9099 108.596C75.2126 105.379 76.7212 101.124 77.7032 98.6188C79.0979 101.408 81.4889 103.999 84.1077 106.233C82.7271 106.902 81.062 107.642 80.0657 107.927ZM106.922 121.575C106.125 122.685 103.307 124.721 100.674 125.418C99.9766 125.603 97.8417 124.934 96.8455 124.237C95.6215 123.354 93.1736 119.013 92.5189 117.434C92.1488 116.537 91.2665 113.477 90.7256 111.029C93.7429 112.922 96.0769 114.061 96.1481 114.089C99.9481 115.911 104.901 117.334 109.427 118.359C108.544 119.455 107.505 120.778 106.922 121.575ZM97.4574 111.371C90.6972 108.126 77.4755 99.1169 79.7811 91.9866C81.1616 87.7596 86.2852 87.9873 92.8462 88.7416C99.4215 89.4959 112.045 92.5132 118.45 95.2742C125.851 98.4622 136.639 104.824 139.442 106.93C144.651 110.83 146.886 114.146 145.761 116.238C145.42 116.864 142.673 119.839 121.211 117.363L120.613 117.291C116.927 116.864 104.801 114.9 97.4574 111.371ZM105.698 142.084C104.474 139.892 104.901 136.69 105.456 134.925C106.324 135.964 107.477 137.558 108.046 138.483C108.345 138.967 109.854 140.974 113.227 145.428C115.362 148.261 118.165 151.961 119.233 153.441C114.878 150.41 107.15 144.703 105.698 142.084Z" fill="#707070"/>
<path d="M92.3196 94.5625C92.2627 94.2921 91.9923 94.1212 91.7219 94.1782L89.1174 94.7332C88.847 94.7901 88.6762 95.0606 88.7331 95.331C88.79 95.5729 88.9893 95.7295 89.2312 95.7295C89.2597 95.7295 89.3024 95.7295 89.3309 95.7152L91.9353 95.1602C92.2058 95.1033 92.3765 94.8329 92.3196 94.5625Z" fill="#707070"/>
<path d="M96.006 95.8008L98.212 96.1566C98.2405 96.1566 98.2689 96.1566 98.2974 96.1566C98.5393 96.1566 98.7528 95.9858 98.7955 95.7296C98.8382 95.4592 98.6532 95.203 98.3828 95.1461L96.1768 94.7903C95.9206 94.7476 95.636 94.9327 95.5933 95.2031C95.5506 95.4877 95.7356 95.7581 96.006 95.8008Z" fill="#707070"/>
<path d="M102.937 95.9716L106.324 96.6689C106.352 96.6689 106.395 96.6832 106.424 96.6832C106.666 96.6832 106.865 96.5124 106.922 96.2846C106.979 96.0142 106.808 95.7439 106.523 95.6869L103.136 94.9896C102.866 94.9326 102.595 95.1176 102.538 95.388C102.481 95.6442 102.652 95.9146 102.937 95.9716Z" fill="#707070"/>
<path d="M100.247 98.7753L102.467 99.5581C102.524 99.5723 102.581 99.5866 102.638 99.5866C102.851 99.5866 103.036 99.4585 103.107 99.245C103.207 98.9888 103.065 98.6899 102.808 98.6046L100.588 97.8218C100.318 97.7222 100.033 97.8645 99.9478 98.1207C99.8481 98.3911 99.9905 98.6757 100.247 98.7753Z" fill="#707070"/>
<path d="M98.6813 99.8996L96.1622 98.6329C95.9203 98.5048 95.6072 98.6044 95.4791 98.8606C95.351 99.1026 95.4506 99.4157 95.7068 99.5438L98.2259 100.81C98.2971 100.853 98.3682 100.867 98.4536 100.867C98.6386 100.867 98.8094 100.768 98.909 100.583C99.0371 100.327 98.9233 100.013 98.6813 99.8996Z" fill="#707070"/>
<path d="M92.5897 99.046C92.3904 98.8468 92.0773 98.8468 91.8781 99.0318C91.6788 99.2311 91.6788 99.5442 91.8638 99.7434L94.7814 102.746C94.881 102.846 95.0091 102.903 95.1372 102.903C95.2653 102.903 95.3934 102.86 95.493 102.761C95.6923 102.561 95.6923 102.248 95.5073 102.049L92.5897 99.046Z" fill="#707070"/>
<path d="M101.072 105.977L99.6492 105.194C99.4072 105.066 99.0941 105.137 98.966 105.393C98.8379 105.635 98.9233 105.948 99.1653 106.077L100.588 106.859C100.66 106.902 100.745 106.916 100.83 106.916C101.001 106.916 101.186 106.817 101.272 106.66C101.4 106.418 101.314 106.119 101.072 105.977Z" fill="#707070"/>
<path d="M105.242 105.194C105.427 105.194 105.598 105.094 105.683 104.924C105.812 104.682 105.726 104.369 105.484 104.241L102.965 102.874C102.723 102.746 102.41 102.832 102.282 103.073C102.154 103.315 102.239 103.628 102.481 103.757L105 105.123C105.071 105.166 105.157 105.194 105.242 105.194Z" fill="#707070"/>
<path d="M106.381 101.195C106.239 101.437 106.324 101.75 106.566 101.878L109.797 103.743C109.882 103.785 109.967 103.814 110.053 103.814C110.224 103.814 110.394 103.728 110.494 103.558C110.636 103.316 110.551 103.003 110.309 102.874L107.078 101.01C106.822 100.882 106.523 100.953 106.381 101.195Z" fill="#707070"/>
<path d="M112.444 100.569C112.543 100.654 112.657 100.697 112.771 100.697C112.913 100.697 113.056 100.64 113.155 100.526C113.34 100.312 113.312 99.9993 113.112 99.8142L110.935 97.9213C110.721 97.7363 110.408 97.7506 110.223 97.9641C110.038 98.1775 110.067 98.4906 110.266 98.6757L112.444 100.569Z" fill="#707070"/>
<path d="M117.753 100.853C117.852 100.953 117.98 101.01 118.123 101.01C118.251 101.01 118.379 100.967 118.478 100.867C118.678 100.682 118.692 100.355 118.493 100.156L117.283 98.8889C117.098 98.6897 116.771 98.6754 116.571 98.8747C116.372 99.0597 116.358 99.387 116.557 99.5863L117.753 100.853Z" fill="#707070"/>
<path d="M117.51 106.219C117.695 106.219 117.866 106.119 117.952 105.948C118.08 105.706 117.994 105.393 117.752 105.265L115.119 103.842C114.877 103.714 114.564 103.799 114.436 104.041C114.308 104.283 114.394 104.596 114.635 104.724L117.268 106.148C117.354 106.19 117.439 106.219 117.51 106.219Z" fill="#707070"/>
<path d="M113.469 107.998L109.925 106.66C109.669 106.56 109.37 106.689 109.27 106.959C109.171 107.215 109.299 107.514 109.569 107.614L113.113 108.951C113.17 108.98 113.227 108.98 113.284 108.98C113.483 108.98 113.682 108.852 113.753 108.653C113.853 108.396 113.725 108.098 113.469 107.998Z" fill="#707070"/>
<path d="M107.548 109.691L105.655 108.581C105.413 108.439 105.1 108.524 104.972 108.766C104.83 109.008 104.915 109.321 105.157 109.449L107.05 110.56C107.135 110.602 107.221 110.631 107.306 110.631C107.477 110.631 107.648 110.545 107.747 110.374C107.861 110.147 107.79 109.834 107.548 109.691Z" fill="#707070"/>
<path d="M121.595 104.483L124.982 106.077C125.053 106.105 125.125 106.119 125.196 106.119C125.381 106.119 125.566 106.006 125.651 105.835C125.765 105.579 125.665 105.28 125.409 105.166L122.022 103.572C121.78 103.458 121.467 103.558 121.353 103.814C121.239 104.07 121.339 104.369 121.595 104.483Z" fill="#707070"/>
<path d="M119.417 108.41L122.178 109.492C122.235 109.521 122.307 109.521 122.363 109.521C122.563 109.521 122.762 109.393 122.833 109.193C122.933 108.937 122.805 108.638 122.549 108.539L119.787 107.457C119.531 107.357 119.232 107.485 119.133 107.742C119.033 107.998 119.147 108.311 119.417 108.41Z" fill="#707070"/>
<path d="M120.243 111.684L117.169 111.058C116.884 111.001 116.628 111.171 116.571 111.456C116.514 111.726 116.685 111.997 116.97 112.054L120.044 112.68C120.072 112.68 120.115 112.694 120.144 112.694C120.385 112.694 120.585 112.523 120.642 112.296C120.699 112.011 120.528 111.741 120.243 111.684Z" fill="#707070"/>
<path d="M126.619 110.076H127.886C128.171 110.076 128.384 109.848 128.384 109.577C128.384 109.307 128.156 109.079 127.886 109.079H126.619C126.335 109.079 126.121 109.307 126.121 109.577C126.121 109.848 126.335 110.076 126.619 110.076Z" fill="#707070"/>
<path d="M126.149 113.164H126.164L128.839 113.079C129.124 113.064 129.337 112.837 129.323 112.552C129.309 112.282 129.096 112.068 128.825 112.068H128.811L126.135 112.153C125.851 112.168 125.637 112.395 125.651 112.68C125.651 112.936 125.865 113.164 126.149 113.164Z" fill="#707070"/>
<path d="M130.875 107.129C130.974 107.201 131.088 107.243 131.188 107.243C131.33 107.243 131.472 107.186 131.572 107.058C131.743 106.845 131.714 106.518 131.501 106.347L130.633 105.635C130.419 105.464 130.092 105.493 129.921 105.706C129.75 105.92 129.779 106.247 129.992 106.418L130.875 107.129Z" fill="#707070"/>
<path d="M135.415 111.2C135.514 111.299 135.642 111.342 135.77 111.342C135.899 111.342 136.027 111.285 136.126 111.2C136.325 111 136.325 110.687 136.126 110.488L134.86 109.221C134.66 109.022 134.347 109.022 134.148 109.221C133.949 109.421 133.949 109.734 134.148 109.933L135.415 111.2Z" fill="#707070"/>
<path d="M131.088 114.089C131.131 114.331 131.344 114.502 131.586 114.502C131.615 114.502 131.657 114.502 131.686 114.488L133.664 114.089C133.934 114.032 134.119 113.776 134.062 113.492C134.006 113.221 133.749 113.036 133.465 113.093L131.486 113.492C131.216 113.549 131.031 113.819 131.088 114.089Z" fill="#707070"/>
<path d="M88.6331 97.48C88.4908 97.238 88.1777 97.1668 87.9358 97.3091C87.6938 97.4515 87.6226 97.7646 87.765 98.0065L88.3343 98.9601C88.4339 99.1166 88.5904 99.202 88.7612 99.202C88.8466 99.202 88.9462 99.1735 89.0174 99.1308C89.2593 98.9885 89.3305 98.6754 89.1882 98.4335L88.6331 97.48Z" fill="#707070"/>
<path d="M183.747 164.984C183.263 158.963 179.534 137.629 178.51 132.463C177.969 129.745 176.702 125.489 175.364 120.963C173.927 116.124 172.304 110.631 171.322 106.233C170.227 101.337 169.515 94.1499 169.173 88.5994C170.568 88.6705 171.963 88.7275 173.329 88.7275C174.254 88.7275 175.179 88.7132 176.076 88.6705C185 88.272 203.743 82.7073 206.917 80.7147C209.208 79.2631 210.404 77.6406 211.286 75.9897C217.036 73.0863 230.443 64.6466 231.098 64.2197C231.738 63.7642 236.548 60.377 238.142 57.6729C238.356 57.4309 238.498 57.132 238.541 56.8047C238.612 56.577 238.669 56.3493 238.655 56.1358C238.655 55.9223 238.513 55.7373 238.328 55.6804C237.716 54.6983 235.353 52.8766 225.96 48.2939C227.525 45.0205 231.154 37.3351 231.268 36.6661C231.382 36.0115 231.197 30.7598 229.774 29.4647C229.603 29.3081 229.347 29.3223 229.162 29.4504C228.265 28.625 227.098 28.1411 225.874 28.1411C225.86 28.1411 225.846 28.1411 225.832 28.1411C223.896 28.1553 221.391 29.18 219.726 29.8489L219.256 30.034C218.161 30.4752 208.226 34.204 204.54 35.5987C202.633 31.016 200.769 26.2482 200.641 25.437C200.584 24.8534 200.242 23.786 198.719 23.1598C197.097 22.5051 195.218 22.8467 193.838 24.0422C191.817 25.7928 185.298 31.4287 183.434 32.9231C182.082 32.6954 177.641 29.5216 173.685 25.9351L163.537 16.3711C162.669 15.5598 161.445 15.3179 160.349 15.7306C159.752 15.9583 159.268 16.3568 158.926 16.855C157.531 18.2782 156.364 20.8827 156.35 20.9254C156.122 21.4947 154.543 30.8737 154.03 34.019C144.737 29.6212 133.749 24.3838 133.024 23.9853C132.896 23.9141 129.764 22.0924 127.644 22.9036C126.904 23.1883 126.349 23.7433 126.107 24.4976C126.021 24.768 125.779 25.5081 126.164 38.4452C126.178 38.6871 126.249 38.9006 126.349 39.0999C125.452 39.3703 124.698 39.6549 124.271 39.9395C122.25 41.2916 120.129 42.9568 119.83 45.12C119.503 47.3687 123.773 50.8841 126.576 52.8339C124.527 54.2571 121.609 56.4631 120.713 58.0856C119.546 60.1777 117.112 65.586 116.97 68.9305C116.899 70.6099 117.624 71.4496 118.236 71.8481C119.773 72.8586 121.809 71.962 122.207 71.7627C122.307 71.72 122.392 71.6631 122.478 71.5919L127.032 68.0339C128.242 69.9837 130.405 73.2714 132.212 74.78C134.618 76.8009 146.8 84.3866 152.65 86.0518C155.98 87.0054 160.947 87.8735 166.156 88.3432C166.469 94.0361 167.195 101.465 168.391 106.859C169.387 111.357 171.038 116.893 172.489 121.789C172.546 122.002 172.618 122.202 172.674 122.415C169.244 121.305 164.875 120.664 163.352 120.978C162.698 121.106 162.185 121.59 162.043 122.23C161.815 123.241 161.573 124.294 174.126 133.758C174.397 133.957 174.724 134.057 175.037 134.057C175.293 134.057 175.521 133.986 175.749 133.858C177.072 140.732 180.346 159.76 180.773 165.154C181.185 170.335 181.114 171.274 180.858 174.789L180.801 175.487C181.812 175.487 182.822 175.473 183.833 175.473L183.861 175.017C184.089 171.488 184.174 170.392 183.747 164.984ZM230.528 63.3942C230.386 63.4938 218.274 71.1223 212.041 74.4668C212.098 74.353 212.155 74.2391 212.197 74.1253C213.222 71.9193 214.19 69.8271 217.307 67.8915C219.982 66.8811 230.941 61.5725 235.695 59.1246C234.186 60.6616 232.094 62.3126 230.528 63.3942ZM229.689 36.3673C229.717 36.3104 230.03 35.5987 230.272 35.0437C230.315 35.7411 230.329 36.2961 230.286 36.5238C230.144 37.1216 227.141 43.5261 225.063 47.8811C224.366 47.5396 223.626 47.1979 222.857 46.8279C224.764 44.1238 228.692 38.4879 229.689 36.3673ZM220.352 32.8946L220.85 32.6954C222.202 32.1403 224.48 31.2152 225.846 31.201H225.86C226.458 31.201 226.999 31.4714 227.354 31.9553C227.696 32.4107 227.796 32.98 227.625 33.4924C227.525 33.7628 227.041 34.8729 226.928 35.1006C226.045 37.0077 221.889 42.9568 219.826 45.8317C218.189 43.4122 215.058 41.619 209.934 39.2707C208.938 38.8152 207.871 38.4025 206.761 38.0324C211.087 36.41 219.328 33.3074 220.352 32.8946ZM195.773 26.3763C196.286 25.9209 196.983 25.7785 197.538 26.0063C197.581 26.0205 197.609 26.0347 197.638 26.049C197.979 27.6857 200.171 33.0939 201.608 36.5665C196.4 35.371 190.849 34.7875 186.295 34.5029C188.8 32.4107 193.553 28.3119 195.773 26.3763ZM161.417 18.6198L171.579 28.198C174.852 31.1725 177.314 33.0512 179.193 34.2325C178.794 34.2325 178.438 34.2325 178.125 34.2325C172.874 34.2325 166.185 34.7306 159.567 35.7695C160.051 31.1441 161.218 20.0714 161.417 18.6198ZM157.247 21.3381C157.403 20.9396 157.773 20.2422 158.215 19.5164C157.887 22.7044 156.991 31.2722 156.578 35.2856C156.037 35.0294 155.496 34.7733 154.941 34.5029C155.781 29.365 157.062 21.8647 157.247 21.3381ZM178.125 37.2497C182.865 37.2497 199.061 37.5912 208.696 42.0175C216.325 45.5186 217.734 47.1126 218.132 49.5605C219 54.8691 216.467 58.7545 209.379 63.0099C203.032 66.8242 193.994 69.8983 188.7 70.8661C179.791 72.5028 162.37 72.5028 154.358 71.3642C147.384 70.368 133.721 64.6039 133.721 55.7942C133.721 51.4818 137.777 45.2624 143.812 42.8429C152.991 39.1568 168.021 37.2497 178.125 37.2497ZM128.953 25.7643C129.537 25.807 130.647 26.1628 131.458 26.6467C132.241 27.1021 145.619 33.4497 153.048 36.9793C150.657 37.5059 148.352 38.1036 146.203 38.7867C142.886 37.6339 134.162 37.5912 134.077 37.5912C133.821 37.5912 131.501 37.9328 129.152 38.4309C129.152 38.4167 129.167 38.4025 129.167 38.3883C128.996 33.2077 128.896 27.4864 128.953 25.7643ZM169.031 80.9282C169.131 80.1028 168.533 79.3485 167.707 79.2489C166.854 79.1492 166.128 79.747 166.028 80.5724C165.928 81.3837 165.914 83.12 165.985 85.3687C161.132 84.9133 156.549 84.102 153.447 83.2054C148.181 81.6968 136.283 74.3245 134.119 72.517C132.355 71.0368 129.622 66.6534 128.725 65.0878C128.512 64.7036 128.128 64.4474 127.701 64.362C127.274 64.2766 126.833 64.3905 126.477 64.6609L120.727 69.1583C120.485 69.2579 120.158 69.3433 119.944 69.3575C119.944 69.3006 119.944 69.2151 119.944 69.1155C120.044 66.4826 122.179 61.6294 123.303 59.6227C123.986 58.3845 127.715 55.6661 130.134 54.1291C130.618 53.8302 130.889 53.2751 130.832 52.7058C130.775 52.1366 130.419 51.6527 129.893 51.4392C128.327 50.813 123.445 46.7853 122.819 45.4474C122.99 44.9066 123.687 43.9815 125.908 42.5013C126.89 41.8609 133.095 40.7224 134.063 40.6227C135.728 40.6227 138.418 40.7365 140.78 40.9358C134.433 44.3373 130.704 50.8841 130.704 55.7942C130.704 60.6474 133.735 65.1732 139.457 68.8594C144.523 72.1185 150.245 73.8406 153.931 74.3672C157.674 74.908 163.409 75.1927 169.415 75.1927C176.631 75.1927 184.231 74.78 189.241 73.8549C194.919 72.8159 204.199 69.6421 210.931 65.6144C216.652 62.1844 222.316 57.559 221.149 49.3897C226.415 51.8946 232.051 54.7979 234.528 56.3635C230.073 58.6691 218.217 64.4047 216.125 65.1448C216.068 65.159 216.04 65.2017 215.997 65.2302C215.94 65.2586 215.898 65.2586 215.841 65.2871C211.87 67.7208 210.589 70.4676 209.465 72.887C208.525 74.9222 207.7 76.6871 205.309 78.1957C202.747 79.8182 184.758 85.2975 175.948 85.696C173.728 85.7956 171.379 85.7529 169.031 85.6248C168.946 83.3904 168.946 81.6968 169.031 80.9282ZM166.967 124.223C169.188 124.578 172.006 125.261 173.728 126.115C174.212 127.781 174.653 129.346 174.994 130.684C172.034 128.449 168.96 125.973 166.967 124.223Z" fill="#707070"/>
<path d="M226.771 154.281C228.878 152.431 231.069 150.51 232.108 147.094C233.546 142.369 233.104 132.919 232.848 127.268C232.777 125.845 232.734 124.707 232.734 124.052C232.734 123.013 233.204 121.305 233.716 119.498C234.599 116.31 235.609 112.709 235.168 109.393C234.513 104.383 231.454 87.8168 230.272 84.6146C229.717 83.106 228.892 82.3232 227.796 82.2948C226.216 82.1951 225.263 83.9884 225.021 84.515C224.935 84.7142 224.892 84.9277 224.892 85.127C224.892 85.9524 224.779 93.9367 224.622 102.063C224.295 100.939 223.967 99.8857 223.654 99.0602C222.388 95.7868 220.822 88.9839 220.808 88.9127C220.751 88.6708 220.537 88.4857 220.295 88.5284C220.054 88.5427 219.854 88.7277 219.826 88.9554L219.342 92.4993C219.342 92.5277 219.342 92.542 219.342 92.5704C219.356 94.9757 219.328 98.918 219.285 103.088C219.228 110.389 219.157 117.932 219.342 120.01C219.684 123.867 219.726 131.353 217.677 134.911C215.884 138.042 214.773 142.824 214.361 144.817C212.909 147.82 211.158 152.886 209.451 158.081L209.052 159.277C207.985 162.465 207.273 170.961 207.06 175.387C208.07 175.387 209.081 175.373 210.091 175.373C210.319 170.691 211.059 162.835 211.927 160.244L212.325 159.035C213.521 155.406 216.31 146.923 217.876 144.703C219.356 142.611 224.551 134.783 225.319 132.677C225.931 131.012 226.572 125.447 227.141 120.152C227.426 117.477 227.81 94.4917 227.91 87.2618C229.191 92.243 231.567 105.123 232.179 109.791C232.535 112.495 231.61 115.797 230.813 118.701C230.23 120.807 229.731 122.615 229.731 124.066C229.731 124.749 229.788 125.931 229.86 127.425C230.101 132.52 230.543 142.013 229.248 146.226C228.451 148.83 226.757 150.31 224.807 152.032C223.014 153.598 220.993 155.377 219.726 158.209C217.961 162.137 215.058 170.762 213.535 175.359C214.603 175.345 215.67 175.345 216.737 175.331C218.317 170.605 220.936 162.934 222.501 159.433C223.441 157.199 225.063 155.775 226.771 154.281ZM224.095 119.882C223.825 122.401 223.014 130.072 222.459 131.624C221.975 132.961 218.275 138.74 216.04 141.999C216.609 139.864 217.435 137.288 218.516 135.409C221.178 130.77 220.395 121.021 220.295 119.925C220.11 117.904 220.182 110.033 220.253 103.102C220.295 98.9464 220.324 95.0326 220.31 92.6131L220.424 91.7449C221.007 94.0505 221.889 97.3809 222.701 99.4445C223.341 101.081 224.01 103.6 224.537 105.878C224.394 112.581 224.224 118.63 224.095 119.882Z" fill="#707070"/>
<path d="M252.09 34.6453C252.588 34.3749 252.958 33.9053 253.086 33.3217C253.243 32.5959 252.972 31.8701 252.389 31.4146C252.261 31.315 252.09 31.2154 251.891 31.2154C251.791 31.2154 251.492 31.2154 247.991 32.539C248.048 30.7599 246.141 29.1802 245.458 28.6109L245.316 28.497C244.462 27.7712 242.298 27.7285 242.27 27.7285C242.071 27.7285 241.757 27.8139 241.444 28.1839C240.918 28.8244 240.462 30.2049 240.733 31.7562C240.918 32.8094 242.199 33.7629 243.608 34.2611C243.352 34.4176 243.095 34.6169 242.839 34.9158C241.487 36.4813 241.957 37.5202 242.526 38.2461C242.896 38.73 243.537 38.915 244.22 38.915C244.96 38.915 245.743 38.7015 246.312 38.4311C246.483 38.3457 246.639 38.2603 246.767 38.1749C247.578 38.9719 249.13 39.4416 250.525 39.4416C250.752 39.4416 250.966 39.4274 251.179 39.3989C252.546 39.2424 253.414 38.5734 253.57 37.5772C253.741 36.3532 252.958 35.3712 252.09 34.6453ZM251.805 32.2543C252.161 32.5532 252.133 32.9517 252.09 33.1225C252.033 33.4214 251.805 33.7629 251.364 33.8626C251.279 33.8768 251.208 33.9195 251.151 33.9764C250.795 33.7487 250.468 33.5779 250.254 33.4641L250.098 33.3787C249.87 33.2506 249.571 33.1794 249.258 33.151C250.382 32.724 251.421 32.3539 251.805 32.2543ZM246.155 37.3922C246.098 37.4206 246.013 37.4633 245.871 37.5345C244.917 37.9899 243.622 38.0468 243.309 37.6483C242.996 37.2356 242.597 36.7375 243.593 35.5989C243.963 35.1719 244.305 35.0296 244.732 34.8446C244.889 34.7877 245.045 34.7023 245.202 34.6311C245.316 34.6454 245.415 34.6453 245.529 34.6453C245.7 34.6453 245.842 34.6169 245.984 34.6026C245.828 35.3427 245.856 36.339 246.226 37.3637C246.212 37.3637 246.184 37.3637 246.155 37.3922ZM245.202 33.6064C243.65 33.4641 241.857 32.4251 241.715 31.5854C241.444 30.0483 242.071 28.8528 242.256 28.739C242.967 28.739 244.277 28.9382 244.647 29.2514L244.803 29.3794C245.444 29.9203 247.408 31.5427 246.881 32.9659C246.625 33.6348 245.728 33.6491 245.202 33.6064ZM251.051 38.4027C249.514 38.5877 247.536 37.933 247.223 37.1502C246.639 35.7128 246.995 34.4034 247.166 34.2611C247.536 34.1757 248.091 34.1188 248.589 34.1188C249.016 34.1188 249.414 34.1614 249.599 34.2611L249.77 34.3607C250.51 34.745 252.773 35.9405 252.545 37.4349C252.46 38.1322 251.563 38.3457 251.051 38.4027Z" fill="#707070"/>
<path d="M98.9944 57.8008C98.9802 57.8008 97.4431 57.8292 96.7458 58.427C96.2903 58.797 95.109 59.7933 94.9952 60.9888C92.8034 60.1633 92.59 60.1491 92.5046 60.1491C92.3196 60.1491 92.1772 60.2487 92.0634 60.3199C91.6222 60.6615 91.4087 61.2165 91.5368 61.7715C91.6079 62.1274 91.8214 62.4262 92.1061 62.6397C91.551 63.1378 91.0956 63.8068 91.2237 64.6322C91.3375 65.3865 91.978 65.8847 92.9742 65.9985C93.1308 66.0128 93.2873 66.027 93.4439 66.027C94.369 66.027 95.3795 65.7424 95.9914 65.2158C96.0626 65.2585 96.1338 65.2869 96.2049 65.3296C96.6034 65.5288 97.1585 65.6712 97.6851 65.6712C98.1975 65.6712 98.6813 65.5289 98.966 65.1588C99.3503 64.6607 99.7488 63.8637 98.7525 62.6966C98.6529 62.5828 98.5532 62.4832 98.4536 62.3978C99.336 62.0278 100.09 61.4016 100.218 60.69C100.403 59.5941 100.09 58.5978 99.7061 58.1423C99.4214 57.8719 99.1652 57.8008 98.9944 57.8008ZM92.6042 61.2023C92.8319 61.2734 93.2589 61.4158 93.7428 61.6008C93.6716 61.6293 93.6004 61.6577 93.5293 61.6862C93.4012 61.7574 93.202 61.8569 92.9885 61.985C92.96 61.9708 92.9173 61.9424 92.8888 61.9424C92.6611 61.8854 92.5473 61.7146 92.5188 61.5581C92.5046 61.5011 92.4903 61.3446 92.6042 61.2023ZM95.4933 64.2622C95.3225 64.6891 94.0843 65.1304 93.0739 65.0165C92.775 64.9738 92.2626 64.86 92.2057 64.5042C92.0776 63.6075 93.5151 62.839 93.999 62.5971L94.1128 62.5401C94.2124 62.4832 94.4402 62.4547 94.7106 62.4547C94.981 62.4547 95.3083 62.4832 95.5503 62.5259C95.6641 62.7109 95.8207 63.4367 95.4933 64.2622ZM98.1548 64.5468C98.0267 64.7176 97.2581 64.7319 96.6319 64.433C96.575 64.4045 96.5465 64.3903 96.5038 64.3761C96.6888 63.7926 96.7173 63.2517 96.6604 62.782C96.7031 62.782 96.7458 62.7963 96.7885 62.7963C96.8454 62.7963 96.9166 62.7963 96.9735 62.782C97.0731 62.8247 97.1727 62.8674 97.2581 62.9101C97.5428 63.024 97.742 63.1094 97.9697 63.3656C98.539 64.0487 98.354 64.2906 98.1548 64.5468ZM99.1937 60.5476C99.1225 60.9888 98.0124 61.6862 96.9877 61.7858C96.6888 61.8143 96.1622 61.8143 96.0341 61.4585C95.721 60.6045 96.9735 59.5656 97.3862 59.224L97.4858 59.1386C97.6566 58.982 98.3967 58.8398 98.8948 58.8255C99.0514 58.9963 99.3502 59.6795 99.1937 60.5476Z" fill="#707070"/>
<path d="M146.26 47.6106C146.317 47.6106 146.388 47.5964 146.445 47.5679L152.28 45.2053C152.536 45.1057 152.664 44.8068 152.564 44.5506C152.465 44.2945 152.166 44.1664 151.91 44.266L146.075 46.6285C145.818 46.7282 145.69 47.0271 145.79 47.2832C145.875 47.4825 146.06 47.6106 146.26 47.6106Z" fill="#707070"/>
<path d="M159.04 43.0282C159.111 43.0282 159.196 43.014 159.268 42.9713L160.719 42.2597C160.975 42.1316 161.075 41.8327 160.947 41.5907C160.833 41.3488 160.52 41.2349 160.278 41.363L158.826 42.0746C158.57 42.2027 158.471 42.5016 158.599 42.7436C158.67 42.9286 158.855 43.0282 159.04 43.0282Z" fill="#707070"/>
<path d="M173.713 41.2915C173.742 41.2915 173.756 41.2915 173.785 41.2915L176.09 40.9784C176.361 40.9357 176.56 40.6795 176.517 40.4091C176.474 40.1387 176.218 39.9252 175.948 39.9822L173.642 40.2952C173.372 40.3379 173.173 40.5941 173.215 40.8645C173.244 41.1207 173.457 41.2915 173.713 41.2915Z" fill="#707070"/>
<path d="M180.331 41.1352H184.43C184.715 41.1352 184.928 40.9075 184.928 40.637C184.928 40.3666 184.7 40.1389 184.43 40.1389H180.331C180.046 40.1389 179.833 40.3666 179.833 40.637C179.833 40.9075 180.061 41.1352 180.331 41.1352Z" fill="#707070"/>
<path d="M192.044 42.3024L196.3 43.3271C196.342 43.3414 196.385 43.3413 196.413 43.3413C196.641 43.3413 196.855 43.1848 196.897 42.9571C196.968 42.6867 196.798 42.4162 196.527 42.3451L192.272 41.3204C192.001 41.2492 191.731 41.42 191.66 41.6904C191.603 41.9751 191.774 42.2455 192.044 42.3024Z" fill="#707070"/>
<path d="M202.178 44.7073L205.651 46.6429C205.722 46.6856 205.807 46.6998 205.893 46.6998C206.063 46.6998 206.248 46.6002 206.334 46.4436C206.462 46.2017 206.376 45.8885 206.135 45.7605L202.662 43.8249C202.42 43.6968 202.107 43.768 201.979 44.0242C201.851 44.2661 201.936 44.565 202.178 44.7073Z" fill="#707070"/>
<path d="M209.906 51.5103C210.005 51.6384 210.162 51.7096 210.304 51.7096C210.418 51.7096 210.518 51.6811 210.603 51.6099C210.831 51.4391 210.873 51.126 210.703 50.8983L208.881 48.4931C208.71 48.2654 208.397 48.2226 208.169 48.3934C207.942 48.5642 207.899 48.8773 208.07 49.105L209.906 51.5103Z" fill="#707070"/>
<path d="M206.248 55.9079L203.729 60.0353C203.587 60.2772 203.658 60.5761 203.9 60.7326C203.985 60.7896 204.07 60.8038 204.156 60.8038C204.327 60.8038 204.497 60.7184 204.583 60.5618L207.102 56.4345C207.244 56.1925 207.173 55.8937 206.931 55.7371C206.703 55.5948 206.39 55.666 206.248 55.9079Z" fill="#707070"/>
<path d="M198.477 63.2521L196.271 63.9778C196.001 64.0632 195.859 64.3479 195.944 64.6183C196.015 64.8318 196.215 64.9599 196.428 64.9599C196.485 64.9599 196.528 64.9457 196.585 64.9314L198.791 64.2056C199.061 64.1202 199.203 63.8355 199.118 63.5651C199.033 63.2947 198.734 63.1667 198.477 63.2521Z" fill="#707070"/>
<path d="M190.066 65.7566L186.907 66.0412C186.622 66.0697 186.423 66.3117 186.451 66.5821C186.48 66.8383 186.693 67.0375 186.949 67.0375C186.964 67.0375 186.978 67.0375 186.992 67.0375L190.152 66.7528C190.436 66.7244 190.635 66.4824 190.607 66.212C190.593 65.9416 190.337 65.7423 190.066 65.7566Z" fill="#707070"/>
<path d="M178.125 67.0517H182.238C182.523 67.0517 182.737 66.824 182.737 66.5535C182.737 66.2831 182.509 66.0554 182.238 66.0554H178.125C177.841 66.0554 177.627 66.2831 177.627 66.5535C177.627 66.824 177.841 67.0517 178.125 67.0517Z" fill="#707070"/>
<path d="M171.152 65.7712L166.74 64.6895C166.469 64.6184 166.199 64.7892 166.128 65.0596C166.057 65.33 166.227 65.6004 166.498 65.6716L170.91 66.7532C170.952 66.7674 170.995 66.7674 171.024 66.7674C171.251 66.7674 171.451 66.6109 171.508 66.3832C171.579 66.1128 171.422 65.8423 171.152 65.7712Z" fill="#707070"/>
<path d="M155.724 64.6893L152.408 63.6077C152.137 63.5223 151.853 63.6646 151.767 63.935C151.682 64.2055 151.824 64.4901 152.094 64.5755L155.411 65.6571C155.467 65.6714 155.51 65.6856 155.567 65.6856C155.781 65.6856 155.98 65.5575 156.051 65.3298C156.136 65.0594 155.98 64.7747 155.724 64.6893Z" fill="#707070"/>
<path d="M144.054 60.8605L145.164 63.3653C145.249 63.5504 145.434 63.6642 145.619 63.6642C145.69 63.6642 145.761 63.65 145.818 63.6215C146.075 63.5076 146.188 63.2088 146.075 62.9526L144.964 60.4478C144.851 60.1916 144.552 60.0777 144.296 60.1916C144.068 60.3055 143.954 60.6043 144.054 60.8605Z" fill="#707070"/>
<path d="M143.1 54.5414L142.63 56.0216C142.545 56.292 142.687 56.5766 142.958 56.662C143.015 56.6763 143.057 56.6905 143.114 56.6905C143.328 56.6905 143.527 56.5482 143.598 56.3347L144.068 54.8546C144.153 54.5842 144.011 54.2995 143.741 54.2141C143.47 54.1287 143.185 54.2853 143.1 54.5414Z" fill="#707070"/>
<path d="M149.391 51.1687C149.448 51.3964 149.647 51.553 149.875 51.553C149.917 51.553 149.96 51.553 150.003 51.5388L154.03 50.4999C154.301 50.4287 154.457 50.1582 154.386 49.8878C154.315 49.6174 154.03 49.4609 153.774 49.532L149.747 50.571C149.49 50.628 149.334 50.8983 149.391 51.1687Z" fill="#707070"/>
<path d="M169.913 46.4296H170.696C170.981 46.4296 171.194 46.2019 171.194 45.9315C171.194 45.6611 170.967 45.4333 170.696 45.4333H169.913C169.629 45.4333 169.415 45.6611 169.415 45.9315C169.415 46.2019 169.643 46.4296 169.913 46.4296Z" fill="#707070"/>
<path d="M181.726 45.8887C181.712 46.1733 181.925 46.401 182.196 46.4152L186.921 46.6856C186.935 46.6856 186.935 46.6856 186.949 46.6856C187.22 46.6856 187.433 46.4722 187.447 46.216C187.462 45.9314 187.248 45.7036 186.978 45.6894L182.253 45.419C182.011 45.3763 181.754 45.6183 181.726 45.8887Z" fill="#707070"/>
<path d="M194.663 46.6C194.478 46.4007 194.151 46.3864 193.951 46.5715C193.752 46.7565 193.738 47.0838 193.923 47.2831L194.805 48.2367C194.905 48.3363 195.033 48.3932 195.175 48.3932C195.304 48.3932 195.417 48.3505 195.517 48.2508C195.716 48.0658 195.731 47.7385 195.545 47.5392L194.663 46.6Z" fill="#707070"/>
<path d="M198.819 51.6099C198.918 51.7807 199.089 51.8662 199.26 51.8662C199.345 51.8662 199.431 51.8519 199.502 51.795C199.744 51.6527 199.829 51.3538 199.687 51.1118L199.217 50.2721C199.075 50.0302 198.776 49.9448 198.534 50.0871C198.292 50.2295 198.207 50.5283 198.349 50.7703L198.819 51.6099Z" fill="#707070"/>
<path d="M198.691 54.3286L196.086 56.6626C195.873 56.8477 195.859 57.175 196.044 57.3742C196.143 57.4881 196.286 57.5451 196.414 57.5451C196.528 57.5451 196.656 57.5024 196.755 57.417L199.36 55.0828C199.573 54.8978 199.587 54.5705 199.402 54.3712C199.217 54.1578 198.89 54.1436 198.691 54.3286Z" fill="#707070"/>
<path d="M194.065 57.8579L192.258 58.7972C192.016 58.9253 191.916 59.2242 192.044 59.4804C192.13 59.6512 192.315 59.7508 192.486 59.7508C192.557 59.7508 192.642 59.7366 192.713 59.6939L194.521 58.7545C194.763 58.6264 194.862 58.3275 194.734 58.0713C194.62 57.8294 194.307 57.7298 194.065 57.8579Z" fill="#707070"/>
<path d="M186.665 60.2343C186.622 59.9497 186.366 59.7647 186.095 59.8074L183.42 60.1632C183.149 60.2059 182.95 60.4621 182.993 60.7325C183.021 60.9887 183.249 61.1737 183.491 61.1737C183.519 61.1737 183.533 61.1737 183.562 61.1737L186.238 60.8179C186.508 60.761 186.707 60.5048 186.665 60.2343Z" fill="#707070"/>
<path d="M178.125 60.9892H180.331C180.616 60.9892 180.829 60.7615 180.829 60.491C180.829 60.2206 180.602 59.9929 180.331 59.9929H178.125C177.841 59.9929 177.627 60.2206 177.627 60.491C177.627 60.7615 177.841 60.9892 178.125 60.9892Z" fill="#707070"/>
<path d="M170.838 60.4769C170.838 60.7615 171.066 60.975 171.337 60.975H173.073C173.357 60.975 173.571 60.7473 173.571 60.4769C173.571 60.2065 173.343 59.9788 173.073 59.9788H171.337C171.066 59.9788 170.838 60.2065 170.838 60.4769Z" fill="#707070"/>
<path d="M166.796 60.306C166.796 60.0213 166.569 59.8079 166.298 59.8079H164.405C164.121 59.8079 163.907 60.0356 163.907 60.306C163.907 60.5764 164.135 60.8041 164.405 60.8041H166.298C166.569 60.8041 166.796 60.5764 166.796 60.306Z" fill="#707070"/>
<path d="M157.93 59.1816C158.029 59.2528 158.129 59.2955 158.243 59.2955C158.385 59.2955 158.542 59.2243 158.641 59.1105C158.812 58.897 158.769 58.5696 158.556 58.3989L156.35 56.6625C156.136 56.4917 155.809 56.5344 155.638 56.7479C155.468 56.9614 155.51 57.2887 155.724 57.4595L157.93 59.1816Z" fill="#707070"/>
<path d="M156.506 54.5561C156.635 54.5561 156.763 54.4991 156.862 54.3995L157.773 53.4459C157.972 53.2467 157.958 52.9193 157.759 52.7343C157.56 52.5351 157.246 52.5493 157.047 52.7485L156.136 53.7021C155.937 53.9014 155.951 54.2287 156.151 54.4137C156.265 54.4991 156.378 54.5561 156.506 54.5561Z" fill="#707070"/>
<path d="M161.716 52.1795C161.73 52.1795 161.758 52.1795 161.773 52.1795L167.508 51.4395C167.779 51.3968 167.978 51.1548 167.949 50.8702C167.907 50.5998 167.679 50.4005 167.38 50.429L161.645 51.169C161.374 51.2117 161.175 51.4537 161.203 51.7383C161.26 51.9945 161.474 52.1795 161.716 52.1795Z" fill="#707070"/>
<path d="M176.005 50.0156H174.183C173.899 50.0156 173.685 50.2433 173.685 50.5138C173.685 50.7842 173.913 51.0119 174.183 51.0119H176.005C176.29 51.0119 176.503 50.7842 176.503 50.5138C176.503 50.2433 176.29 50.0156 176.005 50.0156Z" fill="#707070"/>
<path d="M185.298 51.026C185.583 51.026 185.796 50.7983 185.796 50.5279C185.796 50.2575 185.569 50.0298 185.298 50.0298H184.43C184.145 50.0298 183.932 50.2575 183.932 50.5279C183.932 50.7983 184.16 51.026 184.43 51.026H185.298Z" fill="#707070"/>
<path d="M190.692 52.3356C190.792 52.4495 190.92 52.4922 191.062 52.4922C191.19 52.4922 191.304 52.4495 191.404 52.3641C191.603 52.1791 191.617 51.8517 191.432 51.6525L190.806 50.9693C190.621 50.7701 190.294 50.7559 190.095 50.9409C189.895 51.1259 189.881 51.4532 190.066 51.6525L190.692 52.3356Z" fill="#707070"/>
<path d="M190.451 53.1611L187.134 55.4667C186.907 55.6233 186.85 55.9364 187.006 56.1641C187.106 56.3064 187.262 56.3776 187.419 56.3776C187.519 56.3776 187.618 56.3491 187.704 56.2922L191.02 53.9866C191.248 53.83 191.304 53.5169 191.148 53.2892C191.006 53.0615 190.692 53.0045 190.451 53.1611Z" fill="#707070"/>
<path d="M181.285 55.3672C181.001 55.3672 180.787 55.5949 180.787 55.8653C180.787 56.1357 181.015 56.3634 181.285 56.3634H183.804C184.089 56.3634 184.302 56.1357 184.302 55.8653C184.302 55.5949 184.075 55.3672 183.804 55.3672H181.285Z" fill="#707070"/>
<path d="M172.204 56.3774H176.004C176.289 56.3774 176.503 56.1496 176.503 55.8792C176.503 55.6088 176.275 55.3811 176.004 55.3811H172.204C171.92 55.3811 171.706 55.6088 171.706 55.8792C171.706 56.1496 171.934 56.3774 172.204 56.3774Z" fill="#707070"/>
<path d="M167.323 55.4383C167.323 55.723 167.551 55.9364 167.821 55.9364H168.803C169.088 55.9364 169.302 55.7087 169.302 55.4383C169.302 55.1679 169.074 54.9402 168.803 54.9402H167.821C167.551 54.9402 167.323 55.1537 167.323 55.4383Z" fill="#707070"/>
<path d="M163.481 46.7003C163.538 46.7003 163.594 46.6861 163.651 46.6719L166.469 45.7041C166.726 45.6187 166.868 45.334 166.782 45.0636C166.697 44.8074 166.398 44.6509 166.142 44.7505L163.324 45.7183C163.068 45.8037 162.926 46.0883 163.011 46.3588C163.068 46.5722 163.267 46.7003 163.481 46.7003Z" fill="#707070"/>
<path d="M165.345 42.8283H167.537C167.821 42.8283 168.035 42.6006 168.035 42.3302C168.035 42.0597 167.807 41.832 167.537 41.832H165.345C165.06 41.832 164.847 42.0597 164.847 42.3302C164.847 42.6006 165.074 42.8283 165.345 42.8283Z" fill="#707070"/>
<path d="M142.957 49.6743L140.979 51.9799C140.794 52.1934 140.823 52.5065 141.036 52.6915C141.136 52.7769 141.25 52.8054 141.363 52.8054C141.506 52.8054 141.648 52.7485 141.748 52.6346L143.726 50.329C143.911 50.1155 143.882 49.8024 143.669 49.6174C143.456 49.4466 143.142 49.4608 142.957 49.6743Z" fill="#707070"/>
<path d="M149.177 54.2C148.892 54.2 148.679 54.4277 148.679 54.6981V58.7827C148.679 59.0673 148.907 59.2808 149.177 59.2808C149.447 59.2808 149.675 59.0531 149.675 58.7827V54.6981C149.675 54.4277 149.447 54.2 149.177 54.2Z" fill="#707070"/>
<path d="M204.327 51.1831C204.071 51.0834 203.772 51.2115 203.672 51.4819L202.092 55.6947C201.993 55.9509 202.121 56.2498 202.391 56.3494C202.448 56.3778 202.505 56.3778 202.562 56.3778C202.761 56.3778 202.96 56.2497 203.032 56.0505L204.611 51.8377C204.725 51.5673 204.597 51.2827 204.327 51.1831Z" fill="#707070"/>
<path d="M212.724 55.8655C212.809 55.9224 212.894 55.9366 212.994 55.9366C213.165 55.9366 213.321 55.8513 213.421 55.6947L215.784 51.909C215.926 51.667 215.855 51.3682 215.627 51.2116C215.385 51.0693 215.086 51.1405 214.93 51.3682L212.567 55.1539C212.411 55.4101 212.482 55.7232 212.724 55.8655Z" fill="#707070"/>
<path d="M161.716 67.0517H164.591C164.875 67.0517 165.089 66.824 165.089 66.5535C165.089 66.2831 164.861 66.0554 164.591 66.0554H161.716C161.431 66.0554 161.218 66.2831 161.218 66.5535C161.218 66.824 161.445 67.0517 161.716 67.0517Z" fill="#707070"/>
<path d="M160.478 62.6538H158.713C158.428 62.6538 158.215 62.8815 158.215 63.1519C158.215 63.4223 158.442 63.6501 158.713 63.6501H160.478C160.762 63.6501 160.976 63.4223 160.976 63.1519C160.976 62.8815 160.762 62.6538 160.478 62.6538Z" fill="#707070"/>
</svg>
