<svg width="384" height="168" viewBox="0 0 384 168" fill="none" xmlns="http://www.w3.org/2000/svg">
<path d="M25.3145 108.204L24.9987 108.131C25.5817 104.985 24.9259 101.851 23.0919 99.1914C21.7923 97.3088 20.0189 95.827 18.0756 94.9282L18.355 93.2642L18.5129 93.3007C18.61 93.325 18.6951 93.3371 18.7922 93.3371C19.0595 93.3371 19.3266 93.2521 19.5453 93.0942C19.8489 92.8755 20.0311 92.5476 20.0797 92.1832L20.7963 85.7945C20.8692 85.1022 20.3833 84.4706 19.6789 84.3735L16.861 83.9969C16.1565 83.9119 15.525 84.3856 15.4157 85.0779L14.4683 91.1751C14.359 91.8432 14.7962 92.4869 15.4642 92.6326L15.8286 92.7177L15.5979 94.1387C15.2699 94.078 14.942 94.0294 14.614 93.993C8.82045 93.5557 4.99454 96.4221 2.99047 102.762L2.71108 102.689C2.35885 102.604 1.97023 102.677 1.66658 102.884C1.36294 103.09 1.1686 103.43 1.12002 103.795C0.93783 105.422 -1.86789 118.321 -2.8517 121.09C-3.84766 123.872 -11.038 142.066 -11.1109 142.261C-11.3417 142.831 -11.123 143.487 -10.6129 143.815C-10.285 144.022 -2.6088 149.002 0.294064 150.216C3.2698 151.455 11.2618 152.172 11.6019 152.208C11.6383 152.208 11.6747 152.208 11.7112 152.208C12.2456 152.208 12.7314 151.88 12.9136 151.37C13.1687 150.69 19.2174 134.633 21.0392 127.285C22.8247 120.058 26.2134 109.965 26.2498 109.855C26.3591 109.515 26.3348 109.139 26.1526 108.823C25.9704 108.507 25.6668 108.289 25.3145 108.204ZM17.7598 86.7176L18.0635 86.7541L17.6505 90.4221C17.6019 90.4099 17.5534 90.3735 17.5048 90.3613C17.4198 90.3492 17.3347 90.3614 17.2497 90.3735L17.189 90.3613L17.7598 86.7176ZM11.9662 96.6286C12.0877 97.0294 12.2821 97.4181 12.5857 97.7703C13.6788 99.0699 15.8043 99.7137 17.4319 99.7137C17.5655 99.7137 17.7112 99.7137 17.8327 99.7016C18.6829 99.6408 19.2902 99.4586 19.7518 99.2278C20.189 99.6651 20.602 100.139 20.9663 100.661C22.3753 102.702 22.8854 105.094 22.4846 107.511L5.49253 103.37C7.05935 98.5477 9.47635 96.993 11.9662 96.6286ZM-0.434688 121.965C0.488398 119.39 2.68683 109.503 3.42773 105.532L11.4075 107.475L6.16055 125.269L2.28597 133.916C1.21714 133.516 -1.91645 132.313 -4.04197 131.281C-2.40228 127.103 -0.871939 123.167 -0.434688 121.965ZM18.5129 126.677C16.9825 132.896 12.1606 145.965 10.8246 149.548C8.15246 149.269 3.16049 148.637 1.26573 147.848C-0.871939 146.949 -6.21613 143.585 -8.34166 142.236C-7.60076 140.366 -5.96102 136.2 -4.34562 132.095C-1.73426 133.37 2.17668 134.803 2.37102 134.876C2.4196 134.888 2.46821 134.9 2.51679 134.9C2.68683 134.9 2.83255 134.803 2.90542 134.645L6.96213 125.572L12.2335 107.694L23.3226 110.39C22.351 113.39 19.9339 120.92 18.5129 126.677Z" fill="white"/>
<path d="M77.1653 142.163C76.8981 141.507 76.1694 141.192 75.5135 141.447L69.7564 143.645C69.1248 143.888 68.7847 144.58 68.9912 145.236L69.1005 145.588L65.3838 146.973C64.7158 147.216 64.3758 147.969 64.6187 148.637C64.813 149.159 65.2988 149.475 65.8333 149.475C65.979 149.475 66.1369 149.451 66.2827 149.39L69.8778 148.054L69.9264 148.212C70.0358 148.564 70.2908 148.843 70.6187 149.001C70.7888 149.074 70.9709 149.123 71.1531 149.123C71.3232 149.123 71.5054 149.086 71.6633 149.014L77.5662 146.463C78.2099 146.184 78.5136 145.443 78.2464 144.787L77.1653 142.163ZM71.9791 146.062C71.9669 146.013 71.9791 145.953 71.9548 145.904C71.9305 145.819 71.8697 145.758 71.8211 145.698L71.7969 145.637L75.2463 144.313L75.3678 144.605L71.9791 146.062Z" fill="white"/>
<path d="M61.339 106.916L60.6224 106.843C60.7439 103.965 59.6386 101.936 58.5941 100.685C57.4645 99.3248 56.0191 98.3896 54.5981 97.8187L54.7924 96.6649L54.9503 96.7013C55.0475 96.7256 55.1325 96.7377 55.2297 96.7377C55.4969 96.7377 55.7641 96.6527 55.9827 96.4948C56.2863 96.2762 56.4685 95.9482 56.5171 95.5839L57.2338 89.1952C57.3066 88.4907 56.8208 87.8591 56.1163 87.7741L53.2984 87.3976C52.594 87.3125 51.9624 87.7862 51.8531 88.4785L50.9057 94.5758C50.7964 95.2438 51.2337 95.8875 51.9017 96.0333L52.2661 96.1183L52.0839 97.1871C51.8895 97.1628 51.7074 97.1507 51.5252 97.1386C49.679 97.1021 43.8247 97.6244 42.5494 105.118L42.3915 105.106C41.7478 105.058 41.1405 105.483 41.0069 106.114C38.5777 117.337 34.4845 135.665 33.8408 137.123C33.6222 137.56 33.6829 138.094 33.9865 138.483C34.1444 138.69 38.0554 143.633 44.177 144.86C45.8531 145.2 49.6669 145.795 52.6791 145.795C54.4159 145.795 55.8977 145.601 56.5414 145.042C57.3188 144.374 57.6953 142.843 58.254 135.58C58.3147 134.839 58.3633 134.22 58.3997 133.819C58.5576 132.277 61.1447 116.535 62.4929 108.422C62.5536 108.07 62.4564 107.705 62.2378 107.426C62.0192 107.147 61.7034 106.952 61.339 106.916ZM54.2215 90.1061L54.5252 90.1425L54.1122 93.8106C54.0637 93.7985 54.0151 93.762 53.9665 93.7499C53.8814 93.7377 53.7965 93.7498 53.7115 93.762L53.6507 93.7499L54.2215 90.1061ZM48.5859 100.272C48.683 100.442 48.7802 100.624 48.9138 100.782C49.9584 102.07 52.1568 102.701 53.8693 102.701C54.0029 102.701 54.1487 102.701 54.2823 102.689C55.2904 102.628 55.9705 102.41 56.4564 102.155C56.5171 102.216 56.5779 102.276 56.6265 102.337C57.6224 103.539 58.0961 104.973 58.0596 106.6L45.1365 105.361C45.683 102.422 47.1041 100.964 48.5859 100.272ZM55.3632 108.932L51.8167 129.957C51.2215 130.151 49.6183 130.625 48.1608 130.528C46.6304 130.418 43.6789 129.119 42.7315 128.681L46.436 108.07L55.3632 108.932ZM55.8248 133.54C55.7884 133.953 55.7276 134.584 55.679 135.362C55.5333 137.171 55.1811 141.775 54.7681 143.05C53.6143 143.317 49.3996 143.269 44.687 142.321C40.5939 141.495 37.5575 138.58 36.4643 137.39C37.8125 132.884 41.9421 113.973 43.2903 107.778L45.5494 107.997L41.7964 128.864C41.7599 129.058 41.8571 129.24 42.0393 129.325C42.2093 129.398 46.096 131.244 48.0757 131.39C48.2336 131.402 48.3916 131.402 48.5495 131.402C50.3956 131.402 52.2418 130.722 52.3268 130.685C52.4725 130.637 52.5697 130.503 52.594 130.357L56.2014 109.029L59.6993 109.369C58.8734 114.446 56.007 131.803 55.8248 133.54Z" fill="white"/>
<path d="M38.992 27.1946C39.1742 27.2796 39.3564 27.316 39.5386 27.316C39.5507 27.316 39.5629 27.316 39.5872 27.3039C39.6115 27.3039 39.6237 27.316 39.6479 27.316L45.0893 27.2796C45.2593 27.2796 45.4051 27.1824 45.478 27.0245L51.7088 13.5305C51.7574 13.4212 51.7573 13.2997 51.7209 13.1904C51.6844 13.081 51.5995 12.996 51.4902 12.9474L20.9918 0.0364139C20.9311 0.0121221 20.8461 0 20.7853 0L14.2388 0.631549C14.1538 0.643695 14.093 0.680156 14.0323 0.716594C13.9594 0.740886 13.8866 0.740886 13.8137 0.777323L10.5828 2.4899C10.352 2.61136 10.1577 2.80569 10.0362 3.03647L6.28325 10.3726C6.12535 10.6883 6.10099 11.0527 6.2103 11.3806C6.31961 11.7086 6.5626 11.988 6.89054 12.1337L18.4655 17.5508C15.8663 23.5994 11.8217 32.8788 11.2387 33.7412C10.3156 34.895 5.06861 46.6037 4.71638 47.6725C4.46132 48.3405 1.71633 53.3325 -0.10555 56.6361C-2.55901 61.0815 -2.9719 61.8588 -3.06907 62.1503C-3.09336 62.2354 -3.16628 62.3811 -3.23916 62.5754C-4.04079 64.4702 -4.63588 66.1342 -3.79782 67.2273C-3.59134 67.5067 -3.02048 68.2718 5.67595 71.612C5.8217 71.6727 5.97957 71.697 6.13747 71.697C6.16176 71.697 6.19822 71.6848 6.22252 71.6848H6.23461C6.24676 71.6848 6.25895 71.6848 6.28325 71.6848L11.6517 71.1261C11.8096 71.114 11.9432 71.0047 12.0039 70.8589L31.2673 23.5387L38.992 27.1946ZM20.7489 0.898782L50.7371 13.5912L44.8099 26.4293L40.7775 26.4537L46.4131 15.4252C46.571 15.1095 46.5953 14.7329 46.4738 14.3928C46.3524 14.0528 46.0852 13.7855 45.7573 13.6519L16.2793 1.33604L20.7489 0.898782ZM9.18603 10.3968L12.1497 4.61543L14.4817 3.37653L43.4739 15.486L38.9556 24.316L9.18603 10.3968ZM5.54228 68.8306C2.55439 67.6524 -0.603459 66.3164 -1.61157 65.7455C-1.55084 65.3447 -1.29582 64.6281 -0.870715 63.6078C-0.761403 63.3406 -0.676405 63.1342 -0.652114 63.0734C-0.494217 62.7212 0.914773 60.1706 2.15365 57.9114C5.50591 51.8385 6.93915 49.1907 7.15777 48.5348C7.58288 47.2716 12.5869 36.304 13.2428 35.393C13.9837 34.4699 18.5505 23.903 20.7853 18.6925L25.8745 21.0731L15.8542 44.0895L8.4695 63.535L5.54228 68.8306ZM11.2874 70.3366L7.4371 70.7375L10.7772 64.701C10.8015 64.6524 10.8379 64.5917 10.85 64.5309L18.2469 45.049L28.2186 22.154L30.4656 23.2107L11.2874 70.3366Z" fill="white"/>
<path d="M121.208 147.388L120.467 147.158C119.933 146.988 119.338 147.182 119.01 147.656L116.823 150.801C116.301 150.583 115.694 150.716 115.329 151.166C113.252 153.704 112.038 155.356 111.406 156.522L93.0053 171.182C92.5802 171.522 92.4344 172.069 92.568 172.555L90.6612 173.927C90.4669 174.061 90.4182 174.34 90.564 174.522C90.649 174.644 90.7826 174.704 90.9162 174.704C91.0012 174.704 91.0863 174.68 91.1713 174.619L93.1025 173.223C93.3211 173.368 93.564 173.478 93.8191 173.478C94.0985 173.478 94.3899 173.38 94.6207 173.198L111.528 159.729C111.819 160.081 112.196 160.384 112.621 160.591C112.997 160.773 113.398 160.858 113.799 160.882L110.313 181.093C110.216 181.64 110.495 182.162 110.945 182.417L110.69 183.838C110.641 184.069 110.799 184.3 111.03 184.336C111.054 184.336 111.078 184.348 111.103 184.348C111.309 184.348 111.491 184.202 111.528 183.996L111.795 182.575C112.317 182.49 112.767 182.089 112.864 181.543L116.702 159.316C117.406 158.465 117.868 157.567 117.868 157.567C117.989 157.36 119.082 155.66 120.042 154.166C120.236 153.862 120.297 153.498 120.212 153.158C120.151 152.903 119.993 152.696 119.799 152.526L121.888 149.368C122.107 149.028 122.168 148.603 122.034 148.226C121.9 147.801 121.597 147.51 121.208 147.388ZM115.584 156.328C115.257 156.959 114.418 158.113 114.054 158.271C114.018 158.283 113.896 158.332 113.726 158.247C113.641 158.21 113.556 158.137 113.495 158.065C113.508 158.04 113.52 158.004 113.532 157.98C113.544 157.967 113.544 157.943 113.556 157.931C113.884 157.214 114.916 155.769 116.641 153.619L117.115 153.886C115.694 156.109 115.621 156.267 115.584 156.328Z" fill="white"/>
<path d="M146.643 88.1914C148.15 84.2926 151.32 82.6286 153.87 81.2804C154.951 80.7096 155.971 80.1751 156.725 79.5435C158.024 78.4382 161.34 75.7298 164.559 73.8107C165.166 74.4423 165.834 75.0131 166.38 75.1468C167.607 75.4504 205.903 80.1994 207.531 80.4059C207.543 80.4059 207.567 80.4059 207.579 80.4059C207.652 80.4059 207.713 80.3938 207.774 80.3573C208.94 79.7622 236.401 65.758 238.284 64.4098C240.154 63.0738 255.507 51.4016 255.665 51.2801C255.786 51.1951 255.847 51.0493 255.835 50.8914L255.203 44.3205C255.215 44.1869 255.215 44.0412 255.191 43.8954C255.082 43.3853 254.681 42.9845 254.159 42.8995L222.677 37.0452L208.308 13.968C207.98 13.4458 207.324 13.2272 206.741 13.4458L148.174 36.4743C147.955 36.5594 147.785 36.7173 147.639 36.8994C144.603 40.6161 142.198 45.0736 142.174 45.1222C142.089 45.2679 142.113 45.4622 142.21 45.5958L162.797 71.6487C162.895 71.7945 163.368 72.4504 163.976 73.1548C160.903 75.001 157.805 77.503 156.178 78.8877C155.51 79.4585 154.563 79.9565 153.482 80.5152C150.797 81.9241 147.469 83.6731 145.842 87.8756C144.445 91.5072 139.295 95.6125 133.866 99.0255L135.36 99.0376C140.534 95.6611 145.283 91.7137 146.643 88.1914ZM250.624 44.8914C245.462 48.438 234.069 56.2599 231.434 57.8875C228.251 59.8551 207.458 70.2763 204.543 71.7459C196.818 70.9078 177.53 68.673 175.028 67.8471C174.093 67.5313 172.891 66.6932 171.652 65.6365C178.138 61.8713 202.697 47.6121 204.518 46.4704C207.518 44.5878 219.847 40.3003 221.972 39.5715L250.624 44.8914ZM206.68 16.2515L219.932 37.531C216.057 38.8792 206.037 42.4622 203.158 44.2598C201.324 45.4137 174.785 60.8268 169.684 63.7782C168.214 62.3207 166.878 60.8025 166.089 59.7822C164.972 58.3247 153.992 42.9602 150.652 38.2841L206.68 16.2515ZM163.478 71.1386L143.06 45.2801C143.546 44.3934 145.332 41.2962 147.567 38.3812C147.579 38.3934 147.579 38.4176 147.591 38.4298C148.21 39.2921 162.7 59.6001 164.048 61.3612C164.692 62.1993 166.478 64.3126 168.567 66.3045C168.579 66.3167 168.591 66.3289 168.603 66.341C170.437 68.0779 172.502 69.7176 174.215 70.2884C177.482 71.3815 201.871 74.0536 204.64 74.3451C204.689 74.3451 204.737 74.3573 204.786 74.3573C204.992 74.3573 205.186 74.3087 205.369 74.2237C206.34 73.7378 229.296 62.2478 232.794 60.0859C236.122 58.0332 252.312 46.8712 254.438 45.4016L254.96 50.7578C253.175 52.1182 239.535 62.4786 237.786 63.7296C236.013 64.9928 209.498 78.5354 207.494 79.5557C193.672 77.8431 167.51 74.5637 166.575 74.333C166.247 74.2479 165.797 73.8714 165.312 73.3856C166.854 72.5354 168.336 71.9038 169.514 71.7823C169.745 71.758 169.927 71.5516 169.903 71.3087C169.878 71.0779 169.672 70.9078 169.429 70.92C168.081 71.0657 166.417 71.7702 164.716 72.7297C164.255 72.1832 163.806 71.6123 163.478 71.1386Z" fill="white"/>
<path d="M190.344 59.3935L185.401 62.1263C184.781 62.4664 184.551 63.2558 184.891 63.8753C185.122 64.3004 185.571 64.5433 186.02 64.5433C186.227 64.5433 186.445 64.4947 186.64 64.3854L191.583 61.6526C192.203 61.3125 192.433 60.5231 192.093 59.9036C191.753 59.2842 190.964 59.0534 190.344 59.3935Z" fill="white"/>
<path d="M196.417 58.288C196.636 58.288 196.855 58.2272 197.061 58.1179L200.899 55.8953C201.518 55.543 201.725 54.7535 201.373 54.1341C201.021 53.5147 200.219 53.3082 199.612 53.6604L195.774 55.8831C195.154 56.2353 194.948 57.0248 195.3 57.6443C195.543 58.0572 195.968 58.288 196.417 58.288Z" fill="white"/>
<path d="M206.511 52.7375C206.729 52.7375 206.948 52.689 207.142 52.5675L210.883 50.442C211.503 50.0897 211.721 49.3003 211.369 48.6808C211.017 48.0614 210.227 47.8428 209.608 48.195L205.867 50.3205C205.247 50.6727 205.029 51.4622 205.381 52.0817C205.624 52.4946 206.061 52.7375 206.511 52.7375Z" fill="white"/>
<path d="M216.215 47.8916C216.422 47.8916 216.64 47.843 216.834 47.7337L221.474 45.2074C222.106 44.8673 222.337 44.0778 221.996 43.4584C221.656 42.8268 220.867 42.596 220.247 42.9361L215.608 45.4624C214.976 45.8025 214.745 46.592 215.085 47.2114C215.304 47.6365 215.753 47.8916 216.215 47.8916Z" fill="white"/>
<path d="M196.879 60.7902L192.919 63.2073C192.312 63.5716 192.118 64.3733 192.494 64.9806C192.737 65.3814 193.162 65.6 193.6 65.6C193.83 65.6 194.061 65.5393 194.268 65.4057L198.227 62.9887C198.834 62.6243 199.029 61.8226 198.652 61.2154C198.276 60.6081 197.486 60.4137 196.879 60.7902Z" fill="white"/>
<path d="M206.061 55.3853L202.49 57.5108C201.883 57.8752 201.676 58.6647 202.041 59.2841C202.284 59.6849 202.709 59.9157 203.158 59.9157C203.377 59.9157 203.608 59.855 203.814 59.7336L207.385 57.608C207.992 57.2436 208.199 56.4542 207.834 55.8347C207.458 55.2153 206.668 55.0209 206.061 55.3853Z" fill="white"/>
<path d="M211.138 54.9846C211.369 55.4097 211.818 55.6648 212.268 55.6648C212.474 55.6648 212.693 55.6162 212.887 55.5069L217.527 52.9806C218.159 52.6405 218.389 51.851 218.049 51.2316C217.709 50.6 216.92 50.3692 216.3 50.7093L211.66 53.2356C211.029 53.5757 210.798 54.3652 211.138 54.9846Z" fill="white"/>
<path d="M221.244 49.2395C221.474 49.6646 221.924 49.8955 222.373 49.8955C222.592 49.8955 222.798 49.8468 223.005 49.7254L227.341 47.2962C227.96 46.944 228.191 46.1666 227.839 45.535C227.487 44.9035 226.709 44.6849 226.078 45.0371L221.742 47.4663C221.122 47.8307 220.891 48.6201 221.244 49.2395Z" fill="white"/>
<path d="M204.239 62.5635L200.267 65.0898C199.66 65.4785 199.49 66.268 199.866 66.8753C200.109 67.264 200.534 67.4704 200.96 67.4704C201.203 67.4704 201.433 67.4097 201.652 67.264L205.624 64.7376C206.231 64.3489 206.401 63.5595 206.024 62.9522C205.636 62.3692 204.834 62.187 204.239 62.5635Z" fill="white"/>
<path d="M212.049 58.1909L209.122 59.8063C208.502 60.1464 208.271 60.9359 208.611 61.5553C208.842 61.9804 209.292 62.2233 209.741 62.2233C209.948 62.2233 210.166 62.1747 210.361 62.0654L213.288 60.45C213.907 60.11 214.138 59.3205 213.798 58.701C213.458 58.0695 212.668 57.8387 212.049 58.1909Z" fill="white"/>
<path d="M223.988 51.9358L220.004 53.8062C219.361 54.1099 219.081 54.8751 219.385 55.5188C219.604 55.9925 220.065 56.2597 220.551 56.2597C220.733 56.2597 220.915 56.2233 221.098 56.1383L225.081 54.2678C225.725 53.9642 226.004 53.199 225.701 52.5552C225.409 51.9115 224.644 51.6321 223.988 51.9358Z" fill="white"/>
<path d="M230.243 51.013C230.474 51.013 230.717 50.9523 230.924 50.8187L233.353 49.3005C233.96 48.9239 234.142 48.1224 233.766 47.5272C233.389 46.9199 232.588 46.7377 231.992 47.1142L229.563 48.6324C228.956 49.009 228.774 49.8106 229.15 50.4057C229.393 50.7944 229.818 51.013 230.243 51.013Z" fill="white"/>
<path d="M359.795 137.845L326.115 122.967C325.896 122.87 325.653 122.967 325.556 123.185L325.192 123.987C323.321 123.319 314.746 121.023 312.172 124.643C312.099 124.74 312.05 124.849 311.977 124.946L308.03 122.979C307.933 122.93 307.811 122.918 307.702 122.955C307.629 122.979 307.568 123.052 307.52 123.112L297.305 118.461C296.649 118.169 295.896 118.448 295.592 119.104C295.301 119.748 295.58 120.525 296.236 120.817L306.451 125.469C306.487 125.578 306.56 125.675 306.669 125.736L310.799 127.789C310.52 129.076 310.532 130.424 310.872 131.687C311.443 133.801 313.18 136.777 318.184 139.121L317.929 139.655C317.832 139.862 317.916 140.117 318.123 140.214L329.662 146.214C329.467 146.675 329.139 147.453 328.969 148.145L328.908 148.4C328.617 149.493 328.022 151.716 330.512 153.113C329.601 155.117 328.07 158.445 327.402 159.501C326.079 161.603 324.9 161.797 324.852 161.797L322.143 162.404C322.058 162.416 321.985 162.465 321.925 162.526C321.779 162.672 318.402 166.194 320.103 168.283C321.56 170.08 331.435 174.987 334.107 174.987C334.228 174.987 334.326 174.975 334.411 174.963C336.694 174.465 344.479 156.623 344.54 156.441C344.722 155.931 344.856 155.396 344.99 154.935C345.208 154.097 345.451 153.21 345.743 153.283C346.059 153.343 346.884 153.708 347.674 154.06C349.921 155.056 351.439 155.688 352.131 155.372C353.091 154.935 356.431 151.497 358.314 148.145C360.172 144.854 360.05 138.513 360.038 138.234C360.05 138.064 359.941 137.918 359.795 137.845ZM308.066 125.457C308.236 125.335 308.382 125.165 308.479 124.959C308.588 124.704 308.601 124.436 308.552 124.181L311.54 125.675C311.333 126.076 311.163 126.489 311.018 126.914L308.066 125.457ZM311.698 131.457C311.127 129.331 311.564 126.975 312.864 125.141C314.953 122.201 322.884 124.06 324.828 124.764L318.548 138.331C314.807 136.582 312.439 134.214 311.698 131.457ZM329.734 148.619L329.807 148.352C329.953 147.756 330.245 147.04 330.427 146.615L332.504 147.696L331.216 151.546C331.216 151.558 331.083 151.85 330.876 152.311C329.054 151.23 329.443 149.675 329.734 148.619ZM334.228 174.113C332.674 174.441 322.216 169.51 320.771 167.736C319.799 166.534 321.585 164.141 322.459 163.206L324.876 162.659L337.459 169.206C336.026 171.878 334.763 173.943 334.228 174.113ZM358.945 142.679L352.411 139.643C352.192 139.546 351.937 139.643 351.84 139.849C351.743 140.068 351.828 140.323 352.046 140.42L358.824 143.566C358.69 144.416 358.508 145.266 358.265 146.056L351.403 142.922C351.184 142.825 350.929 142.922 350.832 143.129C350.735 143.347 350.832 143.603 351.038 143.7L357.973 146.858C357.852 147.161 357.718 147.441 357.573 147.708C357.306 148.169 357.014 148.643 356.71 149.092L349.969 146.238C349.751 146.141 349.496 146.25 349.411 146.469C349.313 146.688 349.423 146.943 349.641 147.028L356.212 149.809C355.799 150.38 355.362 150.939 354.925 151.461L348.901 148.91C348.682 148.813 348.427 148.922 348.342 149.141C348.245 149.36 348.354 149.615 348.573 149.7L354.354 152.141C353.2 153.441 352.18 154.388 351.803 154.558C351.342 154.716 349.131 153.72 348.05 153.246C347.091 152.821 346.338 152.493 345.937 152.408C344.82 152.202 344.492 153.453 344.176 154.68C344.054 155.153 343.921 155.639 343.763 156.113C343.35 157.242 340.435 163.582 337.896 168.429L325.993 162.234C326.576 161.882 327.354 161.226 328.168 159.927C328.909 158.761 330.597 155.044 331.483 153.076C331.483 153.076 331.483 153.076 331.483 153.064C331.787 152.372 332.006 151.898 332.042 151.825L333.451 147.586C333.524 147.38 333.427 147.161 333.245 147.064L330.427 145.594L318.912 139.607L326.176 123.89L359.212 138.489C359.188 139.157 359.164 140.833 358.945 142.679Z" fill="white"/>
<path d="M225.043 122.784L239.047 128.639C239.096 128.663 239.157 128.675 239.217 128.675C239.278 128.675 239.351 128.663 239.412 128.626L251.8 122.529C251.946 122.456 252.043 122.311 252.043 122.141C252.043 121.97 251.946 121.825 251.8 121.752C251.339 121.533 240.553 116.371 237.76 115.558C234.735 114.647 225.954 121.29 224.97 122.043C224.849 122.141 224.788 122.286 224.8 122.444C224.8 122.59 224.897 122.724 225.043 122.784ZM237.493 116.383C239.788 117.064 247.999 120.914 250.61 122.153L244.197 125.311L230.193 119.456C233.047 117.647 236.181 115.995 237.493 116.383ZM229.306 120.015L243.165 125.809L239.193 127.764L226.063 122.274C226.926 121.643 228.067 120.829 229.306 120.015Z" fill="white"/>
<path d="M226.355 170.688C221.521 173.153 218.679 174.076 215.934 174.963C215.217 175.194 214.501 175.425 213.76 175.68C206.946 178.024 190.561 178.218 177.941 174.732C162.115 170.36 154.889 160.898 153.516 154.133C152.97 151.461 153.686 147.076 155.484 142.108C155.727 141.44 155.374 140.699 154.706 140.457C154.038 140.214 153.298 140.566 153.055 141.234C152.192 143.627 150.966 147.598 150.783 151.23C150.346 154.728 150.443 158.578 151.087 161.748C152.642 169.352 160.184 179.093 176.739 183.672C183.577 185.566 191.521 186.392 198.529 186.392C204.76 186.392 210.262 185.736 213.577 184.595C214.306 184.34 214.999 184.121 215.715 183.89C218.533 182.979 221.436 182.044 226.391 179.506C226.598 179.396 226.683 179.141 226.574 178.922C226.464 178.716 226.209 178.631 225.991 178.74C221.096 181.242 218.217 182.178 215.436 183.076C214.719 183.307 214.015 183.538 213.286 183.793C206.351 186.186 189.735 186.392 176.958 182.858C166.84 180.064 154.196 172.813 151.913 161.59C151.573 159.951 151.403 158.104 151.366 156.234C153.625 163.801 161.423 172.862 177.237 177.234C184.136 179.141 192.152 179.979 199.245 179.979C205.598 179.979 211.197 179.311 214.586 178.145C215.302 177.902 216.007 177.671 216.711 177.441C219.553 176.518 222.505 175.57 227.509 173.007C228.14 172.68 228.395 171.902 228.067 171.271C227.764 170.615 226.986 170.36 226.355 170.688Z" fill="white"/>
<path d="M269.461 48.3305C261.396 53.2374 253.768 57.8649 257.934 67.7274C258.906 70.023 262.841 73.3874 267.007 76.934C271.149 80.4684 275.424 84.1122 276.651 86.6385L269.971 88.9705C269.971 88.9705 269.971 88.9705 269.959 88.9705C269.886 88.9948 269.837 89.0434 269.789 89.0919C269.776 89.1041 269.764 89.1163 269.764 89.1284C269.728 89.177 269.716 89.2256 269.703 89.2863C269.703 89.2984 269.691 89.3106 269.691 89.3228C269.691 89.3349 269.691 89.3349 269.691 89.347C269.691 89.3592 269.679 89.3713 269.679 89.3835V90.5494C267.833 91.3389 262.489 93.4645 250.549 97.339C249.966 97.5334 249.639 98.0921 249.687 98.6751L248.655 98.4078C247.938 98.2257 247.185 98.2257 246.468 98.4322L213.99 107.651C213.942 107.663 213.918 107.687 213.881 107.712C210.019 105.744 206.339 103.849 204.031 102.647C201.529 101.347 199.877 100.497 199.452 100.303C194.229 97.8613 186.784 99.8532 181.549 102.55C176.666 105.064 172.719 110.408 172.488 110.736C169.524 114.38 168.407 116.76 166.585 121.995C166.537 122.129 166.5 122.262 166.452 122.384C151.099 115.266 134.168 106.874 124.184 101.444C115.925 96.9503 87.1148 82.9826 86.8233 82.8368C86.6654 82.7639 86.4832 82.7882 86.3496 82.8976L78.6613 89.6264C78.6491 89.6385 78.6491 89.6385 78.6491 89.6507C78.6127 89.6871 78.5884 89.7235 78.5641 89.7721C78.5519 89.7843 78.5519 89.7964 78.5398 89.8086C78.5155 89.8693 78.5034 89.9301 78.5155 89.9908L79.7422 101.08C79.7544 101.214 79.8394 101.311 79.9487 101.384C79.9851 101.444 80.0459 101.505 80.1188 101.541C80.4103 101.687 109.196 115.643 117.443 120.125C127.621 125.663 149.957 137.141 165.771 144.477L165.48 144.939C165.383 145.084 165.395 145.279 165.492 145.424C165.601 145.57 165.784 145.631 165.954 145.582L167.982 145.048C168.03 145.461 168.091 145.874 168.152 146.287L167.12 149.603C167.071 149.773 167.132 149.967 167.277 150.076C167.423 150.186 167.63 150.186 167.775 150.088L168.905 149.323C168.99 149.566 169.075 149.797 169.172 150.04L168.686 153.198C168.662 153.38 168.747 153.562 168.917 153.647C169.087 153.732 169.282 153.696 169.415 153.562L170.46 152.505L170.52 152.603C170.545 152.639 170.569 152.688 170.593 152.724L170.241 156.854C170.229 157.048 170.338 157.218 170.508 157.291C170.678 157.364 170.885 157.303 171.006 157.157L172.367 155.445C172.415 155.518 172.476 155.591 172.524 155.676V159.574C172.524 159.769 172.646 159.927 172.828 159.987C172.998 160.036 173.205 159.975 173.314 159.805L174.419 158.129C174.541 158.263 174.662 158.396 174.784 158.518L175.5 162.295C175.537 162.489 175.695 162.623 175.889 162.647C176.083 162.672 176.265 162.55 176.326 162.368L177.043 160.498C177.164 160.583 177.286 160.667 177.407 160.753L178.852 164.36C178.925 164.53 179.095 164.651 179.265 164.627C179.448 164.627 179.606 164.506 179.666 164.336L180.334 162.307C180.395 162.332 180.456 162.356 180.516 162.38L182.035 165.878C182.108 166.048 182.253 166.182 182.448 166.133C182.63 166.121 182.776 166 182.836 165.83L183.626 163.352C183.735 163.376 183.857 163.4 183.966 163.413L186.589 166.68C186.674 166.777 186.796 166.838 186.929 166.838C186.966 166.838 187.002 166.838 187.039 166.825C187.209 166.777 187.33 166.643 187.355 166.473L187.84 163.327C187.925 163.315 188.01 163.303 188.095 163.291L190.707 165.805C190.828 165.927 191.01 165.951 191.168 165.89C191.326 165.817 191.436 165.672 191.436 165.489V162.295C191.593 162.234 191.751 162.174 191.897 162.113L195.128 164.129C195.274 164.214 195.456 164.214 195.602 164.117C195.747 164.02 195.808 163.85 195.772 163.68L195.116 160.595C195.152 160.57 195.201 160.558 195.237 160.534C195.249 160.534 195.249 160.522 195.262 160.522L198.772 162.562C198.917 162.647 199.1 162.635 199.245 162.538C199.379 162.441 199.452 162.259 199.415 162.101L198.504 158.044C200.8 159.04 203.278 160.121 205.816 161.226C214.16 164.87 223.622 168.987 229.112 171.271C254.145 181.692 329.983 209.142 333.834 210.538L333.846 210.623C333.87 210.769 333.967 210.903 334.101 210.964C334.149 210.988 334.21 211 334.271 211C334.356 211 334.453 210.976 334.526 210.915L341.935 205.534C342.056 205.449 342.129 205.304 342.105 205.146L340.89 192.222C340.89 192.21 340.89 192.21 340.878 192.21C340.878 192.198 340.878 192.198 340.878 192.186C340.866 192.15 340.842 192.113 340.83 192.077C340.818 192.052 340.805 192.016 340.793 191.992C340.757 191.955 340.72 191.931 340.684 191.907C340.66 191.895 340.647 191.87 340.623 191.858C340.623 191.858 340.623 191.858 340.611 191.858C339.894 191.603 275.861 168.441 244.622 156.113C244.744 155.991 244.853 155.846 244.914 155.663C247.124 149.554 245.266 143.882 243.08 140.287L257.133 131.991C257.218 131.943 259.331 130.837 260.57 129.829C262.902 127.934 264.056 125.554 263.837 123.137C263.716 121.886 263.181 120.27 261.639 118.509C272.704 114.076 277.416 104.201 277.453 104.104C277.55 103.886 277.465 103.631 277.246 103.533C277.027 103.436 276.772 103.533 276.675 103.74C276.627 103.837 271.987 113.602 261.007 117.841C259.975 116.821 258.602 115.776 256.768 114.72L262.914 111.853C263.023 111.805 263.108 111.708 263.145 111.598C263.181 111.501 263.631 110.129 263.752 108.525C263.934 108.622 264.153 108.695 264.359 108.695C264.529 108.695 264.699 108.659 264.869 108.586L279.117 102.44L281.74 104.262C281.813 104.311 281.898 104.335 281.983 104.335C282.032 104.335 282.08 104.323 282.141 104.311L291.87 100.582C292.028 100.521 292.149 100.363 292.149 100.181L292.246 93.5859C292.246 93.5738 292.234 93.5616 292.234 93.5373C292.246 93.0637 292.028 92.6264 291.615 92.3713L281.509 85.9219C280.866 85.509 280.088 85.4239 279.372 85.679L277.489 86.3349C276.214 83.6142 271.841 79.8854 267.59 76.2538C263.679 72.9258 259.647 69.4764 258.76 67.363C254.886 58.1807 261.857 53.9418 269.946 49.0349C275.376 45.7312 280.987 42.3304 283.465 37.0469C286.975 29.5408 292.246 23.2007 296.995 18.4517C296.582 18.4638 296.169 18.4759 295.756 18.4881C291.129 23.225 286.088 29.395 282.675 36.6947C280.283 41.7474 274.78 45.0997 269.461 48.3305ZM270.967 92.7964L271.878 93.3673L257.655 98.7479C257.108 98.9544 256.805 99.501 256.841 100.06C256.805 100.048 256.78 100.035 256.744 100.035H254.873L252.493 99.4159C264.274 95.5657 269.315 93.5252 270.967 92.7964ZM246.699 99.2459C247.27 99.088 247.865 99.0758 248.424 99.2337L253.307 100.509L220.804 111.185C218.946 110.262 216.954 109.254 214.974 108.258L246.699 99.2459ZM86.6897 83.7113C89.5804 85.1203 115.925 97.9099 123.759 102.173C133.779 107.627 150.783 116.056 166.172 123.185C164.897 127.376 164.678 131.141 164.666 131.323C164.654 131.615 164.739 131.882 164.885 132.113C148.208 124.351 126.832 113.772 116.471 108.137C108.868 103.995 83.8475 91.8369 79.6937 89.8207L86.6897 83.7113ZM166.779 144.441L167.812 142.801C167.824 143.25 167.86 143.7 167.897 144.149L166.779 144.441ZM167.824 139.473H167.071C167.35 138.939 167.63 138.404 167.909 137.918C167.873 138.428 167.848 138.951 167.824 139.473ZM168.067 136.011C167.277 137.165 166.33 139.011 165.99 139.704C165.929 139.837 165.929 139.995 166.014 140.117C166.087 140.238 166.233 140.323 166.379 140.323H167.8C167.788 140.615 167.788 140.918 167.788 141.222L166.221 143.712C150.419 136.388 128.034 124.874 117.844 119.335C109.779 114.95 82.1835 101.554 80.5681 100.776L79.4507 90.6466C83.8961 92.8086 108.54 104.797 116.071 108.89C127.184 114.938 151.002 126.683 168.079 134.53C168.128 134.554 168.164 134.554 168.213 134.554C168.164 135.028 168.116 135.513 168.067 136.011ZM168.31 148.655L168.516 147.999C168.553 148.145 168.601 148.291 168.638 148.437L168.31 148.655ZM167.326 130.534C167.484 129.04 167.921 125.918 169.002 122.809C170.751 117.793 171.747 115.691 174.504 112.291C174.516 112.278 174.516 112.266 174.516 112.254C174.529 112.242 174.541 112.242 174.541 112.23C174.577 112.181 178.33 107.068 182.703 104.809C187.172 102.513 193.95 100.558 198.322 102.61C198.699 102.793 200.521 103.728 202.816 104.918C228.602 118.242 229.173 118.036 230.047 117.756C230.557 117.586 231.225 117.222 232.063 116.748C233.424 115.995 235.464 114.865 236.703 114.793C238.719 114.817 253.695 121.934 255.104 123.525C255.128 123.817 254.4 124.679 253.525 125.262C251.825 126.052 240.359 131.347 238.477 132.647C237.638 133.218 235.416 132.489 234.104 131.785C232.294 130.934 189.674 110.942 185.521 109.193C185.46 109.169 185.399 109.169 185.35 109.157C185.265 109.133 185.168 109.108 185.083 109.108C184.998 109.108 184.925 109.12 184.853 109.133C184.768 109.145 184.682 109.157 184.61 109.181C184.525 109.206 184.452 109.254 184.367 109.303C184.318 109.339 184.257 109.351 184.209 109.388C184.039 109.521 180.128 112.764 177.565 116.578C175.172 120.125 172.282 128.044 171.529 132.198L167.326 130.534ZM213.954 125.202C218.691 127.412 223.124 129.489 226.525 131.08L223.367 132.125C222.408 132.04 218.788 131.7 214.003 130.971C214.124 130.218 214.197 129.574 214.185 129.088C214.185 128.736 214.197 128.493 214.221 128.25C214.282 127.461 214.282 126.768 213.954 125.202ZM213.007 135.295L214.185 135.744L212.606 136.679C212.752 136.218 212.885 135.744 213.007 135.295ZM190.391 125.955C190.342 125.967 190.294 125.979 190.233 125.991C187.658 126.72 186.225 129.999 186.019 132.829L174.067 132.647C174.747 128.833 177.504 121.278 179.703 118.023C181.5 115.363 184.099 112.922 185.253 111.902C188.666 113.42 200.168 118.764 211.039 123.841C211.039 123.951 211.027 124.06 211.051 124.169C211.136 124.473 211.197 124.752 211.258 125.007L197.509 132.27C197.387 130.4 196.95 128.445 195.602 127.327C193.428 125.517 190.512 125.93 190.391 125.955ZM194.982 134.882L194.97 135.574C194.97 136.898 194.156 138.404 192.359 138.598C190.658 138.793 189.189 136.667 188.691 134.578C188.18 132.453 189.432 129.003 190.865 128.493C191.229 128.457 192.844 128.372 193.974 129.295C195.043 130.194 194.994 133.364 194.982 134.882ZM169.731 151.983L169.816 151.412C169.877 151.51 169.937 151.619 169.986 151.716L169.731 151.983ZM171.213 155.481L171.346 153.89C171.516 154.157 171.686 154.412 171.856 154.667L171.213 155.481ZM173.375 158.105V156.842C173.52 157.036 173.678 157.23 173.824 157.412L173.375 158.105ZM176.059 160.631L175.852 159.55C175.998 159.684 176.156 159.817 176.326 159.939L176.059 160.631ZM179.205 162.939L178.622 161.481C178.913 161.639 179.217 161.797 179.545 161.943L179.205 162.939ZM182.363 164.481L181.634 162.805C181.78 162.854 181.913 162.902 182.059 162.963C182.302 163.048 182.545 163.109 182.788 163.17L182.363 164.481ZM186.65 165.38L185.156 163.522C185.326 163.534 185.484 163.546 185.654 163.546C186.091 163.546 186.517 163.522 186.954 163.473L186.65 165.38ZM190.573 164.493L189.104 163.072C189.602 162.939 190.1 162.805 190.573 162.635V164.493ZM192.857 161.712C193.367 161.481 193.865 161.238 194.326 161.008L194.727 162.878L192.857 161.712ZM194.059 158.251C191.059 159.781 186.954 161.894 182.873 160.51C177.456 158.688 175.962 156.331 172.67 151.182L172.464 150.866C169.622 146.408 170.302 139.364 170.775 134.675L171.856 135.101C172.002 135.161 172.16 135.185 172.318 135.185L186.225 135.392C186.99 138.283 189.104 141.173 192.116 141.173C192.286 141.173 192.456 141.161 192.626 141.149C195.857 140.809 197.557 138.076 197.557 135.562V134.906C197.569 134.384 197.569 133.801 197.557 133.194L211.452 125.845C211.707 127.096 211.683 127.534 211.646 128.044C211.622 128.347 211.598 128.675 211.61 129.125C211.634 130.631 210.48 135.222 208.974 139.594C208.828 139.995 208.926 140.42 209.156 140.736C207.262 139.898 205.549 139.145 204.128 138.526C204.092 138.513 204.043 138.501 203.994 138.501C203.982 138.501 203.982 138.501 203.97 138.501C203.861 138.501 203.764 138.538 203.679 138.598H203.666L203.654 138.611L195.99 145.315C195.881 145.412 195.832 145.546 195.845 145.692L197.302 157.024C197.071 156.963 196.828 156.951 196.585 157.036C195.869 157.327 195.031 157.753 194.059 158.251ZM211.841 139.182L213.274 139.789L211.501 140.214C211.61 139.874 211.731 139.534 211.841 139.182ZM196.185 160.072C196.67 159.829 197.096 159.635 197.448 159.514C197.618 159.453 197.764 159.368 197.885 159.246L198.347 161.336L196.185 160.072ZM229.44 170.481C223.95 168.198 214.501 164.081 206.156 160.437C203.363 159.222 200.654 158.044 198.177 156.963L196.901 147.064C203.994 150.101 222.59 157.923 227.752 160.072C252.614 170.421 327.566 197.567 332.376 199.304L333.7 209.579C326.51 206.98 253.829 180.623 229.44 170.481ZM341.218 204.988L334.599 209.798L333.226 199.158L338.813 194.263L340.101 193.133L341.218 204.988ZM339.615 192.417L332.668 198.49C327.846 196.741 252.918 169.607 228.067 159.271C222.784 157.072 203.46 148.947 196.755 146.068L196.731 145.837L204.043 139.449C207.711 141.04 213.262 143.518 218.63 145.922C225.25 148.886 232.1 151.959 235.428 153.344C259.72 163.449 331.793 189.587 339.615 192.417ZM242.472 154.789C242.424 154.935 242.4 155.093 242.4 155.25C241.525 154.898 240.675 154.57 239.873 154.242C240.019 154.121 240.14 153.975 240.225 153.793C240.517 153.149 240.238 152.372 239.582 152.08L217.003 141.781C216.347 141.489 215.582 141.769 215.29 142.424C215.12 142.789 215.156 143.177 215.314 143.518C213.65 142.777 212.011 142.048 210.468 141.356L214.731 140.335C214.914 140.287 215.047 140.141 215.059 139.947C215.071 139.752 214.974 139.582 214.804 139.509L212.108 138.368C212.156 138.21 212.205 138.064 212.254 137.906L215.399 136.036C215.545 135.951 215.618 135.793 215.606 135.635C215.594 135.477 215.484 135.331 215.326 135.271L213.225 134.469V134.457L214.756 133.971C214.877 133.934 214.962 133.849 215.011 133.752C219.954 134.469 223.367 134.736 223.416 134.736C223.452 134.736 223.476 134.736 223.513 134.736C223.646 134.736 223.792 134.712 223.914 134.675L228.153 133.266C228.614 133.109 228.918 132.72 229.003 132.258C229.646 132.562 230.229 132.829 230.727 133.072C230.825 133.181 230.946 133.279 231.08 133.352C231.128 133.376 235.513 135.586 239.072 139.279C241.719 141.999 244.792 148.388 242.472 154.789ZM262.95 123.21C263.145 125.335 262.1 127.449 259.999 129.161C258.833 130.109 256.732 131.214 256.683 131.238L242.594 139.558C242.035 138.72 241.464 138.016 240.954 137.481C240.189 136.692 239.4 135.963 238.622 135.307C239.084 135.21 239.533 135.04 239.934 134.773C241.246 133.874 249.481 129.963 254.691 127.57C254.74 127.546 254.801 127.521 254.849 127.485C255.25 127.23 257.266 125.857 257.631 124.096C257.776 123.38 257.643 122.675 257.242 122.08C256.695 121.254 253.768 119.517 250.282 117.732L255.796 115.169C255.821 115.181 255.833 115.206 255.857 115.218C260.242 117.61 262.695 120.368 262.95 123.21ZM262.343 111.161L249.298 117.234C244.209 114.695 238.294 112.206 236.655 112.206C236.63 112.206 236.594 112.206 236.57 112.206C234.736 112.315 232.561 113.517 230.825 114.489C230.327 114.768 229.816 115.048 229.489 115.206C228.48 114.902 225.529 113.517 221.91 111.732L254.898 100.898H256.647C257.29 101.238 261.104 103.327 262.331 105.246C263.473 107.019 262.586 110.359 262.343 111.161ZM263.825 106.23C263.752 106.254 263.703 106.315 263.643 106.351C263.533 105.78 263.363 105.246 263.06 104.784C262.987 104.675 262.914 104.566 262.829 104.456C262.841 104.444 262.865 104.457 262.878 104.444C263.412 104.214 273.153 100.315 277.878 98.4322L277.951 100.12L263.825 106.23ZM278.06 95.6143C277.987 95.6264 277.914 95.6507 277.853 95.675C277.234 95.9179 262.586 101.76 261.857 102.088C261.529 102.234 261.299 102.489 261.177 102.805C260.375 102.149 259.501 101.566 258.748 101.104L275.242 94.8612C275.704 94.6912 276.019 94.2661 276.068 93.7803C276.068 93.7681 276.068 93.7681 276.068 93.756L278.716 95.4807L278.06 95.6143ZM281.582 103.133L279.991 102.027C280.368 101.784 280.61 101.359 280.586 100.898L280.392 96.6467C280.392 96.6103 280.368 96.586 280.368 96.5495L281.983 97.6062L281.582 103.133ZM291.262 99.8897L282.432 103.266L282.833 97.6791L291.299 94.8127C291.311 94.8127 291.323 94.8005 291.335 94.7884L291.262 99.8897ZM279.627 86.5049C280.088 86.347 280.598 86.4077 281.023 86.6628L291.129 93.1122C291.299 93.2215 291.384 93.3916 291.36 93.5859V93.5981C291.335 93.7924 291.214 93.9503 291.019 94.011L282.481 96.9018L271.076 89.4928L279.627 86.5049Z" fill="white"/>
<path d="M394.316 29.7972C394.316 29.7972 394.316 29.7851 394.316 29.7972C394.219 29.7001 394.121 29.6272 394 29.5665C393.842 29.4814 393.672 29.445 393.502 29.4329L341.688 8.5906C341.676 8.57846 341.663 8.57843 341.663 8.56629C341.603 8.5177 341.53 8.48127 341.457 8.44483C341.372 8.39624 341.299 8.35982 341.214 8.33553C341.141 8.31124 341.068 8.3112 340.983 8.29905C340.91 8.28691 340.85 8.26265 340.777 8.2748C340.753 8.2748 340.74 8.28696 340.716 8.28696C340.631 8.2991 340.558 8.32339 340.473 8.34769C340.388 8.37198 340.303 8.39623 340.23 8.43267C340.218 8.44482 340.194 8.44484 340.182 8.45699L298.631 33.4289C298.631 33.4289 298.631 33.441 298.618 33.441C298.509 33.5017 298.436 33.5989 298.351 33.6839C298.315 33.7203 298.278 33.7447 298.254 33.7811C298.218 33.8418 298.193 33.9026 298.169 33.9633C298.12 34.0483 298.072 34.1333 298.048 34.2305C298.035 34.2669 298.048 34.2912 298.048 34.3277C298.023 34.4613 298.011 34.5949 298.035 34.7406V34.7528C298.351 36.6718 299.748 55.7408 300.44 65.5182L302.056 96.8303C302.08 97.304 302.372 97.7412 302.809 97.9355C317.505 104.713 339.842 115.098 341.129 115.948C342.392 116.932 349.473 117.43 355.194 117.685C355.218 117.685 355.23 117.685 355.255 117.685C355.279 117.685 355.303 117.685 355.315 117.685C355.34 117.685 355.364 117.673 355.388 117.66C355.51 117.648 355.631 117.612 355.74 117.575C355.789 117.551 355.826 117.539 355.874 117.515C355.911 117.49 355.947 117.49 355.983 117.466L395.494 90.1379C395.846 89.895 396.065 89.482 396.053 89.0448L394.704 30.6839C394.692 30.3317 394.547 30.028 394.316 29.7972ZM393.21 78.5143L358.692 65.4696L392.384 42.7933L393.21 78.5143ZM355.74 64.3522L353.809 63.6234L353.542 58.3279L357.769 55.753L392.178 33.0645L392.336 39.7204L355.74 64.3522ZM339.003 61.6315C339.246 61.6315 339.429 61.4372 339.429 61.2064V46.765L345.732 49.3521L346.024 68.5668L336.441 64.7045L336.161 45.4411L338.554 46.425V61.2186C338.578 61.4372 338.773 61.6315 339.003 61.6315ZM347.748 87.4658C347.7 87.478 347.627 87.5023 347.53 87.5387C347.02 87.733 345.635 88.231 343.886 88.146C343.667 88.1338 341.931 87.7937 340.364 87.4658C339.89 87.235 337.4 85.9962 336.902 85.8383C336.477 85.6804 334.473 83.7492 334.315 83.2633C334.279 83.1662 334.218 83.0933 334.145 83.0447C334.327 82.9354 334.497 82.8382 334.68 82.7289C335.505 83.7735 339.137 85.6804 340.133 85.899L340.522 85.984C342.101 86.3241 343.692 86.6642 344.226 86.6885C344.311 86.6885 344.384 86.6885 344.469 86.6885C346.23 86.6885 348.356 86.1176 348.38 86.1054C349.619 85.7411 351.076 85.0974 352.315 84.4901L352.376 85.7896C350.724 86.4455 348.975 87.1136 347.748 87.4658ZM352.413 86.7006L352.473 87.9395C351.368 88.5225 350.457 88.9962 350.093 89.1419C347.469 90.2229 345.999 90.4294 344.591 90.393C343.145 90.3565 337.121 88.3525 335.688 87.2958C334.509 86.4213 333.866 84.6722 333.586 83.7492C334.06 84.6358 336.04 86.4941 336.635 86.6885C336.975 86.7978 338.894 87.733 340.024 88.2917C340.06 88.3038 340.097 88.316 340.121 88.3282C340.667 88.4496 343.425 89.0205 343.837 89.0448C343.983 89.0569 344.129 89.0569 344.275 89.0569C346 89.0569 347.311 88.5711 347.821 88.3889C347.894 88.3646 347.955 88.3403 347.991 88.3282C349.182 87.9395 350.834 87.32 352.413 86.7006ZM348.125 85.2796C348.101 85.2796 345.915 85.8868 344.238 85.814C343.728 85.8018 341.676 85.3524 340.692 85.1338L340.303 85.0488C339.429 84.8545 336.125 83.0812 335.396 82.2552C335.724 82.0366 336.064 81.818 336.392 81.5872C337.558 82.4982 340.935 83.9678 341.931 84.0406C342.477 84.0771 343.813 84.1135 345.04 84.1135C345.975 84.1135 346.85 84.0892 347.226 84.0285C348.963 83.7613 350.797 83.5184 352.242 83.3241L352.255 83.5306C350.967 84.1986 349.413 84.903 348.125 85.2796ZM347.08 83.1904C346.315 83.3119 342.987 83.2633 341.979 83.1904C341.214 83.1297 338.263 81.8544 337.109 81.0771C337.388 80.8706 337.667 80.6641 337.935 80.4698C338.554 80.8342 339.756 81.2957 340.983 81.7329C341.178 81.8058 341.323 81.8544 341.396 81.8787C341.87 82.073 345.344 82.2673 345.38 82.2673C348.587 82.2673 351.38 81.575 352.133 81.3686L352.194 82.486C350.724 82.6682 348.854 82.9232 347.08 83.1904ZM345.392 78.6722C346.012 78.6722 347.591 78.3078 348.161 78.1621C348.502 78.4293 348.757 78.6722 348.915 78.9272C348.963 79.0001 349.06 79.0973 349.182 79.2066C348.198 79.4131 345.805 79.7896 343.254 79.1216C342.659 78.9637 341.627 78.5993 340.91 78.1864C341.238 77.9435 341.554 77.7127 341.858 77.5062C342.671 78.1378 344.821 78.6722 345.392 78.6722ZM342.635 76.9961C343.692 76.3645 344.578 76.0487 345.149 76.3645C345.963 76.8139 346.619 77.1783 347.153 77.5062C346.473 77.652 345.708 77.8099 345.38 77.8099C344.858 77.8099 343.327 77.3604 342.635 76.9961ZM343.024 79.9475C344.202 80.2512 345.344 80.3605 346.34 80.3605C348.356 80.3605 349.813 79.9353 349.898 79.9111C349.935 79.8989 349.971 79.8746 350.008 79.8503C350.36 80.1054 350.773 80.3847 351.234 80.6884C350.068 80.9556 347.821 81.3929 345.392 81.3929C345.052 81.3807 342.064 81.1742 341.724 81.0649C341.651 81.0406 341.493 80.9799 341.287 80.907C340.68 80.6884 339.429 80.239 338.7 79.8868C338.894 79.7411 339.101 79.5831 339.283 79.4374C339.586 79.2066 339.878 78.9758 340.17 78.745C341.02 79.3159 342.38 79.7775 343.024 79.9475ZM349.631 78.4536C349.085 77.6033 348.064 76.9961 345.878 75.7936C346.085 75.7207 346.279 75.6236 346.425 75.4657L351.538 69.9272L352.072 80.2269C350.724 79.3402 349.789 78.6722 349.631 78.4536ZM345.501 72.66C344.821 71.8827 344.153 71.081 343.534 70.3401L346.534 71.5547L345.501 72.66ZM338.943 68.4697C339.914 70.1458 342.732 73.413 344.493 75.4049C342.987 75.49 341.068 76.9475 338.761 78.745C336.963 80.1297 334.935 81.7086 332.821 82.8139C332.651 82.8989 332.566 83.0933 332.603 83.2755C332.627 83.4091 333.283 86.5549 335.19 87.9638C336.732 89.1055 342.999 91.1946 344.591 91.231C344.688 91.231 344.785 91.231 344.882 91.231C346.303 91.231 347.858 90.9759 350.433 89.9192C350.773 89.7856 351.562 89.3727 352.534 88.8626L353.336 104.349L305.529 84.1621L334.352 66.5264C334.449 66.6114 334.57 66.6842 334.704 66.745L338.943 68.4697ZM351.538 56.5181C351.489 56.5546 351.453 56.6031 351.404 56.6396C351.332 56.7003 351.259 56.7489 351.21 56.8218C351.161 56.8825 351.125 56.9554 351.089 57.0283C351.052 57.1011 351.016 57.174 350.991 57.2469C350.967 57.3319 350.955 57.4169 350.955 57.5141C350.955 57.5748 350.931 57.6234 350.931 57.6841L351.368 66.0648L348.635 68.0081L348.368 50.4088L356.287 53.6517L351.538 56.5181ZM392.312 29.8823L375.805 40.765L343.097 27.4774L342.149 9.69583L392.312 29.8823ZM340.291 23.1656L340.461 26.3964L337.23 25.0847L340.291 23.1656ZM339.671 11.7728L340.121 20.2142L334.267 23.8822L325.461 20.2992L339.671 11.7728ZM322.704 21.9631L373.194 42.4776L368.979 45.2589L319.06 24.1494L322.704 21.9631ZM366.392 46.9715L358.874 51.927L347.518 47.2873H347.506L335.348 42.3196L318.295 35.3479L317.663 26.3843L366.392 46.9715ZM300.671 35.2021L315.076 26.5422L315.72 35.5301L301.461 44.4816C301.145 40.4249 300.853 36.8904 300.671 35.2021ZM303.003 65.3482C302.955 64.6923 302.311 55.5951 301.679 47.3966L317.19 37.6556L333.574 44.3602L333.854 63.8056L303.865 82.1459L303.003 65.3482ZM342.696 113.895C341.493 112.972 314.117 100.304 304.582 95.9072L304.242 89.3484L339.732 105.126L339.793 109.923C339.793 110.094 339.902 110.251 340.06 110.312L346.862 113.203C346.91 113.227 346.971 113.239 347.032 113.239C347.117 113.239 347.202 113.215 347.275 113.166C347.396 113.081 347.469 112.948 347.469 112.802V107.434C347.469 107.251 347.36 107.094 347.19 107.033L340.327 104.434C340.303 104.421 340.279 104.434 340.267 104.421L304.218 88.3889L304.121 86.3848L353.493 107.227L353.894 115.025C348.866 114.77 343.497 114.272 342.696 113.895ZM340.595 105.454L346.595 107.725V112.158L340.655 109.632L340.595 105.454ZM354.817 83.154C354.866 83.1297 354.927 83.0933 354.963 83.069C355.51 83.4091 356.044 83.737 356.542 84.0406C356.251 84.1621 355.668 84.4172 354.902 84.7451L354.817 83.154ZM354.939 85.6561C356.129 85.1581 356.992 84.7816 357.089 84.733C357.198 84.6844 357.271 84.5994 357.307 84.5022C357.55 84.648 357.793 84.7937 358 84.9273C357.319 85.3039 356.19 85.9233 354.987 86.567L354.939 85.6561ZM355.886 103.996L355.036 87.5387C357.028 86.4577 358.923 85.4132 359.068 85.3403C359.202 85.2674 359.287 85.1217 359.287 84.9759C359.287 84.818 359.214 84.6722 359.081 84.5994C357.805 83.8342 356.481 83.0204 355.242 82.2552C355.23 82.2431 355.206 82.2309 355.194 82.2309C355.036 82.1338 354.89 82.0366 354.745 81.9516L354.052 68.6154L356.056 67.2672L390.611 80.324L355.886 103.996ZM356.408 114.017L356.044 107.021L393.283 81.6115L393.441 88.401L356.408 114.017Z" fill="white"/>
<path d="M116.264 28.7773C116.191 28.4736 116.033 28.2186 115.839 28C115.814 27.9757 115.79 27.9513 115.766 27.9149C115.729 27.8785 115.705 27.8542 115.669 27.8178C114.503 26.7246 109.766 23.9675 108.879 23.4817C107.847 22.923 106.644 22.765 105.503 23.0322L63.7329 32.9069C62.5305 33.2712 61.7167 33.9636 61.2916 34.9717C60.6479 36.4899 61.0973 38.3725 61.741 39.6235C62.0568 40.2429 62.2511 40.7288 62.3605 41.2025L67.1095 60.9395C67.1459 61.0731 67.2309 61.1824 67.3645 61.231L76.061 64.8262C76.0731 64.8262 76.0853 64.8262 76.0853 64.8262C76.3039 64.9355 76.5711 64.9962 76.8626 64.9962C76.9233 64.9962 76.9841 64.9962 77.0569 64.9841C77.5306 64.9355 83.6522 63.4901 98.1665 59.9921C106.608 57.9516 111.612 56.0204 114.296 54.988C114.855 54.7694 115.316 54.5994 115.669 54.4658C118.754 53.3726 120.32 51.5993 120.078 49.486C119.823 47.2633 117.478 33.4899 116.264 28.7773ZM63.9515 33.7449L105.697 23.8825C106.632 23.6638 107.616 23.7853 108.466 24.2468C110.057 25.1092 112.304 26.4938 113.762 27.4655C105.66 29.2631 71.567 38.3725 70.9111 38.6397C70.7897 38.6883 70.7047 38.7855 70.6196 38.8583L62.3119 34.9352C62.6519 34.3765 63.2106 33.9635 63.9515 33.7449ZM67.899 60.5265L63.1985 41.0081C63.0649 40.4737 62.8463 39.9029 62.5062 39.2349C62.0325 38.3118 61.6438 36.8907 61.9475 35.7126L70.0974 39.5628C69.6723 40.8867 70.3646 43.0851 70.5589 43.6681L75.0164 63.478L67.899 60.5265ZM115.401 53.6641C115.037 53.7977 114.576 53.9678 114.005 54.1985C111.333 55.2309 106.365 57.15 97.9721 59.1783C92.4215 60.5144 77.6642 64.0853 76.9841 64.1581C76.231 64.2189 75.9395 63.5873 75.9274 63.5873L71.4091 43.4738C71.4091 43.4616 71.397 43.4373 71.397 43.4252C70.899 41.992 70.4982 39.7328 71.2148 39.4413C72.1136 39.1255 106.875 29.8461 114.211 28.2429C114.284 28.2307 114.357 28.2186 114.43 28.2186C114.891 28.2186 115.304 28.5222 115.426 28.9959C116.64 33.6963 118.972 47.3847 119.24 49.6074C119.482 51.7572 117.284 52.9961 115.401 53.6641Z" fill="white"/>
<path d="M95.762 40.2184C93.0413 40.7043 91.2073 41.7245 90.2964 43.2549C89.8712 43.9837 89.677 44.8339 89.677 45.757C89.677 45.7934 89.6648 45.842 89.6526 45.8784C89.6405 45.9513 89.6648 46.0242 89.6891 46.0849C89.7255 46.7408 89.8348 47.4331 90.0778 48.1497C90.7215 50.0445 93.26 50.8097 95.8714 50.8097C97.1588 50.8097 98.4584 50.6153 99.5515 50.2874C100.11 50.1174 100.572 49.8258 100.973 49.4615C101.033 49.425 101.082 49.3765 101.106 49.3157C101.337 49.0728 101.543 48.8056 101.701 48.5019C102.661 46.6558 102.26 44.1051 101.908 43.012C101.398 41.3966 98.3976 39.7448 95.762 40.2184ZM95.9078 41.0686C96.4665 40.9715 97.0495 40.9837 97.6203 41.093C98.0212 41.676 98.5798 43.5343 97.8268 44.2873C97.2438 44.8703 96.5029 45.1983 96.0414 45.3683C95.8106 44.3359 95.0819 43.2549 93.7458 42.8298C93.0535 42.599 92.4583 42.5748 91.9604 42.6719C92.8592 41.9067 94.1831 41.3723 95.9078 41.0686ZM90.9036 47.8825C90.6486 47.1537 90.5393 46.4736 90.5272 45.8542C90.6 45.344 90.843 44.5424 91.183 44.0444C91.4867 43.595 92.2518 43.2549 93.4664 43.6436C94.6203 44.0201 95.179 45.0525 95.2397 45.9149C95.1912 46.255 94.9968 47.9189 96.1993 48.9878C96.7337 49.4615 97.2803 49.7044 97.8754 49.8137C94.8997 50.2874 91.5231 49.6679 90.9036 47.8825ZM100.948 48.1132C100.827 48.344 100.681 48.5384 100.511 48.7205C98.7134 49.1092 97.7297 49.1821 96.7701 48.3319C96.0657 47.7125 96.0413 46.7165 96.0656 46.255C96.5758 46.0971 97.6082 45.6962 98.422 44.8946C99.2843 44.0322 99.1264 42.4898 98.7256 41.4088C99.9281 41.8703 100.888 42.6355 101.094 43.2792C101.446 44.3602 101.713 46.6436 100.948 48.1132Z" fill="white"/>
<path d="M67.3043 48.1858C67.2557 47.955 67.0128 47.8093 66.7942 47.87C66.5634 47.9186 66.4177 48.1494 66.4784 48.3802L68.7618 58.2062C68.8104 58.4005 68.9805 58.5341 69.1748 58.5341C69.2112 58.5341 69.2355 58.5341 69.272 58.522C69.5027 58.4734 69.6485 58.2426 69.5878 58.0118L67.3043 48.1858Z" fill="white"/>
<path d="M95.5311 36.2589C92.3853 36.3196 89.4461 38.348 88.0371 39.3318C85.4501 41.1294 84.2962 47.8582 86.7011 51.5384C88.4379 54.1983 91.9845 54.757 95.1181 54.757C96.4542 54.757 97.7295 54.6599 98.7497 54.5748C101.774 54.3319 104.24 51.9514 105.551 49.8015C106.669 47.9675 106.572 42.7326 105.369 40.1334C103.887 36.9269 98.3125 36.186 95.5311 36.2589ZM103.353 48.4533C102.418 49.9837 100.608 51.8299 98.4461 51.9999C95.8712 52.2064 90.5149 52.6315 88.863 50.1173C87.1383 47.4816 88.2436 42.3197 89.5067 41.4452C90.7092 40.6192 93.2112 38.8824 95.5797 38.8338C95.6768 38.8338 95.7619 38.8338 95.8591 38.8338C98.7862 38.8338 102.357 39.7812 103.025 41.2144C103.997 43.3156 103.863 47.6153 103.353 48.4533Z" fill="white"/>
<path d="M114.466 33.9269C114.357 33.854 114.236 33.8419 114.114 33.8783L107.373 35.7609C107.155 35.8216 107.021 36.0524 107.07 36.2832C107.47 37.8986 108.053 39.6597 108.066 39.6718C108.126 39.854 108.284 39.9634 108.478 39.9634C108.491 39.9634 108.491 39.9634 108.503 39.9634C109.086 39.9269 112.037 39.7448 112.681 39.4776C113.288 39.2225 114.964 38.4573 114.964 38.4573C115.134 38.3722 115.244 38.1901 115.207 38.0079L114.649 34.2184C114.636 34.0969 114.564 33.9876 114.466 33.9269ZM112.341 38.6881C112.001 38.8338 110.155 39.0038 108.77 39.0889C108.612 38.5787 108.284 37.5342 108.005 36.4775L113.871 34.8378L114.308 37.8135C113.81 38.0443 112.79 38.4937 112.341 38.6881Z" fill="white"/>
<path d="M73.219 36.4774C73.6076 36.5625 73.9477 36.5989 74.2757 36.5989C74.7129 36.5989 75.138 36.526 75.6724 36.3681C76.7413 36.0645 77.5915 35.4694 78.0045 34.7406C78.2595 34.2791 78.3324 33.8053 78.1988 33.3559C77.7737 31.8741 76.7048 31.1818 75.2838 31.4369L74.9194 31.4976C73.3161 31.777 71.6643 32.0807 71.2635 33.0402C71.2149 33.1616 71.1785 33.3074 71.142 33.4531C70.8991 34.8256 71.8222 36.1738 73.219 36.4774ZM71.9923 33.6232C72.0044 33.526 72.0287 33.441 72.0651 33.3802C72.2837 32.858 73.972 32.5543 75.0773 32.36L75.4417 32.2993C75.5874 32.275 75.721 32.2628 75.8425 32.2628C76.5955 32.2628 77.1178 32.7122 77.3729 33.611C77.4579 33.8904 77.3486 34.1576 77.2514 34.3398C76.9599 34.8742 76.2797 35.3357 75.4295 35.5665C74.6157 35.7973 74.1542 35.8216 73.389 35.6515C72.4538 35.4329 71.8222 34.522 71.9923 33.6232Z" fill="white"/>
<path d="M79.948 32.2385C79.9845 32.2385 80.0209 32.2384 80.0573 32.2263L82.8387 31.4611C83.0695 31.4004 83.2031 31.1574 83.1424 30.9267C83.0816 30.6959 82.8509 30.5623 82.608 30.623L79.8266 31.3883C79.5958 31.449 79.4622 31.6919 79.5229 31.9227C79.5837 32.117 79.7537 32.2385 79.948 32.2385Z" fill="white"/>
<path d="M80.6401 33.8051C80.7008 33.9872 80.8708 34.1087 81.053 34.1087C81.0894 34.1087 81.138 34.1087 81.1745 34.0844L84.3081 33.1249C84.5389 33.052 84.6603 32.8091 84.5996 32.5905C84.5267 32.3597 84.2838 32.2383 84.0652 32.299L80.9315 33.2585C80.7008 33.3314 80.5793 33.5743 80.6401 33.8051Z" fill="white"/>
<path d="M97.025 29.299C97.0615 29.299 97.0979 29.299 97.1343 29.2868L99.9765 28.5217C100.207 28.4609 100.341 28.2181 100.28 27.9994C100.219 27.7687 99.9886 27.6351 99.7579 27.6958L96.9157 28.4609C96.6849 28.5217 96.5513 28.7646 96.612 28.9832C96.6606 29.1775 96.8429 29.299 97.025 29.299Z" fill="white"/>
<path d="M48.8667 57.6722C49.1704 57.7086 49.4861 57.7207 49.8019 57.7207C51.2351 57.7207 52.7048 57.3806 54.1259 56.7369L54.4417 56.5912C55.0125 56.3361 55.5834 56.0689 55.6927 55.4981C55.717 55.4373 55.7413 55.3766 55.7413 55.3159V53.0324C56.6644 53.0081 57.0652 52.8381 57.2231 52.668L57.2352 52.6559L57.2474 52.6438C57.2595 52.6316 57.2717 52.6074 57.2838 52.5831C57.2959 52.5588 57.3081 52.5345 57.3202 52.5102C57.3567 52.4252 57.3688 52.3401 57.3567 52.2551V42.2105C57.3567 42.1862 57.3445 42.1619 57.3445 42.1376C57.3445 42.1133 57.3324 42.089 57.3324 42.0526C57.3202 42.0283 57.3081 42.004 57.296 41.9797C57.2838 41.9554 57.2716 41.9312 57.2474 41.9069C57.2231 41.8826 57.2109 41.8704 57.1866 41.8582C57.1623 41.8461 57.1381 41.8218 57.1138 41.8097C57.0895 41.7975 57.053 41.7975 57.0287 41.7854C57.0044 41.7854 56.9923 41.7732 56.968 41.7732C56.968 41.7732 55.9235 41.7125 54.5267 41.6882C50.725 41.6275 48.3809 41.8826 47.6036 42.4534C46.6926 43.1214 46.146 43.9716 46.0732 44.8461C46.0732 44.8583 46.0732 44.8826 46.0732 44.8947C46.0732 44.919 46.061 44.9311 46.061 44.9554V54.3442C46.061 55.7896 46.061 56.0203 46.7169 56.8098C47.0691 57.2713 47.7857 57.5507 48.8667 57.6722ZM56.4822 42.6113V52.0729C56.3486 52.1094 56.1178 52.1458 55.7291 52.158V45.2227C56.1056 44.2753 55.887 43.2672 55.5348 42.6356C55.5227 42.6113 55.5105 42.587 55.4984 42.5749C55.9113 42.587 56.2392 42.5992 56.4822 42.6113ZM48.0772 43.1457C48.2837 43 49.2554 42.5384 53.4093 42.5384C53.6886 42.5384 53.968 42.5384 54.2716 42.5384C54.2959 42.5506 54.3323 42.5627 54.3566 42.5749C54.4052 42.587 54.6238 42.7449 54.8182 43.1214C54.9275 43.3522 55.2797 44.166 54.9032 45.0041C54.8546 45.1134 54.5145 45.4534 53.8101 45.7814C52.1947 46.5344 50.4821 46.8381 48.8789 46.6316C47.9072 46.5101 47.4942 46.2794 47.3364 46.0972C47.0084 45.745 46.8627 45.3441 46.8991 44.9069C46.9477 44.3117 47.3849 43.668 48.0772 43.1457ZM46.8869 46.8502C47.2877 47.1781 47.9072 47.3967 48.7695 47.5061C49.1339 47.5546 49.4983 47.5668 49.8627 47.5668C51.2959 47.5668 52.7777 47.2267 54.1866 46.5709C54.4417 46.4494 54.6724 46.3158 54.8789 46.1822V55.3159C54.8789 55.4616 54.466 55.6438 54.1016 55.8017L53.7737 55.9474C52.1947 56.6762 50.5307 56.9798 48.976 56.8098C47.8829 56.6883 47.5064 56.409 47.3728 56.2511C46.9112 55.6924 46.9112 55.6924 46.9112 54.3321V46.8502H46.8869Z" fill="white"/>
<path d="M49.7899 45.8786C50.0328 46 50.8223 46.0729 51.3567 46.0729C51.5389 46.0729 51.6968 46.0608 51.7818 46.0365C52.6563 45.83 52.8871 45.2106 52.9357 44.7247C52.9599 44.4697 52.6442 43.5466 52.2555 43.3279C51.879 43.1215 51.296 43.0729 51.1988 43.0608C50.7008 43 49.3891 42.8664 49.1583 44.1417C48.9761 45.0891 49.4498 45.7085 49.7899 45.8786ZM49.9964 44.3239C50.0328 44.1417 50.0692 43.911 50.7008 43.911C50.8223 43.911 50.9559 43.9231 51.1138 43.9352H51.1259C51.2838 43.9474 51.6725 43.996 51.794 44.0689C51.879 44.166 52.049 44.5911 52.0733 44.664C52.0369 45.0284 51.8668 45.1377 51.5753 45.2106C51.3688 45.247 50.3486 45.1741 50.1664 45.1134C50.1178 45.077 49.8992 44.8098 49.9964 44.3239Z" fill="white"/>
</svg>
