<svg width="94" height="86" viewBox="0 0 94 86" fill="none" xmlns="http://www.w3.org/2000/svg">
<path d="M8.76516 60.965C3.50727 60.0519 0.123088 55.2803 1.0299 50.0584L8.28438 8.28335C9.166 3.20652 13.986 -0.289839 19.2439 0.623225L61.307 7.92774C66.4189 8.81544 69.9239 13.7575 69.0423 18.8343L68.2362 23.476L77.7296 25.1246C79.7744 25.4796 81.4967 26.8247 82.5593 28.5035L91.7801 43.852C92.5757 45.335 93.0289 47.0574 92.7518 48.653L89.0238 70.1207L91.3607 70.5265C92.5291 70.7294 93.496 72.0927 93.2945 73.2532C93.0678 74.5586 91.7231 75.3711 90.5546 75.1682L83.5441 73.9508C82.2091 81.6385 74.8457 86.7852 67.1049 85.4409C59.2181 84.0714 54.167 76.7689 55.502 69.0811L36.6612 65.8093C35.3262 73.497 28.1088 78.6691 20.222 77.2995C12.4812 75.9552 7.28408 68.6274 8.61911 60.9396L8.76516 60.965ZM12.9581 9.09496L5.70358 50.87C5.25018 53.481 6.94227 55.8668 9.57121 56.3233L10.3015 56.4501C13.1322 51.4129 19.0702 48.4095 25.2044 49.4748C31.1925 50.5147 35.7703 55.3441 36.737 61.0408L56.3081 64.4394L64.3686 18.0227C64.7968 15.5568 62.9839 13.0006 60.501 12.5694L18.4378 5.2649C15.8089 4.80837 13.3863 6.62907 12.9581 9.09496ZM87.5041 45.9486L78.5251 30.9409C78.1877 30.2846 77.5078 29.8677 76.9236 29.7662L67.4302 28.1177L65.012 42.0427L87.5041 45.9486ZM64.206 46.6843L61.9641 59.594C64.6788 57.824 68.2899 56.9568 71.9412 57.5909C77.9294 58.6308 82.5072 63.4603 83.4738 69.1569L84.3502 69.3091L87.5744 50.7424L64.206 46.6843ZM24.3983 54.1165C19.1404 53.2034 14.3205 56.6998 13.4388 61.7766C12.532 66.9985 15.9162 71.7701 21.1741 72.6831C26.2859 73.5708 31.2268 70.2449 32.1336 65.023C33.0152 59.9462 29.5102 55.0042 24.3983 54.1165ZM67.911 80.7993C73.0228 81.687 77.9636 78.361 78.8704 73.1392C79.752 68.0623 76.247 63.1203 71.1352 62.2326C65.8773 61.3195 61.0573 64.8159 60.1757 69.8927C59.2689 75.1146 62.6531 79.8862 67.911 80.7993Z" fill="white" fill-opacity="0.2"/>
</svg>
