<svg xmlns="http://www.w3.org/2000/svg" fill="none" viewBox="0 0 1442 238">
  <path fill="#131313" d="m557.989 10.91 3.644 10.661h.147l3.643-10.662h2.135L562.847 24h-2.282l-4.711-13.09h2.135ZM568.755 24v-9.818h1.911V24h-1.911Zm.965-11.333c-.332 0-.617-.11-.856-.332a1.082 1.082 0 0 1-.352-.806c0-.315.118-.584.352-.805.239-.226.524-.34.856-.34.333 0 .616.114.851.34.238.221.358.49.358.805 0 .311-.12.58-.358.806a1.195 1.195 0 0 1-.851.332ZM572.698 24v-9.818h1.847v1.56h.102c.179-.529.495-.944.946-1.247.456-.307.972-.46 1.547-.46a8.214 8.214 0 0 1 .812.044v1.829a3.424 3.424 0 0 0-.409-.07 3.894 3.894 0 0 0-.588-.045 2.49 2.49 0 0 0-1.208.287 2.13 2.13 0 0 0-.831.787 2.123 2.123 0 0 0-.307 1.137V24h-1.911Zm11.531-9.818v1.534h-5.363v-1.534h5.363Zm-3.925-2.353h1.912v9.288c0 .37.055.65.166.837a.866.866 0 0 0 .428.378c.179.064.373.096.582.096.153 0 .287-.011.402-.032l.269-.052.345 1.58a3.205 3.205 0 0 1-.473.127c-.205.047-.46.073-.767.077a3.36 3.36 0 0 1-1.406-.269 2.409 2.409 0 0 1-1.055-.869c-.268-.392-.403-.884-.403-1.476V11.83Zm11.719 8.1v-5.747h1.917V24h-1.879v-1.7h-.102a3.063 3.063 0 0 1-1.087 1.31c-.494.345-1.11.518-1.847.518-.631 0-1.189-.139-1.675-.416-.481-.28-.861-.696-1.138-1.246-.272-.55-.409-1.23-.409-2.04v-6.244h1.911v6.015c0 .669.186 1.201.557 1.598.37.396.852.594 1.444.594.358 0 .714-.09 1.068-.268.358-.18.654-.45.888-.812.239-.362.356-.823.352-1.38Zm6.803 4.288a4.01 4.01 0 0 1-1.688-.345 2.84 2.84 0 0 1-1.195-1.016c-.29-.443-.435-.987-.435-1.63 0-.554.107-1.01.32-1.368.213-.358.5-.641.863-.85a4.506 4.506 0 0 1 1.214-.473c.448-.107.903-.188 1.368-.243l1.432-.166c.366-.047.633-.122.799-.224.166-.102.249-.268.249-.499v-.044c0-.559-.158-.991-.473-1.298-.311-.307-.776-.46-1.393-.46-.644 0-1.151.143-1.522.428-.366.281-.62.595-.76.94l-1.797-.41c.214-.596.525-1.078.934-1.444a3.78 3.78 0 0 1 1.425-.805 5.566 5.566 0 0 1 1.694-.256c.392 0 .808.047 1.246.14.444.09.857.256 1.241.5.387.242.705.59.952 1.041.247.448.371 1.03.371 1.745V24h-1.867v-1.342h-.076c-.124.247-.309.49-.557.728a2.948 2.948 0 0 1-.952.595c-.388.157-.852.236-1.393.236Zm.415-1.534c.528 0 .98-.104 1.355-.313.379-.209.667-.482.863-.818.2-.341.3-.705.3-1.093v-1.266c-.068.068-.2.132-.396.192a6.197 6.197 0 0 1-.658.147c-.247.038-.488.075-.723.109l-.588.076a4.75 4.75 0 0 0-1.016.237c-.302.11-.545.27-.729.48-.179.204-.268.476-.268.817 0 .473.175.831.524 1.074.349.239.795.358 1.336.358Zm8.347-11.774V24h-1.912V10.91h1.912Zm10.838 3.273v1.534h-5.363v-1.534h5.363Zm-3.925-2.353h1.911v9.288c0 .37.055.65.166.837a.87.87 0 0 0 .428.378c.179.064.373.096.582.096.154 0 .288-.011.403-.032l.268-.052.345 1.58a3.17 3.17 0 0 1-.473.127c-.204.047-.46.073-.767.077a3.366 3.366 0 0 1-1.406-.269 2.42 2.42 0 0 1-1.055-.869c-.268-.392-.402-.884-.402-1.476V11.83ZM620 24v-9.818h1.847v1.56h.102c.179-.529.495-.944.946-1.247.456-.307.972-.46 1.547-.46a8.214 8.214 0 0 1 .812.044v1.829a3.424 3.424 0 0 0-.409-.07 3.894 3.894 0 0 0-.588-.045 2.49 2.49 0 0 0-1.208.287 2.13 2.13 0 0 0-.831.787 2.123 2.123 0 0 0-.307 1.137V24H620Zm9.137.217a4.008 4.008 0 0 1-1.687-.345 2.844 2.844 0 0 1-1.196-1.016c-.289-.443-.434-.987-.434-1.63 0-.554.106-1.01.319-1.368a2.36 2.36 0 0 1 .863-.85 4.512 4.512 0 0 1 1.215-.473c.447-.107.903-.188 1.368-.243l1.432-.166c.366-.047.632-.122.799-.224.166-.102.249-.268.249-.499v-.044c0-.559-.158-.991-.473-1.298-.311-.307-.776-.46-1.394-.46-.643 0-1.15.143-1.521.428-.366.281-.62.595-.761.94l-1.796-.41c.213-.596.524-1.078.933-1.444.414-.37.889-.64 1.426-.805a5.561 5.561 0 0 1 1.694-.256c.392 0 .807.047 1.246.14.443.09.857.256 1.24.5.388.242.706.59.953 1.041.247.448.37 1.03.37 1.745V24h-1.866v-1.342h-.077c-.123.247-.309.49-.556.728a2.959 2.959 0 0 1-.952.595c-.388.157-.853.236-1.394.236Zm.416-1.534c.528 0 .98-.104 1.355-.313.379-.209.667-.482.863-.818.2-.341.3-.705.3-1.093v-1.266c-.068.068-.2.132-.396.192a6.197 6.197 0 0 1-.658.147c-.248.038-.488.075-.723.109l-.588.076a4.735 4.735 0 0 0-1.016.237c-.303.11-.546.27-.729.48-.179.204-.268.476-.268.817 0 .473.174.831.524 1.074.349.239.795.358 1.336.358ZM635.988 24v-9.818h1.911V24h-1.911Zm.965-11.333c-.332 0-.618-.11-.856-.332a1.079 1.079 0 0 1-.352-.806c0-.315.117-.584.352-.805.238-.226.524-.34.856-.34.333 0 .616.114.85.34.239.221.358.49.358.805 0 .311-.119.58-.358.806a1.19 1.19 0 0 1-.85.332Zm4.889 5.504V24h-1.912v-9.818h1.835v1.598h.121c.226-.52.58-.938 1.062-1.253.485-.315 1.097-.473 1.834-.473.669 0 1.255.14 1.758.422.503.277.893.69 1.17 1.24.277.55.415 1.23.415 2.039V24h-1.911v-6.015c0-.712-.186-1.268-.556-1.668-.371-.405-.88-.607-1.528-.607-.443 0-.837.095-1.182.287a2.066 2.066 0 0 0-.812.844c-.196.366-.294.81-.294 1.33ZM650.148 24v-9.818h1.912V24h-1.912Zm.965-11.333c-.332 0-.617-.11-.856-.332a1.082 1.082 0 0 1-.352-.806c0-.315.118-.584.352-.805.239-.226.524-.34.856-.34.333 0 .616.114.851.34.238.221.358.49.358.805 0 .311-.12.58-.358.806a1.195 1.195 0 0 1-.851.332Zm4.889 5.504V24h-1.911v-9.818h1.834v1.598h.122c.226-.52.579-.938 1.061-1.253.486-.315 1.097-.473 1.834-.473.669 0 1.255.14 1.758.422.503.277.893.69 1.17 1.24.277.55.415 1.23.415 2.039V24h-1.911v-6.015c0-.712-.185-1.268-.556-1.668-.371-.405-.88-.607-1.528-.607-.443 0-.837.095-1.182.287a2.066 2.066 0 0 0-.812.844c-.196.366-.294.81-.294 1.33Zm12.423 9.715c-.78 0-1.451-.102-2.014-.306-.558-.205-1.014-.476-1.367-.812a3.41 3.41 0 0 1-.793-1.106l1.643-.678c.115.188.268.386.46.595.196.213.46.394.793.543.336.15.769.224 1.297.224.725 0 1.323-.177 1.796-.53.473-.35.71-.908.71-1.675v-1.93h-.122a4.367 4.367 0 0 1-.498.696c-.213.256-.507.477-.882.665-.375.187-.863.281-1.464.281-.776 0-1.474-.181-2.097-.543-.618-.367-1.108-.906-1.47-1.617-.358-.716-.537-1.596-.537-2.64s.177-1.94.531-2.685c.358-.746.848-1.317 1.47-1.713.622-.4 1.327-.601 2.116-.601.609 0 1.101.102 1.476.307.375.2.667.434.876.703.213.268.377.505.492.71h.141v-1.592h1.873v10.035c0 .844-.196 1.537-.588 2.078-.392.54-.923.941-1.592 1.201-.665.26-1.415.39-2.25.39Zm-.019-5.618c.55 0 1.014-.128 1.393-.384.384-.26.674-.63.87-1.112.2-.486.3-1.067.3-1.745 0-.66-.098-1.242-.294-1.745-.196-.503-.484-.895-.863-1.176-.379-.286-.848-.428-1.406-.428-.575 0-1.055.149-1.438.447-.384.294-.674.695-.87 1.202a4.793 4.793 0 0 0-.287 1.7c0 .643.098 1.208.294 1.694.196.486.485.865.869 1.138.388.272.865.409 1.432.409Zm-81 18.31-1.732.308a2.078 2.078 0 0 0-.345-.633 1.717 1.717 0 0 0-.627-.492c-.264-.128-.594-.192-.991-.192-.541 0-.992.121-1.355.364-.362.239-.543.548-.543.927 0 .328.121.592.364.793.243.2.635.364 1.177.492l1.559.358c.904.209 1.577.53 2.02.965.443.435.665 1 .665 1.694 0 .588-.171 1.112-.512 1.572-.336.456-.807.814-1.412 1.074-.601.26-1.298.39-2.09.39-1.1 0-1.997-.234-2.691-.703-.695-.473-1.121-1.144-1.279-2.014l1.847-.28c.116.48.352.845.71 1.092.358.243.825.365 1.4.365.626 0 1.127-.13 1.502-.39.375-.264.562-.586.562-.965 0-.307-.115-.565-.345-.774-.226-.209-.573-.366-1.042-.473l-1.662-.364c-.916-.209-1.593-.541-2.032-.997-.435-.456-.652-1.034-.652-1.733 0-.58.162-1.086.486-1.52.323-.436.771-.774 1.342-1.017.571-.247 1.225-.371 1.962-.371 1.061 0 1.897.23 2.506.69.609.456 1.012 1.068 1.208 1.835Zm5.985 7.62c-.968 0-1.801-.206-2.5-.62a4.206 4.206 0 0 1-1.61-1.758c-.375-.758-.563-1.647-.563-2.665 0-1.006.188-1.892.563-2.66.379-.766.907-1.365 1.585-1.795.682-.43 1.479-.646 2.391-.646.553 0 1.09.092 1.61.275.52.183.987.47 1.4.863.414.392.74.901.978 1.527.239.623.358 1.379.358 2.27v.677h-7.805v-1.432h5.932c0-.503-.102-.948-.307-1.336a2.314 2.314 0 0 0-.863-.926c-.366-.226-.796-.34-1.291-.34-.537 0-1.005.133-1.406.397-.396.26-.703.601-.92 1.023-.213.417-.32.871-.32 1.361v1.119c0 .656.115 1.214.345 1.675.235.46.561.812.978 1.054.418.239.906.358 1.464.358.362 0 .692-.05.991-.153.298-.107.556-.264.773-.473.217-.209.384-.467.499-.774l1.809.326c-.145.533-.405 1-.78 1.4a3.786 3.786 0 0 1-1.4.927c-.558.218-1.195.326-1.911.326Zm13.15-7.62-1.732.308a2.06 2.06 0 0 0-.346-.633 1.705 1.705 0 0 0-.626-.492c-.264-.128-.594-.192-.991-.192-.541 0-.993.121-1.355.364-.362.239-.543.548-.543.927 0 .328.121.592.364.793.243.2.635.364 1.176.492l1.56.358c.903.209 1.577.53 2.02.965.443.435.665 1 .665 1.694 0 .588-.171 1.112-.512 1.572-.336.456-.807.814-1.412 1.074-.601.26-1.298.39-2.091.39-1.099 0-1.996-.234-2.691-.703-.694-.473-1.12-1.144-1.278-2.014l1.847-.28c.115.48.352.845.71 1.092.358.243.824.365 1.4.365.626 0 1.127-.13 1.502-.39.375-.264.562-.586.562-.965 0-.307-.115-.565-.345-.774-.226-.209-.573-.366-1.042-.473l-1.662-.364c-.916-.209-1.593-.541-2.032-.997-.435-.456-.652-1.034-.652-1.733 0-.58.162-1.086.485-1.52.324-.436.772-.774 1.343-1.017.571-.247 1.225-.371 1.962-.371 1.061 0 1.896.23 2.506.69.609.456 1.012 1.068 1.208 1.835Zm9.11 0-1.732.308a2.036 2.036 0 0 0-.345-.633 1.708 1.708 0 0 0-.627-.492c-.264-.128-.594-.192-.99-.192-.541 0-.993.121-1.355.364-.363.239-.544.548-.544.927 0 .328.122.592.365.793.243.2.635.364 1.176.492l1.559.358c.904.209 1.577.53 2.02.965.443.435.665 1 .665 1.694 0 .588-.17 1.112-.511 1.572-.337.456-.808.814-1.413 1.074-.601.26-1.298.39-2.09.39-1.1 0-1.997-.234-2.691-.703-.695-.473-1.121-1.144-1.279-2.014l1.848-.28c.115.48.351.845.709 1.092.358.243.825.365 1.4.365.626 0 1.127-.13 1.502-.39.375-.264.563-.586.563-.965 0-.307-.115-.565-.345-.774-.226-.209-.574-.366-1.042-.473l-1.662-.364c-.916-.209-1.594-.541-2.033-.997-.435-.456-.652-1.034-.652-1.733 0-.58.162-1.086.486-1.52.324-.436.771-.774 1.342-1.017.571-.247 1.225-.371 1.963-.371 1.061 0 1.896.23 2.505.69.61.456 1.012 1.068 1.208 1.835ZM617.404 48v-9.818h1.912V48h-1.912Zm.966-11.333c-.333 0-.618-.11-.857-.333a1.081 1.081 0 0 1-.351-.805c0-.315.117-.584.351-.805.239-.226.524-.34.857-.34.332 0 .615.114.85.34.238.221.358.49.358.805 0 .311-.12.58-.358.805a1.194 1.194 0 0 1-.85.333Zm7.113 11.531c-.921 0-1.724-.21-2.41-.633a4.265 4.265 0 0 1-1.598-1.77c-.38-.759-.569-1.645-.569-2.66 0-1.018.189-1.908.569-2.671.379-.763.912-1.355 1.598-1.777.686-.422 1.489-.633 2.41-.633.92 0 1.723.21 2.409.633.686.422 1.219 1.014 1.598 1.777.38.763.569 1.653.569 2.672 0 1.014-.189 1.9-.569 2.659a4.265 4.265 0 0 1-1.598 1.77c-.686.422-1.489.633-2.409.633Zm.006-1.604c.597 0 1.091-.158 1.483-.473.392-.316.682-.735.869-1.26a5.002 5.002 0 0 0 .288-1.732c0-.626-.096-1.201-.288-1.726-.187-.528-.477-.952-.869-1.272-.392-.32-.886-.479-1.483-.479-.601 0-1.1.16-1.496.48-.392.319-.684.743-.876 1.271a5.104 5.104 0 0 0-.281 1.726c0 .63.094 1.208.281 1.733.192.524.484.943.876 1.259.396.315.895.473 1.496.473Zm8.075-4.424V48h-1.911v-9.818h1.834v1.598h.122c.225-.52.579-.938 1.061-1.253.485-.315 1.097-.473 1.834-.473.669 0 1.255.14 1.758.422.503.277.893.69 1.17 1.24.277.55.415 1.23.415 2.039V48h-1.911v-6.015c0-.712-.185-1.268-.556-1.668-.371-.405-.88-.608-1.528-.608-.443 0-.837.096-1.182.288a2.066 2.066 0 0 0-.812.844c-.196.366-.294.81-.294 1.33Zm15.664-1.591-1.733.307a2.036 2.036 0 0 0-.345-.633 1.705 1.705 0 0 0-.626-.492c-.264-.128-.595-.192-.991-.192-.541 0-.993.121-1.355.364-.362.239-.543.548-.543.927 0 .328.121.592.364.793.243.2.635.364 1.176.492l1.56.358c.903.209 1.576.53 2.02.965.443.435.664 1 .664 1.694 0 .588-.17 1.112-.511 1.572-.337.456-.807.814-1.413 1.074-.6.26-1.297.39-2.09.39-1.099 0-1.996-.234-2.691-.703-.694-.473-1.121-1.144-1.278-2.014l1.847-.28c.115.48.352.845.71 1.092.358.243.824.365 1.399.365.627 0 1.128-.13 1.503-.39.375-.264.562-.586.562-.965 0-.307-.115-.565-.345-.774-.226-.209-.573-.366-1.042-.473l-1.662-.364c-.916-.209-1.594-.541-2.033-.997-.434-.456-.652-1.034-.652-1.733 0-.58.162-1.086.486-1.52.324-.436.771-.774 1.342-1.017.572-.247 1.226-.371 1.963-.371 1.061 0 1.896.23 2.506.69.609.456 1.012 1.068 1.208 1.835ZM749.978 24h-2.096l4.711-13.09h2.282l4.71 13.09h-2.096l-3.701-10.713h-.102L749.978 24Zm.352-5.126h6.801v1.662h-6.801v-1.662Zm10.453 8.808v-13.5h1.866v1.591h.16a5.34 5.34 0 0 1 .479-.71c.209-.268.499-.502.87-.702.37-.205.86-.307 1.47-.307.792 0 1.5.2 2.122.6.622.401 1.11.979 1.464 1.733.358.754.537 1.662.537 2.723s-.177 1.971-.531 2.73c-.354.754-.839 1.335-1.457 1.744-.618.405-1.324.608-2.116.608-.597 0-1.085-.1-1.464-.3-.375-.2-.669-.435-.882-.704a5.322 5.322 0 0 1-.492-.716h-.115v5.21h-1.911Zm1.872-8.591c0 .69.101 1.295.301 1.815.2.52.49.927.869 1.221.379.29.844.435 1.394.435.571 0 1.048-.152 1.431-.454.384-.307.674-.722.87-1.247.2-.524.3-1.114.3-1.77 0-.648-.098-1.23-.294-1.745-.192-.516-.481-.923-.869-1.221-.384-.298-.863-.447-1.438-.447-.554 0-1.023.142-1.407.428-.379.285-.667.684-.863 1.195-.196.512-.294 1.108-.294 1.79Zm8.697 8.59v-13.5h1.866v1.592h.16a5.36 5.36 0 0 1 .48-.71c.208-.268.498-.502.869-.702.371-.205.861-.307 1.47-.307.793 0 1.5.2 2.122.6.622.401 1.11.979 1.464 1.733.358.754.537 1.662.537 2.723s-.177 1.971-.531 2.73c-.353.754-.839 1.335-1.457 1.744-.618.405-1.323.608-2.116.608-.596 0-1.084-.1-1.464-.3-.375-.2-.669-.435-.882-.704a5.322 5.322 0 0 1-.492-.716h-.115v5.21h-1.911Zm1.873-8.59c0 .69.1 1.295.3 1.815.2.52.49.927.87 1.221.379.29.843.435 1.393.435.571 0 1.048-.152 1.432-.454.383-.307.673-.722.869-1.247.2-.524.301-1.114.301-1.77 0-.648-.098-1.23-.294-1.745-.192-.516-.482-.923-.87-1.221-.383-.298-.863-.447-1.438-.447-.554 0-1.023.142-1.406.428-.38.285-.667.684-.863 1.195-.196.512-.294 1.108-.294 1.79Zm10.608-8.182V24h-1.912V10.91h1.912ZM785.864 24v-9.818h1.911V24h-1.911Zm.965-11.333c-.332 0-.618-.11-.857-.332a1.081 1.081 0 0 1-.351-.806c0-.315.117-.584.351-.805.239-.226.525-.34.857-.34.332 0 .616.114.85.34.239.221.358.49.358.805 0 .311-.119.58-.358.806a1.192 1.192 0 0 1-.85.332Zm7.113 11.531c-.951 0-1.769-.215-2.455-.645a4.269 4.269 0 0 1-1.572-1.797c-.367-.762-.55-1.636-.55-2.62 0-.997.188-1.877.563-2.64.375-.767.903-1.366 1.585-1.796.682-.43 1.485-.646 2.41-.646.745 0 1.41.139 1.994.415a3.577 3.577 0 0 1 1.413 1.151c.362.494.577 1.072.645 1.732h-1.86a2.23 2.23 0 0 0-.703-1.189c-.362-.332-.848-.498-1.457-.498-.533 0-1 .14-1.4.422-.397.277-.706.673-.927 1.189-.222.51-.333 1.116-.333 1.815 0 .716.109 1.334.326 1.854.218.52.525.922.921 1.208.4.285.871.428 1.413.428.362 0 .69-.066.984-.198a2.01 2.01 0 0 0 .748-.582c.204-.251.347-.554.428-.907h1.86a3.614 3.614 0 0 1-.62 1.7c-.345.498-.807.89-1.387 1.176-.575.285-1.251.428-2.026.428Zm8.394.02a4.008 4.008 0 0 1-1.687-.346 2.844 2.844 0 0 1-1.196-1.016c-.289-.443-.434-.987-.434-1.63 0-.554.106-1.01.319-1.368a2.36 2.36 0 0 1 .863-.85 4.512 4.512 0 0 1 1.215-.473c.447-.107.903-.188 1.368-.243l1.432-.166c.366-.047.632-.122.799-.224.166-.102.249-.268.249-.499v-.044c0-.559-.158-.991-.473-1.298-.311-.307-.776-.46-1.394-.46-.643 0-1.15.143-1.521.428-.366.281-.62.595-.761.94l-1.796-.41c.213-.596.524-1.078.933-1.444.414-.37.889-.64 1.426-.805a5.561 5.561 0 0 1 1.694-.256c.392 0 .807.047 1.246.14.443.09.857.256 1.24.5.388.242.706.59.953 1.041.247.448.37 1.03.37 1.745V24h-1.866v-1.342h-.077c-.123.247-.309.49-.556.728a2.948 2.948 0 0 1-.952.595c-.388.157-.853.236-1.394.236Zm.416-1.535c.528 0 .98-.104 1.355-.313.379-.209.667-.482.863-.818.2-.341.3-.705.3-1.093v-1.266c-.068.068-.2.132-.396.192a6.197 6.197 0 0 1-.658.147c-.248.038-.488.075-.723.109l-.588.076a4.735 4.735 0 0 0-1.016.237c-.303.11-.546.27-.729.48-.179.204-.268.476-.268.817 0 .473.174.831.524 1.074.349.239.795.358 1.336.358Zm11.018-8.501v1.534h-5.363v-1.534h5.363Zm-3.925-2.353h1.912v9.288c0 .37.055.65.166.837a.866.866 0 0 0 .428.378c.179.064.373.096.582.096.153 0 .287-.011.403-.032l.268-.052.345 1.58a3.205 3.205 0 0 1-.473.127c-.204.047-.46.073-.767.077a3.36 3.36 0 0 1-1.406-.269 2.414 2.414 0 0 1-1.055-.869c-.268-.392-.403-.884-.403-1.476V11.83ZM815.344 24v-9.818h1.912V24h-1.912Zm.966-11.333c-.333 0-.618-.11-.857-.332a1.082 1.082 0 0 1-.352-.806c0-.315.118-.584.352-.805.239-.226.524-.34.857-.34.332 0 .615.114.85.34.238.221.358.49.358.805 0 .311-.12.58-.358.806a1.194 1.194 0 0 1-.85.332Zm7.112 11.531c-.92 0-1.723-.21-2.409-.633a4.265 4.265 0 0 1-1.598-1.77c-.38-.759-.569-1.645-.569-2.66 0-1.018.189-1.908.569-2.671.379-.763.912-1.355 1.598-1.777.686-.422 1.489-.633 2.409-.633.921 0 1.724.21 2.41.633.686.422 1.219 1.014 1.598 1.777.379.763.569 1.653.569 2.672 0 1.014-.19 1.9-.569 2.659a4.265 4.265 0 0 1-1.598 1.77c-.686.422-1.489.633-2.41.633Zm.007-1.604c.596 0 1.091-.158 1.483-.473.392-.316.682-.735.869-1.26a5.002 5.002 0 0 0 .288-1.732c0-.626-.096-1.201-.288-1.726-.187-.528-.477-.952-.869-1.272-.392-.32-.887-.479-1.483-.479-.601 0-1.1.16-1.496.48-.392.319-.684.743-.876 1.271a5.104 5.104 0 0 0-.281 1.726c0 .63.094 1.208.281 1.732.192.525.484.944.876 1.26.396.315.895.473 1.496.473Zm8.075-4.424V24h-1.912v-9.818h1.835v1.598h.121c.226-.52.58-.938 1.062-1.253.485-.315 1.097-.473 1.834-.473.669 0 1.255.14 1.758.422.503.277.893.69 1.17 1.24.277.55.415 1.23.415 2.039V24h-1.911v-6.015c0-.712-.186-1.268-.556-1.668-.371-.405-.88-.607-1.528-.607-.443 0-.837.095-1.182.287a2.066 2.066 0 0 0-.812.844c-.196.366-.294.81-.294 1.33Zm15.664-1.591-1.733.307a2.036 2.036 0 0 0-.345-.633 1.705 1.705 0 0 0-.626-.492c-.265-.128-.595-.192-.991-.192-.541 0-.993.121-1.355.364-.362.239-.544.548-.544.927 0 .328.122.592.365.793.243.2.635.364 1.176.492l1.56.358c.903.209 1.576.53 2.02.965.443.435.664 1 .664 1.694 0 .588-.17 1.112-.511 1.572-.337.456-.808.814-1.413 1.074-.601.26-1.297.39-2.09.39-1.099 0-1.996-.234-2.691-.703-.695-.473-1.121-1.144-1.278-2.014l1.847-.28c.115.48.351.845.709 1.092.358.243.825.365 1.4.365.627 0 1.127-.13 1.502-.39.375-.264.563-.586.563-.965 0-.307-.115-.565-.345-.774-.226-.209-.573-.366-1.042-.473l-1.662-.364c-.916-.209-1.594-.541-2.033-.997-.434-.456-.652-1.034-.652-1.733 0-.58.162-1.086.486-1.52.324-.436.771-.774 1.342-1.017.571-.247 1.226-.371 1.963-.371 1.061 0 1.896.23 2.505.69.61.456 1.012 1.068 1.209 1.835Zm10.112 7.62c-.95 0-1.768-.216-2.455-.646a4.276 4.276 0 0 1-1.572-1.797c-.366-.762-.55-1.636-.55-2.62 0-.997.188-1.877.563-2.64.375-.767.903-1.366 1.585-1.796.682-.43 1.485-.646 2.41-.646.746 0 1.41.139 1.994.415a3.577 3.577 0 0 1 1.413 1.151c.362.494.577 1.072.645 1.732h-1.86a2.223 2.223 0 0 0-.703-1.189c-.362-.332-.848-.498-1.457-.498-.533 0-1 .14-1.4.422-.396.277-.705.673-.927 1.189-.222.51-.332 1.116-.332 1.815 0 .716.108 1.334.326 1.854.217.52.524.922.92 1.208.401.285.872.428 1.413.428.362 0 .69-.066.984-.198a2.01 2.01 0 0 0 .748-.582c.205-.251.347-.554.428-.907h1.86a3.603 3.603 0 0 1-.62 1.7c-.345.498-.807.89-1.387 1.176-.575.285-1.25.428-2.026.428Zm7.448-13.29V24h-1.911V10.91h1.911Zm6.167 13.29c-.92 0-1.723-.212-2.41-.634a4.272 4.272 0 0 1-1.598-1.77c-.379-.759-.568-1.645-.568-2.66 0-1.018.189-1.908.568-2.671.38-.763.912-1.355 1.598-1.777.687-.422 1.49-.633 2.41-.633.921 0 1.724.21 2.41.633.686.422 1.219 1.014 1.598 1.777.379.763.569 1.653.569 2.672 0 1.014-.19 1.9-.569 2.659a4.265 4.265 0 0 1-1.598 1.77c-.686.422-1.489.633-2.41.633Zm.007-1.605c.596 0 1.091-.158 1.483-.473.392-.316.681-.735.869-1.26a5.002 5.002 0 0 0 .288-1.732c0-.626-.096-1.201-.288-1.726-.188-.528-.477-.952-.869-1.272-.392-.32-.887-.479-1.483-.479-.601 0-1.1.16-1.496.48-.392.319-.684.743-.876 1.271a5.104 5.104 0 0 0-.281 1.726c0 .63.094 1.208.281 1.732.192.525.484.944.876 1.26.396.315.895.473 1.496.473Zm13.521-6.015-1.733.307a2.036 2.036 0 0 0-.345-.633 1.705 1.705 0 0 0-.626-.492c-.264-.128-.595-.192-.991-.192-.541 0-.993.121-1.355.364-.362.239-.543.548-.543.927 0 .328.121.592.364.793.243.2.635.364 1.176.492l1.56.358c.903.209 1.576.53 2.02.965.443.435.664 1 .664 1.694 0 .588-.17 1.112-.511 1.572-.337.456-.808.814-1.413 1.074-.601.26-1.297.39-2.09.39-1.099 0-1.996-.234-2.691-.703-.695-.473-1.121-1.144-1.278-2.014l1.847-.28c.115.48.352.845.71 1.092.357.243.824.365 1.399.365.627 0 1.127-.13 1.502-.39.375-.264.563-.586.563-.965 0-.307-.115-.565-.345-.774-.226-.209-.573-.366-1.042-.473l-1.662-.364c-.916-.209-1.594-.541-2.033-.997-.434-.456-.652-1.034-.652-1.733 0-.58.162-1.086.486-1.52.324-.436.771-.774 1.342-1.017.571-.247 1.226-.371 1.963-.371 1.061 0 1.896.23 2.505.69.61.456 1.013 1.068 1.209 1.835Zm5.984 7.62c-.967 0-1.8-.208-2.499-.62a4.202 4.202 0 0 1-1.611-1.759c-.375-.758-.562-1.647-.562-2.665 0-1.006.187-1.892.562-2.66.379-.766.908-1.365 1.585-1.795.682-.43 1.479-.646 2.391-.646.554 0 1.091.092 1.611.275.52.183.986.47 1.4.863.413.392.739.901.978 1.527.238.623.358 1.379.358 2.27v.677h-7.805v-1.432h5.932c0-.503-.103-.948-.307-1.336a2.321 2.321 0 0 0-.863-.926c-.366-.226-.797-.34-1.291-.34-.537 0-1.006.133-1.406.397-.397.26-.704.601-.921 1.023a2.953 2.953 0 0 0-.319 1.361v1.119c0 .656.115 1.214.345 1.675.234.46.56.811.978 1.054.417.239.905.358 1.463.358.363 0 .693-.05.991-.153.299-.107.556-.264.774-.473.217-.209.383-.467.498-.773l1.809.326c-.145.532-.405.999-.78 1.4a3.77 3.77 0 0 1-1.4.926c-.558.218-1.195.326-1.911.326Zm13.15-7.62-1.732.307a2.036 2.036 0 0 0-.345-.633 1.705 1.705 0 0 0-.626-.492c-.265-.128-.595-.192-.991-.192-.541 0-.993.121-1.355.364-.362.239-.544.548-.544.927 0 .328.122.592.365.793.243.2.635.364 1.176.492l1.56.358c.903.209 1.576.53 2.019.965.444.435.665 1 .665 1.694 0 .588-.17 1.112-.511 1.572-.337.456-.808.814-1.413 1.074-.601.26-1.297.39-2.09.39-1.099 0-1.996-.234-2.691-.703-.695-.473-1.121-1.144-1.278-2.014l1.847-.28c.115.48.351.845.709 1.092.358.243.825.365 1.4.365.627 0 1.127-.13 1.502-.39.375-.264.563-.586.563-.965 0-.307-.115-.565-.345-.774-.226-.209-.573-.366-1.042-.473l-1.662-.364c-.916-.209-1.594-.541-2.033-.997-.434-.456-.652-1.034-.652-1.733 0-.58.162-1.086.486-1.52.324-.436.771-.774 1.342-1.017.571-.247 1.225-.371 1.963-.371 1.061 0 1.896.23 2.505.69.61.456 1.012 1.068 1.208 1.835ZM962.093 19V5.91h4.666c1.019 0 1.863.184 2.532.555.669.37 1.169.878 1.502 1.522.332.639.498 1.359.498 2.16 0 .805-.168 1.53-.505 2.173-.332.64-.835 1.147-1.508 1.522-.669.37-1.511.556-2.525.556h-3.209v-1.675h3.03c.643 0 1.165-.11 1.566-.332.401-.226.695-.533.882-.92.188-.389.281-.83.281-1.324 0-.494-.093-.933-.281-1.317a2.018 2.018 0 0 0-.888-.901c-.401-.217-.929-.326-1.586-.326h-2.48V19h-1.975Zm10.82 0V9.182h1.912V19h-1.912Zm.966-11.333c-.333 0-.618-.11-.857-.332a1.083 1.083 0 0 1-.352-.806c0-.315.118-.584.352-.805.239-.226.524-.34.857-.34.332 0 .615.114.85.34.238.221.358.49.358.805 0 .311-.12.58-.358.806a1.194 1.194 0 0 1-.85.332Zm7.56 1.515v1.534h-5.363V9.182h5.363Zm-3.925-2.352h1.911v9.287c0 .37.056.65.167.837.11.184.253.31.428.378.179.064.373.096.582.096.153 0 .287-.011.402-.032l.269-.052.345 1.58a3.241 3.241 0 0 1-.473.127c-.205.047-.46.073-.767.077a3.36 3.36 0 0 1-1.406-.269 2.409 2.409 0 0 1-1.055-.869c-.269-.392-.403-.884-.403-1.476V6.83Zm9.529 12.368c-.95 0-1.768-.215-2.454-.645a4.278 4.278 0 0 1-1.573-1.797c-.366-.762-.549-1.636-.549-2.62 0-.997.187-1.877.562-2.64.375-.767.903-1.366 1.585-1.796.682-.43 1.485-.646 2.41-.646.746 0 1.411.138 1.994.415a3.577 3.577 0 0 1 1.413 1.151c.362.494.577 1.072.646 1.732h-1.86a2.231 2.231 0 0 0-.704-1.189c-.362-.332-.848-.498-1.457-.498-.533 0-.999.14-1.4.422-.396.277-.705.673-.927 1.189-.221.51-.332 1.116-.332 1.815 0 .716.109 1.334.326 1.854.217.52.524.922.92 1.208.401.285.872.428 1.413.428.362 0 .69-.066.984-.198.299-.137.548-.33.748-.582.205-.251.348-.554.429-.907h1.86a3.625 3.625 0 0 1-.62 1.7c-.346.498-.808.89-1.387 1.176-.576.285-1.251.428-2.027.428Zm7.449-6.027V19h-1.911V5.91h1.885v4.87h.122a2.82 2.82 0 0 1 1.054-1.26c.473-.31 1.091-.466 1.854-.466.673 0 1.261.138 1.764.415.507.277.9.69 1.18 1.24.28.546.42 1.228.42 2.046V19h-1.913v-6.015c0-.72-.185-1.278-.556-1.675-.371-.4-.886-.6-1.547-.6-.452 0-.857.095-1.214.287a2.076 2.076 0 0 0-.838.844c-.2.366-.3.81-.3 1.33ZM1007.25 19V5.91h8.2v1.7h-6.23v3.988h5.8v1.694h-5.8V17.3h6.31V19h-8.28Zm18.55-9.818L1022.24 19h-2.05l-3.57-9.818h2.06l2.48 7.555h.11l2.48-7.555h2.05Zm5.15 10.016c-.97 0-1.8-.207-2.5-.62a4.238 4.238 0 0 1-1.61-1.758c-.37-.758-.56-1.647-.56-2.665 0-1.006.19-1.892.56-2.66.38-.766.91-1.365 1.59-1.795.68-.43 1.47-.646 2.39-.646.55 0 1.09.092 1.61.275.52.183.98.47 1.4.863.41.392.74.901.98 1.527.23.623.35 1.379.35 2.27v.677h-7.8v-1.432h5.93c0-.502-.1-.948-.31-1.336-.2-.392-.49-.7-.86-.926-.37-.226-.8-.34-1.29-.34-.54 0-1.01.133-1.41.397-.39.26-.7.601-.92 1.023-.21.418-.32.871-.32 1.361v1.119c0 .656.12 1.214.35 1.675.23.46.56.811.98 1.054.41.239.9.358 1.46.358.36 0 .69-.05.99-.153.3-.107.56-.264.77-.473.22-.209.39-.467.5-.773l1.81.326c-.14.532-.4.999-.78 1.4-.37.396-.84.705-1.4.926-.56.218-1.19.326-1.91.326Zm7.71-6.027V19h-1.92V9.182h1.84v1.598h.12c.23-.52.58-.938 1.06-1.253.49-.315 1.1-.473 1.84-.473.66 0 1.25.14 1.75.422.51.277.9.69 1.17 1.24.28.55.42 1.23.42 2.039V19h-1.91v-6.015c0-.712-.19-1.268-.56-1.668-.37-.405-.88-.607-1.53-.607-.44 0-.83.095-1.18.287-.34.192-.61.473-.81.844-.2.366-.29.81-.29 1.33Zm12.88-3.99v1.535h-5.36V9.182h5.36Zm-3.92-2.351h1.91v9.287c0 .37.06.65.17.837.11.184.25.31.43.378.17.064.37.096.58.096.15 0 .28-.011.4-.032.12-.022.2-.039.27-.052l.34 1.58c-.11.042-.26.085-.47.127-.2.047-.46.073-.77.077-.5.008-.97-.081-1.4-.269a2.405 2.405 0 0 1-1.06-.869c-.27-.392-.4-.884-.4-1.476V6.83Zm13.53 12.355c-.88 0-1.63-.16-2.27-.479-.63-.32-1.11-.754-1.45-1.304-.35-.554-.52-1.18-.52-1.88 0-.532.12-1.005.34-1.418.22-.418.53-.804.92-1.157.4-.354.86-.71 1.38-1.068l2.11-1.49c.36-.233.63-.48.83-.74.2-.265.3-.59.3-.979 0-.306-.13-.6-.39-.882-.27-.28-.62-.422-1.06-.422-.31 0-.58.075-.81.224-.23.15-.42.341-.55.575-.13.23-.19.473-.19.73 0 .297.08.598.24.9.17.303.38.616.64.94.26.32.54.652.82.997l6.08 7.268h-2.16l-5.03-5.913c-.42-.498-.82-.967-1.18-1.406-.36-.443-.65-.89-.88-1.342a3.353 3.353 0 0 1-.33-1.477c0-.6.13-1.133.41-1.598a2.87 2.87 0 0 1 1.15-1.1c.5-.263 1.08-.396 1.74-.396.68 0 1.25.133 1.74.397.48.26.85.607 1.11 1.042.27.43.4.901.4 1.412 0 .622-.16 1.172-.47 1.65-.3.473-.73.907-1.27 1.303l-2.63 1.937c-.51.375-.86.746-1.06 1.112-.2.363-.3.646-.3.85 0 .376.1.723.29 1.043.2.32.47.575.82.767.35.191.77.287 1.24.287.48 0 .96-.104 1.42-.313.46-.213.88-.518 1.26-.914s.68-.872.9-1.426c.22-.553.33-1.173.33-1.86h1.73c0 .844-.1 1.558-.29 2.142-.19.58-.43 1.052-.7 1.419-.27.362-.52.645-.76.85-.08.068-.15.136-.22.204-.06.069-.14.137-.21.205-.45.447-.98.778-1.61.99-.63.214-1.25.32-1.86.32Zm16.84-13.276h1.97v9.281c0 .84-.17 1.558-.5 2.155a3.36 3.36 0 0 1-1.38 1.367c-.6.311-1.3.467-2.1.467-.74 0-1.4-.134-1.99-.403a3.296 3.296 0 0 1-1.39-1.17c-.33-.515-.5-1.142-.5-1.879h1.96c0 .363.08.676.25.94.17.264.4.47.7.62.3.145.64.217 1.02.217.42 0 .77-.087 1.06-.262.3-.179.52-.44.67-.786.16-.345.23-.767.23-1.266V5.91Zm10.37 9.02V9.181h1.92V19h-1.88v-1.7h-.1c-.23.524-.59.96-1.09 1.31-.49.345-1.11.518-1.85.518-.63 0-1.18-.139-1.67-.416-.48-.28-.86-.696-1.14-1.246-.27-.55-.41-1.23-.41-2.04V9.183h1.91v6.015c0 .669.19 1.201.56 1.598.37.396.85.594 1.44.594.36 0 .72-.09 1.07-.268.36-.18.66-.45.89-.812.24-.362.36-.823.35-1.38Zm3.95 4.071V9.182h1.84v1.56h.11c.18-.529.49-.944.94-1.247.46-.307.97-.46 1.55-.46a8.013 8.013 0 0 1 .81.045v1.828a3.064 3.064 0 0 0-.41-.07c-.19-.03-.39-.045-.59-.045-.45 0-.85.096-1.2.287a2.1 2.1 0 0 0-.83.787c-.21.332-.31.711-.31 1.137V19h-1.91Zm7.87 3.682c-.28 0-.54-.024-.78-.07-.23-.043-.41-.09-.52-.141l.46-1.566c.35.094.66.134.93.121a1.1 1.1 0 0 0 .72-.306c.22-.192.41-.505.57-.94l.23-.652-3.59-9.946h2.05l2.48 7.62h.11l2.48-7.62h2.05l-4.04 11.128a4.5 4.5 0 0 1-.72 1.298 2.77 2.77 0 0 1-1.03.805c-.4.18-.87.269-1.4.269Zm-95.54 10.666c-.07-.605-.35-1.074-.84-1.406-.5-.337-1.12-.505-1.87-.505-.53 0-1 .085-1.39.255-.39.167-.698.397-.915.69-.213.29-.32.62-.32.992 0 .31.073.58.217.805.15.226.343.415.578.569.25.149.51.275.78.377.28.098.55.179.8.243l1.28.332c.42.103.85.241 1.29.416.44.175.84.405 1.22.69.37.286.67.64.9 1.061.24.422.36.927.36 1.515 0 .742-.2 1.4-.58 1.975-.38.575-.93 1.03-1.65 1.362-.72.332-1.6.498-2.62.498-.98 0-1.83-.155-2.543-.466-.716-.311-1.276-.752-1.681-1.323-.405-.576-.629-1.258-.671-2.046h1.981c.039.473.192.867.461 1.183.272.31.623.543 1.043.696.42.15.89.224 1.4.224.56 0 1.05-.087 1.49-.262.44-.179.78-.426 1.03-.742.25-.32.38-.692.38-1.118 0-.388-.11-.705-.33-.953-.22-.247-.52-.451-.89-.613a8.607 8.607 0 0 0-1.26-.428l-1.55-.422c-1.045-.286-1.876-.706-2.49-1.26-.609-.553-.914-1.286-.914-2.198 0-.755.205-1.413.614-1.975.409-.563.963-1 1.662-1.31.698-.316 1.488-.474 2.368-.474.88 0 1.67.156 2.34.467.68.31 1.22.74 1.61 1.285.4.54.6 1.163.62 1.866h-1.91Zm7.98 9.85c-.96 0-1.8-.206-2.49-.62a4.196 4.196 0 0 1-1.62-1.758c-.37-.758-.56-1.647-.56-2.665 0-1.006.19-1.892.56-2.66.38-.766.91-1.365 1.59-1.795.68-.43 1.48-.646 2.39-.646.55 0 1.09.092 1.61.275.52.183.99.47 1.4.863.41.392.74.901.98 1.527.24.623.36 1.379.36 2.27v.677h-7.81v-1.432h5.93c0-.503-.1-.948-.3-1.336a2.31 2.31 0 0 0-.87-.926c-.36-.226-.79-.34-1.29-.34-.53 0-1 .133-1.4.397-.4.26-.71.601-.92 1.023a2.87 2.87 0 0 0-.32 1.361v1.119c0 .656.11 1.214.34 1.675.24.46.56.812.98 1.054.42.239.91.358 1.46.358.37 0 .7-.05.99-.153.3-.107.56-.264.78-.473.22-.209.38-.467.5-.774l1.81.326c-.15.533-.41 1-.78 1.4-.38.397-.84.706-1.4.927-.56.218-1.2.326-1.92.326Zm7.71-13.289V43h-1.91V29.91h1.91Zm6.26 13.29c-.97 0-1.8-.207-2.5-.62a4.238 4.238 0 0 1-1.61-1.759c-.37-.758-.56-1.647-.56-2.665 0-1.006.19-1.892.56-2.66.38-.766.91-1.365 1.59-1.795.68-.43 1.48-.646 2.39-.646.55 0 1.09.092 1.61.275.52.183.98.47 1.4.863.41.392.74.901.98 1.527.23.623.35 1.379.35 2.27v.677h-7.8v-1.432h5.93c0-.503-.1-.948-.31-1.336-.2-.392-.49-.7-.86-.926-.37-.226-.8-.34-1.29-.34-.54 0-1.01.133-1.41.397-.39.26-.7.601-.92 1.023-.21.417-.32.871-.32 1.361v1.119c0 .656.12 1.214.35 1.675.23.46.56.812.98 1.054.41.239.9.358 1.46.358.36 0 .69-.05.99-.153.3-.107.56-.264.77-.473.22-.209.39-.467.5-.774l1.81.326c-.14.533-.4 1-.78 1.4-.37.397-.83.706-1.4.927-.56.218-1.19.326-1.91.326Zm9.93 0c-.95 0-1.77-.216-2.45-.646-.69-.435-1.21-1.034-1.58-1.797-.36-.762-.55-1.636-.55-2.62 0-.998.19-1.878.57-2.64.37-.767.9-1.366 1.58-1.796.68-.43 1.49-.646 2.41-.646.75 0 1.41.139 2 .415a3.61 3.61 0 0 1 1.41 1.151c.36.494.58 1.072.64 1.732h-1.86c-.1-.46-.33-.856-.7-1.189-.36-.332-.85-.498-1.46-.498-.53 0-1 .14-1.4.422-.39.277-.7.673-.92 1.189-.23.51-.34 1.116-.34 1.815 0 .716.11 1.334.33 1.854.22.52.52.922.92 1.208.4.285.87.428 1.41.428.37 0 .69-.066.99-.198.3-.137.54-.33.75-.582.2-.251.34-.554.42-.907h1.86a3.48 3.48 0 0 1-.62 1.7c-.34.498-.8.89-1.38 1.176-.58.285-1.25.428-2.03.428Zm10.12-10.017v1.534h-5.36v-1.534h5.36Zm-3.92-2.353h1.91v9.288c0 .37.05.65.16.838.11.183.26.309.43.377.18.064.37.096.58.096.16 0 .29-.011.41-.032l.26-.052.35 1.58a3.786 3.786 0 0 1-1.24.205c-.5.007-.97-.082-1.41-.27a2.435 2.435 0 0 1-1.05-.869c-.27-.392-.4-.884-.4-1.477V30.83ZM1048.21 43v-9.818h1.92V43h-1.92Zm.97-11.333c-.33 0-.62-.11-.86-.333a1.095 1.095 0 0 1-.35-.805c0-.315.12-.584.35-.805.24-.226.53-.34.86-.34.33 0 .62.114.85.34.24.221.36.49.36.805 0 .311-.12.58-.36.805-.23.222-.52.333-.85.333Zm7.11 11.531c-.92 0-1.72-.21-2.41-.633a4.317 4.317 0 0 1-1.6-1.77c-.37-.759-.56-1.645-.56-2.66 0-1.018.19-1.908.56-2.671.38-.763.92-1.355 1.6-1.777.69-.422 1.49-.633 2.41-.633.92 0 1.73.21 2.41.633.69.422 1.22 1.014 1.6 1.777.38.763.57 1.653.57 2.672 0 1.014-.19 1.9-.57 2.659-.38.758-.91 1.349-1.6 1.77-.68.422-1.49.633-2.41.633Zm.01-1.604c.6 0 1.09-.158 1.48-.473.39-.316.68-.735.87-1.26a5.05 5.05 0 0 0 .29-1.732c0-.626-.1-1.201-.29-1.726-.19-.528-.48-.952-.87-1.272-.39-.32-.88-.479-1.48-.479s-1.1.16-1.5.48c-.39.319-.68.743-.87 1.271a5.03 5.03 0 0 0-.28 1.726c0 .63.09 1.208.28 1.733.19.524.48.943.87 1.259.4.315.9.473 1.5.473Zm8.07-4.424V43h-1.91v-9.818h1.84v1.598h.12c.22-.52.58-.938 1.06-1.253.49-.315 1.1-.473 1.83-.473.67 0 1.26.14 1.76.422.5.277.89.69 1.17 1.24.28.55.42 1.23.42 2.039V43h-1.91v-6.015c0-.712-.19-1.268-.56-1.668-.37-.405-.88-.608-1.53-.608-.44 0-.84.096-1.18.288-.34.192-.61.473-.81.844-.2.366-.3.81-.3 1.33ZM1163.26 5.91h2.4l4.17 10.175h.15l4.17-10.176h2.39V19h-1.88V9.527h-.12l-3.86 9.454h-1.56l-3.86-9.46h-.12V19h-1.88V5.91Zm19.69 13.288c-.96 0-1.8-.207-2.5-.62a4.238 4.238 0 0 1-1.61-1.758c-.37-.758-.56-1.647-.56-2.665 0-1.006.19-1.892.56-2.66.38-.766.91-1.365 1.59-1.795.68-.43 1.48-.646 2.39-.646.55 0 1.09.092 1.61.275.52.183.99.47 1.4.863.41.392.74.901.98 1.527.24.623.36 1.379.36 2.27v.677h-7.81v-1.432h5.93c0-.502-.1-.948-.3-1.336a2.38 2.38 0 0 0-.87-.926c-.36-.226-.79-.34-1.29-.34-.53 0-1 .133-1.4.397-.4.26-.71.601-.92 1.023a2.87 2.87 0 0 0-.32 1.361v1.119c0 .656.11 1.214.34 1.675.24.46.56.811.98 1.054.42.239.9.358 1.46.358.37 0 .7-.05.99-.153.3-.107.56-.264.78-.473.21-.209.38-.467.5-.773l1.8.326c-.14.532-.4.999-.77 1.4-.38.396-.84.705-1.4.926-.56.218-1.2.326-1.92.326Zm7.71-6.027V19h-1.91V9.182h1.83v1.598h.12c.23-.52.58-.938 1.06-1.253.49-.315 1.1-.473 1.84-.473.67 0 1.25.14 1.76.422.5.277.89.69 1.17 1.24.27.55.41 1.23.41 2.039V19h-1.91v-6.015c0-.712-.19-1.268-.56-1.668-.37-.405-.88-.607-1.52-.607-.45 0-.84.095-1.19.287-.34.192-.61.473-.81.844-.19.366-.29.81-.29 1.33Zm12.89-3.99v1.535h-5.37V9.182h5.37Zm-3.93-2.351h1.91v9.287c0 .37.06.65.17.837.11.184.25.31.43.378.18.064.37.096.58.096.15 0 .29-.011.4-.032.12-.022.21-.039.27-.052l.35 1.58c-.11.042-.27.085-.48.127-.2.047-.46.073-.76.077-.51.008-.97-.081-1.41-.269a2.379 2.379 0 0 1-1.05-.869c-.27-.392-.41-.884-.41-1.476V6.83Zm9.53 12.368c-.92 0-1.72-.21-2.41-.633a4.317 4.317 0 0 1-1.6-1.77c-.37-.759-.56-1.645-.56-2.66 0-1.018.19-1.908.56-2.671a4.31 4.31 0 0 1 1.6-1.777c.69-.422 1.49-.633 2.41-.633.92 0 1.73.21 2.41.633.69.422 1.22 1.014 1.6 1.777.38.763.57 1.653.57 2.672 0 1.014-.19 1.9-.57 2.659-.38.758-.91 1.348-1.6 1.77-.68.422-1.49.633-2.41.633Zm.01-1.604c.6 0 1.09-.158 1.48-.473.39-.316.68-.735.87-1.26a5.05 5.05 0 0 0 .29-1.732c0-.626-.1-1.201-.29-1.726-.19-.528-.48-.952-.87-1.272-.39-.32-.88-.479-1.48-.479s-1.1.16-1.5.48c-.39.319-.68.743-.87 1.271a5.03 5.03 0 0 0-.28 1.726c0 .63.09 1.208.28 1.732.19.525.48.944.87 1.26.4.315.9.473 1.5.473Zm6.16 1.406V9.182h1.85v1.56h.1c.18-.529.5-.944.95-1.247.45-.307.97-.46 1.54-.46a8.697 8.697 0 0 1 .82.045v1.828a3.84 3.84 0 0 0-.41-.07 3.92 3.92 0 0 0-.59-.045c-.45 0-.86.096-1.21.287a2.1 2.1 0 0 0-.83.787c-.2.332-.31.711-.31 1.137V19h-1.91Zm17.95-7.421-1.73.307a1.973 1.973 0 0 0-.35-.633 1.69 1.69 0 0 0-.62-.492c-.27-.128-.6-.192-.99-.192-.54 0-1 .121-1.36.364-.36.239-.54.548-.54.927 0 .328.12.592.36.793.25.2.64.364 1.18.492l1.56.358c.9.209 1.58.53 2.02.965.44.435.66 1 .66 1.694 0 .588-.17 1.112-.51 1.572-.33.456-.81.814-1.41 1.074-.6.26-1.3.39-2.09.39-1.1 0-2-.234-2.69-.703-.7-.473-1.12-1.144-1.28-2.014l1.85-.28c.11.48.35.845.71 1.092.35.243.82.365 1.4.365.62 0 1.12-.13 1.5-.39.37-.264.56-.586.56-.965a.999.999 0 0 0-.34-.774c-.23-.209-.58-.366-1.05-.473l-1.66-.364c-.91-.209-1.59-.541-2.03-.997-.44-.456-.65-1.034-.65-1.733 0-.58.16-1.086.48-1.52.33-.436.77-.774 1.35-1.017.57-.247 1.22-.371 1.96-.371 1.06 0 1.89.23 2.5.69a3.182 3.182 0 0 1 1.21 1.835Zm5.99 7.62c-.97 0-1.8-.208-2.5-.62-.7-.419-1.23-1.004-1.61-1.759-.38-.758-.57-1.647-.57-2.665 0-1.006.19-1.892.57-2.66.38-.766.9-1.365 1.58-1.795.68-.43 1.48-.646 2.39-.646.56 0 1.09.092 1.61.275.52.183.99.47 1.4.863.42.392.74.901.98 1.527.24.623.36 1.379.36 2.27v.677h-7.81v-1.432h5.94c0-.502-.11-.948-.31-1.336a2.356 2.356 0 0 0-.86-.926c-.37-.226-.8-.34-1.3-.34-.53 0-1 .133-1.4.397-.4.26-.7.601-.92 1.023a2.87 2.87 0 0 0-.32 1.361v1.119c0 .656.11 1.214.34 1.675.24.46.56.811.98 1.054.42.239.91.358 1.47.358.36 0 .69-.05.99-.153.29-.107.55-.264.77-.473.22-.209.38-.467.5-.773l1.81.326c-.15.532-.41.999-.78 1.4-.37.396-.84.705-1.4.926-.56.218-1.2.326-1.91.326Zm13.15-7.62-1.74.307a1.94 1.94 0 0 0-.34-.633c-.15-.2-.36-.364-.63-.492-.26-.128-.59-.192-.99-.192-.54 0-.99.121-1.35.364-.37.239-.55.548-.55.927 0 .328.12.592.37.793.24.2.63.364 1.17.492l1.56.358c.91.209 1.58.53 2.02.965.45.435.67 1 .67 1.694 0 .588-.17 1.112-.51 1.572-.34.456-.81.814-1.42 1.074-.6.26-1.29.39-2.09.39-1.1 0-1.99-.234-2.69-.703-.69-.473-1.12-1.144-1.28-2.014l1.85-.28c.12.48.35.845.71 1.092.36.243.83.365 1.4.365.63 0 1.13-.13 1.5-.39.38-.264.57-.586.57-.965 0-.307-.12-.565-.35-.774-.23-.209-.57-.366-1.04-.473l-1.66-.364c-.92-.209-1.6-.541-2.04-.997-.43-.456-.65-1.034-.65-1.733 0-.58.16-1.086.49-1.52.32-.436.77-.774 1.34-1.017.57-.247 1.23-.371 1.96-.371 1.06 0 1.9.23 2.51.69.61.456 1.01 1.068 1.21 1.835Zm9.11 0-1.74.307a1.94 1.94 0 0 0-.34-.633c-.15-.2-.36-.364-.63-.492-.26-.128-.59-.192-.99-.192-.54 0-.99.121-1.35.364-.37.239-.55.548-.55.927 0 .328.12.592.37.793.24.2.63.364 1.17.492l1.56.358c.91.209 1.58.53 2.02.965.45.435.67 1 .67 1.694 0 .588-.17 1.112-.51 1.572-.34.456-.81.814-1.42 1.074-.6.26-1.29.39-2.09.39-1.1 0-1.99-.234-2.69-.703-.69-.473-1.12-1.144-1.28-2.014l1.85-.28c.12.48.35.845.71 1.092.36.243.83.365 1.4.365.63 0 1.13-.13 1.5-.39.38-.264.57-.586.57-.965 0-.307-.12-.565-.35-.774-.23-.209-.57-.366-1.04-.473l-1.66-.364c-.92-.209-1.6-.541-2.04-.997-.43-.456-.65-1.034-.65-1.733 0-.58.16-1.086.49-1.52.32-.436.77-.774 1.34-1.017.57-.247 1.23-.371 1.96-.371 1.06 0 1.9.23 2.51.69.61.456 1.01 1.068 1.21 1.835Zm1.75 7.421V9.182h1.91V19h-1.91Zm.96-11.333c-.33 0-.61-.11-.85-.332a1.06 1.06 0 0 1-.35-.806c0-.315.11-.584.35-.805.24-.226.52-.34.85-.34.34 0 .62.114.86.34.23.221.35.49.35.805 0 .311-.12.58-.35.806-.24.221-.52.332-.86.332Zm7.12 11.531c-.92 0-1.73-.21-2.41-.633-.69-.422-1.22-1.012-1.6-1.77-.38-.759-.57-1.645-.57-2.66 0-1.018.19-1.908.57-2.671.38-.763.91-1.355 1.6-1.777.68-.422 1.49-.633 2.41-.633.92 0 1.72.21 2.41.633a4.31 4.31 0 0 1 1.6 1.777c.37.763.56 1.653.56 2.672 0 1.014-.19 1.9-.56 2.659a4.317 4.317 0 0 1-1.6 1.77c-.69.422-1.49.633-2.41.633Zm0-1.604c.6 0 1.1-.158 1.49-.473.39-.316.68-.735.87-1.26a5.05 5.05 0 0 0 .28-1.732 5.03 5.03 0 0 0-.28-1.726c-.19-.528-.48-.952-.87-1.272-.39-.32-.89-.479-1.49-.479s-1.1.16-1.49.48c-.39.319-.69.743-.88 1.271-.18.525-.28 1.1-.28 1.726 0 .63.1 1.208.28 1.732.19.525.49.944.88 1.26.39.315.89.473 1.49.473Zm8.08-4.424V19h-1.91V9.182h1.83v1.598h.12c.23-.52.58-.938 1.06-1.253.49-.315 1.1-.473 1.84-.473.67 0 1.25.14 1.76.422.5.277.89.69 1.17 1.24.27.55.41 1.23.41 2.039V19h-1.91v-6.015c0-.712-.18-1.268-.55-1.668-.38-.405-.88-.607-1.53-.607-.45 0-.84.095-1.19.287-.34.192-.61.473-.81.844-.19.366-.29.81-.29 1.33Zm15.66-1.591-1.73.307a2.15 2.15 0 0 0-.34-.633c-.16-.2-.37-.364-.63-.492-.27-.128-.6-.192-.99-.192-.54 0-.99.121-1.36.364-.36.239-.54.548-.54.927 0 .328.12.592.36.793.25.2.64.364 1.18.492l1.56.358c.9.209 1.58.53 2.02.965.44.435.66 1 .66 1.694 0 .588-.17 1.112-.51 1.572-.33.456-.8.814-1.41 1.074-.6.26-1.3.39-2.09.39-1.1 0-2-.234-2.69-.703-.7-.473-1.12-1.144-1.28-2.014l1.85-.28c.11.48.35.845.71 1.092.36.243.82.365 1.4.365.62 0 1.12-.13 1.5-.39.37-.264.56-.586.56-.965a.999.999 0 0 0-.34-.774c-.23-.209-.58-.366-1.04-.473l-1.67-.364c-.91-.209-1.59-.541-2.03-.997-.43-.456-.65-1.034-.65-1.733 0-.58.16-1.086.48-1.52.33-.436.78-.774 1.35-1.017.57-.247 1.22-.371 1.96-.371 1.06 0 1.9.23 2.5.69a3.182 3.182 0 0 1 1.21 1.835Zm10.65-2.397v1.534h-5.55V9.182h5.55ZM1301.72 19V8.044c0-.614.13-1.123.4-1.528.27-.409.62-.713 1.07-.914.44-.204.92-.307 1.44-.307.38 0 .71.032.98.096.28.06.48.115.61.167l-.45 1.546c-.09-.025-.2-.055-.34-.09a1.954 1.954 0 0 0-.51-.057c-.47 0-.8.115-1 .346-.2.23-.29.562-.29.997V19h-1.91Zm9.2.198c-.92 0-1.72-.21-2.41-.633a4.227 4.227 0 0 1-1.59-1.77c-.38-.759-.57-1.645-.57-2.66 0-1.018.19-1.908.57-2.671a4.22 4.22 0 0 1 1.59-1.777c.69-.422 1.49-.633 2.41-.633.92 0 1.73.21 2.41.633.69.422 1.22 1.014 1.6 1.777.38.763.57 1.653.57 2.672 0 1.014-.19 1.9-.57 2.659-.38.758-.91 1.348-1.6 1.77-.68.422-1.49.633-2.41.633Zm.01-1.604c.6 0 1.09-.158 1.48-.473.39-.316.68-.735.87-1.26a5.05 5.05 0 0 0 .29-1.732c0-.626-.1-1.201-.29-1.726-.19-.528-.48-.952-.87-1.272-.39-.32-.88-.479-1.48-.479s-1.1.16-1.5.48c-.39.319-.68.743-.87 1.271a5.03 5.03 0 0 0-.28 1.726c0 .63.09 1.208.28 1.732.19.525.48.944.87 1.26.4.315.9.473 1.5.473Zm6.16 1.406V9.182h1.85v1.56h.1c.18-.529.5-.944.95-1.247.45-.307.97-.46 1.55-.46a8.013 8.013 0 0 1 .81.045v1.828a3.84 3.84 0 0 0-.41-.07 3.92 3.92 0 0 0-.59-.045c-.45 0-.85.096-1.21.287-.35.188-.62.45-.83.787-.2.332-.31.711-.31 1.137V19h-1.91Zm-118.41 14.182v1.534h-5.37v-1.534h5.37Zm-3.93-2.353h1.91v9.288c0 .37.06.65.17.838.11.183.25.309.43.377.18.064.37.096.58.096.15 0 .29-.011.4-.032.12-.022.21-.039.27-.052l.35 1.58c-.11.042-.27.084-.48.127-.2.047-.46.073-.76.077-.51.008-.98-.081-1.41-.269a2.379 2.379 0 0 1-1.05-.869c-.27-.392-.41-.884-.41-1.477V30.83Zm7.62 6.341V43h-1.91V29.91h1.89v4.87h.12a2.83 2.83 0 0 1 1.05-1.26c.48-.31 1.1-.466 1.86-.466.67 0 1.26.139 1.76.415.51.277.9.69 1.18 1.24.28.546.42 1.228.42 2.046V43h-1.91v-6.015c0-.72-.19-1.278-.56-1.675-.37-.4-.88-.6-1.54-.6-.46 0-.86.095-1.22.287-.35.192-.63.473-.84.844-.2.366-.3.81-.3 1.33Zm12.61 6.028c-.97 0-1.8-.206-2.5-.62a4.238 4.238 0 0 1-1.61-1.758c-.37-.758-.56-1.647-.56-2.665 0-1.006.19-1.892.56-2.66.38-.766.91-1.365 1.59-1.795.68-.43 1.48-.646 2.39-.646.55 0 1.09.092 1.61.275.52.183.99.47 1.4.863.41.392.74.901.98 1.527.24.623.35 1.379.35 2.27v.677h-7.8v-1.432h5.93c0-.503-.1-.948-.31-1.336-.2-.392-.49-.7-.86-.926-.36-.226-.8-.34-1.29-.34-.54 0-1.01.133-1.41.397-.39.26-.7.601-.92 1.023-.21.417-.32.871-.32 1.361v1.119c0 .656.12 1.214.35 1.675.23.46.56.812.98 1.054.42.239.9.358 1.46.358.36 0 .69-.05.99-.153.3-.107.56-.264.78-.473.21-.209.38-.467.49-.774l1.81.326c-.14.533-.4 1-.78 1.4-.37.397-.83.706-1.4.927-.55.218-1.19.326-1.91.326Zm12.74-.198-3.64-13.09h2.08l2.55 10.137h.12l2.66-10.138h2.05l2.66 10.144h.12l2.54-10.144h2.09L1237.31 43h-1.99l-2.75-9.805h-.11L1229.71 43h-1.99Zm14.33 0v-9.818h1.92V43h-1.92Zm.97-11.333c-.33 0-.62-.11-.86-.333a1.095 1.095 0 0 1-.35-.805c0-.315.12-.584.35-.805.24-.226.53-.34.86-.34.33 0 .62.114.85.34.24.221.36.49.36.805 0 .311-.12.58-.36.805-.23.222-.52.333-.85.333Zm4.89 5.503V43H1246v-9.818h1.83v1.598h.12c.23-.52.58-.938 1.06-1.253.49-.315 1.1-.473 1.84-.473.67 0 1.25.14 1.76.422.5.277.89.69 1.17 1.24.27.55.41 1.23.41 2.039V43h-1.91v-6.015c0-.712-.19-1.268-.56-1.668-.37-.405-.88-.608-1.52-.608-.45 0-.84.096-1.19.288-.34.192-.61.473-.81.844-.19.366-.29.81-.29 1.33Zm10.22 0V43h-1.92v-9.818h1.84v1.598h.12c.23-.52.58-.938 1.06-1.253.49-.315 1.1-.473 1.84-.473.67 0 1.25.14 1.75.422.51.277.9.69 1.17 1.24.28.55.42 1.23.42 2.039V43h-1.91v-6.015c0-.712-.19-1.268-.56-1.668-.37-.405-.88-.608-1.53-.608-.44 0-.83.096-1.18.288-.34.192-.61.473-.81.844-.2.366-.29.81-.29 1.33Zm12.53 6.028c-.96 0-1.8-.206-2.5-.62a4.238 4.238 0 0 1-1.61-1.758c-.37-.758-.56-1.647-.56-2.665 0-1.006.19-1.892.56-2.66.38-.766.91-1.365 1.59-1.795.68-.43 1.48-.646 2.39-.646.55 0 1.09.092 1.61.275.52.183.99.47 1.4.863.41.392.74.901.98 1.527.24.623.36 1.379.36 2.27v.677h-7.81v-1.432h5.93c0-.503-.1-.948-.3-1.336a2.38 2.38 0 0 0-.87-.926c-.36-.226-.79-.34-1.29-.34-.53 0-1 .133-1.4.397-.4.26-.71.601-.92 1.023a2.87 2.87 0 0 0-.32 1.361v1.119c0 .656.11 1.214.34 1.675.24.46.56.812.98 1.054.42.239.9.358 1.46.358.37 0 .7-.05.99-.153.3-.107.56-.264.78-.473.21-.209.38-.467.5-.774l1.8.326c-.14.533-.4 1-.78 1.4-.37.397-.83.706-1.39.927-.56.218-1.2.326-1.92.326Zm5.8-.198v-9.818h1.84v1.56h.11c.18-.529.49-.944.94-1.247.46-.307.97-.46 1.55-.46a8.047 8.047 0 0 1 .81.045v1.828a3.413 3.413 0 0 0-.41-.07c-.19-.03-.39-.045-.59-.045-.45 0-.85.096-1.2.287-.35.188-.63.45-.84.787-.2.332-.3.711-.3 1.137V43h-1.91Zm13.72-7.421-1.73.307a1.973 1.973 0 0 0-.35-.633 1.69 1.69 0 0 0-.62-.492c-.27-.128-.6-.192-.99-.192-.54 0-1 .121-1.36.364-.36.239-.54.548-.54.927 0 .328.12.592.36.793.25.2.64.364 1.18.492l1.56.358c.9.209 1.58.53 2.02.965.44.435.66 1 .66 1.694 0 .588-.17 1.112-.51 1.572-.33.456-.8.814-1.41 1.074-.6.26-1.3.39-2.09.39-1.1 0-2-.234-2.69-.703-.7-.473-1.12-1.144-1.28-2.014l1.85-.28c.11.48.35.845.71 1.092.36.243.82.365 1.4.365.62 0 1.12-.13 1.5-.39.37-.264.56-.586.56-.965a.999.999 0 0 0-.34-.774c-.23-.209-.58-.366-1.05-.473l-1.66-.364c-.91-.209-1.59-.541-2.03-.997-.43-.456-.65-1.034-.65-1.733 0-.58.16-1.086.48-1.52.33-.436.78-.774 1.35-1.017.57-.247 1.22-.371 1.96-.371 1.06 0 1.89.23 2.5.69a3.182 3.182 0 0 1 1.21 1.835Z"/>
  <path stroke="#DCDCDC" stroke-width="2" d="M202 143v94.5"/>
  <path fill="#131313" d="M133.346 24V10.91h4.666c1.019 0 1.862.184 2.532.555.669.37 1.169.878 1.502 1.521.332.64.498 1.36.498 2.161 0 .805-.168 1.53-.505 2.173-.332.64-.835 1.147-1.508 1.522-.669.37-1.511.556-2.525.556h-3.209v-1.675h3.03c.643 0 1.165-.11 1.566-.332.401-.226.695-.533.882-.92.188-.389.281-.83.281-1.324 0-.494-.093-.933-.281-1.317a2.017 2.017 0 0 0-.888-.901c-.401-.217-.929-.326-1.586-.326h-2.48V24h-1.975Zm10.82 0v-9.818h1.848v1.56h.102c.179-.529.494-.944.946-1.247.456-.307.972-.46 1.547-.46a8.214 8.214 0 0 1 .812.044v1.829a3.413 3.413 0 0 0-.41-.07 3.894 3.894 0 0 0-.588-.045c-.451 0-.854.096-1.208.287a2.13 2.13 0 0 0-1.137 1.924V24h-1.912Zm10.153.198c-.921 0-1.724-.21-2.41-.633a4.265 4.265 0 0 1-1.598-1.77c-.379-.759-.569-1.645-.569-2.66 0-1.018.19-1.908.569-2.671.379-.763.912-1.355 1.598-1.777.686-.422 1.489-.633 2.41-.633.92 0 1.723.21 2.409.633.687.422 1.219 1.014 1.598 1.777.38.763.569 1.653.569 2.672 0 1.014-.189 1.9-.569 2.659a4.258 4.258 0 0 1-1.598 1.77c-.686.422-1.489.633-2.409.633Zm.006-1.604c.597 0 1.091-.158 1.483-.473.392-.316.682-.735.869-1.26a5.002 5.002 0 0 0 .288-1.732c0-.626-.096-1.201-.288-1.726-.187-.528-.477-.952-.869-1.272-.392-.32-.886-.479-1.483-.479-.601 0-1.099.16-1.496.48-.392.319-.684.743-.875 1.271a5.079 5.079 0 0 0-.282 1.726c0 .63.094 1.208.282 1.732.191.525.483.944.875 1.26.397.315.895.473 1.496.473Zm6.164-8.412h1.911v10.457c0 .657-.119 1.21-.358 1.662a2.334 2.334 0 0 1-1.048 1.03c-.461.234-1.029.35-1.707.35h-.192c-.064 0-.13-.001-.198-.006v-1.642h.307c.452 0 .778-.122.978-.365.204-.238.307-.586.307-1.042V14.182Zm.946-1.515c-.333 0-.618-.11-.857-.332a1.081 1.081 0 0 1-.351-.806c0-.315.117-.584.351-.805.239-.226.524-.34.857-.34.332 0 .615.114.85.34.238.221.358.49.358.805 0 .311-.12.58-.358.806a1.194 1.194 0 0 1-.85.332Zm7.228 11.531c-.968 0-1.801-.207-2.5-.62a4.206 4.206 0 0 1-1.61-1.758c-.375-.758-.563-1.647-.563-2.665 0-1.006.188-1.892.563-2.66.379-.766.907-1.365 1.585-1.795.682-.43 1.478-.646 2.39-.646.554 0 1.091.092 1.611.275.52.183.987.47 1.4.863.413.392.739.901.978 1.527.239.623.358 1.379.358 2.27v.677h-7.805v-1.432h5.932c0-.503-.102-.948-.307-1.336a2.314 2.314 0 0 0-.863-.926c-.366-.226-.797-.34-1.291-.34-.537 0-1.006.133-1.406.397-.396.26-.703.601-.921 1.023a2.953 2.953 0 0 0-.319 1.361v1.119c0 .656.115 1.214.345 1.675.234.46.56.811.978 1.054.418.239.906.358 1.464.358.362 0 .692-.05.991-.153.298-.107.556-.264.773-.473.217-.209.384-.467.499-.773l1.809.326c-.145.532-.405.999-.78 1.4a3.786 3.786 0 0 1-1.4.926c-.558.218-1.195.326-1.911.326Zm9.928 0c-.95 0-1.768-.215-2.454-.645a4.278 4.278 0 0 1-1.573-1.797c-.366-.762-.55-1.636-.55-2.62 0-.997.188-1.877.563-2.64.375-.767.903-1.366 1.585-1.796.682-.43 1.485-.646 2.41-.646.746 0 1.411.139 1.994.415a3.577 3.577 0 0 1 1.413 1.151c.362.494.577 1.072.646 1.732h-1.861a2.223 2.223 0 0 0-.703-1.189c-.362-.332-.848-.498-1.457-.498-.533 0-.999.14-1.4.422-.396.277-.705.673-.927 1.189-.221.51-.332 1.116-.332 1.815 0 .716.109 1.334.326 1.854.217.52.524.922.92 1.208.401.285.872.428 1.413.428.362 0 .69-.066.984-.198.299-.137.548-.33.748-.582a2.17 2.17 0 0 0 .428-.907h1.861a3.625 3.625 0 0 1-.62 1.7c-.346.498-.808.89-1.388 1.176-.575.285-1.25.428-2.026.428Zm10.121-10.016v1.534h-5.363v-1.534h5.363Zm-3.925-2.353h1.911v9.288c0 .37.055.65.166.837a.87.87 0 0 0 .428.378c.179.064.373.096.582.096.154 0 .288-.011.403-.032l.268-.052.346 1.58a3.225 3.225 0 0 1-.474.127c-.204.047-.46.073-.767.077a3.366 3.366 0 0 1-1.406-.269 2.412 2.412 0 0 1-1.054-.869c-.269-.392-.403-.884-.403-1.476V11.83ZM195.769 24h-2.097l4.711-13.09h2.282L205.376 24h-2.097l-3.701-10.713h-.102L195.769 24Zm.351-5.126h6.801v1.662h-6.801v-1.662Zm10.453 8.808v-13.5h1.866v1.591h.16a5.36 5.36 0 0 1 .48-.71c.208-.268.498-.502.869-.702.371-.205.861-.307 1.47-.307.793 0 1.5.2 2.122.6.622.401 1.11.979 1.464 1.733.358.754.537 1.662.537 2.723s-.177 1.971-.531 2.73c-.353.754-.839 1.335-1.457 1.744-.618.405-1.323.608-2.116.608-.596 0-1.084-.1-1.464-.3-.375-.2-.669-.435-.882-.704a5.322 5.322 0 0 1-.492-.716h-.115v5.21h-1.911Zm1.873-8.591c0 .69.1 1.295.3 1.815.2.52.49.927.87 1.221.379.29.843.435 1.393.435.571 0 1.048-.152 1.432-.454.383-.307.673-.722.869-1.247.2-.524.301-1.114.301-1.77 0-.648-.098-1.23-.295-1.745-.191-.516-.481-.923-.869-1.221-.383-.298-.863-.447-1.438-.447-.554 0-1.023.142-1.406.428-.38.285-.667.684-.863 1.195-.196.512-.294 1.108-.294 1.79Zm8.696 8.59v-13.5h1.867v1.592h.16c.11-.204.27-.44.479-.71.209-.268.499-.502.869-.702.371-.205.861-.307 1.47-.307.793 0 1.5.2 2.123.6.622.401 1.11.979 1.463 1.733.358.754.537 1.662.537 2.723s-.177 1.971-.53 2.73c-.354.754-.84 1.335-1.458 1.744-.618.405-1.323.608-2.115.608-.597 0-1.085-.1-1.464-.3-.375-.2-.669-.435-.882-.704a5.322 5.322 0 0 1-.492-.716h-.116v5.21h-1.911Zm1.873-8.59c0 .69.1 1.295.301 1.815.2.52.49.927.869 1.221.379.29.844.435 1.393.435.571 0 1.049-.152 1.432-.454.384-.307.673-.722.869-1.247.201-.524.301-1.114.301-1.77 0-.648-.098-1.23-.294-1.745-.192-.516-.482-.923-.869-1.221-.384-.298-.863-.447-1.439-.447-.554 0-1.022.142-1.406.428-.379.285-.667.684-.863 1.195-.196.512-.294 1.108-.294 1.79Zm10.608-8.182V24h-1.911V10.91h1.911ZM231.654 24v-9.818h1.911V24h-1.911Zm.965-11.333c-.332 0-.618-.11-.856-.332a1.079 1.079 0 0 1-.352-.806c0-.315.117-.584.352-.805.238-.226.524-.34.856-.34.333 0 .616.114.85.34.239.221.358.49.358.805 0 .311-.119.58-.358.806a1.19 1.19 0 0 1-.85.332Zm7.113 11.531c-.95 0-1.768-.215-2.454-.645a4.278 4.278 0 0 1-1.573-1.797c-.366-.762-.55-1.636-.55-2.62 0-.997.188-1.877.563-2.64.375-.767.903-1.366 1.585-1.796.682-.43 1.485-.646 2.41-.646.746 0 1.41.139 1.994.415a3.577 3.577 0 0 1 1.413 1.151c.362.494.577 1.072.646 1.732h-1.861a2.223 2.223 0 0 0-.703-1.189c-.362-.332-.848-.498-1.457-.498-.533 0-.999.14-1.4.422-.396.277-.705.673-.927 1.189-.221.51-.332 1.116-.332 1.815 0 .716.108 1.334.326 1.854.217.52.524.922.92 1.208.401.285.872.428 1.413.428.362 0 .69-.066.984-.198.299-.137.548-.33.748-.582.205-.251.347-.554.428-.907h1.861a3.615 3.615 0 0 1-.621 1.7c-.345.498-.807.89-1.387 1.176-.575.285-1.25.428-2.026.428Zm8.395.02a4.01 4.01 0 0 1-1.688-.346 2.84 2.84 0 0 1-1.195-1.016c-.29-.443-.435-.987-.435-1.63 0-.554.107-1.01.32-1.368.213-.358.5-.641.863-.85a4.506 4.506 0 0 1 1.214-.473c.448-.107.904-.188 1.368-.243l1.432-.166c.366-.047.633-.122.799-.224.166-.102.249-.268.249-.499v-.044c0-.559-.157-.991-.473-1.298-.311-.307-.775-.46-1.393-.46-.644 0-1.151.143-1.522.428-.366.281-.62.595-.76.94l-1.796-.41c.213-.596.524-1.078.933-1.444a3.78 3.78 0 0 1 1.425-.805 5.566 5.566 0 0 1 1.694-.256c.392 0 .808.047 1.247.14.443.09.856.256 1.24.5.387.242.705.59.952 1.041.247.448.371 1.03.371 1.745V24h-1.867v-1.342h-.076c-.124.247-.309.49-.557.728a2.948 2.948 0 0 1-.952.595c-.388.157-.852.236-1.393.236Zm.415-1.535c.529 0 .98-.104 1.355-.313.379-.209.667-.482.863-.818.2-.341.301-.705.301-1.093v-1.266c-.069.068-.201.132-.397.192a6.197 6.197 0 0 1-.658.147 80.04 80.04 0 0 1-.722.109l-.588.076c-.371.047-.71.126-1.017.237-.302.11-.545.27-.729.48-.178.204-.268.476-.268.817 0 .473.175.831.524 1.074.35.239.795.358 1.336.358Zm11.019-8.501v1.534h-5.363v-1.534h5.363Zm-3.925-2.353h1.911v9.288c0 .37.055.65.166.837a.87.87 0 0 0 .428.378c.179.064.373.096.582.096.154 0 .288-.011.403-.032l.268-.052.346 1.58a3.225 3.225 0 0 1-.474.127c-.204.047-.46.073-.767.077a3.366 3.366 0 0 1-1.406-.269 2.412 2.412 0 0 1-1.054-.869c-.269-.392-.403-.884-.403-1.476V11.83ZM261.135 24v-9.818h1.911V24h-1.911Zm.965-11.333c-.333 0-.618-.11-.857-.332a1.081 1.081 0 0 1-.351-.806c0-.315.117-.584.351-.805.239-.226.524-.34.857-.34.332 0 .616.114.85.34.239.221.358.49.358.805 0 .311-.119.58-.358.806a1.192 1.192 0 0 1-.85.332Zm7.113 11.531c-.921 0-1.724-.21-2.41-.633a4.265 4.265 0 0 1-1.598-1.77c-.379-.759-.569-1.645-.569-2.66 0-1.018.19-1.908.569-2.671.379-.763.912-1.355 1.598-1.777.686-.422 1.489-.633 2.41-.633.92 0 1.723.21 2.41.633.686.422 1.218 1.014 1.598 1.777.379.763.568 1.653.568 2.672 0 1.014-.189 1.9-.568 2.659a4.272 4.272 0 0 1-1.598 1.77c-.687.422-1.49.633-2.41.633Zm.006-1.604c.597 0 1.091-.158 1.483-.473.392-.316.682-.735.869-1.26a5.002 5.002 0 0 0 .288-1.732c0-.626-.096-1.201-.288-1.726-.187-.528-.477-.952-.869-1.272-.392-.32-.886-.479-1.483-.479-.601 0-1.099.16-1.496.48-.392.319-.684.743-.875 1.271a5.079 5.079 0 0 0-.282 1.726c0 .63.094 1.208.282 1.732.191.525.483.944.875 1.26.397.315.895.473 1.496.473Zm8.075-4.424V24h-1.911v-9.818h1.834v1.598h.122c.226-.52.579-.938 1.061-1.253.486-.315 1.097-.473 1.834-.473.669 0 1.255.14 1.758.422.503.277.893.69 1.17 1.24.277.55.415 1.23.415 2.039V24h-1.911v-6.015c0-.712-.185-1.268-.556-1.668-.371-.405-.88-.607-1.528-.607-.443 0-.837.095-1.182.287a2.066 2.066 0 0 0-.812.844c-.196.366-.294.81-.294 1.33Zm-91.257 30.028c-.921 0-1.724-.21-2.41-.633a4.265 4.265 0 0 1-1.598-1.77c-.379-.759-.569-1.645-.569-2.66 0-1.018.19-1.908.569-2.671.379-.763.912-1.355 1.598-1.777.686-.422 1.489-.633 2.41-.633.92 0 1.723.21 2.409.633.686.422 1.219 1.014 1.598 1.777.38.763.569 1.653.569 2.672 0 1.014-.189 1.9-.569 2.659a4.265 4.265 0 0 1-1.598 1.77c-.686.422-1.489.633-2.409.633Zm.006-1.604c.597 0 1.091-.158 1.483-.473.392-.316.682-.735.869-1.26a5.002 5.002 0 0 0 .288-1.732c0-.626-.096-1.201-.288-1.726-.187-.528-.477-.952-.869-1.272-.392-.32-.886-.479-1.483-.479-.601 0-1.099.16-1.496.48-.392.319-.684.743-.875 1.271a5.079 5.079 0 0 0-.282 1.726c0 .63.094 1.208.282 1.733.191.524.483.943.875 1.259.397.315.895.473 1.496.473Zm6.164 5.088v-13.5h1.866v1.591h.16a5.44 5.44 0 0 1 .479-.71c.209-.268.499-.502.87-.702.37-.205.86-.307 1.47-.307.792 0 1.5.2 2.122.6.622.401 1.11.979 1.464 1.733.358.754.537 1.662.537 2.723s-.177 1.971-.531 2.73c-.354.754-.839 1.335-1.457 1.744-.618.405-1.323.608-2.116.608-.597 0-1.085-.1-1.464-.3-.375-.2-.669-.435-.882-.704a5.322 5.322 0 0 1-.492-.716h-.115v5.21h-1.911Zm1.873-8.591c0 .69.1 1.295.3 1.815.2.52.49.927.869 1.221.38.29.844.435 1.394.435.571 0 1.048-.151 1.432-.454.383-.307.673-.722.869-1.246.2-.525.3-1.115.3-1.771 0-.648-.098-1.23-.294-1.745-.192-.516-.481-.923-.869-1.221-.384-.298-.863-.447-1.438-.447-.554 0-1.023.142-1.407.428-.379.285-.666.684-.862 1.195-.196.511-.294 1.108-.294 1.79Zm12.928 5.107c-.968 0-1.801-.206-2.5-.62a4.214 4.214 0 0 1-1.611-1.758c-.375-.758-.562-1.647-.562-2.665 0-1.006.187-1.892.562-2.66.38-.766.908-1.365 1.586-1.795.682-.43 1.478-.646 2.39-.646.554 0 1.091.092 1.611.275.52.183.987.47 1.4.863.413.392.739.901.978 1.527.239.623.358 1.379.358 2.27v.677h-7.805v-1.432h5.932c0-.503-.102-.948-.307-1.336a2.314 2.314 0 0 0-.863-.926c-.366-.226-.797-.34-1.291-.34-.537 0-1.006.133-1.406.397-.396.26-.703.601-.921 1.023a2.953 2.953 0 0 0-.319 1.361v1.119c0 .656.115 1.214.345 1.675.234.46.56.812.978 1.054.418.239.905.358 1.464.358.362 0 .692-.05.99-.153.299-.107.557-.264.774-.473.217-.209.383-.467.499-.774l1.808.326c-.144.533-.404 1-.779 1.4a3.786 3.786 0 0 1-1.4.927c-.558.218-1.196.326-1.911.326Zm7.704-6.028V48H212.8v-9.818h1.835v1.598h.121c.226-.52.58-.938 1.062-1.253.485-.315 1.097-.473 1.834-.473.669 0 1.255.14 1.758.422.503.277.893.69 1.17 1.24.277.55.415 1.23.415 2.039V48h-1.911v-6.015c0-.712-.186-1.268-.556-1.668-.371-.405-.88-.608-1.528-.608-.443 0-.837.096-1.182.288a2.066 2.066 0 0 0-.812.844c-.196.366-.294.81-.294 1.33Zm15.664-1.591-1.733.307a2.036 2.036 0 0 0-.345-.633 1.705 1.705 0 0 0-.626-.492c-.265-.128-.595-.192-.991-.192-.541 0-.993.121-1.355.364-.362.239-.544.548-.544.927 0 .328.122.592.365.793.243.2.635.364 1.176.492l1.56.358c.903.209 1.576.53 2.02.965.443.435.664 1 .664 1.694 0 .588-.17 1.112-.511 1.572-.337.456-.808.814-1.413 1.074-.601.26-1.297.39-2.09.39-1.099 0-1.996-.234-2.691-.703-.695-.473-1.121-1.144-1.278-2.014l1.847-.28c.115.48.351.845.709 1.092.358.243.825.365 1.4.365.627 0 1.127-.13 1.502-.39.375-.264.563-.586.563-.965 0-.307-.115-.565-.345-.774-.226-.209-.573-.366-1.042-.473l-1.662-.364c-.916-.209-1.594-.541-2.033-.997-.434-.456-.652-1.034-.652-1.733 0-.58.162-1.086.486-1.52.324-.436.771-.774 1.342-1.017.571-.247 1.226-.371 1.963-.371 1.061 0 1.896.23 2.505.69.61.456 1.012 1.068 1.209 1.835ZM354.611 10.91V24h-1.975V10.91h1.975Zm5.859 13.282c-.793 0-1.5-.203-2.122-.608-.618-.409-1.104-.99-1.458-1.744-.349-.759-.524-1.669-.524-2.73s.177-1.969.531-2.723c.358-.754.848-1.332 1.47-1.732.622-.4 1.327-.601 2.116-.601.609 0 1.099.102 1.47.307.375.2.664.434.869.703.209.268.371.505.486.71h.115v-4.865h1.911V24h-1.866v-1.528h-.16a5.007 5.007 0 0 1-.499.716c-.213.269-.507.503-.882.703-.375.2-.861.3-1.457.3Zm.422-1.63c.549 0 1.014-.145 1.393-.435.384-.294.673-.7.869-1.22.201-.52.301-1.126.301-1.816 0-.682-.098-1.279-.294-1.79-.196-.511-.484-.91-.863-1.195-.379-.286-.848-.428-1.406-.428-.576 0-1.055.149-1.439.447-.383.298-.673.705-.869 1.22-.192.517-.288 1.098-.288 1.746 0 .656.098 1.246.294 1.77.196.525.486.94.87 1.247.388.302.865.454 1.432.454Zm10.861 1.636c-.967 0-1.8-.207-2.499-.62a4.214 4.214 0 0 1-1.611-1.758c-.375-.758-.562-1.647-.562-2.665 0-1.006.187-1.892.562-2.66.38-.766.908-1.365 1.586-1.795.681-.43 1.478-.646 2.39-.646.554 0 1.091.092 1.611.275.52.183.986.47 1.4.863.413.392.739.901.978 1.527.238.623.358 1.379.358 2.27v.677h-7.805v-1.432h5.932c0-.503-.102-.948-.307-1.336a2.314 2.314 0 0 0-.863-.926c-.366-.226-.797-.34-1.291-.34-.537 0-1.006.133-1.406.397-.397.26-.703.601-.921 1.023a2.953 2.953 0 0 0-.319 1.361v1.119c0 .656.115 1.214.345 1.675.234.46.56.811.978 1.054.417.239.905.358 1.464.358.362 0 .692-.05.99-.153.299-.107.556-.264.774-.473.217-.209.383-.467.498-.773l1.809.326c-.145.532-.405.999-.78 1.4-.37.396-.837.705-1.399.926-.559.218-1.196.326-1.912.326Zm8.651.02a4.01 4.01 0 0 1-1.688-.346 2.84 2.84 0 0 1-1.195-1.016c-.29-.443-.435-.987-.435-1.63 0-.554.107-1.01.32-1.368.213-.358.5-.641.863-.85a4.506 4.506 0 0 1 1.214-.473c.448-.107.904-.188 1.368-.243l1.432-.166c.366-.047.633-.122.799-.224.166-.102.249-.268.249-.499v-.044c0-.559-.158-.991-.473-1.298-.311-.307-.775-.46-1.393-.46-.644 0-1.151.143-1.522.428-.366.281-.62.595-.76.94l-1.796-.41c.213-.596.524-1.078.933-1.444a3.78 3.78 0 0 1 1.425-.805 5.566 5.566 0 0 1 1.694-.256c.392 0 .808.047 1.247.14.443.09.856.256 1.24.5.387.242.705.59.952 1.041.247.448.371 1.03.371 1.745V24h-1.867v-1.342h-.076c-.124.247-.309.49-.557.728a2.948 2.948 0 0 1-.952.595c-.388.157-.852.236-1.393.236Zm.415-1.535c.528 0 .98-.104 1.355-.313.379-.209.667-.482.863-.818.2-.341.301-.705.301-1.093v-1.266c-.069.068-.201.132-.397.192a6.197 6.197 0 0 1-.658.147 80.04 80.04 0 0 1-.722.109l-.589.076a4.75 4.75 0 0 0-1.016.237c-.302.11-.545.27-.729.48-.179.204-.268.476-.268.817 0 .473.175.831.524 1.074.35.239.795.358 1.336.358Zm21.685-7.517h-1.994a3.051 3.051 0 0 0-.428-1.125 3.16 3.16 0 0 0-.767-.824 3.313 3.313 0 0 0-1.017-.512 3.962 3.962 0 0 0-1.182-.172c-.754 0-1.43.19-2.026.569-.593.379-1.062.935-1.407 1.668-.341.733-.511 1.628-.511 2.684 0 1.066.17 1.965.511 2.698.345.733.816 1.287 1.413 1.662a3.706 3.706 0 0 0 2.013.562 4.09 4.09 0 0 0 1.177-.166 3.39 3.39 0 0 0 1.016-.505 3.062 3.062 0 0 0 1.208-1.924l1.994.007a5.324 5.324 0 0 1-.62 1.777 4.895 4.895 0 0 1-1.169 1.393 5.297 5.297 0 0 1-1.624.901 6.003 6.003 0 0 1-1.994.32c-1.134 0-2.144-.268-3.03-.805-.887-.542-1.585-1.315-2.097-2.32-.507-1.006-.76-2.206-.76-3.6 0-1.397.255-2.597.767-3.598.511-1.006 1.21-1.777 2.096-2.314.887-.541 1.894-.812 3.024-.812.694 0 1.342.1 1.943.3a5.135 5.135 0 0 1 1.63.87c.481.38.88.844 1.195 1.393a5.37 5.37 0 0 1 .639 1.873Zm7.89 4.762v-5.746h1.917V24h-1.879v-1.7h-.102a3.063 3.063 0 0 1-1.087 1.31c-.494.345-1.11.518-1.847.518-.631 0-1.189-.139-1.675-.416-.481-.28-.861-.696-1.138-1.246-.272-.55-.409-1.23-.409-2.04v-6.244h1.912v6.015c0 .669.185 1.201.556 1.598.37.396.852.594 1.444.594.358 0 .714-.09 1.068-.268.358-.18.654-.45.888-.812.239-.362.356-.823.352-1.38Zm5.857-9.019V24h-1.912V10.91h1.912Zm6.614 3.273v1.534h-5.363v-1.534h5.363Zm-3.925-2.353h1.911v9.288c0 .37.056.65.167.837.11.184.253.31.428.378.179.064.373.096.582.096.153 0 .287-.011.402-.032l.269-.052.345 1.58a3.241 3.241 0 0 1-.473.127c-.205.047-.46.073-.767.077a3.36 3.36 0 0 1-1.406-.269 2.409 2.409 0 0 1-1.055-.869c-.269-.392-.403-.884-.403-1.476V11.83ZM424.439 24v-9.818h1.911V24h-1.911Zm.965-11.333c-.332 0-.618-.11-.856-.332a1.079 1.079 0 0 1-.352-.806c0-.315.117-.584.352-.805.238-.226.524-.34.856-.34.333 0 .616.114.85.34.239.221.358.49.358.805 0 .311-.119.58-.358.806a1.19 1.19 0 0 1-.85.332Zm11.377 1.515L433.22 24h-2.045l-3.567-9.818h2.052l2.486 7.555h.103l2.48-7.555h2.052Zm3.832 10.035a4.013 4.013 0 0 1-1.688-.345 2.847 2.847 0 0 1-1.195-1.016c-.29-.443-.435-.987-.435-1.63 0-.554.107-1.01.32-1.368a2.36 2.36 0 0 1 .863-.85 4.506 4.506 0 0 1 1.214-.473c.448-.107.904-.188 1.368-.243l1.432-.166c.367-.047.633-.122.799-.224.166-.102.249-.268.249-.499v-.044c0-.559-.157-.991-.473-1.298-.311-.307-.775-.46-1.393-.46-.644 0-1.151.143-1.521.428-.367.281-.62.595-.761.94l-1.796-.41c.213-.596.524-1.078.933-1.444.413-.37.889-.64 1.425-.805a5.566 5.566 0 0 1 1.694-.256c.392 0 .808.047 1.247.14.443.09.856.256 1.24.5.388.242.705.59.952 1.041.247.448.371 1.03.371 1.745V24h-1.866v-1.342h-.077c-.124.247-.309.49-.556.728a2.953 2.953 0 0 1-.953.595c-.387.157-.852.236-1.393.236Zm.415-1.534c.529 0 .98-.104 1.355-.313.38-.209.667-.482.863-.818.201-.341.301-.705.301-1.093v-1.266c-.068.068-.2.132-.396.192a6.219 6.219 0 0 1-.659.147 80.04 80.04 0 0 1-.722.109l-.588.076c-.371.047-.71.126-1.017.237-.302.11-.545.27-.728.48-.179.204-.269.476-.269.817 0 .473.175.831.524 1.074.35.239.795.358 1.336.358Zm11.019-8.501v1.534h-5.363v-1.534h5.363Zm-3.925-2.353h1.911v9.288c0 .37.056.65.166.837a.868.868 0 0 0 .429.378c.179.064.373.096.581.096.154 0 .288-.011.403-.032l.269-.052.345 1.58a3.241 3.241 0 0 1-.473.127c-.205.047-.46.073-.767.077a3.368 3.368 0 0 1-1.407-.269 2.412 2.412 0 0 1-1.054-.869c-.269-.392-.403-.884-.403-1.476V11.83ZM453.621 24v-9.818h1.911V24h-1.911Zm.965-11.333c-.332 0-.618-.11-.856-.332a1.079 1.079 0 0 1-.352-.806c0-.315.117-.584.352-.805.238-.226.524-.34.856-.34.333 0 .616.114.85.34.239.221.358.49.358.805 0 .311-.119.58-.358.806a1.19 1.19 0 0 1-.85.332Zm7.113 11.531c-.92 0-1.724-.21-2.41-.633a4.265 4.265 0 0 1-1.598-1.77c-.379-.759-.569-1.645-.569-2.66 0-1.018.19-1.908.569-2.671.379-.763.912-1.355 1.598-1.777.686-.422 1.49-.633 2.41-.633.92 0 1.724.21 2.41.633.686.422 1.219 1.014 1.598 1.777.379.763.569 1.653.569 2.672 0 1.014-.19 1.9-.569 2.659a4.265 4.265 0 0 1-1.598 1.77c-.686.422-1.49.633-2.41.633Zm.006-1.604c.597 0 1.091-.158 1.483-.473.392-.316.682-.735.87-1.26a5.026 5.026 0 0 0 .287-1.732c0-.626-.096-1.201-.287-1.726-.188-.528-.478-.952-.87-1.272-.392-.32-.886-.479-1.483-.479-.6 0-1.099.16-1.495.48-.392.319-.684.743-.876 1.271a5.08 5.08 0 0 0-.281 1.726c0 .63.093 1.208.281 1.732.192.525.484.944.876 1.26.396.315.895.473 1.495.473Zm8.075-4.424V24h-1.911v-9.818h1.835v1.598h.121a2.81 2.81 0 0 1 1.061-1.253c.486-.315 1.097-.473 1.835-.473.669 0 1.255.14 1.757.422.503.277.893.69 1.17 1.24.277.55.416 1.23.416 2.039V24h-1.912v-6.015c0-.712-.185-1.268-.556-1.668-.37-.405-.88-.607-1.527-.607-.444 0-.838.095-1.183.287a2.073 2.073 0 0 0-.812.844c-.196.366-.294.81-.294 1.33ZM376.473 48l-3.63-13.09h2.077l2.551 10.137h.121l2.653-10.138h2.058l2.653 10.144h.121l2.544-10.144h2.084L386.068 48h-1.988l-2.755-9.805h-.102L378.468 48h-1.995Zm17.508.198c-.92 0-1.723-.21-2.409-.633a4.265 4.265 0 0 1-1.598-1.77c-.38-.759-.569-1.645-.569-2.66 0-1.018.189-1.908.569-2.671.379-.763.912-1.355 1.598-1.777.686-.422 1.489-.633 2.409-.633.921 0 1.724.21 2.41.633.686.422 1.219 1.014 1.598 1.777.379.763.569 1.653.569 2.672 0 1.014-.19 1.9-.569 2.659a4.265 4.265 0 0 1-1.598 1.77c-.686.422-1.489.633-2.41.633Zm.007-1.604c.596 0 1.091-.158 1.483-.473.392-.316.682-.735.869-1.26a5.002 5.002 0 0 0 .288-1.732c0-.626-.096-1.201-.288-1.726-.187-.528-.477-.952-.869-1.272-.392-.32-.887-.479-1.483-.479-.601 0-1.1.16-1.496.48-.392.319-.684.743-.876 1.271a5.104 5.104 0 0 0-.281 1.726c0 .63.094 1.208.281 1.733.192.524.484.943.876 1.259.396.315.895.473 1.496.473ZM400.151 48v-9.818h1.848v1.56h.102c.179-.529.494-.944.946-1.247.456-.307.972-.46 1.547-.46a8.214 8.214 0 0 1 .812.045v1.828a3.424 3.424 0 0 0-.409-.07 3.894 3.894 0 0 0-.588-.045c-.452 0-.855.096-1.209.287a2.13 2.13 0 0 0-1.137 1.924V48h-1.912Zm8.126-3.33-.012-2.333h.332l3.912-4.155h2.288l-4.461 4.73h-.301l-1.758 1.758ZM406.52 48V34.91h1.911V48h-1.911Zm6.2 0-3.516-4.666 1.317-1.336L415.066 48h-2.346Zm10.636-7.421-1.732.307a2.036 2.036 0 0 0-.345-.633 1.705 1.705 0 0 0-.626-.492c-.265-.128-.595-.192-.991-.192-.541 0-.993.121-1.355.364-.363.239-.544.548-.544.927 0 .328.122.592.365.793.243.2.635.364 1.176.492l1.56.358c.903.209 1.576.53 2.019.965.444.435.665 1 .665 1.694 0 .588-.17 1.112-.511 1.572-.337.456-.808.814-1.413 1.074-.601.26-1.297.39-2.09.39-1.099 0-1.996-.234-2.691-.703-.695-.473-1.121-1.144-1.278-2.014l1.847-.28c.115.48.351.845.709 1.092.358.243.825.365 1.4.365.627 0 1.127-.13 1.502-.39.375-.264.563-.586.563-.965 0-.307-.115-.565-.345-.774-.226-.209-.574-.366-1.042-.473l-1.662-.364c-.916-.209-1.594-.541-2.033-.997-.435-.456-.652-1.034-.652-1.733 0-.58.162-1.086.486-1.52.324-.436.771-.774 1.342-1.017.571-.247 1.225-.371 1.963-.371 1.061 0 1.896.23 2.505.69.61.456 1.012 1.068 1.208 1.835Zm3.665 1.591V48h-1.911V34.91h1.885v4.87h.122a2.82 2.82 0 0 1 1.054-1.26c.473-.31 1.091-.466 1.854-.466.673 0 1.261.139 1.764.415.507.277.899.69 1.176 1.24.282.546.422 1.228.422 2.046V48h-1.911v-6.015c0-.72-.185-1.278-.556-1.675-.371-.4-.886-.6-1.547-.6-.452 0-.856.095-1.214.287a2.076 2.076 0 0 0-.838.844c-.2.366-.3.81-.3 1.33Zm12.512 6.028c-.92 0-1.723-.21-2.409-.633a4.258 4.258 0 0 1-1.598-1.77c-.38-.759-.569-1.645-.569-2.66 0-1.018.189-1.908.569-2.671.379-.763.911-1.355 1.598-1.777.686-.422 1.489-.633 2.409-.633.921 0 1.724.21 2.41.633.686.422 1.219 1.014 1.598 1.777.379.763.569 1.653.569 2.672 0 1.014-.19 1.9-.569 2.659a4.265 4.265 0 0 1-1.598 1.77c-.686.422-1.489.633-2.41.633Zm.007-1.604c.596 0 1.091-.158 1.483-.473.392-.316.682-.735.869-1.26a5.002 5.002 0 0 0 .288-1.732c0-.626-.096-1.201-.288-1.726-.187-.528-.477-.952-.869-1.272-.392-.32-.887-.479-1.483-.479-.601 0-1.1.16-1.496.48-.392.319-.684.743-.876 1.271a5.104 5.104 0 0 0-.281 1.726c0 .63.094 1.208.281 1.733.192.524.484.943.876 1.259.396.315.895.473 1.496.473Zm6.163 5.088v-13.5h1.867v1.591h.16c.11-.204.27-.44.479-.71.209-.268.499-.502.869-.702.371-.205.861-.307 1.471-.307.792 0 1.5.2 2.122.6.622.401 1.11.979 1.464 1.733.357.754.536 1.662.536 2.723s-.176 1.971-.53 2.73c-.354.754-.84 1.335-1.457 1.744-.618.405-1.324.608-2.116.608-.597 0-1.085-.1-1.464-.3-.375-.2-.669-.435-.882-.704a5.322 5.322 0 0 1-.492-.716h-.115v5.21h-1.912Zm1.873-8.591c0 .69.1 1.295.301 1.815.2.52.49.927.869 1.221.379.29.844.435 1.393.435.571 0 1.049-.151 1.432-.454.384-.307.674-.722.87-1.246.2-.525.3-1.115.3-1.771 0-.648-.098-1.23-.294-1.745-.192-.516-.482-.923-.869-1.221-.384-.298-.863-.447-1.439-.447-.554 0-1.022.142-1.406.428-.379.285-.667.684-.863 1.195-.196.511-.294 1.108-.294 1.79Z"/>
  <path fill="#575757" d="M216.526 218.909h1.969v9.281c0 .84-.166 1.558-.499 2.154a3.32 3.32 0 0 1-1.387 1.368c-.596.311-1.295.467-2.096.467-.737 0-1.4-.134-1.988-.403a3.267 3.267 0 0 1-1.387-1.169c-.337-.516-.505-1.143-.505-1.88h1.962c0 .362.083.676.249.94.171.264.403.471.697.62a2.31 2.31 0 0 0 1.023.217c.418 0 .771-.087 1.061-.262.294-.179.518-.441.671-.786.154-.345.23-.767.23-1.266v-9.281Zm7.008 13.308a4.014 4.014 0 0 1-1.688-.345 2.839 2.839 0 0 1-1.195-1.016c-.29-.443-.435-.987-.435-1.63 0-.554.107-1.01.32-1.368a2.36 2.36 0 0 1 .863-.85 4.483 4.483 0 0 1 1.214-.473c.448-.107.904-.188 1.368-.243l1.432-.166c.366-.047.633-.122.799-.224.166-.102.249-.268.249-.499v-.044c0-.559-.157-.991-.473-1.298-.311-.307-.775-.46-1.393-.46-.644 0-1.151.143-1.522.428-.366.281-.62.595-.76.94l-1.796-.409c.213-.597.524-1.078.933-1.445a3.773 3.773 0 0 1 1.425-.805 5.55 5.55 0 0 1 1.694-.256c.392 0 .808.047 1.247.141a3.64 3.64 0 0 1 1.24.498c.387.243.705.59.952 1.042.247.448.371 1.029.371 1.745V232h-1.867v-1.342h-.076c-.124.247-.309.49-.556.728a2.965 2.965 0 0 1-.953.595c-.388.157-.852.236-1.393.236Zm.415-1.534c.529 0 .98-.104 1.355-.313.38-.209.667-.482.863-.818.2-.341.301-.705.301-1.093v-1.266c-.069.068-.201.132-.397.192a6.318 6.318 0 0 1-.658.147c-.247.038-.488.075-.722.109a56.2 56.2 0 0 0-.588.076c-.371.047-.71.126-1.017.237-.302.111-.545.27-.728.479-.179.205-.269.478-.269.818 0 .473.175.831.524 1.074.35.239.795.358 1.336.358Zm8.347-4.513V232h-1.912v-9.818h1.835v1.598h.121c.226-.52.58-.938 1.062-1.253.485-.315 1.097-.473 1.834-.473.669 0 1.255.141 1.758.422.503.277.893.69 1.17 1.24.277.55.415 1.229.415 2.039V232h-1.911v-6.015c0-.712-.185-1.268-.556-1.668-.371-.405-.88-.607-1.528-.607-.443 0-.837.095-1.182.287a2.067 2.067 0 0 0-.812.844c-.196.366-.294.81-.294 1.329Zm17.471-7.261V232h-1.982v-11.109h-.076l-3.132 2.045v-1.892l3.266-2.135h1.924ZM252.768 232v-1.432l4.43-4.589a24.75 24.75 0 0 0 1.17-1.311c.311-.379.543-.739.696-1.08.154-.341.23-.703.23-1.087 0-.434-.102-.809-.306-1.125a2.016 2.016 0 0 0-.838-.735 2.67 2.67 0 0 0-1.195-.262c-.469 0-.878.096-1.227.288a1.97 1.97 0 0 0-.806.812c-.187.349-.281.758-.281 1.227h-1.886c0-.797.184-1.494.55-2.09a3.73 3.73 0 0 1 1.509-1.387c.639-.333 1.365-.499 2.179-.499.823 0 1.547.164 2.174.492.63.324 1.123.767 1.476 1.33.354.558.531 1.189.531 1.892 0 .486-.092.961-.275 1.425-.179.465-.492.983-.94 1.554-.447.566-1.069 1.255-1.866 2.064l-2.602 2.723v.096h5.894V232h-8.617Zm15.108-9.818v1.534h-5.363v-1.534h5.363Zm-3.925-2.352h1.911v9.287c0 .371.056.65.167.838.11.183.253.308.428.377.179.064.373.096.582.096.153 0 .287-.011.402-.032l.269-.052.345 1.579a3.114 3.114 0 0 1-.473.128c-.205.047-.46.073-.767.077a3.362 3.362 0 0 1-1.406-.269 2.405 2.405 0 0 1-1.055-.869c-.269-.392-.403-.884-.403-1.477v-9.683Zm7.621 6.34V232h-1.911v-13.091h1.886v4.871h.121c.23-.529.582-.948 1.055-1.259.473-.311 1.091-.467 1.854-.467.673 0 1.261.138 1.764.415.507.277.899.691 1.176 1.241.281.545.422 1.227.422 2.045V232h-1.911v-6.015c0-.72-.186-1.278-.557-1.675-.37-.4-.886-.6-1.546-.6a2.53 2.53 0 0 0-1.215.287 2.068 2.068 0 0 0-.837.844c-.201.366-.301.81-.301 1.329Z"/>
  <path stroke="#DCDCDC" stroke-width="2" d="M1442 143H0"/>
  <path fill="#575757" d="M638.526 218.909h1.969v9.281c0 .84-.166 1.558-.499 2.154a3.32 3.32 0 0 1-1.387 1.368c-.596.311-1.295.467-2.096.467-.737 0-1.4-.134-1.988-.403a3.267 3.267 0 0 1-1.387-1.169c-.337-.516-.505-1.143-.505-1.88h1.962c0 .362.083.676.249.94.171.264.403.471.697.62a2.31 2.31 0 0 0 1.023.217c.418 0 .771-.087 1.061-.262.294-.179.518-.441.671-.786.154-.345.23-.767.23-1.266v-9.281Zm7.008 13.308a4.014 4.014 0 0 1-1.688-.345 2.839 2.839 0 0 1-1.195-1.016c-.29-.443-.435-.987-.435-1.63 0-.554.107-1.01.32-1.368a2.36 2.36 0 0 1 .863-.85 4.483 4.483 0 0 1 1.214-.473c.448-.107.904-.188 1.368-.243l1.432-.166c.366-.047.633-.122.799-.224.166-.102.249-.268.249-.499v-.044c0-.559-.157-.991-.473-1.298-.311-.307-.775-.46-1.393-.46-.644 0-1.151.143-1.522.428-.366.281-.62.595-.76.94l-1.796-.409c.213-.597.524-1.078.933-1.445a3.773 3.773 0 0 1 1.425-.805 5.55 5.55 0 0 1 1.694-.256c.392 0 .808.047 1.247.141a3.64 3.64 0 0 1 1.24.498c.387.243.705.59.952 1.042.247.448.371 1.029.371 1.745V232h-1.867v-1.342h-.076c-.124.247-.309.49-.556.728a2.965 2.965 0 0 1-.953.595c-.388.157-.852.236-1.393.236Zm.415-1.534c.529 0 .98-.104 1.355-.313.38-.209.667-.482.863-.818.2-.341.301-.705.301-1.093v-1.266c-.069.068-.201.132-.397.192a6.318 6.318 0 0 1-.658.147c-.247.038-.488.075-.722.109a56.2 56.2 0 0 0-.588.076c-.371.047-.71.126-1.017.237-.302.111-.545.27-.728.479-.179.205-.269.478-.269.818 0 .473.175.831.524 1.074.35.239.795.358 1.336.358Zm8.347-4.513V232h-1.912v-9.818h1.835v1.598h.121c.226-.52.58-.938 1.062-1.253.485-.315 1.097-.473 1.834-.473.669 0 1.255.141 1.758.422.503.277.893.69 1.17 1.24.277.55.415 1.229.415 2.039V232h-1.911v-6.015c0-.712-.185-1.268-.556-1.668-.371-.405-.88-.607-1.528-.607-.443 0-.837.095-1.182.287a2.067 2.067 0 0 0-.812.844c-.196.366-.294.81-.294 1.329Zm16.34 6.015c-.878 0-1.635-.159-2.27-.479-.63-.32-1.116-.754-1.457-1.304-.341-.554-.511-1.18-.511-1.879 0-.533.111-1.006.332-1.419.222-.418.531-.804.927-1.157.396-.354.854-.71 1.374-1.068l2.11-1.489c.358-.234.637-.482.837-.742.2-.264.3-.59.3-.978 0-.306-.132-.6-.396-.882-.264-.281-.618-.422-1.061-.422-.307 0-.577.075-.812.224-.23.149-.411.341-.543.575a1.48 1.48 0 0 0-.192.729c0 .298.081.599.243.901.166.303.379.616.639.94.26.32.533.652.818.997l6.079 7.268h-2.16l-5.031-5.913c-.422-.498-.814-.967-1.176-1.406a7.297 7.297 0 0 1-.882-1.342 3.327 3.327 0 0 1-.332-1.477c0-.601.136-1.133.409-1.598a2.897 2.897 0 0 1 1.157-1.099c.494-.264 1.073-.397 1.738-.397.674 0 1.251.133 1.733.397.485.26.858.607 1.118 1.042.264.43.396.901.396 1.412 0 .622-.155 1.172-.466 1.649-.307.473-.731.908-1.272 1.304l-2.627 1.937c-.512.375-.868.746-1.068 1.112-.196.363-.294.646-.294.851 0 .375.096.722.288 1.041.196.32.469.576.818.768.354.191.767.287 1.24.287.486 0 .959-.104 1.419-.313a4.051 4.051 0 0 0 1.259-.914c.38-.396.68-.872.902-1.426.221-.553.332-1.174.332-1.86h1.726c0 .844-.096 1.558-.288 2.142-.192.579-.424 1.052-.697 1.419a5.24 5.24 0 0 1-.76.85 5.436 5.436 0 0 0-.218.204 4.3 4.3 0 0 1-.217.205 4.06 4.06 0 0 1-1.611.991 5.729 5.729 0 0 1-1.853.319Zm11.752-.185v-13.091h8.118v1.7h-6.143v3.989h5.561v1.694h-5.561V232h-1.975Zm13.364.198c-.967 0-1.8-.207-2.499-.62a4.194 4.194 0 0 1-1.611-1.758c-.375-.758-.563-1.647-.563-2.665 0-1.006.188-1.892.563-2.659.379-.767.908-1.366 1.585-1.796.682-.431 1.479-.646 2.391-.646.554 0 1.091.092 1.611.275a3.9 3.9 0 0 1 1.399.863c.414.392.74.901.978 1.527.239.623.358 1.379.358 2.27v.677h-7.804v-1.432h5.931a2.83 2.83 0 0 0-.306-1.336 2.32 2.32 0 0 0-.863-.926c-.367-.226-.797-.339-1.291-.339-.537 0-1.006.132-1.407.396-.396.26-.703.601-.92 1.023a2.95 2.95 0 0 0-.32 1.361v1.119c0 .656.115 1.214.345 1.675.235.46.561.811.978 1.054.418.239.906.358 1.464.358.362 0 .693-.051.991-.153a2.05 2.05 0 0 0 1.272-1.247l1.809.326c-.145.533-.405 1-.78 1.4a3.763 3.763 0 0 1-1.4.927c-.558.217-1.195.326-1.911.326Zm5.946-.198v-13.091h1.912v4.864h.115c.11-.204.27-.441.479-.709.209-.269.499-.503.869-.703.371-.205.861-.307 1.47-.307.793 0 1.5.2 2.123.601.622.4 1.11.978 1.463 1.732.358.754.537 1.662.537 2.723s-.177 1.971-.53 2.729c-.354.755-.84 1.336-1.458 1.746-.617.404-1.323.607-2.115.607-.597 0-1.085-.1-1.464-.301-.375-.2-.669-.434-.882-.703a5.279 5.279 0 0 1-.492-.716h-.16V232h-1.867Zm1.873-4.909c0 .69.1 1.295.301 1.815.2.52.49.927.869 1.221.379.29.844.435 1.393.435.571 0 1.049-.151 1.432-.454.384-.307.673-.722.87-1.246.2-.525.3-1.115.3-1.771 0-.648-.098-1.229-.294-1.745-.192-.516-.482-.923-.869-1.221-.384-.298-.863-.447-1.439-.447-.554 0-1.022.142-1.406.428-.379.285-.667.684-.863 1.195-.196.511-.294 1.108-.294 1.79ZM1049.44 218.909h2.4l4.16 10.176h.16l4.16-10.176h2.4V232h-1.88v-9.473h-.12l-3.86 9.454h-1.56l-3.86-9.46h-.12V232h-1.88v-13.091Zm18.32 13.308c-.63 0-1.19-.115-1.69-.345-.5-.234-.9-.573-1.2-1.016-.29-.443-.43-.987-.43-1.63 0-.554.11-1.01.32-1.368.21-.358.5-.641.86-.85a4.46 4.46 0 0 1 1.22-.473c.44-.107.9-.188 1.36-.243l1.44-.166c.36-.047.63-.122.79-.224.17-.102.25-.268.25-.499v-.044c0-.559-.15-.991-.47-1.298-.31-.307-.77-.46-1.39-.46-.65 0-1.15.143-1.52.428-.37.281-.62.595-.76.94l-1.8-.409c.21-.597.52-1.078.93-1.445.42-.371.89-.639 1.43-.805.53-.171 1.1-.256 1.69-.256.39 0 .81.047 1.25.141.44.089.85.255 1.24.498s.7.59.95 1.042c.25.448.37 1.029.37 1.745V232h-1.86v-1.342h-.08c-.13.247-.31.49-.56.728-.24.239-.56.437-.95.595-.39.157-.85.236-1.39.236Zm.41-1.534c.53 0 .98-.104 1.36-.313.38-.209.66-.482.86-.818.2-.341.3-.705.3-1.093v-1.266c-.07.068-.2.132-.4.192-.19.055-.41.104-.65.147-.25.038-.49.075-.73.109-.23.029-.43.055-.58.076-.38.047-.71.126-1.02.237-.3.111-.55.27-.73.479-.18.205-.27.478-.27.818 0 .473.18.831.53 1.074.35.239.79.358 1.33.358Zm6.44 1.317v-9.818h1.84v1.559h.11c.18-.528.49-.943.94-1.246.46-.307.97-.46 1.55-.46.12 0 .26.004.42.013.17.008.3.019.39.032v1.828a3.334 3.334 0 0 0-.41-.071 3.939 3.939 0 0 0-.59-.044c-.45 0-.85.095-1.2.287-.35.188-.63.45-.83.786-.21.333-.31.712-.31 1.138V232h-1.91Zm15.53-13.091V232h-1.98v-11.109h-.08l-3.13 2.045v-1.892l3.27-2.135h1.92Zm10.38 5.67-1.73.307a2.142 2.142 0 0 0-.34-.633 1.81 1.81 0 0 0-.63-.492c-.26-.128-.59-.192-.99-.192-.54 0-.99.121-1.36.364-.36.239-.54.548-.54.927 0 .328.12.592.37.793.24.2.63.364 1.17.492l1.56.358c.9.209 1.58.53 2.02.965.44.435.67.999.67 1.694 0 .588-.17 1.112-.52 1.572-.33.456-.8.814-1.41 1.074-.6.26-1.3.39-2.09.39-1.1 0-1.99-.234-2.69-.703-.69-.473-1.12-1.144-1.28-2.013l1.85-.282c.11.482.35.846.71 1.093.36.243.82.365 1.4.365.63 0 1.13-.13 1.5-.39.38-.264.56-.586.56-.965a1 1 0 0 0-.34-.774c-.23-.209-.57-.366-1.04-.473l-1.67-.364c-.91-.209-1.59-.541-2.03-.997-.43-.456-.65-1.034-.65-1.733 0-.579.16-1.086.49-1.521.32-.435.77-.773 1.34-1.016.57-.247 1.22-.371 1.96-.371 1.06 0 1.9.23 2.51.69.61.456 1.01 1.068 1.2 1.835Zm6.34-2.397v1.534h-5.36v-1.534h5.36Zm-3.92-2.352h1.91v9.287c0 .371.05.65.16.838.11.183.26.308.43.377.18.064.37.096.58.096.16 0 .29-.011.41-.032l.26-.052.35 1.579c-.11.043-.27.086-.47.128-.21.047-.46.073-.77.077-.5.008-.97-.081-1.41-.269a2.43 2.43 0 0 1-1.05-.869c-.27-.392-.4-.884-.4-1.477v-9.683ZM1257.44 218.909h2.4l4.16 10.176h.16l4.16-10.176h2.4V232h-1.88v-9.473h-.12l-3.86 9.454h-1.56l-3.86-9.46h-.12V232h-1.88v-13.091Zm18.32 13.308c-.63 0-1.19-.115-1.69-.345-.5-.234-.9-.573-1.2-1.016-.29-.443-.43-.987-.43-1.63 0-.554.11-1.01.32-1.368.21-.358.5-.641.86-.85a4.46 4.46 0 0 1 1.22-.473c.44-.107.9-.188 1.36-.243l1.44-.166c.36-.047.63-.122.79-.224.17-.102.25-.268.25-.499v-.044c0-.559-.15-.991-.47-1.298-.31-.307-.77-.46-1.39-.46-.65 0-1.15.143-1.52.428-.37.281-.62.595-.76.94l-1.8-.409c.21-.597.52-1.078.93-1.445.42-.371.89-.639 1.43-.805.53-.171 1.1-.256 1.69-.256.39 0 .81.047 1.25.141.44.089.85.255 1.24.498s.7.59.95 1.042c.25.448.37 1.029.37 1.745V232h-1.86v-1.342h-.08c-.13.247-.31.49-.56.728-.24.239-.56.437-.95.595-.39.157-.85.236-1.39.236Zm.41-1.534c.53 0 .98-.104 1.36-.313.38-.209.66-.482.86-.818.2-.341.3-.705.3-1.093v-1.266c-.07.068-.2.132-.4.192-.19.055-.41.104-.65.147-.25.038-.49.075-.73.109-.23.029-.43.055-.58.076-.38.047-.71.126-1.02.237-.3.111-.55.27-.73.479-.18.205-.27.478-.27.818 0 .473.18.831.53 1.074.35.239.79.358 1.33.358Zm6.44 1.317v-9.818h1.84v1.559h.11c.18-.528.49-.943.94-1.246.46-.307.97-.46 1.55-.46.12 0 .26.004.42.013.17.008.3.019.39.032v1.828a3.334 3.334 0 0 0-.41-.071 3.939 3.939 0 0 0-.59-.044c-.45 0-.85.095-1.2.287-.35.188-.63.45-.83.786-.21.333-.31.712-.31 1.138V232h-1.91Zm14.4.185c-.88 0-1.64-.159-2.27-.479-.63-.32-1.12-.754-1.46-1.304a3.519 3.519 0 0 1-.51-1.879c0-.533.11-1.006.33-1.419.22-.418.53-.804.93-1.157.4-.354.85-.71 1.37-1.068l2.11-1.489c.36-.234.64-.482.84-.742.2-.264.3-.59.3-.978 0-.306-.13-.6-.39-.882-.27-.281-.62-.422-1.07-.422-.3 0-.57.075-.81.224-.23.149-.41.341-.54.575-.13.231-.19.473-.19.729 0 .298.08.599.24.901.17.303.38.616.64.94.26.32.53.652.82.997l6.08 7.268h-2.16l-5.03-5.913c-.43-.498-.82-.967-1.18-1.406a7.083 7.083 0 0 1-.88-1.342 3.361 3.361 0 0 1-.34-1.477c0-.601.14-1.133.41-1.598.28-.469.67-.835 1.16-1.099.49-.264 1.07-.397 1.74-.397.67 0 1.25.133 1.73.397.49.26.86.607 1.12 1.042.26.43.4.901.4 1.412 0 .622-.16 1.172-.47 1.649-.31.473-.73.908-1.27 1.304l-2.63 1.937c-.51.375-.87.746-1.07 1.112-.19.363-.29.646-.29.851 0 .375.1.722.29 1.041.19.32.47.576.82.768.35.191.76.287 1.24.287s.95-.104 1.41-.313c.47-.213.89-.518 1.26-.914.38-.396.68-.872.9-1.426.23-.553.34-1.174.34-1.86h1.72c0 .844-.09 1.558-.28 2.142-.2.579-.43 1.052-.7 1.419a5.24 5.24 0 0 1-.76.85c-.08.068-.15.136-.22.204-.07.069-.14.137-.22.205-.44.447-.98.778-1.61.991a5.68 5.68 0 0 1-1.85.319Zm12.86-.185h-2.1l4.71-13.091h2.28l4.71 13.091h-2.09l-3.7-10.713h-.11l-3.7 10.713Zm.35-5.126h6.8v1.662h-6.8v-1.662Zm10.45 8.808v-13.5h1.87v1.591h.16c.11-.204.27-.441.48-.709.21-.269.5-.503.87-.703.37-.205.86-.307 1.47-.307.79 0 1.5.2 2.12.601.62.4 1.11.978 1.46 1.732.36.754.54 1.662.54 2.723s-.18 1.971-.53 2.729c-.36.755-.84 1.336-1.46 1.746-.62.404-1.32.607-2.11.607-.6 0-1.09-.1-1.47-.301-.37-.2-.67-.434-.88-.703a5.067 5.067 0 0 1-.49-.716h-.12v5.21h-1.91Zm1.87-8.591c0 .69.1 1.295.3 1.815.2.52.49.927.87 1.221.38.29.85.435 1.4.435.57 0 1.05-.151 1.43-.454.38-.307.67-.722.87-1.246.2-.525.3-1.115.3-1.771 0-.648-.1-1.229-.3-1.745-.19-.516-.48-.923-.86-1.221-.39-.298-.87-.447-1.44-.447-.56 0-1.03.142-1.41.428-.38.285-.67.684-.86 1.195-.2.511-.3 1.108-.3 1.79Zm8.7 4.909v-9.818h1.85v1.559h.1c.18-.528.49-.943.95-1.246.45-.307.97-.46 1.54-.46.12 0 .26.004.42.013.17.008.3.019.39.032v1.828a3.078 3.078 0 0 0-.4-.071c-.2-.029-.4-.044-.59-.044-.45 0-.86.095-1.21.287-.35.188-.63.45-.83.786-.21.333-.31.712-.31 1.138V232h-1.91Z"/>
  <path stroke="#DCDCDC" stroke-width="2" d="M618 143v94.5"/>
  <path fill="#575757" d="M841.438 232v-13.091h8.118v1.7h-6.143v3.989h5.561v1.694h-5.561V232h-1.975Zm13.365.198c-.968 0-1.801-.207-2.5-.62a4.207 4.207 0 0 1-1.611-1.758c-.375-.758-.562-1.647-.562-2.665 0-1.006.187-1.892.562-2.659.38-.767.908-1.366 1.586-1.796.681-.431 1.478-.646 2.39-.646.554 0 1.091.092 1.611.275.52.183.987.471 1.4.863.413.392.739.901.978 1.527.239.623.358 1.379.358 2.27v.677h-7.805v-1.432h5.932c0-.502-.102-.948-.307-1.336a2.307 2.307 0 0 0-.863-.926c-.366-.226-.797-.339-1.291-.339-.537 0-1.006.132-1.406.396a2.67 2.67 0 0 0-.921 1.023 2.949 2.949 0 0 0-.319 1.361v1.119c0 .656.115 1.214.345 1.675.234.46.56.811.978 1.054.418.239.905.358 1.464.358.362 0 .692-.051.99-.153.299-.107.557-.264.774-.473a2.06 2.06 0 0 0 .498-.774l1.809.326a3.26 3.26 0 0 1-.779 1.4 3.77 3.77 0 0 1-1.4.927c-.559.217-1.196.326-1.911.326Zm5.946-.198v-13.091h1.911v4.864h.115c.111-.204.271-.441.48-.709.208-.269.498-.503.869-.703.371-.205.861-.307 1.47-.307.793 0 1.5.2 2.122.601.622.4 1.11.978 1.464 1.732.358.754.537 1.662.537 2.723s-.177 1.971-.531 2.729c-.353.755-.839 1.336-1.457 1.746-.618.404-1.323.607-2.116.607-.596 0-1.084-.1-1.464-.301-.375-.2-.669-.434-.882-.703a5.279 5.279 0 0 1-.492-.716h-.16V232h-1.866Zm1.873-4.909c0 .69.1 1.295.3 1.815.2.52.49.927.869 1.221.38.29.844.435 1.394.435.571 0 1.048-.151 1.432-.454.383-.307.673-.722.869-1.246.2-.525.3-1.115.3-1.771 0-.648-.098-1.229-.294-1.745-.191-.516-.481-.923-.869-1.221-.383-.298-.863-.447-1.438-.447-.554 0-1.023.142-1.406.428-.38.285-.667.684-.863 1.195-.196.511-.294 1.108-.294 1.79Zm17.866-8.182V232h-1.982v-11.109h-.077l-3.132 2.045v-1.892l3.267-2.135h1.924Zm7.968 0V232h-1.982v-11.109h-.077l-3.132 2.045v-1.892l3.267-2.135h1.924Zm7.609 3.273v1.534h-5.363v-1.534h5.363Zm-3.924-2.352h1.911v9.287c0 .371.055.65.166.838a.875.875 0 0 0 .428.377c.179.064.373.096.582.096.153 0 .288-.011.403-.032l.268-.052.345 1.579c-.11.043-.268.086-.473.128-.204.047-.46.073-.767.077a3.365 3.365 0 0 1-1.406-.269 2.41 2.41 0 0 1-1.055-.869c-.268-.392-.402-.884-.402-1.477v-9.683Zm7.621 6.34V232h-1.911v-13.091h1.885v4.871h.122c.23-.529.581-.948 1.054-1.259.473-.311 1.091-.467 1.854-.467.673 0 1.261.138 1.764.415.507.277.899.691 1.176 1.241.282.545.422 1.227.422 2.045V232h-1.911v-6.015c0-.72-.185-1.278-.556-1.675-.371-.4-.886-.6-1.547-.6-.452 0-.857.095-1.214.287a2.077 2.077 0 0 0-.838.844c-.2.366-.3.81-.3 1.329Z"/>
  <path stroke="#DCDCDC" stroke-width="2" d="M826 143v94.5M1034 143v94.5M1242 143v94.5"/>
  <path fill="#575757" d="M424.526 218.909h1.969v9.281c0 .84-.166 1.558-.499 2.154a3.32 3.32 0 0 1-1.387 1.368c-.596.311-1.295.467-2.096.467-.737 0-1.4-.134-1.988-.403a3.267 3.267 0 0 1-1.387-1.169c-.337-.516-.505-1.143-.505-1.88h1.962c0 .362.083.676.249.94.171.264.403.471.697.62a2.31 2.31 0 0 0 1.023.217c.418 0 .771-.087 1.061-.262.294-.179.518-.441.671-.786.154-.345.23-.767.23-1.266v-9.281Zm7.008 13.308a4.014 4.014 0 0 1-1.688-.345 2.839 2.839 0 0 1-1.195-1.016c-.29-.443-.435-.987-.435-1.63 0-.554.107-1.01.32-1.368a2.36 2.36 0 0 1 .863-.85 4.483 4.483 0 0 1 1.214-.473c.448-.107.904-.188 1.368-.243l1.432-.166c.366-.047.633-.122.799-.224.166-.102.249-.268.249-.499v-.044c0-.559-.157-.991-.473-1.298-.311-.307-.775-.46-1.393-.46-.644 0-1.151.143-1.522.428-.366.281-.62.595-.76.94l-1.796-.409c.213-.597.524-1.078.933-1.445a3.773 3.773 0 0 1 1.425-.805 5.55 5.55 0 0 1 1.694-.256c.392 0 .808.047 1.247.141a3.64 3.64 0 0 1 1.24.498c.387.243.705.59.952 1.042.247.448.371 1.029.371 1.745V232h-1.867v-1.342h-.076c-.124.247-.309.49-.556.728a2.965 2.965 0 0 1-.953.595c-.388.157-.852.236-1.393.236Zm.415-1.534c.529 0 .98-.104 1.355-.313.38-.209.667-.482.863-.818.2-.341.301-.705.301-1.093v-1.266c-.069.068-.201.132-.397.192a6.318 6.318 0 0 1-.658.147c-.247.038-.488.075-.722.109a56.2 56.2 0 0 0-.588.076c-.371.047-.71.126-1.017.237-.302.111-.545.27-.728.479-.179.205-.269.478-.269.818 0 .473.175.831.524 1.074.35.239.795.358 1.336.358Zm8.347-4.513V232h-1.912v-9.818h1.835v1.598h.121c.226-.52.58-.938 1.062-1.253.485-.315 1.097-.473 1.834-.473.669 0 1.255.141 1.758.422.503.277.893.69 1.17 1.24.277.55.415 1.229.415 2.039V232h-1.911v-6.015c0-.712-.185-1.268-.556-1.668-.371-.405-.88-.607-1.528-.607-.443 0-.837.095-1.182.287a2.067 2.067 0 0 0-.812.844c-.196.366-.294.81-.294 1.329Zm17.471-7.261V232h-1.982v-11.109h-.076l-3.132 2.045v-1.892l3.266-2.135h1.924Zm7.354-.179a5.057 5.057 0 0 1 1.726.32 4.078 4.078 0 0 1 1.534 1.022c.46.473.827 1.113 1.1 1.918.277.801.417 1.798.421 2.992 0 1.146-.115 2.166-.345 3.061-.23.891-.56 1.643-.99 2.257-.427.613-.944 1.08-1.554 1.4-.609.319-1.295.479-2.058.479-.78 0-1.472-.153-2.077-.46a3.952 3.952 0 0 1-1.477-1.272 4.203 4.203 0 0 1-.709-1.88h1.949c.128.563.388 1.019.78 1.368.396.346.908.518 1.534.518.959 0 1.707-.417 2.244-1.253.537-.839.807-2.011.811-3.515h-.102a3.533 3.533 0 0 1-.831.946 3.745 3.745 0 0 1-1.106.613 3.893 3.893 0 0 1-1.31.218 3.93 3.93 0 0 1-2.058-.556 4.106 4.106 0 0 1-1.477-1.528c-.366-.648-.55-1.387-.55-2.218 0-.827.188-1.577.563-2.25a4.2 4.2 0 0 1 1.585-1.598c.682-.397 1.481-.59 2.397-.582Zm.007 1.662c-.499 0-.949.124-1.349.371-.396.243-.71.573-.94.991-.23.413-.345.873-.345 1.38 0 .507.111.968.332 1.381.226.409.533.735.921.978.392.239.839.358 1.342.358.375 0 .725-.073 1.049-.217.323-.145.607-.346.85-.601a2.94 2.94 0 0 0 .569-.882c.136-.329.204-.674.204-1.036 0-.481-.115-.929-.345-1.342a2.683 2.683 0 0 0-.933-.997 2.444 2.444 0 0 0-1.355-.384Zm11.152 1.79v1.534h-5.363v-1.534h5.363Zm-3.924-2.352h1.911v9.287c0 .371.055.65.166.838a.871.871 0 0 0 .428.377c.179.064.373.096.582.096.153 0 .288-.011.403-.032l.268-.052.345 1.579a3.081 3.081 0 0 1-.473.128c-.204.047-.46.073-.767.077a3.365 3.365 0 0 1-1.406-.269 2.41 2.41 0 0 1-1.055-.869c-.268-.392-.402-.884-.402-1.477v-9.683Zm7.621 6.34V232h-1.912v-13.091h1.886v4.871h.121a2.824 2.824 0 0 1 1.055-1.259c.473-.311 1.091-.467 1.854-.467.673 0 1.261.138 1.764.415.507.277.899.691 1.176 1.241.281.545.422 1.227.422 2.045V232h-1.911v-6.015c0-.72-.186-1.278-.556-1.675-.371-.4-.887-.6-1.547-.6a2.53 2.53 0 0 0-1.215.287 2.08 2.08 0 0 0-.837.844c-.2.366-.3.81-.3 1.329Z"/>
  <path stroke="#DCDCDC" stroke-width="2" d="M410 143v94.5"/>
  <rect width="48" height="48" x="594" y="119" fill="#EEE" rx="24"/>
  <path fill="#009664" d="M614.875 135.375A1.875 1.875 0 0 1 613 137.25a1.85 1.85 0 0 1-1.875-1.875c0-1.016.82-1.875 1.875-1.875a1.9 1.9 0 0 1 1.875 1.875Zm-2.187 11.875v5c0 .703-.586 1.25-1.25 1.25-.704 0-1.25-.547-1.25-1.25v-8.711l-1.133 1.875a1.265 1.265 0 0 1-1.719.43 1.265 1.265 0 0 1-.43-1.719l2.266-3.789c.703-1.133 1.914-1.836 3.242-1.836h1.133c1.328 0 2.539.703 3.242 1.836l1.758 2.93c-.664.664-1.133 1.484-1.445 2.382a1.015 1.015 0 0 1-.196-.234l-1.094-1.875v8.711c0 .703-.585 1.25-1.25 1.25-.703 0-1.25-.547-1.25-1.25v-5h-.624Zm16.562.625a5.626 5.626 0 0 1-5.625 5.625 5.602 5.602 0 0 1-5.625-5.625c0-3.086 2.5-5.625 5.625-5.625 3.086 0 5.625 2.539 5.625 5.625Zm-3.906-1.68L623 148.578l-1.133-1.133a.662.662 0 0 0-.898 0 .661.661 0 0 0 0 .899l1.562 1.562a.661.661 0 0 0 .899 0l2.812-2.812a.661.661 0 0 0 0-.899.662.662 0 0 0-.898 0Z"/>
  <rect width="48" height="48" x="802" y="119" fill="#EEE" rx="24"/>
  <path fill="#009664" d="M834.633 133.539c.703 0 1.367.469 1.367 1.172v11.797c0 .469-.312.898-.781 1.094-1.68.664-3.047.898-4.219.898-2.812 0-4.727-1.211-7.5-1.211-1.406 0-3.008.313-5 1.211v4.375a.642.642 0 0 1-.625.625h-1.289a.642.642 0 0 1-.625-.625L816 134.75c0-.664.547-1.25 1.25-1.25.664 0 1.25.586 1.25 1.25v.039c2.227-.937 3.867-1.25 5.156-1.25 2.617 0 3.906 1.25 6.172 1.25 1.094 0 2.344-.273 4.063-1.094.234-.117.507-.156.742-.156Zm-1.133 5.508v-2.461c-1.133.391-2.148.625-3.125.664v2.695c-.195 0-.391.039-.547.039-.976 0-1.797-.234-2.578-.507v-2.579a16.698 16.698 0 0 1-1.055-.351c-.742-.235-1.367-.43-2.07-.469v2.656h-.469c-.742 0-1.64.118-2.656.391v-2.578c-.508.117-1.016.312-1.562.547l-.938.39v2.5c.938-.39 1.719-.664 2.5-.859v3.203c-.508.156-1.016.352-1.562.586l-.938.391v2.5c.82-.352 1.68-.586 2.5-.782v-2.695c.977-.312 1.875-.469 2.656-.469h.469v2.969c1.133.039 2.187.234 3.125.469v-2.578c.742.195 1.562.39 2.578.39.195 0 .352-.039.547-.039V146h.586c.82 0 1.641-.117 2.539-.43v-3.164c-1.133.391-2.148.625-3.125.664v-3.125c.859-.078 1.875-.351 3.125-.898Zm-9.375-.313c1.211.078 2.187.43 3.125.743v3.242a16.665 16.665 0 0 1-1.055-.352c-.742-.234-1.367-.429-2.07-.508v-3.125Z"/>
  <rect width="48" height="48" x="1010" y="119" fill="#EEE" rx="24"/>
  <path fill="#009664" d="M1045.09 136.742c0 .117.75 3.32-1.36 6.367-1.49 2.188-3.95 3.711-7.35 4.61-.74.195-1.21.859-1.21 1.601 0 .938.74 1.68 1.68 1.68h.2c1.01 0 1.87.859 1.87 1.875 0 .352-.27.625-.58.625h-8.75c-.32 0-.59-.273-.59-.625 0-1.016.82-1.875 1.88-1.875h.15c.94 0 1.72-.742 1.68-1.68 0-.742-.47-1.406-1.21-1.601-3.4-.899-5.86-2.422-7.3-4.61-2.08-3.047-1.33-6.25-1.33-6.367.11-.43.51-.742.93-.742h3.95a6.924 6.924 0 0 1 0-1.289c0-.664.55-1.211 1.25-1.211h9.96c.7 0 1.25.547 1.25 1.211.04.391.04.82 0 1.289h3.95c.43 0 .82.312.93.742Zm-19.33 5.352c.9 1.367 2.34 2.422 4.26 3.203-1.45-2.266-2.04-5.078-2.27-7.422h-3.13c-.03.937.04 2.617 1.14 4.219Zm11.44-2.852c.12-.156.04-.39-.15-.43l-1.96-.273-.89-1.797c-.08-.195-.36-.195-.43 0l-.86 1.797-2 .273c-.19.04-.27.274-.11.43l1.4 1.367-.31 1.953c-.04.196.16.352.35.274l1.76-.938 1.72.938c.19.078.43-.078.39-.274l-.35-1.953 1.44-1.367Zm5 2.852c1.1-1.602 1.18-3.282 1.14-4.219h-3.13c-.23 2.344-.82 5.156-2.26 7.422 1.91-.781 3.35-1.836 4.25-3.203Z"/>
  <rect width="48" height="48" x="1218" y="119" fill="#EEE" rx="24"/>
  <path fill="#009664" d="M1248.56 141c.51 0 .94.43.94.938v1.874c0 .547-.43.938-.94.938h-.31v1.914c0 1.016-.86 1.875-1.87 1.875 0 1.367-1.14 2.5-2.5 2.5h-5.36l-4.02 2.305c-.62.351-1.37.156-1.72-.43l-3.12-5.43a1.235 1.235 0 0 1 .46-1.718l3.13-1.797c0-2.031 1.05-3.907 2.77-4.922l.98-.586v4.727c0 1.64 1.41 2.968 3.09 2.773 1.44-.156 2.53-1.484 2.53-2.969V141h5.94Zm5.74-1.445c.36.586.16 1.367-.42 1.679l-3.13 1.797v-1.093c0-1.211-1.02-2.188-2.19-2.188h-7.18v3.438c0 .898-.71 1.562-1.57 1.562-.9 0-1.56-.664-1.56-1.562v-4.922c0-.43.2-.821.55-1.055 1.29-.781 2.73-1.211 4.22-1.211h2.42l4.06-2.305a1.218 1.218 0 0 1 1.68.43l3.12 5.43Z"/>
  <rect width="48" height="48" x="178" y="119" fill="#EEE" rx="24"/>
  <path fill="#009664" d="M207.625 136a1.9 1.9 0 0 1 1.875 1.875v13.75a1.875 1.875 0 0 1-1.875 1.875h-11.25a1.85 1.85 0 0 1-1.875-1.875v-13.75c0-1.016.82-1.875 1.875-1.875h2.07c.547-1.445 1.914-2.5 3.555-2.5 1.602 0 2.969 1.055 3.516 2.5h2.109Zm-9.375 12.812c.508 0 .938-.39.938-.937a.95.95 0 0 0-.938-.937.925.925 0 0 0-.938.937c0 .547.391.937.938.937Zm0-3.75c.508 0 .938-.39.938-.937a.95.95 0 0 0-.938-.937.925.925 0 0 0-.938.937c0 .547.391.937.938.937ZM202 136c-.703 0-1.25.586-1.25 1.25 0 .703.547 1.25 1.25 1.25.664 0 1.25-.547 1.25-1.25 0-.664-.586-1.25-1.25-1.25Zm4.375 12.5a.642.642 0 0 0 .625-.625c0-.313-.312-.625-.625-.625h-5a.642.642 0 0 0-.625.625c0 .352.273.625.625.625h5Zm0-3.75a.642.642 0 0 0 .625-.625c0-.313-.312-.625-.625-.625h-5a.642.642 0 0 0-.625.625c0 .352.273.625.625.625h5Z"/>
  <rect width="48" height="48" x="386" y="119" fill="#EEE" rx="24"/>
  <path fill="#009664" d="M402.617 135.688a.95.95 0 0 1 .469.82c0 .312-.195.625-.469.82-.312.156-.664.156-.937-.039l-2.188-1.25a.953.953 0 0 1-.469-.82c0-.313.157-.625.469-.821.313-.156.664-.156.938.04l2.187 1.25Zm-.937 9.062a.877.877 0 0 1 1.25.352.94.94 0 0 1-.313 1.25l-2.187 1.25a.903.903 0 0 1-.938.039.966.966 0 0 1-.469-.821c0-.351.196-.664.469-.82l2.188-1.25Zm.195-3.75c0 .547-.43.938-.937.938h-2.5c-.547 0-.938-.391-.938-.938 0-.508.391-.938.938-.938h2.5c.507 0 .937.43.937.938Zm15.977-3.594c-.43 0-.821-.273-.938-.664a.923.923 0 0 1 .43-1.054l2.187-1.25a.875.875 0 0 1 1.25.351c.274.43.117.977-.312 1.25l-2.149 1.25a1.038 1.038 0 0 1-.468.117Zm2.617 8.594c.429.234.586.82.312 1.25a.876.876 0 0 1-1.25.352l-2.187-1.25a.953.953 0 0 1-.469-.821c0-.312.195-.625.469-.82.312-.156.664-.156.937.039l2.188 1.25Zm1.093-5.938c.508 0 .938.43.938.938 0 .547-.43.938-.938.938h-2.5c-.546 0-.937-.391-.937-.938 0-.508.391-.938.937-.938h2.5Zm-14.687 11.211v-1.523h6.25l-.039 1.523c0 .235-.039.469-.195.704l-.664.976a1.246 1.246 0 0 1-1.055.547h-2.383c-.43 0-.82-.195-1.055-.547l-.664-.976c-.117-.235-.195-.469-.195-.704Zm3.086-17.734c3.789-.039 6.914 3.047 6.914 6.836 0 1.758-.664 3.32-1.719 4.492-.664.742-1.64 2.305-2.031 3.594v.039h-6.289v-.039c-.391-1.289-1.367-2.852-2.031-3.594a6.792 6.792 0 0 1-1.68-4.492c0-3.633 2.852-6.836 6.836-6.836Zm-.899 3.399v4.374c0 .547.391.938.938.938a.926.926 0 0 0 .938-.938v-4.374A.951.951 0 0 0 410 136a.926.926 0 0 0-.938.938ZM410 146c.664 0 1.25-.547 1.25-1.25 0-.664-.586-1.25-1.25-1.25-.703 0-1.25.586-1.25 1.25 0 .703.547 1.25 1.25 1.25Z"/>
</svg>
