<svg width="464" height="182" xmlns="http://www.w3.org/2000/svg" fill="none" viewBox="0 0 464 182">
  <path fill="#fff" d="m20.162 95.008-10.545.553c-3.196.168-4.878-1.347-5.045-4.542L1.557 33.498C1.39 30.302 2.904 28.62 6.1 28.453l10.545-.552c3.196-.168 4.877 1.346 5.045 4.542l1.22 23.296-9.107.477-.482-9.203-1.918.1 1.538 29.336 1.917-.1-.502-9.587 9.107-.478 1.241 23.68c.168 3.195-1.346 4.877-4.542 5.044Zm17.71-.928-9.108.478-3.517-67.108 15.627-.82c3.26-.17 4.973 1.342 5.14 4.538l1.337 25.5c.1 1.918-.803 3.023-2.71 3.315l.01.192c1.863.095 2.845 1.1 2.945 3.018l1.588 30.294-9.395.493-1.241-23.68-1.917.1 1.24 23.68ZM35.344 45.86l.247 4.697 2.205-.115-.247-4.698-2.205.115Zm26.843 46.947-9.107.477-3.517-67.108 9.107-.477 3.517 67.108ZM77.571 92l-9.108.477-2.527-48.222-2.397.126-.99-18.886 13.902-.729.99 18.886-2.397.126L77.57 92Zm19.967-1.047-13.71.719-3.516-67.108 13.709-.719.99 18.886-4.602.242.246 4.697 4.602-.24 1.04 19.844-4.602.241.251 4.793 4.602-.24.99 18.885Zm12.973-.68-9.108.478-3.517-67.108 15.627-.82c3.259-.17 4.973 1.343 5.14 4.538l1.337 25.501c.1 1.917-.803 3.022-2.711 3.314l.011.192c1.863.095 2.845 1.1 2.945 3.018l1.588 30.295-9.395.492-1.241-23.68-1.917.101 1.241 23.68Zm-2.528-48.221.247 4.697 2.205-.115-.247-4.698-2.205.116Zm26.843 46.947-9.107.477-3.517-67.108 9.107-.477L134.826 89Zm9.344-.49c-3.643.191-5.578-1.886-5.806-6.232l-1.598-30.486c-.227-4.346 1.832-6.633 6.178-6.861l4.506-.236-.247-4.698-1.917.1.166 3.164-9.108.478-.904-17.257c-.167-3.195 1.347-4.877 4.542-5.044l10.546-.553c3.195-.167 4.877 1.347 5.044 4.542l3.266 62.315-9.107.477-.131-2.493c-.293.529-.935 1.107-1.928 1.736-.992.629-2.16.978-3.502 1.048Zm2.402-23.87.251 4.793 1.918-.1-.251-4.793-1.918.1Zm32.833 22.024-9.108.477-3.517-67.108 13.71-.718.989 18.886-4.601.241.246 4.698 4.602-.242 1.04 19.845-4.602.241 1.241 23.68Zm23.806-1.248-10.546.553c-3.195.167-4.877-1.347-5.044-4.542l-3.015-57.521c-.167-3.196 1.347-4.878 4.542-5.045l10.546-.553c3.196-.167 4.877 1.347 5.045 4.543l3.014 57.52c.168 3.196-1.346 4.878-4.542 5.045Zm-8.759-47.895 1.538 29.336 1.917-.1-1.537-29.337-1.918.101Zm26.468 46.967-9.107.477-3.517-67.108 15.626-.818c3.26-.171 4.974 1.341 5.141 4.537l1.336 25.5c.101 1.918-.802 3.023-2.71 3.315l.01.192c1.864.094 2.846 1.1 2.946 3.018l1.588 30.294-9.395.493-1.241-23.68-1.918.1 1.241 23.68Zm-2.527-48.222.246 4.698 2.205-.116-.246-4.697-2.205.115ZM151.012 167.725l-9.108.477-9.077-66.816 10.833-.568 3.012 22.625 2.548-22.917.288-.015 4.93 22.525.63-22.816 10.834-.568-2.044 67.399-9.107.478-2.811-22.444-.287.015-.641 22.625Zm30.843-1.617-9.107.478-3.517-67.108 9.107-.478 3.517 67.108Zm21.646-68.426 3.517 67.108-9.108.477-3.488-13.372-.288.015.708 13.518-9.107.477-3.517-67.108 9.107-.477 3.499 13.563.288-.015-.719-13.709 9.108-.477Zm25.158-1.319 3.517 67.108-9.108.477-3.488-13.371-.288.015.708 13.517-9.107.477-3.517-67.107 9.107-.478 3.499 13.564.288-.015-.719-13.71 9.108-.477Zm21.101 66.187-13.709.718-3.517-67.108 13.709-.718.99 18.886-4.602.241.246 4.697 4.602-.241 1.04 19.845-4.602.241.252 4.794 4.601-.242.99 18.887Zm12.973-.68-9.108.477-3.517-67.108 15.627-.819c3.26-.17 4.973 1.342 5.141 4.537l1.336 25.501c.1 1.918-.803 3.022-2.71 3.315l.01.191c1.863.095 2.845 1.101 2.946 3.018l1.587 30.295-9.395.492-1.241-23.679-1.917.1 1.241 23.68Zm-2.527-48.222.246 4.697 2.205-.115-.246-4.698-2.205.116Zm40.725 46.22-10.546.552c-3.196.168-4.877-1.346-5.045-4.542l-.849-16.202 9.108-.477.11 2.109 1.918-.1-.141-2.684-8.057-3.327c-2.16-.849-3.341-3.222-3.546-7.121l-1.557-29.719c-.168-3.195 1.346-4.877 4.542-5.044l10.546-.553c3.195-.168 4.877 1.346 5.044 4.542l.849 16.202-9.107.477-.111-2.109-1.917.101.146 2.78 8.057 3.327c2.159.848 3.341 3.221 3.545 7.12l1.553 29.623c.167 3.196-1.347 4.877-4.542 5.045Zm22.311-1.169-13.71.718-3.517-67.108 13.71-.718.989 18.886-4.601.241.246 4.697 4.602-.241 1.04 19.845-4.602.241.251 4.794 4.602-.242.99 18.887Zm17.574-.922-13.709.719-3.517-67.108 9.108-.477 2.527 48.222 4.601-.242.99 18.886Zm17.575-.921-13.709.719-3.517-67.108 13.709-.718.99 18.886-4.602.241.246 4.697 4.602-.241 1.04 19.845-4.602.241.251 4.794 4.602-.242.99 18.886Zm19.204-1.006-10.545.553c-3.196.167-4.877-1.347-5.045-4.543l-3.014-57.52c-.168-3.196 1.346-4.878 4.542-5.045l10.545-.553c3.196-.167 4.877 1.347 5.045 4.542l1.221 23.296-9.108.478-.482-9.204-1.917.101 1.537 29.335 1.917-.1-.502-9.587 9.108-.477 1.241 23.679c.167 3.196-1.347 4.878-4.543 5.045Zm20.106-1.054-9.107.478-2.527-48.222-2.397.125-.99-18.886 13.901-.728.99 18.886-2.397.125 2.527 48.222Zm15.366-.805-9.108.477-3.517-67.108 9.108-.477 3.517 67.108Zm19.218-1.007-10.545.552c-3.196.168-4.877-1.346-5.045-4.542l-3.014-57.52c-.168-3.196 1.346-4.878 4.542-5.045l10.545-.553c3.196-.168 4.877 1.346 5.045 4.542l3.014 57.521c.168 3.196-1.346 4.877-4.542 5.045Zm-8.758-47.895 1.537 29.335 1.917-.1-1.537-29.336-1.917.101Zm35.126-20.78 3.517 67.109-9.108.477-3.488-13.372-.288.015.709 13.518-9.108.477-3.517-67.108 9.108-.477 3.498 13.563.288-.015-.718-13.709 9.107-.477Z"/>
</svg>
