<svg width="491" height="185" xmlns="http://www.w3.org/2000/svg" fill="none" viewBox="0 0 491 185">
  <path fill="#fff" d="m13.93 95.154-9.107.477-3.517-67.108 9.108-.477L11.65 51.63l1.917-.1-1.035-19.75c-.134-2.556 1.014-3.898 3.442-4.026l7.094-.371.99 18.886-1.63.085.598 11.409c.1 1.917-.77 3.02-2.614 3.309l.01.192c1.863.094 2.845 1.1 2.946 3.018l.598 11.408 1.63-.085.99 18.886-6.807.356c-2.62.138-3.998-1.072-4.132-3.628l-1.04-19.845-1.917.1 1.24 23.68Zm25.627-1.343-9.108.477-3.517-67.108 15.148-.794c3.323-.174 5.072 1.4 5.246 4.724l1.758 33.554c.175 3.324-1.4 5.073-4.723 5.247l-6.04.316 1.236 23.584ZM37.03 45.589l.25 4.793 1.918-.1-.251-4.793-1.917.1Zm26.468 46.967-9.108.478-3.517-67.109 9.108-.477.718 13.71.288-.016 2.061-13.855 9.108-.477 3.517 67.108-9.108.477-.708-13.517-.287.015-2.072 13.663Zm27.554-1.444-9.107.477-2.527-48.221-2.397.125-.99-18.886 13.901-.728.99 18.886-2.397.125 2.527 48.222Zm19.967-1.046-13.709.718-3.517-67.108 13.709-.718.99 18.886-4.602.241.247 4.697 4.601-.24 1.04 19.844-4.601.241.251 4.794 4.601-.241.99 18.886Zm12.973-.68-9.107.477-3.517-67.108 15.147-.794c3.323-.174 5.072 1.4 5.246 4.724l1.759 33.554c.174 3.324-1.401 5.072-4.724 5.247l-6.04.316 1.236 23.584Zm-2.527-48.222.251 4.793 1.918-.1-.252-4.794-1.917.1Zm26.468 46.967-9.107.477-3.517-67.108 9.107-.477 3.517 67.108Zm4.309-69.056-8.437.442-.502-9.587 8.436-.442.503 9.587Zm9.587-.502-8.533.447-.502-9.587 8.532-.447.503 9.587Zm-.909 68.877-9.107.478-3.517-67.108 9.107-.477 3.517 67.107Zm35.114-1.84-23.583 1.236-.99-18.886 1.63-.085-2.528-48.222 20.133-1.055 2.527 48.222 1.822-.096.989 18.886Zm-15.373-47.548 1.537 29.335 1.918-.1-1.538-29.336-1.917.1Zm25.905 46.996-6.71.352-.99-18.886 1.63-.086-2.528-48.221 20.133-1.055 3.517 67.107-9.108.478-2.527-48.222-1.917.1 2.316 44.196c.14 2.684-1.131 4.097-3.816 4.237Zm26.681-1.398-7.765.407-.99-18.886 1.63-.086-.578-11.024c-.111-2.11.752-3.372 2.589-3.79l-.005-.095c-2.136-.4-3.267-1.816-3.395-4.244l-1.261-24.063c-.174-3.324 1.401-5.072 4.724-5.247l15.531-.814 3.517 67.108-9.108.478-1.241-23.68-1.917.1 1.04 19.846c.114 2.172-.81 3.503-2.771 3.99Zm.445-48.378.251 4.794 1.917-.1-.251-4.794-1.917.1ZM94.162 170.483l-10.545.553c-3.196.167-4.877-1.347-5.045-4.542l-3.014-57.521c-.168-3.196 1.346-4.877 4.542-5.045l10.545-.553c3.196-.167 4.877 1.347 5.045 4.543l3.014 57.521c.168 3.195-1.346 4.877-4.542 5.044Zm-8.759-47.895 1.538 29.336 1.917-.101-1.537-29.335-1.918.1Zm32.508 46.651-15.147.793-3.517-67.107 20.133-1.056.989 18.887-11.025.577.247 4.698 6.039-.317c3.324-.174 5.073 1.401 5.247 4.724l1.758 33.554c.174 3.324-1.4 5.072-4.724 5.247Zm-7.28-23.363.251 4.793 1.917-.1-.251-4.794-1.917.101Zm25.182 22.424-9.108.478-3.517-67.108 15.147-.794c3.324-.174 5.072 1.4 5.247 4.724l1.758 33.554c.174 3.323-1.4 5.072-4.724 5.246l-6.039.317 1.236 23.583Zm-2.528-48.221.252 4.793 1.917-.1-.251-4.794-1.918.101Zm22.825 47.158c-3.643.191-5.578-1.887-5.806-6.233l-1.597-30.486c-.228-4.346 1.831-6.633 6.177-6.861l4.506-.236-.246-4.698-1.918.101.166 3.164-9.107.477-.905-17.256c-.167-3.196 1.347-4.878 4.542-5.045l10.546-.553c3.195-.167 4.877 1.347 5.045 4.543l3.265 62.314-9.107.477-.131-2.492c-.293.528-.935 1.106-1.928 1.735-.992.629-2.159.978-3.502 1.049Zm2.402-23.871.252 4.794 1.917-.101-.251-4.793-1.918.1Zm25.182 22.425-9.107.477-3.517-67.108 9.107-.477 1.236 23.584 1.918-.101-1.236-23.583 9.107-.478 3.517 67.108-9.107.478-1.241-23.68-1.918.101 1.241 23.679Zm23.941-1.255-9.107.478-3.517-67.108 9.107-.478 1.236 23.584 1.918-.1-1.236-23.584 9.107-.477 3.517 67.108-9.107.477-1.241-23.68-1.918.101 1.241 23.679Zm22.599-1.184-7.765.407-.99-18.886 1.63-.085-.578-11.025c-.111-2.109.752-3.372 2.589-3.789l-.005-.096c-2.136-.401-3.267-1.815-3.395-4.244l-1.261-24.063c-.174-3.323 1.401-5.072 4.724-5.246l15.531-.814 3.517 67.108-9.108.477-1.241-23.68-1.917.101 1.04 19.845c.114 2.173-.81 3.503-2.771 3.99Zm.445-48.378.251 4.794 1.917-.101-.251-4.793-1.917.1Zm34.174 46.564-9.108.477-3.517-67.108 20.133-1.055 3.517 67.108-9.108.477-2.527-48.222-1.917.101 2.527 48.222Zm28.543-1.496-13.71.718-3.517-67.107 13.71-.719.989 18.886-4.601.241.246 4.698 4.601-.241 1.041 19.844-4.602.242.251 4.793 4.602-.241.99 18.886Zm12.972-.68-9.107.477-3.517-67.108 15.147-.793c3.324-.175 5.072 1.4 5.247 4.724l1.758 33.553c.174 3.324-1.4 5.073-4.724 5.247l-6.04.316 1.236 23.584Zm-2.527-48.222.251 4.794 1.918-.101-.251-4.793-1.918.1Zm31.07 46.726-13.709.719-3.517-67.108 13.709-.719.99 18.886-4.602.242.246 4.697 4.602-.241 1.04 19.845-4.602.241.252 4.793 4.601-.241.99 18.886Zm12.973-.68-9.108.478-3.517-67.108 9.108-.478 3.796 13.741.288-.016 2.147-14.051 9.108-.477 3.517 67.107-9.108.478-.728-13.901-.288.015-1.955 14.041-.288.016-3.413-13.761-.288.015.729 13.901Zm34.479-1.807-10.546.553c-3.195.167-4.877-1.347-5.044-4.542l-3.015-57.521c-.167-3.196 1.347-4.877 4.542-5.045l10.546-.553c3.196-.167 4.877 1.347 5.045 4.543l3.014 57.521c.168 3.195-1.346 4.877-4.542 5.044Zm-8.759-47.895 1.538 29.336 1.917-.101-1.537-29.335-1.918.1Zm24.168 47.088-6.807.357-.99-18.887 1.63-.085-.598-11.408c-.101-1.918.771-3.021 2.614-3.31l-.01-.191c-1.863-.095-2.845-1.101-2.946-3.018l-.598-11.409-1.629.086-.99-18.886 7.094-.372c2.429-.127 3.71 1.087 3.844 3.644l1.035 19.749 1.917-.101-1.235-23.584 9.107-.477 1.236 23.584 1.917-.101-1.035-19.749c-.134-2.556 1.014-3.898 3.442-4.025l7.095-.372.989 18.886-1.629.085.598 11.409c.1 1.917-.771 3.02-2.615 3.309l.01.192c1.864.094 2.846 1.1 2.946 3.018l.598 11.408 1.63-.085.99 18.886-6.807.357c-2.62.137-3.998-1.073-4.132-3.629l-1.04-19.845-1.917.1 1.241 23.68-9.108.477-1.24-23.679-1.918.1 1.04 19.845c.134 2.557-1.109 3.903-3.729 4.041Zm54.435 2.05-9.779.512-.256-4.889-8.916.467c-2.684.141-4.096-1.131-4.237-3.815l-3.306-63.082 9.107-.477 2.528 48.222 1.917-.101-2.527-48.222 9.107-.477 2.527 48.222 2.589-.136 1.246 23.776Zm12.693-5.568-9.108.477-3.517-67.108 9.108-.477 3.517 67.108Zm19.218-1.007-15.339.803-3.517-67.107 15.339-.804c3.196-.168 4.877 1.346 5.045 4.542l1.336 25.501c.101 1.917-.771 3.02-2.614 3.309l.01.192c1.864.095 2.846 1.101 2.946 3.018l1.336 25.501c.168 3.196-1.346 4.877-4.542 5.045Zm-8.758-47.896.246 4.698 1.917-.101-.246-4.697-1.917.1Zm1.286 24.543.251 4.793 1.917-.1-.251-4.794-1.917.101Z"/>
</svg>
