<svg width="416" height="187" viewBox="0 0 416 187" fill="none" xmlns="http://www.w3.org/2000/svg">
<path d="M20.1622 100.008L9.61665 100.561C6.54886 100.722 4.73279 99.0867 4.57201 96.0189L3.72292 79.8171L12.8304 79.3398L12.941 81.4489L14.8583 81.3484L14.7176 78.6641L6.66048 75.3372C3.91085 74.2316 3.27576 71.2848 3.11498 68.217L1.55746 38.4978C1.39669 35.43 3.03188 33.614 6.09967 33.4532L16.6452 32.9005C19.713 32.7397 21.5291 34.3749 21.6898 37.4427L22.5389 53.6445L13.4314 54.1218L13.3209 52.0127L11.4035 52.1132L11.5492 54.8934L19.6064 58.2202C22.356 59.3258 22.9911 62.2726 23.1519 65.3404L24.7044 94.9638C24.8652 98.0316 23.23 99.8476 20.1622 100.008ZM44.1031 98.7537L33.5575 99.3064C30.4898 99.4672 28.6737 97.832 28.5129 94.7642L25.2471 32.4497L34.3546 31.9724L36.8818 80.1942L38.7992 80.0937L36.272 31.8719L45.3795 31.3946L48.6453 93.7091C48.8061 96.7769 47.1709 98.593 44.1031 98.7537ZM68.044 97.499L52.705 98.3029L49.188 31.195L64.527 30.3911C67.5948 30.2304 69.4108 31.8656 69.5716 34.9333L70.9081 60.4344C71.0186 62.5435 70.0093 63.4615 68.2937 63.7437L68.3037 63.9354C70.0394 64.0367 71.1392 64.8443 71.2497 66.9534L72.5862 92.4544C72.747 95.5222 71.1118 97.3383 68.044 97.499ZM59.2853 49.6038L59.5315 54.3013L61.4489 54.2009L61.2027 49.5033L59.2853 49.6038ZM60.5715 74.1461L60.8227 78.9395L62.7401 78.8391L62.4889 74.0456L60.5715 74.1461ZM85.7534 96.5709L76.6459 97.0482L73.1289 29.9403L82.2364 29.463L86.0327 43.2032L86.3203 43.1881L88.4679 29.1364L97.5754 28.6591L101.092 95.767L91.9849 96.2444L91.2563 82.3434L90.9687 82.3585L89.0129 96.4001L88.7253 96.4152L85.3125 82.6549L85.0249 82.67L85.7534 96.5709ZM114.001 95.0905L104.893 95.5678L101.376 28.4599L110.484 27.9826L114.001 95.0905ZM129.385 94.2843L120.277 94.7616L117.75 46.5398L115.353 46.6654L114.364 27.7793L128.265 27.0508L129.254 45.9369L126.858 46.0625L129.385 94.2843ZM159.399 92.7113L147.32 93.3444C144.731 93.48 143.218 92.1174 143.082 89.5289L142.138 71.5057L151.245 71.0284L151.411 74.192L153.328 74.0915L153.077 69.2981L146.079 69.6649C143.49 69.8005 141.977 68.4379 141.841 65.8494L139.776 26.4475L148.884 25.9702L150.12 49.5538L152.037 49.4533L150.801 25.8697L159.909 25.3924L163.215 88.4738C163.35 91.0623 161.988 92.5757 159.399 92.7113ZM182.573 91.4968L172.028 92.0495C168.96 92.2103 167.144 90.5751 166.983 87.5073L163.968 29.9862C163.808 26.9184 165.443 25.1024 168.511 24.9416L179.056 24.3889C182.124 24.2281 183.94 25.8633 184.101 28.9311L187.115 86.4522C187.276 89.52 185.641 91.3361 182.573 91.4968ZM173.814 43.6016L175.352 72.9373L177.269 72.8368L175.732 43.5011L173.814 43.6016ZM206.514 90.2421L195.968 90.7948C192.901 90.9556 191.085 89.3204 190.924 86.2526L187.658 23.9381L196.766 23.4608L199.293 71.6826L201.21 71.5821L198.683 23.3603L207.79 22.883L211.056 85.1975C211.217 88.2653 209.582 90.0814 206.514 90.2421ZM224.223 89.314L215.116 89.7913L211.599 22.6834L227.225 21.8645C230.293 21.7037 232.205 23.3339 232.366 26.4017L233.702 51.9027C233.813 54.0118 232.708 54.9349 230.992 55.217L231.002 55.4088C232.738 55.5101 233.838 56.3176 233.948 58.4267L235.536 88.7212L226.141 89.2135L224.9 65.534L222.982 65.6345L224.223 89.314ZM221.696 41.0922L221.942 45.7898L224.147 45.6742L223.901 40.9766L221.696 41.0922ZM256.19 87.6388L247.082 88.1161L243.565 21.0081L252.673 20.5308L256.19 87.6388ZM275.408 86.6315L260.069 87.4354L256.552 20.3275L271.891 19.5236C274.959 19.3629 276.775 20.9981 276.936 24.0658L279.95 81.5869C280.111 84.6547 278.476 86.4708 275.408 86.6315ZM266.649 38.7363L268.187 68.072L270.104 67.9716L268.567 38.6358L266.649 38.7363ZM297.719 85.4623L284.01 86.1807L280.493 19.0728L294.202 18.3544L295.192 37.2404L290.59 37.4816L290.837 42.1792L295.438 41.938L296.478 61.7828L291.877 62.0239L292.128 66.8174L296.729 66.5762L297.719 85.4623ZM307.049 84.9733C303.502 85.1592 301.464 82.9588 301.243 78.7406L299.645 48.2545C299.424 44.0363 301.605 41.6148 305.823 41.3938L310.329 41.1576L310.082 36.4601L308.165 36.5606L308.331 39.7242L299.223 40.2015L298.319 22.9452C298.158 19.8774 299.793 18.0613 302.861 17.9006L313.407 17.3479C316.474 17.1871 318.291 18.8223 318.451 21.8901L321.717 84.2046L312.61 84.6819L312.479 82.1893C312.04 82.9814 310.117 84.8125 307.049 84.9733ZM309.451 61.1029L309.702 65.8963L311.62 65.7958L311.369 61.0024L309.451 61.1029ZM340.865 83.2011L330.319 83.7538C327.251 83.9146 325.435 82.2794 325.274 79.2116L324.425 63.0098L333.533 62.5325L333.643 64.6416L335.561 64.5411L335.42 61.8568L327.363 58.5299C324.613 57.4243 323.978 54.4775 323.817 51.4097L322.26 21.6905C322.099 18.6227 323.734 16.8067 326.802 16.6459L337.348 16.0932C340.415 15.9324 342.231 17.5676 342.392 20.6354L343.241 36.8372L334.134 37.3145L334.023 35.2054L332.106 35.3059L332.252 38.0861L340.309 41.4129C343.058 42.5185 343.694 45.4653 343.854 48.5331L345.407 78.1565C345.568 81.2243 343.932 83.0403 340.865 83.2011Z" fill="white"/>
<path d="M145.931 172.991L136.823 173.468L133.306 106.36L147.015 105.642L148.005 124.528L143.404 124.769L143.65 129.467L148.251 129.226L149.291 149.07L144.69 149.311L145.931 172.991ZM169.737 171.743L159.191 172.296C156.123 172.457 154.307 170.822 154.147 167.754L151.132 110.233C150.971 107.165 152.607 105.349 155.674 105.188L166.22 104.635C169.288 104.475 171.104 106.11 171.264 109.178L174.279 166.699C174.44 169.767 172.805 171.583 169.737 171.743ZM160.978 123.848L162.516 153.184L164.433 153.083L162.896 123.748L160.978 123.848ZM187.446 170.815L178.339 171.293L174.822 104.185L190.448 103.366C193.516 103.205 195.428 104.835 195.589 107.903L196.925 133.404C197.036 135.513 195.931 136.436 194.215 136.718L194.225 136.91C195.961 137.011 197.061 137.819 197.171 139.928L198.759 170.222L189.364 170.715L188.123 147.035L186.205 147.136L187.446 170.815ZM184.919 122.593L185.165 127.291L187.37 127.175L187.124 122.478L184.919 122.593ZM215.769 169.331C212.222 169.517 210.184 167.316 209.963 163.098L208.366 132.612C208.144 128.394 210.325 125.972 214.543 125.751L219.049 125.515L218.803 120.818L216.885 120.918L217.051 124.082L207.943 124.559L207.039 107.303C206.878 104.235 208.514 102.419 211.581 102.258L222.127 101.706C225.195 101.545 227.011 103.18 227.171 106.248L230.437 168.562L221.33 169.04L221.199 166.547C220.76 167.339 218.837 169.17 215.769 169.331ZM218.171 145.46L218.423 150.254L220.34 150.153L220.089 145.36L218.171 145.46ZM252.012 100.139L255.529 167.247L246.421 167.725L242.932 154.353L242.645 154.368L243.353 167.885L234.246 168.363L230.729 101.255L239.836 100.777L243.335 114.341L243.623 114.326L242.904 100.617L252.012 100.139ZM272.519 166.357C268.972 166.543 266.934 164.342 266.713 160.124L265.115 129.638C264.894 125.42 267.074 122.998 271.293 122.777L275.798 122.541L275.552 117.844L273.635 117.944L273.801 121.108L264.693 121.585L263.789 104.329C263.628 101.261 265.263 99.4448 268.331 99.2841L278.876 98.7314C281.944 98.5706 283.76 100.206 283.921 103.274L287.187 165.588L278.079 166.065L277.949 163.573C277.51 164.365 275.587 166.196 272.519 166.357ZM274.921 142.486L275.172 147.28L277.09 147.179L276.838 142.386L274.921 142.486ZM304.997 164.655L295.889 165.132L286.812 98.3155L297.645 97.7478L300.657 120.373L303.205 97.4564L303.493 97.4413L308.423 119.966L309.053 97.1499L319.886 96.5821L317.843 163.981L308.736 164.459L305.925 142.015L305.637 142.03L304.997 164.655ZM332.103 163.234C328.556 163.42 326.518 161.22 326.297 157.001L324.7 126.515C324.479 122.297 326.659 119.876 330.877 119.655L335.383 119.418L335.137 114.721L333.219 114.821L333.385 117.985L324.278 118.462L323.373 101.206C323.212 98.1382 324.848 96.3221 327.915 96.1614L338.461 95.6087C341.529 95.4479 343.345 97.0831 343.506 100.151L346.771 162.465L337.664 162.943L337.533 160.45C337.094 161.242 335.171 163.073 332.103 163.234ZM334.505 139.364L334.757 144.157L336.674 144.057L336.423 139.263L334.505 139.364ZM359.687 161.788L350.58 162.266L347.063 95.1579L362.689 94.3389C365.757 94.1782 367.669 95.8083 367.83 98.8761L369.166 124.377C369.277 126.486 368.172 127.409 366.456 127.692L366.466 127.883C368.202 127.985 369.302 128.792 369.412 130.901L371 161.196L361.605 161.688L360.364 138.009L358.446 138.109L359.687 161.788ZM357.16 113.567L357.406 118.264L359.611 118.149L359.365 113.451L357.16 113.567ZM390.234 160.188L374.895 160.991L371.378 93.8836L386.717 93.0797C389.785 92.9189 391.601 94.5541 391.762 97.6219L394.776 155.143C394.937 158.211 393.302 160.027 390.234 160.188ZM381.476 112.292L383.013 141.628L384.93 141.528L383.393 112.192L381.476 112.292ZM410.804 138.634L400.163 139.191L394.84 92.654L411.233 91.7949L410.804 138.634ZM414.271 158.928L398.836 159.737L397.846 140.851L413.281 140.042L414.271 158.928Z" fill="white"/>
</svg>
