<svg xmlns="http://www.w3.org/2000/svg" version="1.0" viewBox="0 0 375 150">
  <defs>
    <clipPath id="a">
      <path d="M75 59h29v71.5H75Zm0 0"/>
    </clipPath>
    <clipPath id="b">
      <path d="M43 114h18v16.5H43Zm0 0"/>
    </clipPath>
  </defs>
  <path d="M146.863 96.16c-.879 0-1.543-.37-1.988-1.113-.441-.75-.477-1.531-.094-2.34l14.551-34.684c.438-1.082 1.184-1.62 2.242-1.62 1.113 0 1.88.538 2.29 1.62l14.6 34.782c.34.816.278 1.578-.183 2.289-.453.71-1.12 1.066-2.011 1.066-.434 0-.86-.125-1.27-.375a2.355 2.355 0 0 1-.91-1.101l-13.184-32.38h1.48l-13.28 32.38c-.211.507-.516.882-.922 1.125a2.58 2.58 0 0 1-1.32.351Zm26.864-9.004h-23.918l1.89-4.027h20.2Zm21.628 9.004h-.957c-1.738 0-3.3-.43-4.691-1.297a9.029 9.029 0 0 1-3.258-3.515c-.777-1.47-1.164-3.16-1.164-5.067V61.797c0-.68.211-1.238.63-1.676.429-.441.983-.664 1.66-.664.679 0 1.238.223 1.671.664.445.438.668.996.668 1.676V86.28c0 1.528.426 2.785 1.274 3.77.847.988 1.917 1.48 3.21 1.48h1.575c.574 0 1.058.223 1.453.668.387.434.582.992.582 1.672 0 .68-.246 1.23-.738 1.66-.493.422-1.133.63-1.915.63Zm-.558-22.8h-12.262c-.613 0-1.12-.188-1.527-.57-.403-.372-.606-.845-.606-1.419 0-.613.203-1.105.606-1.476.406-.375.914-.56 1.527-.56h12.262c.613 0 1.125.185 1.527.56.41.37.617.863.617 1.476 0 .574-.207 1.047-.617 1.418-.402.383-.914.57-1.527.57Zm37.453 23.312c-2.164 0-4.207-.332-6.133-.996-1.914-.66-3.582-1.586-5.004-2.774-1.43-1.187-2.484-2.578-3.16-4.172-.34-.644-.348-1.238-.023-1.78.32-.544.855-.9 1.597-1.067a2.311 2.311 0 0 1 1.684.23c.543.282.95.715 1.223 1.297.437.914 1.132 1.738 2.086 2.473.953.726 2.101 1.308 3.44 1.746 1.333.445 2.763.664 4.29.664 1.695 0 3.234-.27 4.617-.809 1.371-.543 2.477-1.332 3.309-2.367.82-1.039 1.234-2.305 1.234-3.793 0-1.906-.726-3.586-2.18-5.043-1.464-1.46-3.804-2.379-7.027-2.75-4.105-.445-7.328-1.687-9.672-3.722-2.34-2.036-3.511-4.547-3.511-7.528 0-2.176.593-4.035 1.78-5.578 1.188-1.543 2.817-2.723 4.895-3.539 2.067-.816 4.407-1.223 7.016-1.223 1.969 0 3.726.29 5.27.871 1.542.575 2.882 1.364 4.023 2.364a16.145 16.145 0 0 1 2.918 3.43c.414.68.574 1.32.488 1.917-.082.59-.398 1.055-.945 1.395a2.338 2.338 0 0 1-1.903.203 2.537 2.537 0 0 1-1.503-1.16 8.77 8.77 0 0 0-1.938-2.402c-.777-.68-1.7-1.22-2.766-1.625-1.074-.41-2.335-.618-3.789-.618-2.586-.03-4.707.47-6.363 1.504-1.664 1.035-2.496 2.59-2.496 4.668 0 1.082.277 2.09.836 3.028.559.93 1.543 1.742 2.957 2.437 1.406.695 3.379 1.195 5.926 1.504 4.101.477 7.242 1.727 9.414 3.746 2.172 2.02 3.258 4.676 3.258 7.965 0 1.898-.364 3.562-1.09 4.992a10.44 10.44 0 0 1-3.028 3.59c-1.292.96-2.78 1.688-4.46 2.18-1.68.496-3.438.742-5.27.742Zm32.934-.512h-.97c-1.73 0-3.288-.43-4.679-1.297a8.915 8.915 0 0 1-3.258-3.515c-.785-1.47-1.175-3.16-1.175-5.067V61.797c0-.68.214-1.238.64-1.676.422-.441.973-.664 1.649-.664.68 0 1.242.223 1.683.664.438.438.656.996.656 1.676V86.28c0 1.528.426 2.785 1.274 3.77.848.988 1.918 1.48 3.21 1.48h1.575c.582 0 1.066.223 1.453.668.387.434.582.992.582 1.672 0 .68-.246 1.23-.738 1.66-.492.422-1.129.63-1.902.63Zm-.559-22.8h-12.273c-.606 0-1.114-.188-1.528-.57-.402-.372-.605-.845-.605-1.419 0-.613.203-1.105.605-1.476.414-.375.922-.56 1.528-.56h12.273c.605 0 1.113.185 1.527.56.403.37.606.863.606 1.476 0 .574-.203 1.047-.606 1.418-.414.383-.922.57-1.527.57Zm21.422 23.007c-2.543 0-4.817-.61-6.82-1.828-2.004-1.223-3.582-2.902-4.739-5.043-1.148-2.144-1.718-4.55-1.718-7.226 0-2.715.617-5.137 1.851-7.262a13.873 13.873 0 0 1 5.043-5.043c2.113-1.235 4.496-1.856 7.149-1.856 2.68 0 5.07.621 7.171 1.856A13.954 13.954 0 0 1 299 75.03c1.234 2.145 1.871 4.555 1.902 7.239l-1.828.449c0 2.586-.578 4.914-1.734 6.98-1.156 2.07-2.707 3.7-4.652 4.887-1.954 1.187-4.168 1.781-6.641 1.781Zm.765-4.168c1.833 0 3.461-.433 4.883-1.297 1.422-.875 2.547-2.062 3.38-3.566.831-1.512 1.25-3.2 1.25-5.066 0-1.907-.419-3.614-1.25-5.118-.833-1.507-1.958-2.699-3.38-3.562-1.422-.871-3.05-1.309-4.882-1.309-1.77 0-3.383.438-4.836 1.309a9.254 9.254 0 0 0-3.442 3.562c-.832 1.504-1.246 3.211-1.246 5.118 0 1.867.414 3.554 1.246 5.066a9.374 9.374 0 0 0 3.442 3.566c1.453.864 3.066 1.297 4.836 1.297Zm11.704 4.012c-.68 0-1.239-.219-1.684-.656-.437-.446-.656-1.004-.656-1.684v-8.148l.957-4.883 3.77 1.43V93.87c0 .68-.231 1.238-.692 1.684-.453.437-1.016.656-1.695.656Zm30.632-24.535-16.336 14.668-2.847-3.164L326.3 68.57c.441-.441.945-.656 1.5-.64.558.015 1.043.261 1.453.738.437.477.648.996.633 1.55-.016.567-.262 1.052-.739 1.458ZM310.875 96.16c-.68 0-1.227-.207-1.648-.629-.43-.43-.641-.98-.641-1.66v-35.18c0-.68.21-1.226.64-1.648.422-.43.97-.64 1.649-.64.68 0 1.23.21 1.66.64.418.422.63.969.63 1.648v35.18c0 .68-.212 1.23-.63 1.66-.43.422-.98.63-1.66.63Zm18.43-.254c-.508.414-1.063.59-1.66.535-.59-.05-1.09-.328-1.504-.836l-10.688-13.19 3.211-3.056 10.941 13.493c.407.476.582.996.536 1.55-.051.567-.329 1.07-.836 1.504Zm18.672.461c-2.813 0-5.297-.601-7.454-1.805a13.073 13.073 0 0 1-5.062-4.996c-1.223-2.117-1.832-4.55-1.832-7.296 0-2.79.578-5.243 1.734-7.36 1.145-2.125 2.739-3.789 4.774-4.992 2.035-1.203 4.394-1.809 7.074-1.809 2.617 0 4.875.586 6.773 1.758 1.899 1.172 3.36 2.785 4.375 4.84 1.02 2.05 1.528 4.418 1.528 7.102 0 .574-.196 1.058-.582 1.457-.395.386-.914.578-1.551.578h-20.926v-3.77h20.973l-2.082 1.48c-.04-1.8-.399-3.413-1.078-4.835-.68-1.43-1.645-2.551-2.899-3.36-1.25-.816-2.762-1.222-4.531-1.222-1.93 0-3.598.437-5.004 1.32-1.414.879-2.492 2.086-3.234 3.613-.75 1.528-1.125 3.262-1.125 5.2 0 1.933.433 3.652 1.308 5.164a9.609 9.609 0 0 0 3.563 3.59c1.5.878 3.254 1.32 5.258 1.32 1.09 0 2.218-.203 3.39-.606 1.164-.414 2.086-.89 2.766-1.43.476-.374.984-.566 1.523-.581a2.03 2.03 0 0 1 1.43.484c.512.477.781.992.812 1.55.032.56-.207 1.044-.714 1.454-1.145.914-2.575 1.672-4.29 2.27-1.718.59-3.359.882-4.917.882Zm0 0"/>
  <path fill="#78efc4" d="m55.367 51.984-22.476-19.52-.22-.19-1.648 1.925h-.027l-4.863 5.606 22.172 19.242ZM59.598 68.863 83.75 89.836l2.91-10.695-20-17.344ZM110.29 99.621l-1.153-.988-9.258-8.028L99.19 90l-.222.824-2.664 9.871.933.825 1.157.988 1.152.988 11.293 9.79a57.167 57.167 0 0 0 6.156-7.891l-5.523-4.786Zm0 0"/>
  <g clip-path="url(#a)">
    <path fill="#4cabf2" d="m96.938 88.762.164-.575.359-1.32.355-1.32 5.524-20.395-8.848-5.527-5.055 18.637-.359 1.32-.355 1.32L85.89 91.43l-.22.054.165.137-.3 1.156-.192.055.136.11-.332 1.183-.136.027.11.082-2.938 10.86-.36 1.37-.355 1.376-6.239 23.035a55.19 55.19 0 0 0 10.938-2.172l6.371-23.527.36-1.348.382-1.375.25-.933.356-1.32.36-1.321 2.003-7.422.355-1.375Zm0 0"/>
  </g>
  <path fill="#4cabf2" d="M111.031 36.836a56.29 56.29 0 0 0-8.324-7.422L98.586 44.59l8.848 5.523Zm0 0"/>
  <path fill="#ffcf4a" d="m74.71 32.633-19.343-12.07a55.614 55.614 0 0 0-11.652 4.507l23.742 14.79ZM124.797 63.86l-15.852-9.9-1.101-.683-1.098-.687-8.848-5.528-1.097-.687-1.102-.688-7.992-4.972-7.254 7.254 12.527 7.808 1.098.688 1.102.687 8.847 5.524 2.196 1.375 19.675 12.261c0-.44.028-.91.028-1.347a58.719 58.719 0 0 0-1.13-11.106Zm0 0"/>
  <path fill="#3dbf69" d="m25.61 85.246-8.766 8.77a55.132 55.132 0 0 0 4.535 9.593l8.793-8.796ZM68.719 42.113l-.906.91-8.82 8.825-1.759 1.757-7.09 7.094-1.757 1.758-11.594 11.602 4.531 9.566L55.914 69l1.762-1.762 7.086-7.062.879-.88.879-.882 11.789-11.789 7.254-7.258.906-.906.906-.91 11.02-11.024a57.011 57.011 0 0 0-9.59-4.535L78.69 32.137l-1.84 1.84-7.253 7.257Zm0 0"/>
  <path fill="#8931ff" d="m26.902 82.195.547 1.18 4.535 9.566.578 1.184.547 1.18 3.766 7.918 9.918-2.391-6.184-13.004-.547-1.18-.55-1.183-4.532-9.567-.578-1.18-.578-1.183-12.722-26.8a57.435 57.435 0 0 0-5.274 12.175l10.496 22.102Zm0 0"/>
  <g clip-path="url(#b)">
    <path fill="#8931ff" d="m43.441 117.023 4.672 9.813a55.453 55.453 0 0 0 12.774 3.602l-7.528-15.836Zm0 0"/>
  </g>
  <path fill="#ff756e" d="m112.078 97.918 9.918-2.39a57.17 57.17 0 0 0 3.078-11.024l-22.258 5.387ZM82.402 94.813l-15.715 3.792-1.21.274-1.207.305-13.934 3.351-1.234.305-1.239.3-9.918 2.391-1.234.305-1.238.3-10.743 2.583c2.31 3.054 4.891 5.883 7.774 8.414l7.367-1.79 1.234-.3 1.239-.3 9.918-2.395 1.234-.301 1.238-.3 13.106-3.165 1.21-.273 10.384-2.5Zm0 0"/>
</svg>
