<svg xmlns="http://www.w3.org/2000/svg" xml:space="preserve" fill-rule="evenodd" stroke-linejoin="round" stroke-miterlimit="2" clip-rule="evenodd" viewBox="0 0 1438 460">
  <path fill="none" d="M0 0h1437.32v459.633H0z"/>
  <clipPath id="a">
    <path d="M0 0h1437.32v459.633H0z"/>
  </clipPath>
  <g clip-path="url(#a)">
    <path fill-rule="nonzero" d="M549.429 317.333c-3.662 0-6.429-1.541-8.283-4.637-1.838-3.125-1.988-6.379-.392-9.75l60.629-144.517c1.825-4.508 4.934-6.75 9.342-6.75 4.638 0 7.833 2.242 9.542 6.75L681.1 303.354c1.417 3.4 1.158 6.575-.762 9.538-1.888 2.958-4.667 4.441-8.38 4.441-1.808 0-3.583-.521-5.291-1.562a9.814 9.814 0 0 1-3.792-4.588l-54.933-134.916h6.166l-55.333 134.916c-.879 2.113-2.15 3.675-3.842 4.688a10.739 10.739 0 0 1-5.5 1.462h-.004Zm111.934-37.516h-99.659l7.875-16.779h84.167l7.617 16.779Zm90.116 37.516h-3.987c-7.242 0-13.75-1.791-19.546-5.404a37.618 37.618 0 0 1-13.575-14.646c-3.238-6.125-4.85-13.166-4.85-21.112V174.154c0-2.833.879-5.158 2.625-6.983 1.787-1.838 4.096-2.767 6.917-2.767 2.829 0 5.158.929 6.962 2.767 1.854 1.825 2.783 4.15 2.783 6.983v102.013c0 6.366 1.775 11.604 5.309 15.708 3.529 4.117 7.987 6.167 13.375 6.167h6.562c2.392 0 4.409.929 6.054 2.783 1.613 1.808 2.425 4.133 2.425 6.967 0 2.833-1.025 5.125-3.075 6.916-2.054 1.759-4.72 2.625-7.979 2.625Zm-2.325-95h-51.091c-2.555 0-4.667-.783-6.363-2.375-1.679-1.55-2.525-3.52-2.525-5.912 0-2.554.846-4.604 2.525-6.15 1.692-1.563 3.808-2.333 6.363-2.333h51.091c2.554 0 4.688.77 6.363 2.333 1.708 1.542 2.571 3.596 2.571 6.15 0 2.392-.863 4.362-2.571 5.908-1.675 1.596-3.809 2.375-6.363 2.375v.004Zm156.054 97.134c-9.016 0-17.529-1.384-25.554-4.15-7.975-2.75-14.925-6.609-20.85-11.559-5.958-4.945-10.35-10.741-13.166-17.383-1.417-2.683-1.45-5.158-.096-7.417 1.333-2.266 3.562-3.75 6.654-4.445a9.628 9.628 0 0 1 7.017.958c2.262 1.175 3.958 2.979 5.095 5.404 1.821 3.808 4.717 7.242 8.692 10.304 3.971 3.025 8.754 5.45 14.333 7.275 5.555 1.854 11.513 2.767 17.875 2.767 7.063 0 13.475-1.125 19.238-3.371 5.712-2.262 10.321-5.55 13.787-9.862 3.417-4.33 5.142-9.605 5.142-15.805 0-7.941-3.025-14.941-9.083-21.012-6.1-6.083-15.85-9.913-29.279-11.458-17.105-1.855-30.534-7.03-40.3-15.509-9.75-8.483-14.63-18.946-14.63-31.366 0-9.067 2.471-16.813 7.417-23.242 4.95-6.429 11.738-11.346 20.396-14.746 8.612-3.4 18.362-5.096 29.233-5.096 8.204 0 15.525 1.209 21.959 3.629 6.425 2.396 12.008 5.684 16.762 9.85a67.275 67.275 0 0 1 12.158 14.292c1.725 2.833 2.392 5.5 2.034 7.988-.342 2.458-1.659 4.395-3.938 5.812a9.744 9.744 0 0 1-7.929.846 10.574 10.574 0 0 1-6.262-4.833 36.545 36.545 0 0 0-8.075-10.009c-3.238-2.833-7.084-5.083-11.525-6.771-4.475-1.708-9.73-2.575-15.788-2.575-10.775-.125-19.612 1.959-26.512 6.267-6.934 4.313-10.4 10.792-10.4 19.45 0 4.508 1.154 8.708 3.483 12.617 2.329 3.875 6.429 7.258 12.321 10.154 5.858 2.896 14.079 4.979 24.691 6.267 17.088 1.987 30.175 7.195 39.225 15.608 9.05 8.417 13.575 19.483 13.575 33.187 0 7.909-1.516 14.842-4.541 20.8a43.5 43.5 0 0 1-12.617 14.959c-5.383 4-11.583 7.033-18.583 9.083-7 2.067-14.325 3.092-21.959 3.092Zm137.225-2.134h-4.041c-7.209 0-13.7-1.791-19.496-5.404a37.146 37.146 0 0 1-13.575-14.646c-3.271-6.125-4.896-13.166-4.896-21.112V174.154c0-2.833.892-5.158 2.667-6.983 1.758-1.838 4.054-2.767 6.871-2.767 2.833 0 5.175.929 7.012 2.767 1.825 1.825 2.733 4.15 2.733 6.983v102.013c0 6.366 1.775 11.604 5.309 15.708 3.533 4.117 7.991 6.167 13.375 6.167h6.562c2.425 0 4.442.929 6.054 2.783 1.613 1.808 2.425 4.133 2.425 6.967 0 2.833-1.025 5.125-3.075 6.916-2.05 1.759-4.704 2.625-7.925 2.625Zm-2.329-95h-51.137c-2.525 0-4.642-.783-6.367-2.375-1.675-1.55-2.521-3.52-2.521-5.912 0-2.554.846-4.604 2.521-6.15 1.725-1.563 3.842-2.333 6.367-2.333h51.137c2.521 0 4.638.77 6.363 2.333 1.679 1.542 2.525 3.596 2.525 6.15 0 2.392-.846 4.362-2.525 5.908-1.725 1.596-3.842 2.375-6.363 2.375v.004Zm89.259 95.863c-10.596 0-20.071-2.542-28.417-7.617-8.35-5.096-14.925-12.091-19.746-21.012-4.783-8.934-7.158-18.959-7.158-30.109 0-11.312 2.571-21.404 7.712-30.258a57.8 57.8 0 0 1 21.013-21.012c8.804-5.146 18.733-7.734 29.787-7.734 11.167 0 21.125 2.588 29.879 7.734a58.136 58.136 0 0 1 20.9 21.104c5.142 8.937 7.796 18.979 7.925 30.162l-7.616 1.871c0 10.775-2.409 20.475-7.225 29.083-4.817 8.625-11.279 15.417-19.384 20.363-8.141 4.946-17.366 7.421-27.67 7.421v.004Zm3.187-17.367c7.638 0 14.421-1.804 20.346-5.404 5.925-3.646 10.612-8.592 14.083-14.858 3.463-6.3 5.209-13.334 5.209-21.109 0-7.945-1.746-15.058-5.209-21.325-3.471-6.279-8.158-11.245-14.083-14.841-5.925-3.629-12.708-5.454-20.342-5.454-7.375 0-14.096 1.825-20.15 5.454a38.545 38.545 0 0 0-14.341 14.841c-3.467 6.267-5.192 13.38-5.192 21.325 0 7.78 1.725 14.809 5.192 21.109a39.058 39.058 0 0 0 14.341 14.858c6.054 3.6 12.775 5.404 20.15 5.404h-.004Zm48.767 16.717c-2.834 0-5.163-.913-7.017-2.733-1.821-1.859-2.733-4.184-2.733-7.017v-33.95l3.987-20.346 15.709 5.958v48.334c0 2.833-.963 5.158-2.884 7.016-1.887 1.821-4.233 2.734-7.062 2.734v.004Zm127.633-102.229-68.067 61.116-11.862-13.183 68.062-60.875c1.838-1.837 3.938-2.733 6.25-2.667 2.325.063 4.346 1.088 6.055 3.075 1.82 1.988 2.7 4.15 2.637 6.459-.067 2.362-1.092 4.383-3.079 6.075h.004Zm-76.137 102.016c-2.834 0-5.113-.862-6.867-2.62-1.792-1.792-2.671-4.084-2.671-6.917V161.213c0-2.834.875-5.109 2.667-6.867 1.758-1.792 4.041-2.667 6.87-2.667 2.834 0 5.126.875 6.917 2.667 1.742 1.758 2.625 4.037 2.625 6.867v146.583c0 2.833-.883 5.125-2.625 6.917-1.791 1.758-4.083 2.625-6.916 2.625v-.005Zm76.791-1.058c-2.116 1.725-4.429 2.458-6.916 2.229-2.459-.208-4.542-1.366-6.267-3.483l-44.533-54.958 13.379-12.734 45.587 56.221c1.696 1.983 2.425 4.15 2.234 6.458-.213 2.363-1.371 4.459-3.484 6.267Zm77.8 1.921c-11.721 0-22.071-2.504-31.058-7.521a54.472 54.472 0 0 1-21.092-20.817c-5.096-8.82-7.633-18.958-7.633-30.4 0-11.625 2.408-21.845 7.225-30.666 4.771-8.854 11.412-15.788 19.892-20.8 8.479-5.013 18.308-7.538 29.475-7.538 10.904 0 20.312 2.442 28.22 7.325 7.913 4.884 14 11.604 18.23 20.167 4.25 8.542 6.366 18.408 6.366 29.592 0 2.391-.816 4.408-2.425 6.07-1.646 1.609-3.808 2.409-6.462 2.409h-87.192v-15.709h87.388l-8.675 6.167c-.167-7.5-1.663-14.221-4.492-20.146-2.833-5.958-6.854-10.629-12.079-14-5.209-3.4-11.509-5.091-18.879-5.091-8.042 0-14.992 1.82-20.85 5.5-5.892 3.662-10.384 8.691-13.475 15.054-3.125 6.366-4.688 13.591-4.688 21.666 0 8.055 1.804 15.217 5.45 21.517a40.039 40.039 0 0 0 14.846 14.958c6.25 3.659 13.558 5.5 21.908 5.5 4.542 0 9.242-.845 14.125-2.525 4.85-1.725 8.692-3.708 11.525-5.958 1.984-1.558 4.1-2.358 6.346-2.421a8.457 8.457 0 0 1 5.958 2.017c2.134 1.987 3.255 4.133 3.384 6.458.133 2.334-.863 4.35-2.975 6.059-4.771 3.808-10.729 6.966-17.875 9.458-7.159 2.458-13.996 3.675-20.488 3.675Z"/>
    <path fill="#78efc4" fill-rule="nonzero" d="m168.196 133.267-93.65-81.334-.917-.791-6.866 8.02-.113.001-20.262 23.358 92.383 80.175 29.425-29.429Zm17.629 70.329 100.633 87.387 12.125-44.562-83.333-72.267-29.425 29.442Zm211.217 128.158-4.804-4.116-38.575-33.45-2.871-2.521-.925 3.433-11.1 41.129 3.887 3.438 4.821 4.116 4.8 4.117 47.054 40.792a238.141 238.141 0 0 0 25.65-32.88l-23.012-19.941-4.925-4.117Z"/>
    <clipPath id="b">
      <path d="M250 162.5h120.833v297.917H250z"/>
    </clipPath>
    <g clip-path="url(#b)">
      <path fill="#4cabf2" fill-rule="nonzero" d="m341.408 286.508.684-2.396 1.495-5.499 1.48-5.5 23.016-84.98-36.866-23.029-21.063 77.654-1.496 5.5-1.479 5.5-11.804 43.867-.917.225.688.571-1.25 4.817-.8.229.566.458-1.383 4.929-.567.113.459.341-12.242 45.25-1.5 5.709L276.95 366l-25.996 95.979a229.922 229.922 0 0 0 45.575-9.05l26.546-98.029 1.5-5.617 1.592-5.729 1.041-3.887 1.484-5.5 1.5-5.504 8.345-30.925 1.48-5.73 1.391-5.5Z"/>
    </g>
    <path fill="#4cabf2" fill-rule="nonzero" d="M400.129 70.15a234.567 234.567 0 0 0-34.683-30.925l-17.171 63.233 36.867 23.013 14.987-55.321Z"/>
    <path fill="#ffcf4a" fill-rule="nonzero" d="M248.792 52.638 168.196 2.346a231.718 231.718 0 0 0-48.55 18.779l98.925 61.625 30.221-30.112ZM457.488 182.75l-66.05-41.25-4.588-2.846-4.575-2.862-36.867-23.034-4.57-2.862-4.592-2.867-33.3-20.716-30.225 30.225 52.196 32.533 4.575 2.867 4.591 2.862 36.863 23.017 9.15 5.729 81.979 51.087c0-1.833.117-3.791.117-5.612a244.67 244.67 0 0 0-4.709-46.275l.005.004Z"/>
    <path fill="#3dbf69" fill-rule="nonzero" d="M44.208 271.858 7.683 308.4a229.742 229.742 0 0 0 18.896 39.971l36.638-36.65-19.009-39.863ZM223.829 92.137l-3.775 3.792-36.75 36.771-7.329 7.321-29.542 29.558-7.321 7.325-48.308 48.342 18.879 39.858 60.792-60.937 7.342-7.342 29.525-29.425 3.662-3.667 3.663-3.675 49.121-49.12 30.225-30.242 3.775-3.775 3.775-3.792 45.916-45.933A237.51 237.51 0 0 0 307.521 8.3l-42.146 42.271-7.667 7.667-30.221 30.237-3.658 3.663Z"/>
    <path fill="#8931ff" fill-rule="nonzero" d="m49.592 259.146 2.279 4.916 18.896 39.859 2.408 4.933 2.279 4.917 15.692 32.992 41.325-9.963-25.767-54.183-2.279-4.917-2.292-4.929-18.883-39.863-2.408-4.916-2.409-4.93-53.008-111.666A239.332 239.332 0 0 0 3.45 162.125l43.733 92.092 2.409 4.929ZM118.504 404.263l19.467 40.887a231.03 231.03 0 0 0 53.225 15.008l-31.367-65.983-41.325 10.088Z"/>
    <path fill="#ff756e" fill-rule="nonzero" d="m404.492 324.658 41.325-9.958a238.301 238.301 0 0 0 12.825-45.933L365.9 291.213l38.592 33.445Zm-123.65-12.937-65.479 15.8-5.042 1.142-5.029 1.27-58.059 13.963-5.141 1.271-5.163 1.25-41.325 9.962-5.141 1.271-5.159 1.25-44.762 10.763c9.625 12.725 20.379 24.512 32.391 35.058l30.696-7.458 5.142-1.25 5.162-1.25 41.325-9.98 5.142-1.254 5.158-1.25 54.609-13.187 5.041-1.138 43.267-10.416 12.367-45.817Z"/>
  </g>
</svg>
