<svg width="25" height="21" viewBox="0 0 25 21" fill="none" xmlns="http://www.w3.org/2000/svg">
<path d="M23.4375 1.78906L23.125 1.90625V16.2812L12.5 18.625L1.875 16.2812V1.90625L1.52344 1.78906C0.742188 1.59375 0 2.21875 0 3.03906V16.75C0 17.3359 0.390625 17.8438 0.976562 17.9609L12.2266 20.4219C12.3828 20.4609 12.5781 20.4609 12.7344 20.4219L23.9844 17.9609C24.5703 17.8438 25 17.3359 25 16.75V3.03906C25 2.21875 24.2188 1.59375 23.4375 1.78906ZM3.78906 15.1875L12.2266 17.375C12.3047 17.375 12.3828 17.375 12.5 17.375C12.5781 17.375 12.6562 17.375 12.7344 17.375L21.1719 15.1875C21.5625 15.0703 21.875 14.6797 21.875 14.25V1.4375C21.875 1.16406 21.7188 0.929688 21.5234 0.734375C21.2891 0.539062 21.0156 0.5 20.7422 0.539062L12.5 2.0625L4.21875 0.539062C3.94531 0.5 3.67188 0.539062 3.4375 0.734375C3.24219 0.929688 3.125 1.16406 3.125 1.4375V14.25C3.125 14.6797 3.39844 15.0703 3.78906 15.1875ZM13.4375 3.78125L20 2.57031V13.5469L13.4375 15.2266V3.78125ZM5 2.57031L11.5625 3.78125V15.2266L5 13.5469V2.57031Z" fill="#009664"/>
</svg>
