<svg width="69" height="24" viewBox="0 0 69 24" fill="none" xmlns="http://www.w3.org/2000/svg">
<path d="M68.7881 13.964C68.0203 13.7505 66.954 13.769 66.1266 13.6391C66.0669 13.3698 65.7854 13.2491 65.7171 12.9428C65.6574 12.9428 65.5977 12.8963 65.5551 12.8499C65.5636 12.7756 65.5551 12.7107 65.5295 12.6735C65.3845 12.6828 65.3162 12.5157 65.1541 12.5064C65.0774 12.3671 64.9579 12.2836 64.9324 12.0979C64.8641 12.5621 64.8726 13.0913 64.7788 13.5091C63.3713 13.3884 61.9297 13.277 60.5563 13.1192C60.488 11.8937 60.4283 10.5289 60.3857 9.37766C61.6823 9.25697 62.9192 9.21055 64.0964 9.08057C64.4632 9.08057 64.8897 9.05272 65.1541 8.99701C65.1541 8.99701 65.1541 8.99701 65.1456 8.99701C65.1541 8.99701 65.1541 8.99701 65.1541 8.99701H65.1456C65.2053 9.02486 65.2394 9.01558 65.3503 9.00629C65.3503 8.91345 65.3333 8.8856 65.3759 8.8299C65.3845 8.78348 65.3162 8.80204 65.3162 8.76491C65.3845 8.67207 65.1797 8.52352 65.2906 8.38426C65.1371 8.14287 65.1456 7.84578 65.0177 7.51155C64.9494 7.47442 64.8812 7.40015 64.8897 7.3073C64.7959 7.29802 64.8215 7.22375 64.7788 7.14019C64.7617 7.16804 64.7703 7.21446 64.7191 7.19589C64.6594 7.15876 64.702 7.12162 64.6935 7.0752C64.685 7.04735 64.6253 7.06592 64.6167 7.03807C64.6594 6.94522 64.54 6.90809 64.5058 6.8431C64.5826 6.74097 64.5144 6.55529 64.5655 6.46245C64.557 6.41603 64.4973 6.41603 64.4802 6.37889C64.54 6.33247 64.4802 6.2582 64.4717 6.19321C64.4973 6.14679 64.5485 6.2025 64.557 6.15608C64.5314 6.06323 64.6082 5.93326 64.5826 5.85898C64.4632 5.83113 64.267 5.85898 64.1561 5.86827C62.3647 6.03538 60.5307 6.07252 58.8076 6.27677C58.799 6.33247 58.8332 6.35104 58.8417 6.38818C58.7308 6.37889 58.7735 6.54601 58.6626 6.53672C58.6796 6.58314 58.7137 6.64813 58.6284 6.64813C58.6626 6.77811 58.5858 6.87095 58.6028 7.00093C58.4834 7.01021 58.3981 7.0752 58.2872 7.05663C58.219 7.04735 58.1678 6.96379 58.091 7.02878C58.0825 7.01021 58.0484 7.0195 58.0654 6.97308C57.9887 7.01021 57.9119 6.90809 57.7669 6.94522C57.7072 6.8988 57.7157 6.82453 57.7072 6.75026C57.673 6.71312 57.5963 6.77811 57.5536 6.74097C57.5536 6.72241 57.5877 6.73169 57.5792 6.70384C57.5366 6.67599 57.4939 6.70384 57.4427 6.70384C57.4257 6.65742 57.4001 6.62956 57.3574 6.611C57.2892 6.99164 57.3489 7.53941 57.3574 7.81793C57.3745 9.01558 57.4768 10.4175 57.5451 11.6151C57.5366 12.46 57.6389 13.7133 57.656 14.5118C57.5877 14.6139 57.5536 14.7067 57.4854 14.781C57.511 14.9203 57.4257 15.0224 57.4257 15.1709C57.3915 15.1709 57.383 15.2081 57.3489 15.2081C57.3404 15.2545 57.383 15.2359 57.383 15.2638C57.3489 15.2638 57.3404 15.2823 57.3233 15.2916C57.3489 15.3659 57.2977 15.4587 57.2892 15.533C57.2806 15.5887 57.3233 15.6444 57.2977 15.7001C57.2806 15.7466 57.1783 15.7837 57.1442 15.8672C57.1186 15.9415 57.093 15.9879 57.0674 16.0529C57.5963 16.1272 58.1678 16.1458 58.6626 16.1922C59.4985 16.2665 60.3089 16.35 61.1108 16.4336C61.7847 16.4986 62.5183 16.5264 63.0727 16.61C63.5504 16.6842 64.0452 16.6471 64.4973 16.7585C64.3949 17.8448 64.3352 18.8103 64.1987 19.8037C62.3477 19.943 60.5307 20.0358 58.6626 20.1844C58.6284 20.2308 58.6284 20.2308 58.5773 20.2679C58.5687 20.3143 58.5602 20.3515 58.5687 20.435C58.6284 20.435 58.6626 20.5 58.7052 20.4907C58.7223 20.6021 58.6881 20.7321 58.5943 20.8157C58.6626 20.8992 58.5005 20.9457 58.5943 21.0199C58.4749 21.122 58.509 21.2984 58.3725 21.4006C58.3811 21.5677 58.3469 21.6791 58.4066 21.7812C58.3555 21.7812 58.3384 21.8091 58.3213 21.8462C58.3213 21.8833 58.3299 21.9205 58.3128 21.939C58.364 21.939 58.3213 21.9669 58.364 22.004C58.3469 22.0597 58.3384 22.1247 58.3896 22.1897C58.3811 22.2361 58.3299 22.2361 58.3384 22.3104C58.3384 22.329 58.3896 22.2918 58.3981 22.3383C58.3469 22.3104 58.3213 22.3754 58.2958 22.4218C58.2616 22.5704 58.3555 22.7375 58.1422 22.9232C58.2446 23.016 58.091 23.0903 58.1422 23.1831C58.0228 23.211 57.9972 23.3409 57.9204 23.4152C58.4237 23.4431 59.0294 23.3595 59.5668 23.3224C59.9165 23.2945 60.2577 23.2945 60.5989 23.2852C61.6311 23.2295 62.595 23.1367 63.576 23.081C64.2158 23.0439 64.9153 23.016 65.4356 22.9417C65.4442 22.9882 65.5977 22.9324 65.7086 22.951C65.7342 22.951 65.7427 22.9232 65.7598 22.9139C65.811 22.951 65.9645 22.951 66.0242 22.9046C66.0328 22.951 66.1266 22.9139 66.1522 22.9417C66.4934 22.8675 66.8431 22.9232 67.1246 22.821C67.0649 22.6911 66.954 22.6261 66.9285 22.5054C67.0564 22.5054 66.8005 22.4218 66.8005 22.3847C66.7749 22.3475 66.8346 22.2826 66.8517 22.2918C66.7749 22.2083 66.8517 22.004 66.8602 21.9948C66.9029 21.9576 66.8943 21.8555 66.9455 21.8462C66.937 21.8184 66.8943 21.8276 66.8943 21.7812C66.9284 21.7348 66.9455 21.6884 67.0223 21.6884C67.0735 21.0571 67.1246 20.2958 67.21 19.7759C67.21 19.7851 67.21 19.7944 67.2014 19.7851C67.2953 18.3925 67.5 16.7121 67.5853 15.2266C67.5426 15.2452 67.5341 15.2638 67.5085 15.2174C67.5768 15.2266 67.517 15.1617 67.5341 15.1338C67.6109 15.1617 67.6877 15.0967 67.7559 15.1245C67.7815 15.0967 67.7559 15.041 67.7644 15.0317C67.8412 15.041 67.8583 14.9853 67.9009 14.9203C68.0374 14.8831 68.08 14.8924 68.1909 14.8553C68.1653 14.8181 68.1398 14.846 68.1142 14.8274C68.1483 14.7996 68.2165 14.8089 68.2507 14.7903C68.3189 14.6417 68.3957 14.5489 68.3615 14.3725C68.4127 14.4096 68.4127 14.3261 68.4213 14.3168C68.4895 14.2889 68.5919 14.2611 68.6345 14.2797C68.6942 14.224 68.6345 14.1868 68.6601 14.1311C68.7028 14.1126 68.7198 14.1311 68.771 14.1218C68.8137 14.029 68.7625 14.0197 68.7881 13.964Z" fill="#B8B8B8"/>
<path d="M55.114 19.9802C55.1566 19.9616 55.1481 19.8967 55.1993 19.9245C55.1822 19.8409 55.2078 19.7852 55.1566 19.7481C55.1907 19.7481 55.2078 19.7295 55.2078 19.6831C55.1652 19.6924 55.1907 19.6367 55.1737 19.6274C54.7984 19.581 54.3462 19.646 54.0221 19.581C54.0136 19.321 54.0221 19.1075 54.0136 18.8568C54.0136 18.764 53.988 18.6712 54.005 18.5969C54.0136 18.5412 54.005 18.4762 53.9965 18.4019C53.988 18.2255 53.9965 18.0398 53.9965 17.8541C53.9794 16.9072 53.9709 16.2944 53.9538 15.431C53.9453 15.1432 53.9283 14.7718 53.9283 14.549C53.9112 13.8434 53.9538 13.1378 53.9112 12.4415C53.9624 12.3951 53.9283 12.3115 53.9624 12.2651C53.9283 12.2466 53.9112 12.228 53.9027 12.1816C53.8941 11.6524 53.9027 11.2346 53.8771 10.7425C53.843 10.7518 53.8003 10.6961 53.7918 10.724C53.8174 10.724 53.7918 10.7611 53.7747 10.7611C53.4932 10.7797 53.5017 10.3712 53.1435 10.4454C53.0155 10.6033 52.862 10.3804 52.7425 10.4454C52.717 10.3619 52.6402 10.334 52.5719 10.3155C52.5634 10.2133 52.5122 10.1483 52.444 10.0834C52.461 10.0741 52.4781 10.0462 52.4696 9.9998C52.4696 9.96266 52.4269 9.97195 52.4099 9.94409C52.4099 9.91624 52.444 9.92553 52.4354 9.88839C52.3331 9.78626 52.2137 9.647 52.0857 9.63772C52.1113 9.647 52.1284 9.67485 52.1028 9.69342C52.0345 9.68414 52.026 9.60987 52.0175 9.52631C51.9236 9.4706 51.8298 9.42418 51.8213 9.3592C51.6848 9.34991 51.5654 9.27564 51.4374 9.25707C51.4118 9.21065 51.4033 9.1828 51.3521 9.17351C51.3777 9.12709 51.3094 9.08996 51.2839 9.0621C51.1388 9.0621 51.0706 8.95998 50.9085 8.94141C50.9256 10.8539 50.9426 12.7386 50.9768 14.5861C51.0109 16.2109 51.045 17.8541 51.0365 19.581C49.8678 19.581 48.6565 19.5996 47.4281 19.5531C47.4196 19.0147 47.377 18.5597 47.4026 17.9841C47.3684 17.8449 47.3599 17.4735 47.3599 17.2507C47.3172 15.1153 47.2319 12.9057 47.1893 10.6683C47.1893 10.529 47.1893 10.3804 47.1466 10.2505C47.0443 10.2876 47.0272 10.2319 46.9504 10.2133C46.9078 10.1948 46.9163 10.1205 46.8822 10.0926C46.8481 10.0834 46.831 10.0555 46.7798 10.0648C46.7287 9.90696 46.5836 9.85125 46.5239 9.69342C46.5154 9.66557 46.4557 9.69342 46.4472 9.66557C46.4557 9.66557 46.4898 9.61915 46.4642 9.60987C46.4472 9.61915 46.4642 9.67485 46.4216 9.66557C46.3874 9.51702 46.3021 9.32206 46.1657 9.26635C46.1827 9.2385 46.1571 9.20137 46.1571 9.1828C46.1315 9.19208 46.1315 9.21993 46.1145 9.2385C46.0462 9.08996 46.0974 8.84857 45.9268 8.82072C45.9353 8.79286 45.9609 8.79287 45.9524 8.75573C45.8586 8.78358 45.8415 8.64432 45.7562 8.67217C45.7562 8.63504 45.7818 8.64432 45.7562 8.61647C45.6453 8.61647 45.6112 8.54219 45.4918 8.55148C45.4832 8.46792 45.3638 8.45864 45.2956 8.41222C45.3126 8.40293 45.3212 8.40293 45.3297 8.38436C45.27 8.38436 45.2444 8.43079 45.1761 8.4215C45.1505 8.35651 45.0141 8.43078 45.0055 8.31009C44.7496 8.29152 44.4937 8.16155 44.3999 7.92944C44.2719 7.97586 44.2293 7.92944 44.161 7.97586C44.1184 9.25707 44.2293 10.9004 44.2549 12.4137C44.2719 13.4442 44.306 14.3076 44.3402 15.3382C44.3231 15.3474 44.3146 15.2825 44.306 15.3196C44.3402 15.3939 44.3402 15.4867 44.3487 15.5703C44.3913 16.1644 44.3828 16.8143 44.3913 17.4456C44.4169 18.7176 44.4852 20.0359 44.5108 21.3543C44.5449 21.3728 44.579 21.3821 44.6217 21.3821C44.7411 21.5956 44.9032 21.5864 45.0652 21.7163C45.125 21.7256 45.142 21.6885 45.1932 21.7163C45.2017 21.9113 45.4576 21.8277 45.3979 22.0227C45.4235 22.0227 45.4235 22.0041 45.4406 21.9949C45.5003 22.1063 45.5173 22.2734 45.6965 22.292C45.688 22.3384 45.705 22.3569 45.705 22.3848C45.7818 22.3384 45.7818 22.4683 45.85 22.4312C45.9183 22.589 46.0548 22.6726 46.1315 22.8211C46.2083 22.849 46.2595 22.8211 46.251 22.9047C46.2254 22.9047 46.2339 22.8676 46.2168 22.8676C46.2254 22.8954 46.1912 22.9697 46.2424 22.9604C46.2339 22.9233 46.2851 22.9233 46.3192 22.8954C46.2936 22.9418 46.3277 22.9511 46.3448 22.9883C46.3874 22.9883 46.413 22.979 46.4472 22.9604C46.4557 23.0347 46.4813 23.0347 46.5154 23.0997C46.5751 23.044 46.6604 23.1368 46.7287 23.1832C46.8566 23.1739 46.976 23.1832 47.0102 23.3411C47.0102 23.3132 47.0272 23.3132 47.0443 23.3132C47.0784 23.3225 47.0272 23.4153 47.0784 23.406C47.1808 23.3503 47.2064 23.406 47.2917 23.3318C47.3173 23.3689 47.3428 23.3596 47.3428 23.3968C47.394 23.2854 47.4452 23.406 47.5049 23.3318C47.5305 23.1647 47.5049 22.9697 47.5134 22.8119C48.6309 22.8304 49.9702 22.7933 51.0962 22.8397C51.1047 23.2018 51.0706 23.5546 51.1388 23.8238C51.1644 23.8703 51.19 23.7867 51.2412 23.8517C51.3094 23.7403 51.3692 23.8145 51.4715 23.7867C51.4801 23.7588 51.4374 23.7403 51.4715 23.731C51.753 23.6567 51.9492 23.731 52.1795 23.8331C52.2137 23.8053 52.2478 23.7867 52.2904 23.7867C52.4184 23.9538 52.6146 23.7588 52.7681 23.796C52.7596 23.7588 52.7511 23.7496 52.7852 23.731C52.9046 23.796 52.9814 23.6753 53.1264 23.7403C53.152 23.7124 53.1605 23.666 53.2032 23.6567C53.442 23.7681 53.6297 23.7496 53.9197 23.8795C53.9197 23.8981 53.9197 23.926 53.9197 23.9445C53.9624 23.9167 53.9965 23.9352 54.0306 23.9167C54.0306 23.9538 54.0306 23.9817 54.0562 24.0002C54.1074 23.3968 54.0562 22.6819 54.0647 22.1341C54.0989 22.1341 54.1245 22.1341 54.1415 22.1063C54.1074 22.1063 54.1586 22.0877 54.1415 22.0506C54.2439 22.0598 54.2439 21.8835 54.3207 21.902C54.2951 21.8185 54.3804 21.8092 54.3207 21.7256C54.3889 21.6606 54.423 21.5399 54.5595 21.5585C54.5851 21.4842 54.6107 21.4657 54.6022 21.4007C54.6448 21.4007 54.6363 21.3821 54.6789 21.4007C54.6619 21.3078 54.7472 21.1407 54.8495 21.1593C54.8581 21.1129 54.8239 21.1036 54.8495 21.0757C54.9434 21.0757 55.0116 20.9922 55.0628 20.9829C55.0543 20.9365 55.0713 20.8715 55.0287 20.8158C55.0628 20.8065 55.0543 20.7601 55.1054 20.7786C55.0969 20.7322 55.0799 20.6951 55.0799 20.6394C55.1054 20.6301 55.1481 20.6301 55.1566 20.6022C55.114 20.528 55.1652 20.3423 55.1907 20.3144C55.1652 20.2959 55.131 20.2866 55.114 20.2587C55.1481 20.1659 55.1566 20.0545 55.2163 19.9988C55.1566 20.0545 55.1396 20.0081 55.114 19.9802Z" fill="#B8B8B8"/>
<path d="M25.4036 18.4016C25.4036 18.2902 25.3353 18.086 25.395 17.956C25.3353 17.7889 25.3609 17.5661 25.3609 17.3711C25.3524 16.5077 25.3012 15.6535 25.3012 14.8272C25.3012 14.2795 25.2585 13.7317 25.2585 13.184C25.25 11.8006 25.1903 10.3987 25.1818 8.98754C25.1391 8.95969 25.0538 8.96897 25.0112 8.95041C25.0623 8.90398 25.0538 8.82971 25.0282 8.76472C25.1476 8.69045 25.0197 8.55119 25.0965 8.49548C25.0794 8.47692 25.0282 8.47692 25.0367 8.43978C25.0709 8.42121 25.0453 8.40264 25.0709 8.35622C24.8917 8.24481 24.977 8.12412 25.105 8.03128C25.0197 7.94772 25.1221 7.88273 25.0453 7.77132C25.105 7.70634 25.1562 7.63206 25.1988 7.53922C25.1818 7.4928 25.1903 7.38139 25.2329 7.38139C25.2074 7.36282 25.1818 7.41853 25.1732 7.37211C25.1903 7.28855 25.2415 7.24213 25.2671 7.2607C25.2244 7.20499 25.3097 7.16786 25.3268 7.11215C25.3012 7.0286 25.3268 6.97289 25.2927 6.88933C25.3097 6.88933 25.3182 6.91719 25.3268 6.88933C25.3097 6.88933 25.2927 6.87077 25.3182 6.86148C25.2927 6.79649 25.1818 6.80578 25.1306 6.80578C24.9003 6.80578 24.6529 6.89862 24.4226 6.95432C24.0131 7.04716 23.6378 7.13072 23.2283 7.19571C23.1771 7.10287 23.126 7.01931 23.1857 6.91719C23.1345 6.88933 23.143 6.95432 23.1004 6.93576C23.0833 6.7315 22.9298 6.65723 22.87 6.49012C22.7506 6.49012 22.7591 6.38799 22.6653 6.36014C22.6738 6.25802 22.5288 6.25802 22.563 6.16517C22.5288 6.16517 22.4947 6.16517 22.4776 6.14661C22.4691 6.11875 22.4776 6.08162 22.4606 6.0352C22.4094 6.05376 22.3923 6.06305 22.307 6.05377C22.2814 6.0352 22.2985 5.97949 22.2473 5.97949C22.2132 6.01663 22.2729 6.08162 22.1791 6.05377C22.1279 6.47155 22.1791 6.98218 22.1791 7.42781C19.8162 7.96629 17.4192 8.45835 15.0477 8.99683C15.0221 9.10824 15.0392 9.1268 15.0221 9.22893C15.0904 9.23821 15.0477 9.38676 15.1074 9.38676C15.0989 9.48888 15.0392 9.56316 14.9965 9.67457C14.988 9.72099 15.0648 9.73955 15.0051 9.75812C15.0051 9.74884 14.9965 9.73955 14.9965 9.75812C15.0221 9.77669 15.0221 9.81383 15.0307 9.86025C14.971 9.90667 14.9624 10.1016 14.9112 10.1481C14.9454 10.1666 14.9539 10.1945 14.971 10.2316C14.9027 10.278 14.971 10.3245 14.9368 10.4173C14.8686 10.408 14.843 10.4637 14.8089 10.5009C14.8515 10.4916 14.843 10.5287 14.8601 10.5473C14.8345 10.6587 14.7492 10.733 14.8003 10.8165C14.7321 10.9372 14.7321 11.0857 14.7918 11.2343C14.7321 11.4014 14.8686 11.5314 14.8857 11.6799C14.8942 11.7264 14.8601 11.8006 14.8771 11.8563C14.8942 11.9492 14.9454 12.0234 14.8857 12.1163C14.9198 12.172 14.9795 12.1998 14.971 12.2834C15.2269 12.2648 15.4657 12.1441 15.7046 12.1534C15.7302 12.1627 15.7046 12.0884 15.7472 12.1163C17.9992 11.6428 20.0039 11.1786 22.2644 10.7144C22.2814 11.5314 22.3156 12.4319 22.3156 13.2118C21.6587 13.4253 20.9934 13.6482 20.3024 13.8153C19.3897 14.1402 18.4428 14.3909 17.513 14.688C17.1121 14.818 16.7111 14.9851 16.2761 15.0501C16.259 14.9294 16.2249 14.8272 16.1481 14.7623C16.1567 14.8551 16.0799 14.7994 16.0714 14.8087C16.097 14.8087 16.0884 14.8829 16.0543 14.8644C15.9775 14.8458 15.9946 14.7344 15.9775 14.6508C15.9093 14.6044 15.8922 14.5859 15.7813 14.5951C15.7728 14.9201 15.7984 15.2357 15.7899 15.5514C15.7813 15.9506 15.824 16.3498 15.7984 16.7212C15.7984 16.7491 15.7643 16.814 15.7643 16.8233C15.7643 16.8419 15.7984 16.879 15.7984 16.8976C15.8325 17.1854 15.7984 17.4639 15.7899 17.7053C15.7643 19.0794 15.824 20.6855 15.7984 22.0131C15.7899 22.2638 15.8325 22.5423 15.679 22.6166C15.6619 22.7002 15.6449 22.7187 15.6449 22.793C15.696 22.793 15.7472 22.8023 15.7984 22.8023C15.7813 22.8673 15.8155 22.8951 15.7984 22.9508C15.8837 22.9601 15.9008 23.0065 16.0031 23.0065C16.0031 23.0901 16.097 23.0901 16.1567 23.1179C16.1652 23.1087 16.1737 23.0715 16.2079 23.053C16.2761 23.1179 16.3358 23.0158 16.404 23.0715C16.4979 22.9787 16.5832 22.8766 16.7453 22.9137C16.7709 22.8858 16.7964 22.8487 16.8391 22.8394C17.0097 22.8673 17.2656 22.9787 17.3594 22.8951C17.4192 22.8951 17.3765 22.8394 17.4021 22.8301C17.7007 22.7837 18.2551 22.8301 18.5708 22.8209C18.6049 22.8858 18.639 22.9508 18.7243 22.9415C18.7328 22.9044 18.7158 22.8301 18.7414 22.8209C20.2854 22.8487 21.7611 22.8301 23.3648 22.858C23.4075 22.7744 23.3733 22.7187 23.433 22.6445C23.5183 22.6352 23.5439 22.6073 23.6378 22.6352C23.6719 22.5702 23.6292 22.5238 23.5951 22.5238C23.6378 22.4866 23.5695 22.4773 23.5781 22.4309C23.6719 22.3195 23.8596 22.3474 23.9619 22.3102C23.9449 22.3567 23.9875 22.3474 23.979 22.3938C24.0899 22.3938 24.1496 22.4681 24.2264 22.4959C24.2349 22.4959 24.2861 22.4959 24.2861 22.5052C24.2946 22.5145 24.2946 22.5795 24.3031 22.5888C24.3202 22.6073 24.3458 22.5609 24.3629 22.5795C24.397 22.6073 24.4055 22.7002 24.4396 22.7094C24.4908 22.7187 24.4311 22.6537 24.4908 22.663C24.6273 22.7187 24.7467 22.8023 24.8747 22.8951C24.9088 22.858 24.9685 22.858 25.0026 22.8209C24.96 22.8951 25.1135 22.8116 25.1476 22.9044C25.1988 22.9137 25.2159 22.8673 25.2756 22.8858C25.2927 22.9044 25.2841 22.9415 25.3182 22.9415C25.3609 22.9137 25.4121 22.8951 25.4547 22.9415C25.4974 21.5025 25.3865 20.1749 25.395 18.8194C25.3865 18.6523 25.4036 18.5409 25.4036 18.4016ZM21.4711 19.6086C20.5498 19.6086 19.6797 19.6086 18.7414 19.5807C18.7158 18.9308 18.7414 18.3181 18.7243 17.6867C19.91 17.3061 21.181 16.9347 22.3753 16.5634C22.4094 17.5846 22.4265 18.5502 22.435 19.5993C22.1023 19.6364 21.7782 19.6086 21.4711 19.6086Z" fill="#B8B8B8"/>
<path d="M40.4675 19.6459C40.459 18.5132 40.5272 17.2692 40.4931 16.285C40.5187 16.285 40.5187 16.2665 40.5187 16.2479C40.5443 15.9972 40.5272 15.7001 40.5272 15.4216C40.5357 15.1245 40.5272 14.8274 40.5357 14.5489C40.5443 14.3168 40.5357 14.1868 40.5357 14.029C40.5528 12.7849 40.5613 11.3737 40.621 10.009C40.5699 9.97185 40.6125 9.81402 40.5869 9.74903C40.604 9.74903 40.621 9.74903 40.621 9.73974C40.5699 9.24769 40.6381 8.49567 40.621 7.87364C40.6296 7.8365 40.5613 7.88292 40.5699 7.84579C40.5955 7.8365 40.621 7.8365 40.621 7.80865C40.5869 7.58583 40.8343 7.39087 41.022 7.27946C40.9964 7.27946 40.9793 7.27017 40.9708 7.2516C41.022 7.24232 41.0561 7.21447 41.0987 7.1959C41.2182 6.97308 41.2182 6.59243 41.4144 6.3789C41.1414 6.34176 40.9196 6.44389 40.6637 6.47174C40.6893 5.29266 40.6466 4.03002 40.6978 2.77667C40.7149 2.32174 40.7064 1.82969 40.7234 1.54188C40.6893 1.50474 40.6125 1.51403 40.5869 1.47689C40.5699 1.5326 40.4846 1.50474 40.4504 1.5326C40.4675 1.49546 40.4163 1.44904 40.3737 1.43975C40.3225 1.56045 40.1775 1.46761 40.0751 1.44904C40.0325 1.43975 40.058 1.50474 39.9983 1.48618C39.913 1.44904 39.913 1.47689 39.8107 1.45832C39.7595 1.43975 39.768 1.3562 39.6998 1.36548C39.6657 1.34691 39.6657 1.43975 39.6486 1.39333C39.6571 1.32835 39.5548 1.31906 39.495 1.3562C39.4183 1.32835 39.3842 1.24479 39.3586 1.15195C39.2221 1.04054 39.1538 0.873425 38.9491 0.836288C38.9406 0.771299 38.9065 0.734163 38.915 0.65989C38.8467 0.650606 38.8211 0.576333 38.7614 0.548481C38.7103 0.529913 38.6591 0.548481 38.6079 0.520629C38.5908 0.511344 38.5908 0.474208 38.5738 0.45564C38.5141 0.390651 38.4373 0.362799 38.4202 0.269958C38.2326 0.232821 38.1387 0.019287 37.9681 0.000718749C37.9169 -0.00856536 37.9511 0.0749916 37.9084 0.0842757C37.8828 0.0378552 37.7975 0.0471393 37.7719 0.000718749C37.7804 0.409219 37.7975 0.845572 37.7463 1.20765C37.789 1.36548 37.7719 1.61615 37.7207 1.78327C37.7804 1.83897 37.7463 1.89468 37.7463 1.98752C37.7378 2.68382 37.7293 3.38013 37.7122 4.06716C37.7122 4.16 37.7378 4.28997 37.7378 4.3921C37.7207 5.23695 37.6951 6.17465 37.6781 7.14019C36.2109 7.46514 34.5133 7.86435 32.9949 8.17073C32.6281 8.245 32.304 8.37498 32.0566 8.26357C31.9286 8.30071 31.8689 8.44925 31.7069 8.37498C31.5533 8.56066 31.1268 8.37498 30.9562 8.52353C30.8112 8.43997 30.615 8.51424 30.4188 8.52353C30.2993 8.52353 30.1543 8.48639 30.0434 8.56066C29.9752 8.53281 29.924 8.56995 29.8558 8.55138C29.6852 8.40283 29.4463 8.43997 29.2586 8.43069C29.2672 8.60708 29.2501 8.7742 29.2501 8.97845C29.1648 9.02487 29.0369 9.04344 28.9516 9.08986C28.9516 9.17341 28.9345 9.26625 29.0283 9.32196C28.9516 9.42408 28.926 9.53549 28.8065 9.60977C28.8065 9.63762 28.8151 9.67476 28.7809 9.66547C28.8151 9.75831 28.7724 9.7676 28.7895 9.86972C28.7212 9.90686 28.6786 9.98113 28.6359 10.0461C28.5933 10.0554 28.6701 10.0554 28.6615 10.0833C28.508 10.1947 28.5165 10.5289 28.4227 10.6682C28.4397 10.6867 28.4739 10.6867 28.4824 10.7053C28.4141 10.7888 28.4056 10.9374 28.3288 11.021C28.3203 11.1973 28.3288 11.3645 28.3203 11.513C28.3544 11.513 28.38 11.5223 28.3971 11.5501C28.363 11.6801 28.4056 11.8008 28.4739 11.9029C28.4397 11.8658 28.4397 11.9122 28.4227 11.9308C28.4312 12.1072 28.4653 12.2465 28.4994 12.46C28.7724 12.4228 28.9089 12.3671 29.1733 12.3207C29.088 15.0688 29.0625 17.5198 28.9857 20.1472C28.9942 20.1936 28.943 20.1844 28.9516 20.2308C28.9942 20.2215 28.9942 20.2586 28.9857 20.2958C28.9771 20.3793 28.9601 20.3886 28.9771 20.4907C28.926 20.5464 28.9771 20.6579 28.9174 20.6764C28.943 20.7414 28.9942 20.8621 28.926 20.9642C28.9601 20.9642 28.9686 20.9828 28.9601 21.0199C28.9601 21.5398 28.926 21.9483 28.926 22.459C28.9771 22.4497 28.9771 22.4961 29.0369 22.4868C29.0539 22.4775 29.0369 22.4311 29.0624 22.4033C29.1051 22.5147 29.2331 22.3476 29.2757 22.4311C29.2757 22.4868 29.2501 22.5332 29.2416 22.6075C29.2842 22.5982 29.3184 22.6168 29.3184 22.6632C29.3098 22.7468 29.3098 22.886 29.2331 22.9046C29.2331 23.0067 29.2757 23.0624 29.2928 23.1367C30.5211 23.0996 31.8092 23.081 32.9182 23.0253C33.3191 23.0067 33.8394 23.016 34.1295 23.016C34.9228 23.0067 35.9123 22.9882 36.5777 22.951C36.5777 22.9696 36.5521 22.9603 36.5521 22.9789C36.7739 22.951 37.2174 22.9789 37.4648 22.951C37.4563 23.0067 37.4734 23.0346 37.4904 23.0624C37.5245 23.0067 37.6013 23.0346 37.6781 23.0067C37.6866 23.0346 37.6866 23.0624 37.7037 23.0717C37.7719 23.0253 37.806 23.1553 37.9255 23.1089C37.9596 23.0996 37.934 23.0346 37.9766 23.0253C38.0449 23.0439 38.0875 23.0717 38.1387 23.1367C38.1473 23.0717 38.1899 23.1274 38.224 23.1367C38.3179 23.081 38.4458 23.0903 38.5226 23.1274C38.5823 23.0996 38.6847 23.0717 38.7358 23.1181C38.7614 23.081 38.8041 23.0624 38.8382 23.0346C38.8638 23.0531 38.8723 23.0903 38.8979 23.0996C38.9576 23.016 39.0088 22.9139 39.0941 22.8675C39.205 22.8582 39.3756 22.886 39.478 22.7746C39.478 22.8118 39.495 22.821 39.5292 22.8118C39.6571 22.7561 39.8021 22.7839 39.9386 22.8768C39.9472 22.8489 39.9642 22.8025 39.9898 22.8396C40.0325 22.8396 39.9983 22.9232 40.041 22.9232C40.0836 22.9139 40.0922 22.8582 40.1434 22.8582C40.1775 22.8582 40.1689 22.9139 40.2201 22.8953C40.2457 22.8303 40.3481 22.8489 40.4078 22.8118C40.4249 22.4404 40.4419 22.2454 40.4163 21.8834C40.5016 21.7627 40.5955 21.7255 40.7319 21.6512C40.7661 21.6234 40.7234 21.5677 40.7064 21.5584C40.8514 21.5213 40.7831 21.4006 40.9026 21.3263C40.8514 21.2242 41.022 21.1592 40.9367 21.1128C40.9708 21.1128 40.9623 21.1313 40.9879 21.1128C41.022 21.0756 40.9537 21.0664 40.9623 21.0014C40.9793 20.9549 41.0476 20.9735 41.0476 20.9085C40.9964 20.8435 41.1073 20.7693 41.2011 20.7414C41.2182 20.6207 41.3035 20.565 41.4144 20.5464C41.4144 20.4815 41.4058 20.4907 41.4058 20.435C41.4485 20.4443 41.4997 20.3422 41.4826 20.3422C41.5167 20.3422 41.585 20.1658 41.6362 20.0544C41.7044 19.9151 41.7982 19.7573 41.7471 19.6644C41.2608 19.6366 40.8599 19.7016 40.4675 19.6459ZM37.4904 19.7202C35.5967 19.7573 33.8906 19.8037 31.9713 19.8408C32.0054 17.1299 32.0737 14.2797 32.1334 11.6616C33.0376 11.4666 33.9845 11.2159 34.829 11.0488C35.554 10.9003 36.245 10.7517 36.9274 10.5846C37.1577 10.5289 37.3881 10.501 37.6184 10.4361H37.644C37.5843 13.342 37.5757 16.8235 37.4904 19.7202Z" fill="#B8B8B8"/>
<path d="M12.0022 6.32293C12.2496 6.22081 12.3519 5.82159 12.4202 5.57092C11.6268 5.54307 10.7738 5.56164 10.1511 5.56164C8.59858 5.55235 6.71337 5.53379 5.23762 5.51522C4.80258 5.50593 3.82159 5.55235 3.48038 5.47808C3.5145 5.47808 3.47185 5.40381 3.48038 5.4688C3.39507 5.54307 3.15622 5.49665 2.99415 5.49665C2.22642 5.48737 1.37338 5.48737 0.50329 5.49665C0.51182 5.7009 0.366804 5.7009 0.332683 5.84016C0.383865 5.84945 0.417986 5.89587 0.435047 5.88658C0.426517 6.00728 0.332683 6.15582 0.213258 6.25795C0.187667 6.29508 0.24738 6.33222 0.238849 6.36007C0.0938337 6.37864 0.187667 6.57361 0.076773 6.62931C0.153546 6.63859 0.0597123 6.6943 0.110894 6.74072C0.0597123 6.79642 0.0682427 6.91712 0.076773 6.98211C0.0426517 7.01924 0 7.08423 0.00853033 7.16779C0.00853033 7.17707 0.0426517 7.17707 0.0426517 7.17707C0.051182 7.18636 0.0170607 7.20493 0.0170607 7.21421C0.0341213 7.24206 0.119425 7.25135 0.110894 7.31633C0.025591 7.36275 0.00853032 7.61343 0.110894 7.66913C0.102364 7.7434 0.076773 7.78982 0.0170607 7.83624C0.0426517 7.88266 0.0170607 7.95694 0.00853033 8.00336C0.0341213 8.01264 0.051182 7.96622 0.051182 8.00336C-0.025591 8.11477 0.110894 8.17047 0.0938337 8.28188C0.051182 8.31902 0.025591 8.37472 0.0341213 8.43043C0.179137 8.51398 0.435047 8.43043 0.571532 8.49542C0.554472 8.8575 0.597123 9.21029 0.528881 9.4981C0.51182 9.54452 0.580063 9.4981 0.563002 9.54452C0.554472 10.278 0.528881 10.9836 0.52035 11.7541C0.51182 12.3019 0.52035 12.9982 0.51182 13.6574C0.51182 13.6852 0.50329 13.7688 0.50329 13.7874C0.494759 13.7966 0.494759 13.8059 0.494759 13.8059C0.494759 13.8059 0.50329 13.8152 0.50329 13.8245V13.8616C0.528881 14.0473 0.494759 14.2144 0.494759 14.4187C0.435047 16.5726 0.460638 18.7729 0.409456 21.1775C0.409456 21.2146 0.332683 21.2239 0.366804 21.2518C0.341213 21.2611 0.417986 21.2703 0.400926 21.3168C0.392395 21.3539 0.400926 21.3446 0.366804 21.3632C0.443577 21.4189 0.383865 21.5489 0.358274 21.6324C0.426517 21.6974 0.366804 21.781 0.400926 21.8738C0.332683 21.9759 0.26444 22.0781 0.24738 22.1895C0.290031 22.1523 0.238849 22.2637 0.290031 22.2637C0.25591 22.2637 0.24738 22.2916 0.25591 22.338C0.230319 22.3844 0.162076 22.3937 0.213258 22.4494C0.102364 22.5051 0.0853033 22.663 0 22.7558C0.0170607 22.7744 0.0341213 22.7929 0.0341213 22.8301C-0.0341213 22.9322 0.0682427 22.9972 0.00853033 23.1086C0.00853033 23.1364 0.051182 23.1272 0.0426517 23.1736C0.00853033 23.2107 0.0170607 23.2943 0.0341213 23.3407C0.818912 23.2943 1.59517 23.2293 2.38849 23.2014C2.40555 23.22 2.40555 23.2571 2.42261 23.2757C2.49939 23.2107 2.55057 23.2479 2.61028 23.3036C2.62734 23.2479 2.66999 23.2757 2.70412 23.2293C2.72971 23.2571 2.79795 23.2757 2.82354 23.285C2.82354 23.35 2.81501 23.415 2.84913 23.4521C2.9515 23.4335 2.99415 23.285 3.09651 23.3036C3.10504 23.2571 3.10504 23.2014 3.1221 23.1643C3.38654 23.1272 3.65098 23.155 3.91542 23.1364C3.9922 23.1364 4.06044 23.09 4.13721 23.0807C5.64708 22.9972 7.10577 22.9043 8.64123 22.8301C9.73311 22.7744 10.8421 22.6908 11.8828 22.6165C11.9169 22.533 11.8486 22.5144 11.8401 22.4494C11.8998 22.3659 11.8657 22.2916 11.8657 22.208C11.8657 22.0316 11.8998 21.8738 11.8316 21.716C11.8316 21.6696 11.8572 21.6603 11.8657 21.6231C11.7719 21.3632 11.9936 21.1496 11.9936 20.9175C12.0192 20.899 12.0704 20.9083 12.096 20.8897C12.1301 20.8618 12.1045 20.769 12.1045 20.7597C12.1131 20.7319 12.1472 20.769 12.1472 20.7319C12.1557 20.704 12.1216 20.6669 12.1216 20.6297L12.1557 20.6205C12.1643 20.6019 12.1216 20.6112 12.1301 20.5833C12.1387 20.5647 12.1813 20.5462 12.1898 20.5183C12.2154 20.4533 12.1728 20.4441 12.2325 20.4162C12.241 20.2584 12.2751 19.9149 12.369 19.8035C12.3605 19.6642 12.2922 19.5435 12.3946 19.395C11.3795 19.4135 10.3132 19.5064 9.23835 19.5621C7.09724 19.6735 5.60443 19.8406 3.46332 19.9149C3.48891 19.005 3.45478 18.3458 3.48891 17.4824C3.5145 16.5726 3.48891 15.7834 3.52303 14.8829C3.53156 14.7158 3.52303 14.4187 3.55715 14.363C3.53156 13.2489 3.58274 12.4597 3.58274 11.3456C3.57421 11.3085 3.62539 11.3271 3.61686 11.2992C3.56568 10.9928 3.59127 10.6493 3.60833 10.2965C3.62539 9.74877 3.60833 9.31242 3.63392 8.69967C4.4443 8.72752 4.93053 8.69967 5.56178 8.70895C6.99487 8.7368 8.42797 8.72752 9.82694 8.77394C10.1937 8.72752 10.7994 8.77394 11.2686 8.76465C11.3112 8.56969 11.2942 8.17047 11.3027 7.93837C11.3795 7.8641 11.4221 7.75269 11.4818 7.6877C11.5074 7.69698 11.5074 7.70627 11.4904 7.72483C11.5415 7.72483 11.4904 7.65985 11.4904 7.63199C11.5842 7.62271 11.5671 7.41846 11.5927 7.38132C11.5927 7.39989 11.5757 7.39061 11.5586 7.39061C11.6183 7.29777 11.661 7.20492 11.7377 7.11208C11.6951 7.02853 11.7548 6.89855 11.7036 6.83356C11.806 6.79642 11.7377 6.61074 11.7974 6.56432C11.7804 6.55504 11.7719 6.58289 11.7633 6.56432C11.8316 6.52719 11.7207 6.49005 11.7548 6.45291C11.8742 6.42506 11.9339 6.35079 12.0619 6.37864C12.0192 6.37864 11.9851 6.32293 12.0022 6.32293Z" fill="#B8B8B8"/>
</svg>
