<svg width="25" height="21" viewBox="0 0 25 21" fill="none" xmlns="http://www.w3.org/2000/svg">
<path d="M11.25 3C11.25 3.66406 10.9766 4.28906 10.5469 4.71875L11.6016 6.98438C12.0703 6.82812 12.5781 6.75 13.125 6.75C14.6094 6.75 16.0156 7.375 17.0312 8.35156L20.0391 6.125C20 5.92969 20 5.73438 20 5.5C20 4.13281 21.0938 3 22.5 3C23.8672 3 25 4.13281 25 5.5C25 6.90625 23.8672 8 22.5 8C21.9922 8 21.5625 7.88281 21.1719 7.64844L18.125 9.875C18.5156 10.6172 18.75 11.4766 18.75 12.375C18.75 13.1172 18.5938 13.8203 18.3594 14.4453L20.9766 16.0078C21.4062 15.6953 21.9141 15.5 22.5 15.5C23.8672 15.5 25 16.6328 25 18C25 19.4062 23.8672 20.5 22.5 20.5C21.0938 20.5 20 19.4062 20 18C20 17.8828 20 17.7656 20 17.6484L17.3828 16.0469C16.3281 17.2578 14.8047 18 13.125 18C10.3125 18 8.00781 16.0078 7.53906 13.3125H4.80469C4.41406 14.25 3.51562 14.875 2.5 14.875C1.09375 14.875 0 13.7812 0 12.375C0 11.0078 1.09375 9.875 2.5 9.875C3.51562 9.875 4.41406 10.5391 4.80469 11.4375H7.53906C7.8125 9.91406 8.67188 8.625 9.92188 7.76562L8.86719 5.5C8.82812 5.5 8.78906 5.5 8.75 5.5C7.34375 5.5 6.25 4.40625 6.25 3C6.25 1.63281 7.34375 0.5 8.75 0.5C10.1172 0.5 11.25 1.63281 11.25 3ZM13.125 16.125C15.1953 16.125 16.875 14.4453 16.875 12.375C16.875 10.3047 15.1953 8.625 13.125 8.625C11.0156 8.625 9.375 10.3047 9.375 12.375C9.375 14.4453 11.0156 16.125 13.125 16.125Z" fill="#009664"/>
</svg>
