<svg width="24" height="21" viewBox="0 0 24 21" fill="none" xmlns="http://www.w3.org/2000/svg">
<path d="M2.07031 15.7344C0.9375 16.8281 0.9375 18.5859 2.07031 19.6797C2.61719 20.2266 3.32031 20.5 4.02344 20.5C4.6875 20.5 5.42969 20.2266 6.01562 19.6797L13.9062 10.6562L11.0938 7.80469L2.07031 15.7344ZM23.5547 8.11719L22.6562 7.25781C22.4219 6.98438 22.0312 6.98438 21.7578 7.25781L21.3281 7.6875L20.1953 6.55469C20.4297 5.69531 20.1953 4.79688 19.5703 4.13281L17.7734 2.375C16.5625 1.125 14.9219 0.5 13.3203 0.5C11.7188 0.5 10.1172 1.125 8.90625 2.375L11.5625 5.03125V5.77344C11.5625 6.08594 11.6406 6.39844 11.7188 6.67188L15.0391 9.99219C15.3516 10.1484 15.6641 10.1875 15.9766 10.1875C16.2109 10.1875 16.4062 10.1484 16.6406 10.1094L17.7734 11.2422L17.3438 11.6719C17.0703 11.9453 17.0703 12.3359 17.3438 12.5703L18.2031 13.4688C18.4766 13.7031 18.8672 13.7031 19.1016 13.4688L23.5547 9.01562C23.7891 8.78125 23.7891 8.39062 23.5547 8.11719ZM19.5703 10.3438L17.2266 8L16.1719 8.27344C15.7812 8.39062 15.5859 8.15625 15.5469 8.11719L13.6328 6.20312C13.5156 6.08594 13.4375 5.92969 13.4375 5.77344V4.25L11.875 2.64844C12.3438 2.49219 12.8125 2.41406 13.3203 2.41406C14.4922 2.41406 15.625 2.84375 16.4453 3.70312L18.2031 5.46094C18.4375 5.69531 18.3984 5.96875 18.3594 6.08594L18.0859 7.10156L20.4297 9.44531L19.5703 10.3438Z" fill="white"/>
</svg>
