<svg width="20" height="21" viewBox="0 0 20 21" fill="none" xmlns="http://www.w3.org/2000/svg">
<path d="M14.375 4.25C15.3906 4.25 16.25 3.42969 16.25 2.41406C16.25 1.4375 15.3906 0.5 14.375 0.5C13.3203 0.5 12.4609 1.35938 12.4609 2.375C12.4609 3.42969 13.3203 4.25 14.375 4.25ZM19.0625 9.875H17.1484C17.0312 9.875 16.875 9.79688 16.8359 9.67969L16.3281 7.88281C15.9375 6.71094 15 5.8125 13.7891 5.53906L10.7422 4.83594C9.72656 4.60156 8.67188 4.83594 7.85156 5.5L7.22656 5.96875C6.79688 3 5.82031 0.5 3.75 0.5C2.03125 0.5 0 2.25781 0 10.5C0 15.0703 0.625 20.5 3.75 20.5C4.6875 20.5 5.74219 19.9531 6.52344 18H4.45312C4.21875 18.4297 3.98438 18.625 3.75 18.625C2.69531 18.625 1.875 14.9922 1.875 10.5C1.875 6.04688 2.69531 2.375 3.75 2.375C4.76562 2.375 5.625 6.04688 5.625 10.5C5.625 12.1406 5.50781 13.625 5.3125 14.875H4.6875C4.14062 14.875 3.75 15.3047 3.75 15.8125C3.75 16.3594 4.14062 16.75 4.6875 16.75H7.61719C8.47656 16.75 9.25781 16.2422 9.60938 15.4609L10.1562 14.2109L9.76562 13.9766C9.29688 13.7031 8.94531 13.3516 8.67188 12.8828L7.89062 14.7188C7.85156 14.8359 7.73438 14.875 7.61719 14.875H7.22656C7.38281 13.7031 7.5 12.2578 7.5 10.5C7.5 9.75781 7.46094 8.97656 7.42188 8.19531L9.02344 6.94531C9.375 6.67188 9.84375 6.59375 10.3125 6.67188L10.8984 6.78906L9.53125 10.2266C9.10156 11.2031 9.49219 12.375 10.4297 12.9219L13.6719 14.875C13.7891 14.9531 13.8281 15.0703 13.8281 15.1484C13.8281 15.1875 13.8281 15.2266 13.8281 15.2656L12.5391 19.3281C12.4609 19.5625 12.5 19.8359 12.6172 20.0312C12.7344 20.2656 12.9297 20.4219 13.1641 20.5C13.2422 20.5 13.3203 20.5 13.4375 20.5C13.8281 20.5 14.2188 20.2266 14.3359 19.8359L15.625 15.7734C15.8984 14.7969 15.5078 13.7812 14.6484 13.2734L12.6172 12.0625L14.2578 7.96094C14.375 8.11719 14.4531 8.27344 14.5312 8.42969L15.0781 10.2266C15.3516 11.125 16.1719 11.75 17.1484 11.75H19.0234C19.5703 11.75 20 11.3594 20 10.8125C20 10.3047 19.5703 9.875 19.0625 9.875Z" fill="white"/>
</svg>
