<svg width="25" height="21" viewBox="0 0 25 21" fill="none" xmlns="http://www.w3.org/2000/svg">
<path d="M10 16.75C10 18.8203 8.32031 20.5 6.25 20.5C4.14062 20.5 2.5 18.8203 2.5 16.75C1.09375 16.75 0 15.6562 0 14.25V3C0 1.63281 1.09375 0.5 2.5 0.5H13.75C15.1172 0.5 16.25 1.63281 16.25 3V4.25H17.8906C18.4766 4.25 19.0234 4.48438 19.4531 4.91406L23.0859 8.54688C23.5156 8.97656 23.75 9.52344 23.75 10.1094V14.875H24.0625C24.5703 14.875 25 15.3047 25 15.8125C25 16.3594 24.5703 16.75 24.0625 16.75H22.5C22.5 18.8203 20.8203 20.5 18.75 20.5C16.6406 20.5 15 18.8203 15 16.75H10ZM13.75 2.375H2.5C2.14844 2.375 1.875 2.6875 1.875 3V14.25C1.875 14.6016 2.14844 14.875 2.5 14.875H2.96875C3.63281 13.7812 4.84375 13 6.25 13C7.61719 13 8.82812 13.7812 9.49219 14.875H13.75C14.0625 14.875 14.375 14.6016 14.375 14.25V3C14.375 2.6875 14.0625 2.375 13.75 2.375ZM18.125 6.24219C18.0469 6.16406 17.9688 6.125 17.8906 6.125H16.25V9.875H21.7969C21.7578 9.875 21.7578 9.875 21.7578 9.875L18.125 6.24219ZM6.25 14.875C5.19531 14.875 4.375 15.7344 4.375 16.75C4.375 17.8047 5.19531 18.625 6.25 18.625C7.26562 18.625 8.125 17.8047 8.125 16.75C8.125 15.7344 7.26562 14.875 6.25 14.875ZM18.75 18.625C19.7656 18.625 20.625 17.8047 20.625 16.75C20.625 15.7344 19.7656 14.875 18.75 14.875C17.6953 14.875 16.875 15.7344 16.875 16.75C16.875 17.8047 17.6953 18.625 18.75 18.625Z" fill="white"/>
</svg>
