<svg width="18" height="18" viewBox="0 0 18 18" fill="none" xmlns="http://www.w3.org/2000/svg">
<path d="M5.80078 14.2422C5.80078 14.3125 5.73047 14.3477 5.625 14.3477C5.51953 14.3828 5.44922 14.3125 5.44922 14.2422C5.44922 14.1719 5.51953 14.1016 5.625 14.1016C5.73047 14.1016 5.80078 14.1719 5.80078 14.2422ZM4.71094 14.0664C4.71094 14.1367 4.78125 14.2422 4.88672 14.2422C4.95703 14.2773 5.0625 14.2422 5.09766 14.1719C5.09766 14.1016 5.0625 14.0312 4.95703 13.9961C4.85156 13.9609 4.74609 13.9961 4.71094 14.0664ZM6.29297 14.0312C6.1875 14.0312 6.11719 14.1016 6.11719 14.207C6.11719 14.2773 6.22266 14.3125 6.32812 14.2773C6.43359 14.2422 6.50391 14.207 6.46875 14.1367C6.46875 14.0664 6.36328 13.9961 6.29297 14.0312ZM8.57812 0.53125C3.72656 0.53125 0 4.25781 0 9.10938C0 13.0117 2.42578 16.3516 5.94141 17.5469C6.39844 17.6172 6.53906 17.3359 6.53906 17.125C6.53906 16.8789 6.53906 15.6836 6.53906 14.9453C6.53906 14.9453 4.07812 15.4727 3.55078 13.8906C3.55078 13.8906 3.16406 12.8711 2.60156 12.625C2.60156 12.625 1.79297 12.0625 2.63672 12.0625C2.63672 12.0625 3.51562 12.1328 4.00781 12.9766C4.78125 14.3477 6.04688 13.9609 6.57422 13.7148C6.64453 13.1523 6.85547 12.7656 7.13672 12.5195C5.16797 12.3086 3.16406 12.0273 3.16406 8.65234C3.16406 7.66797 3.44531 7.21094 4.00781 6.57812C3.90234 6.33203 3.62109 5.41797 4.11328 4.1875C4.81641 3.97656 6.53906 5.13672 6.53906 5.13672C7.24219 4.92578 7.98047 4.85547 8.71875 4.85547C9.49219 4.85547 10.2305 4.92578 10.9336 5.13672C10.9336 5.13672 12.6211 3.94141 13.3594 4.1875C13.8516 5.41797 13.5352 6.33203 13.4648 6.57812C14.0273 7.21094 14.3789 7.66797 14.3789 8.65234C14.3789 12.0273 12.3047 12.3086 10.3359 12.5195C10.6523 12.8008 10.9336 13.3281 10.9336 14.1719C10.9336 15.332 10.8984 16.8086 10.8984 17.0898C10.8984 17.3359 11.0742 17.6172 11.5312 17.5117C15.0469 16.3516 17.4375 13.0117 17.4375 9.10938C17.4375 4.25781 13.4648 0.53125 8.57812 0.53125ZM3.41016 12.6602C3.33984 12.6953 3.375 12.8008 3.41016 12.8711C3.48047 12.9062 3.55078 12.9414 3.62109 12.9062C3.65625 12.8711 3.65625 12.7656 3.58594 12.6953C3.51562 12.6602 3.44531 12.625 3.41016 12.6602ZM3.02344 12.3789C2.98828 12.4492 3.02344 12.4844 3.09375 12.5195C3.16406 12.5547 3.23438 12.5547 3.26953 12.4844C3.26953 12.4492 3.23438 12.4141 3.16406 12.3789C3.09375 12.3438 3.05859 12.3438 3.02344 12.3789ZM4.14844 13.6445C4.11328 13.6797 4.11328 13.7852 4.21875 13.8555C4.28906 13.9258 4.39453 13.9609 4.42969 13.8906C4.46484 13.8555 4.46484 13.75 4.39453 13.6797C4.32422 13.6094 4.21875 13.5742 4.14844 13.6445ZM3.76172 13.1172C3.69141 13.1523 3.69141 13.2578 3.76172 13.3281C3.83203 13.3984 3.90234 13.4336 3.97266 13.3984C4.00781 13.3633 4.00781 13.2578 3.97266 13.1875C3.90234 13.1172 3.83203 13.082 3.76172 13.1172Z" fill="currentColor"/>
</svg>
