<?xml version="1.0" encoding="UTF-8" standalone="no"?><!DOCTYPE svg PUBLIC "-//W3C//DTD SVG 1.1//EN" "http://www.w3.org/Graphics/SVG/1.1/DTD/svg11.dtd"><svg viewBox="0 0 57 48" version="1.1" xmlns="http://www.w3.org/2000/svg" xmlns:xlink="http://www.w3.org/1999/xlink" xml:space="preserve" xmlns:serif="http://www.serif.com/" style="fill-rule:evenodd;clip-rule:evenodd;stroke-linejoin:round;stroke-miterlimit:2;"><rect id="Artboard1" x="-125" y="0" width="273.261" height="47.78" style="fill:none;"/><g id="Artboard11" serif:id="Artboard1"><g><g><path d="M4.88,36l-0,-3.05c-0.01,-0.4 -0.16,-0.66 -0.44,-0.88c-0.28,-0.23 -0.54,-0.34 -0.94,-0.35l-0.15,0c-0.41,0.01 -0.68,0.15 -0.96,0.41c-0.28,0.26 -0.42,0.53 -0.43,0.92l-0,2.81c0.01,0.39 0.16,0.66 0.43,0.92c0.28,0.26 0.55,0.4 0.96,0.41l0.15,0c0.39,0 0.66,-0.12 0.94,-0.35c0.28,-0.22 0.43,-0.46 0.44,-0.84Zm-0.18,2.19c-0,0 -0.1,0.07 -0.15,0.11l-0.01,0c-0,0 -0.02,0.03 -0.03,0.04c-0,0 -0.02,0.01 -0.03,0.02c-0.01,0 -0.02,0.01 -0.03,0.02c-0,0 -0.02,0.02 -0.03,0.02c-0.01,0 -0.03,0.01 -0.04,0.02c-0.01,0 -0.03,0.01 -0.04,0.02c-0.01,0 -0.03,0.01 -0.04,0.02c0,0 -0.02,0.01 -0.04,0.02c-0.01,0 -0.03,0.01 -0.04,0.02c-0.01,0 -0.03,0.01 -0.04,0.02c-0.01,0 -0.03,0.01 -0.04,0.02c-0.01,0 -0.03,0.01 -0.04,0.02c-0.01,0 -0.03,0 -0.04,0.01c-0.01,0 -0.03,0 -0.04,0.01c-0.01,0 -0.03,0 -0.04,0.01l-0.16,0c-0.16,0.02 -0.32,0.04 -0.48,0.04l-0.12,0c-0.81,-0.02 -1.48,-0.28 -2.02,-0.79c-0.54,-0.51 -0.82,-1.15 -0.84,-1.92l0,-3.02c0.02,-0.77 0.3,-1.41 0.84,-1.92c0.54,-0.51 1.21,-0.77 2.02,-0.8l0.16,0c0.15,0 0.3,0.01 0.43,0.03l0.04,0c0,0 0.03,0 0.04,0.01l0.08,0c0.01,0 0.03,0 0.04,0.01c0.01,0 0.03,0 0.04,0.01c0.01,0 0.03,0 0.04,0.01c0.02,0 0.03,0 0.04,0.01c0.01,0 0.03,0.01 0.04,0.02c0.01,0 0.03,0.01 0.04,0.02c0.01,0 0.03,0.01 0.04,0.02c0.01,0 0.03,0.01 0.04,0.02c0.01,0 0.03,0.01 0.04,0.02c0.01,0 0.02,0.01 0.04,0.02c0.01,0 0.02,0.01 0.04,0.02c0.02,0.01 0.02,0.02 0.02,0.02l0.02,0l0.01,0.02l0.02,0l0.01,0.02l0.02,0l0.01,0.02l0.01,0l0.01,0.02l0.01,0l0.01,0.02l0.01,0l0.02,0.02l0.01,0.02l0.01,0l-0,0.02c-0,0 0.01,0 0.03,0.02c-0,0 0.01,0 0.02,0.01c-0,0 0.02,0 0.03,0.01l0.06,0c0.01,0 0.02,0 0.03,-0.01c-0,0 0.02,0 0.03,-0.01c-0,0 0.02,-0.01 0.02,-0.02c-0,0 0.01,-0.01 0.02,-0.02c0,0 0.01,-0.02 0.02,-0.03l0,-0.06c0,-0.1 0,-0.24 0.11,-0.27c0.06,-0.02 0.15,0 0.21,0l1.02,0c0.11,0 0.26,-0.03 0.3,0.1c0.03,0.09 0,0.29 0,0.39l0,6.45c0,0.57 0.02,1.15 -0.04,1.72c-0.18,1.59 -0.97,2.94 -2.66,3.24c-1.02,0.18 -2.03,-0.18 -2.82,-0.83c-0.1,-0.08 -0.3,-0.21 -0.29,-0.35c0,-0.05 0.03,-0.09 0.05,-0.13c0,0 0.65,-0.69 0.7,-0.75c0.04,-0.05 0.11,-0.12 0.18,-0.12c0.1,0 0.21,0.1 0.4,0.2c0.32,0.19 0.66,0.36 1.02,0.41c0.23,0.04 0.48,0 0.7,-0.07c0.85,-0.28 1.09,-1.35 1.14,-2.2l0,-0.1l-0.01,0l0,-0.01l-0.13,0l-0.02,0.01l-0.03,0.03Z" style="fill:#d71d24;fill-rule:nonzero;"/><path d="M18.06,38.47l0,-1.11c0,-0.06 -0.02,-0.11 -0.05,-0.14c-0.03,-0.03 -0.08,-0.04 -0.13,-0.04l-3.06,0c-0.07,0 -0.12,-0.01 -0.16,-0.04c-0.03,-0.02 -0.05,-0.05 -0.05,-0.1c-0,-0.04 0.02,-0.1 0.04,-0.13l3.35,-6.32c-0,0 0.02,-0.04 0.03,-0.06c-0,-0.02 0.01,-0.05 0.01,-0.07c-0,-0.09 -0.07,-0.15 -0.2,-0.15l-5.49,0c-0.12,0 -0.19,0.06 -0.19,0.18l-0,1.11c-0,0.12 0.06,0.19 0.19,0.19l2.87,0c0.06,0 0.12,0.01 0.15,0.04c0.03,0.03 0.05,0.06 0.05,0.11c-0,0.02 -0,0.04 -0.01,0.06c-0,0.03 -0.02,0.05 -0.03,0.07l-3.38,6.32c0,0 -0.02,0.04 -0.03,0.06c-0,0.03 -0.01,0.04 -0.01,0.07c0,0.09 0.07,0.14 0.2,0.15l5.71,0c0.06,0 0.11,-0.02 0.14,-0.04c0.03,-0.03 0.04,-0.08 0.04,-0.14l0.01,-0.02Z" style="fill:#d71d24;fill-rule:nonzero;"/><path d="M8.57,29.23c-0,0.06 0.02,0.11 0.06,0.14c0.04,0.04 0.09,0.06 0.17,0.06l1.15,0c0.08,0 0.13,-0.02 0.17,-0.06c0.03,-0.03 0.05,-0.08 0.05,-0.14l-0,-1.32c-0,-0.08 -0.02,-0.14 -0.06,-0.17c-0.04,-0.04 -0.09,-0.05 -0.17,-0.06l-0.09,0c-0.07,0 -0.13,0.02 -0.2,0.08l-0.97,1.08l-0.04,0.06c-0.05,0.06 -0.07,0.11 -0.07,0.17l-0,0.16Z" style="fill:#d71d24;fill-rule:nonzero;"/><path d="M10.16,30.49c-0,-0.07 -0.02,-0.12 -0.04,-0.15c-0.04,-0.04 -0.09,-0.05 -0.15,-0.05l-1.2,0c-0.07,0 -0.12,0.02 -0.15,0.06c-0.03,0.04 -0.04,0.08 -0.05,0.14l-0,7.97c-0,0.07 0.02,0.12 0.05,0.15c0.04,0.04 0.08,0.05 0.15,0.05l1.2,0c0.07,0 0.12,-0.02 0.15,-0.06c0.03,-0.04 0.04,-0.08 0.04,-0.14l-0,-7.97Z" style="fill:#d71d24;fill-rule:nonzero;"/></g><g><path d="M22.24,38.51c0,0 -0.05,-0.04 -0.08,-0.04l-0.74,0l0.83,-1.6c-0,0 0.02,-0.05 0.02,-0.08c0,-0.04 -0.01,-0.07 -0.04,-0.09c-0.03,-0.02 -0.06,-0.04 -0.1,-0.04l-0.84,0c0,0 -0.07,0 -0.09,0.04c-0.02,0.02 -0.03,0.05 -0.03,0.08c0,0.03 0,0.05 0.03,0.08c0.02,0.02 0.05,0.03 0.09,0.03l0.69,0l-0.83,1.59c0,0 -0.02,0.04 -0.02,0.07c-0,0.04 0.01,0.07 0.04,0.1c0.02,0.03 0.05,0.04 0.1,0.04l0.88,0c-0,0 0.06,0 0.08,-0.04c0.02,-0.02 0.03,-0.05 0.03,-0.08c-0,-0.03 -0,-0.05 -0.03,-0.08l0.01,0.02Zm1.43,-1.13c0,0 0,-0.06 -0.03,-0.08c-0.02,-0.02 -0.05,-0.03 -0.08,-0.03c-0.03,0 -0.05,0 -0.07,0.03c-0.03,0.02 -0.04,0.05 -0.04,0.08l0,0.86c0,0.07 -0.02,0.13 -0.07,0.17c-0.05,0.05 -0.11,0.07 -0.18,0.07l-0.02,0c-0.07,0 -0.13,-0.03 -0.18,-0.07c-0.05,-0.05 -0.07,-0.11 -0.07,-0.17l0,-0.86c0,0 -0.01,-0.06 -0.04,-0.08c-0.02,-0.02 -0.05,-0.03 -0.08,-0.03c-0.03,0 -0.05,0 -0.08,0.03c-0.02,0.02 -0.04,0.05 -0.04,0.08l-0,0.86c-0,0.08 0.01,0.15 0.04,0.21c0.02,0.06 0.06,0.11 0.1,0.15c0.04,0.04 0.09,0.07 0.15,0.08c0.06,0.02 0.12,0.03 0.18,0.03l0.02,0c0.05,0 0.1,0 0.14,-0.02c0.05,-0.02 0.08,-0.04 0.11,-0.07c-0,0.03 0.02,0.05 0.04,0.07c0.02,0.02 0.05,0.02 0.07,0.02c0.03,0 0.05,0 0.08,-0.03c0.02,-0.02 0.03,-0.04 0.03,-0.08l-0,-1.22l0.02,0Zm1.5,0.91c0,-0.1 -0.02,-0.17 -0.06,-0.23c-0.04,-0.05 -0.09,-0.1 -0.14,-0.13c-0.05,-0.03 -0.12,-0.05 -0.18,-0.07c-0.07,-0.01 -0.13,-0.03 -0.19,-0.04c-0.05,-0.01 -0.1,-0.03 -0.14,-0.06c-0.04,-0.03 -0.06,-0.06 -0.06,-0.12c0,-0.05 0.03,-0.09 0.07,-0.12c0.04,-0.03 0.11,-0.04 0.19,-0.04l0.01,0c0.06,0 0.12,0 0.15,0.03c0.04,0.02 0.07,0.04 0.1,0.05c0.03,0.01 0.05,0.02 0.07,0.02c0.03,0 0.06,-0.01 0.08,-0.03c0.02,-0.02 0.03,-0.04 0.03,-0.07c0,-0.04 -0.01,-0.06 -0.04,-0.09c-0.01,0 -0.03,-0.02 -0.05,-0.04c-0.02,-0.01 -0.05,-0.03 -0.08,-0.04c-0.03,-0.01 -0.07,-0.02 -0.11,-0.03c-0.04,0 -0.09,-0.01 -0.14,-0.01l-0.01,0c0,0 -0.1,0 -0.15,0.02c-0.06,0.01 -0.11,0.03 -0.16,0.06c-0.05,0.03 -0.09,0.07 -0.12,0.12c-0.03,0.05 -0.05,0.11 -0.05,0.18c-0,0.09 0.02,0.16 0.06,0.21c0.04,0.05 0.09,0.09 0.14,0.11c0.05,0.03 0.12,0.05 0.18,0.06c0.07,0.01 0.13,0.03 0.18,0.04c0.06,0.02 0.1,0.04 0.14,0.07c0.04,0.03 0.06,0.08 0.06,0.14c-0,0.06 -0.03,0.1 -0.08,0.14c-0.05,0.04 -0.12,0.06 -0.21,0.06l-0.02,0c-0.05,0 -0.11,-0.02 -0.17,-0.05c-0.06,-0.04 -0.1,-0.08 -0.14,-0.13c-0.01,-0.02 -0.03,-0.03 -0.05,-0.04l-0.05,0c-0.03,0 -0.06,0 -0.08,0.03c-0.02,0.02 -0.04,0.04 -0.04,0.08c-0,0 -0,0.03 0.01,0.05c0.03,0.05 0.05,0.09 0.09,0.12c0.04,0.04 0.08,0.07 0.12,0.09c0.04,0.02 0.09,0.05 0.14,0.06c0.05,0.02 0.1,0.02 0.14,0.02l0.02,0c0.06,0 0.12,0 0.18,-0.03c0.06,-0.02 0.12,-0.04 0.16,-0.08c0.05,-0.03 0.09,-0.08 0.12,-0.13c0.03,-0.05 0.04,-0.11 0.04,-0.18l0.04,0Zm1.55,0.24c0,0 -0.04,-0.04 -0.07,-0.04c-0.05,0 -0.08,-0.04 -0.08,-0.1l0,-0.68c0,-0.06 -0.01,-0.12 -0.04,-0.18c-0.02,-0.05 -0.06,-0.1 -0.1,-0.14c-0.04,-0.04 -0.09,-0.07 -0.15,-0.1c-0.06,-0.02 -0.12,-0.04 -0.18,-0.04l-0.02,0c-0,0 -0.08,0 -0.12,0.01c-0.04,0.01 -0.08,0.03 -0.12,0.04c-0.04,0.02 -0.08,0.05 -0.11,0.08c-0.04,0.04 -0.06,0.08 -0.09,0.13c-0,0.01 -0.01,0.03 -0.01,0.05c-0,0.03 0.01,0.06 0.04,0.08c0.02,0.02 0.05,0.03 0.07,0.03c0.02,0 0.04,0 0.06,-0.01c0.02,0 0.03,-0.03 0.04,-0.05c0.03,-0.05 0.06,-0.08 0.09,-0.11c0.03,-0.03 0.08,-0.04 0.14,-0.04l0.02,0c0.06,0 0.12,0.02 0.17,0.05c0.05,0.04 0.07,0.1 0.07,0.19l-0,0.05c-0.01,0.02 -0.04,0.03 -0.08,0.04c-0.04,0 -0.09,0.02 -0.15,0.03c-0.06,0.01 -0.11,0.02 -0.17,0.04c-0.06,0.02 -0.12,0.04 -0.17,0.07c-0.05,0.03 -0.09,0.07 -0.13,0.12c-0.03,0.05 -0.05,0.11 -0.05,0.19l-0,0.04c-0,0.07 0.01,0.13 0.04,0.18c0.03,0.05 0.06,0.1 0.11,0.13c0.04,0.03 0.09,0.06 0.15,0.08c0.05,0.02 0.11,0.03 0.17,0.03l0.03,0c0.12,0 0.23,-0.04 0.32,-0.11c0.02,0.03 0.04,0.05 0.08,0.07c0.03,0.02 0.07,0.03 0.12,0.04l0.02,0c0.03,0 0.06,-0.01 0.08,-0.03c0.02,-0.02 0.03,-0.05 0.03,-0.08c-0,-0.02 -0,-0.05 -0.02,-0.07l0.01,0.01Zm-0.37,-0.3c0,0.07 -0.03,0.13 -0.08,0.18c-0.05,0.05 -0.11,0.07 -0.18,0.07l-0.03,0c-0.07,0 -0.13,-0.02 -0.18,-0.05c-0.05,-0.04 -0.07,-0.09 -0.07,-0.15l-0,-0.03c-0,-0.05 0.02,-0.09 0.05,-0.12c0.03,-0.03 0.08,-0.05 0.13,-0.06c0.05,-0.02 0.11,-0.03 0.17,-0.04c0.06,0 0.12,-0.02 0.18,-0.03l-0,0.23l0.01,0Zm2.57,-0.5c0,-0.08 -0.01,-0.15 -0.04,-0.21c-0.03,-0.06 -0.06,-0.11 -0.1,-0.15c-0.04,-0.04 -0.09,-0.07 -0.15,-0.08c-0.06,-0.02 -0.12,-0.03 -0.18,-0.03l-0.03,0c-0.07,0 -0.14,0.01 -0.2,0.04c-0.06,0.03 -0.11,0.07 -0.16,0.12c-0.04,-0.05 -0.1,-0.09 -0.16,-0.12c-0.06,-0.03 -0.13,-0.04 -0.2,-0.04l-0.03,0c-0.05,0 -0.1,0 -0.14,0.02c-0.04,0.02 -0.08,0.04 -0.11,0.06c0,-0.03 -0.02,-0.05 -0.04,-0.07c-0.02,-0.01 -0.04,-0.02 -0.07,-0.02c-0.03,0 -0.05,0 -0.08,0.03c-0.02,0.02 -0.04,0.05 -0.04,0.08l0,1.22c0,0 0.02,0.06 0.04,0.08c0.02,0.02 0.05,0.03 0.08,0.03c0.03,0 0.05,0 0.08,-0.03c0.02,-0.02 0.04,-0.05 0.04,-0.08l0,-0.89c0,-0.07 0.03,-0.12 0.08,-0.16c0.05,-0.04 0.11,-0.06 0.18,-0.06l0.03,0c0.07,0 0.13,0.02 0.18,0.07c0.05,0.05 0.07,0.11 0.07,0.18l0,0.86c0,0 0.01,0.07 0.04,0.09c0.03,0.02 0.05,0.03 0.08,0.03c0.03,0 0.05,0 0.08,-0.03c0.02,-0.02 0.04,-0.05 0.04,-0.09l0,-0.86c0,-0.07 0.02,-0.13 0.07,-0.18c0.05,-0.05 0.11,-0.07 0.18,-0.07l0.03,0c0.07,0 0.13,0.02 0.18,0.06c0.05,0.04 0.07,0.1 0.07,0.18l0,0.87c0,0 0.01,0.06 0.04,0.08c0.02,0.02 0.05,0.03 0.07,0.03c0.02,0 0.05,0 0.08,-0.03c0.03,-0.02 0.04,-0.05 0.04,-0.08l0,-0.87l-0.05,0.02Zm2.24,0c0,-0.08 -0.01,-0.15 -0.04,-0.21c-0.02,-0.06 -0.06,-0.11 -0.1,-0.15c-0.04,-0.04 -0.09,-0.07 -0.15,-0.08c-0.06,-0.02 -0.12,-0.03 -0.18,-0.03l-0.03,0c-0.07,0 -0.14,0.01 -0.21,0.04c-0.06,0.03 -0.11,0.07 -0.16,0.12c-0.04,-0.05 -0.1,-0.09 -0.16,-0.12c-0.06,-0.03 -0.13,-0.04 -0.2,-0.04l-0.03,0c0,0 -0.1,0 -0.14,0.02c-0.05,0.02 -0.08,0.04 -0.11,0.06c0,-0.03 -0.02,-0.05 -0.04,-0.07c-0.02,-0.01 -0.04,-0.02 -0.07,-0.02c-0.03,0 -0.05,0 -0.08,0.03c-0.02,0.02 -0.03,0.05 -0.03,0.08l0,1.22c0,0 0.01,0.06 0.03,0.08c0.03,0.02 0.05,0.03 0.08,0.03c0.03,0 0.05,0 0.08,-0.03c0.02,-0.02 0.03,-0.05 0.03,-0.08l0,-0.89c0,-0.07 0.03,-0.12 0.08,-0.16c0.05,-0.04 0.11,-0.06 0.18,-0.06l0.03,0c0.07,0 0.13,0.02 0.18,0.07c0.05,0.05 0.07,0.11 0.07,0.18l0,0.86c0,0 0.01,0.07 0.04,0.09c0.02,0.02 0.05,0.03 0.08,0.03c0.03,0 0.05,0 0.08,-0.03c0.02,-0.02 0.04,-0.05 0.04,-0.09l0,-0.86c0,-0.07 0.03,-0.13 0.07,-0.18c0.05,-0.05 0.11,-0.07 0.18,-0.07l0.03,0c0.07,0 0.13,0.02 0.18,0.06c0.04,0.04 0.07,0.1 0.07,0.18l0,0.87c0,0 0.01,0.06 0.04,0.08c0.02,0.02 0.05,0.03 0.08,0.03c0.03,0 0.05,0 0.07,-0.03c0.02,-0.02 0.04,-0.05 0.04,-0.08l0,-0.87l-0.03,0.02Zm1.46,0c0,-0.07 -0.01,-0.13 -0.04,-0.19c-0.03,-0.06 -0.06,-0.11 -0.1,-0.15c-0.04,-0.04 -0.09,-0.08 -0.15,-0.1c-0.06,-0.02 -0.12,-0.04 -0.18,-0.04l-0.03,0c-0.06,0 -0.12,0.01 -0.18,0.04c-0.06,0.02 -0.11,0.06 -0.15,0.1c-0.04,0.04 -0.08,0.09 -0.1,0.15c-0.03,0.06 -0.04,0.12 -0.04,0.18l0,0.5c0,0.07 0,0.13 0.04,0.18c0.02,0.06 0.05,0.11 0.1,0.15c0.04,0.04 0.09,0.08 0.15,0.1c0.06,0.02 0.12,0.04 0.18,0.04l0.03,0c0.1,0 0.19,-0.03 0.26,-0.08c0.08,-0.05 0.13,-0.12 0.17,-0.2c0,-0.01 0.01,-0.03 0.01,-0.05c0,-0.03 -0.01,-0.06 -0.04,-0.08c-0.02,-0.02 -0.05,-0.03 -0.08,-0.03c-0.02,0 -0.04,0 -0.06,0.02c-0.02,0.01 -0.03,0.03 -0.04,0.05c-0.02,0.04 -0.05,0.07 -0.09,0.1c-0.04,0.03 -0.08,0.04 -0.14,0.04l-0.03,0c-0.07,0 -0.12,-0.03 -0.17,-0.07c-0.05,-0.05 -0.07,-0.11 -0.07,-0.18l0,-0.15l0.64,0c0,0 0.06,-0.01 0.08,-0.03c0.02,-0.02 0.03,-0.05 0.03,-0.08l0,-0.24l0,0.02Zm-0.22,0.15l-0.53,0l0,-0.15c0,-0.07 0.03,-0.13 0.07,-0.18c0.05,-0.05 0.11,-0.07 0.18,-0.07l0.03,0c0.06,0 0.12,0.02 0.17,0.07c0.05,0.05 0.07,0.11 0.07,0.18l0,0.14l0.01,0.01Zm1.68,-0.15c0,-0.08 -0.01,-0.15 -0.04,-0.21c-0.03,-0.06 -0.06,-0.11 -0.1,-0.15c-0.04,-0.04 -0.09,-0.07 -0.15,-0.09c-0.05,-0.02 -0.12,-0.03 -0.18,-0.03l-0.03,0c0,0 -0.1,0 -0.14,0.02c-0.04,0.02 -0.08,0.04 -0.11,0.06c0,-0.03 -0.02,-0.05 -0.04,-0.07c-0.02,-0.01 -0.04,-0.02 -0.07,-0.02c-0.03,0 -0.06,0 -0.08,0.03c-0.02,0.02 -0.04,0.05 -0.04,0.08l0,1.22c0,0 0.01,0.06 0.04,0.08c0.02,0.02 0.05,0.03 0.08,0.03c0.03,0 0.05,0 0.08,-0.03c0.02,-0.02 0.04,-0.05 0.04,-0.08l0,-0.86c0,-0.07 0.02,-0.13 0.07,-0.18c0.05,-0.05 0.11,-0.07 0.18,-0.07l0.03,0c0.07,0 0.13,0.03 0.18,0.07c0.05,0.05 0.07,0.11 0.07,0.18l0,0.86c0,0 0,0.06 0.04,0.08c0.02,0.02 0.05,0.03 0.08,0.03c0.03,0 0.05,0 0.08,-0.03c0.02,-0.02 0.03,-0.05 0.03,-0.08l0,-0.86l-0.02,0.02Zm1.58,0.8c0,0 -0.04,-0.04 -0.07,-0.04c-0.05,0 -0.07,-0.04 -0.07,-0.1l0,-0.68c0,-0.06 -0.01,-0.12 -0.04,-0.18c-0.02,-0.05 -0.05,-0.1 -0.1,-0.14c-0.04,-0.04 -0.09,-0.07 -0.15,-0.1c-0.06,-0.02 -0.12,-0.04 -0.18,-0.04l-0.02,0c0,0 -0.08,0 -0.12,0.01c-0.04,0.01 -0.08,0.03 -0.12,0.04c-0.04,0.02 -0.07,0.05 -0.11,0.08c-0.04,0.04 -0.06,0.08 -0.09,0.13c0,0.01 -0.01,0.03 -0.01,0.05c0,0.03 0.01,0.06 0.04,0.08c0.02,0.02 0.05,0.03 0.08,0.03c0.02,0 0.04,0 0.06,-0.01c0.02,0 0.03,-0.03 0.04,-0.05c0.03,-0.05 0.06,-0.08 0.1,-0.11c0.04,-0.03 0.08,-0.04 0.14,-0.04l0.02,0c0.06,0 0.12,0.02 0.17,0.05c0.05,0.04 0.07,0.1 0.07,0.19l0,0.05c-0.01,0.02 -0.04,0.03 -0.08,0.04c-0.04,0 -0.09,0.02 -0.14,0.03c-0.06,0 -0.11,0.02 -0.17,0.04c-0.06,0.02 -0.12,0.04 -0.17,0.07c-0.05,0.03 -0.09,0.07 -0.12,0.12c-0.04,0.05 -0.05,0.11 -0.05,0.19l0,0.04c0,0.07 0.01,0.13 0.04,0.18c0.03,0.05 0.06,0.1 0.11,0.13c0.04,0.03 0.09,0.06 0.15,0.08c0.06,0.02 0.11,0.03 0.17,0.03l0.03,0c0.12,0 0.23,-0.04 0.32,-0.11c0.02,0.03 0.04,0.05 0.07,0.07c0.03,0.02 0.07,0.03 0.12,0.04l0.02,0c0.04,0 0.06,-0.01 0.08,-0.03c0.02,-0.02 0.03,-0.05 0.03,-0.08c0,-0.02 0,-0.05 -0.02,-0.07l-0.03,0.01Zm-0.37,-0.3c0,0.07 -0.03,0.13 -0.08,0.18c-0.05,0.05 -0.11,0.07 -0.18,0.07l-0.03,0c-0.07,0 -0.13,-0.02 -0.18,-0.05c-0.04,-0.04 -0.07,-0.09 -0.07,-0.15l0,-0.03c0,-0.05 0.02,-0.09 0.05,-0.12c0.03,-0.03 0.08,-0.05 0.13,-0.06c0.05,-0.02 0.11,-0.03 0.17,-0.04c0.06,0 0.12,-0.02 0.17,-0.03l0,0.23l0.02,0Zm1.56,-0.83c-0.04,-0.05 -0.08,-0.09 -0.13,-0.11c-0.06,-0.02 -0.11,-0.03 -0.17,-0.03l-0.1,0c-0.02,0 -0.05,0.01 -0.06,0.02c-0.02,0 -0.04,0.02 -0.05,0.03c0,-0.02 -0.02,-0.04 -0.04,-0.05c-0.02,0 -0.04,-0.01 -0.05,-0.01c-0.03,0 -0.05,0 -0.08,0.03c-0.03,0.02 -0.04,0.05 -0.04,0.08l0,1.22c0,0 0.01,0.07 0.04,0.09c0.02,0.02 0.05,0.03 0.08,0.03c0.03,0 0.05,0 0.07,-0.03c0.02,-0.02 0.04,-0.05 0.04,-0.09l0,-0.98c0,-0.02 0.01,-0.04 0.03,-0.06c0.01,-0.02 0.03,-0.03 0.06,-0.04c0.03,-0.01 0.06,-0.02 0.11,-0.02c0.04,0 0.06,0 0.08,0.02c0.02,0.02 0.04,0.03 0.05,0.04c0.03,0.03 0.06,0.04 0.09,0.04c0.03,0 0.05,-0.01 0.08,-0.03c0.02,-0.02 0.03,-0.04 0.03,-0.08c0,-0.02 0,-0.05 -0.03,-0.08l-0.01,0.01Zm1.45,0.33c0,-0.07 -0.01,-0.13 -0.04,-0.18c-0.03,-0.06 -0.06,-0.11 -0.1,-0.15c-0.04,-0.04 -0.09,-0.08 -0.15,-0.1c-0.06,-0.03 -0.12,-0.04 -0.19,-0.04l-0.02,0c-0.05,0 -0.1,0 -0.15,0.03c-0.04,0.01 -0.08,0.04 -0.11,0.07l0,-0.6c0,0 -0.01,-0.07 -0.04,-0.08c-0.02,-0.02 -0.05,-0.03 -0.07,-0.03c-0.03,0 -0.05,0 -0.08,0.03c-0.02,0.02 -0.04,0.05 -0.04,0.08l0,1.84c0,0 0.01,0.06 0.04,0.08c0.02,0.02 0.05,0.03 0.08,0.03c0.02,0 0.05,0 0.07,-0.02c0.02,-0.01 0.03,-0.04 0.04,-0.07c0.02,0.02 0.05,0.04 0.1,0.06c0.04,0.02 0.1,0.03 0.16,0.03l0.03,0c0.07,0 0.13,-0.01 0.18,-0.04c0.06,-0.03 0.11,-0.06 0.15,-0.1c0.04,-0.04 0.08,-0.09 0.1,-0.15c0.03,-0.05 0.04,-0.12 0.04,-0.18l0,-0.51Zm-0.22,0.5c0,0.07 -0.03,0.13 -0.07,0.17c-0.05,0.05 -0.11,0.07 -0.18,0.07l-0.03,0c-0.07,0 -0.12,-0.02 -0.17,-0.06c-0.05,-0.04 -0.08,-0.1 -0.08,-0.17l0,-0.54c0,-0.07 0.03,-0.12 0.08,-0.16c0.05,-0.04 0.11,-0.06 0.17,-0.06l0.03,0c0.07,0 0.13,0.03 0.18,0.07c0.05,0.05 0.07,0.11 0.07,0.18l0,0.5Zm1.68,-0.5c0,-0.07 -0.01,-0.13 -0.04,-0.19c-0.03,-0.06 -0.06,-0.11 -0.1,-0.15c-0.04,-0.04 -0.09,-0.08 -0.15,-0.1c-0.06,-0.02 -0.12,-0.04 -0.18,-0.04l-0.03,0c-0.06,0 -0.12,0.01 -0.18,0.04c-0.06,0.02 -0.11,0.06 -0.15,0.1c-0.04,0.04 -0.08,0.09 -0.1,0.15c-0.03,0.06 -0.04,0.12 -0.04,0.18l0,0.5c0,0.07 0.01,0.13 0.04,0.18c0.02,0.06 0.06,0.11 0.1,0.15c0.04,0.04 0.09,0.08 0.15,0.1c0.06,0.02 0.12,0.04 0.18,0.04l0.03,0c0.1,0 0.19,-0.03 0.26,-0.08c0.07,-0.05 0.13,-0.12 0.16,-0.2c0,-0.01 0.01,-0.03 0.01,-0.05c0,-0.03 -0.01,-0.06 -0.04,-0.08c-0.02,-0.02 -0.05,-0.03 -0.08,-0.03c-0.02,0 -0.04,0 -0.05,0.02c-0.02,0.01 -0.03,0.03 -0.04,0.05c-0.02,0.04 -0.05,0.07 -0.09,0.1c-0.04,0.03 -0.08,0.04 -0.14,0.04l-0.03,0c-0.07,0 -0.13,-0.03 -0.18,-0.07c-0.05,-0.05 -0.07,-0.11 -0.07,-0.18l0,-0.15l0.64,0c0,0 0.06,-0.01 0.08,-0.03c0.02,-0.02 0.03,-0.05 0.03,-0.08l0,-0.24l0.01,0.02Zm-0.22,0.15l-0.53,0l0,-0.15c0,-0.07 0.03,-0.13 0.08,-0.18c0.05,-0.05 0.11,-0.07 0.18,-0.07l0.03,0c0.06,0 0.12,0.02 0.17,0.07c0.05,0.05 0.07,0.11 0.07,0.18l0,0.15Zm0.95,-1.12c0,0 -0.01,-0.07 -0.04,-0.08c-0.02,-0.02 -0.05,-0.03 -0.07,-0.03c-0.02,0 -0.05,0 -0.08,0.03c-0.02,0.02 -0.03,0.05 -0.03,0.08l0,0.07c0,0 0.01,0.06 0.03,0.08c0.03,0.02 0.05,0.03 0.08,0.03c0.03,0 0.05,0 0.07,-0.03c0.02,-0.02 0.04,-0.05 0.04,-0.08l0,-0.07Zm0,0.61c0,0 -0.01,-0.06 -0.04,-0.08c-0.02,-0.02 -0.05,-0.03 -0.07,-0.03c-0.02,0 -0.05,0 -0.08,0.03c-0.02,0.02 -0.03,0.05 -0.03,0.08l0,1.22c0,0 0.01,0.06 0.03,0.08c0.03,0.02 0.05,0.03 0.08,0.03c0.03,0 0.05,0 0.07,-0.03c0.02,-0.02 0.04,-0.05 0.04,-0.08l0,-1.22Zm1.16,1.15c0,0 -0.04,-0.04 -0.08,-0.04c-0.04,0 -0.08,-0.02 -0.12,-0.05c-0.04,-0.03 -0.05,-0.07 -0.05,-0.12l0,-0.82l0.16,0c0,0 0.07,-0.01 0.08,-0.04c0.02,-0.02 0.03,-0.05 0.03,-0.08c0,-0.03 0,-0.05 -0.03,-0.07c-0.02,-0.03 -0.05,-0.04 -0.08,-0.04l-0.16,0l0,-0.51c0,0 -0.01,-0.07 -0.04,-0.08c-0.02,-0.02 -0.05,-0.03 -0.08,-0.03c-0.03,0 -0.05,0 -0.08,0.03c-0.02,0.02 -0.04,0.05 -0.04,0.08l-0,0.51l-0.1,0c0,0 -0.06,0.01 -0.08,0.04c-0.02,0.02 -0.03,0.05 -0.03,0.07c-0,0.02 -0,0.05 0.03,0.08c0.02,0.02 0.05,0.04 0.08,0.04l0.1,0l-0,0.83c-0,0.05 -0,0.1 0.03,0.15c0.02,0.05 0.05,0.09 0.08,0.12c0.04,0.03 0.08,0.06 0.12,0.08c0.04,0.02 0.1,0.03 0.15,0.03c0.04,0 0.07,-0.01 0.08,-0.03c0.02,-0.02 0.03,-0.05 0.03,-0.08c0,-0.03 0,-0.05 -0.03,-0.08l0.03,0.01Zm1.66,0.14c-0.05,-0.07 -0.09,-0.16 -0.12,-0.25c-0.04,-0.1 -0.06,-0.2 -0.09,-0.32c-0.02,-0.11 -0.03,-0.23 -0.03,-0.36c0,-0.13 0,-0.24 0.03,-0.35c0.02,-0.11 0.05,-0.22 0.09,-0.31c0.04,-0.1 0.07,-0.18 0.12,-0.26c0.04,-0.08 0.09,-0.14 0.14,-0.19c0.02,-0.02 0.03,-0.05 0.03,-0.07c0,-0.02 -0.01,-0.05 -0.04,-0.07c-0.03,-0.02 -0.05,-0.03 -0.08,-0.03c-0.03,0 -0.05,0.01 -0.08,0.04c-0.06,0.06 -0.12,0.14 -0.17,0.23c-0.05,0.09 -0.1,0.19 -0.14,0.29c-0.04,0.11 -0.07,0.22 -0.09,0.35c-0.02,0.12 -0.04,0.25 -0.04,0.38c0,0.13 0.01,0.27 0.04,0.39c0.03,0.12 0.05,0.24 0.1,0.35c0.04,0.11 0.09,0.21 0.14,0.29c0.05,0.09 0.11,0.16 0.17,0.22c0.02,0.02 0.05,0.04 0.07,0.04c0.03,0 0.05,-0.01 0.08,-0.04c0.03,-0.02 0.04,-0.04 0.04,-0.07c-0,-0.03 -0,-0.05 -0.03,-0.07c-0.05,-0.05 -0.1,-0.11 -0.15,-0.19l0.01,0Zm1.67,-0.97c0,0 -0.01,-0.05 -0.04,-0.08c-0.02,-0.02 -0.05,-0.03 -0.07,-0.03l-0.42,0c0,0 -0.06,0.01 -0.08,0.03c-0.02,0.02 -0.03,0.05 -0.03,0.08c0,0.03 0,0.05 0.03,0.08c0.02,0.02 0.05,0.03 0.08,0.03l0.31,0l0,0.34c0,0 0,0.09 -0.03,0.13c-0.02,0.04 -0.04,0.07 -0.07,0.11c-0.03,0.03 -0.06,0.05 -0.11,0.07c-0.04,0.02 -0.08,0.03 -0.13,0.03l-0.03,0c0,0 -0.09,0 -0.13,-0.03c-0.04,-0.02 -0.08,-0.04 -0.11,-0.07c-0.03,-0.03 -0.05,-0.07 -0.07,-0.11c-0.02,-0.04 -0.03,-0.08 -0.03,-0.13l0,-0.95c0,0 0,-0.09 0.03,-0.13c0.02,-0.04 0.04,-0.07 0.07,-0.1c0.03,-0.03 0.07,-0.06 0.11,-0.07c0.04,-0.02 0.08,-0.02 0.13,-0.02l0.03,0c0.1,0 0.17,0.02 0.23,0.08c0.05,0.05 0.09,0.12 0.11,0.21c0,0.03 0.02,0.06 0.04,0.07c0.02,0.01 0.04,0.02 0.07,0.02c0.03,0 0.05,0 0.07,-0.03c0.03,-0.02 0.04,-0.05 0.04,-0.08l0,-0.02c-0.01,-0.07 -0.03,-0.13 -0.06,-0.19c-0.03,-0.06 -0.07,-0.11 -0.12,-0.15c-0.05,-0.04 -0.11,-0.07 -0.17,-0.1c-0.06,-0.02 -0.13,-0.04 -0.2,-0.04l-0.03,0c-0.07,0 -0.15,0.02 -0.21,0.04c-0.07,0.03 -0.13,0.07 -0.18,0.12c-0.05,0.05 -0.09,0.11 -0.12,0.18c-0.03,0.07 -0.04,0.14 -0.04,0.22l0,0.95c0,0.08 0.01,0.15 0.04,0.22c0.03,0.07 0.07,0.13 0.12,0.17c0.05,0.05 0.11,0.09 0.18,0.12c0.07,0.03 0.14,0.04 0.21,0.04l0.03,0c0.08,0 0.15,-0.01 0.22,-0.04c0.07,-0.03 0.13,-0.07 0.18,-0.12c0.05,-0.05 0.09,-0.11 0.12,-0.17c0.03,-0.07 0.04,-0.14 0.04,-0.22l0,-0.46l-0.01,0Zm0.81,-0.94c0,0 -0.01,-0.07 -0.04,-0.08c-0.02,-0.02 -0.05,-0.03 -0.08,-0.03c-0.03,0 -0.05,0 -0.08,0.03c-0.02,0.02 -0.03,0.05 -0.03,0.08l0,1.84c0,0 0,0.06 0.03,0.08c0.02,0.02 0.05,0.03 0.08,0.03c0.03,0 0.05,0 0.08,-0.03c0.02,-0.02 0.04,-0.05 0.04,-0.08l0,-1.84Zm1.63,1.74c0,0 -0.05,-0.04 -0.08,-0.04l-0.74,0l0.83,-1.6c0,0 0.02,-0.05 0.02,-0.08c0,-0.04 -0.01,-0.07 -0.04,-0.09c-0.03,-0.02 -0.06,-0.04 -0.1,-0.04l-0.84,0c0,0 -0.07,0 -0.08,0.04c-0.02,0.02 -0.03,0.05 -0.03,0.08c0,0.03 0,0.05 0.03,0.08c0.02,0.02 0.05,0.03 0.08,0.03l0.69,0l-0.83,1.59c0,0 -0.02,0.04 -0.02,0.07c0,0.04 0,0.07 0.03,0.1c0.02,0.03 0.05,0.04 0.1,0.04l0.88,0c0,0 0.06,0 0.08,-0.04c0.02,-0.02 0.03,-0.05 0.03,-0.08c0,-0.03 0,-0.05 -0.03,-0.08l0.02,0.02Zm1.01,-1.15c-0.02,-0.12 -0.05,-0.24 -0.09,-0.35c-0.04,-0.11 -0.09,-0.21 -0.14,-0.29c-0.05,-0.09 -0.11,-0.17 -0.17,-0.23c-0.02,-0.02 -0.05,-0.04 -0.08,-0.04c-0.02,0 -0.05,0.01 -0.08,0.03c-0.02,0.02 -0.04,0.05 -0.04,0.07c0,0.02 0,0.05 0.03,0.07c0.05,0.05 0.1,0.11 0.15,0.19c0.04,0.08 0.09,0.16 0.12,0.26c0.04,0.09 0.06,0.2 0.08,0.31c0.02,0.11 0.03,0.23 0.03,0.35c0,0.12 0,0.24 -0.03,0.36c-0.02,0.11 -0.05,0.22 -0.09,0.32c-0.04,0.09 -0.08,0.18 -0.12,0.25c-0.05,0.08 -0.1,0.14 -0.15,0.19c-0.02,0.02 -0.03,0.05 -0.03,0.07c0,0.03 0.01,0.05 0.04,0.08c0.02,0.02 0.05,0.04 0.08,0.04c0.03,0 0.05,-0.01 0.07,-0.04c0.06,-0.06 0.12,-0.13 0.18,-0.22c0.05,-0.09 0.1,-0.19 0.14,-0.29c0.04,-0.11 0.07,-0.23 0.09,-0.35c0.03,-0.12 0.04,-0.26 0.04,-0.39c0,-0.13 -0.01,-0.26 -0.04,-0.38l0.01,-0.01Zm2.32,0.34c0,0 -0.01,-0.05 -0.04,-0.08c-0.02,-0.02 -0.05,-0.03 -0.08,-0.03l-0.42,0c0,0 -0.06,0.01 -0.08,0.03c-0.02,0.02 -0.03,0.05 -0.03,0.08c0,0.03 0,0.05 0.03,0.08c0.02,0.02 0.05,0.03 0.08,0.03l0.31,0l0,0.34c0,0 0,0.09 -0.03,0.13c-0.02,0.04 -0.04,0.07 -0.07,0.11c-0.03,0.03 -0.07,0.05 -0.11,0.07c-0.04,0.02 -0.08,0.03 -0.13,0.03l-0.03,0c0,0 -0.09,0 -0.13,-0.03c-0.04,-0.02 -0.08,-0.04 -0.11,-0.07c-0.03,-0.03 -0.05,-0.07 -0.07,-0.11c-0.02,-0.04 -0.03,-0.08 -0.03,-0.13l0,-0.95c0,0 0,-0.09 0.03,-0.13c0.02,-0.04 0.04,-0.07 0.07,-0.1c0.03,-0.03 0.06,-0.06 0.11,-0.07c0.04,-0.02 0.08,-0.02 0.13,-0.02l0.03,0c0.09,0 0.17,0.02 0.22,0.08c0.06,0.05 0.09,0.12 0.11,0.21c0,0.03 0.02,0.06 0.04,0.07c0.02,0.01 0.04,0.02 0.07,0.02c0.03,0 0.05,0 0.08,-0.03c0.02,-0.02 0.04,-0.05 0.04,-0.08l0,-0.02c0,-0.07 -0.03,-0.13 -0.06,-0.19c-0.03,-0.06 -0.07,-0.11 -0.12,-0.15c-0.05,-0.04 -0.11,-0.07 -0.17,-0.1c-0.06,-0.02 -0.13,-0.04 -0.2,-0.04l-0.03,0c-0.08,0 -0.15,0.02 -0.21,0.04c-0.07,0.03 -0.13,0.07 -0.18,0.12c-0.05,0.05 -0.09,0.11 -0.12,0.18c-0.03,0.07 -0.04,0.14 -0.04,0.22l0,0.95c0,0.08 0.01,0.15 0.04,0.22c0.03,0.07 0.07,0.13 0.12,0.17c0.05,0.05 0.11,0.09 0.18,0.12c0.07,0.03 0.14,0.04 0.21,0.04l0.03,0c0.07,0 0.15,-0.01 0.21,-0.04c0.07,-0.03 0.13,-0.07 0.18,-0.12c0.05,-0.05 0.09,-0.11 0.12,-0.17c0.03,-0.07 0.04,-0.14 0.04,-0.22l0,-0.46l0.01,0Zm2.26,0.03c0,-0.08 0,-0.15 -0.04,-0.21c-0.03,-0.06 -0.06,-0.11 -0.1,-0.15c-0.04,-0.04 -0.09,-0.07 -0.15,-0.08c-0.06,-0.02 -0.12,-0.03 -0.18,-0.03l-0.02,0c-0.08,0 -0.14,0.01 -0.21,0.04c-0.06,0.03 -0.11,0.07 -0.16,0.12c-0.05,-0.05 -0.1,-0.09 -0.16,-0.12c-0.06,-0.03 -0.13,-0.04 -0.21,-0.04l-0.03,0c0,0 -0.1,0 -0.14,0.02c-0.04,0.02 -0.08,0.04 -0.11,0.06c0,-0.03 -0.02,-0.05 -0.04,-0.07c-0.02,-0.01 -0.04,-0.02 -0.07,-0.02c-0.03,0 -0.06,0 -0.08,0.03c-0.02,0.02 -0.03,0.05 -0.03,0.08l0,1.22c0,0 0,0.06 0.03,0.08c0.02,0.02 0.05,0.03 0.08,0.03c0.03,0 0.05,0 0.08,-0.03c0.02,-0.02 0.03,-0.05 0.03,-0.08l0,-0.89c0,-0.07 0.03,-0.12 0.08,-0.16c0.05,-0.04 0.11,-0.06 0.18,-0.06l0.03,0c0.07,0 0.13,0.02 0.18,0.07c0.05,0.05 0.07,0.11 0.07,0.18l0,0.86c0,0 0.01,0.07 0.04,0.09c0.02,0.02 0.05,0.03 0.08,0.03c0.03,0 0.05,0 0.07,-0.03c0.03,-0.02 0.04,-0.05 0.04,-0.09l0,-0.86c0,-0.07 0.02,-0.13 0.07,-0.18c0.05,-0.05 0.11,-0.07 0.18,-0.07l0.02,0c0.07,0 0.13,0.02 0.18,0.06c0.05,0.04 0.07,0.1 0.07,0.18l0,0.87c0,0 0.01,0.06 0.04,0.08c0.02,0.02 0.05,0.03 0.07,0.03c0.03,0 0.05,0 0.08,-0.03c0.02,-0.02 0.03,-0.05 0.03,-0.08l0,-0.87l0,0.02Zm1.52,0c0,-0.07 -0.01,-0.13 -0.04,-0.18c-0.03,-0.06 -0.06,-0.11 -0.1,-0.15c-0.04,-0.04 -0.09,-0.08 -0.15,-0.1c-0.06,-0.03 -0.12,-0.04 -0.19,-0.04l-0.02,0c0,0 -0.1,0 -0.15,0.03c-0.04,0.01 -0.08,0.04 -0.11,0.07l0,-0.6c0,0 -0.01,-0.07 -0.04,-0.08c-0.02,-0.02 -0.05,-0.03 -0.08,-0.03c-0.03,0 -0.05,0 -0.08,0.03c-0.02,0.02 -0.03,0.05 -0.03,0.08l-0,1.84c-0,0 0.01,0.06 0.03,0.08c0.03,0.02 0.05,0.03 0.08,0.03c0.03,0 0.05,0 0.07,-0.02c0.02,-0.01 0.03,-0.04 0.04,-0.07c0.02,0.02 0.05,0.04 0.09,0.06c0.04,0.02 0.09,0.03 0.16,0.03l0.03,0c0.06,0 0.12,-0.01 0.18,-0.04c0.06,-0.03 0.11,-0.06 0.15,-0.1c0.04,-0.04 0.08,-0.09 0.1,-0.15c0.03,-0.05 0.04,-0.12 0.04,-0.18l-0,-0.5l0.02,-0.01Zm-0.22,0.5c0,0.07 -0.02,0.13 -0.07,0.17c-0.05,0.05 -0.11,0.07 -0.18,0.07l-0.03,0c-0.07,0 -0.12,-0.02 -0.18,-0.06c-0.05,-0.04 -0.07,-0.1 -0.07,-0.17l0,-0.54c0,-0.07 0.03,-0.12 0.07,-0.16c0.05,-0.04 0.11,-0.06 0.18,-0.06l0.03,0c0.07,0 0.13,0.03 0.18,0.07c0.05,0.05 0.07,0.11 0.07,0.18l0,0.5Zm1.91,-1.47c0,0 -0.01,-0.07 -0.03,-0.08c-0.02,-0.02 -0.05,-0.03 -0.08,-0.03c-0.03,0 -0.05,0 -0.08,0.03c-0.02,0.02 -0.04,0.05 -0.04,0.08l-0,0.77l-0.69,0l-0,-0.77c-0,0 -0.01,-0.07 -0.04,-0.08c-0.02,-0.02 -0.05,-0.03 -0.08,-0.03c-0.03,0 -0.05,0 -0.08,0.03c-0.02,0.02 -0.04,0.05 -0.04,0.08l-0,1.84c-0,0 0.01,0.06 0.04,0.08c0.02,0.02 0.05,0.03 0.08,0.03c0.03,0 0.05,0 0.08,-0.03c0.02,-0.02 0.04,-0.05 0.04,-0.08l-0,-0.84l0.69,0l-0,0.84c-0,0 0.01,0.07 0.04,0.08c0.03,0.02 0.05,0.03 0.08,0.03c0.03,0 0.05,0 0.08,-0.03c0.02,-0.02 0.03,-0.04 0.03,-0.08l0,-1.84Z" style="fill:#d71d24;fill-rule:nonzero;"/><path d="M21.8,33.49c0,0 -0.04,-0.04 -0.08,-0.04c-0.05,0 -0.11,0 -0.15,0.03c-0.05,0.02 -0.09,0.05 -0.12,0.08c-0.03,0.03 -0.06,0.07 -0.08,0.12c-0.02,0.05 -0.03,0.1 -0.03,0.15l-0,0.23l-0.06,0c-0,0 -0.06,0.01 -0.08,0.04c-0.02,0.02 -0.03,0.05 -0.03,0.08c-0,0.03 -0,0.05 0.03,0.08c0.02,0.02 0.04,0.03 0.08,0.03l0.06,0l-0,1.1c-0,0 0.01,0.07 0.03,0.08c0.03,0.02 0.05,0.02 0.08,0.02c0.03,0 0.05,0 0.08,-0.02c0.02,-0.02 0.04,-0.04 0.04,-0.08l-0,-1.1l0.14,0c-0,0 0.06,-0.01 0.08,-0.03c0.02,-0.02 0.03,-0.05 0.03,-0.08c-0,-0.03 -0,-0.05 -0.03,-0.08c-0.02,-0.02 -0.04,-0.04 -0.08,-0.04l-0.14,0l-0,-0.23c-0,0 0.02,-0.08 0.04,-0.12c0.03,-0.03 0.07,-0.05 0.12,-0.05c0.04,0 0.06,-0.01 0.08,-0.03c0.02,-0.02 0.03,-0.05 0.03,-0.08c0,-0.03 0,-0.05 -0.03,-0.08l-0.01,0.02Zm1.3,0.08c0,0 -0.01,-0.06 -0.04,-0.08c-0.02,-0.02 -0.05,-0.03 -0.08,-0.03c-0.03,0 -0.05,0 -0.07,0.03c-0.02,0.02 -0.04,0.05 -0.04,0.08l0,0.06c0,0 0.01,0.06 0.04,0.08c0.02,0.02 0.05,0.03 0.08,0.03c0.03,0 0.05,-0.01 0.07,-0.03c0.03,-0.02 0.04,-0.05 0.04,-0.08l0,-0.06Zm-0.54,0c0,0 -0.01,-0.06 -0.04,-0.08c-0.02,-0.02 -0.05,-0.03 -0.08,-0.03c-0.03,0 -0.05,0 -0.08,0.03c-0.02,0.02 -0.04,0.05 -0.04,0.08l0,0.06c0,0 0.01,0.06 0.04,0.08c0.02,0.02 0.05,0.03 0.08,0.03c0.03,0 0.05,-0.01 0.08,-0.03c0.02,-0.02 0.04,-0.05 0.04,-0.08l0,-0.06Zm0.65,0.61c0,0 -0.01,-0.06 -0.03,-0.08c-0.02,-0.02 -0.05,-0.03 -0.08,-0.03c-0.03,0 -0.05,0 -0.08,0.03c-0.02,0.02 -0.03,0.04 -0.03,0.08l0,0.86c0,0.07 -0.03,0.13 -0.07,0.18c-0.05,0.05 -0.11,0.07 -0.18,0.07l-0.03,0c-0.07,0 -0.12,-0.03 -0.17,-0.07c-0.05,-0.05 -0.07,-0.11 -0.07,-0.18l0,-0.86c0,0 0,-0.06 -0.04,-0.08c-0.02,-0.02 -0.05,-0.03 -0.08,-0.03c-0.03,0 -0.05,0 -0.08,0.03c-0.02,0.02 -0.03,0.04 -0.03,0.08l0,0.86c0,0.08 0.01,0.15 0.04,0.21c0.03,0.06 0.06,0.11 0.1,0.14c0.04,0.04 0.09,0.07 0.15,0.08c0.06,0.02 0.12,0.03 0.18,0.03l0.03,0c0.05,0 0.1,0 0.14,-0.02c0.04,-0.01 0.08,-0.04 0.11,-0.06c0,0.03 0.02,0.05 0.04,0.06c0.02,0.01 0.04,0.02 0.07,0.02c0.03,0 0.05,0 0.08,-0.03c0.02,-0.02 0.03,-0.04 0.03,-0.08l0,-1.22l0,0.01Zm1.25,0.03c-0.04,-0.05 -0.08,-0.09 -0.14,-0.11c-0.05,-0.02 -0.11,-0.04 -0.17,-0.04l-0.1,0c-0.02,0 -0.05,0.01 -0.06,0.02c-0.02,0 -0.04,0.02 -0.05,0.03c-0.01,-0.02 -0.03,-0.04 -0.04,-0.04c-0.02,0 -0.04,-0.01 -0.06,-0.01c-0.03,0 -0.05,0.01 -0.08,0.03c-0.03,0.02 -0.04,0.05 -0.04,0.08l0,1.22c0,0 0,0.07 0.03,0.08c0.02,0.02 0.05,0.03 0.08,0.03c0.03,0 0.05,0 0.07,-0.03c0.03,-0.02 0.04,-0.05 0.04,-0.08l0,-0.98c0,-0.02 0.01,-0.04 0.03,-0.06c0.01,-0.02 0.03,-0.04 0.06,-0.04c0.02,-0.01 0.06,-0.02 0.1,-0.02c0.04,0 0.07,0 0.09,0.02c0.02,0.01 0.04,0.03 0.05,0.04c0.03,0.03 0.06,0.04 0.09,0.04c0.03,0 0.05,0 0.08,-0.03c0.02,-0.02 0.03,-0.05 0.03,-0.08c0,-0.02 0,-0.05 -0.03,-0.08l0.02,0.01Zm1.67,-0.64c0,0 -0.01,-0.06 -0.04,-0.08c-0.02,-0.02 -0.05,-0.03 -0.08,-0.03c-0.03,0 -0.05,0 -0.08,0.03c-0.02,0.02 -0.03,0.05 -0.03,0.08l0,1.84c0,0 0.01,0.07 0.03,0.08c0.03,0.02 0.05,0.02 0.08,0.02c0.03,0 0.05,0 0.08,-0.02c0.02,-0.02 0.04,-0.04 0.04,-0.08l0,-1.84Zm1.57,0.97c0,-0.08 -0.02,-0.15 -0.04,-0.21c-0.03,-0.06 -0.06,-0.11 -0.1,-0.15c-0.04,-0.04 -0.09,-0.07 -0.15,-0.09c-0.06,-0.02 -0.12,-0.03 -0.18,-0.03l-0.03,0c-0.05,0 -0.1,0 -0.14,0.02c-0.04,0.02 -0.08,0.04 -0.11,0.07c0,-0.03 -0.02,-0.05 -0.04,-0.07c-0.02,-0.02 -0.05,-0.02 -0.07,-0.02c-0.03,0 -0.06,0.01 -0.08,0.03c-0.02,0.02 -0.04,0.05 -0.04,0.08l0,1.22c0,0 0.01,0.07 0.04,0.08c0.02,0.02 0.05,0.02 0.08,0.02c0.02,0 0.05,0 0.08,-0.02c0.02,-0.02 0.03,-0.04 0.03,-0.08l0,-0.86c0,-0.07 0.03,-0.13 0.08,-0.18c0.05,-0.05 0.11,-0.07 0.17,-0.07l0.03,0c0.07,0 0.13,0.03 0.18,0.08c0.05,0.05 0.07,0.11 0.07,0.17l0,0.86c0,0 0.01,0.07 0.04,0.08c0.02,0.02 0.05,0.02 0.07,0.02c0.03,0 0.05,0 0.08,-0.02c0.02,-0.02 0.04,-0.04 0.04,-0.08l0,-0.86l-0.01,0.01Zm1.1,0.79c0,0 -0.04,-0.03 -0.08,-0.04c-0.04,0 -0.08,-0.02 -0.12,-0.05c-0.04,-0.03 -0.05,-0.07 -0.05,-0.12l-0,-0.82l0.16,0c-0,0 0.06,-0.01 0.08,-0.03c0.02,-0.02 0.03,-0.05 0.03,-0.08c0,-0.03 0,-0.05 -0.03,-0.08c-0.02,-0.02 -0.04,-0.04 -0.08,-0.04l-0.16,0l-0,-0.51c-0,0 -0.01,-0.06 -0.04,-0.08c-0.02,-0.02 -0.05,-0.03 -0.07,-0.03c-0.03,0 -0.05,0 -0.08,0.03c-0.02,0.02 -0.04,0.05 -0.04,0.08l-0,0.51l-0.1,0c0,0 -0.07,0.01 -0.08,0.04c-0.02,0.02 -0.03,0.05 -0.03,0.08c-0,0.03 -0,0.05 0.03,0.08c0.02,0.02 0.05,0.03 0.08,0.03l0.1,0l-0,0.83c-0,0.05 -0,0.1 0.03,0.15c0.02,0.05 0.05,0.09 0.08,0.12c0.03,0.04 0.07,0.06 0.12,0.08c0.05,0.02 0.1,0.03 0.15,0.03c0.04,0 0.07,0 0.09,-0.03c0.02,-0.02 0.03,-0.05 0.03,-0.07c0,-0.03 0,-0.05 -0.03,-0.07l0.01,-0.01Zm1.4,-0.79c0,-0.07 -0.01,-0.13 -0.04,-0.19c-0.02,-0.06 -0.06,-0.11 -0.1,-0.15c-0.04,-0.04 -0.09,-0.08 -0.15,-0.1c-0.06,-0.02 -0.12,-0.04 -0.18,-0.04l-0.03,0c-0.06,0 -0.13,0.01 -0.18,0.04c-0.06,0.03 -0.11,0.06 -0.15,0.1c-0.04,0.04 -0.07,0.09 -0.1,0.15c-0.03,0.06 -0.04,0.12 -0.04,0.18l0,0.5c0,0.07 0.01,0.13 0.04,0.19c0.03,0.06 0.06,0.11 0.1,0.15c0.04,0.04 0.09,0.08 0.15,0.1c0.06,0.02 0.12,0.04 0.18,0.04l0.03,0c0.1,0 0.19,-0.02 0.26,-0.08c0.07,-0.05 0.13,-0.12 0.17,-0.2l-0,-0.05c-0,-0.03 -0,-0.06 -0.04,-0.08c-0.02,-0.02 -0.05,-0.03 -0.08,-0.03c-0.02,0 -0.04,0 -0.05,0.01c-0.02,0.01 -0.03,0.03 -0.04,0.06c-0.02,0.04 -0.05,0.08 -0.09,0.11c-0.04,0.03 -0.08,0.04 -0.14,0.04l-0.03,0c-0.07,0 -0.13,-0.03 -0.18,-0.07c-0.05,-0.05 -0.07,-0.11 -0.07,-0.18l-0,-0.15l0.64,0c-0,0 0.06,-0.01 0.08,-0.03c0.02,-0.02 0.03,-0.05 0.03,-0.08l-0,-0.24l0.01,0Zm-0.22,0.15l-0.53,0l0,-0.15c0,-0.07 0.03,-0.13 0.07,-0.18c0.05,-0.05 0.11,-0.07 0.18,-0.07l0.03,0c0.06,0 0.12,0.03 0.17,0.07c0.05,0.04 0.07,0.11 0.07,0.18l-0,0.15l0.01,0Zm1.42,-0.48c-0.04,-0.05 -0.08,-0.09 -0.13,-0.11c-0.06,-0.02 -0.11,-0.04 -0.17,-0.04l-0.1,0c-0.03,0 -0.05,0.01 -0.07,0.02c-0.02,0 -0.04,0.02 -0.05,0.03c0,-0.02 -0.02,-0.04 -0.04,-0.04c-0.02,0 -0.04,-0.01 -0.05,-0.01c-0.03,0 -0.05,0.01 -0.08,0.03c-0.02,0.02 -0.04,0.05 -0.04,0.08l0,1.22c0,0 0.01,0.07 0.04,0.08c0.02,0.02 0.05,0.03 0.08,0.03c0.03,0 0.05,0 0.08,-0.03c0.02,-0.02 0.04,-0.05 0.04,-0.08l0,-0.98c0,-0.02 0.01,-0.04 0.03,-0.06c0.01,-0.02 0.03,-0.04 0.06,-0.04c0.02,-0.01 0.06,-0.02 0.11,-0.02c0.04,0 0.06,0 0.09,0.02c0.02,0.01 0.04,0.03 0.05,0.04c0.03,0.03 0.06,0.04 0.09,0.04c0.03,0 0.05,0 0.08,-0.03c0.02,-0.02 0.03,-0.05 0.03,-0.08c0,-0.02 0,-0.05 -0.03,-0.08l-0.02,0.01Zm1.38,0.33c0,-0.08 -0.01,-0.15 -0.04,-0.21c-0.03,-0.06 -0.06,-0.11 -0.1,-0.15c-0.04,-0.04 -0.09,-0.07 -0.15,-0.09c-0.06,-0.02 -0.12,-0.03 -0.18,-0.03l-0.03,0c-0.05,0 -0.1,0 -0.14,0.02c-0.04,0.02 -0.08,0.04 -0.11,0.07c0,-0.03 -0.02,-0.05 -0.04,-0.07c-0.02,-0.02 -0.04,-0.02 -0.07,-0.02c-0.03,0 -0.06,0.01 -0.08,0.03c-0.03,0.02 -0.04,0.05 -0.04,0.08l0,1.22c0,0 0,0.07 0.04,0.08c0.02,0.02 0.05,0.02 0.08,0.02c0.03,0 0.05,0 0.08,-0.02c0.02,-0.02 0.04,-0.04 0.04,-0.08l0,-0.86c0,-0.07 0.02,-0.13 0.07,-0.18c0.05,-0.05 0.11,-0.07 0.18,-0.07l0.03,0c0.07,0 0.13,0.03 0.18,0.08c0.05,0.05 0.07,0.11 0.07,0.17l0,0.86c0,0 0,0.07 0.03,0.08c0.02,0.02 0.05,0.02 0.08,0.02c0.03,0 0.05,0 0.08,-0.02c0.02,-0.02 0.04,-0.04 0.04,-0.08l0,-0.86l-0.02,0.01Zm1.58,0.79c0,0 -0.04,-0.04 -0.07,-0.04c-0.05,-0.01 -0.08,-0.04 -0.08,-0.1l0,-0.68c0,-0.06 -0.01,-0.12 -0.04,-0.17c-0.03,-0.05 -0.05,-0.1 -0.1,-0.15c-0.04,-0.04 -0.09,-0.07 -0.15,-0.1c-0.06,-0.02 -0.12,-0.04 -0.18,-0.04l-0.02,0c0,0 -0.08,0 -0.12,0.01c-0.04,0 -0.08,0.02 -0.12,0.04c-0.04,0.02 -0.08,0.05 -0.11,0.08c-0.04,0.04 -0.06,0.08 -0.09,0.13c-0,0.01 -0.01,0.03 -0.01,0.05c-0,0.03 0.01,0.05 0.04,0.08c0.02,0.02 0.05,0.03 0.07,0.03c0.02,0 0.04,0 0.05,-0.01c0.02,0 0.03,-0.02 0.04,-0.05c0.03,-0.05 0.06,-0.08 0.09,-0.11c0.04,-0.02 0.08,-0.04 0.14,-0.04l0.02,0c0.06,0 0.12,0.02 0.17,0.05c0.04,0.04 0.07,0.09 0.07,0.18l-0,0.05c-0.01,0.01 -0.04,0.03 -0.08,0.04c-0.04,0 -0.09,0.02 -0.15,0.03c-0.05,0 -0.11,0.02 -0.17,0.04c-0.06,0.01 -0.12,0.04 -0.17,0.07c-0.05,0.03 -0.09,0.07 -0.12,0.12c-0.04,0.05 -0.05,0.11 -0.05,0.19l-0,0.04c-0,0.07 0.01,0.13 0.04,0.18c0.03,0.05 0.06,0.1 0.11,0.13c0.04,0.03 0.1,0.06 0.15,0.08c0.05,0.02 0.11,0.02 0.17,0.02l0.03,0c0.12,0 0.23,-0.04 0.32,-0.11c0.02,0.03 0.04,0.05 0.07,0.07c0.03,0.02 0.07,0.03 0.12,0.04l0.02,0c0.04,0 0.06,0 0.08,-0.03c0.02,-0.02 0.03,-0.05 0.03,-0.08c-0,-0.02 -0,-0.05 -0.02,-0.07l0.02,0.03Zm-0.37,-0.29c0,0.07 -0.03,0.13 -0.07,0.18c-0.05,0.05 -0.11,0.07 -0.18,0.07l-0.03,0c-0.07,0 -0.13,-0.02 -0.18,-0.06c-0.05,-0.04 -0.07,-0.09 -0.07,-0.15l0,-0.03c0,0 0.02,-0.09 0.05,-0.12c0.03,-0.03 0.08,-0.05 0.13,-0.06c0.05,-0.02 0.11,-0.03 0.17,-0.04c0.06,0 0.12,-0.02 0.17,-0.03l-0,0.23l0.01,0.01Zm1.36,0.29c0,0 -0.04,-0.03 -0.08,-0.04c-0.04,0 -0.09,-0.02 -0.12,-0.05c-0.03,-0.03 -0.05,-0.07 -0.05,-0.12l-0,-0.82l0.16,0c-0,0 0.06,-0.01 0.08,-0.03c0.02,-0.02 0.03,-0.05 0.03,-0.08c-0,-0.03 -0,-0.05 -0.03,-0.08c-0.02,-0.02 -0.04,-0.04 -0.08,-0.04l-0.16,0l-0,-0.51c-0,0 -0,-0.06 -0.04,-0.08c-0.02,-0.02 -0.05,-0.03 -0.08,-0.03c-0.03,0 -0.05,0 -0.08,0.03c-0.02,0.02 -0.03,0.05 -0.03,0.08l-0,0.51l-0.1,0c-0,0 -0.07,0.01 -0.08,0.04c-0.02,0.02 -0.03,0.05 -0.03,0.08c-0,0.03 -0,0.05 0.03,0.08c0.02,0.02 0.04,0.03 0.08,0.03l0.1,0l-0,0.83c-0,0.05 -0,0.1 0.03,0.15c0.02,0.05 0.04,0.09 0.08,0.12c0.04,0.04 0.08,0.06 0.12,0.08c0.05,0.02 0.1,0.03 0.15,0.03c0.04,0 0.07,0 0.08,-0.03c0.02,-0.02 0.03,-0.05 0.03,-0.07c0,-0.03 0,-0.05 -0.03,-0.07l0.02,-0.01Zm0.72,-1.76c0,0 -0.01,-0.06 -0.04,-0.08c-0.02,-0.02 -0.05,-0.03 -0.07,-0.03c-0.03,0 -0.05,0 -0.08,0.03c-0.02,0.02 -0.04,0.05 -0.04,0.08l0,0.06c0,0 0.01,0.06 0.04,0.08c0.02,0.02 0.05,0.03 0.08,0.03c0.03,0 0.05,-0.01 0.07,-0.03c0.03,-0.02 0.04,-0.05 0.04,-0.08l0,-0.06Zm0,0.61c0,0 -0.01,-0.06 -0.04,-0.08c-0.02,-0.02 -0.05,-0.03 -0.07,-0.03c-0.03,0 -0.05,0 -0.08,0.03c-0.02,0.02 -0.04,0.04 -0.04,0.08l0,1.22c0,0 0.01,0.07 0.04,0.08c0.02,0.02 0.05,0.02 0.08,0.02c0.03,0 0.05,0 0.07,-0.02c0.03,-0.02 0.04,-0.04 0.04,-0.08l0,-1.22Zm1.5,0.36c0,-0.06 -0.01,-0.12 -0.04,-0.18c-0.03,-0.06 -0.06,-0.11 -0.1,-0.15c-0.04,-0.05 -0.09,-0.08 -0.15,-0.1c-0.06,-0.02 -0.12,-0.04 -0.18,-0.04l-0.03,0c-0.06,0 -0.12,0.01 -0.18,0.04c-0.06,0.03 -0.11,0.06 -0.15,0.1c-0.04,0.04 -0.08,0.09 -0.1,0.15c-0.02,0.06 -0.04,0.12 -0.04,0.18l0,0.5c0,0.07 0.01,0.13 0.04,0.19c0.02,0.06 0.06,0.11 0.1,0.15c0.04,0.04 0.09,0.08 0.15,0.1c0.06,0.02 0.12,0.04 0.18,0.04l0.03,0c0.06,0 0.12,-0.01 0.18,-0.04c0.06,-0.03 0.11,-0.06 0.15,-0.1c0.04,-0.04 0.08,-0.09 0.1,-0.15c0.02,-0.06 0.04,-0.12 0.04,-0.19l0,-0.5Zm-0.22,0.5c0,0.07 -0.02,0.13 -0.07,0.18c-0.05,0.05 -0.11,0.07 -0.18,0.07l-0.03,0c-0.07,0 -0.13,-0.03 -0.18,-0.07c-0.05,-0.05 -0.08,-0.11 -0.08,-0.18l-0,-0.5c-0,-0.07 0.03,-0.13 0.08,-0.17c0.05,-0.05 0.11,-0.08 0.17,-0.08l0.03,0c0.07,0 0.13,0.03 0.18,0.08c0.05,0.05 0.07,0.11 0.07,0.17l-0,0.5l0.01,0Zm1.7,-0.5c-0,-0.08 -0.01,-0.15 -0.04,-0.21c-0.03,-0.06 -0.06,-0.11 -0.1,-0.15c-0.04,-0.04 -0.09,-0.07 -0.15,-0.09c-0.05,-0.02 -0.12,-0.03 -0.18,-0.03l-0.02,0c-0.05,0 -0.1,0 -0.14,0.02c-0.04,0.02 -0.08,0.04 -0.11,0.07c-0,-0.03 -0.02,-0.05 -0.04,-0.07c-0.02,-0.02 -0.04,-0.02 -0.07,-0.02c-0.03,0 -0.05,0.01 -0.08,0.03c-0.03,0.02 -0.04,0.05 -0.04,0.08l-0,1.22c-0,0 -0,0.07 0.04,0.08c0.02,0.02 0.05,0.02 0.07,0.02c0.02,0 0.05,0 0.08,-0.02c0.02,-0.02 0.03,-0.04 0.03,-0.08l-0,-0.86c-0,-0.07 0.03,-0.13 0.08,-0.18c0.05,-0.05 0.11,-0.07 0.18,-0.07l0.03,0c0.07,0 0.13,0.03 0.18,0.08c0.05,0.05 0.07,0.11 0.07,0.17l0,0.86c0,0 0.01,0.07 0.04,0.08c0.02,0.02 0.05,0.02 0.08,0.02c0.03,0 0.05,0 0.08,-0.02c0.02,-0.02 0.03,-0.04 0.03,-0.08l0,-0.86l-0.02,0.01Zm1.58,0.79c0,0 -0.04,-0.04 -0.07,-0.04c-0.05,-0.01 -0.08,-0.04 -0.08,-0.1l0,-0.68c0,-0.06 -0.01,-0.12 -0.03,-0.17c-0.03,-0.05 -0.06,-0.1 -0.1,-0.15c-0.04,-0.04 -0.09,-0.07 -0.15,-0.1c-0.06,-0.02 -0.12,-0.04 -0.18,-0.04l-0.02,0c-0,0 -0.08,0 -0.12,0.01c-0.04,0 -0.08,0.02 -0.12,0.04c-0.04,0.02 -0.08,0.05 -0.11,0.08c-0.03,0.04 -0.06,0.08 -0.09,0.13l-0,0.05c-0,0.03 -0,0.05 0.03,0.08c0.02,0.02 0.05,0.03 0.08,0.03c0.02,0 0.04,0 0.06,-0.01c0.02,0 0.03,-0.02 0.04,-0.05c0.03,-0.05 0.06,-0.08 0.09,-0.11c0.04,-0.02 0.08,-0.04 0.14,-0.04l0.02,0c0.06,0 0.12,0.02 0.17,0.05c0.05,0.04 0.07,0.09 0.07,0.18l-0,0.05c-0.01,0.01 -0.04,0.03 -0.08,0.04c-0.04,0 -0.09,0.02 -0.14,0.03c-0.05,0 -0.11,0.02 -0.17,0.04c-0.06,0.01 -0.12,0.04 -0.17,0.07c-0.05,0.03 -0.09,0.07 -0.12,0.12c-0.03,0.05 -0.05,0.11 -0.05,0.19l-0,0.04c-0,0.07 0.01,0.13 0.04,0.18c0.03,0.05 0.06,0.1 0.11,0.13c0.04,0.03 0.09,0.06 0.15,0.08c0.06,0.02 0.12,0.02 0.17,0.02l0.03,0c0.12,0 0.23,-0.04 0.32,-0.11c0.02,0.03 0.04,0.05 0.08,0.07c0.03,0.02 0.07,0.03 0.12,0.04l0.02,0c0.04,0 0.06,0 0.08,-0.03c0.02,-0.02 0.03,-0.05 0.03,-0.08c-0,-0.02 -0,-0.05 -0.02,-0.07l-0.03,0.03Zm-0.37,-0.29c0,0.07 -0.02,0.13 -0.07,0.18c-0.05,0.05 -0.11,0.07 -0.18,0.07l-0.03,0c-0.07,0 -0.13,-0.02 -0.18,-0.06c-0.04,-0.04 -0.07,-0.09 -0.07,-0.15l0,-0.03c0,0 0.02,-0.09 0.05,-0.12c0.04,-0.03 0.08,-0.05 0.13,-0.06c0.05,-0.02 0.11,-0.03 0.17,-0.04c0.06,0 0.12,-0.02 0.17,-0.03l-0,0.23l0.01,0.01Zm1.31,0.28c0,0 -0.05,-0.03 -0.09,-0.03c-0.04,0 -0.08,-0.02 -0.12,-0.05c-0.03,-0.03 -0.04,-0.07 -0.04,-0.11l0,-1.56c0,0 -0.01,-0.06 -0.04,-0.08c-0.02,-0.02 -0.05,-0.03 -0.08,-0.03c-0.03,0 -0.05,0 -0.07,0.03c-0.02,0.02 -0.04,0.05 -0.04,0.08l0,1.56c0,0.05 0.01,0.1 0.03,0.15c0.02,0.05 0.05,0.09 0.08,0.12c0.04,0.04 0.08,0.06 0.12,0.08c0.05,0.02 0.1,0.03 0.15,0.03c0.04,0 0.07,0 0.09,-0.03c0.02,-0.02 0.03,-0.05 0.03,-0.07c0,-0.03 0,-0.05 -0.03,-0.08l0.01,-0.01Zm1.4,-0.78c0,-0.07 -0.01,-0.13 -0.04,-0.19c-0.03,-0.06 -0.06,-0.11 -0.1,-0.15c-0.04,-0.04 -0.09,-0.08 -0.15,-0.1c-0.06,-0.02 -0.12,-0.04 -0.18,-0.04l-0.03,0c-0.06,0 -0.13,0.01 -0.18,0.04c-0.06,0.03 -0.11,0.06 -0.15,0.1c-0.04,0.04 -0.08,0.09 -0.1,0.15c-0.03,0.06 -0.04,0.12 -0.04,0.18l0,0.5c0,0.07 0.01,0.13 0.04,0.19c0.02,0.06 0.06,0.11 0.1,0.15c0.04,0.04 0.09,0.08 0.15,0.1c0.06,0.02 0.12,0.04 0.18,0.04l0.03,0c0.1,0 0.19,-0.02 0.26,-0.08c0.08,-0.05 0.13,-0.12 0.17,-0.2c-0,-0.01 0.01,-0.03 0.01,-0.05c-0,-0.03 -0.01,-0.06 -0.04,-0.08c-0.02,-0.02 -0.05,-0.03 -0.08,-0.03c-0.02,0 -0.04,0 -0.05,0.01c-0.02,0.01 -0.03,0.03 -0.04,0.06c-0.02,0.04 -0.05,0.08 -0.09,0.11c-0.04,0.03 -0.08,0.04 -0.14,0.04l-0.03,0c-0.07,0 -0.13,-0.03 -0.18,-0.07c-0.05,-0.05 -0.07,-0.11 -0.07,-0.18l-0,-0.15l0.64,0c-0,0 0.06,-0.01 0.08,-0.03c0.02,-0.02 0.03,-0.05 0.03,-0.08l0,-0.24Zm-0.22,0.15l-0.53,0l0,-0.15c0,-0.07 0.02,-0.13 0.08,-0.18c0.05,-0.05 0.11,-0.07 0.18,-0.07l0.03,0c0.06,0 0.12,0.03 0.17,0.07c0.05,0.04 0.07,0.11 0.07,0.18l0,0.15Z" style="fill:#d71d24;fill-rule:nonzero;"/><path d="M22.44,30.83c-0,-0.08 -0.02,-0.15 -0.04,-0.22c-0.03,-0.07 -0.07,-0.12 -0.12,-0.17c-0.05,-0.05 -0.11,-0.09 -0.18,-0.12c-0.07,-0.03 -0.14,-0.04 -0.21,-0.04l-0.47,0c-0,0 -0.06,0.01 -0.08,0.03c-0.02,0.02 -0.03,0.05 -0.03,0.08l-0,1.8c-0,0 -0,0.06 0.03,0.08c0.02,0.02 0.05,0.03 0.08,0.03l0.47,0c0.08,0 0.15,-0.01 0.21,-0.04c0.07,-0.03 0.13,-0.07 0.18,-0.12c0.05,-0.05 0.09,-0.11 0.12,-0.18c0.03,-0.07 0.04,-0.14 0.04,-0.22l-0,-0.91Zm-0.22,0.91c-0,0 -0,0.09 -0.03,0.13c-0.02,0.04 -0.04,0.07 -0.07,0.11c-0.03,0.03 -0.06,0.05 -0.1,0.07c-0.04,0.02 -0.08,0.03 -0.13,0.03l-0.36,0l0,-1.58l0.37,0c0,0 0.09,0 0.13,0.03c0.04,0.02 0.07,0.04 0.1,0.07c0.03,0.03 0.05,0.06 0.07,0.11c0.02,0.05 0.03,0.08 0.03,0.13l-0,0.91l-0.01,-0.01Zm1.71,-0.4c0,-0.07 -0.01,-0.13 -0.04,-0.19c-0.03,-0.06 -0.06,-0.11 -0.1,-0.15c-0.04,-0.04 -0.09,-0.08 -0.15,-0.1c-0.05,-0.02 -0.12,-0.03 -0.18,-0.03l-0.03,0c-0.06,0 -0.12,0.01 -0.18,0.04c-0.06,0.02 -0.11,0.06 -0.15,0.1c-0.04,0.04 -0.08,0.09 -0.1,0.15c-0.03,0.06 -0.04,0.12 -0.04,0.18l0,0.5c0,0.06 0.01,0.13 0.04,0.19c0.02,0.06 0.06,0.1 0.1,0.15c0.04,0.04 0.09,0.08 0.15,0.1c0.06,0.03 0.12,0.04 0.18,0.04l0.03,0c0.1,0 0.19,-0.03 0.26,-0.08c0.07,-0.05 0.13,-0.12 0.16,-0.2c-0,-0.01 0.01,-0.03 0.01,-0.05c-0,-0.04 -0.01,-0.06 -0.04,-0.08c-0.02,-0.02 -0.05,-0.03 -0.08,-0.03c-0.02,0 -0.04,0 -0.06,0.02c-0.02,0.01 -0.03,0.03 -0.04,0.05c-0.02,0.04 -0.05,0.08 -0.09,0.11c-0.04,0.03 -0.09,0.04 -0.14,0.04l-0.03,0c-0.07,0 -0.13,-0.02 -0.18,-0.07c-0.05,-0.05 -0.07,-0.11 -0.07,-0.17l-0,-0.15l0.64,0c-0,0 0.06,-0.01 0.08,-0.03c0.02,-0.02 0.03,-0.05 0.03,-0.08l-0,-0.24l0.02,-0.02Zm-0.22,0.15l-0.53,0l-0,-0.15c-0,-0.07 0.02,-0.13 0.07,-0.18c0.05,-0.05 0.11,-0.07 0.18,-0.07l0.03,0c0.06,0 0.12,0.03 0.17,0.07c0.05,0.05 0.08,0.11 0.08,0.18l-0,0.15Zm1.66,-0.51c-0,0 -0.01,-0.06 -0.04,-0.08c-0.02,-0.02 -0.05,-0.03 -0.08,-0.03c-0.03,0 -0.05,0 -0.08,0.03c-0.02,0.02 -0.04,0.05 -0.04,0.08l-0,0.86c-0,0.07 -0.02,0.12 -0.07,0.17c-0.05,0.05 -0.11,0.07 -0.18,0.07l-0.03,0c-0.07,0 -0.13,-0.02 -0.18,-0.07c-0.05,-0.05 -0.07,-0.11 -0.07,-0.17l-0,-0.86c-0,0 -0.01,-0.06 -0.04,-0.08c-0.02,-0.02 -0.05,-0.03 -0.08,-0.03c-0.03,0 -0.05,0 -0.07,0.03c-0.03,0.02 -0.04,0.05 -0.04,0.08l-0,0.87c-0,0.08 0.01,0.15 0.04,0.21c0.03,0.06 0.06,0.11 0.1,0.14c0.04,0.04 0.09,0.07 0.15,0.08c0.06,0.02 0.12,0.03 0.18,0.03l0.03,0c-0,0 0.1,0 0.14,-0.02c0.05,-0.02 0.08,-0.04 0.11,-0.06c-0,0.03 0.02,0.05 0.04,0.07c0.02,0.01 0.04,0.02 0.07,0.02c0.03,0 0.05,-0.01 0.08,-0.03c0.02,-0.02 0.04,-0.05 0.04,-0.08l-0,-1.22l0.02,-0.01Zm1.14,1.15c-0,0 -0.04,-0.03 -0.08,-0.04c-0.05,0 -0.09,-0.02 -0.12,-0.05c-0.04,-0.03 -0.05,-0.07 -0.05,-0.12l-0,-0.82l0.16,0c-0,0 0.07,-0.01 0.08,-0.03c0.02,-0.03 0.03,-0.05 0.03,-0.08c-0,-0.03 -0,-0.05 -0.03,-0.08c-0.02,-0.02 -0.05,-0.03 -0.08,-0.03l-0.16,0l-0,-0.51c-0,0 -0.01,-0.07 -0.04,-0.08c-0.02,-0.02 -0.05,-0.03 -0.07,-0.03c-0.03,0 -0.05,0 -0.08,0.03c-0.02,0.02 -0.04,0.05 -0.04,0.08l-0,0.51l-0.1,0c-0,0 -0.06,0.01 -0.08,0.03c-0.02,0.03 -0.03,0.05 -0.03,0.08c-0,0.03 -0,0.05 0.03,0.08c0.02,0.02 0.05,0.03 0.08,0.03l0.1,0l-0,0.83c-0,0.05 0.01,0.1 0.03,0.15c0.02,0.05 0.05,0.09 0.09,0.12c0.04,0.04 0.07,0.06 0.12,0.08c0.04,0.02 0.1,0.03 0.15,0.03c0.04,0 0.07,-0.01 0.09,-0.04c0.02,-0.02 0.03,-0.05 0.03,-0.08c-0,-0.03 -0,-0.05 -0.02,-0.07l-0.01,0.01Zm1.44,-0.24c-0,-0.09 -0.02,-0.17 -0.06,-0.23c-0.04,-0.05 -0.09,-0.1 -0.14,-0.13c-0.05,-0.03 -0.12,-0.05 -0.18,-0.07c-0.07,-0.01 -0.13,-0.03 -0.18,-0.04c-0.06,-0.02 -0.1,-0.04 -0.14,-0.06c-0.04,-0.02 -0.06,-0.06 -0.06,-0.11c-0,-0.05 0.03,-0.09 0.07,-0.12c0.04,-0.03 0.11,-0.05 0.19,-0.05l0.01,0c0.06,0 0.12,0 0.16,0.03c0.04,0.02 0.07,0.04 0.1,0.05c0.03,0.01 0.05,0.02 0.07,0.02c0.03,0 0.06,-0.01 0.08,-0.03c0.02,-0.02 0.03,-0.05 0.03,-0.07c-0,-0.04 -0.01,-0.06 -0.04,-0.09c-0.01,0 -0.03,-0.02 -0.05,-0.04c-0.02,-0.01 -0.05,-0.03 -0.08,-0.04c-0.03,-0.01 -0.07,-0.02 -0.11,-0.03c-0.04,-0.01 -0.09,-0.01 -0.14,-0.01l-0.01,0c-0,0 -0.1,0 -0.15,0.02c-0.05,0.01 -0.11,0.03 -0.16,0.06c-0.05,0.03 -0.09,0.07 -0.12,0.12c-0.03,0.05 -0.05,0.11 -0.05,0.17c-0,0.09 0.02,0.16 0.05,0.21c0.04,0.05 0.09,0.09 0.14,0.12c0.06,0.03 0.12,0.05 0.18,0.06c0.06,0.01 0.13,0.03 0.18,0.05c0.06,0.02 0.1,0.04 0.14,0.07c0.04,0.03 0.05,0.08 0.05,0.14c-0,0.06 -0.02,0.1 -0.07,0.15c-0.05,0.04 -0.12,0.06 -0.21,0.06l-0.01,0c-0.05,0 -0.11,-0.02 -0.17,-0.06c-0.06,-0.04 -0.1,-0.08 -0.14,-0.13c-0.01,-0.02 -0.03,-0.03 -0.05,-0.04l-0.05,0c-0.03,0 -0.05,0 -0.08,0.03c-0.02,0.02 -0.03,0.05 -0.03,0.08c-0,0 -0,0.03 0.01,0.06c0.02,0.04 0.05,0.09 0.09,0.12c0.04,0.04 0.08,0.07 0.12,0.09c0.04,0.02 0.09,0.04 0.14,0.06c0.05,0.01 0.1,0.02 0.14,0.02l0.02,0c0.06,0 0.12,0 0.18,-0.03c0.06,-0.02 0.12,-0.05 0.16,-0.08c0.05,-0.04 0.09,-0.08 0.12,-0.13c0.03,-0.05 0.04,-0.11 0.04,-0.18l0.01,-0.02Zm1.39,-0.14c-0,0 -0.05,-0.03 -0.08,-0.03c-0.03,0 -0.05,0 -0.07,0.03c-0.02,0.02 -0.04,0.05 -0.04,0.09c-0,0.07 -0.03,0.12 -0.08,0.17c-0.05,0.05 -0.1,0.07 -0.17,0.07l-0.03,0c-0.07,0 -0.13,-0.02 -0.18,-0.07c-0.05,-0.05 -0.07,-0.11 -0.07,-0.17l-0,-0.5c-0,-0.07 0.02,-0.12 0.07,-0.17c0.05,-0.05 0.11,-0.07 0.18,-0.07l0.03,0c0.07,0 0.12,0.02 0.17,0.07c0.05,0.05 0.07,0.11 0.08,0.18c-0,0.04 0.01,0.07 0.04,0.08c0.02,0.02 0.05,0.03 0.07,0.03c0.03,0 0.05,-0.01 0.08,-0.03c0.02,-0.02 0.04,-0.05 0.04,-0.08c-0,-0.07 -0.01,-0.13 -0.04,-0.18c-0.03,-0.05 -0.06,-0.11 -0.1,-0.15c-0.04,-0.04 -0.09,-0.08 -0.15,-0.1c-0.06,-0.02 -0.12,-0.04 -0.18,-0.04l-0.03,0c-0.06,0 -0.13,0.01 -0.18,0.04c-0.06,0.02 -0.11,0.06 -0.15,0.1c-0.04,0.04 -0.07,0.09 -0.1,0.15c-0.03,0.06 -0.04,0.12 -0.04,0.19l-0,0.5c-0,0.06 0.01,0.13 0.04,0.19c0.02,0.06 0.06,0.1 0.1,0.15c0.04,0.04 0.09,0.08 0.15,0.1c0.06,0.03 0.12,0.04 0.18,0.04l0.03,0c0.06,0 0.12,-0.01 0.18,-0.04c0.06,-0.02 0.11,-0.06 0.15,-0.1c0.04,-0.04 0.08,-0.09 0.1,-0.15c0.03,-0.06 0.04,-0.12 0.04,-0.18c-0,-0.04 -0.01,-0.07 -0.04,-0.09l-0,-0.03Zm1.51,-0.41c-0,-0.07 -0.01,-0.13 -0.04,-0.18c-0.02,-0.06 -0.06,-0.11 -0.1,-0.15c-0.04,-0.04 -0.09,-0.08 -0.15,-0.1c-0.06,-0.02 -0.12,-0.04 -0.18,-0.04l-0.02,0c-0.05,0 -0.1,0 -0.15,0.02c-0.05,0.01 -0.08,0.04 -0.11,0.06l-0,-0.59c-0,0 -0.01,-0.07 -0.04,-0.08c-0.02,-0.02 -0.05,-0.03 -0.08,-0.03c-0.03,0 -0.05,0 -0.08,0.03c-0.02,0.02 -0.04,0.05 -0.04,0.08l-0,1.84c-0,0 0.01,0.07 0.04,0.08c0.02,0.02 0.05,0.03 0.08,0.03c0.03,0 0.05,0 0.08,-0.03c0.02,-0.02 0.04,-0.05 0.04,-0.08l-0,-0.88c-0,0 -0,-0.07 0.02,-0.1c0.02,-0.03 0.04,-0.05 0.06,-0.08c0.02,-0.02 0.05,-0.04 0.08,-0.04c0.03,0 0.06,-0.02 0.1,-0.02c0.04,0 0.06,0 0.1,0.02c0.03,0 0.06,0.03 0.09,0.04c0.03,0.02 0.04,0.05 0.06,0.08c0.01,0.03 0.02,0.07 0.02,0.11l-0,0.86c-0,0 0.01,0.07 0.04,0.08c0.02,0.02 0.05,0.03 0.08,0.03c0.03,0 0.05,0 0.07,-0.03c0.02,-0.02 0.04,-0.05 0.04,-0.08l-0,-0.86l-0.01,0.01Zm1.45,0c-0,-0.07 -0.01,-0.13 -0.04,-0.19c-0.03,-0.06 -0.06,-0.11 -0.1,-0.15c-0.04,-0.04 -0.09,-0.08 -0.15,-0.1c-0.06,-0.02 -0.12,-0.03 -0.18,-0.03l-0.03,0c-0.06,0 -0.12,0.01 -0.18,0.04c-0.06,0.02 -0.11,0.06 -0.15,0.1c-0.04,0.04 -0.08,0.09 -0.1,0.15c-0.03,0.06 -0.04,0.12 -0.04,0.18l-0,0.5c-0,0.06 0.01,0.13 0.04,0.19c0.02,0.06 0.06,0.1 0.1,0.15c0.04,0.04 0.1,0.08 0.15,0.1c0.06,0.03 0.12,0.04 0.18,0.04l0.03,0c0.1,0 0.19,-0.03 0.26,-0.08c0.08,-0.05 0.13,-0.12 0.16,-0.2c-0,-0.01 0.01,-0.03 0.01,-0.05c-0,-0.04 -0.01,-0.06 -0.03,-0.08c-0.02,-0.02 -0.05,-0.03 -0.08,-0.03c-0.02,0 -0.04,0 -0.05,0.02c-0.02,0.01 -0.03,0.03 -0.04,0.05c-0.02,0.04 -0.05,0.08 -0.09,0.11c-0.04,0.03 -0.08,0.04 -0.14,0.04l-0.03,0c-0.07,0 -0.13,-0.02 -0.18,-0.07c-0.05,-0.05 -0.07,-0.11 -0.07,-0.17l-0,-0.15l0.64,0c-0,0 0.06,-0.01 0.08,-0.03c0.02,-0.02 0.03,-0.05 0.03,-0.08l-0,-0.26Zm-0.22,0.15l-0.53,0l-0,-0.15c-0,-0.07 0.03,-0.13 0.07,-0.18c0.05,-0.05 0.11,-0.07 0.18,-0.07l0.03,0c0.06,0 0.12,0.03 0.17,0.07c0.05,0.05 0.07,0.11 0.07,0.18l-0,0.15l0.01,0Zm2.81,-0.19c-0,0 -0,-0.05 -0.03,-0.08c-0.02,-0.02 -0.05,-0.04 -0.08,-0.04l-0.42,0c-0,0 -0.06,0.01 -0.08,0.04c-0.02,0.02 -0.03,0.05 -0.03,0.08c-0,0.03 -0,0.05 0.03,0.08c0.02,0.03 0.04,0.04 0.08,0.04l0.31,0l-0,0.34c-0,0 -0,0.09 -0.03,0.13c-0.02,0.04 -0.04,0.08 -0.07,0.11c-0.03,0.03 -0.07,0.05 -0.1,0.07c-0.04,0.02 -0.09,0.03 -0.13,0.03l-0.03,0c-0,0 -0.09,0 -0.13,-0.03c-0.04,-0.02 -0.08,-0.04 -0.11,-0.07c-0.03,-0.03 -0.05,-0.07 -0.07,-0.11c-0.02,-0.04 -0.03,-0.08 -0.03,-0.13l-0,-0.95c-0,0 -0,-0.09 0.03,-0.13c0.03,-0.04 0.04,-0.07 0.07,-0.11c0.03,-0.03 0.07,-0.05 0.11,-0.07c0.04,-0.02 0.08,-0.03 0.13,-0.03l0.03,0c0.1,0 0.17,0.03 0.23,0.08c0.05,0.05 0.09,0.12 0.11,0.21c-0,0.03 0.02,0.06 0.04,0.07c0.02,0.02 0.04,0.02 0.07,0.02c0.03,0 0.05,0 0.08,-0.03c0.02,-0.02 0.03,-0.04 0.03,-0.08l-0,-0.02c-0,-0.07 -0.03,-0.13 -0.06,-0.19c-0.03,-0.06 -0.07,-0.11 -0.12,-0.15c-0.05,-0.04 -0.11,-0.08 -0.17,-0.1c-0.06,-0.03 -0.13,-0.04 -0.2,-0.04l-0.03,0c-0.08,0 -0.15,0.01 -0.22,0.04c-0.07,0.03 -0.13,0.07 -0.18,0.12c-0.05,0.05 -0.09,0.11 -0.12,0.17c-0.03,0.07 -0.04,0.14 -0.04,0.22l-0,0.95c-0,0.08 0.01,0.15 0.04,0.22c0.03,0.07 0.07,0.13 0.12,0.18c0.05,0.05 0.11,0.09 0.18,0.12c0.07,0.03 0.14,0.04 0.22,0.04l0.03,0c0.08,0 0.15,-0.01 0.22,-0.04c0.07,-0.03 0.12,-0.07 0.18,-0.12c0.05,-0.05 0.09,-0.11 0.12,-0.18c0.03,-0.07 0.04,-0.14 0.04,-0.22l-0,-0.45l-0.02,0.01Zm1.49,0.04c-0,-0.07 -0.01,-0.13 -0.04,-0.19c-0.02,-0.06 -0.05,-0.11 -0.1,-0.15c-0.04,-0.04 -0.09,-0.08 -0.15,-0.1c-0.06,-0.02 -0.12,-0.03 -0.18,-0.03l-0.03,0c-0.07,0 -0.13,0.01 -0.18,0.04c-0.06,0.02 -0.11,0.06 -0.15,0.1c-0.04,0.04 -0.08,0.09 -0.1,0.15c-0.03,0.06 -0.04,0.12 -0.04,0.18l-0,0.5c-0,0.06 0.01,0.13 0.04,0.19c0.02,0.06 0.06,0.1 0.1,0.15c0.04,0.04 0.09,0.08 0.15,0.1c0.06,0.03 0.12,0.04 0.18,0.04l0.03,0c0.1,0 0.19,-0.03 0.26,-0.08c0.08,-0.05 0.13,-0.12 0.17,-0.2c-0,-0.01 0.01,-0.03 0.01,-0.05c-0,-0.04 -0.01,-0.06 -0.04,-0.08c-0.02,-0.02 -0.05,-0.03 -0.08,-0.03c-0.02,0 -0.04,0 -0.05,0.02c-0.02,0.01 -0.03,0.03 -0.04,0.05c-0.02,0.04 -0.05,0.08 -0.09,0.11c-0.04,0.03 -0.09,0.04 -0.14,0.04l-0.03,0c-0.07,0 -0.13,-0.02 -0.18,-0.07c-0.05,-0.05 -0.07,-0.11 -0.07,-0.17l-0,-0.15l0.64,0c-0,0 0.06,-0.01 0.08,-0.03c0.02,-0.02 0.03,-0.05 0.03,-0.08l-0,-0.26Zm-0.22,0.15l-0.53,0l-0,-0.15c-0,-0.07 0.02,-0.13 0.08,-0.18c0.05,-0.05 0.11,-0.07 0.18,-0.07l0.03,0c0.06,0 0.12,0.03 0.17,0.07c0.05,0.05 0.07,0.11 0.07,0.18l-0,0.15Zm1.69,0.4c-0,-0.09 -0.02,-0.17 -0.06,-0.23c-0.04,-0.05 -0.08,-0.1 -0.14,-0.13c-0.06,-0.03 -0.12,-0.05 -0.18,-0.07c-0.06,-0.01 -0.13,-0.03 -0.18,-0.04c-0.06,-0.02 -0.1,-0.04 -0.14,-0.06c-0.04,-0.02 -0.06,-0.06 -0.06,-0.11c-0,-0.05 0.02,-0.09 0.06,-0.12c0.04,-0.03 0.11,-0.05 0.19,-0.05l0.01,0c0.07,0 0.12,0 0.15,0.03c0.04,0.02 0.07,0.04 0.1,0.05c0.02,0.01 0.04,0.02 0.06,0.02c0.03,0 0.06,-0.01 0.08,-0.03c0.02,-0.02 0.03,-0.05 0.03,-0.07c-0,-0.04 -0.01,-0.06 -0.04,-0.09c-0.01,0 -0.03,-0.02 -0.05,-0.04c-0.02,-0.01 -0.05,-0.03 -0.08,-0.04c-0.03,-0.01 -0.07,-0.02 -0.11,-0.03c-0.04,-0.01 -0.09,-0.01 -0.14,-0.01l-0.01,0c-0,0 -0.1,0 -0.15,0.02c-0.06,0.01 -0.11,0.03 -0.16,0.06c-0.05,0.03 -0.09,0.07 -0.12,0.12c-0.03,0.05 -0.05,0.11 -0.05,0.17c-0,0.09 0.02,0.16 0.06,0.21c0.04,0.05 0.08,0.09 0.14,0.12c0.05,0.03 0.12,0.05 0.18,0.06c0.06,0.01 0.13,0.03 0.18,0.05c0.06,0.02 0.1,0.04 0.14,0.07c0.04,0.03 0.06,0.08 0.06,0.14c-0,0.06 -0.03,0.1 -0.07,0.15c-0.05,0.04 -0.12,0.06 -0.21,0.06l-0.01,0c-0.05,0 -0.11,-0.02 -0.17,-0.06c-0.05,-0.04 -0.1,-0.08 -0.14,-0.13c-0.01,-0.02 -0.03,-0.03 -0.05,-0.04l-0.05,0c-0.03,0 -0.05,0 -0.08,0.03c-0.03,0.02 -0.04,0.05 -0.04,0.08c-0,0 -0,0.03 0.01,0.06c0.03,0.04 0.05,0.09 0.09,0.12c0.04,0.04 0.08,0.07 0.12,0.09c0.04,0.02 0.09,0.04 0.14,0.06c0.05,0.01 0.1,0.02 0.14,0.02l0.02,0c0.06,0 0.12,0 0.18,-0.03c0.06,-0.02 0.12,-0.05 0.16,-0.08c0.05,-0.04 0.09,-0.08 0.12,-0.13c0.03,-0.05 0.04,-0.11 0.04,-0.18l0.03,-0.02Zm1.42,-0.55c-0,-0.07 -0,-0.13 -0.04,-0.19c-0.03,-0.06 -0.06,-0.11 -0.1,-0.15c-0.04,-0.04 -0.09,-0.08 -0.15,-0.1c-0.06,-0.02 -0.12,-0.03 -0.18,-0.03l-0.03,0c-0.06,0 -0.12,0.01 -0.18,0.04c-0.06,0.02 -0.11,0.06 -0.15,0.1c-0.04,0.04 -0.08,0.09 -0.1,0.15c-0.02,0.06 -0.04,0.12 -0.04,0.18l-0,0.5c-0,0.06 0.01,0.13 0.04,0.19c0.03,0.06 0.06,0.1 0.1,0.15c0.04,0.04 0.1,0.08 0.15,0.1c0.06,0.03 0.12,0.04 0.18,0.04l0.03,0c0.1,0 0.19,-0.03 0.26,-0.08c0.08,-0.05 0.13,-0.12 0.17,-0.2c-0,-0.01 0.01,-0.03 0.01,-0.05c-0,-0.04 -0.01,-0.06 -0.04,-0.08c-0.02,-0.02 -0.05,-0.03 -0.08,-0.03c-0.02,0 -0.04,0 -0.06,0.02c-0.02,0.01 -0.03,0.03 -0.04,0.05c-0.02,0.04 -0.05,0.08 -0.09,0.11c-0.04,0.03 -0.09,0.04 -0.14,0.04l-0.03,0c-0.07,0 -0.13,-0.02 -0.17,-0.07c-0.05,-0.05 -0.08,-0.11 -0.08,-0.17l-0,-0.15l0.64,0c-0,0 0.06,-0.01 0.08,-0.03c0.02,-0.02 0.03,-0.05 0.03,-0.08l-0,-0.24l0.01,-0.02Zm-0.22,0.15l-0.53,0l-0,-0.15c-0,-0.07 0.03,-0.13 0.08,-0.18c0.05,-0.05 0.11,-0.07 0.18,-0.07l0.03,0c0.07,0 0.12,0.03 0.17,0.07c0.05,0.05 0.07,0.11 0.07,0.18l-0,0.15Zm1.19,0.63c-0,0 -0.04,-0.03 -0.08,-0.03c-0.05,0 -0.09,-0.02 -0.12,-0.05c-0.03,-0.03 -0.04,-0.07 -0.04,-0.12l-0,-1.56c-0,0 -0.01,-0.07 -0.04,-0.08c-0.02,-0.02 -0.05,-0.03 -0.08,-0.03c-0.03,0 -0.05,0 -0.08,0.03c-0.02,0.02 -0.04,0.05 -0.04,0.08l-0,1.56c-0,0.05 -0,0.1 0.03,0.15c0.02,0.05 0.05,0.09 0.08,0.12c0.04,0.04 0.08,0.06 0.12,0.08c0.05,0.02 0.1,0.03 0.15,0.03c0.04,0 0.07,-0.01 0.08,-0.04c0.02,-0.02 0.03,-0.05 0.03,-0.08c-0,-0.03 -0,-0.05 -0.03,-0.08l0.02,0.02Zm0.92,0c-0,0 -0.05,-0.03 -0.08,-0.03c-0.04,0 -0.08,-0.02 -0.12,-0.05c-0.03,-0.03 -0.04,-0.07 -0.04,-0.12l-0,-1.56c-0,0 -0.01,-0.07 -0.04,-0.08c-0.02,-0.02 -0.05,-0.03 -0.08,-0.03c-0.03,0 -0.05,0 -0.07,0.03c-0.02,0.02 -0.04,0.05 -0.04,0.08l-0,1.56c-0,0.05 0.01,0.1 0.03,0.15c0.02,0.05 0.05,0.09 0.08,0.12c0.04,0.04 0.08,0.06 0.12,0.08c0.05,0.02 0.1,0.03 0.15,0.03c0.04,0 0.07,-0.01 0.08,-0.04c0.02,-0.02 0.03,-0.05 0.03,-0.08c-0,-0.03 -0,-0.05 -0.03,-0.08l0.01,0.02Zm1.45,-0.23c-0,-0.09 -0.02,-0.17 -0.06,-0.23c-0.04,-0.05 -0.08,-0.1 -0.14,-0.13c-0.05,-0.03 -0.12,-0.05 -0.18,-0.07c-0.07,-0.01 -0.13,-0.03 -0.18,-0.04c-0.06,-0.02 -0.1,-0.04 -0.14,-0.06c-0.04,-0.02 -0.05,-0.06 -0.05,-0.11c-0,-0.05 0.02,-0.09 0.07,-0.12c0.04,-0.03 0.11,-0.05 0.19,-0.05l0.01,0c0.07,0 0.12,0 0.16,0.03c0.04,0.02 0.07,0.04 0.1,0.05c0.02,0.01 0.04,0.02 0.06,0.02c0.03,0 0.06,-0.01 0.08,-0.03c0.02,-0.02 0.03,-0.05 0.03,-0.07c-0,-0.04 -0.01,-0.06 -0.04,-0.09c-0.01,0 -0.03,-0.02 -0.05,-0.04c-0.02,-0.01 -0.05,-0.03 -0.08,-0.04c-0.03,-0.01 -0.07,-0.02 -0.11,-0.03c-0.04,-0.01 -0.09,-0.01 -0.14,-0.01c-0.05,0 -0.1,0 -0.15,0.02c-0.06,0.01 -0.11,0.03 -0.16,0.06c-0.05,0.03 -0.09,0.07 -0.12,0.12c-0.03,0.05 -0.05,0.11 -0.05,0.17c-0,0.09 0.02,0.16 0.06,0.21c0.04,0.05 0.09,0.09 0.14,0.12c0.05,0.03 0.12,0.05 0.18,0.06c0.07,0.01 0.13,0.03 0.19,0.05c0.05,0.02 0.1,0.04 0.14,0.07c0.04,0.03 0.06,0.08 0.06,0.14c-0,0.06 -0.03,0.1 -0.07,0.15c-0.05,0.04 -0.12,0.06 -0.21,0.06l-0.01,0c-0.06,0 -0.11,-0.02 -0.17,-0.06c-0.06,-0.04 -0.1,-0.08 -0.14,-0.13c-0.01,-0.02 -0.03,-0.03 -0.04,-0.04l-0.05,0c-0.03,0 -0.05,0 -0.08,0.03c-0.02,0.02 -0.04,0.05 -0.04,0.08c-0,0 -0,0.03 0.02,0.06c0.02,0.04 0.05,0.09 0.09,0.12c0.04,0.04 0.08,0.07 0.12,0.09c0.04,0.02 0.09,0.04 0.14,0.06c0.05,0.01 0.1,0.02 0.14,0.02l0.02,0c0.06,0 0.12,0 0.18,-0.03c0.06,-0.02 0.11,-0.05 0.16,-0.08c0.05,-0.04 0.09,-0.08 0.12,-0.13c0.03,-0.05 0.04,-0.11 0.04,-0.18l-0.04,-0.02Zm1.39,-0.14c-0,0 -0.05,-0.03 -0.08,-0.03c-0.03,0 -0.05,0 -0.07,0.03c-0.02,0.02 -0.04,0.05 -0.04,0.09c-0,0.07 -0.03,0.12 -0.08,0.17c-0.05,0.05 -0.11,0.07 -0.17,0.07l-0.03,0c-0.07,0 -0.13,-0.02 -0.18,-0.07c-0.05,-0.05 -0.07,-0.11 -0.07,-0.17l-0,-0.5c-0,-0.07 0.02,-0.12 0.07,-0.17c0.05,-0.05 0.11,-0.07 0.18,-0.07l0.03,0c0.07,0 0.12,0.02 0.17,0.07c0.05,0.05 0.07,0.11 0.08,0.18c-0,0.04 0.01,0.07 0.04,0.08c0.02,0.02 0.05,0.03 0.07,0.03c0.03,0 0.05,-0.01 0.08,-0.03c0.02,-0.02 0.04,-0.05 0.04,-0.08c-0,-0.07 -0.01,-0.13 -0.04,-0.18c-0.02,-0.06 -0.06,-0.11 -0.1,-0.15c-0.04,-0.04 -0.09,-0.08 -0.15,-0.1c-0.06,-0.02 -0.12,-0.04 -0.18,-0.04l-0.03,0c-0.07,0 -0.13,0.01 -0.19,0.04c-0.06,0.02 -0.11,0.06 -0.15,0.1c-0.04,0.04 -0.08,0.09 -0.1,0.15c-0.03,0.06 -0.04,0.12 -0.04,0.19l-0,0.5c-0,0.06 0.01,0.13 0.04,0.19c0.02,0.06 0.06,0.1 0.1,0.15c0.04,0.04 0.09,0.08 0.15,0.1c0.06,0.03 0.12,0.04 0.19,0.04l0.03,0c0.06,0 0.12,-0.01 0.18,-0.04c0.06,-0.02 0.11,-0.06 0.15,-0.1c0.04,-0.04 0.08,-0.09 0.1,-0.15c0.02,-0.06 0.04,-0.12 0.04,-0.18c-0,-0.04 -0.01,-0.07 -0.04,-0.09l-0,-0.03Zm1.48,-0.41c-0,-0.07 -0.01,-0.13 -0.04,-0.18c-0.02,-0.06 -0.06,-0.11 -0.1,-0.15c-0.04,-0.04 -0.09,-0.08 -0.15,-0.1c-0.06,-0.02 -0.12,-0.04 -0.19,-0.04l-0.02,0c-0,0 -0.1,0 -0.15,0.02c-0.05,0.01 -0.08,0.04 -0.11,0.06l-0,-0.59c-0,0 -0.01,-0.07 -0.03,-0.08c-0.03,-0.02 -0.05,-0.03 -0.08,-0.03c-0.03,0 -0.05,0 -0.08,0.03c-0.02,0.02 -0.04,0.05 -0.04,0.08l-0,1.84c-0,0 0.01,0.07 0.04,0.08c0.02,0.02 0.05,0.03 0.08,0.03c0.03,0 0.05,0 0.08,-0.03c0.02,-0.02 0.03,-0.05 0.03,-0.08l-0,-0.88c-0,0 -0,-0.07 0.02,-0.1c0.02,-0.03 0.04,-0.05 0.06,-0.08c0.02,-0.02 0.05,-0.04 0.08,-0.04c0.03,0 0.06,-0.02 0.1,-0.02c0.03,0 0.06,0 0.09,0.02c0.03,0 0.06,0.03 0.09,0.04c0.02,0.02 0.04,0.05 0.06,0.08c0.01,0.03 0.02,0.07 0.02,0.11l-0,0.86c-0,0 -0,0.07 0.04,0.08c0.02,0.02 0.04,0.03 0.07,0.03c0.03,0 0.05,0 0.07,-0.03c0.03,-0.02 0.04,-0.05 0.04,-0.08l-0,-0.86l0.02,0.01Zm1.57,0.79c-0,0 -0.04,-0.03 -0.07,-0.04c-0.05,0 -0.07,-0.04 -0.07,-0.1l-0,-0.68c-0,-0.06 -0.01,-0.12 -0.04,-0.18c-0.02,-0.05 -0.06,-0.1 -0.1,-0.14c-0.04,-0.04 -0.09,-0.07 -0.15,-0.1c-0.06,-0.02 -0.12,-0.03 -0.18,-0.03l-0.02,0c-0,0 -0.08,0 -0.12,0.01c-0.04,0 -0.08,0.02 -0.12,0.04c-0.04,0.02 -0.07,0.05 -0.11,0.08c-0.03,0.04 -0.06,0.08 -0.09,0.13c-0,0.01 -0.01,0.03 -0.01,0.05c-0,0.03 0.01,0.06 0.04,0.08c0.02,0.02 0.05,0.03 0.08,0.03c0.02,0 0.04,0 0.05,-0.01c0.02,0 0.03,-0.02 0.04,-0.04c0.03,-0.05 0.06,-0.09 0.09,-0.11c0.03,-0.02 0.08,-0.04 0.14,-0.04l0.02,0c0.06,0 0.12,0.02 0.17,0.05c0.05,0.04 0.07,0.1 0.07,0.19l-0,0.04c-0,0.02 -0.04,0.03 -0.08,0.04c-0.04,0 -0.09,0.02 -0.14,0.03c-0.05,0.01 -0.11,0.02 -0.17,0.04c-0.06,0.02 -0.12,0.04 -0.17,0.07c-0.05,0.03 -0.09,0.07 -0.13,0.12c-0.03,0.05 -0.05,0.11 -0.05,0.19l-0,0.04c-0,0.07 0.01,0.13 0.04,0.18c0.03,0.05 0.06,0.1 0.11,0.13c0.04,0.04 0.09,0.06 0.15,0.08c0.06,0.02 0.12,0.03 0.17,0.03l0.03,0c0.12,0 0.23,-0.04 0.32,-0.11c0.02,0.03 0.04,0.05 0.08,0.07c0.03,0.02 0.07,0.03 0.12,0.04l0.02,0c0.04,0 0.06,-0.01 0.08,-0.04c0.02,-0.02 0.03,-0.05 0.03,-0.08c-0,-0.02 -0,-0.05 -0.02,-0.07l-0.01,0.01Zm-0.37,-0.29c-0,0.07 -0.02,0.13 -0.07,0.18c-0.05,0.05 -0.11,0.07 -0.18,0.07l-0.03,0c-0.07,0 -0.13,-0.02 -0.18,-0.06c-0.05,-0.04 -0.07,-0.08 -0.07,-0.15l-0,-0.02c-0,-0.05 0.02,-0.09 0.05,-0.11c0.03,-0.03 0.08,-0.05 0.13,-0.07c0.05,-0.02 0.11,-0.03 0.17,-0.04c0.06,0 0.12,-0.02 0.17,-0.03l-0,0.23l0.01,0Zm1.35,-1.55c-0,0 -0.04,-0.03 -0.08,-0.03c-0.05,0 -0.1,0 -0.15,0.03c-0.04,0.02 -0.09,0.04 -0.12,0.08c-0.04,0.04 -0.06,0.08 -0.08,0.12c-0.02,0.05 -0.03,0.1 -0.03,0.15l-0,0.23l-0.06,0c-0,0 -0.07,0.01 -0.08,0.03c-0.02,0.03 -0.03,0.05 -0.03,0.08c-0,0.03 -0,0.05 0.03,0.08c0.02,0.02 0.04,0.03 0.08,0.03l0.06,0l-0,1.11c-0,0 0.01,0.07 0.04,0.08c0.02,0.02 0.05,0.03 0.08,0.03c0.03,0 0.05,0 0.08,-0.03c0.02,-0.02 0.04,-0.05 0.04,-0.08l-0,-1.11l0.14,0c-0,0 0.06,-0.01 0.08,-0.03c0.02,-0.03 0.03,-0.05 0.03,-0.08c-0,-0.03 -0,-0.05 -0.03,-0.08c-0.02,-0.02 -0.05,-0.03 -0.08,-0.03l-0.14,0l-0,-0.23c-0,0 0.02,-0.08 0.04,-0.12c0.03,-0.03 0.07,-0.05 0.11,-0.05c0.04,0 0.07,-0.01 0.08,-0.04c0.02,-0.02 0.03,-0.05 0.03,-0.08c-0,-0.03 -0,-0.05 -0.03,-0.08l-0.01,0.02Zm0.96,1.84c-0,0 -0.04,-0.03 -0.08,-0.04c-0.04,0 -0.09,-0.02 -0.12,-0.05c-0.03,-0.03 -0.05,-0.07 -0.05,-0.12l-0,-0.82l0.16,0c-0,0 0.06,-0.01 0.08,-0.03c0.02,-0.03 0.03,-0.05 0.03,-0.08c-0,-0.03 -0,-0.05 -0.03,-0.08c-0.02,-0.02 -0.04,-0.03 -0.08,-0.03l-0.16,0l-0,-0.51c-0,0 -0.01,-0.07 -0.04,-0.08c-0.02,-0.02 -0.05,-0.03 -0.07,-0.03c-0.03,0 -0.05,0 -0.08,0.03c-0.02,0.02 -0.03,0.05 -0.03,0.08l-0,0.51l-0.1,0c-0,0 -0.06,0.01 -0.08,0.03c-0.02,0.03 -0.03,0.05 -0.03,0.08c-0,0.03 -0,0.05 0.03,0.08c0.02,0.02 0.04,0.03 0.08,0.03l0.1,0l-0,0.83c-0,0.05 -0,0.1 0.03,0.15c0.02,0.05 0.05,0.09 0.08,0.12c0.04,0.04 0.07,0.06 0.12,0.08c0.05,0.02 0.1,0.03 0.15,0.03c0.04,0 0.07,-0.01 0.08,-0.04c0.02,-0.02 0.03,-0.05 0.03,-0.08c-0,-0.03 -0,-0.05 -0.03,-0.07l0.01,0.01Z" style="fill:#d71d24;fill-rule:nonzero;"/></g><g><rect x="0.36" y="18.371" width="0.351" height="3.212" style="fill:#231f20;"/><path d="M1.28,21.583l0,-2.327l0.291,-0l-0,0.325c0.064,-0.121 0.149,-0.214 0.249,-0.28c0.102,-0.065 0.214,-0.097 0.333,-0.097c0.136,-0 0.249,0.034 0.343,0.103c0.093,0.069 0.16,0.17 0.199,0.302c0.076,-0.136 0.164,-0.236 0.264,-0.304c0.1,-0.068 0.21,-0.101 0.332,-0.101c0.185,-0 0.33,0.062 0.435,0.186c0.108,0.124 0.162,0.323 0.162,0.596l-0,1.597l-0.326,-0l-0,-1.467c-0,-0.167 -0.012,-0.285 -0.035,-0.355c-0.026,-0.07 -0.066,-0.123 -0.12,-0.161c-0.055,-0.038 -0.116,-0.057 -0.185,-0.057c-0.139,-0 -0.254,0.055 -0.343,0.166c-0.088,0.11 -0.133,0.284 -0.133,0.521l-0,1.353l-0.324,-0l0,-1.514c0,-0.193 -0.032,-0.329 -0.09,-0.407c-0.059,-0.079 -0.142,-0.119 -0.245,-0.119c-0.149,-0 -0.267,0.06 -0.354,0.179c-0.086,0.119 -0.129,0.336 -0.129,0.652l-0,1.209l-0.324,-0Z" style="fill:#231f20;fill-rule:nonzero;"/><path d="M4.663,20.433c-0,0.301 0.05,0.522 0.15,0.665c0.103,0.142 0.224,0.213 0.37,0.213c0.137,0 0.258,-0.074 0.362,-0.221c0.104,-0.148 0.155,-0.375 0.155,-0.684c0,-0.303 -0.049,-0.528 -0.151,-0.674c-0.102,-0.147 -0.223,-0.219 -0.368,-0.219c-0.132,-0 -0.252,0.078 -0.358,0.235c-0.108,0.157 -0.16,0.385 -0.16,0.685m-0.297,2.041l0,-3.219l0.3,0l0,0.303c0.073,-0.125 0.155,-0.215 0.246,-0.271c0.088,-0.055 0.192,-0.083 0.308,-0.083c0.151,-0 0.288,0.045 0.409,0.134c0.122,0.089 0.22,0.224 0.295,0.405c0.073,0.182 0.11,0.401 0.11,0.657c-0,0.395 -0.083,0.7 -0.249,0.914c-0.167,0.215 -0.363,0.321 -0.589,0.321c-0.1,0 -0.194,-0.026 -0.28,-0.077c-0.087,-0.051 -0.163,-0.123 -0.226,-0.216l-0,1.132l-0.324,0Z" style="fill:#231f20;fill-rule:nonzero;"/><rect x="6.416" y="18.371" width="0.326" height="3.212" style="fill:#231f20;"/><path d="M7.493,20.196l1.073,0c-0.016,-0.201 -0.059,-0.352 -0.129,-0.451c-0.106,-0.145 -0.24,-0.217 -0.4,-0.217c-0.145,0 -0.271,0.06 -0.373,0.181c-0.104,0.12 -0.161,0.283 -0.171,0.487m1.071,0.637l0.336,0.05c-0.057,0.249 -0.157,0.436 -0.304,0.563c-0.147,0.126 -0.328,0.189 -0.543,0.189c-0.273,0 -0.493,-0.103 -0.661,-0.308c-0.169,-0.205 -0.254,-0.501 -0.254,-0.888c0,-0.402 0.085,-0.707 0.255,-0.919c0.171,-0.211 0.385,-0.316 0.646,-0.316c0.249,-0 0.455,0.103 0.622,0.311c0.167,0.207 0.249,0.508 0.249,0.901l-0.002,0.105l-1.434,-0c0.013,0.261 0.074,0.458 0.182,0.59c0.11,0.134 0.241,0.2 0.399,0.2c0.243,-0 0.413,-0.159 0.509,-0.478" style="fill:#231f20;fill-rule:nonzero;"/><path d="M9.314,21.583l0,-2.327l0.29,-0l0,0.325c0.065,-0.121 0.15,-0.214 0.249,-0.28c0.103,-0.065 0.214,-0.097 0.334,-0.097c0.135,-0 0.249,0.034 0.343,0.103c0.093,0.069 0.159,0.17 0.198,0.302c0.077,-0.136 0.165,-0.236 0.265,-0.304c0.101,-0.068 0.21,-0.101 0.332,-0.101c0.184,-0 0.33,0.062 0.435,0.186c0.108,0.124 0.161,0.323 0.161,0.596l0,1.597l-0.325,-0l-0,-1.467c-0,-0.167 -0.012,-0.285 -0.035,-0.355c-0.026,-0.07 -0.066,-0.123 -0.121,-0.161c-0.054,-0.038 -0.115,-0.057 -0.184,-0.057c-0.139,-0 -0.255,0.055 -0.343,0.166c-0.088,0.11 -0.134,0.284 -0.134,0.521l0,1.353l-0.323,-0l-0,-1.514c-0,-0.193 -0.032,-0.329 -0.09,-0.407c-0.059,-0.079 -0.142,-0.119 -0.245,-0.119c-0.149,-0 -0.268,0.06 -0.354,0.179c-0.086,0.119 -0.129,0.336 -0.129,0.652l-0,1.209l-0.324,-0Z" style="fill:#231f20;fill-rule:nonzero;"/><path d="M12.643,20.196l1.072,0c-0.015,-0.201 -0.058,-0.352 -0.13,-0.451c-0.104,-0.145 -0.238,-0.217 -0.4,-0.217c-0.145,0 -0.269,0.06 -0.373,0.181c-0.102,0.12 -0.159,0.283 -0.169,0.487m1.069,0.637l0.336,0.05c-0.055,0.249 -0.157,0.436 -0.302,0.563c-0.147,0.126 -0.33,0.189 -0.546,0.189c-0.272,0 -0.492,-0.103 -0.661,-0.308c-0.168,-0.205 -0.253,-0.501 -0.253,-0.888c-0,-0.402 0.087,-0.707 0.255,-0.919c0.171,-0.211 0.387,-0.316 0.646,-0.316c0.249,-0 0.457,0.103 0.623,0.311c0.165,0.207 0.25,0.508 0.25,0.901l-0.002,0.105l-1.436,-0c0.014,0.261 0.074,0.458 0.184,0.59c0.108,0.134 0.241,0.2 0.396,0.2c0.246,-0 0.414,-0.159 0.51,-0.478" style="fill:#231f20;fill-rule:nonzero;"/><path d="M14.462,21.583l-0,-2.327l0.292,-0l0,0.329c0.071,-0.128 0.157,-0.224 0.259,-0.287c0.102,-0.063 0.22,-0.094 0.353,-0.094c0.103,-0 0.197,0.019 0.285,0.06c0.088,0.04 0.157,0.092 0.212,0.158c0.053,0.064 0.094,0.149 0.119,0.253c0.026,0.104 0.039,0.262 0.039,0.477l0,1.431l-0.323,-0l-0,-1.418c-0,-0.17 -0.016,-0.295 -0.045,-0.374c-0.03,-0.079 -0.075,-0.14 -0.138,-0.183c-0.062,-0.043 -0.135,-0.065 -0.217,-0.065c-0.155,-0 -0.281,0.058 -0.373,0.173c-0.092,0.116 -0.14,0.314 -0.14,0.595l0,1.272l-0.323,-0Z" style="fill:#231f20;fill-rule:nonzero;"/><path d="M17.248,21.23l0.043,0.348c-0.089,0.024 -0.171,0.035 -0.241,0.035c-0.114,0 -0.206,-0.022 -0.275,-0.066c-0.069,-0.045 -0.116,-0.107 -0.142,-0.184c-0.027,-0.077 -0.039,-0.231 -0.039,-0.462l0,-1.338l-0.239,-0l0,-0.308l0.239,0l0,-0.575l0.324,-0.236l-0,0.811l0.33,0l-0,0.308l-0.33,-0l-0,1.361c-0,0.125 0.01,0.206 0.03,0.242c0.027,0.053 0.08,0.079 0.157,0.079c0.035,0 0.084,-0.005 0.143,-0.015" style="fill:#231f20;fill-rule:nonzero;"/><path d="M17.798,20.196l1.073,0c-0.016,-0.201 -0.059,-0.352 -0.13,-0.451c-0.106,-0.145 -0.239,-0.217 -0.4,-0.217c-0.145,0 -0.271,0.06 -0.373,0.181c-0.104,0.12 -0.161,0.283 -0.17,0.487m1.07,0.637l0.336,0.05c-0.057,0.249 -0.157,0.436 -0.304,0.563c-0.147,0.126 -0.328,0.189 -0.543,0.189c-0.273,0 -0.493,-0.103 -0.662,-0.308c-0.169,-0.205 -0.253,-0.501 -0.253,-0.888c0,-0.402 0.084,-0.707 0.255,-0.919c0.171,-0.211 0.385,-0.316 0.646,-0.316c0.249,-0 0.455,0.103 0.622,0.311c0.166,0.207 0.249,0.508 0.249,0.901l-0.002,0.105l-1.435,-0c0.014,0.261 0.075,0.458 0.183,0.59c0.11,0.134 0.241,0.2 0.399,0.2c0.243,-0 0.413,-0.159 0.509,-0.478" style="fill:#231f20;fill-rule:nonzero;"/><path d="M19.83,20.421c-0,0.302 0.053,0.525 0.156,0.671c0.107,0.146 0.23,0.219 0.369,0.219c0.138,0 0.26,-0.07 0.36,-0.21c0.101,-0.141 0.153,-0.352 0.153,-0.636c-0,-0.325 -0.052,-0.563 -0.153,-0.713c-0.1,-0.149 -0.23,-0.224 -0.383,-0.224c-0.138,-0 -0.255,0.071 -0.355,0.215c-0.098,0.145 -0.147,0.371 -0.147,0.678m1.03,1.162l-0,-0.294c-0.059,0.112 -0.134,0.198 -0.228,0.258c-0.092,0.058 -0.192,0.088 -0.3,0.088c-0.226,0 -0.422,-0.106 -0.586,-0.319c-0.168,-0.212 -0.25,-0.512 -0.25,-0.897c0,-0.264 0.038,-0.488 0.11,-0.672c0.075,-0.184 0.173,-0.32 0.294,-0.409c0.124,-0.089 0.259,-0.134 0.41,-0.134c0.106,-0 0.206,0.028 0.299,0.084c0.092,0.057 0.166,0.134 0.227,0.236l0,-1.153l0.33,-0l0,3.212l-0.306,-0Z" style="fill:#231f20;fill-rule:nonzero;"/><path d="M23.002,20.402c0,0.241 0.022,0.421 0.067,0.541c0.043,0.12 0.105,0.211 0.186,0.273c0.082,0.064 0.173,0.095 0.271,0.095c0.133,0 0.253,-0.075 0.357,-0.224c0.104,-0.15 0.157,-0.374 0.157,-0.671c0,-0.306 -0.051,-0.531 -0.151,-0.673c-0.1,-0.144 -0.224,-0.215 -0.369,-0.215c-0.135,-0 -0.255,0.074 -0.361,0.224c-0.104,0.15 -0.157,0.367 -0.157,0.65m0.004,1.181l-0.302,-0l-0,-3.212l0.328,0l-0,1.146c0.068,-0.105 0.147,-0.184 0.233,-0.236c0.088,-0.051 0.186,-0.077 0.294,-0.077c0.149,-0 0.287,0.045 0.408,0.134c0.124,0.089 0.222,0.223 0.295,0.405c0.074,0.18 0.112,0.4 0.112,0.659c-0,0.394 -0.085,0.698 -0.251,0.912c-0.168,0.214 -0.362,0.321 -0.583,0.321c-0.112,0 -0.214,-0.029 -0.302,-0.086c-0.089,-0.058 -0.167,-0.144 -0.232,-0.258l0,0.292Z" style="fill:#231f20;fill-rule:nonzero;"/><path d="M24.758,22.478l-0.035,-0.37c0.072,0.024 0.135,0.036 0.186,0.036c0.069,-0 0.126,-0.015 0.171,-0.042c0.045,-0.028 0.082,-0.071 0.111,-0.129c0.01,-0.021 0.053,-0.149 0.128,-0.387l-0.73,-2.33l0.349,-0l0.403,1.347c0.051,0.168 0.096,0.347 0.139,0.538c0.037,-0.181 0.08,-0.357 0.133,-0.53l0.411,-1.355l0.325,-0l-0.728,2.366c-0.096,0.306 -0.172,0.512 -0.227,0.614c-0.056,0.104 -0.118,0.178 -0.189,0.223c-0.068,0.045 -0.149,0.068 -0.237,0.068c-0.061,0 -0.132,-0.017 -0.21,-0.049" style="fill:#231f20;fill-rule:nonzero;"/><path d="M26.726,21.134l0.371,-0l-0,0.449l-0.371,-0l-0,-0.449Zm-0,-1.878l0.371,-0l-0,0.45l-0.371,-0l-0,-0.45Z" style="fill:#231f20;fill-rule:nonzero;"/></g></g></g></svg>
