<?xml version="1.0" encoding="UTF-8" standalone="no"?><!DOCTYPE svg PUBLIC "-//W3C//DTD SVG 1.1//EN" "http://www.w3.org/Graphics/SVG/1.1/DTD/svg11.dtd"><svg viewBox="0 0 235 20" version="1.1" xmlns="http://www.w3.org/2000/svg" xmlns:xlink="http://www.w3.org/1999/xlink" xml:space="preserve" xmlns:serif="http://www.serif.com/" style="fill-rule:evenodd;clip-rule:evenodd;stroke-linejoin:round;stroke-miterlimit:2;"><rect id="Artboard2" x="0" y="0" width="234.911" height="19.455" style="fill:none;"/><g id="Artboard1"><g><g><rect x="1.5" y="1.546" width="1.463" height="13.383" style="fill:#231f20;"/><path d="M5.333,14.929l0,-9.696l1.213,0l-0,1.355c0.266,-0.505 0.621,-0.892 1.037,-1.167c0.425,-0.271 0.892,-0.404 1.388,-0.404c0.566,-0 1.037,0.141 1.429,0.429c0.387,0.287 0.667,0.708 0.829,1.258c0.317,-0.566 0.683,-0.983 1.1,-1.267c0.417,-0.283 0.875,-0.42 1.383,-0.42c0.771,-0 1.375,0.258 1.813,0.775c0.45,0.516 0.675,1.346 0.675,2.483l-0,6.654l-1.358,0l-0,-6.112c-0,-0.696 -0.05,-1.188 -0.146,-1.479c-0.109,-0.292 -0.275,-0.513 -0.5,-0.671c-0.229,-0.159 -0.484,-0.238 -0.771,-0.238c-0.579,0 -1.058,0.229 -1.429,0.692c-0.367,0.458 -0.554,1.183 -0.554,2.171l-0,5.637l-1.35,0l-0,-6.308c-0,-0.804 -0.134,-1.371 -0.375,-1.696c-0.246,-0.329 -0.592,-0.496 -1.021,-0.496c-0.621,0 -1.113,0.25 -1.475,0.746c-0.359,0.496 -0.538,1.4 -0.538,2.717l0,5.037l-1.35,0Z" style="fill:#231f20;fill-rule:nonzero;"/><path d="M19.429,10.138c0,1.254 0.208,2.175 0.625,2.77c0.429,0.592 0.933,0.888 1.542,0.888c0.571,-0 1.075,-0.309 1.508,-0.921c0.433,-0.617 0.646,-1.563 0.646,-2.85c0,-1.263 -0.204,-2.2 -0.629,-2.808c-0.425,-0.613 -0.929,-0.913 -1.534,-0.913c-0.549,0 -1.05,0.325 -1.491,0.979c-0.45,0.654 -0.667,1.605 -0.667,2.854m-1.237,8.505l-0,-13.413l1.25,0l-0,1.263c0.304,-0.521 0.646,-0.896 1.025,-1.13c0.366,-0.229 0.8,-0.345 1.283,-0.345c0.629,-0 1.2,0.187 1.704,0.558c0.508,0.371 0.917,0.933 1.229,1.688c0.305,0.758 0.459,1.67 0.459,2.737c-0,1.646 -0.346,2.917 -1.038,3.808c-0.696,0.896 -1.512,1.338 -2.454,1.338c-0.417,-0 -0.808,-0.108 -1.167,-0.321c-0.362,-0.212 -0.679,-0.513 -0.941,-0.9l-0,4.717l-1.35,-0Z" style="fill:#231f20;fill-rule:nonzero;"/><rect x="26.733" y="1.546" width="1.358" height="13.383" style="fill:#231f20;"/><path d="M31.221,9.15l4.471,0c-0.067,-0.838 -0.246,-1.467 -0.538,-1.879c-0.442,-0.604 -1,-0.904 -1.667,-0.904c-0.604,-0 -1.129,0.25 -1.554,0.754c-0.433,0.5 -0.671,1.179 -0.712,2.029m4.462,2.654l1.4,0.209c-0.237,1.037 -0.654,1.816 -1.266,2.345c-0.613,0.525 -1.367,0.788 -2.263,0.788c-1.137,-0 -2.054,-0.429 -2.754,-1.283c-0.704,-0.855 -1.058,-2.088 -1.058,-3.7c-0,-1.676 0.354,-2.946 1.062,-3.83c0.713,-0.879 1.604,-1.316 2.692,-1.316c1.037,-0 1.896,0.429 2.591,1.295c0.696,0.863 1.038,2.117 1.038,3.755l-0.008,0.437l-5.975,0c0.054,1.088 0.308,1.908 0.758,2.459c0.458,0.558 1.004,0.833 1.662,0.833c1.013,-0 1.721,-0.663 2.121,-1.992" style="fill:#231f20;fill-rule:nonzero;"/><path d="M38.808,14.929l0,-9.696l1.209,0l-0,1.355c0.27,-0.505 0.625,-0.892 1.037,-1.167c0.429,-0.271 0.892,-0.404 1.392,-0.404c0.562,-0 1.037,0.141 1.429,0.429c0.387,0.287 0.662,0.708 0.825,1.258c0.321,-0.566 0.687,-0.983 1.104,-1.267c0.421,-0.283 0.875,-0.42 1.383,-0.42c0.767,-0 1.375,0.258 1.813,0.775c0.45,0.516 0.671,1.346 0.671,2.483l-0,6.654l-1.354,0l-0,-6.112c-0,-0.696 -0.05,-1.188 -0.146,-1.479c-0.109,-0.292 -0.275,-0.513 -0.504,-0.671c-0.225,-0.159 -0.48,-0.238 -0.767,-0.238c-0.579,0 -1.063,0.229 -1.429,0.692c-0.367,0.458 -0.559,1.183 -0.559,2.171l0,5.637l-1.345,0l-0,-6.308c-0,-0.804 -0.134,-1.371 -0.375,-1.696c-0.246,-0.329 -0.592,-0.496 -1.021,-0.496c-0.621,0 -1.117,0.25 -1.475,0.746c-0.359,0.496 -0.538,1.4 -0.538,2.717l0,5.037l-1.35,0Z" style="fill:#231f20;fill-rule:nonzero;"/><path d="M52.679,9.15l4.467,0c-0.063,-0.838 -0.242,-1.467 -0.542,-1.879c-0.433,-0.604 -0.992,-0.904 -1.667,-0.904c-0.604,-0 -1.12,0.25 -1.554,0.754c-0.425,0.5 -0.662,1.179 -0.704,2.029m4.454,2.654l1.4,0.209c-0.229,1.037 -0.654,1.816 -1.258,2.345c-0.612,0.525 -1.375,0.788 -2.275,0.788c-1.133,-0 -2.05,-0.429 -2.754,-1.283c-0.7,-0.855 -1.054,-2.088 -1.054,-3.7c-0,-1.676 0.362,-2.946 1.062,-3.83c0.713,-0.879 1.613,-1.316 2.692,-1.316c1.037,-0 1.904,0.429 2.596,1.295c0.687,0.863 1.041,2.117 1.041,3.755l-0.008,0.437l-5.983,0c0.058,1.088 0.308,1.908 0.766,2.459c0.45,0.558 1.005,0.833 1.65,0.833c1.025,-0 1.725,-0.663 2.125,-1.992" style="fill:#231f20;fill-rule:nonzero;"/><path d="M60.258,14.929l0,-9.696l1.217,0l-0,1.371c0.296,-0.533 0.654,-0.933 1.079,-1.196c0.425,-0.262 0.917,-0.391 1.471,-0.391c0.429,-0 0.821,0.079 1.188,0.25c0.366,0.166 0.654,0.383 0.883,0.658c0.221,0.267 0.391,0.621 0.496,1.054c0.108,0.434 0.162,1.092 0.162,1.988l0,5.962l-1.346,0l0,-5.908c0,-0.709 -0.066,-1.229 -0.187,-1.558c-0.125,-0.33 -0.313,-0.584 -0.575,-0.763c-0.258,-0.179 -0.563,-0.271 -0.904,-0.271c-0.646,0 -1.171,0.242 -1.554,0.721c-0.384,0.483 -0.584,1.308 -0.584,2.479l0,5.3l-1.346,0Z" style="fill:#231f20;fill-rule:nonzero;"/><path d="M71.867,13.458l0.179,1.45c-0.371,0.1 -0.713,0.146 -1.004,0.146c-0.475,0 -0.859,-0.091 -1.146,-0.275c-0.288,-0.187 -0.483,-0.446 -0.592,-0.766c-0.112,-0.321 -0.162,-0.963 -0.162,-1.925l-0,-5.575l-0.996,-0l-0,-1.284l0.996,0l-0,-2.396l1.35,-0.983l-0,3.379l1.375,0l-0,1.284l-1.375,-0l-0,5.67c-0,0.521 0.041,0.859 0.125,1.009c0.112,0.221 0.333,0.329 0.654,0.329c0.146,-0 0.35,-0.021 0.596,-0.063" style="fill:#231f20;fill-rule:nonzero;"/><path d="M74.158,9.15l4.471,0c-0.066,-0.838 -0.246,-1.467 -0.541,-1.879c-0.442,-0.604 -0.996,-0.904 -1.667,-0.904c-0.604,-0 -1.129,0.25 -1.554,0.754c-0.434,0.5 -0.671,1.179 -0.709,2.029m4.459,2.654l1.4,0.209c-0.238,1.037 -0.655,1.816 -1.267,2.345c-0.613,0.525 -1.367,0.788 -2.263,0.788c-1.137,-0 -2.054,-0.429 -2.758,-1.283c-0.704,-0.855 -1.054,-2.088 -1.054,-3.7c0,-1.676 0.35,-2.946 1.062,-3.83c0.713,-0.879 1.605,-1.316 2.692,-1.316c1.038,-0 1.896,0.429 2.592,1.295c0.692,0.863 1.037,2.117 1.037,3.755l-0.008,0.437l-5.979,0c0.058,1.088 0.312,1.908 0.762,2.459c0.459,0.558 1.004,0.833 1.663,0.833c1.012,-0 1.721,-0.663 2.121,-1.992" style="fill:#231f20;fill-rule:nonzero;"/><path d="M82.625,10.088c0,1.258 0.221,2.187 0.65,2.795c0.446,0.609 0.958,0.913 1.537,0.913c0.575,-0 1.084,-0.292 1.5,-0.875c0.421,-0.588 0.638,-1.467 0.638,-2.65c-0,-1.354 -0.217,-2.346 -0.638,-2.971c-0.416,-0.621 -0.958,-0.933 -1.595,-0.933c-0.575,-0 -1.063,0.296 -1.48,0.896c-0.408,0.604 -0.612,1.545 -0.612,2.825m4.292,4.841l-0,-1.225c-0.246,0.467 -0.559,0.825 -0.95,1.075c-0.384,0.242 -0.8,0.367 -1.25,0.367c-0.942,-0 -1.759,-0.442 -2.442,-1.329c-0.7,-0.884 -1.042,-2.134 -1.042,-3.738c0,-1.1 0.159,-2.033 0.459,-2.8c0.312,-0.766 0.72,-1.333 1.225,-1.704c0.516,-0.371 1.079,-0.558 1.708,-0.558c0.442,-0 0.858,0.116 1.246,0.35c0.383,0.237 0.692,0.558 0.946,0.983l-0,-4.804l1.375,-0l-0,13.383l-1.275,0Z" style="fill:#231f20;fill-rule:nonzero;"/><path d="M95.842,10.008c-0,1.005 0.091,1.755 0.279,2.255c0.179,0.5 0.437,0.879 0.775,1.137c0.342,0.267 0.721,0.396 1.129,0.396c0.554,-0 1.054,-0.313 1.487,-0.934c0.434,-0.624 0.655,-1.558 0.655,-2.795c-0,-1.275 -0.213,-2.213 -0.629,-2.804c-0.417,-0.6 -0.934,-0.896 -1.538,-0.896c-0.563,-0 -1.062,0.308 -1.504,0.933c-0.433,0.625 -0.654,1.529 -0.654,2.708m0.016,4.921l-1.258,0l0,-13.383l1.367,-0l-0,4.775c0.283,-0.438 0.612,-0.767 0.971,-0.983c0.366,-0.213 0.774,-0.321 1.224,-0.321c0.621,-0 1.196,0.187 1.7,0.558c0.517,0.371 0.925,0.929 1.23,1.688c0.308,0.75 0.466,1.666 0.466,2.745c0,1.642 -0.354,2.909 -1.046,3.8c-0.7,0.892 -1.508,1.338 -2.429,1.338c-0.466,-0 -0.891,-0.121 -1.258,-0.358c-0.371,-0.242 -0.696,-0.6 -0.967,-1.075l0,1.216Z" style="fill:#231f20;fill-rule:nonzero;"/><path d="M103.158,18.658l-0.145,-1.541c0.299,0.1 0.562,0.15 0.775,0.15c0.287,-0 0.525,-0.063 0.712,-0.175c0.188,-0.117 0.342,-0.296 0.462,-0.538c0.042,-0.087 0.221,-0.621 0.534,-1.612l-3.042,-9.709l1.454,0l1.679,5.613c0.213,0.7 0.4,1.446 0.58,2.242c0.154,-0.755 0.333,-1.488 0.554,-2.209l1.712,-5.646l1.354,0l-3.033,9.859c-0.4,1.275 -0.717,2.133 -0.946,2.558c-0.233,0.433 -0.491,0.742 -0.787,0.929c-0.284,0.188 -0.621,0.284 -0.988,0.284c-0.254,-0 -0.55,-0.071 -0.875,-0.205" style="fill:#231f20;fill-rule:nonzero;"/><path d="M111.358,13.058l1.546,0l0,1.871l-1.546,0l0,-1.871Zm0,-7.825l1.546,0l0,1.875l-1.546,0l0,-1.875Z" style="fill:#231f20;fill-rule:nonzero;"/></g></g></g></svg>