<svg viewBox="0 0 198.43 85.04" xmlns="http://www.w3.org/2000/svg" xmlns:xlink="http://www.w3.org/1999/xlink"><clipPath id="a"><path clip-rule="evenodd" d="m59.77 31.08c1.11 1.15 2.47 3.08 3.54 4.73l.06-.15c-2.11-2.84-3.39-5.43-6.47-8.38-3.63-3.47-8.26-5.07-10.71-5.72-15.85-4.62-28.04 3.92-28.1 3.95.54 1.55 1.07 3.1 1.61 4.65 2.66-1.98 6.41-3.64 8.94-4.55 2.29-.83 5.55-1.57 7.41-1.78 1.86-.22 5.14-.24 6.61-.16s5.16.84 6.47 1.26c2.25.7 4.82 1.9 5.88 2.53s2.67 1.45 4.77 3.63z"/></clipPath><linearGradient id="b" gradientTransform="matrix(-1.86401574 -.72487608 .65238847 -1.67761416 31.3 -157.46)" gradientUnits="userSpaceOnUse" x1="-47.69" x2="-40.05" y1="-93.87" y2="-95.92"><stop offset="0" stop-color="#6d5f27"/><stop offset=".16" stop-color="#6a5d28" stop-opacity=".94"/><stop offset=".38" stop-color="#62572d" stop-opacity=".76"/><stop offset=".65" stop-color="#554e35" stop-opacity=".47"/><stop offset=".95" stop-color="#444240" stop-opacity=".07"/><stop offset="1" stop-color="#414042" stop-opacity="0"/></linearGradient><clipPath id="c"><path clip-rule="evenodd" d="m62.85 37 .47-1.19c-1.07-1.65-2.43-3.57-3.54-4.73-2.1-2.18-3.71-3-4.77-3.63s-3.63-1.82-5.88-2.53c-1.31-.41-5-1.18-6.47-1.26s-4.75-.06-6.61.16-5.12.96-7.41 1.78c-2.53.91-6.29 2.58-8.94 4.55.57 1.66 1.14 3.32 1.72 4.98 1.68-1.24 7.12-5.08 12.06-6.53 5.49-1.61 10.72-1.67 16.33-.04 5.28 1.54 8.7 4.2 9.74 5.04.97.78 2.33 2.23 3.31 3.38z"/></clipPath><linearGradient id="d" gradientTransform="matrix(-1.86401574 -.72487608 .65238847 -1.67761416 31.3 -157.46)" gradientUnits="userSpaceOnUse" x1="-45.38" x2="-37.73" y1="-91.45" y2="-93.5"><stop offset="0" stop-color="#6d5f27"/><stop offset=".16" stop-color="#725b27" stop-opacity=".94"/><stop offset=".38" stop-color="#824f29" stop-opacity=".76"/><stop offset=".65" stop-color="#9c3d2b" stop-opacity=".47"/><stop offset=".95" stop-color="#c0242f" stop-opacity=".07"/><stop offset="1" stop-color="#c72030" stop-opacity="0"/></linearGradient><clipPath id="e"><path clip-rule="evenodd" d="m62.61 37.74.27-.7c-.98-1.15-2.36-2.62-3.34-3.42-1.04-.84-4.46-3.5-9.74-5.04-5.6-1.63-10.84-1.58-16.33.04-4.94 1.45-10.38 5.29-12.06 6.53.5 1.46 1.01 2.93 1.52 4.39 1.57-1.43 10.08-8.36 21.68-8.79 5.24-.19 10.38.94 13.52 3 1.82 1.19 3.35 2.71 4.49 3.99z"/></clipPath><linearGradient id="f" gradientTransform="matrix(-1.86401574 -.72487608 .65238847 -1.67761416 31.3 -157.46)" gradientUnits="userSpaceOnUse" x1="-47.65" x2="-41" y1="-95.27" y2="-97.06"><stop offset="0" stop-color="#6d5f27"/><stop offset=".16" stop-color="#766527" stop-opacity=".94"/><stop offset=".38" stop-color="#8f7929" stop-opacity=".76"/><stop offset=".65" stop-color="#ba982c" stop-opacity=".47"/><stop offset=".95" stop-color="#f4c431" stop-opacity=".07"/><stop offset="1" stop-color="#ffcc32" stop-opacity="0"/></linearGradient><clipPath id="g"><path clip-rule="evenodd" d="m101.37 34.34c-.34-1.73-.73-3.69-1.08-5.46-.55-2.8-1.01-5.1-1.02-5.22-7.34 8.96-15.72 14.43-21.14 16.16-9.53 3.04-11.51-.37-12.67-1.63-.63-.69-1.7-1.99-2.44-2.99l-.77 2.15c.73.73 1.72 2.01 1.97 2.33 3.44 4.42 7.74 10.36 14.92 10.27 5.95-.07 8.81-1.43 10.42-2.03 7.89-2.93 12.73-8.89 12.74-8.89 0-.06-.41-2.11-.93-4.7z"/></clipPath><linearGradient id="h" gradientTransform="matrix(1.87601996 .69321649 -.62389484 1.68841797 245.65 165.84)" gradientUnits="userSpaceOnUse" x1="-107.31" x2="-97.44" y1="-31.54" y2="-35.33"><stop offset=".09" stop-color="#6d5f27"/><stop offset=".26" stop-color="#665a2b" stop-opacity=".85"/><stop offset=".59" stop-color="#554e35" stop-opacity=".46"/><stop offset=".93" stop-color="#414042" stop-opacity="0"/></linearGradient><g fill="#c72030"><path d="m22.98 67.02v-2.93h.6c1.11 0 1.61.4 1.61 1.4 0 1.06-.61 1.54-1.66 1.54h-.55zm.37-2.61v2.29h.18c.81 0 1.26-.34 1.26-1.22 0-.8-.43-1.08-1.21-1.08h-.23z"/><path d="m27.57 64.39h-1.23v.99h1.12v.31h-1.12v1.02h1.34l-.03.31h-1.69v-2.93h1.62l-.03.31z"/><path d="m30.55 65.81c0 .84-.36 1.26-1.1 1.26s-1.08-.37-1.08-1.26v-1.72h.37v1.73c0 .67.25.94.74.94s.71-.26.71-.94v-1.73h.36z"/><path d="m33.34 64.39h-.91v2.62h-.37v-2.62h-.91v-.31h2.21l-.03.31z"/><path d="m35.27 64.57c-.06-.05-.25-.2-.54-.2-.33 0-.49.15-.49.35 0 .23.1.36.46.58l.26.16c.35.22.58.46.58.84 0 .44-.35.77-.95.77-.47 0-.69-.18-.79-.26l.13-.34c.09.08.32.27.64.27.4 0 .58-.18.58-.39 0-.26-.13-.38-.46-.59l-.26-.17c-.39-.26-.57-.46-.57-.86 0-.38.33-.69.85-.69.43 0 .64.17.69.22l-.13.32z"/><path d="m37.48 64.04c.45 0 .67.2.74.25l-.13.29c-.07-.06-.27-.23-.61-.23-.52 0-.98.32-.98 1.17s.35 1.22.94 1.22c.38 0 .57-.16.65-.23l.11.28c-.09.07-.32.27-.82.27-.77 0-1.28-.47-1.28-1.52s.71-1.51 1.38-1.51z"/><path d="m41.11 67.02h-.37v-1.33h-1.46v1.33h-.37v-2.93h.37v1.3h1.46v-1.3h.37z"/><path d="m43.63 64.39h-1.23v.99h1.13v.31h-1.13v1.02h1.34l-.03.31h-1.69v-2.93h1.62l-.03.31z"/><path d="m47.3 64.32-1.46 2.39s1.59 0 1.59 0l-.03.31h-2.04v-.23l1.49-2.39s-1.41 0-1.41 0v-.31h1.86z"/><path d="m50.23 65.81c0 .84-.36 1.26-1.1 1.26s-1.08-.37-1.08-1.26v-1.72h.37v1.73c0 .67.25.94.74.94s.71-.26.71-.94v-1.73h.36z"/><path d="m52.41 64.57c-.06-.05-.25-.2-.54-.2-.33 0-.49.15-.49.35 0 .23.1.36.45.58l.25.16c.35.22.58.46.58.84 0 .44-.35.77-.95.77-.47 0-.69-.18-.79-.26l.13-.34c.09.08.32.27.64.27.39 0 .58-.18.58-.39 0-.26-.13-.38-.46-.59l-.26-.17c-.39-.26-.58-.46-.58-.86 0-.38.33-.69.86-.69.42 0 .64.17.69.22l-.13.32z"/><path d="m55.12 67.02-.32-.94h-1.05l-.32.94h-.38l1.09-2.93h.29l1.09 2.93h-.41zm-.84-2.45-.43 1.23h.86l-.42-1.23z"/><path d="m58.85 67.02h-.36v-2.1l-.85 2.1h-.32l-.85-2.1v2.1h-.36v-2.93h.4l.98 2.41.98-2.41h.37v2.93z"/><path d="m62.52 67.02h-.36v-2.1l-.85 2.1h-.32l-.84-2.1v2.1h-.36v-2.93h.4l.98 2.41.98-2.41h.37z"/><path d="m65.04 64.39h-1.23v.99h1.13v.31h-1.13v1.02h1.34l-.03.31h-1.69v-2.93h1.62l-.03.31z"/><path d="m68.07 67.02h-.34l-1.47-2.26v2.26h-.37v-2.93h.34l1.48 2.25v-2.25h.37v2.93z"/><path d="m70.73 67.02-.32-.94h-1.05l-.32.94h-.38l1.09-2.93h.29l1.1 2.93zm-.84-2.45-.43 1.23h.86l-.42-1.23z"/><path d="m73.25 67.02-.7-1.19c-.07 0-.15 0-.23 0h-.23v1.19h-.37v-2.93h.62c.8 0 1.16.28 1.16.82 0 .4-.19.7-.58.84l.78 1.28h-.45zm-.91-2.62h-.25v1.13h.23c.54 0 .78-.21.78-.6 0-.37-.23-.54-.76-.54z"/><path d="m75.55 65.51c.35.07.62.32.62.71 0 .46-.34.8-1.15.8h-.66v-2.93h.62c.8 0 1.1.29 1.1.75 0 .41-.25.59-.53.67zm-.57-1.12h-.25v.99h.25c.49 0 .72-.2.72-.54 0-.27-.21-.45-.72-.45zm.06 1.3h-.32v1.02h.29c.54 0 .75-.18.75-.51s-.27-.51-.73-.51z"/><path d="m78.53 64.39h-1.23v.99h1.13v.31h-1.13v1.02h1.34l-.03.31h-1.69v-2.93h1.62l-.03.31z"/><path d="m79.52 64.35h-.36v-.27h1.08v.27h-.36v2.4h.37v.27h-1.11v-.27h.37v-2.4z"/><path d="m82.87 64.39h-.91v2.62h-.37v-2.62h-.91v-.31h2.21l-.03.31z"/></g><g fill="#414042"><path d="m28.82 60.6h-2.55v-.35c.08 0 .17-.01.25-.02.09 0 .16-.02.22-.04.1-.03.17-.09.23-.17.05-.08.08-.18.08-.31v-1.66h-2.32v1.61c0 .12.02.22.07.3s.12.14.22.18c.07.03.15.06.24.08s.18.03.27.04v.35h-2.55v-.35c.08 0 .16-.01.25-.02.08 0 .16-.02.22-.04.1-.03.17-.09.22-.17s.07-.18.07-.31v-3.38c0-.12-.03-.21-.07-.29-.05-.08-.12-.14-.22-.18-.09-.04-.18-.07-.27-.08-.08-.01-.17-.03-.24-.03v-.35h2.55v.35c-.1 0-.19.02-.27.03s-.14.02-.21.04c-.1.03-.17.08-.22.17-.05.08-.07.19-.07.31v1.34h2.32v-1.29c0-.12-.03-.21-.07-.29-.05-.08-.12-.14-.22-.18-.09-.04-.18-.07-.27-.08s-.17-.03-.24-.03v-.35h2.55v.35c-.1 0-.19.02-.27.03-.07.01-.14.02-.21.04-.1.03-.17.08-.22.17-.05.08-.07.19-.07.31v3.38c0 .12.02.22.06.3s.12.14.22.18c.07.03.15.06.24.08s.17.03.27.04v.35z"/><path d="m32.1 60.6h-2.52v-.35c.08 0 .16-.01.25-.02.09 0 .16-.02.22-.04.1-.03.17-.09.22-.17s.07-.18.07-.31v-3.22c0-.11-.03-.22-.08-.31s-.12-.17-.21-.23c-.07-.04-.16-.08-.29-.11s-.24-.05-.35-.06v-.35l1.84-.12.07.07v4.25c0 .12.03.23.07.31.05.08.12.14.22.18.08.03.15.06.23.08.07.02.16.03.25.04v.35zm-.66-7.33c0 .2-.07.38-.2.53s-.3.22-.49.22c-.18 0-.34-.07-.47-.21s-.2-.31-.2-.49c0-.19.07-.36.2-.51.13-.14.29-.22.47-.22.2 0 .37.07.49.2.13.14.19.29.19.47z"/><path d="m39.74 60.6h-2.55v-.35c.08 0 .17-.01.25-.02.09 0 .16-.02.22-.04.1-.03.18-.09.23-.17.06-.08.08-.18.08-.3v-3.77h-.13l-1.76 4.58h-.33l-1.66-4.67h-.12v3.65c0 .18.03.32.08.42s.12.17.22.21c.07.03.15.06.24.08s.18.03.27.04v.35h-2.03v-.35c.08 0 .16-.01.25-.02.09 0 .16-.02.22-.04.11-.03.18-.1.22-.21.04-.1.07-.25.07-.42v-3.17c0-.14-.02-.25-.07-.33-.05-.09-.12-.15-.22-.19-.09-.04-.18-.07-.27-.08-.08-.01-.17-.03-.24-.03v-.35h2.16l1.31 3.74 1.15-3.1c.04-.1.08-.22.12-.36s.06-.23.07-.28h2.19v.35c-.1 0-.19.02-.27.03s-.15.02-.21.04c-.1.03-.17.08-.22.17-.05.08-.07.19-.07.31v3.38c0 .12.02.22.06.3s.11.14.21.18c.07.03.16.06.24.08.09.02.17.03.27.04v.35z"/><path d="m45.12 59.37c-.22.42-.51.75-.88.99-.37.25-.79.37-1.26.37-.42 0-.79-.07-1.1-.22-.32-.15-.58-.35-.78-.6s-.36-.55-.46-.89-.15-.7-.15-1.07c0-.34.05-.67.16-1 .11-.32.26-.62.47-.88.2-.25.45-.45.75-.61.3-.15.63-.23 1-.23s.71.06.98.18.49.28.66.49c.16.2.28.43.36.7s.12.56.12.87v.35h-3.45c0 .34.03.65.1.93s.17.52.31.73.32.37.54.49.49.18.79.18.58-.07.81-.22.45-.41.66-.8l.37.23zm-1.17-1.99c0-.2-.02-.41-.05-.63s-.09-.41-.16-.56c-.08-.16-.19-.29-.33-.39s-.32-.15-.55-.15c-.37 0-.68.15-.92.46-.25.31-.38.74-.4 1.28h2.41z"/><path d="m51.17 60.6h-2.55v-.35c.08 0 .17-.01.25-.02.08 0 .16-.02.22-.04.1-.03.17-.09.23-.17.05-.08.08-.18.08-.31v-1.38c-.29.12-.54.22-.75.29-.22.08-.48.11-.79.11-.55 0-.96-.11-1.22-.33s-.39-.56-.39-1.04v-1.04c0-.12-.03-.22-.07-.3-.05-.08-.12-.14-.22-.18-.09-.04-.18-.07-.27-.08s-.17-.03-.24-.03v-.35h2.55v.35c-.1 0-.19.02-.27.03s-.15.02-.21.04c-.1.03-.17.08-.22.17s-.07.19-.07.31v.82c0 .38.08.65.23.81.15.17.41.25.77.25.16 0 .34-.02.54-.05s.41-.08.63-.16v-1.62c0-.12-.02-.21-.07-.29s-.12-.14-.22-.18c-.09-.04-.18-.07-.27-.08s-.17-.03-.24-.03v-.35h2.55v.35c-.1 0-.19.02-.27.03s-.15.02-.21.04c-.1.03-.17.08-.22.17-.05.08-.07.19-.07.31v3.38c0 .12.02.22.06.3s.12.14.22.18c.07.03.15.06.24.08.08.02.17.03.27.04v.35z"/><path d="m57.37 60.6h-2.55v-.35c.08 0 .16-.01.25-.02.08 0 .16-.02.22-.04.1-.03.17-.09.23-.17.05-.08.08-.18.08-.31v-1.38c-.28.12-.54.22-.75.29-.22.08-.48.11-.79.11-.55 0-.96-.11-1.22-.33s-.39-.56-.39-1.04v-1.04c0-.12-.03-.22-.07-.3-.05-.08-.12-.14-.22-.18-.09-.04-.18-.07-.27-.08s-.17-.03-.24-.03v-.35h2.55v.35c-.1 0-.19.02-.27.03-.07.01-.14.02-.21.04-.1.03-.17.08-.22.17-.05.08-.07.19-.07.31v.82c0 .38.08.65.23.81s.41.25.77.25c.16 0 .34-.02.54-.05s.41-.08.62-.16v-1.62c0-.12-.02-.21-.07-.29s-.12-.14-.22-.18c-.09-.04-.18-.07-.27-.08s-.17-.03-.24-.03v-.35h2.55v.35c-.1 0-.19.02-.27.03s-.14.02-.21.04c-.1.03-.17.08-.22.17-.05.08-.07.19-.07.31v3.38c0 .12.02.22.06.3s.12.14.22.18c.08.03.16.06.24.08.09.02.17.03.27.04v.35z"/><path d="m64 60.6h-2.53v-.35c.08 0 .16-.01.25-.02.09 0 .16-.02.22-.04.1-.03.18-.09.23-.17s.08-.18.08-.31v-2.74l-2.4 2.6v.09c0 .12.03.22.08.3s.12.14.22.18c.08.03.16.06.24.08.09.02.18.03.27.04v.35h-2.53v-.35c.08 0 .16-.01.25-.02.09 0 .16-.02.22-.04.1-.03.17-.09.22-.17s.07-.18.07-.31v-3.38c0-.12-.02-.21-.07-.29s-.12-.14-.22-.18c-.09-.04-.18-.07-.27-.08s-.17-.03-.24-.03v-.35h2.53v.35c-.1 0-.19.02-.27.03s-.15.02-.21.04c-.1.03-.17.08-.22.17-.05.08-.07.19-.07.31v2.7l2.4-2.6c0-.16-.02-.27-.07-.34s-.12-.13-.22-.17c-.09-.04-.18-.07-.27-.08s-.17-.03-.25-.03v-.35h2.53v.35c-.1 0-.19.02-.27.03s-.15.02-.21.04c-.1.03-.17.08-.22.17-.05.08-.07.19-.07.31v3.38c0 .12.02.22.06.3s.11.14.22.18c.07.03.16.06.24.08.09.02.18.03.27.04v.35z"/><path d="m70.59 60.6h-2.55v-.35c.08 0 .16-.01.25-.02.09 0 .16-.02.22-.04.1-.03.17-.09.23-.17.05-.08.08-.18.08-.31v-1.66h-2.32v1.61c0 .12.03.22.07.3.05.08.12.14.22.18.07.03.16.06.24.08.09.02.18.03.27.04v.35h-2.55v-.35c.08 0 .17-.01.25-.02.09 0 .16-.02.23-.04.1-.03.17-.09.22-.17s.07-.18.07-.31v-3.38c0-.12-.03-.21-.08-.29s-.12-.14-.22-.18c-.09-.04-.18-.07-.27-.08s-.17-.03-.24-.03v-.35h2.55v.35c-.1 0-.19.02-.27.03s-.15.02-.21.04c-.1.03-.17.08-.22.17-.05.08-.07.19-.07.31v1.34h2.32v-1.29c0-.12-.02-.21-.07-.29s-.12-.14-.22-.18c-.09-.04-.18-.07-.27-.08s-.17-.03-.24-.03v-.35h2.55v.35c-.1 0-.19.02-.27.03s-.14.02-.21.04c-.1.03-.17.08-.22.17-.05.08-.07.19-.07.31v3.38c0 .12.02.22.06.3s.12.14.22.18c.07.03.15.06.24.08s.18.03.27.04v.35z"/><path d="m76.43 57.94c0 .37-.06.73-.17 1.08-.12.35-.28.65-.5.9-.24.28-.53.49-.85.63s-.68.21-1.08.21c-.33 0-.65-.06-.95-.19-.3-.12-.57-.31-.8-.55s-.41-.52-.55-.86c-.13-.34-.2-.72-.2-1.15 0-.81.24-1.48.71-2s1.1-.78 1.87-.78 1.33.25 1.81.74.71 1.14.71 1.96zm-1.09 0c0-.26-.03-.54-.08-.84-.05-.29-.13-.54-.24-.75-.11-.22-.26-.39-.44-.53-.18-.13-.41-.2-.67-.2s-.51.07-.7.2c-.19.14-.35.32-.47.55-.11.22-.19.46-.24.73-.05.28-.07.54-.07.8 0 .34.03.65.08.94s.14.54.26.77.27.4.45.53.41.19.68.19c.44 0 .79-.21 1.05-.64s.39-1.02.39-1.77z"/><path d="m80.74 60.03c-.22-.24-.39-.53-.51-.86s-.19-.71-.2-1.13h-1.1v1.61c0 .12.03.22.07.3.05.08.12.14.22.18.07.03.15.06.24.08s.18.03.27.04v.35h-2.54v-.35c.08 0 .16-.01.25-.02.08 0 .16-.02.22-.04.1-.03.17-.09.22-.17s.07-.18.07-.31v-3.38c0-.12-.03-.21-.07-.29-.05-.08-.12-.14-.22-.18-.09-.04-.18-.07-.27-.08s-.17-.03-.24-.03v-.35h2.54v.35c-.1 0-.19.02-.27.03s-.15.02-.21.04c-.1.03-.17.08-.22.17-.05.08-.07.19-.07.31v1.34h1.12c.07-.71.32-1.28.75-1.72.44-.44 1-.66 1.71-.66.39 0 .74.07 1.04.21s.56.33.76.56c.22.24.38.53.49.85s.17.68.17 1.08c0 .37-.05.74-.17 1.08-.11.35-.27.65-.48.9-.22.26-.49.46-.79.61-.31.15-.68.22-1.1.22-.33 0-.64-.06-.93-.19-.29-.12-.54-.3-.76-.54zm2.82-.39c.11-.22.19-.47.24-.76.05-.28.08-.6.08-.94 0-.29-.02-.57-.06-.84s-.12-.52-.23-.74c-.1-.22-.25-.39-.42-.53-.18-.13-.4-.2-.67-.2-.29 0-.52.07-.7.21s-.33.32-.43.54c-.11.21-.18.46-.22.72-.04.27-.06.54-.06.81 0 .33.02.64.08.93.05.29.13.55.25.77.11.23.26.4.44.53s.4.19.67.19c.24 0 .45-.07.63-.19.18-.13.32-.3.43-.52z"/><path d="m25.92 51.14c-.31.14-.69.25-1.16.25-1.23 0-1.89-.72-1.89-2.01s.73-2.04 1.94-2.04c.38 0 .71.07 1.08.24l-.23.76c-.29-.15-.55-.24-.86-.24-.57 0-.94.4-.94 1.19s.34 1.34 1.01 1.34c.29 0 .55-.09.82-.22l.22.73z"/><path d="m29.29 51.31v-3.12h-1.56v3.12h-.97v-3.89h3.49v3.89z"/><path d="m32.1 46.73c-.33 0-.59-.25-.59-.56s.26-.58.59-.58.59.26.59.58-.27.56-.59.56zm-.49 4.58v-3.89h.97v3.89z"/><path d="m35.2 51.33c-.41 0-.83 0-1.25-.02v-3.89c.4-.02.8-.03 1.2-.03 1.33 0 1.66.55 1.66 1.04 0 .37-.2.59-.5.75.4.15.73.51.73.95 0 .94-.76 1.2-1.85 1.2zm.06-3.23h-.41v.93h.35c.52 0 .72-.19.72-.48 0-.24-.21-.45-.66-.45zm.08 1.51h-.49v1.01h.44c.45 0 .82-.1.82-.51s-.44-.51-.77-.51z"/><path d="m40.6 51.31v-3.12h-1.56v3.12h-.97v-3.89h3.49v3.89z"/><path d="m42.9 47.51c.45-.09.99-.2 1.59-.2 1.49 0 1.95 1.09 1.95 2.04 0 .77-.43 2.05-1.98 2.05-.22 0-.41-.03-.59-.1v1.92h-.97v-5.72zm.97 2.95c.17.1.39.15.59.15.69 0 .96-.58.96-1.22 0-.57-.22-1.3-1.04-1.3-.19 0-.35.03-.52.09v2.28z"/><path d="m49.49 51.31c-.03-.13-.06-.27-.08-.39-.33.24-.65.5-1.14.5-.6 0-1.17-.36-1.17-1.14 0-.93.95-1.25 2.18-1.3v-.29c0-.35-.14-.63-.52-.63-.33 0-.75.1-1.24.31l-.2-.71c.46-.17.95-.33 1.51-.33 1.16 0 1.4.71 1.4 1.4v1.33c0 .46.04.92.09 1.25h-.84zm-.21-1.76c-.75.02-1.21.19-1.21.64 0 .33.16.5.46.5.26 0 .49-.16.75-.38v-.75z"/><path d="m54.81 52.43v-1.12h-3.27v-3.89h.97v3.13h1.58v-3.13h.96v3.1h.57v1.91z"/><path d="m58.02 47.42h1.37v3.89h-.95v-1.27c-.2 0-.43 0-.65-.03l-.56 1.3h-1.05l.82-1.51c-.44-.19-.76-.51-.76-1.05 0-.49.27-1.33 1.79-1.33zm.41 1.87v-1.12h-.45c-.54 0-.74.24-.74.54 0 .47.6.59 1.19.58z"/><path d="m63.79 51.4c-.51 0-.91-.08-1.33-.2l.21-.75c.43.15.72.21 1.1.21.46 0 .78-.17.78-.51 0-.37-.35-.55-.94-.53h-.48v-.62h.39c.59-.02.85-.21.85-.51 0-.24-.21-.41-.6-.41-.2 0-.51.04-.91.23l-.29-.67c.46-.2.89-.31 1.38-.31.8 0 1.44.34 1.44 1 0 .45-.23.64-.54.82.39.18.72.46.72 1 0 .82-.74 1.24-1.78 1.24z"/><path d="m59.77 31.08c.96.99 2.09 2.55 3.08 4.02l.03-.13c-1.83-2.58-3.14-4.98-5.98-7.69-3.63-3.47-8.26-5.07-10.71-5.72-15.85-4.62-28.04 3.92-28.1 3.95.54 1.55 1.07 3.1 1.61 4.65 2.66-1.98 6.41-3.64 8.94-4.55 2.29-.83 5.55-1.57 7.41-1.78 1.86-.22 5.14-.24 6.61-.16s5.16.84 6.47 1.26c2.25.7 4.82 1.9 5.88 2.53s2.67 1.45 4.77 3.63z" fill-rule="evenodd"/></g><path d="m62.53 36.62.32-1.52c-.98-1.47-2.12-3.03-3.08-4.02-2.1-2.18-3.71-3-4.77-3.63s-3.63-1.82-5.88-2.53c-1.31-.41-5-1.18-6.47-1.26s-4.75-.06-6.61.16-5.12.96-7.41 1.78c-2.53.91-6.29 2.58-8.94 4.55.57 1.66 1.14 3.32 1.72 4.98 1.68-1.24 7.12-5.08 12.06-6.53 5.49-1.61 10.72-1.67 16.33-.04 5.28 1.54 8.7 4.2 9.74 5.04.87.7 2.05 1.94 2.99 3z" fill="#c72030" fill-rule="evenodd"/><path d="m62.35 37.45.17-.83c-.94-1.07-2.12-2.3-2.99-3-1.04-.84-4.46-3.5-9.74-5.04-5.6-1.63-10.84-1.58-16.33.04-4.94 1.45-10.38 5.29-12.06 6.53.5 1.46 1.01 2.93 1.52 4.39 1.57-1.43 10.08-8.36 21.68-8.79 5.24-.19 10.38.94 13.52 3 1.68 1.11 3.12 2.49 4.23 3.71z" fill="#ffcc32" fill-rule="evenodd"/><g clip-path="url(#a)" fill="none"><path d="m67.57 24.96-24.55-9.59-3.3 28.38 17.84 6.94z" fill="url(#b)" fill-rule="evenodd"/></g><g clip-path="url(#c)" fill="none"><path d="m64.83 19.23-24.55-9.59-3.31 28.38 17.85 6.94z" fill="url(#d)" fill-rule="evenodd"/><path d="m57.31 31.11h7.92v5.25h-7.92z" fill="#6d5f27" transform="matrix(.27614063 -.96111724 .96111724 .27614063 11.93 83.31)"/></g><g clip-path="url(#e)" fill="none"><path d="m65.46 28.48-21.35-8.33-2.87 24.67 15.52 6.04z" fill="url(#f)" fill-rule="evenodd"/><path d="m61.31 33.61h3.01v5.12h-3.01z" fill="#6d5f27"/></g><g clip-path="url(#g)" fill="none"><path d="m66.58 31.06h37.65v21.96h-37.65z" fill="#fbd41e" transform="matrix(.90967154 -.41532841 .41532841 .90967154 -9.75 39.26)"/><path d="m65.51 39.06 35.56-16.93s5.77-.89 5.42 1.72c-.41 3.09-23.94 32.31-40.61 16.46-1.37-.89-.37-1.25-.37-1.25z" fill="#045da9"/><path d="m58.74 46.95 24.71 9.17 2.82-28.43-17.96-6.64z" fill="url(#h)" fill-rule="evenodd"/></g><path d="m129.88 55.75v-3.03c-.01-.4-.16-.66-.44-.88-.28-.23-.54-.34-.94-.35h-.15c-.41.01-.68.15-.96.41s-.42.53-.43.92v2.81c.01.39.16.66.43.92.28.26.55.4.96.41h.15c.39 0 .66-.12.94-.35.28-.22.43-.46.44-.84zm-.18 2.21s-.1.07-.15.11h-.01s-.02.03-.03.04c0 0-.02.01-.03.02-.01 0-.02.01-.03.02 0 0-.02.02-.03.02s-.03.01-.04.02c-.01 0-.03.01-.04.02-.01 0-.03.01-.04.02 0 0-.02.01-.04.02-.01 0-.03.01-.04.02-.01 0-.03.01-.04.02-.01 0-.03.01-.04.02-.01 0-.03.01-.04.02-.01 0-.03 0-.04.01-.01 0-.03 0-.04.01-.01 0-.03 0-.04.01-.01 0-.03 0-.04 0s-.03 0-.04 0-.03 0-.04 0-.03 0-.04 0c-.16.02-.32.04-.48.04h-.12c-.81-.02-1.48-.28-2.02-.79s-.82-1.15-.84-1.92v-3.02c.02-.77.3-1.41.84-1.92s1.21-.77 2.02-.8h.16c.15 0 .3.01.43.03h.04s.03 0 .04.01h.04.04c.01 0 .03 0 .04.01.01 0 .03 0 .04.01.01 0 .03 0 .04.01.02 0 .03 0 .04.01.01 0 .03.01.04.02.01 0 .03.01.04.02.01 0 .03.01.04.02.01 0 .03.01.04.02.01 0 .03.01.04.02.01 0 .02.01.04.02.01 0 .02.01.04.02s.02.02.02.02h.02s.01.02.01.02h.02s.01.02.01.02h.02s.01.02.01.02h.01s.01.02.01.02h.01s.01.02.01.02h.01s.02.02.02.02.01.02.01.02h.01s0 .02 0 .02.01 0 .03.02c0 0 .01 0 .02.01 0 0 .02 0 .03.01h.03.03c.01 0 .02 0 .03-.01 0 0 .02 0 .03-.01 0 0 .02-.01.02-.02 0 0 .01-.01.02-.02 0 0 .01-.02.02-.03 0-.01 0-.02 0-.03s0-.02 0-.03c0-.1 0-.24.11-.27.06-.02.15 0 .21 0h1.02c.11 0 .26-.03.3.1.03.09 0 .29 0 .39v6.45c0 .57.02 1.15-.04 1.72-.18 1.59-.97 2.94-2.66 3.24-1.02.18-2.03-.18-2.82-.83-.1-.08-.3-.21-.29-.35 0-.05.03-.09.05-.13 0 0 .65-.69.7-.75.04-.05.11-.12.18-.12.1 0 .21.1.4.2.32.19.66.36 1.02.41.23.04.48 0 .7-.07.85-.28 1.09-1.35 1.14-2.2v-.03s0 0 0-.01c0 0 0 0 0-.01 0 0 0 0 0-.01 0 0 0 0 0-.01 0 0 0 0 0-.01 0 0 0 0 0-.01 0 0 0 0 0-.01 0 0 0 0-.01 0 0 0 0 0 0-.01 0 0 0 0-.01 0 0 0 0 0-.01 0 0 0 0 0-.02 0 0 0 0 0-.01 0h-.01s0 0-.02 0c0 0 0 0-.01 0h-.01s0 0-.02 0c0 0 0 0-.01 0 0 0-.02.01-.02.01z" fill="#d71d24"/><path d="m143.06 58.24v-1.11c0-.06-.02-.11-.05-.14s-.08-.04-.13-.04h-3.06c-.07 0-.12-.01-.16-.04-.03-.02-.05-.05-.05-.1 0-.04.02-.1.04-.13l3.35-6.32s.02-.04.03-.06c0-.02.01-.05.01-.07 0-.09-.07-.15-.2-.15h-5.49c-.12 0-.19.06-.19.18v1.11c0 .12.06.19.19.19h2.87c.06 0 .12.01.15.04s.05.06.05.11c0 .02 0 .04-.01.06 0 .03-.02.05-.03.07l-3.38 6.32s-.02.04-.03.06c0 .03-.01.04-.01.07 0 .09.07.14.2.15h5.71c.06 0 .11-.02.14-.04.03-.03.04-.08.04-.14z" fill="#d71d24"/><path d="m133.57 49c0 .06.02.11.06.14.04.04.09.06.17.06h1.15c.08 0 .13-.02.17-.06.03-.03.05-.08.05-.14v-1.32c0-.08-.02-.14-.06-.17-.04-.04-.09-.05-.17-.06h-.09c-.07 0-.13.02-.2.08l-.97 1.08-.04.06c-.05.06-.07.11-.07.17v.15z" fill="#d71d24"/><path d="m135.16 50.26c0-.07-.02-.12-.04-.15-.04-.04-.09-.05-.15-.05h-1.2c-.07 0-.12.02-.15.06s-.04.08-.05.14v7.97c0 .07.02.12.05.15.04.04.08.05.15.05h1.2c.07 0 .12-.02.15-.06s.04-.08.04-.14z" fill="#d71d24"/><path d="m147.24 58.28s-.05-.04-.08-.04h-.74l.83-1.6s.02-.05.02-.08c0-.04-.01-.07-.04-.09s-.06-.04-.1-.04h-.84s-.07 0-.09.04c-.02.02-.03.05-.03.08s0 .05.03.08c.02.02.05.03.09.03h.69l-.83 1.59s-.02.04-.02.07c0 .04.01.07.04.1.02.03.05.04.1.04h.88s.06 0 .08-.04c.02-.02.03-.05.03-.08s0-.05-.03-.08zm1.43-1.13s0-.06-.03-.08c-.02-.02-.05-.03-.08-.03s-.05 0-.07.03c-.03.02-.04.05-.04.08v.86c0 .07-.02.13-.07.17-.05.05-.11.07-.18.07h-.02c-.07 0-.13-.03-.18-.07-.05-.05-.07-.11-.07-.17v-.86s-.01-.06-.04-.08c-.02-.02-.05-.03-.08-.03s-.05 0-.08.03c-.02.02-.04.05-.04.08v.86c0 .08.01.15.04.21.02.06.06.11.1.15s.09.07.15.08c.06.02.12.03.18.03h.02c.05 0 .1 0 .14-.02.05-.02.08-.04.11-.07 0 .03.02.05.04.07s.05.02.07.02c.03 0 .05 0 .08-.03.02-.02.03-.04.03-.08v-1.22zm1.5.91c0-.1-.02-.17-.06-.23-.04-.05-.09-.1-.14-.13s-.12-.05-.18-.07c-.07-.01-.13-.03-.19-.04-.05-.01-.1-.03-.14-.06s-.06-.06-.06-.12c0-.05.03-.09.07-.12s.11-.04.19-.04h.01c.06 0 .12 0 .15.03.04.02.07.04.1.05s.05.02.07.02c.03 0 .06-.01.08-.03s.03-.04.03-.07c0-.04-.01-.06-.04-.09-.01 0-.03-.02-.05-.04-.02-.01-.05-.03-.08-.04s-.07-.02-.11-.03c-.04 0-.09-.01-.14-.01h-.01s-.1 0-.15.02c-.06.01-.11.03-.16.06s-.09.07-.12.12-.05.11-.05.18c0 .09.02.16.06.21s.09.09.14.11c.05.03.12.05.18.06.07.01.13.03.18.04.06.02.1.04.14.07s.06.08.06.14-.03.1-.08.14-.12.06-.21.06h-.02c-.05 0-.11-.02-.17-.05-.06-.04-.1-.08-.14-.13-.01-.02-.03-.03-.05-.04-.02 0-.03 0-.05 0-.03 0-.06 0-.08.03-.02.02-.04.04-.04.08 0 0 0 .03.01.05.03.05.05.09.09.12.04.04.08.07.12.09s.09.05.14.06c.05.02.1.02.14.02h.02c.06 0 .12 0 .18-.03.06-.02.12-.04.16-.08.05-.03.09-.08.12-.13s.04-.11.04-.18zm1.55.24s-.04-.04-.07-.04c-.05 0-.08-.04-.08-.1v-.68c0-.06-.01-.12-.04-.18-.02-.05-.06-.1-.1-.14s-.09-.07-.15-.1c-.06-.02-.12-.04-.18-.04h-.02s-.08 0-.12.01-.08.03-.12.04c-.04.02-.08.05-.11.08-.04.04-.06.08-.09.13 0 .01-.01.03-.01.05 0 .03.01.06.04.08.02.02.05.03.07.03s.04 0 .06-.01c.02 0 .03-.03.04-.05.03-.05.06-.08.09-.11s.08-.04.14-.04h.02c.06 0 .12.02.17.05.05.04.07.1.07.19v.03.02c-.01.02-.04.03-.08.04-.04 0-.09.02-.15.03s-.11.02-.17.04-.12.04-.17.07-.09.07-.13.12c-.03.05-.05.11-.05.19v.04c0 .07.01.13.04.18s.06.1.11.13c.04.03.09.06.15.08.05.02.11.03.17.03h.03c.12 0 .23-.04.32-.11.02.03.04.05.08.07.03.02.07.03.12.04h.02c.03 0 .06-.01.08-.03s.03-.05.03-.08c0-.02 0-.05-.02-.07zm-.37-.3c0 .07-.03.13-.08.18s-.11.07-.18.07h-.03c-.07 0-.13-.02-.18-.05-.05-.04-.07-.09-.07-.15v-.03c0-.05.02-.09.05-.12s.08-.05.13-.06c.05-.02.11-.03.17-.04.06 0 .12-.02.18-.03v.23zm2.57-.5c0-.08-.01-.15-.04-.21s-.06-.11-.1-.15-.09-.07-.15-.08c-.06-.02-.12-.03-.18-.03h-.03c-.07 0-.14.01-.2.04s-.11.07-.16.12c-.04-.05-.1-.09-.16-.12s-.13-.04-.2-.04h-.03c-.05 0-.1 0-.14.02s-.08.04-.11.06c0-.03-.02-.05-.04-.07-.02-.01-.04-.02-.07-.02s-.05 0-.08.03c-.02.02-.04.05-.04.08v1.22s.02.06.04.08.05.03.08.03.05 0 .08-.03c.02-.02.04-.05.04-.08v-.89c0-.07.03-.12.08-.16s.11-.06.18-.06h.03c.07 0 .13.02.18.07s.07.11.07.18v.86s.01.07.04.09.05.03.08.03.05 0 .08-.03c.02-.02.04-.05.04-.09v-.86c0-.07.02-.13.07-.18s.11-.07.18-.07h.03c.07 0 .13.02.18.06s.07.1.07.18v.87s.01.06.04.08c.02.02.05.03.07.03s.05 0 .08-.03c.03-.02.04-.05.04-.08v-.87zm2.24 0c0-.08-.01-.15-.04-.21-.02-.06-.06-.11-.1-.15s-.09-.07-.15-.08c-.06-.02-.12-.03-.18-.03h-.03c-.07 0-.14.01-.21.04-.06.03-.11.07-.16.12-.04-.05-.1-.09-.16-.12s-.13-.04-.2-.04h-.03s-.1 0-.14.02c-.05.02-.08.04-.11.06 0-.03-.02-.05-.04-.07-.02-.01-.04-.02-.07-.02s-.05 0-.08.03c-.02.02-.03.05-.03.08v1.22s.01.06.03.08c.03.02.05.03.08.03s.05 0 .08-.03c.02-.02.03-.05.03-.08v-.89c0-.07.03-.12.08-.16s.11-.06.18-.06h.03c.07 0 .13.02.18.07s.07.11.07.18v.86s.01.07.04.09c.02.02.05.03.08.03s.05 0 .08-.03c.02-.02.04-.05.04-.09v-.86c0-.07.03-.13.07-.18.05-.05.11-.07.18-.07h.03c.07 0 .13.02.18.06.04.04.07.1.07.18v.87s.01.06.04.08c.02.02.05.03.08.03s.05 0 .07-.03c.02-.02.04-.05.04-.08v-.87zm1.46 0c0-.07-.01-.13-.04-.19s-.06-.11-.1-.15-.09-.08-.15-.1-.12-.04-.18-.04h-.03c-.06 0-.12.01-.18.04-.06.02-.11.06-.15.1s-.08.09-.1.15c-.03.06-.04.12-.04.18v.5c0 .07 0 .13.04.18.02.06.05.11.1.15.04.04.09.08.15.1s.12.04.18.04h.03c.1 0 .19-.03.26-.08.08-.05.13-.12.17-.2 0-.01.01-.03.01-.05 0-.03-.01-.06-.04-.08-.02-.02-.05-.03-.08-.03-.02 0-.04 0-.06.02-.02.01-.03.03-.04.05-.02.04-.05.07-.09.1s-.08.04-.14.04h-.03c-.07 0-.12-.03-.17-.07-.05-.05-.07-.11-.07-.18v-.15h.64s.06-.01.08-.03.03-.05.03-.08v-.24zm-.22.15h-.53v-.15c0-.07.03-.13.07-.18.05-.05.11-.07.18-.07h.03c.06 0 .12.02.17.07s.07.11.07.18v.14zm1.68-.15c0-.08-.01-.15-.04-.21s-.06-.11-.1-.15-.09-.07-.15-.09c-.05-.02-.12-.03-.18-.03h-.03s-.1 0-.14.02-.08.04-.11.06c0-.03-.02-.05-.04-.07-.02-.01-.04-.02-.07-.02s-.06 0-.08.03c-.02.02-.04.05-.04.08v1.22s.01.06.04.08c.02.02.05.03.08.03s.05 0 .08-.03c.02-.02.04-.05.04-.08v-.86c0-.07.02-.13.07-.18s.11-.07.18-.07h.03c.07 0 .13.03.18.07.05.05.07.11.07.18v.86s0 .06.04.08c.02.02.05.03.08.03s.05 0 .08-.03c.02-.02.03-.05.03-.08v-.86zm1.58.8s-.04-.04-.07-.04c-.05 0-.07-.04-.07-.1v-.68c0-.06-.01-.12-.04-.18-.02-.05-.05-.1-.1-.14-.04-.04-.09-.07-.15-.1-.06-.02-.12-.04-.18-.04h-.02s-.08 0-.12.01-.08.03-.12.04c-.04.02-.07.05-.11.08-.04.04-.06.08-.09.13 0 .01-.01.03-.01.05 0 .03.01.06.04.08.02.02.05.03.08.03.02 0 .04 0 .06-.01.02 0 .03-.03.04-.05.03-.05.06-.08.1-.11s.08-.04.14-.04h.02c.06 0 .12.02.17.05.05.04.07.1.07.19v.03s0 .02 0 .02c-.01.02-.04.03-.08.04-.04 0-.09.02-.14.03-.06 0-.11.02-.17.04s-.12.04-.17.07-.09.07-.12.12c-.04.05-.05.11-.05.19v.04c0 .07.01.13.04.18s.06.1.11.13c.04.03.09.06.15.08s.11.03.17.03h.03c.12 0 .23-.04.32-.11.02.03.04.05.07.07s.07.03.12.04h.02c.04 0 .06-.01.08-.03s.03-.05.03-.08c0-.02 0-.05-.02-.07zm-.37-.3c0 .07-.03.13-.08.18s-.11.07-.18.07h-.03c-.07 0-.13-.02-.18-.05-.04-.04-.07-.09-.07-.15v-.03c0-.05.02-.09.05-.12s.08-.05.13-.06c.05-.02.11-.03.17-.04.06 0 .12-.02.17-.03v.23zm1.56-.83c-.04-.05-.08-.09-.13-.11-.06-.02-.11-.03-.17-.03-.04 0-.07 0-.1 0-.02 0-.05.01-.06.02-.02 0-.04.02-.05.03 0-.02-.02-.04-.04-.05-.02 0-.04-.01-.05-.01-.03 0-.05 0-.08.03-.03.02-.04.05-.04.08v1.22s.01.07.04.09c.02.02.05.03.08.03s.05 0 .07-.03c.02-.02.04-.05.04-.09v-.91s0-.05 0-.07.01-.04.03-.06c.01-.02.03-.03.06-.04s.06-.02.11-.02c.04 0 .06 0 .08.02s.04.03.05.04c.03.03.06.04.09.04s.05-.01.08-.03c.02-.02.03-.04.03-.08 0-.02 0-.05-.03-.08zm1.45.33c0-.07-.01-.13-.04-.18-.03-.06-.06-.11-.1-.15s-.09-.08-.15-.1c-.06-.03-.12-.04-.19-.04h-.02c-.05 0-.1 0-.15.03-.04.01-.08.04-.11.07v-.6s-.01-.07-.04-.08c-.02-.02-.05-.03-.07-.03-.03 0-.05 0-.08.03-.02.02-.04.05-.04.08v1.84s.01.06.04.08c.02.02.05.03.08.03.02 0 .05 0 .07-.02.02-.01.03-.04.04-.07.02.02.05.04.1.06.04.02.1.03.16.03h.03c.07 0 .13-.01.18-.04.06-.03.11-.06.15-.1s.08-.09.1-.15c.03-.05.04-.12.04-.18v-.5zm-.22.5c0 .07-.03.13-.07.17-.05.05-.11.07-.18.07h-.03c-.07 0-.12-.02-.17-.06s-.08-.1-.08-.17v-.54c0-.07.03-.12.08-.16s.11-.06.17-.06h.03c.07 0 .13.03.18.07.05.05.07.11.07.18zm1.68-.5c0-.07-.01-.13-.04-.19s-.06-.11-.1-.15-.09-.08-.15-.1-.12-.04-.18-.04h-.03c-.06 0-.12.01-.18.04-.06.02-.11.06-.15.1s-.08.09-.1.15c-.03.06-.04.12-.04.18v.5c0 .07.01.13.04.18.02.06.06.11.1.15s.09.08.15.1.12.04.18.04h.03c.1 0 .19-.03.26-.08s.13-.12.16-.2c0-.01.01-.03.01-.05 0-.03-.01-.06-.04-.08-.02-.02-.05-.03-.08-.03-.02 0-.04 0-.05.02-.02.01-.03.03-.04.05-.02.04-.05.07-.09.1s-.08.04-.14.04h-.03c-.07 0-.13-.03-.18-.07-.05-.05-.07-.11-.07-.18v-.15h.64s.06-.01.08-.03.03-.05.03-.08v-.24zm-.22.15h-.53v-.15c0-.07.03-.13.08-.18s.11-.07.18-.07h.03c.06 0 .12.02.17.07s.07.11.07.18v.14zm.95-1.12s-.01-.07-.04-.08c-.02-.02-.05-.03-.07-.03s-.05 0-.08.03c-.02.02-.03.05-.03.08v.07s.01.06.03.08c.03.02.05.03.08.03s.05 0 .07-.03c.02-.02.04-.05.04-.08zm0 .61s-.01-.06-.04-.08c-.02-.02-.05-.03-.07-.03s-.05 0-.08.03c-.02.02-.03.05-.03.08v1.22s.01.06.03.08c.03.02.05.03.08.03s.05 0 .07-.03c.02-.02.04-.05.04-.08zm1.16 1.15s-.04-.04-.08-.04-.08-.02-.12-.05-.05-.07-.05-.12v-.82h.16s.07-.01.08-.04c.02-.02.03-.05.03-.08s0-.05-.03-.07c-.02-.03-.05-.04-.08-.04h-.16v-.51s-.01-.07-.04-.08c-.02-.02-.05-.03-.08-.03s-.05 0-.08.03c-.02.02-.04.05-.04.08v.51h-.1s-.06.01-.08.04c-.02.02-.03.05-.03.07s0 .05.03.08c.02.02.05.04.08.04h.1v.83c0 .05 0 .1.03.15.02.05.05.09.08.12.04.03.08.06.12.08s.1.03.15.03c.04 0 .07-.01.08-.03.02-.02.03-.05.03-.08s0-.05-.03-.08zm1.66.14c-.05-.07-.09-.16-.12-.25-.04-.1-.06-.2-.09-.32-.02-.11-.03-.23-.03-.36s0-.24.03-.35c.02-.11.05-.22.09-.31.04-.1.07-.18.12-.26.04-.08.09-.14.14-.19.02-.02.03-.05.03-.07s-.01-.05-.04-.07-.05-.03-.08-.03-.05.01-.08.04c-.06.06-.12.14-.17.23s-.1.19-.14.29c-.04.11-.07.22-.09.35-.02.12-.04.25-.04.38s.01.27.04.39.05.24.1.35c.04.11.09.21.14.29.05.09.11.16.17.22.02.02.05.04.07.04.03 0 .05-.01.08-.04.03-.02.04-.04.04-.07s0-.05-.03-.07c-.05-.05-.1-.11-.15-.19zm1.67-.97s-.01-.05-.04-.08c-.02-.02-.05-.03-.07-.03h-.42s-.06.01-.08.03-.03.05-.03.08 0 .05.03.08c.02.02.05.03.08.03h.31v.34s0 .09-.03.13c-.02.04-.04.07-.07.11-.03.03-.06.05-.11.07-.04.02-.08.03-.13.03h-.03s-.09 0-.13-.03c-.04-.02-.08-.04-.11-.07s-.05-.07-.07-.11-.03-.08-.03-.13v-.95s0-.09.03-.13c.02-.04.04-.07.07-.1s.07-.06.11-.07c.04-.02.08-.02.13-.02h.03c.1 0 .17.02.23.08.05.05.09.12.11.21 0 .03.02.06.04.07s.04.02.07.02.05 0 .07-.03c.03-.02.04-.05.04-.08v-.02c-.01-.07-.03-.13-.06-.19s-.07-.11-.12-.15-.11-.07-.17-.1c-.06-.02-.13-.04-.2-.04h-.03c-.07 0-.15.02-.21.04-.07.03-.13.07-.18.12s-.09.11-.12.18-.04.14-.04.22v.95c0 .08.01.15.04.22s.07.13.12.17c.05.05.11.09.18.12s.14.04.21.04h.03c.08 0 .15-.01.22-.04s.13-.07.18-.12.09-.11.12-.17c.03-.07.04-.14.04-.22v-.46zm.81-.94s-.01-.07-.04-.08c-.02-.02-.05-.03-.08-.03s-.05 0-.08.03c-.02.02-.03.05-.03.08v1.84s0 .06.03.08c.02.02.05.03.08.03s.05 0 .08-.03c.02-.02.04-.05.04-.08zm1.63 1.74s-.05-.04-.08-.04h-.74l.83-1.6s.02-.05.02-.08c0-.04-.01-.07-.04-.09s-.06-.04-.1-.04h-.84s-.07 0-.08.04c-.02.02-.03.05-.03.08s0 .05.03.08c.02.02.05.03.08.03h.69l-.83 1.59s-.02.04-.02.07c0 .04 0 .07.03.1.02.03.05.04.1.04h.88s.06 0 .08-.04c.02-.02.03-.05.03-.08s0-.05-.03-.08zm1.01-1.15c-.02-.12-.05-.24-.09-.35s-.09-.21-.14-.29c-.05-.09-.11-.17-.17-.23-.02-.02-.05-.04-.08-.04-.02 0-.05.01-.08.03-.02.02-.04.05-.04.07s0 .05.03.07c.05.05.1.11.15.19.04.08.09.16.12.26.04.09.06.2.08.31s.03.23.03.35 0 .24-.03.36c-.02.11-.05.22-.09.32-.04.09-.08.18-.12.25-.05.08-.1.14-.15.19-.02.02-.03.05-.03.07 0 .03.01.05.04.08.02.02.05.04.08.04s.05-.01.07-.04c.06-.06.12-.13.18-.22.05-.09.1-.19.14-.29.04-.11.07-.23.09-.35.03-.12.04-.26.04-.39s-.01-.26-.04-.38zm2.32.34s-.01-.05-.04-.08c-.02-.02-.05-.03-.08-.03h-.42s-.06.01-.08.03-.03.05-.03.08 0 .05.03.08c.02.02.05.03.08.03h.31v.34s0 .09-.03.13c-.02.04-.04.07-.07.11-.03.03-.07.05-.11.07s-.08.03-.13.03h-.03s-.09 0-.13-.03c-.04-.02-.08-.04-.11-.07s-.05-.07-.07-.11-.03-.08-.03-.13v-.95s0-.09.03-.13c.02-.04.04-.07.07-.1s.06-.06.11-.07c.04-.02.08-.02.13-.02h.03c.09 0 .17.02.22.08.06.05.09.12.11.21 0 .03.02.06.04.07s.04.02.07.02.05 0 .08-.03c.02-.02.04-.05.04-.08v-.02c0-.07-.03-.13-.06-.19s-.07-.11-.12-.15-.11-.07-.17-.1c-.06-.02-.13-.04-.2-.04h-.03c-.08 0-.15.02-.21.04-.07.03-.13.07-.18.12s-.09.11-.12.18-.04.14-.04.22v.95c0 .08.01.15.04.22s.07.13.12.17c.05.05.11.09.18.12s.14.04.21.04h.03c.07 0 .15-.01.21-.04.07-.03.13-.07.18-.12s.09-.11.12-.17c.03-.07.04-.14.04-.22v-.46zm2.26.03c0-.08 0-.15-.04-.21-.03-.06-.06-.11-.1-.15s-.09-.07-.15-.08c-.06-.02-.12-.03-.18-.03h-.02c-.08 0-.14.01-.21.04-.06.03-.11.07-.16.12-.05-.05-.1-.09-.16-.12s-.13-.04-.21-.04h-.03s-.1 0-.14.02-.08.04-.11.06c0-.03-.02-.05-.04-.07-.02-.01-.04-.02-.07-.02s-.06 0-.08.03c-.02.02-.03.05-.03.08v1.22s0 .06.03.08c.02.02.05.03.08.03s.05 0 .08-.03c.02-.02.03-.05.03-.08v-.89c0-.07.03-.12.08-.16s.11-.06.18-.06h.03c.07 0 .13.02.18.07s.07.11.07.18v.86s.01.07.04.09c.02.02.05.03.08.03s.05 0 .07-.03c.03-.02.04-.05.04-.09v-.86c0-.07.02-.13.07-.18s.11-.07.18-.07h.02c.07 0 .13.02.18.06s.07.1.07.18v.87s.01.06.04.08c.02.02.05.03.07.03.03 0 .05 0 .08-.03.02-.02.03-.05.03-.08v-.87zm1.52 0c0-.07-.01-.13-.04-.18-.03-.06-.06-.11-.1-.15s-.09-.08-.15-.1c-.06-.03-.12-.04-.19-.04h-.02s-.1 0-.15.03c-.04.01-.08.04-.11.07v-.6s-.01-.07-.04-.08c-.02-.02-.05-.03-.08-.03s-.05 0-.08.03c-.02.02-.03.05-.03.08v1.84s.01.06.03.08c.03.02.05.03.08.03s.05 0 .07-.02c.02-.01.03-.04.04-.07.02.02.05.04.09.06s.09.03.16.03h.03c.06 0 .12-.01.18-.04s.11-.06.15-.1.08-.09.1-.15c.03-.05.04-.12.04-.18v-.5zm-.22.5c0 .07-.02.13-.07.17-.05.05-.11.07-.18.07h-.03c-.07 0-.12-.02-.18-.06-.05-.04-.07-.1-.07-.17v-.54c0-.07.03-.12.07-.16.05-.04.11-.06.18-.06h.03c.07 0 .13.03.18.07.05.05.07.11.07.18zm1.91-1.47s-.01-.07-.03-.08c-.02-.02-.05-.03-.08-.03s-.05 0-.08.03c-.02.02-.04.05-.04.08v.77h-.69v-.77s-.01-.07-.04-.08c-.02-.02-.05-.03-.08-.03s-.05 0-.08.03c-.02.02-.04.05-.04.08v1.84s.01.06.04.08c.02.02.05.03.08.03s.05 0 .08-.03c.02-.02.04-.05.04-.08v-.84h.69v.84s.01.07.04.08c.03.02.05.03.08.03s.05 0 .08-.03c.02-.02.03-.04.03-.08z" fill="#d71d24"/><path d="m146.8 53.26s-.04-.04-.08-.04c-.05 0-.11 0-.15.03-.05.02-.09.05-.12.08s-.06.07-.08.12-.03.1-.03.15v.23h-.06s-.06.01-.08.04c-.02.02-.03.05-.03.08s0 .05.03.08c.02.02.04.03.08.03h.06v1.1s.01.07.03.08c.03.02.05.02.08.02s.05 0 .08-.02c.02-.02.04-.04.04-.08v-1.1h.14s.06-.01.08-.03.03-.05.03-.08 0-.05-.03-.08c-.02-.02-.04-.04-.08-.04h-.14v-.23s.02-.08.04-.12c.03-.03.07-.05.12-.05.04 0 .06-.01.08-.03s.03-.05.03-.08 0-.05-.03-.08zm1.3.08s-.01-.06-.04-.08c-.02-.02-.05-.03-.08-.03s-.05 0-.07.03c-.02.02-.04.05-.04.08v.06s.01.06.04.08c.02.02.05.03.08.03s.05-.01.07-.03c.03-.02.04-.05.04-.08zm-.54 0s-.01-.06-.04-.08c-.02-.02-.05-.03-.08-.03s-.05 0-.08.03c-.02.02-.04.05-.04.08v.06s.01.06.04.08c.02.02.05.03.08.03s.05-.01.08-.03c.02-.02.04-.05.04-.08zm.65.61s-.01-.06-.03-.08-.05-.03-.08-.03-.05 0-.08.03c-.02.02-.03.04-.03.08v.86c0 .07-.03.13-.07.18-.05.05-.11.07-.18.07h-.03c-.07 0-.12-.03-.17-.07-.05-.05-.07-.11-.07-.18v-.86s0-.06-.04-.08c-.02-.02-.05-.03-.08-.03s-.05 0-.08.03c-.02.02-.03.04-.03.08v.86c0 .08.01.15.04.21s.06.11.1.14c.04.04.09.07.15.08.06.02.12.03.18.03h.03c.05 0 .1 0 .14-.02.04-.01.08-.04.11-.06 0 .03.02.05.04.06s.04.02.07.02.05 0 .08-.03c.02-.02.03-.04.03-.08v-1.22zm1.25.03c-.04-.05-.08-.09-.14-.11-.05-.02-.11-.04-.17-.04-.04 0-.07 0-.1 0-.02 0-.05.01-.06.02-.02 0-.04.02-.05.03-.01-.02-.03-.04-.04-.04-.02 0-.04-.01-.06-.01-.03 0-.05.01-.08.03s-.04.05-.04.08v1.22s0 .07.03.08c.02.02.05.03.08.03s.05 0 .07-.03c.03-.02.04-.05.04-.08v-.91s0-.05 0-.07.01-.04.03-.06c.01-.02.03-.04.06-.04.02-.01.06-.02.1-.02s.07 0 .09.02c.02.01.04.03.05.04.03.03.06.04.09.04s.05 0 .08-.03c.02-.02.03-.05.03-.08 0-.02 0-.05-.03-.08zm1.67-.64s-.01-.06-.04-.08c-.02-.02-.05-.03-.08-.03s-.05 0-.08.03c-.02.02-.03.05-.03.08v1.84s.01.07.03.08c.03.02.05.02.08.02s.05 0 .08-.02c.02-.02.04-.04.04-.08zm1.57.97c0-.08-.02-.15-.04-.21-.03-.06-.06-.11-.1-.15s-.09-.07-.15-.09-.12-.03-.18-.03h-.03c-.05 0-.1 0-.14.02s-.08.04-.11.07c0-.03-.02-.05-.04-.07s-.05-.02-.07-.02c-.03 0-.06.01-.08.03s-.04.05-.04.08v1.22s.01.07.04.08c.02.02.05.02.08.02.02 0 .05 0 .08-.02.02-.02.03-.04.03-.08v-.86c0-.07.03-.13.08-.18s.11-.07.17-.07h.03c.07 0 .13.03.18.08s.07.11.07.17v.86s.01.07.04.08c.02.02.05.02.07.02.03 0 .05 0 .08-.02.02-.02.04-.04.04-.08v-.86zm1.1.79s-.04-.03-.08-.04c-.04 0-.08-.02-.12-.05s-.05-.07-.05-.12v-.82h.16s.06-.01.08-.03.03-.05.03-.08 0-.05-.03-.08c-.02-.02-.04-.04-.08-.04h-.16v-.51s-.01-.06-.04-.08c-.02-.02-.05-.03-.07-.03-.03 0-.05 0-.08.03-.02.02-.04.05-.04.08v.51h-.1s-.07.01-.08.04c-.02.02-.03.05-.03.08s0 .05.03.08c.02.02.05.03.08.03h.1v.83c0 .05 0 .1.03.15.02.05.05.09.08.12.03.04.07.06.12.08s.1.03.15.03c.04 0 .07 0 .09-.03.02-.02.03-.05.03-.07 0-.03 0-.05-.03-.07zm1.4-.79c0-.07-.01-.13-.04-.19-.02-.06-.06-.11-.1-.15s-.09-.08-.15-.1-.12-.04-.18-.04h-.03c-.06 0-.13.01-.18.04-.06.03-.11.06-.15.1s-.07.09-.1.15-.04.12-.04.18v.5c0 .07.01.13.04.19s.06.11.1.15.09.08.15.1.12.04.18.04h.03c.1 0 .19-.02.26-.08.07-.05.13-.12.17-.2 0-.01 0-.03 0-.05 0-.03 0-.06-.04-.08-.02-.02-.05-.03-.08-.03-.02 0-.04 0-.05.01-.02.01-.03.03-.04.06-.02.04-.05.08-.09.11s-.08.04-.14.04h-.03c-.07 0-.13-.03-.18-.07-.05-.05-.07-.11-.07-.18v-.15h.64s.06-.01.08-.03.03-.05.03-.08v-.24zm-.22.15h-.53v-.15c0-.07.03-.13.07-.18.05-.05.11-.07.18-.07h.03c.06 0 .12.03.17.07s.07.11.07.18v.15zm1.42-.48c-.04-.05-.08-.09-.13-.11-.06-.02-.11-.04-.17-.04-.04 0-.07 0-.1 0s-.05.01-.07.02c-.02 0-.04.02-.05.03 0-.02-.02-.04-.04-.04s-.04-.01-.05-.01c-.03 0-.05.01-.08.03-.02.02-.04.05-.04.08v1.22s.01.07.04.08c.02.02.05.03.08.03s.05 0 .08-.03c.02-.02.04-.05.04-.08v-.91s0-.05 0-.07.01-.04.03-.06c.01-.02.03-.04.06-.04.02-.01.06-.02.11-.02.04 0 .06 0 .09.02.02.01.04.03.05.04.03.03.06.04.09.04s.05 0 .08-.03c.02-.02.03-.05.03-.08 0-.02 0-.05-.03-.08zm1.38.33c0-.08-.01-.15-.04-.21s-.06-.11-.1-.15-.09-.07-.15-.09-.12-.03-.18-.03h-.03c-.05 0-.1 0-.14.02s-.08.04-.11.07c0-.03-.02-.05-.04-.07s-.04-.02-.07-.02-.06.01-.08.03c-.03.02-.04.05-.04.08v1.22s0 .07.04.08c.02.02.05.02.08.02s.05 0 .08-.02c.02-.02.04-.04.04-.08v-.86c0-.07.02-.13.07-.18s.11-.07.18-.07h.03c.07 0 .13.03.18.08s.07.11.07.17v.86s0 .07.03.08c.02.02.05.02.08.02s.05 0 .08-.02c.02-.02.04-.04.04-.08v-.86zm1.58.79s-.04-.04-.07-.04c-.05-.01-.08-.04-.08-.1v-.68c0-.06-.01-.12-.04-.17s-.05-.1-.1-.15c-.04-.04-.09-.07-.15-.1-.06-.02-.12-.04-.18-.04h-.02s-.08 0-.12.01c-.04 0-.08.02-.12.04s-.08.05-.11.08c-.04.04-.06.08-.09.13 0 .01-.01.03-.01.05 0 .03.01.05.04.08.02.02.05.03.07.03s.04 0 .05-.01c.02 0 .03-.02.04-.05.03-.05.06-.08.09-.11.04-.02.08-.04.14-.04h.02c.06 0 .12.02.17.05.04.04.07.09.07.18v.03.02c-.01.01-.04.03-.08.04-.04 0-.09.02-.15.03-.05 0-.11.02-.17.04-.06.01-.12.04-.17.07s-.09.07-.12.12c-.04.05-.05.11-.05.19v.04c0 .07.01.13.04.18s.06.1.11.13c.04.03.1.06.15.08s.11.02.17.02h.03c.12 0 .23-.04.32-.11.02.03.04.05.07.07s.07.03.12.04h.02c.04 0 .06 0 .08-.03.02-.02.03-.05.03-.08 0-.02 0-.05-.02-.07zm-.37-.29c0 .07-.03.13-.07.18-.05.05-.11.07-.18.07h-.03c-.07 0-.13-.02-.18-.06s-.07-.09-.07-.15v-.03s.02-.09.05-.12.08-.05.13-.06c.05-.02.11-.03.17-.04.06 0 .12-.02.17-.03v.23zm1.36.29s-.04-.03-.08-.04c-.04 0-.09-.02-.12-.05s-.05-.07-.05-.12v-.82h.16s.06-.01.08-.03.03-.05.03-.08 0-.05-.03-.08c-.02-.02-.04-.04-.08-.04h-.16v-.51s0-.06-.04-.08c-.02-.02-.05-.03-.08-.03s-.05 0-.08.03c-.02.02-.03.05-.03.08v.51h-.1s-.07.01-.08.04c-.02.02-.03.05-.03.08s0 .05.03.08c.02.02.04.03.08.03h.1v.83c0 .05 0 .1.03.15.02.05.04.09.08.12.04.04.08.06.12.08.05.02.1.03.15.03.04 0 .07 0 .08-.03.02-.02.03-.05.03-.07 0-.03 0-.05-.03-.07zm.72-1.76s-.01-.06-.04-.08c-.02-.02-.05-.03-.07-.03-.03 0-.05 0-.08.03-.02.02-.04.05-.04.08v.06s.01.06.04.08c.02.02.05.03.08.03s.05-.01.07-.03c.03-.02.04-.05.04-.08zm0 .61s-.01-.06-.04-.08c-.02-.02-.05-.03-.07-.03-.03 0-.05 0-.08.03-.02.02-.04.04-.04.08v1.22s.01.07.04.08c.02.02.05.02.08.02s.05 0 .07-.02c.03-.02.04-.04.04-.08zm1.5.36c0-.06-.01-.12-.04-.18s-.06-.11-.1-.15c-.04-.05-.09-.08-.15-.1s-.12-.04-.18-.04h-.03c-.06 0-.12.01-.18.04s-.11.06-.15.1-.08.09-.1.15-.04.12-.04.18v.5c0 .07.01.13.04.19.02.06.06.11.1.15s.09.08.15.1.12.04.18.04h.03c.06 0 .12-.01.18-.04s.11-.06.15-.1.08-.09.1-.15.04-.12.04-.19zm-.22.5c0 .07-.02.13-.07.18s-.11.07-.18.07h-.03c-.07 0-.13-.03-.18-.07-.05-.05-.08-.11-.08-.18v-.5c0-.07.03-.13.08-.17.05-.05.11-.08.17-.08h.03c.07 0 .13.03.18.08s.07.11.07.17v.5zm1.7-.5c0-.08-.01-.15-.04-.21s-.06-.11-.1-.15-.09-.07-.15-.09c-.05-.02-.12-.03-.18-.03h-.02c-.05 0-.1 0-.14.02s-.08.04-.11.07c0-.03-.02-.05-.04-.07s-.04-.02-.07-.02-.05.01-.08.03-.04.05-.04.08v1.22s0 .07.04.08c.02.02.05.02.07.02s.05 0 .08-.02c.02-.02.03-.04.03-.08v-.86c0-.07.03-.13.08-.18s.11-.07.18-.07h.03c.07 0 .13.03.18.08s.07.11.07.17v.86s.01.07.04.08c.02.02.05.02.08.02s.05 0 .08-.02c.02-.02.03-.04.03-.08v-.86zm1.58.79s-.04-.04-.07-.04c-.05-.01-.08-.04-.08-.1v-.68c0-.06-.01-.12-.03-.17-.03-.05-.06-.1-.1-.15-.04-.04-.09-.07-.15-.1-.06-.02-.12-.04-.18-.04h-.02s-.08 0-.12.01c-.04 0-.08.02-.12.04s-.08.05-.11.08c-.03.04-.06.08-.09.13v.05c0 .03 0 .05.03.08.02.02.05.03.08.03.02 0 .04 0 .06-.01.02 0 .03-.02.04-.05.03-.05.06-.08.09-.11.04-.02.08-.04.14-.04h.02c.06 0 .12.02.17.05.05.04.07.09.07.18v.03s0 .02 0 .02c-.01.01-.04.03-.08.04-.04 0-.09.02-.14.03-.05 0-.11.02-.17.04-.06.01-.12.04-.17.07s-.09.07-.12.12-.05.11-.05.19v.04c0 .07.01.13.04.18s.06.1.11.13c.04.03.09.06.15.08s.12.02.17.02h.03c.12 0 .23-.04.32-.11.02.03.04.05.08.07.03.02.07.03.12.04h.02c.04 0 .06 0 .08-.03.02-.02.03-.05.03-.08 0-.02 0-.05-.02-.07zm-.37-.29c0 .07-.02.13-.07.18s-.11.07-.18.07h-.03c-.07 0-.13-.02-.18-.06-.04-.04-.07-.09-.07-.15v-.03s.02-.09.05-.12c.04-.03.08-.05.13-.06.05-.02.11-.03.17-.04.06 0 .12-.02.17-.03v.23zm1.31.28s-.05-.03-.09-.03-.08-.02-.12-.05c-.03-.03-.04-.07-.04-.11v-1.56s-.01-.06-.04-.08c-.02-.02-.05-.03-.08-.03s-.05 0-.07.03c-.02.02-.04.05-.04.08v1.56c0 .05.01.1.03.15s.05.09.08.12c.04.04.08.06.12.08.05.02.1.03.15.03.04 0 .07 0 .09-.03.02-.02.03-.05.03-.07 0-.03 0-.05-.03-.08zm1.4-.78c0-.07-.01-.13-.04-.19s-.06-.11-.1-.15-.09-.08-.15-.1-.12-.04-.18-.04h-.03c-.06 0-.13.01-.18.04-.06.03-.11.06-.15.1s-.08.09-.1.15c-.03.06-.04.12-.04.18v.5c0 .07.01.13.04.19.02.06.06.11.1.15s.09.08.15.1.12.04.18.04h.03c.1 0 .19-.02.26-.08.08-.05.13-.12.17-.2 0-.01.01-.03.01-.05 0-.03-.01-.06-.04-.08-.02-.02-.05-.03-.08-.03-.02 0-.04 0-.05.01-.02.01-.03.03-.04.06-.02.04-.05.08-.09.11s-.08.04-.14.04h-.03c-.07 0-.13-.03-.18-.07-.05-.05-.07-.11-.07-.18v-.15h.64s.06-.01.08-.03.03-.05.03-.08zm-.22.15h-.53v-.15c0-.07.02-.13.08-.18.05-.05.11-.07.18-.07h.03c.06 0 .12.03.17.07s.07.11.07.18z" fill="#d71d24"/><path d="m147.44 50.6c0-.08-.02-.15-.04-.22-.03-.07-.07-.12-.12-.17s-.11-.09-.18-.12-.14-.04-.21-.04h-.47s-.06.01-.08.03-.03.05-.03.08v1.8s0 .06.03.08c.02.02.05.03.08.03h.47c.08 0 .15-.01.21-.04.07-.03.13-.07.18-.12s.09-.11.12-.18.04-.14.04-.22zm-.22.91s0 .09-.03.13c-.02.04-.04.07-.07.11-.03.03-.06.05-.1.07s-.08.03-.13.03h-.36v-1.58h.37s.09 0 .13.03c.04.02.07.04.1.07s.05.06.07.11.03.08.03.13v.91zm1.71-.4c0-.07-.01-.13-.04-.19s-.06-.11-.1-.15-.09-.08-.15-.1c-.05-.02-.12-.03-.18-.03h-.03c-.06 0-.12.01-.18.04-.06.02-.11.06-.15.1s-.08.09-.1.15c-.03.06-.04.12-.04.18v.5c0 .06.01.13.04.19.02.06.06.1.1.15.04.04.09.08.15.1.06.03.12.04.18.04h.03c.1 0 .19-.03.26-.08s.13-.12.16-.2c0-.01.01-.03.01-.05 0-.04-.01-.06-.04-.08-.02-.02-.05-.03-.08-.03-.02 0-.04 0-.06.02-.02.01-.03.03-.04.05-.02.04-.05.08-.09.11s-.09.04-.14.04h-.03c-.07 0-.13-.02-.18-.07s-.07-.11-.07-.17v-.15h.64s.06-.01.08-.03.03-.05.03-.08v-.24zm-.22.15h-.53v-.15c0-.07.02-.13.07-.18s.11-.07.18-.07h.03c.06 0 .12.03.17.07.05.05.08.11.08.18zm1.66-.51s-.01-.06-.04-.08c-.02-.02-.05-.03-.08-.03s-.05 0-.08.03c-.02.02-.04.05-.04.08v.86c0 .07-.02.12-.07.17s-.11.07-.18.07h-.03c-.07 0-.13-.02-.18-.07s-.07-.11-.07-.17v-.86s-.01-.06-.04-.08c-.02-.02-.05-.03-.08-.03s-.05 0-.07.03c-.03.02-.04.05-.04.08v.87c0 .08.01.15.04.21s.06.11.1.14c.04.04.09.07.15.08.06.02.12.03.18.03h.03s.1 0 .14-.02c.05-.02.08-.04.11-.06 0 .03.02.05.04.07.02.01.04.02.07.02s.05-.01.08-.03c.02-.02.04-.05.04-.08v-1.22zm1.14 1.15s-.04-.03-.08-.04c-.05 0-.09-.02-.12-.05-.04-.03-.05-.07-.05-.12v-.82h.16s.07-.01.08-.03c.02-.03.03-.05.03-.08s0-.05-.03-.08c-.02-.02-.05-.03-.08-.03h-.16v-.51s-.01-.07-.04-.08c-.02-.02-.05-.03-.07-.03-.03 0-.05 0-.08.03-.02.02-.04.05-.04.08v.51h-.1s-.06.01-.08.03c-.02.03-.03.05-.03.08s0 .05.03.08c.02.02.05.03.08.03h.1v.83c0 .05.01.1.03.15s.05.09.09.12c.04.04.07.06.12.08.04.02.1.03.15.03.04 0 .07-.01.09-.04.02-.02.03-.05.03-.08s0-.05-.02-.07zm1.44-.24c0-.09-.02-.17-.06-.23-.04-.05-.09-.1-.14-.13s-.12-.05-.18-.07c-.07-.01-.13-.03-.18-.04-.06-.02-.1-.04-.14-.06s-.06-.06-.06-.11.03-.09.07-.12.11-.05.19-.05h.01c.06 0 .12 0 .16.03.04.02.07.04.1.05s.05.02.07.02c.03 0 .06-.01.08-.03s.03-.05.03-.07c0-.04-.01-.06-.04-.09-.01 0-.03-.02-.05-.04-.02-.01-.05-.03-.08-.04s-.07-.02-.11-.03-.09-.01-.14-.01h-.01s-.1 0-.15.02c-.05.01-.11.03-.16.06s-.09.07-.12.12-.05.11-.05.17c0 .09.02.16.05.21.04.05.09.09.14.12.06.03.12.05.18.06s.13.03.18.05c.06.02.1.04.14.07s.05.08.05.14-.02.1-.07.15c-.05.04-.12.06-.21.06h-.01c-.05 0-.11-.02-.17-.06s-.1-.08-.14-.13c-.01-.02-.03-.03-.05-.04-.02 0-.04 0-.05 0-.03 0-.05 0-.08.03-.02.02-.03.05-.03.08 0 0 0 .03.01.06.02.04.05.09.09.12.04.04.08.07.12.09s.09.04.14.06c.05.01.1.02.14.02h.02c.06 0 .12 0 .18-.03.06-.02.12-.05.16-.08.05-.04.09-.08.12-.13s.04-.11.04-.18zm1.39-.14s-.05-.03-.08-.03-.05 0-.07.03c-.02.02-.04.05-.04.09 0 .07-.03.12-.08.17s-.1.07-.17.07h-.03c-.07 0-.13-.02-.18-.07s-.07-.11-.07-.17v-.5c0-.07.02-.12.07-.17s.11-.07.18-.07h.03c.07 0 .12.02.17.07s.07.11.08.18c0 .04.01.07.04.08.02.02.05.03.07.03.03 0 .05-.01.08-.03.02-.02.04-.05.04-.08 0-.07-.01-.13-.04-.18s-.06-.11-.1-.15-.09-.08-.15-.1-.12-.04-.18-.04h-.03c-.06 0-.13.01-.18.04-.06.02-.11.06-.15.1s-.07.09-.1.15-.04.12-.04.19v.5c0 .06.01.13.04.19.02.06.06.1.1.15.04.04.09.08.15.1.06.03.12.04.18.04h.03c.06 0 .12-.01.18-.04.06-.02.11-.06.15-.1s.08-.09.1-.15c.03-.06.04-.12.04-.18 0-.04-.01-.07-.04-.09zm1.51-.41c0-.07-.01-.13-.04-.18-.02-.06-.06-.11-.1-.15s-.09-.08-.15-.1-.12-.04-.18-.04h-.02c-.05 0-.1 0-.15.02-.05.01-.08.04-.11.06v-.59s-.01-.07-.04-.08c-.02-.02-.05-.03-.08-.03s-.05 0-.08.03c-.02.02-.04.05-.04.08v1.84s.01.07.04.08c.02.02.05.03.08.03s.05 0 .08-.03c.02-.02.04-.05.04-.08v-.88s0-.07.02-.1.04-.05.06-.08c.02-.02.05-.04.08-.04s.06-.02.1-.02.06 0 .1.02c.03 0 .06.03.09.04.03.02.04.05.06.08.01.03.02.07.02.11v.86s.01.07.04.08c.02.02.05.03.08.03s.05 0 .07-.03c.02-.02.04-.05.04-.08v-.86zm1.45 0c0-.07-.01-.13-.04-.19s-.06-.11-.1-.15-.09-.08-.15-.1-.12-.03-.18-.03h-.03c-.06 0-.12.01-.18.04-.06.02-.11.06-.15.1s-.08.09-.1.15c-.03.06-.04.12-.04.18v.5c0 .06.01.13.04.19.02.06.06.1.1.15.04.04.1.08.15.1.06.03.12.04.18.04h.03c.1 0 .19-.03.26-.08.08-.05.13-.12.16-.2 0-.01.01-.03.01-.05 0-.04-.01-.06-.03-.08s-.05-.03-.08-.03c-.02 0-.04 0-.05.02-.02.01-.03.03-.04.05-.02.04-.05.08-.09.11s-.08.04-.14.04h-.03c-.07 0-.13-.02-.18-.07s-.07-.11-.07-.17v-.15h.64s.06-.01.08-.03.03-.05.03-.08v-.24zm-.22.15h-.53v-.15c0-.07.03-.13.07-.18.05-.05.11-.07.18-.07h.03c.06 0 .12.03.17.07.05.05.07.11.07.18v.15zm2.81-.19s0-.05-.03-.08c-.02-.02-.05-.04-.08-.04h-.42s-.06.01-.08.04c-.02.02-.03.05-.03.08s0 .05.03.08c.02.03.04.04.08.04h.31v.34s0 .09-.03.13c-.02.04-.04.08-.07.11s-.07.05-.1.07c-.04.02-.09.03-.13.03h-.03s-.09 0-.13-.03c-.04-.02-.08-.04-.11-.07s-.05-.07-.07-.11-.03-.08-.03-.13v-.95s0-.09.03-.13.04-.07.07-.11c.03-.03.07-.05.11-.07s.08-.03.13-.03h.03c.1 0 .17.03.23.08.05.05.09.12.11.21 0 .03.02.06.04.07.02.02.04.02.07.02s.05 0 .08-.03c.02-.02.03-.04.03-.08v-.02c0-.07-.03-.13-.06-.19s-.07-.11-.12-.15-.11-.08-.17-.1c-.06-.03-.13-.04-.2-.04h-.03c-.08 0-.15.01-.22.04s-.13.07-.18.12-.09.11-.12.17c-.03.07-.04.14-.04.22v.95c0 .08.01.15.04.22s.07.13.12.18.11.09.18.12.14.04.22.04h.03c.08 0 .15-.01.22-.04s.12-.07.18-.12c.05-.05.09-.11.12-.18s.04-.14.04-.22v-.45zm1.49.04c0-.07-.01-.13-.04-.19-.02-.06-.05-.11-.1-.15-.04-.04-.09-.08-.15-.1s-.12-.03-.18-.03h-.03c-.07 0-.13.01-.18.04-.06.02-.11.06-.15.1s-.08.09-.1.15c-.03.06-.04.12-.04.18v.5c0 .06.01.13.04.19.02.06.06.1.1.15.04.04.09.08.15.1.06.03.12.04.18.04h.03c.1 0 .19-.03.26-.08.08-.05.13-.12.17-.2 0-.01.01-.03.01-.05 0-.04-.01-.06-.04-.08-.02-.02-.05-.03-.08-.03-.02 0-.04 0-.05.02-.02.01-.03.03-.04.05-.02.04-.05.08-.09.11s-.09.04-.14.04h-.03c-.07 0-.13-.02-.18-.07s-.07-.11-.07-.17v-.15h.64s.06-.01.08-.03.03-.05.03-.08v-.24zm-.22.15h-.53v-.15c0-.07.02-.13.08-.18.05-.05.11-.07.18-.07h.03c.06 0 .12.03.17.07.05.05.07.11.07.18zm1.69.4c0-.09-.02-.17-.06-.23-.04-.05-.08-.1-.14-.13s-.12-.05-.18-.07c-.06-.01-.13-.03-.18-.04-.06-.02-.1-.04-.14-.06s-.06-.06-.06-.11.02-.09.06-.12.11-.05.19-.05h.01c.07 0 .12 0 .15.03.04.02.07.04.1.05.02.01.04.02.06.02.03 0 .06-.01.08-.03s.03-.05.03-.07c0-.04-.01-.06-.04-.09-.01 0-.03-.02-.05-.04-.02-.01-.05-.03-.08-.04s-.07-.02-.11-.03-.09-.01-.14-.01h-.01s-.1 0-.15.02c-.06.01-.11.03-.16.06s-.09.07-.12.12-.05.11-.05.17c0 .09.02.16.06.21s.08.09.14.12c.05.03.12.05.18.06s.13.03.18.05c.06.02.1.04.14.07s.06.08.06.14-.03.1-.07.15c-.05.04-.12.06-.21.06h-.01c-.05 0-.11-.02-.17-.06-.05-.04-.1-.08-.14-.13-.01-.02-.03-.03-.05-.04-.02 0-.03 0-.05 0-.03 0-.05 0-.08.03-.03.02-.04.05-.04.08 0 0 0 .03.01.06.03.04.05.09.09.12.04.04.08.07.12.09s.09.04.14.06c.05.01.1.02.14.02h.02c.06 0 .12 0 .18-.03.06-.02.12-.05.16-.08.05-.04.09-.08.12-.13s.04-.11.04-.18zm1.42-.55c0-.07 0-.13-.04-.19-.03-.06-.06-.11-.1-.15s-.09-.08-.15-.1-.12-.03-.18-.03h-.03c-.06 0-.12.01-.18.04-.06.02-.11.06-.15.1s-.08.09-.1.15-.04.12-.04.18v.5c0 .06.01.13.04.19s.06.1.1.15c.04.04.1.08.15.1.06.03.12.04.18.04h.03c.1 0 .19-.03.26-.08.08-.05.13-.12.17-.2 0-.01.01-.03.01-.05 0-.04-.01-.06-.04-.08-.02-.02-.05-.03-.08-.03-.02 0-.04 0-.06.02-.02.01-.03.03-.04.05-.02.04-.05.08-.09.11s-.09.04-.14.04h-.03c-.07 0-.13-.02-.17-.07-.05-.05-.08-.11-.08-.17v-.15h.64s.06-.01.08-.03.03-.05.03-.08v-.24zm-.22.15h-.53v-.15c0-.07.03-.13.08-.18s.11-.07.18-.07h.03c.07 0 .12.03.17.07.05.05.07.11.07.18zm1.19.63s-.04-.03-.08-.03c-.05 0-.09-.02-.12-.05s-.04-.07-.04-.12v-1.56s-.01-.07-.04-.08c-.02-.02-.05-.03-.08-.03s-.05 0-.08.03c-.02.02-.04.05-.04.08v1.56c0 .05 0 .1.03.15.02.05.05.09.08.12.04.04.08.06.12.08.05.02.1.03.15.03.04 0 .07-.01.08-.04.02-.02.03-.05.03-.08s0-.05-.03-.08zm.92 0s-.05-.03-.08-.03c-.04 0-.08-.02-.12-.05-.03-.03-.04-.07-.04-.12v-1.56s-.01-.07-.04-.08c-.02-.02-.05-.03-.08-.03s-.05 0-.07.03c-.02.02-.04.05-.04.08v1.56c0 .05.01.1.03.15s.05.09.08.12c.04.04.08.06.12.08.05.02.1.03.15.03.04 0 .07-.01.08-.04.02-.02.03-.05.03-.08s0-.05-.03-.08zm1.45-.23c0-.09-.02-.17-.06-.23-.04-.05-.08-.1-.14-.13-.05-.03-.12-.05-.18-.07-.07-.01-.13-.03-.18-.04-.06-.02-.1-.04-.14-.06s-.05-.06-.05-.11.02-.09.07-.12c.04-.03.11-.05.19-.05h.01c.07 0 .12 0 .16.03.04.02.07.04.1.05.02.01.04.02.06.02.03 0 .06-.01.08-.03s.03-.05.03-.07c0-.04-.01-.06-.04-.09-.01 0-.03-.02-.05-.04-.02-.01-.05-.03-.08-.04s-.07-.02-.11-.03-.09-.01-.14-.01-.1 0-.15.02c-.06.01-.11.03-.16.06s-.09.07-.12.12-.05.11-.05.17c0 .09.02.16.06.21s.09.09.14.12.12.05.18.06c.07.01.13.03.19.05.05.02.1.04.14.07s.06.08.06.14-.03.1-.07.15c-.05.04-.12.06-.21.06h-.01c-.06 0-.11-.02-.17-.06s-.1-.08-.14-.13c-.01-.02-.03-.03-.04-.04-.02 0-.04 0-.05 0-.03 0-.05 0-.08.03-.02.02-.04.05-.04.08 0 0 0 .03.02.06.02.04.05.09.09.12.04.04.08.07.12.09s.09.04.14.06c.05.01.1.02.14.02h.02c.06 0 .12 0 .18-.03.06-.02.11-.05.16-.08.05-.04.09-.08.12-.13s.04-.11.04-.18zm1.39-.14s-.05-.03-.08-.03-.05 0-.07.03c-.02.02-.04.05-.04.09 0 .07-.03.12-.08.17s-.11.07-.17.07h-.03c-.07 0-.13-.02-.18-.07s-.07-.11-.07-.17v-.5c0-.07.02-.12.07-.17s.11-.07.18-.07h.03c.07 0 .12.02.17.07s.07.11.08.18c0 .04.01.07.04.08.02.02.05.03.07.03.03 0 .05-.01.08-.03.02-.02.04-.05.04-.08 0-.07-.01-.13-.04-.18-.02-.06-.06-.11-.1-.15s-.09-.08-.15-.1-.12-.04-.18-.04h-.03c-.07 0-.13.01-.19.04-.06.02-.11.06-.15.1s-.08.09-.1.15c-.03.06-.04.12-.04.19v.5c0 .06.01.13.04.19.02.06.06.1.1.15.04.04.09.08.15.1.06.03.12.04.19.04h.03c.06 0 .12-.01.18-.04.06-.02.11-.06.15-.1s.08-.09.1-.15.04-.12.04-.18c0-.04-.01-.07-.04-.09zm1.48-.41c0-.07-.01-.13-.04-.18-.02-.06-.06-.11-.1-.15s-.09-.08-.15-.1-.12-.04-.19-.04h-.02s-.1 0-.15.02c-.05.01-.08.04-.11.06v-.59s-.01-.07-.03-.08c-.03-.02-.05-.03-.08-.03s-.05 0-.08.03c-.02.02-.04.05-.04.08v1.84s.01.07.04.08c.02.02.05.03.08.03s.05 0 .08-.03c.02-.02.03-.05.03-.08v-.88s0-.07.02-.1.04-.05.06-.08c.02-.02.05-.04.08-.04s.06-.02.1-.02c.03 0 .06 0 .09.02.03 0 .06.03.09.04.02.02.04.05.06.08.01.03.02.07.02.11v.86s0 .07.04.08c.02.02.04.03.07.03s.05 0 .07-.03c.03-.02.04-.05.04-.08v-.86zm1.57.79s-.04-.03-.07-.04c-.05 0-.07-.04-.07-.1v-.68c0-.06-.01-.12-.04-.18-.02-.05-.06-.1-.1-.14s-.09-.07-.15-.1c-.06-.02-.12-.03-.18-.03h-.02s-.08 0-.12.01c-.04 0-.08.02-.12.04s-.07.05-.11.08c-.03.04-.06.08-.09.13 0 .01-.01.03-.01.05 0 .03.01.06.04.08.02.02.05.03.08.03.02 0 .04 0 .05-.01.02 0 .03-.02.04-.04.03-.05.06-.09.09-.11s.08-.04.14-.04h.02c.06 0 .12.02.17.05.05.04.07.1.07.19v.02.02c0 .02-.04.03-.08.04-.04 0-.09.02-.14.03s-.11.02-.17.04-.12.04-.17.07-.09.07-.13.12c-.03.05-.05.11-.05.19v.04c0 .07.01.13.04.18s.06.1.11.13c.04.04.09.06.15.08s.12.03.17.03h.03c.12 0 .23-.04.32-.11.02.03.04.05.08.07.03.02.07.03.12.04h.02c.04 0 .06-.01.08-.04.02-.02.03-.05.03-.08 0-.02 0-.05-.02-.07zm-.37-.29c0 .07-.02.13-.07.18s-.11.07-.18.07h-.03c-.07 0-.13-.02-.18-.06s-.07-.08-.07-.15v-.02c0-.05.02-.09.05-.11.03-.03.08-.05.13-.07s.11-.03.17-.04c.06 0 .12-.02.17-.03v.23zm1.35-1.55s-.04-.03-.08-.03c-.05 0-.1 0-.15.03-.04.02-.09.04-.12.08-.04.04-.06.08-.08.12-.02.05-.03.1-.03.15v.23h-.06s-.07.01-.08.03c-.02.03-.03.05-.03.08s0 .05.03.08c.02.02.04.03.08.03h.06v1.11s.01.07.04.08c.02.02.05.03.08.03s.05 0 .08-.03c.02-.02.04-.05.04-.08v-1.11h.14s.06-.01.08-.03c.02-.03.03-.05.03-.08s0-.05-.03-.08c-.02-.02-.05-.03-.08-.03h-.14v-.23s.02-.08.04-.12c.03-.03.07-.05.11-.05s.07-.01.08-.04c.02-.02.03-.05.03-.08s0-.05-.03-.08zm.96 1.84s-.04-.03-.08-.04c-.04 0-.09-.02-.12-.05s-.05-.07-.05-.12v-.82h.16s.06-.01.08-.03c.02-.03.03-.05.03-.08s0-.05-.03-.08c-.02-.02-.04-.03-.08-.03h-.16v-.51s-.01-.07-.04-.08c-.02-.02-.05-.03-.07-.03-.03 0-.05 0-.08.03-.02.02-.03.05-.03.08v.51h-.1s-.06.01-.08.03c-.02.03-.03.05-.03.08s0 .05.03.08c.02.02.04.03.08.03h.1v.83c0 .05 0 .1.03.15.02.05.05.09.08.12.04.04.07.06.12.08s.1.03.15.03c.04 0 .07-.01.08-.04.02-.02.03-.05.03-.08s0-.05-.03-.07z" fill="#d71d24"/><path d="m125.63 41.36v-3.22h.99c.2 0 .36.03.48.09s.21.16.29.29c.07.13.11.28.11.44 0 .15-.03.28-.1.4-.06.12-.16.21-.27.29.15.06.27.15.36.28s.13.3.13.5-.04.37-.12.51c-.08.15-.19.25-.32.32s-.32.1-.55.1h-1.01zm.35-1.87h.57c.15 0 .26-.01.32-.03.09-.03.16-.08.21-.15s.07-.17.07-.3c0-.12-.02-.21-.07-.29-.04-.08-.1-.13-.18-.16-.07-.03-.21-.04-.4-.04h-.53v.97zm0 1.49h.66c.14 0 .25-.01.32-.04.1-.04.18-.1.23-.19s.08-.2.08-.33c0-.12-.03-.22-.08-.31-.05-.08-.12-.15-.2-.18-.08-.04-.22-.06-.4-.06h-.61z" fill="#231f20"/><path d="m128.06 39.03h.32v1.78l.9-1.78h.35v2.33h-.32v-1.77l-.9 1.77h-.35z" fill="#231f20"/><path d="m130.12 39.03h.32v1.01c.1 0 .18-.02.22-.07s.1-.19.18-.42c.06-.19.11-.31.16-.37.04-.06.08-.1.14-.12s.14-.03.26-.03h.05v.33h-.1c-.07 0-.12.01-.15.04s-.05.07-.08.14c-.07.24-.13.39-.17.46s-.11.13-.2.18c.14.05.28.2.41.47l.36.72h-.36l-.35-.72c-.07-.15-.13-.24-.19-.29-.05-.05-.12-.07-.19-.07v1.08h-.32v-2.33z" fill="#231f20"/><path d="m131.61 40.2c0-.4.08-.71.25-.91.17-.21.38-.31.64-.31s.47.1.64.31c.17.2.26.5.26.89 0 .42-.08.73-.25.94s-.38.31-.64.31-.47-.1-.64-.31-.26-.51-.26-.91zm.33 0c0 .3.05.53.17.67.11.15.25.22.41.22.15 0 .28-.07.39-.22s.16-.37.16-.67-.06-.52-.16-.67c-.11-.15-.25-.22-.41-.22-.15 0-.29.07-.39.22-.11.15-.16.37-.16.67z" fill="#231f20"/><path d="m133.79 39.03h.32v.97h.9v-.97h.32v2.33h-.32v-1.04h-.9v1.04h-.32z" fill="#231f20"/><path d="m137.07 41.08c-.11.11-.22.2-.34.25-.12.06-.24.09-.36.09-.2 0-.36-.06-.48-.18s-.18-.28-.18-.49c0-.13.03-.25.08-.36.06-.1.13-.19.23-.24s.24-.1.44-.13c.26-.04.46-.09.58-.14v-.1c0-.16-.03-.27-.08-.34-.08-.09-.2-.14-.37-.14-.15 0-.26.03-.34.09s-.13.18-.17.35l-.32-.05c.04-.25.14-.43.28-.55.14-.11.34-.17.59-.17.2 0 .36.04.47.11.11.08.19.17.22.28s.04.27.04.49v.53c0 .37 0 .6.02.7.01.1.04.19.08.28h-.34c-.03-.08-.06-.18-.07-.29zm-.03-.88c-.12.06-.29.11-.53.15-.14.02-.23.05-.29.08-.05.03-.1.07-.13.13-.03.05-.04.12-.04.19 0 .11.03.2.1.27s.16.1.29.1c.12 0 .22-.03.32-.09.09-.06.16-.14.21-.24s.07-.25.07-.44v-.14z" fill="#231f20"/><path d="m137.88 39.03h.75c.17 0 .3.02.39.05s.17.1.24.2.11.22.11.37c0 .22-.08.39-.23.5.21.09.32.28.32.56 0 .18-.05.33-.16.46s-.29.19-.55.19h-.86v-2.33zm.32.98h.35c.14 0 .23 0 .28-.03.05-.02.1-.05.14-.11.04-.05.06-.12.06-.2 0-.12-.04-.21-.11-.25-.07-.05-.19-.07-.37-.07h-.36v.65zm0 1.03h.43c.18 0 .31-.03.38-.08.07-.06.11-.14.11-.26 0-.13-.04-.22-.11-.27s-.21-.08-.41-.08h-.4v.7z" fill="#231f20"/><path d="m141.15 40.61.33.05c-.06.25-.16.44-.3.56-.15.13-.33.19-.54.19-.27 0-.49-.1-.66-.31s-.25-.5-.25-.89.08-.71.25-.92.38-.32.64-.32.45.1.62.31c.16.21.25.51.25.9v.11h-1.43c.01.26.07.46.18.59s.24.2.4.2c.24 0 .41-.16.51-.48zm-1.07-.64h1.07c-.01-.2-.06-.35-.13-.45-.1-.14-.24-.22-.4-.22-.14 0-.27.06-.37.18s-.16.28-.17.49z" fill="#231f20"/><path d="m141.9 39.03h.32v2.01h.9v-2.01h.32v2.01h.21v1.22h-.27v-.89h-1.49v-2.33z" fill="#231f20"/><path d="m144 39.03h.32v.91h.41c.3 0 .51.07.64.21s.2.31.2.51c0 .19-.06.35-.18.49s-.31.21-.58.21h-.81zm.32 2.01h.34c.25 0 .4-.04.47-.12s.1-.17.1-.26c0-.12-.04-.22-.12-.29s-.22-.1-.41-.1h-.38z" fill="#231f20"/><path d="m146.03 39.48v-.45h.37v.45zm0 1.88v-.45h.37v.45z" fill="#231f20"/></svg>