<?xml version="1.0" encoding="UTF-8" standalone="no"?><!DOCTYPE svg PUBLIC "-//W3C//DTD SVG 1.1//EN" "http://www.w3.org/Graphics/SVG/1.1/DTD/svg11.dtd"><svg viewBox="0 0 233 61" version="1.1" xmlns="http://www.w3.org/2000/svg" xmlns:xlink="http://www.w3.org/1999/xlink" xml:space="preserve" xmlns:serif="http://www.serif.com/" style="fill-rule:evenodd;clip-rule:evenodd;stroke-linejoin:round;stroke-miterlimit:2;"><g><path d="M18.833,34.667l0,-12.709c-0.041,-1.666 -0.666,-2.75 -1.833,-3.666c-1.167,-0.959 -2.25,-1.417 -3.917,-1.459l-0.625,0c-1.708,0.042 -2.833,0.625 -4,1.709c-1.166,1.083 -1.75,2.208 -1.791,3.833l-0,11.708c0.041,1.625 0.666,2.75 1.791,3.834c1.167,1.083 2.292,1.666 4,1.708l0.625,0c1.625,0 2.75,-0.5 3.917,-1.458c1.167,-0.917 1.792,-1.917 1.833,-3.5Zm-0.75,9.125c0,-0 -0.416,0.291 -0.625,0.458l-0.041,0c-0,0 -0.084,0.125 -0.125,0.167c-0,-0 -0.084,0.041 -0.125,0.083c-0.042,0 -0.084,0.042 -0.125,0.083c-0,0 -0.084,0.084 -0.125,0.084c-0.042,-0 -0.125,0.041 -0.167,0.083c-0.042,0 -0.125,0.042 -0.167,0.083c-0.041,0 -0.125,0.042 -0.166,0.084c-0,-0 -0.084,0.041 -0.167,0.083c-0.042,0 -0.125,0.042 -0.167,0.083c-0.041,0 -0.125,0.042 -0.166,0.084c-0.042,-0 -0.125,0.041 -0.167,0.083c-0.042,0 -0.125,0.042 -0.167,0.083c-0.041,0 -0.125,0 -0.166,0.042c-0.042,0 -0.125,0 -0.167,0.042c-0.042,-0 -0.125,-0 -0.167,0.041l-0.666,0c-0.667,0.084 -1.334,0.167 -2,0.167l-0.5,0c-3.375,-0.083 -6.167,-1.167 -8.417,-3.292c-2.25,-2.125 -3.417,-4.791 -3.5,-8l0,-12.583c0.083,-3.208 1.25,-5.875 3.5,-8c2.25,-2.125 5.042,-3.208 8.417,-3.333l0.666,-0c0.625,-0 1.25,0.041 1.792,0.125l0.167,-0c-0,-0 0.125,-0 0.166,0.041l0.334,0c0.041,0 0.125,0 0.166,0.042c0.042,0 0.125,0 0.167,0.042c0.042,-0 0.125,-0 0.167,0.041c0.083,0 0.125,0 0.166,0.042c0.042,0 0.125,0.042 0.167,0.083c0.042,0 0.125,0.042 0.167,0.084c0.041,-0 0.125,0.041 0.166,0.083c0.042,0 0.125,0.042 0.167,0.083c0.042,0 0.125,0.042 0.167,0.084c0.041,-0 0.083,0.041 0.166,0.083c0.042,0 0.084,0.042 0.167,0.083c0.083,0.042 0.083,0.084 0.083,0.084l0.084,-0l0.041,0.083l0.084,0l0.041,0.083l0.084,0l0.041,0.084l0.042,-0l0.042,0.083l0.041,0l0.042,0.083l0.042,0l0.083,0.084l0.042,0.083l0.041,0l0,0.083c0,0 0.042,0 0.125,0.084c0,-0 0.042,-0 0.084,0.041c-0,0 0.083,0 0.125,0.042l0.25,0c0.041,0 0.083,0 0.125,-0.042c-0,0 0.083,0 0.125,-0.041c-0,-0 0.083,-0.042 0.083,-0.084c-0,0 0.042,-0.041 0.083,-0.083c0,0 0.042,-0.083 0.084,-0.125l-0,-0.25c-0,-0.417 -0,-1 0.458,-1.125c0.25,-0.083 0.625,0 0.875,0l4.25,0c0.458,0 1.083,-0.125 1.25,0.417c0.125,0.375 -0,1.208 -0,1.625l-0,26.875c-0,2.375 0.083,4.791 -0.167,7.166c-0.75,6.625 -4.041,12.25 -11.083,13.5c-4.25,0.75 -8.458,-0.75 -11.75,-3.458c-0.417,-0.333 -1.25,-0.875 -1.208,-1.458c-0,-0.209 0.125,-0.375 0.208,-0.542c-0,0 2.708,-2.875 2.917,-3.125c0.166,-0.208 0.458,-0.5 0.75,-0.5c0.416,0 0.875,0.417 1.666,0.833c1.334,0.792 2.75,1.5 4.25,1.709c0.959,0.166 2,-0 2.917,-0.292c3.542,-1.167 4.542,-5.625 4.75,-9.167l-0,-0.416l-0.042,-0l0,-0.042l-0.541,0l-0.084,0.042l-0.125,0.125Z" style="fill:#d71d24;fill-rule:nonzero;"/><path d="M73.75,44.958l0,-4.625c0,-0.25 -0.083,-0.458 -0.208,-0.583c-0.125,-0.125 -0.334,-0.167 -0.542,-0.167l-12.75,0c-0.292,0 -0.5,-0.041 -0.667,-0.166c-0.125,-0.084 -0.208,-0.209 -0.208,-0.417c0,-0.167 0.083,-0.417 0.167,-0.542l13.958,-26.333c-0,-0 0.083,-0.167 0.125,-0.25c0,-0.083 0.042,-0.208 0.042,-0.292c-0,-0.375 -0.292,-0.625 -0.834,-0.625l-22.875,0c-0.5,0 -0.791,0.25 -0.791,0.75l-0,4.625c-0,0.5 0.25,0.792 0.791,0.792l11.959,0c0.25,0 0.5,0.042 0.625,0.167c0.125,0.125 0.208,0.25 0.208,0.458c0,0.083 0,0.167 -0.042,0.25c0,0.125 -0.083,0.208 -0.125,0.292l-14.083,26.333c0,-0 -0.083,0.167 -0.125,0.25c0,0.125 -0.042,0.167 -0.042,0.292c0,0.375 0.292,0.583 0.834,0.625l23.791,-0c0.25,-0 0.459,-0.084 0.584,-0.167c0.125,-0.125 0.166,-0.333 0.166,-0.583l0.042,-0.084Z" style="fill:#d71d24;fill-rule:nonzero;"/><path d="M34.208,6.458c0,0.25 0.084,0.459 0.25,0.584c0.167,0.166 0.375,0.25 0.709,0.25l4.791,-0c0.334,-0 0.542,-0.084 0.709,-0.25c0.125,-0.125 0.208,-0.334 0.208,-0.584l0,-5.5c0,-0.333 -0.083,-0.583 -0.25,-0.708c-0.167,-0.167 -0.375,-0.208 -0.708,-0.25l-0.375,-0c-0.292,-0 -0.542,0.083 -0.834,0.333l-4.041,4.5l-0.167,0.25c-0.208,0.25 -0.292,0.459 -0.292,0.709l0,0.666Z" style="fill:#d71d24;fill-rule:nonzero;"/><path d="M40.833,11.708c0,-0.291 -0.083,-0.5 -0.166,-0.625c-0.167,-0.166 -0.375,-0.208 -0.625,-0.208l-5,0c-0.292,0 -0.5,0.083 -0.625,0.25c-0.125,0.167 -0.167,0.333 -0.209,0.583l0,33.209c0,0.291 0.084,0.5 0.209,0.625c0.166,0.166 0.333,0.208 0.625,0.208l5,0c0.291,0 0.5,-0.083 0.625,-0.25c0.125,-0.167 0.166,-0.333 0.166,-0.583l0,-33.209Z" style="fill:#d71d24;fill-rule:nonzero;"/></g><g><path d="M91.167,45.125c-0,0 -0.209,-0.167 -0.334,-0.167l-3.083,0l3.458,-6.666c0,-0 0.084,-0.209 0.084,-0.334c-0,-0.166 -0.042,-0.291 -0.167,-0.375c-0.125,-0.083 -0.25,-0.166 -0.417,-0.166l-3.5,-0c0,-0 -0.291,-0 -0.375,0.166c-0.083,0.084 -0.125,0.209 -0.125,0.334c0,0.125 0,0.208 0.125,0.333c0.084,0.083 0.209,0.125 0.375,0.125l2.875,-0l-3.458,6.625c0,0 -0.083,0.167 -0.083,0.292c-0,0.166 0.041,0.291 0.166,0.416c0.084,0.125 0.209,0.167 0.417,0.167l3.667,0c-0,0 0.25,0 0.333,-0.167c0.083,-0.083 0.125,-0.208 0.125,-0.333c0,-0.125 0,-0.208 -0.125,-0.333l0.042,0.083Zm5.958,-4.708c0,-0 0,-0.25 -0.125,-0.334c-0.083,-0.083 -0.208,-0.125 -0.333,-0.125c-0.125,0 -0.209,0 -0.292,0.125c-0.125,0.084 -0.167,0.209 -0.167,0.334l0,3.583c0,0.292 -0.083,0.542 -0.291,0.708c-0.209,0.209 -0.459,0.292 -0.75,0.292l-0.084,0c-0.291,0 -0.541,-0.125 -0.75,-0.292c-0.208,-0.208 -0.291,-0.458 -0.291,-0.708l-0,-3.583c-0,-0 -0.042,-0.25 -0.167,-0.334c-0.083,-0.083 -0.208,-0.125 -0.333,-0.125c-0.125,0 -0.209,0 -0.334,0.125c-0.083,0.084 -0.166,0.209 -0.166,0.334l-0,3.583c-0,0.333 0.041,0.625 0.166,0.875c0.084,0.25 0.25,0.458 0.417,0.625c0.167,0.167 0.375,0.292 0.625,0.333c0.25,0.084 0.5,0.125 0.75,0.125l0.083,0c0.209,0 0.417,0 0.584,-0.083c0.208,-0.083 0.333,-0.167 0.458,-0.292c0,0.125 0.083,0.209 0.167,0.292c0.083,0.083 0.208,0.083 0.291,0.083c0.125,0 0.209,0 0.334,-0.125c0.083,-0.083 0.125,-0.166 0.125,-0.333l-0,-5.083l0.083,-0Zm6.25,3.791c0,-0.416 -0.083,-0.708 -0.25,-0.958c-0.167,-0.208 -0.375,-0.417 -0.583,-0.542c-0.209,-0.125 -0.5,-0.208 -0.75,-0.291c-0.292,-0.042 -0.542,-0.125 -0.792,-0.167c-0.208,-0.042 -0.417,-0.125 -0.583,-0.25c-0.167,-0.125 -0.25,-0.25 -0.25,-0.5c-0,-0.208 0.125,-0.375 0.291,-0.5c0.167,-0.125 0.459,-0.167 0.792,-0.167l0.042,0c0.25,0 0.5,0 0.625,0.125c0.166,0.084 0.291,0.167 0.416,0.209c0.125,0.041 0.209,0.083 0.292,0.083c0.125,0 0.25,-0.042 0.333,-0.125c0.084,-0.083 0.125,-0.167 0.125,-0.292c0,-0.166 -0.041,-0.25 -0.166,-0.375c-0.042,0 -0.125,-0.083 -0.209,-0.166c-0.083,-0.042 -0.208,-0.125 -0.333,-0.167c-0.125,-0.042 -0.292,-0.083 -0.458,-0.125c-0.167,-0 -0.375,-0.042 -0.584,-0.042l-0.041,0c-0,0 -0.417,0 -0.625,0.084c-0.25,0.041 -0.459,0.125 -0.667,0.25c-0.208,0.125 -0.375,0.291 -0.5,0.5c-0.125,0.208 -0.208,0.458 -0.208,0.75c-0,0.375 0.083,0.666 0.25,0.875c0.166,0.208 0.375,0.375 0.583,0.458c0.208,0.125 0.5,0.208 0.75,0.25c0.292,0.042 0.542,0.125 0.75,0.167c0.25,0.083 0.417,0.166 0.583,0.291c0.167,0.125 0.25,0.334 0.25,0.584c0,0.25 -0.125,0.416 -0.333,0.583c-0.208,0.167 -0.5,0.25 -0.875,0.25l-0.083,0c-0.209,0 -0.459,-0.083 -0.709,-0.208c-0.25,-0.167 -0.416,-0.334 -0.583,-0.542c-0.042,-0.083 -0.125,-0.125 -0.208,-0.167l-0.209,0c-0.125,0 -0.25,0 -0.333,0.125c-0.083,0.084 -0.167,0.167 -0.167,0.334c0,-0 0,0.125 0.042,0.208c0.125,0.208 0.208,0.375 0.375,0.5c0.167,0.167 0.333,0.292 0.5,0.375c0.167,0.083 0.375,0.208 0.583,0.25c0.209,0.083 0.417,0.083 0.584,0.083l0.083,0c0.25,0 0.5,0 0.75,-0.125c0.25,-0.083 0.5,-0.166 0.667,-0.333c0.208,-0.125 0.375,-0.333 0.5,-0.542c0.125,-0.208 0.166,-0.458 0.166,-0.75l0.167,0Zm6.458,1c0,0 -0.166,-0.166 -0.291,-0.166c-0.209,-0 -0.334,-0.167 -0.334,-0.417l0,-2.833c0,-0.25 -0.041,-0.5 -0.166,-0.75c-0.084,-0.209 -0.25,-0.417 -0.417,-0.584c-0.167,-0.166 -0.375,-0.291 -0.625,-0.416c-0.25,-0.084 -0.5,-0.167 -0.75,-0.167l-0.083,-0c-0,-0 -0.334,-0 -0.5,0.042c-0.167,0.041 -0.334,0.125 -0.5,0.166c-0.167,0.084 -0.334,0.209 -0.459,0.334c-0.166,0.166 -0.25,0.333 -0.375,0.541c0,0.042 -0.041,0.125 -0.041,0.209c-0,0.125 0.041,0.25 0.166,0.333c0.084,0.083 0.209,0.125 0.292,0.125c0.083,-0 0.167,-0 0.25,-0.042c0.083,0 0.125,-0.125 0.167,-0.208c0.125,-0.208 0.25,-0.333 0.375,-0.458c0.125,-0.125 0.333,-0.167 0.583,-0.167l0.083,-0c0.25,-0 0.5,0.083 0.709,0.208c0.208,0.167 0.291,0.417 0.291,0.792l0,0.208c-0.041,0.084 -0.166,0.125 -0.333,0.167c-0.167,-0 -0.375,0.083 -0.625,0.125c-0.25,0.042 -0.458,0.083 -0.708,0.167c-0.25,0.083 -0.5,0.166 -0.709,0.291c-0.208,0.125 -0.375,0.292 -0.541,0.5c-0.125,0.209 -0.209,0.459 -0.209,0.792l0,0.167c0,0.291 0.042,0.541 0.167,0.75c0.125,0.208 0.25,0.416 0.458,0.541c0.167,0.125 0.375,0.25 0.625,0.334c0.209,0.083 0.459,0.125 0.709,0.125l0.125,-0c0.5,-0 0.958,-0.167 1.333,-0.459c0.083,0.125 0.167,0.209 0.333,0.292c0.125,0.083 0.292,0.125 0.5,0.167l0.084,-0c0.125,-0 0.25,-0.042 0.333,-0.125c0.083,-0.084 0.125,-0.209 0.125,-0.334c0,-0.083 0,-0.208 -0.083,-0.291l0.041,0.041Zm-1.541,-1.25c-0,0.292 -0.125,0.542 -0.334,0.75c-0.208,0.209 -0.458,0.292 -0.75,0.292l-0.125,0c-0.291,0 -0.541,-0.083 -0.75,-0.208c-0.208,-0.167 -0.291,-0.375 -0.291,-0.625l-0,-0.125c-0,-0.209 0.083,-0.375 0.208,-0.5c0.125,-0.125 0.333,-0.209 0.542,-0.25c0.208,-0.084 0.458,-0.125 0.708,-0.167c0.25,0 0.5,-0.083 0.75,-0.125l0,0.958l0.042,0Zm10.708,-2.083c0,-0.333 -0.042,-0.625 -0.167,-0.875c-0.125,-0.25 -0.25,-0.458 -0.416,-0.625c-0.167,-0.167 -0.375,-0.292 -0.625,-0.333c-0.25,-0.084 -0.5,-0.125 -0.75,-0.125l-0.125,-0c-0.292,-0 -0.584,0.041 -0.834,0.166c-0.25,0.125 -0.458,0.292 -0.666,0.5c-0.167,-0.208 -0.417,-0.375 -0.667,-0.5c-0.25,-0.125 -0.542,-0.166 -0.833,-0.166l-0.125,-0c-0.209,-0 -0.417,-0 -0.584,0.083c-0.166,0.083 -0.333,0.167 -0.458,0.25c0,-0.125 -0.083,-0.208 -0.167,-0.292c-0.083,-0.041 -0.166,-0.083 -0.291,-0.083c-0.125,0 -0.209,0 -0.334,0.125c-0.083,0.083 -0.166,0.208 -0.166,0.333l-0,5.084c-0,-0 0.083,0.25 0.166,0.333c0.084,0.083 0.209,0.125 0.334,0.125c0.125,0 0.208,0 0.333,-0.125c0.083,-0.083 0.167,-0.208 0.167,-0.333l-0,-3.709c-0,-0.291 0.125,-0.5 0.333,-0.666c0.208,-0.167 0.458,-0.25 0.75,-0.25l0.125,-0c0.292,-0 0.542,0.083 0.75,0.291c0.208,0.209 0.292,0.459 0.292,0.75l-0,3.584c-0,-0 0.041,0.291 0.166,0.375c0.125,0.083 0.209,0.125 0.334,0.125c0.125,-0 0.208,-0 0.333,-0.125c0.083,-0.084 0.167,-0.209 0.167,-0.375l-0,-3.584c-0,-0.291 0.083,-0.541 0.291,-0.75c0.209,-0.208 0.459,-0.291 0.75,-0.291l0.125,-0c0.292,-0 0.542,0.083 0.75,0.25c0.209,0.166 0.292,0.416 0.292,0.75l-0,3.625c-0,-0 0.042,0.25 0.167,0.333c0.083,0.083 0.208,0.125 0.291,0.125c0.084,0 0.209,0 0.334,-0.125c0.125,-0.083 0.166,-0.208 0.166,-0.333l0,-3.625l-0.208,0.083Zm9.333,0c0,-0.333 -0.041,-0.625 -0.166,-0.875c-0.084,-0.25 -0.25,-0.458 -0.417,-0.625c-0.167,-0.167 -0.375,-0.292 -0.625,-0.333c-0.25,-0.084 -0.5,-0.125 -0.75,-0.125l-0.125,-0c-0.292,-0 -0.583,0.041 -0.875,0.166c-0.25,0.125 -0.458,0.292 -0.667,0.5c-0.166,-0.208 -0.416,-0.375 -0.666,-0.5c-0.25,-0.125 -0.542,-0.166 -0.834,-0.166l-0.125,-0c0,-0 -0.416,-0 -0.583,0.083c-0.208,0.083 -0.333,0.167 -0.458,0.25c-0,-0.125 -0.084,-0.208 -0.167,-0.292c-0.083,-0.041 -0.167,-0.083 -0.292,-0.083c-0.125,0 -0.208,0 -0.333,0.125c-0.083,0.083 -0.125,0.208 -0.125,0.333l-0,5.084c-0,-0 0.042,0.25 0.125,0.333c0.125,0.083 0.208,0.125 0.333,0.125c0.125,0 0.209,0 0.334,-0.125c0.083,-0.083 0.125,-0.208 0.125,-0.333l-0,-3.709c-0,-0.291 0.125,-0.5 0.333,-0.666c0.208,-0.167 0.458,-0.25 0.75,-0.25l0.125,-0c0.292,-0 0.542,0.083 0.75,0.291c0.208,0.209 0.292,0.459 0.292,0.75l-0,3.584c-0,-0 0.041,0.291 0.166,0.375c0.084,0.083 0.209,0.125 0.334,0.125c0.125,-0 0.208,-0 0.333,-0.125c0.083,-0.084 0.167,-0.209 0.167,-0.375l-0,-3.584c-0,-0.291 0.125,-0.541 0.291,-0.75c0.209,-0.208 0.459,-0.291 0.75,-0.291l0.125,-0c0.292,-0 0.542,0.083 0.75,0.25c0.167,0.166 0.292,0.416 0.292,0.75l-0,3.625c-0,-0 0.042,0.25 0.167,0.333c0.083,0.083 0.208,0.125 0.333,0.125c0.125,0 0.208,0 0.292,-0.125c0.083,-0.083 0.166,-0.208 0.166,-0.333l0,-3.625l-0.125,0.083Zm6.084,0c-0,-0.292 -0.042,-0.542 -0.167,-0.792c-0.125,-0.25 -0.25,-0.458 -0.417,-0.625c-0.166,-0.166 -0.375,-0.333 -0.625,-0.416c-0.25,-0.084 -0.5,-0.167 -0.75,-0.167l-0.125,0c-0.25,0 -0.5,0.042 -0.75,0.167c-0.25,0.083 -0.458,0.25 -0.625,0.416c-0.166,0.167 -0.333,0.375 -0.416,0.625c-0.125,0.25 -0.167,0.5 -0.167,0.75l0,2.084c0,0.291 0,0.541 0.167,0.75c0.083,0.25 0.208,0.458 0.416,0.625c0.167,0.166 0.375,0.333 0.625,0.416c0.25,0.084 0.5,0.167 0.75,0.167l0.125,0c0.417,0 0.792,-0.125 1.084,-0.333c0.333,-0.209 0.541,-0.5 0.708,-0.834c0,-0.041 0.042,-0.125 0.042,-0.208c-0,-0.125 -0.042,-0.25 -0.167,-0.333c-0.083,-0.084 -0.208,-0.125 -0.333,-0.125c-0.084,-0 -0.167,-0 -0.25,0.083c-0.084,0.042 -0.125,0.125 -0.167,0.208c-0.083,0.167 -0.208,0.292 -0.375,0.417c-0.167,0.125 -0.333,0.167 -0.583,0.167l-0.125,-0c-0.292,-0 -0.5,-0.125 -0.709,-0.292c-0.208,-0.208 -0.291,-0.458 -0.291,-0.75l-0,-0.625l2.666,0c0,0 0.25,-0.042 0.334,-0.125c0.083,-0.083 0.125,-0.208 0.125,-0.333l-0,-1l-0,0.083Zm-0.917,0.625l-2.208,-0l-0,-0.625c-0,-0.292 0.125,-0.542 0.291,-0.75c0.209,-0.208 0.459,-0.292 0.75,-0.292l0.125,0c0.25,0 0.5,0.084 0.709,0.292c0.208,0.208 0.291,0.458 0.291,0.75l0,0.583l0.042,0.042Zm7,-0.625c0,-0.333 -0.042,-0.625 -0.167,-0.875c-0.125,-0.25 -0.25,-0.458 -0.416,-0.625c-0.167,-0.167 -0.375,-0.292 -0.625,-0.375c-0.209,-0.083 -0.5,-0.125 -0.75,-0.125l-0.125,-0c-0,-0 -0.417,-0 -0.584,0.083c-0.166,0.084 -0.333,0.167 -0.458,0.25c0,-0.125 -0.083,-0.208 -0.167,-0.291c-0.083,-0.042 -0.166,-0.084 -0.291,-0.084c-0.125,0 -0.25,0 -0.334,0.125c-0.083,0.084 -0.166,0.209 -0.166,0.334l-0,5.083c-0,-0 0.041,0.25 0.166,0.333c0.084,0.084 0.209,0.125 0.334,0.125c0.125,0 0.208,0 0.333,-0.125c0.083,-0.083 0.167,-0.208 0.167,-0.333l-0,-3.583c-0,-0.292 0.083,-0.542 0.291,-0.75c0.209,-0.209 0.459,-0.292 0.75,-0.292l0.125,-0c0.292,-0 0.542,0.125 0.75,0.292c0.209,0.208 0.292,0.458 0.292,0.75l0,3.583c0,-0 0,0.25 0.167,0.333c0.083,0.084 0.208,0.125 0.333,0.125c0.125,0 0.208,0 0.333,-0.125c0.084,-0.083 0.125,-0.208 0.125,-0.333l0,-3.583l-0.083,0.083Zm6.583,3.333c0,0 -0.166,-0.166 -0.291,-0.166c-0.209,-0 -0.292,-0.167 -0.292,-0.417l0,-2.833c0,-0.25 -0.042,-0.5 -0.167,-0.75c-0.083,-0.209 -0.208,-0.417 -0.416,-0.584c-0.167,-0.166 -0.375,-0.291 -0.625,-0.416c-0.25,-0.084 -0.5,-0.167 -0.75,-0.167l-0.084,-0c0,-0 -0.333,-0 -0.5,0.042c-0.166,0.041 -0.333,0.125 -0.5,0.166c-0.166,0.084 -0.291,0.209 -0.458,0.334c-0.167,0.166 -0.25,0.333 -0.375,0.541c0,0.042 -0.042,0.125 -0.042,0.209c0,0.125 0.042,0.25 0.167,0.333c0.083,0.083 0.208,0.125 0.333,0.125c0.084,-0 0.167,-0 0.25,-0.042c0.084,0 0.125,-0.125 0.167,-0.208c0.125,-0.208 0.25,-0.333 0.417,-0.458c0.166,-0.125 0.333,-0.167 0.583,-0.167l0.083,-0c0.25,-0 0.5,0.083 0.709,0.208c0.208,0.167 0.291,0.417 0.291,0.792l0,0.208c-0.041,0.084 -0.166,0.125 -0.333,0.167c-0.167,-0 -0.375,0.083 -0.583,0.125c-0.25,-0 -0.459,0.083 -0.709,0.167c-0.25,0.083 -0.5,0.166 -0.708,0.291c-0.208,0.125 -0.375,0.292 -0.5,0.5c-0.167,0.209 -0.208,0.459 -0.208,0.792l-0,0.167c-0,0.291 0.041,0.541 0.166,0.75c0.125,0.208 0.25,0.416 0.459,0.541c0.166,0.125 0.375,0.25 0.625,0.334c0.25,0.083 0.458,0.125 0.708,0.125l0.125,-0c0.5,-0 0.958,-0.167 1.333,-0.459c0.084,0.125 0.167,0.209 0.292,0.292c0.125,0.083 0.292,0.125 0.5,0.167l0.083,-0c0.167,-0 0.25,-0.042 0.334,-0.125c0.083,-0.084 0.125,-0.209 0.125,-0.334c-0,-0.083 -0,-0.208 -0.084,-0.291l-0.125,0.041Zm-1.541,-1.25c-0,0.292 -0.125,0.542 -0.334,0.75c-0.208,0.209 -0.458,0.292 -0.75,0.292l-0.125,0c-0.291,0 -0.541,-0.083 -0.75,-0.208c-0.166,-0.167 -0.291,-0.375 -0.291,-0.625l-0,-0.125c-0,-0.209 0.083,-0.375 0.208,-0.5c0.125,-0.125 0.333,-0.209 0.542,-0.25c0.208,-0.084 0.458,-0.125 0.708,-0.167c0.25,0 0.5,-0.083 0.708,-0.125l0,0.958l0.084,0Zm6.5,-3.458c-0.167,-0.208 -0.334,-0.375 -0.542,-0.458c-0.25,-0.084 -0.458,-0.125 -0.708,-0.125l-0.417,-0c-0.083,-0 -0.208,0.041 -0.25,0.083c-0.083,0 -0.167,0.083 -0.208,0.125c-0,-0.083 -0.084,-0.167 -0.167,-0.208c-0.083,-0 -0.167,-0.042 -0.208,-0.042c-0.125,0 -0.209,0 -0.334,0.125c-0.125,0.083 -0.166,0.208 -0.166,0.333l-0,5.084c-0,-0 0.041,0.291 0.166,0.375c0.084,0.083 0.209,0.125 0.334,0.125c0.125,-0 0.208,-0 0.291,-0.125c0.084,-0.084 0.167,-0.209 0.167,-0.375l0,-4.084c0,-0.083 0.042,-0.166 0.125,-0.25c0.042,-0.083 0.125,-0.125 0.25,-0.166c0.125,-0.042 0.25,-0.084 0.458,-0.084c0.167,0 0.25,0 0.334,0.084c0.083,0.083 0.166,0.125 0.208,0.166c0.125,0.125 0.25,0.167 0.375,0.167c0.125,0 0.208,-0.042 0.333,-0.125c0.084,-0.083 0.125,-0.167 0.125,-0.333c0,-0.084 0,-0.209 -0.125,-0.334l-0.041,0.042Zm6.041,1.375c0,-0.292 -0.041,-0.542 -0.166,-0.75c-0.125,-0.25 -0.25,-0.458 -0.417,-0.625c-0.167,-0.167 -0.375,-0.333 -0.625,-0.417c-0.25,-0.125 -0.5,-0.166 -0.792,-0.166l-0.083,-0c-0.208,-0 -0.417,-0 -0.625,0.125c-0.167,0.041 -0.333,0.166 -0.458,0.291l-0,-2.5c-0,0 -0.042,-0.291 -0.167,-0.333c-0.083,-0.083 -0.208,-0.125 -0.292,-0.125c-0.125,0 -0.208,0 -0.333,0.125c-0.083,0.083 -0.167,0.208 -0.167,0.333l0,7.667c0,0 0.042,0.25 0.167,0.333c0.083,0.084 0.208,0.125 0.333,0.125c0.084,0 0.209,0 0.292,-0.083c0.083,-0.042 0.125,-0.167 0.167,-0.292c0.083,0.084 0.208,0.167 0.416,0.25c0.167,0.084 0.417,0.125 0.667,0.125l0.125,0c0.292,0 0.542,-0.041 0.75,-0.166c0.25,-0.125 0.458,-0.25 0.625,-0.417c0.167,-0.167 0.333,-0.375 0.417,-0.625c0.125,-0.208 0.166,-0.5 0.166,-0.75l0,-2.125Zm-0.916,2.083c-0,0.292 -0.125,0.542 -0.292,0.709c-0.208,0.208 -0.458,0.291 -0.75,0.291l-0.125,0c-0.292,0 -0.5,-0.083 -0.708,-0.25c-0.209,-0.166 -0.334,-0.416 -0.334,-0.708l0,-2.25c0,-0.292 0.125,-0.5 0.334,-0.667c0.208,-0.166 0.458,-0.25 0.708,-0.25l0.125,0c0.292,0 0.542,0.125 0.75,0.292c0.208,0.208 0.292,0.458 0.292,0.75l-0,2.083Zm7,-2.083c-0,-0.292 -0.042,-0.542 -0.167,-0.792c-0.125,-0.25 -0.25,-0.458 -0.417,-0.625c-0.166,-0.166 -0.375,-0.333 -0.625,-0.416c-0.25,-0.084 -0.5,-0.167 -0.75,-0.167l-0.125,0c-0.25,0 -0.5,0.042 -0.75,0.167c-0.25,0.083 -0.458,0.25 -0.625,0.416c-0.166,0.167 -0.333,0.375 -0.416,0.625c-0.125,0.25 -0.167,0.5 -0.167,0.75l0,2.084c0,0.291 0.042,0.541 0.167,0.75c0.083,0.25 0.25,0.458 0.416,0.625c0.167,0.166 0.375,0.333 0.625,0.416c0.25,0.084 0.5,0.167 0.75,0.167l0.125,0c0.417,0 0.792,-0.125 1.084,-0.333c0.291,-0.209 0.541,-0.5 0.666,-0.834c0,-0.041 0.042,-0.125 0.042,-0.208c0,-0.125 -0.042,-0.25 -0.167,-0.333c-0.083,-0.084 -0.208,-0.125 -0.333,-0.125c-0.083,-0 -0.167,-0 -0.208,0.083c-0.084,0.042 -0.125,0.125 -0.167,0.208c-0.083,0.167 -0.208,0.292 -0.375,0.417c-0.167,0.125 -0.333,0.167 -0.583,0.167l-0.125,-0c-0.292,-0 -0.542,-0.125 -0.75,-0.292c-0.209,-0.208 -0.292,-0.458 -0.292,-0.75l0,-0.625l2.667,0c-0,0 0.25,-0.042 0.333,-0.125c0.083,-0.083 0.125,-0.208 0.125,-0.333l0,-1l0.042,0.083Zm-0.917,0.625l-2.208,-0l-0,-0.625c-0,-0.292 0.125,-0.542 0.333,-0.75c0.208,-0.208 0.458,-0.292 0.75,-0.292l0.125,0c0.25,0 0.5,0.084 0.708,0.292c0.209,0.208 0.292,0.458 0.292,0.75l0,0.625Zm3.958,-4.667c0,0 -0.041,-0.291 -0.166,-0.333c-0.084,-0.083 -0.209,-0.125 -0.292,-0.125c-0.083,0 -0.208,0 -0.333,0.125c-0.084,0.083 -0.125,0.208 -0.125,0.333l-0,0.292c-0,0 0.041,0.25 0.125,0.333c0.125,0.084 0.208,0.125 0.333,0.125c0.125,0 0.208,0 0.292,-0.125c0.083,-0.083 0.166,-0.208 0.166,-0.333l0,-0.292Zm0,2.542c0,0 -0.041,-0.25 -0.166,-0.333c-0.084,-0.084 -0.209,-0.125 -0.292,-0.125c-0.083,-0 -0.208,-0 -0.333,0.125c-0.084,0.083 -0.125,0.208 -0.125,0.333l-0,5.083c-0,0 0.041,0.25 0.125,0.334c0.125,0.083 0.208,0.125 0.333,0.125c0.125,-0 0.208,-0 0.292,-0.125c0.083,-0.084 0.166,-0.209 0.166,-0.334l0,-5.083Zm4.834,4.792c-0,-0 -0.167,-0.167 -0.334,-0.167c-0.166,0 -0.333,-0.083 -0.5,-0.208c-0.166,-0.125 -0.208,-0.292 -0.208,-0.5l0,-3.417l0.667,0c-0,0 0.291,-0.042 0.333,-0.167c0.083,-0.083 0.125,-0.208 0.125,-0.333c0,-0.125 0,-0.208 -0.125,-0.292c-0.083,-0.125 -0.208,-0.166 -0.333,-0.166l-0.667,-0l0,-2.125c0,-0 -0.042,-0.292 -0.167,-0.334c-0.083,-0.083 -0.208,-0.125 -0.333,-0.125c-0.125,0 -0.208,0 -0.333,0.125c-0.084,0.084 -0.167,0.209 -0.167,0.334l0,2.125l-0.417,-0c0,-0 -0.25,0.041 -0.333,0.166c-0.083,0.084 -0.125,0.209 -0.125,0.292c0,0.083 0,0.208 0.125,0.333c0.083,0.084 0.208,0.167 0.333,0.167l0.417,0l0,3.458c0,0.209 0,0.417 0.125,0.625c0.083,0.209 0.208,0.375 0.333,0.5c0.167,0.125 0.334,0.25 0.5,0.334c0.167,0.083 0.417,0.125 0.625,0.125c0.167,-0 0.292,-0.042 0.334,-0.125c0.083,-0.084 0.125,-0.209 0.125,-0.334c-0,-0.125 -0,-0.208 -0.125,-0.333l0.125,0.042Zm6.916,0.583c-0.208,-0.292 -0.375,-0.667 -0.5,-1.042c-0.166,-0.416 -0.25,-0.833 -0.375,-1.333c-0.083,-0.458 -0.125,-0.958 -0.125,-1.5c0,-0.542 0,-1 0.125,-1.458c0.084,-0.459 0.209,-0.917 0.375,-1.292c0.167,-0.417 0.292,-0.75 0.5,-1.083c0.167,-0.334 0.375,-0.584 0.584,-0.792c0.083,-0.083 0.125,-0.208 0.125,-0.292c-0,-0.083 -0.042,-0.208 -0.167,-0.291c-0.125,-0.084 -0.208,-0.125 -0.333,-0.125c-0.125,-0 -0.209,0.041 -0.334,0.166c-0.25,0.25 -0.5,0.584 -0.708,0.959c-0.208,0.375 -0.417,0.791 -0.583,1.208c-0.167,0.458 -0.292,0.917 -0.375,1.458c-0.084,0.5 -0.167,1.042 -0.167,1.584c0,0.541 0.042,1.125 0.167,1.625c0.125,0.5 0.208,1 0.416,1.458c0.167,0.458 0.375,0.875 0.584,1.208c0.208,0.375 0.458,0.667 0.708,0.917c0.083,0.083 0.208,0.167 0.292,0.167c0.125,-0 0.208,-0.042 0.333,-0.167c0.125,-0.083 0.167,-0.167 0.167,-0.292c-0,-0.125 -0,-0.208 -0.125,-0.291c-0.209,-0.209 -0.417,-0.459 -0.625,-0.792l0.041,0Zm6.959,-4.042c-0,0 -0.042,-0.208 -0.167,-0.333c-0.083,-0.083 -0.208,-0.125 -0.292,-0.125l-1.75,0c0,0 -0.25,0.042 -0.333,0.125c-0.083,0.083 -0.125,0.208 -0.125,0.333c0,0.125 0,0.209 0.125,0.334c0.083,0.083 0.208,0.125 0.333,0.125l1.292,-0l0,1.416c0,0 0,0.375 -0.125,0.542c-0.083,0.167 -0.167,0.292 -0.292,0.458c-0.125,0.125 -0.25,0.209 -0.458,0.292c-0.167,0.083 -0.333,0.125 -0.542,0.125l-0.125,0c0,0 -0.375,0 -0.541,-0.125c-0.167,-0.083 -0.334,-0.167 -0.459,-0.292c-0.125,-0.125 -0.208,-0.291 -0.291,-0.458c-0.084,-0.167 -0.125,-0.333 -0.125,-0.542l-0,-3.958c-0,0 -0,-0.375 0.125,-0.542c0.083,-0.166 0.166,-0.291 0.291,-0.416c0.125,-0.125 0.292,-0.25 0.459,-0.292c0.166,-0.083 0.333,-0.083 0.541,-0.083l0.125,-0c0.417,-0 0.709,0.083 0.959,0.333c0.208,0.208 0.375,0.5 0.458,0.875c0,0.125 0.083,0.25 0.167,0.292c0.083,0.041 0.166,0.083 0.291,0.083c0.125,-0 0.209,-0 0.292,-0.125c0.125,-0.083 0.167,-0.208 0.167,-0.333l-0,-0.084c-0.042,-0.291 -0.125,-0.541 -0.25,-0.791c-0.125,-0.25 -0.292,-0.459 -0.5,-0.625c-0.209,-0.167 -0.459,-0.292 -0.709,-0.417c-0.25,-0.083 -0.541,-0.167 -0.833,-0.167l-0.125,0c-0.292,0 -0.625,0.084 -0.875,0.167c-0.292,0.125 -0.542,0.292 -0.75,0.5c-0.208,0.208 -0.375,0.458 -0.5,0.75c-0.125,0.292 -0.167,0.583 -0.167,0.917l0,3.958c0,0.333 0.042,0.625 0.167,0.917c0.125,0.291 0.292,0.541 0.5,0.708c0.208,0.208 0.458,0.375 0.75,0.5c0.292,0.125 0.583,0.167 0.875,0.167l0.125,-0c0.333,-0 0.625,-0.042 0.917,-0.167c0.291,-0.125 0.541,-0.292 0.75,-0.5c0.208,-0.208 0.375,-0.458 0.5,-0.708c0.125,-0.292 0.166,-0.584 0.166,-0.917l0,-1.917l-0.041,0Zm3.375,-3.916c-0,-0 -0.042,-0.292 -0.167,-0.334c-0.083,-0.083 -0.208,-0.125 -0.333,-0.125c-0.125,0 -0.209,0 -0.334,0.125c-0.083,0.084 -0.125,0.209 -0.125,0.334l0,7.666c0,0 0,0.25 0.125,0.334c0.084,0.083 0.209,0.125 0.334,0.125c0.125,-0 0.208,-0 0.333,-0.125c0.083,-0.084 0.167,-0.209 0.167,-0.334l-0,-7.666Zm6.791,7.25c0,-0 -0.208,-0.167 -0.333,-0.167l-3.083,0l3.458,-6.667c0,0 0.083,-0.208 0.083,-0.333c0,-0.167 -0.041,-0.292 -0.166,-0.375c-0.125,-0.083 -0.25,-0.167 -0.417,-0.167l-3.5,0c0,0 -0.292,0 -0.333,0.167c-0.084,0.083 -0.125,0.208 -0.125,0.333c-0,0.125 -0,0.209 0.125,0.334c0.083,0.083 0.208,0.125 0.333,0.125l2.875,-0l-3.458,6.625c-0,-0 -0.084,0.166 -0.084,0.291c0,0.167 0,0.292 0.125,0.417c0.084,0.125 0.209,0.167 0.417,0.167l3.667,-0c-0,-0 0.25,-0 0.333,-0.167c0.083,-0.083 0.125,-0.208 0.125,-0.333c0,-0.125 0,-0.209 -0.125,-0.334l0.083,0.084Zm4.209,-4.792c-0.084,-0.5 -0.209,-1 -0.375,-1.458c-0.167,-0.459 -0.375,-0.875 -0.584,-1.209c-0.208,-0.375 -0.458,-0.708 -0.708,-0.958c-0.083,-0.083 -0.208,-0.167 -0.333,-0.167c-0.084,0 -0.209,0.042 -0.334,0.125c-0.083,0.084 -0.166,0.209 -0.166,0.292c-0,0.083 -0,0.208 0.125,0.292c0.208,0.208 0.416,0.458 0.625,0.791c0.166,0.334 0.375,0.667 0.5,1.084c0.166,0.375 0.25,0.833 0.333,1.291c0.083,0.459 0.125,0.959 0.125,1.459c0,0.5 0,1 -0.125,1.5c-0.083,0.458 -0.208,0.916 -0.375,1.333c-0.167,0.375 -0.333,0.75 -0.5,1.042c-0.208,0.333 -0.417,0.583 -0.625,0.791c-0.083,0.084 -0.125,0.209 -0.125,0.292c0,0.125 0.042,0.208 0.167,0.333c0.083,0.084 0.208,0.167 0.333,0.167c0.125,0 0.208,-0.042 0.292,-0.167c0.25,-0.25 0.5,-0.541 0.75,-0.916c0.208,-0.375 0.416,-0.792 0.583,-1.209c0.167,-0.458 0.292,-0.958 0.375,-1.458c0.125,-0.5 0.167,-1.083 0.167,-1.625c-0,-0.542 -0.042,-1.083 -0.167,-1.583l0.042,-0.042Zm9.666,1.417c0,-0 -0.041,-0.209 -0.166,-0.334c-0.084,-0.083 -0.209,-0.125 -0.334,-0.125l-1.75,0c0,0 -0.25,0.042 -0.333,0.125c-0.083,0.084 -0.125,0.209 -0.125,0.334c0,0.125 0,0.208 0.125,0.333c0.083,0.083 0.208,0.125 0.333,0.125l1.292,0l0,1.417c0,-0 0,0.375 -0.125,0.541c-0.083,0.167 -0.167,0.292 -0.292,0.459c-0.125,0.125 -0.291,0.208 -0.458,0.291c-0.167,0.084 -0.333,0.125 -0.542,0.125l-0.125,0c0,0 -0.375,0 -0.541,-0.125c-0.167,-0.083 -0.334,-0.166 -0.459,-0.291c-0.125,-0.125 -0.208,-0.292 -0.291,-0.459c-0.084,-0.166 -0.125,-0.333 -0.125,-0.541l-0,-3.959c-0,0 -0,-0.375 0.125,-0.541c0.083,-0.167 0.166,-0.292 0.291,-0.417c0.125,-0.125 0.25,-0.25 0.459,-0.292c0.166,-0.083 0.333,-0.083 0.541,-0.083l0.125,0c0.375,0 0.709,0.083 0.917,0.333c0.25,0.209 0.375,0.5 0.458,0.875c0,0.125 0.084,0.25 0.167,0.292c0.083,0.042 0.167,0.083 0.292,0.083c0.125,0 0.208,0 0.333,-0.125c0.083,-0.083 0.167,-0.208 0.167,-0.333l-0,-0.083c-0,-0.292 -0.125,-0.542 -0.25,-0.792c-0.125,-0.25 -0.292,-0.458 -0.5,-0.625c-0.209,-0.167 -0.459,-0.292 -0.709,-0.417c-0.25,-0.083 -0.541,-0.166 -0.833,-0.166l-0.125,-0c-0.333,-0 -0.625,0.083 -0.875,0.166c-0.292,0.125 -0.542,0.292 -0.75,0.5c-0.208,0.209 -0.375,0.459 -0.5,0.75c-0.125,0.292 -0.167,0.584 -0.167,0.917l0,3.958c0,0.334 0.042,0.625 0.167,0.917c0.125,0.292 0.292,0.542 0.5,0.708c0.208,0.209 0.458,0.375 0.75,0.5c0.292,0.125 0.583,0.167 0.875,0.167l0.125,0c0.292,0 0.625,-0.042 0.875,-0.167c0.292,-0.125 0.542,-0.291 0.75,-0.5c0.208,-0.208 0.375,-0.458 0.5,-0.708c0.125,-0.292 0.167,-0.583 0.167,-0.917l-0,-1.916l0.041,-0Zm9.417,0.125c0,-0.334 0,-0.625 -0.167,-0.875c-0.125,-0.25 -0.25,-0.459 -0.416,-0.625c-0.167,-0.167 -0.375,-0.292 -0.625,-0.334c-0.25,-0.083 -0.5,-0.125 -0.75,-0.125l-0.084,0c-0.333,0 -0.583,0.042 -0.875,0.167c-0.25,0.125 -0.458,0.292 -0.666,0.5c-0.209,-0.208 -0.417,-0.375 -0.667,-0.5c-0.25,-0.125 -0.542,-0.167 -0.875,-0.167l-0.125,0c0,0 -0.417,0 -0.583,0.084c-0.167,0.083 -0.334,0.166 -0.459,0.25c0,-0.125 -0.083,-0.209 -0.166,-0.292c-0.084,-0.042 -0.167,-0.083 -0.292,-0.083c-0.125,-0 -0.25,-0 -0.333,0.125c-0.084,0.083 -0.125,0.208 -0.125,0.333l-0,5.083c-0,0 -0,0.25 0.125,0.334c0.083,0.083 0.208,0.125 0.333,0.125c0.125,-0 0.208,-0 0.333,-0.125c0.084,-0.084 0.125,-0.209 0.125,-0.334l0,-3.708c0,-0.292 0.125,-0.5 0.334,-0.667c0.208,-0.166 0.458,-0.25 0.75,-0.25l0.125,0c0.291,0 0.541,0.084 0.75,0.292c0.208,0.208 0.291,0.458 0.291,0.75l0,3.583c0,0 0.042,0.292 0.167,0.375c0.083,0.084 0.208,0.125 0.333,0.125c0.125,0 0.209,0 0.292,-0.125c0.125,-0.083 0.167,-0.208 0.167,-0.375l-0,-3.583c-0,-0.292 0.083,-0.542 0.291,-0.75c0.209,-0.208 0.459,-0.292 0.75,-0.292l0.084,0c0.291,0 0.541,0.084 0.75,0.25c0.208,0.167 0.291,0.417 0.291,0.75l0,3.625c0,0 0.042,0.25 0.167,0.334c0.083,0.083 0.208,0.125 0.292,0.125c0.125,-0 0.208,-0 0.333,-0.125c0.083,-0.084 0.125,-0.209 0.125,-0.334l0,-3.625l0,0.084Zm6.333,-0c0,-0.292 -0.041,-0.542 -0.166,-0.75c-0.125,-0.25 -0.25,-0.459 -0.417,-0.625c-0.167,-0.167 -0.375,-0.334 -0.625,-0.417c-0.25,-0.125 -0.5,-0.167 -0.792,-0.167l-0.083,0c0,0 -0.417,0 -0.625,0.125c-0.167,0.042 -0.333,0.167 -0.458,0.292l-0,-2.5c-0,0 -0.042,-0.292 -0.167,-0.333c-0.083,-0.084 -0.208,-0.125 -0.333,-0.125c-0.125,-0 -0.209,-0 -0.334,0.125c-0.083,0.083 -0.125,0.208 -0.125,0.333l0,7.667c0,-0 0.042,0.25 0.125,0.333c0.125,0.083 0.209,0.125 0.334,0.125c0.125,0 0.208,0 0.291,-0.083c0.084,-0.042 0.125,-0.167 0.167,-0.292c0.083,0.083 0.208,0.167 0.375,0.25c0.167,0.083 0.375,0.125 0.667,0.125l0.125,0c0.25,0 0.5,-0.042 0.75,-0.167c0.25,-0.125 0.458,-0.25 0.625,-0.416c0.166,-0.167 0.333,-0.375 0.416,-0.625c0.125,-0.209 0.167,-0.5 0.167,-0.75l0,-2.084l0.083,-0.041Zm-0.916,2.083c-0,0.292 -0.084,0.542 -0.292,0.708c-0.208,0.209 -0.458,0.292 -0.75,0.292l-0.125,0c-0.292,0 -0.5,-0.083 -0.75,-0.25c-0.208,-0.167 -0.292,-0.417 -0.292,-0.708l0,-2.25c0,-0.292 0.125,-0.5 0.292,-0.667c0.208,-0.167 0.458,-0.25 0.75,-0.25l0.125,0c0.292,0 0.542,0.125 0.75,0.292c0.208,0.208 0.292,0.458 0.292,0.75l-0,2.083Zm7.958,-6.125c0,0 -0.042,-0.292 -0.125,-0.333c-0.083,-0.084 -0.208,-0.125 -0.333,-0.125c-0.125,-0 -0.209,-0 -0.334,0.125c-0.083,0.083 -0.166,0.208 -0.166,0.333l-0,3.208l-2.875,0l-0,-3.208c-0,0 -0.042,-0.292 -0.167,-0.333c-0.083,-0.084 -0.208,-0.125 -0.333,-0.125c-0.125,-0 -0.209,-0 -0.334,0.125c-0.083,0.083 -0.166,0.208 -0.166,0.333l-0,7.667c-0,-0 0.041,0.25 0.166,0.333c0.084,0.083 0.209,0.125 0.334,0.125c0.125,0 0.208,0 0.333,-0.125c0.083,-0.083 0.167,-0.208 0.167,-0.333l-0,-3.5l2.875,-0l-0,3.5c-0,-0 0.041,0.291 0.166,0.333c0.125,0.083 0.209,0.125 0.334,0.125c0.125,0 0.208,0 0.333,-0.125c0.083,-0.083 0.125,-0.167 0.125,-0.333l0,-7.667Z" style="fill:#d71d24;fill-rule:nonzero;"/><path d="M89.333,24.208c0,0 -0.166,-0.166 -0.333,-0.166c-0.208,-0 -0.458,-0 -0.625,0.125c-0.208,0.083 -0.375,0.208 -0.5,0.333c-0.125,0.125 -0.25,0.292 -0.333,0.5c-0.084,0.208 -0.125,0.417 -0.125,0.625l-0,0.958l-0.25,0c-0,0 -0.25,0.042 -0.334,0.167c-0.083,0.083 -0.125,0.208 -0.125,0.333c0,0.125 0,0.209 0.125,0.334c0.084,0.083 0.167,0.125 0.334,0.125l0.25,-0l-0,4.583c-0,-0 0.041,0.292 0.125,0.333c0.125,0.084 0.208,0.084 0.333,0.084c0.125,-0 0.208,-0 0.333,-0.084c0.084,-0.083 0.167,-0.166 0.167,-0.333l0,-4.583l0.583,-0c0,-0 0.25,-0.042 0.334,-0.125c0.083,-0.084 0.125,-0.209 0.125,-0.334c-0,-0.125 -0,-0.208 -0.125,-0.333c-0.084,-0.083 -0.167,-0.167 -0.334,-0.167l-0.583,0l0,-0.958c0,-0 0.083,-0.333 0.167,-0.5c0.125,-0.125 0.291,-0.208 0.5,-0.208c0.166,-0 0.25,-0.042 0.333,-0.125c0.083,-0.084 0.125,-0.209 0.125,-0.334c0,-0.125 0,-0.208 -0.125,-0.333l-0.042,0.083Zm5.417,0.334c0,-0 -0.042,-0.25 -0.167,-0.334c-0.083,-0.083 -0.208,-0.125 -0.333,-0.125c-0.125,0 -0.208,0 -0.292,0.125c-0.083,0.084 -0.166,0.209 -0.166,0.334l-0,0.25c-0,-0 0.041,0.25 0.166,0.333c0.084,0.083 0.209,0.125 0.334,0.125c0.125,-0 0.208,-0.042 0.291,-0.125c0.125,-0.083 0.167,-0.208 0.167,-0.333l0,-0.25Zm-2.25,-0c0,-0 -0.042,-0.25 -0.167,-0.334c-0.083,-0.083 -0.208,-0.125 -0.333,-0.125c-0.125,0 -0.208,0 -0.333,0.125c-0.084,0.084 -0.167,0.209 -0.167,0.334l0,0.25c0,-0 0.042,0.25 0.167,0.333c0.083,0.083 0.208,0.125 0.333,0.125c0.125,-0 0.208,-0.042 0.333,-0.125c0.084,-0.083 0.167,-0.208 0.167,-0.333l0,-0.25Zm2.708,2.541c0,0 -0.041,-0.25 -0.125,-0.333c-0.083,-0.083 -0.208,-0.125 -0.333,-0.125c-0.125,-0 -0.208,-0 -0.333,0.125c-0.084,0.083 -0.125,0.167 -0.125,0.333l-0,3.584c-0,0.291 -0.125,0.541 -0.292,0.75c-0.208,0.208 -0.458,0.291 -0.75,0.291l-0.125,0c-0.292,0 -0.5,-0.125 -0.708,-0.291c-0.209,-0.209 -0.292,-0.459 -0.292,-0.75l0,-3.584c0,0 0,-0.25 -0.167,-0.333c-0.083,-0.083 -0.208,-0.125 -0.333,-0.125c-0.125,-0 -0.208,-0 -0.333,0.125c-0.084,0.083 -0.125,0.167 -0.125,0.333l-0,3.584c-0,0.333 0.041,0.625 0.166,0.875c0.125,0.25 0.25,0.458 0.417,0.583c0.167,0.167 0.375,0.292 0.625,0.333c0.25,0.084 0.5,0.125 0.75,0.125l0.125,0c0.208,0 0.417,0 0.583,-0.083c0.167,-0.042 0.334,-0.167 0.459,-0.25c-0,0.125 0.083,0.208 0.166,0.25c0.084,0.042 0.167,0.083 0.292,0.083c0.125,0 0.208,0 0.333,-0.125c0.084,-0.083 0.125,-0.166 0.125,-0.333l0,-5.083l0,0.041Zm5.209,0.125c-0.167,-0.208 -0.334,-0.375 -0.584,-0.458c-0.208,-0.083 -0.458,-0.167 -0.708,-0.167l-0.417,0c-0.083,0 -0.208,0.042 -0.25,0.084c-0.083,-0 -0.166,0.083 -0.208,0.125c-0.042,-0.084 -0.125,-0.167 -0.167,-0.167c-0.083,0 -0.166,-0.042 -0.25,-0.042c-0.125,0 -0.208,0.042 -0.333,0.125c-0.125,0.084 -0.167,0.209 -0.167,0.334l0,5.083c0,0 0,0.292 0.125,0.333c0.084,0.084 0.209,0.125 0.334,0.125c0.125,0 0.208,0 0.291,-0.125c0.125,-0.083 0.167,-0.208 0.167,-0.333l0,-4.083c0,-0.084 0.042,-0.167 0.125,-0.25c0.042,-0.084 0.125,-0.167 0.25,-0.167c0.083,-0.042 0.25,-0.083 0.417,-0.083c0.166,-0 0.291,-0 0.375,0.083c0.083,0.042 0.166,0.125 0.208,0.167c0.125,0.125 0.25,0.166 0.375,0.166c0.125,0 0.208,0 0.333,-0.125c0.084,-0.083 0.125,-0.208 0.125,-0.333c0,-0.083 0,-0.208 -0.125,-0.333l0.084,0.041Zm6.958,-2.666c0,-0 -0.042,-0.25 -0.167,-0.334c-0.083,-0.083 -0.208,-0.125 -0.333,-0.125c-0.125,0 -0.208,0 -0.333,0.125c-0.084,0.084 -0.125,0.209 -0.125,0.334l-0,7.666c-0,0 0.041,0.292 0.125,0.334c0.125,0.083 0.208,0.083 0.333,0.083c0.125,0 0.208,0 0.333,-0.083c0.084,-0.084 0.167,-0.167 0.167,-0.334l0,-7.666Zm6.542,4.041c-0,-0.333 -0.084,-0.625 -0.167,-0.875c-0.125,-0.25 -0.25,-0.458 -0.417,-0.625c-0.166,-0.166 -0.375,-0.291 -0.625,-0.375c-0.25,-0.083 -0.5,-0.125 -0.75,-0.125l-0.125,0c-0.208,0 -0.416,0 -0.583,0.084c-0.167,0.083 -0.333,0.166 -0.458,0.291c-0,-0.125 -0.084,-0.208 -0.167,-0.291c-0.083,-0.084 -0.208,-0.084 -0.292,-0.084c-0.125,0 -0.25,0.042 -0.333,0.125c-0.083,0.084 -0.167,0.209 -0.167,0.334l0,5.083c0,-0 0.042,0.292 0.167,0.333c0.083,0.084 0.208,0.084 0.333,0.084c0.084,-0 0.209,-0 0.334,-0.084c0.083,-0.083 0.125,-0.166 0.125,-0.333l-0,-3.583c-0,-0.292 0.125,-0.542 0.333,-0.75c0.208,-0.209 0.458,-0.292 0.708,-0.292l0.125,-0c0.292,-0 0.542,0.125 0.75,0.333c0.209,0.209 0.292,0.459 0.292,0.709l0,3.583c0,-0 0.042,0.292 0.167,0.333c0.083,0.084 0.208,0.084 0.291,0.084c0.125,-0 0.209,-0 0.334,-0.084c0.083,-0.083 0.166,-0.166 0.166,-0.333l0,-3.583l-0.041,0.041Zm4.583,3.292c0,-0 -0.167,-0.125 -0.333,-0.167c-0.167,0 -0.334,-0.083 -0.5,-0.208c-0.167,-0.125 -0.209,-0.292 -0.209,-0.5l0,-3.417l0.667,0c0,0 0.25,-0.041 0.333,-0.125c0.084,-0.083 0.125,-0.208 0.125,-0.333c0,-0.125 0,-0.208 -0.125,-0.333c-0.083,-0.084 -0.166,-0.167 -0.333,-0.167l-0.667,0l0,-2.125c0,0 -0.041,-0.25 -0.166,-0.333c-0.084,-0.084 -0.209,-0.125 -0.292,-0.125c-0.125,-0 -0.208,-0 -0.333,0.125c-0.084,0.083 -0.167,0.208 -0.167,0.333l0,2.125l-0.417,0c0,0 -0.291,0.042 -0.333,0.167c-0.083,0.083 -0.125,0.208 -0.125,0.333c0,0.125 0,0.208 0.125,0.333c0.083,0.084 0.208,0.125 0.333,0.125l0.417,0l0,3.459c0,0.208 0,0.416 0.125,0.625c0.083,0.208 0.208,0.375 0.333,0.5c0.125,0.166 0.292,0.25 0.5,0.333c0.209,0.083 0.417,0.125 0.625,0.125c0.167,-0 0.292,-0 0.375,-0.125c0.084,-0.083 0.125,-0.208 0.125,-0.292c0,-0.125 0,-0.208 -0.125,-0.291l0.042,-0.042Zm5.833,-3.292c0,-0.291 -0.041,-0.541 -0.166,-0.791c-0.084,-0.25 -0.25,-0.459 -0.417,-0.625c-0.167,-0.167 -0.375,-0.334 -0.625,-0.417c-0.25,-0.083 -0.5,-0.167 -0.75,-0.167l-0.125,0c-0.25,0 -0.542,0.042 -0.75,0.167c-0.25,0.125 -0.458,0.25 -0.625,0.417c-0.167,0.166 -0.292,0.375 -0.417,0.625c-0.125,0.25 -0.166,0.5 -0.166,0.75l-0,2.083c-0,0.292 0.041,0.542 0.166,0.792c0.125,0.25 0.25,0.458 0.417,0.625c0.167,0.166 0.375,0.333 0.625,0.416c0.25,0.084 0.5,0.167 0.75,0.167l0.125,-0c0.417,-0 0.792,-0.083 1.083,-0.333c0.292,-0.209 0.542,-0.5 0.709,-0.834l-0,-0.208c-0,-0.125 -0,-0.25 -0.167,-0.333c-0.083,-0.084 -0.208,-0.125 -0.333,-0.125c-0.084,-0 -0.167,-0 -0.209,0.041c-0.083,0.042 -0.125,0.125 -0.166,0.25c-0.084,0.167 -0.209,0.334 -0.375,0.459c-0.167,0.125 -0.334,0.166 -0.584,0.166l-0.125,0c-0.291,0 -0.541,-0.125 -0.75,-0.291c-0.208,-0.209 -0.291,-0.459 -0.291,-0.75l-0,-0.625l2.666,-0c0,-0 0.25,-0.042 0.334,-0.125c0.083,-0.084 0.125,-0.209 0.125,-0.334l-0,-1l0.041,0Zm-0.916,0.625l-2.209,0l0,-0.625c0,-0.291 0.125,-0.541 0.292,-0.75c0.208,-0.208 0.458,-0.291 0.75,-0.291l0.125,-0c0.25,-0 0.5,0.125 0.708,0.291c0.209,0.167 0.292,0.459 0.292,0.75l0,0.625l0.042,0Zm5.916,-2c-0.166,-0.208 -0.333,-0.375 -0.541,-0.458c-0.25,-0.083 -0.459,-0.167 -0.709,-0.167l-0.416,0c-0.125,0 -0.209,0.042 -0.292,0.084c-0.083,-0 -0.167,0.083 -0.208,0.125c-0,-0.084 -0.084,-0.167 -0.167,-0.167c-0.083,0 -0.167,-0.042 -0.208,-0.042c-0.125,0 -0.209,0.042 -0.334,0.125c-0.083,0.084 -0.166,0.209 -0.166,0.334l-0,5.083c-0,0 0.041,0.292 0.166,0.333c0.084,0.084 0.209,0.125 0.334,0.125c0.125,0 0.208,0 0.333,-0.125c0.083,-0.083 0.167,-0.208 0.167,-0.333l-0,-4.083c-0,-0.084 0.041,-0.167 0.125,-0.25c0.041,-0.084 0.125,-0.167 0.25,-0.167c0.083,-0.042 0.25,-0.083 0.458,-0.083c0.167,-0 0.25,-0 0.375,0.083c0.083,0.042 0.167,0.125 0.208,0.167c0.125,0.125 0.25,0.166 0.375,0.166c0.125,0 0.209,0 0.334,-0.125c0.083,-0.083 0.125,-0.208 0.125,-0.333c-0,-0.083 -0,-0.208 -0.125,-0.333l-0.084,0.041Zm5.75,1.375c0,-0.333 -0.041,-0.625 -0.166,-0.875c-0.125,-0.25 -0.25,-0.458 -0.417,-0.625c-0.167,-0.166 -0.375,-0.291 -0.625,-0.375c-0.25,-0.083 -0.5,-0.125 -0.75,-0.125l-0.125,0c-0.208,0 -0.417,0 -0.583,0.084c-0.167,0.083 -0.334,0.166 -0.459,0.291c0,-0.125 -0.083,-0.208 -0.166,-0.291c-0.084,-0.084 -0.167,-0.084 -0.292,-0.084c-0.125,0 -0.25,0.042 -0.333,0.125c-0.125,0.084 -0.167,0.209 -0.167,0.334l0,5.083c0,-0 0,0.292 0.167,0.333c0.083,0.084 0.208,0.084 0.333,0.084c0.125,-0 0.208,-0 0.333,-0.084c0.084,-0.083 0.167,-0.166 0.167,-0.333l0,-3.583c0,-0.292 0.083,-0.542 0.292,-0.75c0.208,-0.209 0.458,-0.292 0.75,-0.292l0.125,-0c0.291,-0 0.541,0.125 0.75,0.333c0.208,0.209 0.291,0.459 0.291,0.709l0,3.583c0,-0 0,0.292 0.125,0.333c0.084,0.084 0.209,0.084 0.334,0.084c0.125,-0 0.208,-0 0.333,-0.084c0.083,-0.083 0.167,-0.166 0.167,-0.333l-0,-3.583l-0.084,0.041Zm6.584,3.292c-0,-0 -0.167,-0.167 -0.292,-0.167c-0.208,-0.041 -0.333,-0.166 -0.333,-0.416l-0,-2.834c-0,-0.25 -0.042,-0.5 -0.167,-0.708c-0.125,-0.208 -0.208,-0.417 -0.417,-0.625c-0.166,-0.167 -0.375,-0.292 -0.625,-0.417c-0.25,-0.083 -0.5,-0.166 -0.75,-0.166l-0.083,-0c0,-0 -0.333,-0 -0.5,0.041c-0.167,0 -0.333,0.084 -0.5,0.167c-0.167,0.083 -0.333,0.208 -0.458,0.333c-0.167,0.167 -0.25,0.334 -0.375,0.542c-0,0.042 -0.042,0.125 -0.042,0.208c0,0.125 0.042,0.209 0.167,0.334c0.083,0.083 0.208,0.125 0.291,0.125c0.084,-0 0.167,-0 0.209,-0.042c0.083,-0 0.125,-0.083 0.166,-0.208c0.125,-0.209 0.25,-0.334 0.375,-0.459c0.167,-0.083 0.334,-0.166 0.584,-0.166l0.083,-0c0.25,-0 0.5,0.083 0.708,0.208c0.167,0.167 0.292,0.375 0.292,0.75l0,0.208c-0.042,0.042 -0.167,0.125 -0.333,0.167c-0.167,-0 -0.375,0.083 -0.625,0.125c-0.209,-0 -0.459,0.083 -0.709,0.167c-0.25,0.041 -0.5,0.166 -0.708,0.291c-0.208,0.125 -0.375,0.292 -0.5,0.5c-0.167,0.209 -0.208,0.459 -0.208,0.792l-0,0.167c-0,0.291 0.041,0.541 0.166,0.75c0.125,0.208 0.25,0.416 0.459,0.541c0.166,0.125 0.416,0.25 0.625,0.334c0.208,0.083 0.458,0.083 0.708,0.083l0.125,-0c0.5,-0 0.958,-0.167 1.333,-0.458c0.084,0.125 0.167,0.208 0.292,0.291c0.125,0.084 0.292,0.125 0.5,0.167l0.083,-0c0.167,-0 0.25,-0 0.334,-0.125c0.083,-0.083 0.125,-0.208 0.125,-0.333c-0,-0.084 -0,-0.209 -0.084,-0.292l0.084,0.125Zm-1.542,-1.208c0,0.291 -0.125,0.541 -0.292,0.75c-0.208,0.208 -0.458,0.291 -0.75,0.291l-0.125,0c-0.291,0 -0.541,-0.083 -0.75,-0.25c-0.208,-0.166 -0.291,-0.375 -0.291,-0.625l-0,-0.125c-0,0 0.083,-0.375 0.208,-0.5c0.125,-0.125 0.333,-0.208 0.542,-0.25c0.208,-0.083 0.458,-0.125 0.708,-0.166c0.25,-0 0.5,-0.084 0.708,-0.125l0,0.958l0.042,0.042Zm5.667,1.208c-0,-0 -0.167,-0.125 -0.334,-0.167c-0.166,0 -0.375,-0.083 -0.5,-0.208c-0.125,-0.125 -0.208,-0.292 -0.208,-0.5l0,-3.417l0.667,0c-0,0 0.25,-0.041 0.333,-0.125c0.083,-0.083 0.125,-0.208 0.125,-0.333c0,-0.125 0,-0.208 -0.125,-0.333c-0.083,-0.084 -0.167,-0.167 -0.333,-0.167l-0.667,0l0,-2.125c0,0 0,-0.25 -0.167,-0.333c-0.083,-0.084 -0.208,-0.125 -0.333,-0.125c-0.125,-0 -0.208,-0 -0.333,0.125c-0.084,0.083 -0.125,0.208 -0.125,0.333l-0,2.125l-0.417,0c0,0 -0.292,0.042 -0.333,0.167c-0.084,0.083 -0.125,0.208 -0.125,0.333c-0,0.125 -0,0.208 0.125,0.333c0.083,0.084 0.166,0.125 0.333,0.125l0.417,0l-0,3.459c-0,0.208 -0,0.416 0.125,0.625c0.083,0.208 0.166,0.375 0.333,0.5c0.167,0.166 0.333,0.25 0.5,0.333c0.208,0.083 0.417,0.125 0.625,0.125c0.167,-0 0.292,-0 0.333,-0.125c0.084,-0.083 0.125,-0.208 0.125,-0.292c0,-0.125 0,-0.208 -0.125,-0.291l0.084,-0.042Zm3,-7.333c-0,-0 -0.042,-0.25 -0.167,-0.334c-0.083,-0.083 -0.208,-0.125 -0.292,-0.125c-0.125,0 -0.208,0 -0.333,0.125c-0.083,0.084 -0.167,0.209 -0.167,0.334l0,0.25c0,-0 0.042,0.25 0.167,0.333c0.083,0.083 0.208,0.125 0.333,0.125c0.125,-0 0.209,-0.042 0.292,-0.125c0.125,-0.083 0.167,-0.208 0.167,-0.333l-0,-0.25Zm-0,2.541c-0,0 -0.042,-0.25 -0.167,-0.333c-0.083,-0.083 -0.208,-0.125 -0.292,-0.125c-0.125,-0 -0.208,-0 -0.333,0.125c-0.083,0.083 -0.167,0.167 -0.167,0.333l0,5.084c0,-0 0.042,0.291 0.167,0.333c0.083,0.083 0.208,0.083 0.333,0.083c0.125,0 0.209,0 0.292,-0.083c0.125,-0.083 0.167,-0.167 0.167,-0.333l-0,-5.084Zm6.25,1.5c-0,-0.25 -0.042,-0.5 -0.167,-0.75c-0.125,-0.25 -0.25,-0.458 -0.417,-0.625c-0.166,-0.208 -0.375,-0.333 -0.625,-0.416c-0.25,-0.084 -0.5,-0.167 -0.75,-0.167l-0.125,-0c-0.25,-0 -0.5,0.042 -0.75,0.167c-0.25,0.125 -0.458,0.25 -0.625,0.416c-0.166,0.167 -0.333,0.375 -0.416,0.625c-0.084,0.25 -0.167,0.5 -0.167,0.75l0,2.084c0,0.291 0.042,0.541 0.167,0.791c0.083,0.25 0.25,0.459 0.416,0.625c0.167,0.167 0.375,0.334 0.625,0.417c0.25,0.083 0.5,0.167 0.75,0.167l0.125,-0c0.25,-0 0.5,-0.042 0.75,-0.167c0.25,-0.125 0.459,-0.25 0.625,-0.417c0.167,-0.166 0.334,-0.375 0.417,-0.625c0.083,-0.25 0.167,-0.5 0.167,-0.791l-0,-2.084Zm-0.917,2.084c0,0.291 -0.083,0.541 -0.292,0.75c-0.208,0.208 -0.458,0.291 -0.75,0.291l-0.125,0c-0.291,0 -0.541,-0.125 -0.75,-0.291c-0.208,-0.209 -0.333,-0.459 -0.333,-0.75l0,-2.084c0,-0.291 0.125,-0.541 0.333,-0.708c0.209,-0.208 0.459,-0.333 0.709,-0.333l0.125,-0c0.291,-0 0.541,0.125 0.75,0.333c0.208,0.208 0.291,0.458 0.291,0.708l0,2.084l0.042,-0Zm7.083,-2.084c0,-0.333 -0.041,-0.625 -0.166,-0.875c-0.125,-0.25 -0.25,-0.458 -0.417,-0.625c-0.167,-0.166 -0.375,-0.291 -0.625,-0.375c-0.208,-0.083 -0.5,-0.125 -0.75,-0.125l-0.083,0c-0.209,0 -0.417,0 -0.584,0.084c-0.166,0.083 -0.333,0.166 -0.458,0.291c0,-0.125 -0.083,-0.208 -0.167,-0.291c-0.083,-0.084 -0.166,-0.084 -0.291,-0.084c-0.125,0 -0.209,0.042 -0.334,0.125c-0.125,0.084 -0.166,0.209 -0.166,0.334l-0,5.083c-0,-0 -0,0.292 0.166,0.333c0.084,0.084 0.209,0.084 0.292,0.084c0.083,-0 0.208,-0 0.333,-0.084c0.084,-0.083 0.125,-0.166 0.125,-0.333l0,-3.583c0,-0.292 0.125,-0.542 0.334,-0.75c0.208,-0.209 0.458,-0.292 0.75,-0.292l0.125,-0c0.291,-0 0.541,0.125 0.75,0.333c0.208,0.209 0.291,0.459 0.291,0.709l0,3.583c0,-0 0.042,0.292 0.167,0.333c0.083,0.084 0.208,0.084 0.333,0.084c0.125,-0 0.209,-0 0.334,-0.084c0.083,-0.083 0.125,-0.166 0.125,-0.333l-0,-3.583l-0.084,0.041Zm6.584,3.292c-0,-0 -0.167,-0.167 -0.292,-0.167c-0.208,-0.041 -0.333,-0.166 -0.333,-0.416l-0,-2.834c-0,-0.25 -0.042,-0.5 -0.125,-0.708c-0.125,-0.208 -0.25,-0.417 -0.417,-0.625c-0.167,-0.167 -0.375,-0.292 -0.625,-0.417c-0.25,-0.083 -0.5,-0.166 -0.75,-0.166l-0.083,-0c-0,-0 -0.334,-0 -0.5,0.041c-0.167,0 -0.334,0.084 -0.5,0.167c-0.167,0.083 -0.334,0.208 -0.459,0.333c-0.125,0.167 -0.25,0.334 -0.375,0.542l0,0.208c0,0.125 0,0.209 0.125,0.334c0.084,0.083 0.209,0.125 0.334,0.125c0.083,-0 0.166,-0 0.25,-0.042c0.083,-0 0.125,-0.083 0.166,-0.208c0.125,-0.209 0.25,-0.334 0.375,-0.459c0.167,-0.083 0.334,-0.166 0.584,-0.166l0.083,-0c0.25,-0 0.5,0.083 0.708,0.208c0.209,0.167 0.292,0.375 0.292,0.75l0,0.208c-0.042,0.042 -0.167,0.125 -0.333,0.167c-0.167,-0 -0.375,0.083 -0.584,0.125c-0.208,-0 -0.458,0.083 -0.708,0.167c-0.25,0.041 -0.5,0.166 -0.708,0.291c-0.209,0.125 -0.375,0.292 -0.5,0.5c-0.125,0.209 -0.209,0.459 -0.209,0.792l0,0.167c0,0.291 0.042,0.541 0.167,0.75c0.125,0.208 0.25,0.416 0.458,0.541c0.167,0.125 0.375,0.25 0.625,0.334c0.25,0.083 0.5,0.083 0.709,0.083l0.125,-0c0.5,-0 0.958,-0.167 1.333,-0.458c0.083,0.125 0.167,0.208 0.333,0.291c0.125,0.084 0.292,0.125 0.5,0.167l0.084,-0c0.166,-0 0.25,-0 0.333,-0.125c0.083,-0.083 0.125,-0.208 0.125,-0.333c0,-0.084 0,-0.209 -0.083,-0.292l-0.125,0.125Zm-1.542,-1.208c0,0.291 -0.083,0.541 -0.292,0.75c-0.208,0.208 -0.458,0.291 -0.75,0.291l-0.125,0c-0.291,0 -0.541,-0.083 -0.75,-0.25c-0.166,-0.166 -0.291,-0.375 -0.291,-0.625l-0,-0.125c-0,0 0.083,-0.375 0.208,-0.5c0.167,-0.125 0.333,-0.208 0.542,-0.25c0.208,-0.083 0.458,-0.125 0.708,-0.166c0.25,-0 0.5,-0.084 0.708,-0.125l0,0.958l0.042,0.042Zm5.458,1.166c0,0 -0.208,-0.125 -0.375,-0.125c-0.166,0 -0.333,-0.083 -0.5,-0.208c-0.125,-0.125 -0.166,-0.292 -0.166,-0.458l-0,-6.5c-0,-0 -0.042,-0.25 -0.167,-0.334c-0.083,-0.083 -0.208,-0.125 -0.333,-0.125c-0.125,0 -0.209,0 -0.292,0.125c-0.083,0.084 -0.167,0.209 -0.167,0.334l0,6.5c0,0.208 0.042,0.416 0.125,0.625c0.084,0.208 0.209,0.375 0.334,0.5c0.166,0.166 0.333,0.25 0.5,0.333c0.208,0.083 0.416,0.125 0.625,0.125c0.166,-0 0.291,-0 0.375,-0.125c0.083,-0.083 0.125,-0.208 0.125,-0.292c-0,-0.125 -0,-0.208 -0.125,-0.333l0.041,-0.042Zm5.834,-3.25c-0,-0.291 -0.042,-0.541 -0.167,-0.791c-0.125,-0.25 -0.25,-0.459 -0.417,-0.625c-0.166,-0.167 -0.375,-0.334 -0.625,-0.417c-0.25,-0.083 -0.5,-0.167 -0.75,-0.167l-0.125,0c-0.25,0 -0.541,0.042 -0.75,0.167c-0.25,0.125 -0.458,0.25 -0.625,0.417c-0.166,0.166 -0.333,0.375 -0.416,0.625c-0.125,0.25 -0.167,0.5 -0.167,0.75l0,2.083c0,0.292 0.042,0.542 0.167,0.792c0.083,0.25 0.25,0.458 0.416,0.625c0.167,0.166 0.375,0.333 0.625,0.416c0.25,0.084 0.5,0.167 0.75,0.167l0.125,-0c0.417,-0 0.792,-0.083 1.084,-0.333c0.333,-0.209 0.541,-0.5 0.708,-0.834c0,-0.041 0.042,-0.125 0.042,-0.208c-0,-0.125 -0.042,-0.25 -0.167,-0.333c-0.083,-0.084 -0.208,-0.125 -0.333,-0.125c-0.084,-0 -0.167,-0 -0.209,0.041c-0.083,0.042 -0.125,0.125 -0.166,0.25c-0.084,0.167 -0.209,0.334 -0.375,0.459c-0.167,0.125 -0.334,0.166 -0.584,0.166l-0.125,0c-0.291,0 -0.541,-0.125 -0.75,-0.291c-0.208,-0.209 -0.291,-0.459 -0.291,-0.75l-0,-0.625l2.666,-0c0,-0 0.25,-0.042 0.334,-0.125c0.083,-0.084 0.125,-0.209 0.125,-0.334l-0,-1Zm-0.917,0.625l-2.208,0l-0,-0.625c-0,-0.291 0.083,-0.541 0.333,-0.75c0.208,-0.208 0.458,-0.291 0.75,-0.291l0.125,-0c0.25,-0 0.5,0.125 0.708,0.291c0.209,0.167 0.292,0.459 0.292,0.75l0,0.625Z" style="fill:#d71d24;fill-rule:nonzero;"/><path d="M92,13.125c0,-0.333 -0.083,-0.625 -0.167,-0.917c-0.125,-0.291 -0.291,-0.5 -0.5,-0.708c-0.208,-0.208 -0.458,-0.375 -0.75,-0.5c-0.291,-0.125 -0.583,-0.167 -0.875,-0.167l-1.958,0c0,0 -0.25,0.042 -0.333,0.125c-0.084,0.084 -0.125,0.209 -0.125,0.334l-0,7.5c-0,-0 -0,0.25 0.125,0.333c0.083,0.083 0.208,0.125 0.333,0.125l1.958,0c0.334,0 0.625,-0.042 0.875,-0.167c0.292,-0.125 0.542,-0.291 0.75,-0.5c0.209,-0.208 0.375,-0.458 0.5,-0.75c0.125,-0.291 0.167,-0.583 0.167,-0.916l0,-3.792Zm-0.917,3.792c0,-0 0,0.375 -0.125,0.541c-0.083,0.167 -0.166,0.292 -0.291,0.459c-0.125,0.125 -0.25,0.208 -0.417,0.291c-0.167,0.084 -0.333,0.125 -0.542,0.125l-1.5,0l0,-6.583l1.542,0c0,0 0.375,0 0.542,0.125c0.166,0.083 0.291,0.167 0.416,0.292c0.125,0.125 0.209,0.25 0.292,0.458c0.083,0.208 0.125,0.333 0.125,0.542l0,3.791l-0.042,-0.041Zm7.125,-1.667c0,-0.292 -0.041,-0.542 -0.166,-0.792c-0.125,-0.25 -0.25,-0.458 -0.417,-0.625c-0.167,-0.166 -0.375,-0.333 -0.625,-0.416c-0.208,-0.084 -0.5,-0.125 -0.75,-0.125l-0.125,-0c-0.25,-0 -0.5,0.041 -0.75,0.166c-0.25,0.084 -0.458,0.25 -0.625,0.417c-0.167,0.167 -0.333,0.375 -0.417,0.625c-0.125,0.25 -0.166,0.5 -0.166,0.75l-0,2.083c-0,0.25 0.041,0.542 0.166,0.792c0.084,0.25 0.25,0.417 0.417,0.625c0.167,0.167 0.375,0.333 0.625,0.417c0.25,0.125 0.5,0.166 0.75,0.166l0.125,0c0.417,0 0.792,-0.125 1.083,-0.333c0.292,-0.208 0.542,-0.5 0.667,-0.833c0,-0.042 0.042,-0.125 0.042,-0.209c-0,-0.166 -0.042,-0.25 -0.167,-0.333c-0.083,-0.083 -0.208,-0.125 -0.333,-0.125c-0.084,-0 -0.167,-0 -0.25,0.083c-0.084,0.042 -0.125,0.125 -0.167,0.209c-0.083,0.166 -0.208,0.333 -0.375,0.458c-0.167,0.125 -0.375,0.167 -0.583,0.167l-0.125,-0c-0.292,-0 -0.542,-0.084 -0.75,-0.292c-0.209,-0.208 -0.292,-0.458 -0.292,-0.708l0,-0.625l2.667,-0c-0,-0 0.25,-0.042 0.333,-0.125c0.083,-0.084 0.125,-0.209 0.125,-0.334l0,-1l0.083,-0.083Zm-0.916,0.625l-2.209,-0l0,-0.625c0,-0.292 0.084,-0.542 0.292,-0.75c0.208,-0.208 0.458,-0.292 0.75,-0.292l0.125,0c0.25,0 0.5,0.125 0.708,0.292c0.209,0.208 0.334,0.458 0.334,0.75l-0,0.625Zm6.916,-2.125c0,-0 -0.041,-0.25 -0.166,-0.333c-0.084,-0.084 -0.209,-0.125 -0.334,-0.125c-0.125,-0 -0.208,-0 -0.333,0.125c-0.083,0.083 -0.167,0.208 -0.167,0.333l0,3.583c0,0.292 -0.083,0.5 -0.291,0.709c-0.209,0.208 -0.459,0.291 -0.75,0.291l-0.125,0c-0.292,0 -0.542,-0.083 -0.75,-0.291c-0.209,-0.209 -0.292,-0.459 -0.292,-0.709l0,-3.583c0,-0 -0.042,-0.25 -0.167,-0.333c-0.083,-0.084 -0.208,-0.125 -0.333,-0.125c-0.125,-0 -0.208,-0 -0.292,0.125c-0.125,0.083 -0.166,0.208 -0.166,0.333l-0,3.625c-0,0.333 0.041,0.625 0.166,0.875c0.125,0.25 0.25,0.458 0.417,0.583c0.167,0.167 0.375,0.292 0.625,0.334c0.25,0.083 0.5,0.125 0.75,0.125l0.125,-0c0,-0 0.417,-0 0.583,-0.084c0.209,-0.083 0.334,-0.166 0.459,-0.25c-0,0.125 0.083,0.209 0.166,0.292c0.084,0.042 0.167,0.083 0.292,0.083c0.125,0 0.208,-0.041 0.333,-0.125c0.084,-0.083 0.167,-0.208 0.167,-0.333l0,-5.083l0.083,-0.042Zm4.75,4.792c0,-0 -0.166,-0.125 -0.333,-0.167c-0.208,-0 -0.375,-0.083 -0.5,-0.208c-0.167,-0.125 -0.208,-0.292 -0.208,-0.5l-0,-3.417l0.666,-0c0,-0 0.292,-0.042 0.334,-0.125c0.083,-0.125 0.125,-0.208 0.125,-0.333c-0,-0.125 -0,-0.209 -0.125,-0.334c-0.084,-0.083 -0.209,-0.125 -0.334,-0.125l-0.666,0l-0,-2.125c-0,0 -0.042,-0.291 -0.167,-0.333c-0.083,-0.083 -0.208,-0.125 -0.292,-0.125c-0.125,-0 -0.208,-0 -0.333,0.125c-0.083,0.083 -0.167,0.208 -0.167,0.333l0,2.125l-0.416,0c-0,0 -0.25,0.042 -0.334,0.125c-0.083,0.125 -0.125,0.209 -0.125,0.334c0,0.125 0,0.208 0.125,0.333c0.084,0.083 0.209,0.125 0.334,0.125l0.416,-0l0,3.458c0,0.209 0.042,0.417 0.125,0.625c0.084,0.209 0.209,0.375 0.375,0.5c0.167,0.167 0.292,0.25 0.5,0.334c0.167,0.083 0.417,0.125 0.625,0.125c0.167,-0 0.292,-0.042 0.375,-0.167c0.084,-0.083 0.125,-0.208 0.125,-0.333c0,-0.125 0,-0.209 -0.083,-0.292l-0.042,0.042Zm6,-1c0,-0.375 -0.083,-0.709 -0.25,-0.959c-0.166,-0.208 -0.375,-0.416 -0.583,-0.541c-0.208,-0.125 -0.5,-0.209 -0.75,-0.292c-0.292,-0.042 -0.542,-0.125 -0.75,-0.167c-0.25,-0.083 -0.417,-0.166 -0.583,-0.25c-0.167,-0.083 -0.25,-0.25 -0.25,-0.458c-0,-0.208 0.125,-0.375 0.291,-0.5c0.167,-0.125 0.459,-0.208 0.792,-0.208l0.042,-0c0.25,-0 0.5,-0 0.666,0.125c0.167,0.083 0.292,0.166 0.417,0.208c0.125,0.042 0.208,0.083 0.292,0.083c0.125,0 0.25,-0.041 0.333,-0.125c0.083,-0.083 0.125,-0.208 0.125,-0.291c0,-0.167 -0.042,-0.25 -0.167,-0.375c-0.041,-0 -0.125,-0.084 -0.208,-0.167c-0.083,-0.042 -0.208,-0.125 -0.333,-0.167c-0.125,-0.041 -0.292,-0.083 -0.459,-0.125c-0.166,-0.041 -0.375,-0.041 -0.583,-0.041l-0.042,-0c0,-0 -0.416,-0 -0.625,0.083c-0.208,0.042 -0.458,0.125 -0.666,0.25c-0.209,0.125 -0.375,0.292 -0.5,0.5c-0.125,0.208 -0.209,0.458 -0.209,0.708c0,0.375 0.084,0.667 0.209,0.875c0.166,0.209 0.375,0.375 0.583,0.5c0.25,0.125 0.5,0.209 0.75,0.25c0.25,0.042 0.542,0.125 0.75,0.209c0.25,0.083 0.417,0.166 0.583,0.291c0.167,0.125 0.209,0.334 0.209,0.584c-0,0.25 -0.084,0.416 -0.292,0.625c-0.208,0.166 -0.5,0.25 -0.875,0.25l-0.042,-0c-0.208,-0 -0.458,-0.084 -0.708,-0.25c-0.25,-0.167 -0.417,-0.334 -0.583,-0.542c-0.042,-0.083 -0.125,-0.125 -0.209,-0.167l-0.208,0c-0.125,0 -0.208,0 -0.333,0.125c-0.084,0.084 -0.125,0.209 -0.125,0.334c-0,-0 -0,0.125 0.041,0.25c0.084,0.166 0.209,0.375 0.375,0.5c0.167,0.166 0.334,0.291 0.5,0.375c0.167,0.083 0.375,0.166 0.584,0.25c0.208,0.041 0.416,0.083 0.583,0.083l0.083,0c0.25,0 0.5,0 0.75,-0.125c0.25,-0.083 0.5,-0.208 0.667,-0.333c0.208,-0.167 0.375,-0.334 0.5,-0.542c0.125,-0.208 0.167,-0.458 0.167,-0.75l0.041,-0.083Zm5.792,-0.584c0,0 -0.208,-0.125 -0.333,-0.125c-0.125,0 -0.209,0 -0.292,0.125c-0.083,0.084 -0.167,0.209 -0.167,0.375c0,0.292 -0.125,0.5 -0.333,0.709c-0.208,0.208 -0.417,0.291 -0.708,0.291l-0.125,0c-0.292,0 -0.542,-0.083 -0.75,-0.291c-0.209,-0.209 -0.292,-0.459 -0.292,-0.709l0,-2.083c0,-0.292 0.083,-0.5 0.292,-0.708c0.208,-0.209 0.458,-0.292 0.75,-0.292l0.125,-0c0.291,-0 0.5,0.083 0.708,0.292c0.208,0.208 0.292,0.458 0.333,0.75c0,0.166 0.042,0.291 0.167,0.333c0.083,0.083 0.208,0.125 0.292,0.125c0.125,-0 0.208,-0.042 0.333,-0.125c0.083,-0.083 0.167,-0.208 0.167,-0.333c-0,-0.292 -0.042,-0.542 -0.167,-0.75c-0.125,-0.209 -0.25,-0.459 -0.417,-0.625c-0.166,-0.167 -0.375,-0.334 -0.625,-0.417c-0.25,-0.083 -0.5,-0.167 -0.75,-0.167l-0.125,0c-0.25,0 -0.541,0.042 -0.75,0.167c-0.25,0.083 -0.458,0.25 -0.625,0.417c-0.166,0.166 -0.291,0.375 -0.416,0.625c-0.125,0.25 -0.167,0.5 -0.167,0.791l0,2.084c0,0.25 0.042,0.541 0.167,0.791c0.083,0.25 0.25,0.417 0.416,0.625c0.167,0.167 0.375,0.334 0.625,0.417c0.25,0.125 0.5,0.167 0.75,0.167l0.125,-0c0.25,-0 0.5,-0.042 0.75,-0.167c0.25,-0.083 0.459,-0.25 0.625,-0.417c0.167,-0.166 0.334,-0.375 0.417,-0.625c0.125,-0.25 0.167,-0.5 0.167,-0.75c-0,-0.166 -0.042,-0.291 -0.167,-0.375l0,-0.125Zm6.292,-1.708c-0,-0.292 -0.042,-0.542 -0.167,-0.75c-0.083,-0.25 -0.25,-0.458 -0.417,-0.625c-0.166,-0.167 -0.375,-0.333 -0.625,-0.417c-0.25,-0.083 -0.5,-0.166 -0.75,-0.166l-0.083,-0c-0.208,-0 -0.417,-0 -0.625,0.083c-0.208,0.042 -0.333,0.167 -0.458,0.25l-0,-2.458c-0,-0 -0.042,-0.292 -0.167,-0.334c-0.083,-0.083 -0.208,-0.125 -0.333,-0.125c-0.125,0 -0.209,0 -0.334,0.125c-0.083,0.084 -0.166,0.209 -0.166,0.334l-0,7.666c-0,0 0.041,0.292 0.166,0.334c0.084,0.083 0.209,0.125 0.334,0.125c0.125,-0 0.208,-0 0.333,-0.125c0.083,-0.084 0.167,-0.209 0.167,-0.334l-0,-3.666c-0,-0 -0,-0.292 0.083,-0.417c0.083,-0.125 0.167,-0.208 0.25,-0.333c0.083,-0.084 0.208,-0.167 0.333,-0.167c0.125,-0 0.25,-0.083 0.417,-0.083c0.167,-0 0.25,-0 0.417,0.083c0.125,-0 0.25,0.125 0.375,0.167c0.125,0.083 0.166,0.208 0.25,0.333c0.041,0.125 0.083,0.292 0.083,0.458l0,3.584c0,-0 0.042,0.291 0.167,0.333c0.083,0.083 0.208,0.125 0.333,0.125c0.125,-0 0.208,-0 0.292,-0.125c0.083,-0.083 0.166,-0.208 0.166,-0.333l0,-3.584l-0.041,0.042Zm6.041,-0c0,-0.292 -0.041,-0.542 -0.166,-0.792c-0.125,-0.25 -0.25,-0.458 -0.417,-0.625c-0.167,-0.166 -0.375,-0.333 -0.625,-0.416c-0.25,-0.084 -0.5,-0.125 -0.75,-0.125l-0.125,-0c-0.25,-0 -0.5,0.041 -0.75,0.166c-0.25,0.084 -0.458,0.25 -0.625,0.417c-0.167,0.167 -0.333,0.375 -0.417,0.625c-0.125,0.25 -0.166,0.5 -0.166,0.75l-0,2.083c-0,0.25 0.041,0.542 0.166,0.792c0.084,0.25 0.25,0.417 0.417,0.625c0.167,0.167 0.417,0.333 0.625,0.417c0.25,0.125 0.5,0.166 0.75,0.166l0.125,0c0.417,0 0.792,-0.125 1.083,-0.333c0.334,-0.208 0.542,-0.5 0.667,-0.833c0,-0.042 0.042,-0.125 0.042,-0.209c-0,-0.166 -0.042,-0.25 -0.125,-0.333c-0.084,-0.083 -0.209,-0.125 -0.334,-0.125c-0.083,-0 -0.166,-0 -0.208,0.083c-0.083,0.042 -0.125,0.125 -0.167,0.209c-0.083,0.166 -0.208,0.333 -0.375,0.458c-0.166,0.125 -0.333,0.167 -0.583,0.167l-0.125,-0c-0.292,-0 -0.542,-0.084 -0.75,-0.292c-0.208,-0.208 -0.292,-0.458 -0.292,-0.708l0,-0.625l2.667,-0c0,-0 0.25,-0.042 0.333,-0.125c0.084,-0.084 0.125,-0.209 0.125,-0.334l0,-1.083Zm-0.916,0.625l-2.209,-0l0,-0.625c0,-0.292 0.125,-0.542 0.292,-0.75c0.208,-0.208 0.458,-0.292 0.75,-0.292l0.125,0c0.25,0 0.5,0.125 0.708,0.292c0.209,0.208 0.292,0.458 0.292,0.75l0,0.625l0.042,-0Zm11.708,-0.792c0,0 0,-0.208 -0.125,-0.333c-0.083,-0.083 -0.208,-0.167 -0.333,-0.167l-1.75,0c-0,0 -0.25,0.042 -0.334,0.167c-0.083,0.083 -0.125,0.208 -0.125,0.333c0,0.125 0,0.209 0.125,0.334c0.084,0.125 0.167,0.166 0.334,0.166l1.291,0l0,1.417c0,-0 0,0.375 -0.125,0.542c-0.083,0.166 -0.166,0.333 -0.291,0.458c-0.125,0.125 -0.292,0.208 -0.417,0.292c-0.167,0.083 -0.375,0.125 -0.542,0.125l-0.125,-0c0,-0 -0.375,-0 -0.541,-0.125c-0.167,-0.084 -0.334,-0.167 -0.459,-0.292c-0.125,-0.125 -0.208,-0.292 -0.291,-0.458c-0.084,-0.167 -0.125,-0.334 -0.125,-0.542l-0,-3.958c-0,-0 -0,-0.375 0.125,-0.542c0.125,-0.167 0.166,-0.292 0.291,-0.458c0.125,-0.125 0.292,-0.209 0.459,-0.292c0.166,-0.083 0.333,-0.125 0.541,-0.125l0.125,-0c0.417,-0 0.709,0.125 0.959,0.333c0.208,0.209 0.375,0.5 0.458,0.875c0,0.125 0.083,0.25 0.167,0.292c0.083,0.083 0.166,0.083 0.291,0.083c0.125,0 0.209,0 0.334,-0.125c0.083,-0.083 0.125,-0.166 0.125,-0.333l-0,-0.083c-0,-0.292 -0.125,-0.542 -0.25,-0.792c-0.125,-0.25 -0.292,-0.458 -0.5,-0.625c-0.209,-0.167 -0.459,-0.333 -0.709,-0.417c-0.25,-0.125 -0.541,-0.166 -0.833,-0.166l-0.125,-0c-0.333,-0 -0.625,0.041 -0.917,0.166c-0.291,0.125 -0.541,0.292 -0.75,0.5c-0.208,0.209 -0.375,0.459 -0.5,0.709c-0.125,0.291 -0.166,0.583 -0.166,0.916l-0,3.959c-0,0.333 0.041,0.625 0.166,0.916c0.125,0.292 0.292,0.542 0.5,0.75c0.209,0.209 0.459,0.375 0.75,0.5c0.292,0.125 0.584,0.167 0.917,0.167l0.125,-0c0.333,-0 0.625,-0.042 0.917,-0.167c0.291,-0.125 0.5,-0.291 0.75,-0.5c0.208,-0.208 0.375,-0.458 0.5,-0.75c0.125,-0.291 0.166,-0.583 0.166,-0.916l0,-1.875l-0.083,0.041Zm6.208,0.167c0,-0.292 -0.041,-0.542 -0.166,-0.792c-0.084,-0.25 -0.209,-0.458 -0.417,-0.625c-0.167,-0.166 -0.375,-0.333 -0.625,-0.416c-0.25,-0.084 -0.5,-0.125 -0.75,-0.125l-0.125,-0c-0.292,-0 -0.542,0.041 -0.75,0.166c-0.25,0.084 -0.458,0.25 -0.625,0.417c-0.167,0.167 -0.333,0.375 -0.417,0.625c-0.125,0.25 -0.166,0.5 -0.166,0.75l-0,2.083c-0,0.25 0.041,0.542 0.166,0.792c0.084,0.25 0.25,0.417 0.417,0.625c0.167,0.167 0.375,0.333 0.625,0.417c0.25,0.125 0.5,0.166 0.75,0.166l0.125,0c0.417,0 0.792,-0.125 1.083,-0.333c0.334,-0.208 0.542,-0.5 0.709,-0.833c-0,-0.042 0.041,-0.125 0.041,-0.209c0,-0.166 -0.041,-0.25 -0.166,-0.333c-0.084,-0.083 -0.209,-0.125 -0.334,-0.125c-0.083,-0 -0.166,-0 -0.208,0.083c-0.083,0.042 -0.125,0.125 -0.167,0.209c-0.083,0.166 -0.208,0.333 -0.375,0.458c-0.166,0.125 -0.375,0.167 -0.583,0.167l-0.125,-0c-0.292,-0 -0.542,-0.084 -0.75,-0.292c-0.208,-0.208 -0.292,-0.458 -0.292,-0.708l0,-0.625l2.667,-0c0,-0 0.25,-0.042 0.333,-0.125c0.084,-0.084 0.125,-0.209 0.125,-0.334l0,-1.083Zm-0.916,0.625l-2.209,-0l0,-0.625c0,-0.292 0.084,-0.542 0.334,-0.75c0.208,-0.208 0.458,-0.292 0.75,-0.292l0.125,0c0.25,0 0.5,0.125 0.708,0.292c0.208,0.208 0.292,0.458 0.292,0.75l-0,0.625Zm7.041,1.667c0,-0.375 -0.083,-0.709 -0.25,-0.959c-0.166,-0.208 -0.333,-0.416 -0.583,-0.541c-0.25,-0.125 -0.5,-0.209 -0.75,-0.292c-0.25,-0.042 -0.542,-0.125 -0.75,-0.167c-0.25,-0.083 -0.417,-0.166 -0.583,-0.25c-0.167,-0.083 -0.25,-0.25 -0.25,-0.458c-0,-0.208 0.083,-0.375 0.25,-0.5c0.166,-0.125 0.458,-0.208 0.791,-0.208l0.042,-0c0.292,-0 0.5,-0 0.625,0.125c0.167,0.083 0.292,0.166 0.417,0.208c0.083,0.042 0.166,0.083 0.25,0.083c0.125,0 0.25,-0.041 0.333,-0.125c0.083,-0.083 0.125,-0.208 0.125,-0.291c0,-0.167 -0.042,-0.25 -0.167,-0.375c-0.041,-0 -0.125,-0.084 -0.208,-0.167c-0.083,-0.042 -0.208,-0.125 -0.333,-0.167c-0.125,-0.041 -0.292,-0.083 -0.459,-0.125c-0.166,-0.041 -0.375,-0.041 -0.583,-0.041l-0.042,-0c0,-0 -0.416,-0 -0.625,0.083c-0.25,0.042 -0.458,0.125 -0.666,0.25c-0.209,0.125 -0.375,0.292 -0.5,0.5c-0.125,0.208 -0.209,0.458 -0.209,0.708c0,0.375 0.084,0.667 0.25,0.875c0.167,0.209 0.334,0.375 0.584,0.5c0.208,0.125 0.5,0.209 0.75,0.25c0.25,0.042 0.541,0.125 0.75,0.209c0.25,0.083 0.416,0.166 0.583,0.291c0.167,0.125 0.25,0.334 0.25,0.584c0,0.25 -0.125,0.416 -0.292,0.625c-0.208,0.166 -0.5,0.25 -0.875,0.25l-0.041,-0c-0.209,-0 -0.459,-0.084 -0.709,-0.25c-0.208,-0.167 -0.416,-0.334 -0.583,-0.542c-0.042,-0.083 -0.125,-0.125 -0.208,-0.167l-0.209,0c-0.125,0 -0.208,0 -0.333,0.125c-0.125,0.084 -0.167,0.209 -0.167,0.334c0,-0 0,0.125 0.042,0.25c0.125,0.166 0.208,0.375 0.375,0.5c0.167,0.166 0.333,0.291 0.5,0.375c0.167,0.083 0.375,0.166 0.583,0.25c0.209,0.041 0.417,0.083 0.584,0.083l0.083,-0c0.25,-0 0.5,-0 0.75,-0.125c0.25,-0.083 0.5,-0.208 0.667,-0.333c0.208,-0.167 0.375,-0.334 0.5,-0.542c0.125,-0.208 0.166,-0.458 0.166,-0.75l0.125,-0.083Zm5.917,-2.292c0,-0.292 0,-0.542 -0.167,-0.792c-0.125,-0.25 -0.25,-0.458 -0.416,-0.625c-0.167,-0.166 -0.375,-0.333 -0.625,-0.416c-0.25,-0.084 -0.5,-0.125 -0.75,-0.125l-0.125,-0c-0.25,-0 -0.5,0.041 -0.75,0.166c-0.25,0.084 -0.459,0.25 -0.625,0.417c-0.167,0.167 -0.334,0.375 -0.417,0.625c-0.083,0.25 -0.167,0.5 -0.167,0.75l0,2.083c0,0.25 0.042,0.542 0.167,0.792c0.125,0.25 0.25,0.417 0.417,0.625c0.166,0.167 0.416,0.333 0.625,0.417c0.25,0.125 0.5,0.166 0.75,0.166l0.125,0c0.416,0 0.791,-0.125 1.083,-0.333c0.333,-0.208 0.542,-0.5 0.708,-0.833c0,-0.042 0.042,-0.125 0.042,-0.209c0,-0.166 -0.042,-0.25 -0.167,-0.333c-0.083,-0.083 -0.208,-0.125 -0.333,-0.125c-0.083,-0 -0.167,-0 -0.25,0.083c-0.083,0.042 -0.125,0.125 -0.167,0.209c-0.083,0.166 -0.208,0.333 -0.375,0.458c-0.166,0.125 -0.375,0.167 -0.583,0.167l-0.125,-0c-0.292,-0 -0.542,-0.084 -0.708,-0.292c-0.209,-0.208 -0.334,-0.458 -0.334,-0.708l0,-0.625l2.667,-0c0,-0 0.25,-0.042 0.333,-0.125c0.084,-0.084 0.125,-0.209 0.125,-0.334l0,-1l0.042,-0.083Zm-0.917,0.625l-2.208,-0l0,-0.625c0,-0.292 0.125,-0.542 0.333,-0.75c0.209,-0.208 0.459,-0.292 0.75,-0.292l0.125,0c0.292,0 0.5,0.125 0.709,0.292c0.208,0.208 0.291,0.458 0.291,0.75l0,0.625Zm4.959,2.625c-0,-0 -0.167,-0.125 -0.334,-0.125c-0.208,-0 -0.375,-0.083 -0.5,-0.208c-0.125,-0.125 -0.166,-0.292 -0.166,-0.5l-0,-6.5c-0,-0 -0.042,-0.292 -0.167,-0.334c-0.083,-0.083 -0.208,-0.125 -0.333,-0.125c-0.125,0 -0.209,0 -0.334,0.125c-0.083,0.084 -0.166,0.209 -0.166,0.334l-0,6.5c-0,0.208 -0,0.416 0.125,0.625c0.083,0.208 0.208,0.375 0.333,0.5c0.167,0.166 0.333,0.25 0.5,0.333c0.208,0.083 0.417,0.125 0.625,0.125c0.167,-0 0.292,-0.042 0.333,-0.167c0.084,-0.083 0.125,-0.208 0.125,-0.333c0,-0.125 0,-0.208 -0.125,-0.333l0.084,0.083Zm3.833,-0c0,-0 -0.208,-0.125 -0.333,-0.125c-0.167,-0 -0.334,-0.083 -0.5,-0.208c-0.125,-0.125 -0.167,-0.292 -0.167,-0.5l0,-6.5c0,-0 -0.042,-0.292 -0.167,-0.334c-0.083,-0.083 -0.208,-0.125 -0.333,-0.125c-0.125,0 -0.208,0 -0.292,0.125c-0.083,0.084 -0.166,0.209 -0.166,0.334l-0,6.5c-0,0.208 0.041,0.416 0.125,0.625c0.083,0.208 0.208,0.375 0.333,0.5c0.167,0.166 0.333,0.25 0.5,0.333c0.208,0.083 0.417,0.125 0.625,0.125c0.167,-0 0.292,-0.042 0.333,-0.167c0.084,-0.083 0.125,-0.208 0.125,-0.333c0,-0.125 0,-0.208 -0.125,-0.333l0.042,0.083Zm6.042,-0.958c-0,-0.375 -0.084,-0.709 -0.25,-0.959c-0.167,-0.208 -0.334,-0.416 -0.584,-0.541c-0.208,-0.125 -0.5,-0.209 -0.75,-0.292c-0.291,-0.042 -0.541,-0.125 -0.75,-0.167c-0.25,-0.083 -0.416,-0.166 -0.583,-0.25c-0.167,-0.083 -0.208,-0.25 -0.208,-0.458c-0,-0.208 0.083,-0.375 0.291,-0.5c0.167,-0.125 0.459,-0.208 0.792,-0.208l0.042,-0c0.291,-0 0.5,-0 0.666,0.125c0.167,0.083 0.292,0.166 0.417,0.208c0.083,0.042 0.167,0.083 0.25,0.083c0.125,0 0.25,-0.041 0.333,-0.125c0.084,-0.083 0.125,-0.208 0.125,-0.291c0,-0.167 -0.041,-0.25 -0.166,-0.375c-0.042,-0 -0.125,-0.084 -0.209,-0.167c-0.083,-0.042 -0.208,-0.125 -0.333,-0.167c-0.125,-0.041 -0.292,-0.083 -0.458,-0.125c-0.167,-0.041 -0.375,-0.041 -0.584,-0.041c-0.208,-0 -0.416,-0 -0.625,0.083c-0.25,0.042 -0.458,0.125 -0.666,0.25c-0.209,0.125 -0.375,0.292 -0.5,0.5c-0.125,0.208 -0.209,0.458 -0.209,0.708c0,0.375 0.084,0.667 0.25,0.875c0.167,0.209 0.375,0.375 0.584,0.5c0.208,0.125 0.5,0.209 0.75,0.25c0.291,0.042 0.541,0.125 0.791,0.209c0.209,0.083 0.417,0.166 0.584,0.291c0.166,0.125 0.25,0.334 0.25,0.584c-0,0.25 -0.125,0.416 -0.292,0.625c-0.208,0.166 -0.5,0.25 -0.875,0.25l-0.042,-0c-0.25,-0 -0.458,-0.084 -0.708,-0.25c-0.25,-0.167 -0.417,-0.334 -0.583,-0.542c-0.042,-0.083 -0.125,-0.125 -0.167,-0.167l-0.208,0c-0.125,0 -0.209,0 -0.334,0.125c-0.083,0.084 -0.166,0.209 -0.166,0.334c-0,-0 -0,0.125 0.083,0.25c0.083,0.166 0.208,0.375 0.375,0.5c0.167,0.166 0.333,0.291 0.5,0.375c0.167,0.083 0.375,0.166 0.583,0.25c0.209,0.041 0.417,0.083 0.584,0.083l0.083,-0c0.25,-0 0.5,-0 0.75,-0.125c0.25,-0.083 0.458,-0.208 0.667,-0.333c0.208,-0.167 0.375,-0.334 0.5,-0.542c0.125,-0.208 0.166,-0.458 0.166,-0.75l-0.166,-0.083Zm5.791,-0.584c0,0 -0.208,-0.125 -0.333,-0.125c-0.125,0 -0.208,0 -0.292,0.125c-0.083,0.084 -0.166,0.209 -0.166,0.375c-0,0.292 -0.125,0.5 -0.334,0.709c-0.208,0.208 -0.458,0.291 -0.708,0.291l-0.125,0c-0.292,0 -0.542,-0.083 -0.75,-0.291c-0.208,-0.209 -0.292,-0.459 -0.292,-0.709l0,-2.083c0,-0.292 0.084,-0.5 0.292,-0.708c0.208,-0.209 0.458,-0.292 0.75,-0.292l0.125,-0c0.292,-0 0.5,0.083 0.708,0.292c0.209,0.208 0.292,0.458 0.334,0.75c-0,0.166 0.041,0.291 0.166,0.333c0.084,0.083 0.209,0.125 0.292,0.125c0.125,-0 0.208,-0.042 0.333,-0.125c0.084,-0.083 0.167,-0.208 0.167,-0.333c0,-0.292 -0.042,-0.542 -0.167,-0.75c-0.083,-0.25 -0.25,-0.459 -0.416,-0.625c-0.167,-0.167 -0.375,-0.334 -0.625,-0.417c-0.25,-0.083 -0.5,-0.167 -0.75,-0.167l-0.125,0c-0.292,0 -0.542,0.042 -0.792,0.167c-0.25,0.083 -0.458,0.25 -0.625,0.417c-0.167,0.166 -0.333,0.375 -0.417,0.625c-0.125,0.25 -0.166,0.5 -0.166,0.791l-0,2.084c-0,0.25 0.041,0.541 0.166,0.791c0.084,0.25 0.25,0.417 0.417,0.625c0.167,0.167 0.375,0.334 0.625,0.417c0.25,0.125 0.5,0.167 0.792,0.167l0.125,-0c0.25,-0 0.5,-0.042 0.75,-0.167c0.25,-0.083 0.458,-0.25 0.625,-0.417c0.166,-0.166 0.333,-0.375 0.416,-0.625c0.084,-0.25 0.167,-0.5 0.167,-0.75c0,-0.166 -0.042,-0.291 -0.167,-0.375l0,-0.125Zm6.167,-1.708c0,-0.292 -0.042,-0.542 -0.167,-0.75c-0.083,-0.25 -0.25,-0.458 -0.416,-0.625c-0.167,-0.167 -0.375,-0.333 -0.625,-0.417c-0.25,-0.083 -0.5,-0.166 -0.792,-0.166l-0.083,-0c-0,-0 -0.417,-0 -0.625,0.083c-0.209,0.042 -0.334,0.167 -0.459,0.25l0,-2.458c0,-0 -0.041,-0.292 -0.125,-0.334c-0.125,-0.083 -0.208,-0.125 -0.333,-0.125c-0.125,0 -0.208,0 -0.333,0.125c-0.084,0.084 -0.167,0.209 -0.167,0.334l0,7.666c0,0 0.042,0.292 0.167,0.334c0.083,0.083 0.208,0.125 0.333,0.125c0.125,-0 0.208,-0 0.333,-0.125c0.084,-0.084 0.125,-0.209 0.125,-0.334l0,-3.666c0,-0 0,-0.292 0.084,-0.417c0.083,-0.125 0.166,-0.208 0.25,-0.333c0.083,-0.084 0.208,-0.167 0.333,-0.167c0.125,-0 0.25,-0.083 0.417,-0.083c0.125,-0 0.25,-0 0.375,0.083c0.125,-0 0.25,0.125 0.375,0.167c0.083,0.083 0.166,0.208 0.25,0.333c0.041,0.125 0.083,0.292 0.083,0.458l0,3.584c0,-0 0,0.291 0.167,0.333c0.083,0.083 0.166,0.125 0.291,0.125c0.125,-0 0.209,-0 0.292,-0.125c0.125,-0.083 0.167,-0.208 0.167,-0.333l-0,-3.584l0.083,0.042Zm6.542,3.292c-0,-0 -0.167,-0.125 -0.292,-0.167c-0.208,-0 -0.292,-0.167 -0.292,-0.417l0,-2.833c0,-0.25 -0.041,-0.5 -0.166,-0.75c-0.084,-0.208 -0.25,-0.417 -0.417,-0.583c-0.167,-0.167 -0.375,-0.292 -0.625,-0.417c-0.25,-0.083 -0.5,-0.125 -0.75,-0.125l-0.083,-0c-0,-0 -0.334,-0 -0.5,0.042c-0.167,-0 -0.334,0.083 -0.5,0.166c-0.167,0.084 -0.292,0.209 -0.459,0.334c-0.125,0.166 -0.25,0.333 -0.375,0.541c0,0.042 -0.041,0.125 -0.041,0.209c-0,0.125 0.041,0.25 0.166,0.333c0.084,0.083 0.209,0.125 0.334,0.125c0.083,-0 0.166,-0 0.208,-0.042c0.083,0 0.125,-0.083 0.167,-0.166c0.125,-0.209 0.25,-0.375 0.375,-0.459c0.125,-0.083 0.333,-0.166 0.583,-0.166l0.083,-0c0.25,-0 0.5,0.083 0.709,0.208c0.208,0.167 0.291,0.417 0.291,0.792l0,0.166c0,0.084 -0.166,0.125 -0.333,0.167c-0.167,-0 -0.375,0.083 -0.583,0.125c-0.209,0.042 -0.459,0.083 -0.709,0.167c-0.25,0.083 -0.5,0.166 -0.708,0.291c-0.208,0.125 -0.375,0.292 -0.542,0.5c-0.125,0.209 -0.208,0.459 -0.208,0.792l0,0.167c0,0.291 0.042,0.541 0.167,0.75c0.125,0.208 0.25,0.416 0.458,0.541c0.167,0.167 0.375,0.25 0.625,0.334c0.25,0.083 0.5,0.125 0.708,0.125l0.125,-0c0.5,-0 0.959,-0.167 1.334,-0.459c0.083,0.125 0.166,0.209 0.333,0.292c0.125,0.083 0.292,0.125 0.5,0.167l0.083,-0c0.167,-0 0.25,-0.042 0.334,-0.167c0.083,-0.083 0.125,-0.208 0.125,-0.333c-0,-0.084 -0,-0.209 -0.084,-0.292l-0.041,0.042Zm-1.542,-1.209c0,0.292 -0.083,0.542 -0.292,0.75c-0.208,0.209 -0.458,0.292 -0.75,0.292l-0.125,-0c-0.291,-0 -0.541,-0.083 -0.75,-0.25c-0.208,-0.167 -0.291,-0.333 -0.291,-0.625l-0,-0.083c-0,-0.209 0.083,-0.375 0.208,-0.459c0.125,-0.125 0.333,-0.208 0.542,-0.291c0.208,-0.084 0.458,-0.125 0.708,-0.167c0.25,-0 0.5,-0.083 0.708,-0.125l0,0.958l0.042,0Zm5.625,-6.458c0,-0 -0.167,-0.125 -0.333,-0.125c-0.209,-0 -0.417,-0 -0.625,0.125c-0.167,0.083 -0.375,0.167 -0.5,0.333c-0.167,0.167 -0.25,0.334 -0.334,0.5c-0.083,0.209 -0.125,0.417 -0.125,0.625l0,0.959l-0.25,-0c0,-0 -0.291,0.041 -0.333,0.125c-0.083,0.125 -0.125,0.208 -0.125,0.333c0,0.125 0,0.208 0.125,0.333c0.083,0.084 0.167,0.125 0.333,0.125l0.25,0l0,4.625c0,0 0.042,0.292 0.167,0.334c0.083,0.083 0.208,0.125 0.333,0.125c0.125,-0 0.209,-0 0.334,-0.125c0.083,-0.084 0.166,-0.209 0.166,-0.334l0,-4.625l0.584,0c-0,0 0.25,-0.041 0.333,-0.125c0.083,-0.125 0.125,-0.208 0.125,-0.333c0,-0.125 0,-0.208 -0.125,-0.333c-0.083,-0.084 -0.208,-0.125 -0.333,-0.125l-0.584,-0l0,-0.959c0,0 0.084,-0.333 0.167,-0.5c0.125,-0.125 0.292,-0.208 0.458,-0.208c0.167,-0 0.292,-0.042 0.334,-0.167c0.083,-0.083 0.125,-0.208 0.125,-0.333c-0,-0.125 -0,-0.208 -0.125,-0.333l-0.042,0.083Zm4,7.667c0,-0 -0.167,-0.125 -0.333,-0.167c-0.167,-0 -0.375,-0.083 -0.5,-0.208c-0.125,-0.125 -0.209,-0.292 -0.209,-0.5l0,-3.417l0.667,-0c0,-0 0.25,-0.042 0.333,-0.125c0.084,-0.125 0.125,-0.208 0.125,-0.333c0,-0.125 0,-0.209 -0.125,-0.334c-0.083,-0.083 -0.166,-0.125 -0.333,-0.125l-0.667,0l0,-2.125c0,0 -0.041,-0.291 -0.166,-0.333c-0.084,-0.083 -0.209,-0.125 -0.292,-0.125c-0.125,-0 -0.208,-0 -0.333,0.125c-0.084,0.083 -0.125,0.208 -0.125,0.333l-0,2.125l-0.417,0c0,0 -0.25,0.042 -0.333,0.125c-0.084,0.125 -0.125,0.209 -0.125,0.334c-0,0.125 -0,0.208 0.125,0.333c0.083,0.083 0.166,0.125 0.333,0.125l0.417,-0l-0,3.458c-0,0.209 -0,0.417 0.125,0.625c0.083,0.209 0.208,0.375 0.333,0.5c0.167,0.167 0.292,0.25 0.5,0.334c0.208,0.083 0.417,0.125 0.625,0.125c0.167,-0 0.292,-0.042 0.333,-0.167c0.084,-0.083 0.125,-0.208 0.125,-0.333c0,-0.125 0,-0.209 -0.125,-0.292l0.042,0.042Z" style="fill:#d71d24;fill-rule:nonzero;"/></g></svg>