<?xml version="1.0" encoding="UTF-8" standalone="no"?><!DOCTYPE svg PUBLIC "-//W3C//DTD SVG 1.1//EN" "http://www.w3.org/Graphics/SVG/1.1/DTD/svg11.dtd"><svg width="100%" height="100%" viewBox="0 0 85 48" version="1.1" xmlns="http://www.w3.org/2000/svg" xmlns:xlink="http://www.w3.org/1999/xlink" xml:space="preserve" xmlns:serif="http://www.serif.com/" style="fill-rule:evenodd;clip-rule:evenodd;stroke-linejoin:round;stroke-miterlimit:2;"><rect id="Artboard1" x="-18" y="0" width="273.261" height="47.78" style="fill:none;"/><g id="Artboard11" serif:id="Artboard1"><g><g><path d="M4.98,47.26l0,-2.94l0.6,0c1.11,0 1.61,0.4 1.61,1.4c0,1.06 -0.61,1.54 -1.66,1.54l-0.55,0Zm0.37,-2.63l0,2.3l0.18,0c0.81,0 1.26,-0.34 1.26,-1.22c0,-0.8 -0.43,-1.08 -1.21,-1.08l-0.23,0Z" style="fill:#c72030;fill-rule:nonzero;"/><path d="M9.57,44.62l-1.23,0l0,0.99l1.12,0l0,0.31l-1.12,0l0,1.02l1.34,0l-0.03,0.31l-1.69,0l-0,-2.93l1.62,0l-0.03,0.31l0.02,-0.01Z" style="fill:#c72030;fill-rule:nonzero;"/><path d="M12.55,46.04c0,0.84 -0.36,1.26 -1.1,1.26c-0.74,0 -1.08,-0.37 -1.08,-1.26l-0,-1.72l0.37,0l-0,1.73c-0,0.67 0.25,0.94 0.74,0.94c0.49,0 0.71,-0.26 0.71,-0.94l-0,-1.73l0.36,0l0,1.72Z" style="fill:#c72030;fill-rule:nonzero;"/><path d="M15.34,44.62l-0.91,0l0,2.62l-0.37,0l0,-2.62l-0.91,0l0,-0.31l2.21,0l-0.03,0.31l0.01,0Z" style="fill:#c72030;fill-rule:nonzero;"/><path d="M17.27,44.8c-0.06,-0.05 -0.25,-0.2 -0.54,-0.2c-0.33,0 -0.49,0.15 -0.49,0.35c0,0.23 0.1,0.36 0.46,0.58l0.26,0.16c0.35,0.22 0.58,0.46 0.58,0.84c-0,0.44 -0.35,0.77 -0.95,0.77c-0.47,0 -0.69,-0.18 -0.79,-0.26l0.13,-0.34c0.09,0.08 0.32,0.27 0.64,0.27c0.4,0 0.58,-0.18 0.58,-0.39c-0,-0.26 -0.13,-0.38 -0.46,-0.59l-0.26,-0.17c-0.39,-0.26 -0.57,-0.46 -0.57,-0.86c0,-0.38 0.33,-0.69 0.85,-0.69c0.43,0 0.64,0.17 0.69,0.22l-0.13,0.32l0,-0.01Z" style="fill:#c72030;fill-rule:nonzero;"/><path d="M19.48,44.27c0.45,0 0.67,0.2 0.74,0.25l-0.13,0.29c-0.07,-0.06 -0.27,-0.23 -0.61,-0.23c-0.52,0 -0.98,0.32 -0.98,1.17c0,0.85 0.35,1.22 0.94,1.22c0.38,0 0.57,-0.16 0.65,-0.23l0.11,0.28c-0.09,0.07 -0.32,0.27 -0.82,0.27c-0.77,0 -1.28,-0.47 -1.28,-1.52c-0,-1.05 0.71,-1.51 1.38,-1.51l0,0.01Z" style="fill:#c72030;fill-rule:nonzero;"/><path d="M23.11,47.25l-0.37,0l0,-1.33l-1.46,0l0,1.33l-0.37,0l0,-2.93l0.37,0l0,1.3l1.46,0l0,-1.3l0.37,0l0,2.93Z" style="fill:#c72030;fill-rule:nonzero;"/><path d="M25.63,44.62l-1.23,0l0,0.99l1.13,0l0,0.31l-1.13,0l0,1.02l1.34,0l-0.03,0.31l-1.69,0l0,-2.93l1.62,0l-0.03,0.31l0.02,-0.01Z" style="fill:#c72030;fill-rule:nonzero;"/><path d="M29.3,44.55l-1.46,2.39l1.59,0l-0.03,0.31l-2.04,0l0,-0.23l1.49,-2.39l-1.41,0l0,-0.31l1.86,0l0,0.23Z" style="fill:#c72030;fill-rule:nonzero;"/><path d="M32.23,46.04c-0,0.84 -0.36,1.26 -1.1,1.26c-0.74,0 -1.08,-0.37 -1.08,-1.26l-0,-1.72l0.37,0l-0,1.73c-0,0.67 0.25,0.94 0.74,0.94c0.49,0 0.71,-0.26 0.71,-0.94l-0,-1.73l0.36,0l-0,1.72Z" style="fill:#c72030;fill-rule:nonzero;"/><path d="M34.41,44.8c-0.06,-0.05 -0.25,-0.2 -0.54,-0.2c-0.33,0 -0.49,0.15 -0.49,0.35c-0,0.23 0.1,0.36 0.45,0.58l0.25,0.16c0.35,0.22 0.58,0.46 0.58,0.84c-0,0.44 -0.35,0.77 -0.95,0.77c-0.47,0 -0.69,-0.18 -0.79,-0.26l0.13,-0.34c0.09,0.08 0.32,0.27 0.64,0.27c0.39,0 0.58,-0.18 0.58,-0.39c-0,-0.26 -0.13,-0.38 -0.46,-0.59l-0.26,-0.17c-0.39,-0.26 -0.58,-0.46 -0.58,-0.86c-0,-0.38 0.33,-0.69 0.86,-0.69c0.42,0 0.64,0.17 0.69,0.22l-0.13,0.32l0.02,-0.01Z" style="fill:#c72030;fill-rule:nonzero;"/><path d="M37.12,47.25l-0.32,-0.94l-1.05,0l-0.32,0.94l-0.38,0l1.09,-2.93l0.29,0l1.09,2.93l-0.41,0l0.01,0Zm-0.84,-2.45l-0.43,1.23l0.86,0l-0.42,-1.23l-0.01,0Z" style="fill:#c72030;fill-rule:nonzero;"/><path d="M40.85,47.25l-0.36,0l0,-2.1l-0.85,2.1l-0.32,0l-0.85,-2.1l0,2.1l-0.36,0l0,-2.93l0.4,0l0.98,2.41l0.98,-2.41l0.37,0l0,2.93l0.01,0Z" style="fill:#c72030;fill-rule:nonzero;"/><path d="M44.52,47.25l-0.36,0l0,-2.1l-0.85,2.1l-0.32,0l-0.84,-2.1l0,2.1l-0.36,0l0,-2.93l0.4,0l0.98,2.41l0.98,-2.41l0.37,0l0,2.93Z" style="fill:#c72030;fill-rule:nonzero;"/><path d="M47.04,44.62l-1.23,0l0,0.99l1.13,0l0,0.31l-1.13,0l0,1.02l1.34,0l-0.03,0.31l-1.69,0l0,-2.93l1.62,0l-0.03,0.31l0.02,-0.01Z" style="fill:#c72030;fill-rule:nonzero;"/><path d="M50.08,47.25l-0.35,0l-1.47,-2.26l-0,2.26l-0.37,0l-0,-2.93l0.34,0l1.48,2.25l-0,-2.25l0.37,0l0,2.93Z" style="fill:#c72030;fill-rule:nonzero;"/><path d="M52.73,47.25l-0.32,-0.94l-1.05,0l-0.32,0.94l-0.38,0l1.09,-2.93l0.29,0l1.1,2.93l-0.41,0Zm-0.84,-2.45l-0.43,1.23l0.86,0l-0.42,-1.23l-0.01,0Z" style="fill:#c72030;fill-rule:nonzero;"/><path d="M55.25,47.25l-0.7,-1.19l-0.46,0l-0,1.19l-0.37,0l-0,-2.93l0.62,0c0.8,0 1.16,0.28 1.16,0.82c-0,0.4 -0.19,0.7 -0.58,0.84l0.78,1.28l-0.45,0l0,-0.01Zm-0.91,-2.62l-0.25,0l0,1.13l0.23,0c0.54,0 0.78,-0.21 0.78,-0.6c0,-0.37 -0.23,-0.54 -0.76,-0.54l0,0.01Z" style="fill:#c72030;fill-rule:nonzero;"/><path d="M57.55,45.74c0.35,0.07 0.62,0.32 0.62,0.71c0,0.46 -0.34,0.8 -1.15,0.8l-0.66,0l-0,-2.93l0.62,0c0.8,0 1.1,0.29 1.1,0.75c-0,0.41 -0.25,0.59 -0.53,0.67Zm-0.57,-1.12l-0.25,0l0,0.99l0.25,0c0.49,0 0.72,-0.2 0.72,-0.54c0,-0.27 -0.21,-0.45 -0.72,-0.45Zm0.06,1.3l-0.32,0l0,1.02l0.29,0c0.54,0 0.75,-0.18 0.75,-0.51c0,-0.33 -0.27,-0.51 -0.73,-0.51l0.01,0Z" style="fill:#c72030;fill-rule:nonzero;"/><path d="M60.53,44.62l-1.23,0l-0,0.99l1.13,0l-0,0.31l-1.13,0l-0,1.02l1.34,0l-0.03,0.31l-1.69,0l-0,-2.93l1.62,0l-0.03,0.31l0.02,-0.01Z" style="fill:#c72030;fill-rule:nonzero;"/><path d="M61.52,44.58l-0.36,0l-0,-0.27l1.08,0l-0,0.27l-0.36,0l-0,2.4l0.37,0l0,0.27l-1.11,0l0,-0.27l0.37,0l0,-2.4l0.01,0Z" style="fill:#c72030;fill-rule:nonzero;"/><path d="M64.87,44.62l-0.91,0l0,2.62l-0.37,0l-0,-2.62l-0.91,0l-0,-0.31l2.21,0l-0.03,0.31l0.01,0Z" style="fill:#c72030;fill-rule:nonzero;"/></g><g><path d="M10.82,40.83l-2.55,0l0,-0.35c0.08,0 0.17,-0.01 0.25,-0.02c0.09,0 0.16,-0.02 0.22,-0.04c0.1,-0.03 0.17,-0.09 0.23,-0.17c0.05,-0.08 0.08,-0.18 0.08,-0.31l-0,-1.66l-2.32,0l-0,1.61c-0,0.12 0.02,0.22 0.07,0.3c0.05,0.08 0.12,0.14 0.22,0.18c0.07,0.03 0.15,0.06 0.24,0.08c0.09,0.02 0.18,0.03 0.27,0.04l-0,0.35l-2.55,0l-0,-0.35c0.08,0 0.16,-0.01 0.25,-0.02c0.08,0 0.16,-0.02 0.22,-0.04c0.1,-0.03 0.17,-0.09 0.22,-0.17c0.05,-0.08 0.07,-0.18 0.07,-0.31l-0,-3.38c-0,-0.12 -0.03,-0.21 -0.07,-0.29c-0.05,-0.08 -0.12,-0.14 -0.22,-0.18c-0.09,-0.04 -0.18,-0.07 -0.27,-0.08c-0.08,-0.01 -0.17,-0.03 -0.24,-0.03l-0,-0.35l2.55,0l-0,0.35c-0.1,0 -0.19,0.02 -0.27,0.03c-0.08,0.01 -0.14,0.02 -0.21,0.04c-0.1,0.03 -0.17,0.08 -0.22,0.17c-0.05,0.08 -0.07,0.19 -0.07,0.31l-0,1.34l2.32,0l-0,-1.29c-0,-0.12 -0.03,-0.21 -0.07,-0.29c-0.05,-0.08 -0.12,-0.14 -0.22,-0.18c-0.09,-0.04 -0.18,-0.07 -0.27,-0.08c-0.09,-0.01 -0.17,-0.03 -0.24,-0.03l-0,-0.35l2.55,0l-0,0.35c-0.1,0 -0.19,0.02 -0.27,0.03c-0.07,0.01 -0.14,0.02 -0.21,0.04c-0.1,0.03 -0.17,0.08 -0.22,0.17c-0.05,0.08 -0.07,0.19 -0.07,0.31l0,3.38c0,0.12 0.02,0.22 0.06,0.3c0.04,0.08 0.12,0.14 0.22,0.18c0.07,0.03 0.15,0.06 0.24,0.08c0.09,0.02 0.17,0.03 0.27,0.04l-0,0.35l0.01,-0.06Z" style="fill:#414042;fill-rule:nonzero;"/><path d="M14.1,40.83l-2.52,0l0,-0.35c0.08,0 0.16,-0.01 0.25,-0.02c0.09,0 0.16,-0.02 0.22,-0.04c0.1,-0.03 0.17,-0.09 0.22,-0.17c0.05,-0.08 0.07,-0.18 0.07,-0.31l-0,-3.22c-0,-0.11 -0.03,-0.22 -0.08,-0.31c-0.05,-0.09 -0.12,-0.17 -0.21,-0.23c-0.07,-0.04 -0.16,-0.08 -0.29,-0.11c-0.13,-0.03 -0.24,-0.05 -0.35,-0.06l-0,-0.35l1.84,-0.12l0.07,0.07l-0,4.25c-0,0.12 0.03,0.23 0.07,0.31c0.05,0.08 0.12,0.14 0.22,0.18c0.08,0.03 0.15,0.06 0.23,0.08c0.07,0.02 0.16,0.03 0.25,0.04l0,0.35l0.01,0.01Zm-0.66,-7.33c-0,0.2 -0.07,0.38 -0.2,0.53c-0.13,0.15 -0.3,0.22 -0.49,0.22c-0.18,0 -0.34,-0.07 -0.47,-0.21c-0.13,-0.14 -0.2,-0.31 -0.2,-0.49c0,-0.19 0.07,-0.36 0.2,-0.51c0.13,-0.14 0.29,-0.22 0.47,-0.22c0.2,0 0.37,0.07 0.49,0.2c0.13,0.14 0.19,0.29 0.19,0.47l0.01,0.01Z" style="fill:#414042;fill-rule:nonzero;"/><path d="M21.74,40.83l-2.55,0l0,-0.35c0.08,0 0.17,-0.01 0.25,-0.02c0.09,0 0.16,-0.02 0.22,-0.04c0.1,-0.03 0.18,-0.09 0.23,-0.17c0.06,-0.08 0.08,-0.18 0.08,-0.3l0,-3.77l-0.13,0l-1.76,4.58l-0.33,0l-1.66,-4.67l-0.12,0l0,3.65c0,0.18 0.03,0.32 0.08,0.42c0.05,0.1 0.12,0.17 0.22,0.21c0.07,0.03 0.15,0.06 0.24,0.08c0.09,0.02 0.18,0.03 0.27,0.04l0,0.35l-2.03,0l0,-0.35c0.08,0 0.16,-0.01 0.25,-0.02c0.09,0 0.16,-0.02 0.22,-0.04c0.11,-0.03 0.18,-0.1 0.22,-0.21c0.04,-0.1 0.07,-0.25 0.07,-0.42l0,-3.17c0,-0.14 -0.02,-0.25 -0.07,-0.33c-0.05,-0.09 -0.12,-0.15 -0.22,-0.19c-0.09,-0.04 -0.18,-0.07 -0.27,-0.08c-0.08,-0.01 -0.17,-0.03 -0.24,-0.03l0,-0.35l2.16,0l1.31,3.74l1.15,-3.1c0.04,-0.1 0.08,-0.22 0.12,-0.36c0.04,-0.14 0.06,-0.23 0.07,-0.28l2.19,0l0,0.35c-0.1,0 -0.19,0.02 -0.27,0.03c-0.08,0.01 -0.15,0.02 -0.21,0.04c-0.1,0.03 -0.17,0.08 -0.22,0.17c-0.05,0.08 -0.07,0.19 -0.07,0.31l0,3.38c0,0.12 0.02,0.22 0.06,0.3c0.04,0.08 0.11,0.14 0.21,0.18c0.07,0.03 0.16,0.06 0.24,0.08c0.09,0.02 0.17,0.03 0.27,0.04l0,0.35l0.02,-0.05Z" style="fill:#414042;fill-rule:nonzero;"/><path d="M27.12,39.6c-0.22,0.42 -0.51,0.75 -0.88,0.99c-0.37,0.25 -0.79,0.37 -1.26,0.37c-0.42,0 -0.79,-0.07 -1.1,-0.22c-0.32,-0.15 -0.58,-0.35 -0.78,-0.6c-0.2,-0.25 -0.36,-0.55 -0.46,-0.89c-0.1,-0.34 -0.15,-0.7 -0.15,-1.07c-0,-0.34 0.05,-0.67 0.16,-1c0.11,-0.32 0.26,-0.62 0.47,-0.88c0.2,-0.25 0.45,-0.45 0.75,-0.61c0.3,-0.15 0.63,-0.23 1,-0.23c0.37,0 0.71,0.06 0.98,0.18c0.27,0.12 0.49,0.28 0.66,0.49c0.16,0.2 0.28,0.43 0.36,0.7c0.08,0.27 0.12,0.56 0.12,0.87l-0,0.35l-3.45,0c-0,0.34 0.03,0.65 0.1,0.93c0.07,0.28 0.17,0.52 0.31,0.73c0.14,0.21 0.32,0.37 0.54,0.49c0.22,0.12 0.49,0.18 0.79,0.18c0.3,0 0.58,-0.07 0.81,-0.22c0.23,-0.15 0.45,-0.41 0.66,-0.8l0.37,0.23l0,0.01Zm-1.17,-1.99c0,-0.2 -0.02,-0.41 -0.05,-0.63c-0.03,-0.22 -0.09,-0.41 -0.16,-0.56c-0.08,-0.16 -0.19,-0.29 -0.33,-0.39c-0.14,-0.1 -0.32,-0.15 -0.55,-0.15c-0.37,0 -0.68,0.15 -0.92,0.46c-0.25,0.31 -0.38,0.74 -0.4,1.28l2.41,0l0,-0.01Z" style="fill:#414042;fill-rule:nonzero;"/><path d="M33.17,40.83l-2.55,0l0,-0.35c0.08,0 0.17,-0.01 0.25,-0.02c0.08,0 0.16,-0.02 0.22,-0.04c0.1,-0.03 0.17,-0.09 0.23,-0.17c0.05,-0.08 0.08,-0.18 0.08,-0.31l0,-1.38c-0.29,0.12 -0.54,0.22 -0.75,0.29c-0.22,0.08 -0.48,0.11 -0.79,0.11c-0.55,0 -0.96,-0.11 -1.22,-0.33c-0.26,-0.22 -0.39,-0.56 -0.39,-1.04l0,-1.04c0,-0.12 -0.03,-0.22 -0.07,-0.3c-0.05,-0.08 -0.12,-0.14 -0.22,-0.18c-0.09,-0.04 -0.18,-0.07 -0.27,-0.08c-0.09,-0.01 -0.17,-0.03 -0.24,-0.03l-0,-0.35l2.55,0l-0,0.35c-0.1,0 -0.19,0.02 -0.27,0.03c-0.08,0.01 -0.15,0.02 -0.21,0.04c-0.1,0.03 -0.17,0.08 -0.22,0.17c-0.05,0.09 -0.07,0.19 -0.07,0.31l-0,0.82c-0,0.38 0.08,0.65 0.23,0.81c0.15,0.17 0.41,0.25 0.77,0.25c0.16,0 0.34,-0.02 0.54,-0.05c0.2,-0.03 0.41,-0.08 0.63,-0.16l-0,-1.62c-0,-0.12 -0.02,-0.21 -0.07,-0.29c-0.05,-0.08 -0.12,-0.14 -0.22,-0.18c-0.09,-0.04 -0.18,-0.07 -0.27,-0.08c-0.09,-0.01 -0.17,-0.03 -0.24,-0.03l-0,-0.35l2.55,0l-0,0.35c-0.1,0 -0.19,0.02 -0.27,0.03c-0.08,0.01 -0.15,0.02 -0.21,0.04c-0.1,0.03 -0.17,0.08 -0.22,0.17c-0.05,0.08 -0.07,0.19 -0.07,0.31l-0,3.38c-0,0.12 0.02,0.22 0.06,0.3c0.04,0.08 0.12,0.14 0.22,0.18c0.07,0.03 0.15,0.06 0.24,0.08c0.08,0.02 0.17,0.03 0.27,0.04l-0,0.35l-0,-0.03Z" style="fill:#414042;fill-rule:nonzero;"/><path d="M39.37,40.83l-2.55,0l0,-0.35c0.08,0 0.16,-0.01 0.25,-0.02c0.08,0 0.16,-0.02 0.22,-0.04c0.1,-0.03 0.17,-0.09 0.23,-0.17c0.05,-0.08 0.08,-0.18 0.08,-0.31l0,-1.38c-0.28,0.12 -0.54,0.22 -0.75,0.29c-0.22,0.08 -0.48,0.11 -0.79,0.11c-0.55,0 -0.96,-0.11 -1.22,-0.33c-0.26,-0.22 -0.39,-0.56 -0.39,-1.04l0,-1.04c0,-0.12 -0.03,-0.22 -0.07,-0.3c-0.05,-0.08 -0.12,-0.14 -0.22,-0.18c-0.09,-0.04 -0.18,-0.07 -0.27,-0.08c-0.09,-0.01 -0.17,-0.03 -0.24,-0.03l0,-0.35l2.55,0l0,0.35c-0.1,0 -0.19,0.02 -0.27,0.03c-0.07,0.01 -0.14,0.02 -0.21,0.04c-0.1,0.03 -0.17,0.08 -0.22,0.17c-0.05,0.08 -0.07,0.19 -0.07,0.31l0,0.82c0,0.38 0.08,0.65 0.23,0.81c0.15,0.16 0.41,0.25 0.77,0.25c0.16,0 0.34,-0.02 0.54,-0.05c0.2,-0.03 0.41,-0.08 0.62,-0.16l0,-1.62c0,-0.12 -0.02,-0.21 -0.07,-0.29c-0.05,-0.08 -0.12,-0.14 -0.22,-0.18c-0.09,-0.04 -0.18,-0.07 -0.27,-0.08c-0.09,-0.01 -0.17,-0.03 -0.24,-0.03l0,-0.35l2.55,0l0,0.35c-0.1,0 -0.19,0.02 -0.27,0.03c-0.08,0.01 -0.14,0.02 -0.21,0.04c-0.1,0.03 -0.17,0.08 -0.22,0.17c-0.05,0.08 -0.07,0.19 -0.07,0.31l0,3.38c0,0.12 0.02,0.22 0.06,0.3c0.04,0.08 0.12,0.14 0.22,0.18c0.08,0.03 0.16,0.06 0.24,0.08c0.09,0.02 0.17,0.03 0.27,0.04l0,0.35l0.01,-0.03Z" style="fill:#414042;fill-rule:nonzero;"/><path d="M46,40.83l-2.53,0l0,-0.35c0.08,0 0.16,-0.01 0.25,-0.02c0.09,0 0.16,-0.02 0.22,-0.04c0.1,-0.03 0.18,-0.09 0.23,-0.17c0.05,-0.08 0.08,-0.18 0.08,-0.31l0,-2.74l-2.4,2.6l0,0.09c0,0.12 0.03,0.22 0.08,0.3c0.05,0.08 0.12,0.14 0.22,0.18c0.08,0.03 0.16,0.06 0.24,0.08c0.09,0.02 0.18,0.03 0.27,0.04l0,0.35l-2.53,0l0,-0.35c0.08,0 0.16,-0.01 0.25,-0.02c0.09,0 0.16,-0.02 0.22,-0.04c0.1,-0.03 0.17,-0.09 0.22,-0.17c0.05,-0.08 0.07,-0.18 0.07,-0.31l0,-3.38c0,-0.12 -0.02,-0.21 -0.07,-0.29c-0.05,-0.08 -0.12,-0.14 -0.22,-0.18c-0.09,-0.04 -0.18,-0.07 -0.27,-0.08c-0.09,-0.01 -0.17,-0.03 -0.24,-0.03l0,-0.35l2.53,0l0,0.35c-0.1,0 -0.19,0.02 -0.27,0.03c-0.08,0.01 -0.15,0.02 -0.21,0.04c-0.1,0.03 -0.17,0.08 -0.22,0.17c-0.05,0.08 -0.07,0.19 -0.07,0.31l0,2.7l2.4,-2.6c0,-0.16 -0.02,-0.27 -0.07,-0.34c-0.05,-0.07 -0.12,-0.13 -0.22,-0.17c-0.09,-0.04 -0.18,-0.07 -0.27,-0.08c-0.09,-0.01 -0.17,-0.03 -0.25,-0.03l0,-0.35l2.53,0l0,0.35c-0.1,0 -0.19,0.02 -0.27,0.03c-0.08,0.01 -0.15,0.02 -0.21,0.04c-0.1,0.03 -0.17,0.08 -0.22,0.17c-0.05,0.08 -0.07,0.19 -0.07,0.31l0,3.38c0,0.12 0.02,0.22 0.06,0.3c0.04,0.08 0.11,0.14 0.22,0.18c0.07,0.03 0.16,0.06 0.24,0.08c0.09,0.02 0.18,0.03 0.27,0.04l0,0.35l0.01,-0.07Z" style="fill:#414042;fill-rule:nonzero;"/><path d="M52.59,40.83l-2.55,0l0,-0.35c0.08,0 0.16,-0.01 0.25,-0.02c0.09,0 0.16,-0.02 0.22,-0.04c0.1,-0.03 0.17,-0.09 0.23,-0.17c0.05,-0.08 0.08,-0.18 0.08,-0.31l0,-1.66l-2.32,0l0,1.61c0,0.12 0.03,0.22 0.07,0.3c0.05,0.08 0.12,0.14 0.22,0.18c0.07,0.03 0.16,0.06 0.24,0.08c0.09,0.02 0.18,0.03 0.27,0.04l-0,0.35l-2.55,0l-0,-0.35c0.08,0 0.17,-0.01 0.25,-0.02c0.09,0 0.16,-0.02 0.23,-0.04c0.1,-0.03 0.17,-0.09 0.22,-0.17c0.05,-0.08 0.07,-0.18 0.07,-0.31l-0,-3.38c-0,-0.12 -0.03,-0.21 -0.08,-0.29c-0.05,-0.08 -0.12,-0.14 -0.22,-0.18c-0.09,-0.04 -0.18,-0.07 -0.27,-0.08c-0.09,-0.01 -0.17,-0.03 -0.24,-0.03l0,-0.35l2.55,0l0,0.35c-0.1,0 -0.19,0.02 -0.27,0.03c-0.08,0.01 -0.15,0.02 -0.21,0.04c-0.1,0.03 -0.17,0.08 -0.22,0.17c-0.05,0.08 -0.07,0.19 -0.07,0.31l0,1.34l2.32,0l0,-1.29c0,-0.12 -0.02,-0.21 -0.07,-0.29c-0.05,-0.08 -0.12,-0.14 -0.22,-0.18c-0.09,-0.04 -0.18,-0.07 -0.27,-0.08c-0.09,-0.01 -0.17,-0.03 -0.24,-0.03l0,-0.35l2.55,0l0,0.35c-0.1,0 -0.19,0.02 -0.27,0.03c-0.08,0.01 -0.14,0.02 -0.21,0.04c-0.1,0.03 -0.17,0.08 -0.22,0.17c-0.05,0.08 -0.07,0.19 -0.07,0.31l0,3.38c0,0.12 0.02,0.22 0.06,0.3c0.04,0.08 0.12,0.14 0.22,0.18c0.07,0.03 0.15,0.06 0.24,0.08c0.09,0.02 0.18,0.03 0.27,0.04l0,0.35l0.01,-0.06Z" style="fill:#414042;fill-rule:nonzero;"/><path d="M58.43,38.17c0,0.37 -0.06,0.73 -0.17,1.08c-0.12,0.35 -0.28,0.65 -0.5,0.9c-0.24,0.28 -0.53,0.49 -0.85,0.63c-0.32,0.14 -0.68,0.21 -1.08,0.21c-0.33,0 -0.65,-0.06 -0.95,-0.19c-0.3,-0.12 -0.57,-0.31 -0.8,-0.55c-0.23,-0.24 -0.41,-0.52 -0.55,-0.86c-0.13,-0.34 -0.2,-0.72 -0.2,-1.15c0,-0.81 0.24,-1.48 0.71,-2c0.47,-0.52 1.1,-0.78 1.87,-0.78c0.77,0 1.33,0.25 1.81,0.74c0.48,0.49 0.71,1.14 0.71,1.96l0,0.01Zm-1.09,0c0,-0.26 -0.03,-0.54 -0.08,-0.84c-0.05,-0.29 -0.13,-0.54 -0.24,-0.75c-0.11,-0.22 -0.26,-0.39 -0.44,-0.53c-0.18,-0.13 -0.41,-0.2 -0.67,-0.2c-0.26,0 -0.51,0.07 -0.7,0.2c-0.19,0.14 -0.35,0.32 -0.47,0.55c-0.11,0.22 -0.19,0.46 -0.24,0.73c-0.05,0.28 -0.07,0.54 -0.07,0.8c0,0.34 0.03,0.65 0.08,0.94c0.05,0.29 0.14,0.54 0.26,0.77c0.12,0.23 0.27,0.4 0.45,0.53c0.18,0.13 0.41,0.19 0.68,0.19c0.44,0 0.79,-0.21 1.05,-0.64c0.26,-0.43 0.39,-1.02 0.39,-1.77l0,0.02Z" style="fill:#414042;fill-rule:nonzero;"/><path d="M62.74,40.26c-0.22,-0.24 -0.39,-0.53 -0.51,-0.86c-0.12,-0.33 -0.19,-0.71 -0.2,-1.13l-1.1,0l-0,1.61c-0,0.12 0.03,0.22 0.07,0.3c0.05,0.08 0.12,0.14 0.22,0.18c0.07,0.03 0.15,0.06 0.24,0.08c0.09,0.02 0.18,0.03 0.27,0.04l-0,0.35l-2.54,0l-0,-0.35c0.08,0 0.16,-0.01 0.25,-0.02c0.08,0 0.16,-0.02 0.22,-0.04c0.1,-0.03 0.17,-0.09 0.22,-0.17c0.05,-0.08 0.07,-0.18 0.07,-0.31l-0,-3.38c-0,-0.12 -0.03,-0.21 -0.07,-0.29c-0.05,-0.08 -0.12,-0.14 -0.22,-0.18c-0.09,-0.04 -0.18,-0.07 -0.27,-0.08c-0.09,-0.01 -0.17,-0.03 -0.24,-0.03l-0,-0.35l2.54,0l-0,0.35c-0.1,0 -0.19,0.02 -0.27,0.03c-0.08,0.01 -0.15,0.02 -0.21,0.04c-0.1,0.03 -0.17,0.08 -0.22,0.17c-0.05,0.08 -0.07,0.19 -0.07,0.31l0,1.34l1.12,0c0.07,-0.71 0.32,-1.28 0.75,-1.72c0.44,-0.44 1,-0.66 1.71,-0.66c0.39,0 0.74,0.07 1.04,0.21c0.3,0.14 0.56,0.33 0.76,0.56c0.22,0.24 0.38,0.53 0.49,0.85c0.11,0.32 0.17,0.68 0.17,1.08c0,0.37 -0.05,0.74 -0.17,1.08c-0.11,0.35 -0.27,0.65 -0.48,0.9c-0.22,0.26 -0.49,0.46 -0.79,0.61c-0.31,0.15 -0.68,0.22 -1.1,0.22c-0.33,0 -0.64,-0.06 -0.93,-0.19c-0.29,-0.12 -0.54,-0.3 -0.76,-0.54l0.01,-0.01Zm2.82,-0.39c0.11,-0.22 0.19,-0.47 0.24,-0.76c0.05,-0.28 0.08,-0.6 0.08,-0.94c0,-0.29 -0.02,-0.57 -0.06,-0.84c-0.04,-0.27 -0.12,-0.52 -0.23,-0.74c-0.1,-0.22 -0.25,-0.39 -0.42,-0.53c-0.18,-0.13 -0.4,-0.2 -0.67,-0.2c-0.29,0 -0.52,0.07 -0.7,0.21c-0.18,0.14 -0.33,0.32 -0.43,0.54c-0.11,0.21 -0.18,0.46 -0.22,0.72c-0.04,0.27 -0.06,0.54 -0.06,0.81c-0,0.33 0.02,0.64 0.08,0.93c0.05,0.29 0.13,0.55 0.25,0.77c0.11,0.23 0.26,0.4 0.44,0.53c0.18,0.13 0.4,0.19 0.67,0.19c0.24,0 0.45,-0.07 0.63,-0.19c0.18,-0.13 0.32,-0.3 0.43,-0.52l-0.03,0.02Z" style="fill:#414042;fill-rule:nonzero;"/><path d="M7.92,31.37c-0.31,0.14 -0.69,0.25 -1.16,0.25c-1.23,0 -1.89,-0.72 -1.89,-2.01c0,-1.29 0.73,-2.04 1.94,-2.04c0.38,0 0.71,0.07 1.08,0.24l-0.23,0.76c-0.29,-0.15 -0.55,-0.24 -0.86,-0.24c-0.57,0 -0.94,0.4 -0.94,1.19c0,0.79 0.34,1.34 1.01,1.34c0.29,0 0.55,-0.09 0.82,-0.22l0.22,0.73l0.01,0Z" style="fill:#414042;fill-rule:nonzero;"/><path d="M11.29,31.54l-0,-3.12l-1.56,0l0,3.12l-0.97,0l0,-3.89l3.49,0l0,3.89l-0.96,0Z" style="fill:#414042;fill-rule:nonzero;"/><path d="M14.1,26.96c-0.33,0 -0.59,-0.25 -0.59,-0.56c0,-0.31 0.26,-0.58 0.59,-0.58c0.33,0 0.59,0.26 0.59,0.58c0,0.32 -0.27,0.56 -0.59,0.56Zm-0.49,4.58l0,-3.89l0.97,0l0,3.89l-0.97,0Z" style="fill:#414042;fill-rule:nonzero;"/><path d="M17.2,31.56c-0.41,0 -0.83,0 -1.25,-0.02l0,-3.89c0.4,-0.02 0.8,-0.03 1.2,-0.03c1.33,0 1.66,0.55 1.66,1.04c0,0.37 -0.2,0.59 -0.5,0.75c0.4,0.15 0.73,0.51 0.73,0.95c0,0.94 -0.76,1.2 -1.85,1.2l0.01,0Zm0.06,-3.23l-0.41,0l0,0.93l0.35,0c0.52,0 0.72,-0.19 0.72,-0.48c0,-0.24 -0.21,-0.45 -0.66,-0.45Zm0.08,1.51l-0.49,0l0,1.01l0.44,0c0.45,0 0.82,-0.1 0.82,-0.51c0,-0.41 -0.44,-0.51 -0.77,-0.51l0,0.01Z" style="fill:#414042;fill-rule:nonzero;"/><path d="M22.6,31.54l0,-3.12l-1.56,0l-0,3.12l-0.97,0l-0,-3.89l3.49,0l0,3.89l-0.96,0Z" style="fill:#414042;fill-rule:nonzero;"/><path d="M24.9,27.74c0.45,-0.09 0.99,-0.2 1.59,-0.2c1.49,0 1.95,1.09 1.95,2.04c0,0.77 -0.43,2.05 -1.98,2.05c-0.22,0 -0.41,-0.03 -0.59,-0.1l0,1.92l-0.97,0l0,-5.72l-0,0.01Zm0.97,2.95c0.17,0.1 0.39,0.15 0.59,0.15c0.69,0 0.96,-0.58 0.96,-1.22c0,-0.57 -0.22,-1.3 -1.04,-1.3c-0.19,0 -0.35,0.03 -0.52,0.09l-0,2.28l0.01,0Z" style="fill:#414042;fill-rule:nonzero;"/><path d="M31.49,31.54c-0.03,-0.13 -0.06,-0.27 -0.08,-0.39c-0.33,0.24 -0.65,0.5 -1.14,0.5c-0.6,0 -1.17,-0.36 -1.17,-1.14c0,-0.93 0.95,-1.25 2.18,-1.3l0,-0.29c0,-0.35 -0.14,-0.63 -0.52,-0.63c-0.33,0 -0.75,0.1 -1.24,0.31l-0.2,-0.71c0.46,-0.17 0.95,-0.33 1.51,-0.33c1.16,0 1.4,0.71 1.4,1.4l-0,1.33c-0,0.46 0.04,0.92 0.09,1.25l-0.84,0l0.01,0Zm-0.21,-1.76c-0.75,0.02 -1.21,0.19 -1.21,0.64c-0,0.33 0.16,0.5 0.46,0.5c0.26,0 0.49,-0.16 0.75,-0.38l-0,-0.76Z" style="fill:#414042;fill-rule:nonzero;"/><path d="M36.81,32.66l0,-1.12l-3.27,0l0,-3.89l0.97,0l0,3.13l1.58,0l0,-3.13l0.96,0l0,3.1l0.57,0l0,1.91l-0.81,0Z" style="fill:#414042;fill-rule:nonzero;"/><path d="M40.02,27.65l1.37,0l0,3.89l-0.95,0l0,-1.27c-0.2,0 -0.43,0 -0.65,-0.03l-0.56,1.3l-1.05,0l0.82,-1.51c-0.44,-0.19 -0.76,-0.51 -0.76,-1.05c0,-0.49 0.27,-1.33 1.79,-1.33l-0.01,0Zm0.41,1.87l0,-1.12l-0.45,0c-0.54,0 -0.74,0.24 -0.74,0.54c0,0.47 0.6,0.59 1.19,0.58Z" style="fill:#414042;fill-rule:nonzero;"/><path d="M45.79,31.63c-0.51,0 -0.91,-0.08 -1.33,-0.2l0.21,-0.75c0.43,0.15 0.72,0.21 1.1,0.21c0.46,0 0.78,-0.17 0.78,-0.51c-0,-0.37 -0.35,-0.55 -0.94,-0.53l-0.48,0l-0,-0.62l0.39,0c0.59,-0.02 0.85,-0.21 0.85,-0.51c-0,-0.24 -0.21,-0.41 -0.6,-0.41c-0.2,0 -0.51,0.04 -0.91,0.23l-0.29,-0.67c0.46,-0.2 0.89,-0.31 1.38,-0.31c0.8,0 1.44,0.34 1.44,1c0,0.45 -0.23,0.64 -0.54,0.82c0.39,0.18 0.72,0.46 0.72,1c-0,0.82 -0.74,1.24 -1.78,1.24l-0,0.01Z" style="fill:#414042;fill-rule:nonzero;"/><path d="M41.77,11.31c0.96,0.99 2.09,2.55 3.08,4.02l0.03,-0.13c-1.83,-2.58 -3.14,-4.98 -5.98,-7.69c-3.63,-3.47 -8.26,-5.07 -10.71,-5.72c-15.85,-4.62 -28.04,3.92 -28.1,3.95c0.54,1.55 1.07,3.1 1.61,4.65c2.66,-1.98 6.41,-3.64 8.94,-4.55c2.29,-0.83 5.55,-1.57 7.41,-1.78c1.86,-0.22 5.14,-0.24 6.61,-0.16c1.47,0.08 5.16,0.84 6.47,1.26c2.25,0.7 4.82,1.9 5.88,2.53c1.06,0.63 2.67,1.45 4.77,3.63l-0.01,-0.01Z" style="fill:#414042;"/></g><path d="M44.53,16.85l0.32,-1.52c-0.98,-1.47 -2.12,-3.03 -3.08,-4.02c-2.1,-2.18 -3.71,-3 -4.77,-3.63c-1.06,-0.63 -3.63,-1.82 -5.88,-2.53c-1.31,-0.41 -5,-1.18 -6.47,-1.26c-1.47,-0.08 -4.75,-0.06 -6.61,0.16c-1.86,0.22 -5.12,0.96 -7.41,1.78c-2.53,0.91 -6.29,2.58 -8.94,4.55c0.57,1.66 1.14,3.32 1.72,4.98c1.68,-1.24 7.12,-5.08 12.06,-6.53c5.49,-1.61 10.72,-1.67 16.33,-0.04c5.28,1.54 8.7,4.2 9.74,5.04c0.87,0.7 2.05,1.94 2.99,3l-0,0.02Z" style="fill:#c72030;"/><path d="M44.35,17.68l0.17,-0.83c-0.94,-1.07 -2.12,-2.3 -2.99,-3c-1.04,-0.84 -4.46,-3.5 -9.74,-5.04c-5.6,-1.63 -10.84,-1.58 -16.33,0.04c-4.94,1.45 -10.38,5.29 -12.06,6.53c0.5,1.46 1.01,2.93 1.52,4.39c1.57,-1.43 10.08,-8.36 21.68,-8.79c5.24,-0.19 10.38,0.94 13.52,3c1.68,1.11 3.12,2.49 4.23,3.71l0,-0.01Z" style="fill:#ffcc32;"/><g><clipPath id="_clip1"><path d="M41.77,11.31c1.11,1.15 2.47,3.08 3.54,4.73l0.06,-0.15c-2.11,-2.84 -3.39,-5.43 -6.47,-8.38c-3.63,-3.47 -8.26,-5.07 -10.71,-5.72c-15.85,-4.62 -28.04,3.92 -28.1,3.95c0.54,1.55 1.07,3.1 1.61,4.65c2.66,-1.98 6.41,-3.64 8.94,-4.55c2.29,-0.83 5.55,-1.57 7.41,-1.78c1.86,-0.22 5.14,-0.24 6.61,-0.16c1.47,0.08 5.16,0.84 6.47,1.26c2.25,0.7 4.82,1.9 5.88,2.53c1.06,0.63 2.67,1.45 4.77,3.63l-0.01,-0.01Z"/></clipPath><g clip-path="url(#_clip1)"><path d="M49.57,5.19l-24.55,-9.59l-3.3,28.38l17.84,6.94l10.01,-25.73Z" style="fill:url(#_Linear2);"/></g></g><g><clipPath id="_clip3"><path d="M44.85,17.23l0.47,-1.19c-1.07,-1.65 -2.43,-3.57 -3.54,-4.73c-2.1,-2.18 -3.71,-3 -4.77,-3.63c-1.06,-0.63 -3.63,-1.82 -5.88,-2.53c-1.31,-0.41 -5,-1.18 -6.47,-1.26c-1.47,-0.08 -4.75,-0.06 -6.61,0.16c-1.86,0.22 -5.12,0.96 -7.41,1.78c-2.53,0.91 -6.29,2.58 -8.94,4.55c0.57,1.66 1.14,3.32 1.72,4.98c1.68,-1.24 7.12,-5.08 12.06,-6.53c5.49,-1.61 10.72,-1.67 16.33,-0.04c5.28,1.54 8.7,4.2 9.74,5.04c0.97,0.78 2.33,2.23 3.31,3.38l-0.01,0.02Z"/></clipPath><g clip-path="url(#_clip3)"><path d="M46.83,-0.54l-24.55,-9.59l-3.31,28.38l17.85,6.94l10.01,-25.73Z" style="fill:url(#_Linear4);"/><path d="M39.656,17.049l2.187,-7.612l5.046,1.45l-2.187,7.612l-5.046,-1.45Z" style="fill:#6d5f27;fill-rule:nonzero;"/></g></g><g><clipPath id="_clip5"><path d="M44.61,17.97l0.27,-0.7c-0.98,-1.15 -2.36,-2.62 -3.34,-3.42c-1.04,-0.84 -4.46,-3.5 -9.74,-5.04c-5.6,-1.63 -10.84,-1.58 -16.33,0.04c-4.94,1.45 -10.38,5.29 -12.06,6.53c0.5,1.46 1.01,2.93 1.52,4.39c1.57,-1.43 10.08,-8.36 21.68,-8.79c5.24,-0.19 10.38,0.94 13.52,3c1.82,1.19 3.35,2.71 4.49,3.99l-0.01,0Z"/></clipPath><g clip-path="url(#_clip5)"><path d="M47.46,8.71l-21.35,-8.33l-2.87,24.67l15.52,6.04l8.7,-22.38Z" style="fill:url(#_Linear6);"/><rect x="43.31" y="13.84" width="3.01" height="5.12" style="fill:#6d5f27;fill-rule:nonzero;"/></g></g><g><clipPath id="_clip7"><path d="M83.37,14.57c-0.34,-1.73 -0.73,-3.69 -1.08,-5.46c-0.55,-2.8 -1.01,-5.1 -1.02,-5.22c-7.34,8.96 -15.72,14.43 -21.14,16.16c-9.53,3.04 -11.51,-0.37 -12.67,-1.63c-0.63,-0.69 -1.7,-1.99 -2.44,-2.99l-0.77,2.15c0.73,0.73 1.72,2.01 1.97,2.33c3.44,4.42 7.74,10.36 14.92,10.27c5.95,-0.07 8.81,-1.43 10.42,-2.03c7.89,-2.93 12.73,-8.89 12.74,-8.89c0,-0.06 -0.41,-2.11 -0.93,-4.7l0,0.01Z"/></clipPath><g clip-path="url(#_clip7)"><path d="M45.716,20.092l34.249,-15.637l9.121,19.976l-34.249,15.637l-9.121,-19.976Z" style="fill:#fbd41e;fill-rule:nonzero;"/><path d="M47.51,19.29l35.56,-16.93c0,0 5.77,-0.89 5.42,1.72c-0.41,3.09 -23.94,32.31 -40.61,16.46c-1.37,-0.89 -0.37,-1.25 -0.37,-1.25Z" style="fill:#045da9;fill-rule:nonzero;"/><path d="M40.74,27.18l24.71,9.17l2.82,-28.43l-17.96,-6.64l-9.57,25.9Z" style="fill:url(#_Linear8);"/></g></g></g></g><defs><linearGradient id="_Linear2" x1="0" y1="0" x2="1" y2="0" gradientUnits="userSpaceOnUse" gradientTransform="matrix(-15.5785,-2.09894,2.09894,-15.5785,40.9552,14.8172)"><stop offset="0" style="stop-color:#6d5f27;stop-opacity:1"/><stop offset="0.16" style="stop-color:#6a5d28;stop-opacity:0.94"/><stop offset="0.38" style="stop-color:#62572d;stop-opacity:0.76"/><stop offset="0.65" style="stop-color:#554e35;stop-opacity:0.47"/><stop offset="0.95" style="stop-color:#444240;stop-opacity:0.07"/><stop offset="1" style="stop-color:#414042;stop-opacity:0"/></linearGradient><linearGradient id="_Linear4" x1="0" y1="0" x2="1" y2="0" gradientUnits="userSpaceOnUse" gradientTransform="matrix(-15.5971,-2.10619,2.10619,-15.5971,38.2281,9.08293)"><stop offset="0" style="stop-color:#6d5f27;stop-opacity:1"/><stop offset="0.16" style="stop-color:#725b27;stop-opacity:0.94"/><stop offset="0.38" style="stop-color:#824f29;stop-opacity:0.76"/><stop offset="0.65" style="stop-color:#9c3d2b;stop-opacity:0.47"/><stop offset="0.95" style="stop-color:#c0242f;stop-opacity:0.07"/><stop offset="1" style="stop-color:#c72030;stop-opacity:0"/></linearGradient><linearGradient id="_Linear6" x1="0" y1="0" x2="1" y2="0" gradientUnits="userSpaceOnUse" gradientTransform="matrix(-13.5635,-1.8175,1.8175,-13.5635,39.9673,17.1369)"><stop offset="0" style="stop-color:#6d5f27;stop-opacity:1"/><stop offset="0.16" style="stop-color:#766527;stop-opacity:0.94"/><stop offset="0.38" style="stop-color:#8f7929;stop-opacity:0.76"/><stop offset="0.65" style="stop-color:#ba982c;stop-opacity:0.47"/><stop offset="0.95" style="stop-color:#f4c431;stop-opacity:0.07"/><stop offset="1" style="stop-color:#ffcc32;stop-opacity:0"/></linearGradient><linearGradient id="_Linear8" x1="0" y1="0" x2="1" y2="0" gradientUnits="userSpaceOnUse" gradientTransform="matrix(20.8809,0.442943,-0.442943,20.8809,46.0119,18.4285)"><stop offset="0" style="stop-color:#6d5f27;stop-opacity:1"/><stop offset="0.09" style="stop-color:#6d5f27;stop-opacity:1"/><stop offset="0.26" style="stop-color:#665a2b;stop-opacity:0.85"/><stop offset="0.59" style="stop-color:#554e35;stop-opacity:0.46"/><stop offset="0.93" style="stop-color:#414042;stop-opacity:0"/><stop offset="1" style="stop-color:#414042;stop-opacity:0"/></linearGradient></defs></svg>