<?xml version="1.0" encoding="UTF-8" standalone="no"?><!DOCTYPE svg PUBLIC "-//W3C//DTD SVG 1.1//EN" "http://www.w3.org/Graphics/SVG/1.1/DTD/svg11.dtd"><svg viewBox="0 0 235 20" version="1.1" xmlns="http://www.w3.org/2000/svg" xmlns:xlink="http://www.w3.org/1999/xlink" xml:space="preserve" xmlns:serif="http://www.serif.com/" style="fill-rule:evenodd;clip-rule:evenodd;stroke-linejoin:round;stroke-miterlimit:2;"><rect id="Artboard2" x="0" y="0" width="234.911" height="19.455" style="fill:none;"/><g id="Artboard1"><g><g><path d="M2.625,14.561l0,-13.417l4.125,0c0.833,0 1.5,0.125 2,0.375c0.5,0.25 0.875,0.667 1.208,1.209c0.292,0.541 0.459,1.166 0.459,1.833c-0,0.625 -0.125,1.167 -0.417,1.667c-0.25,0.5 -0.667,0.875 -1.125,1.208c0.625,0.25 1.125,0.625 1.5,1.167c0.375,0.541 0.542,1.25 0.542,2.083c-0,0.833 -0.167,1.542 -0.5,2.125c-0.334,0.625 -0.792,1.042 -1.334,1.333c-0.541,0.292 -1.333,0.417 -2.291,0.417l-4.209,-0l0.042,-0Zm1.417,-7.792l2.416,0c0.625,0 1.084,-0.041 1.334,-0.125c0.375,-0.125 0.666,-0.333 0.875,-0.625c0.208,-0.291 0.291,-0.708 0.291,-1.25c0,-0.5 -0.083,-0.875 -0.291,-1.208c-0.167,-0.333 -0.417,-0.542 -0.75,-0.667c-0.292,-0.125 -0.875,-0.166 -1.667,-0.166l-2.208,-0l-0,4.041Zm0.041,6.209l2.75,-0c0.584,-0 1.042,-0.042 1.334,-0.167c0.416,-0.167 0.75,-0.417 0.958,-0.792c0.208,-0.375 0.333,-0.833 0.333,-1.375c0,-0.5 -0.125,-0.916 -0.333,-1.291c-0.208,-0.334 -0.5,-0.625 -0.833,-0.75c-0.334,-0.167 -0.917,-0.25 -1.667,-0.25l-2.542,-0l0,4.625Z" style="fill:#231f20;fill-rule:nonzero;"/><path d="M12.75,4.853l1.333,-0l0,7.416l3.75,-7.416l1.459,-0l-0,9.708l-1.334,-0l0,-7.375l-3.75,7.375l-1.458,-0l0,-9.708Z" style="fill:#231f20;fill-rule:nonzero;"/><path d="M21.333,4.853l1.334,-0l-0,4.208c0.416,-0 0.75,-0.083 0.916,-0.292c0.167,-0.208 0.417,-0.791 0.75,-1.75c0.25,-0.791 0.459,-1.291 0.667,-1.541c0.167,-0.25 0.333,-0.417 0.583,-0.5c0.25,-0.084 0.584,-0.125 1.084,-0.125l0.208,-0l0,1.375l-0.417,-0c-0.291,-0 -0.5,0.041 -0.625,0.166c-0.125,0.125 -0.208,0.292 -0.333,0.584c-0.292,1 -0.542,1.625 -0.708,1.916c-0.167,0.292 -0.459,0.542 -0.834,0.75c0.584,0.209 1.167,0.834 1.709,1.959l1.5,3l-1.5,-0l-1.459,-3c-0.291,-0.625 -0.541,-1 -0.791,-1.209c-0.209,-0.208 -0.5,-0.291 -0.792,-0.291l-0,4.5l-1.333,-0l-0,-9.709l0.041,-0.041Z" style="fill:#231f20;fill-rule:nonzero;"/><path d="M27.542,9.728c-0,-1.667 0.333,-2.959 1.041,-3.792c0.709,-0.875 1.584,-1.292 2.667,-1.292c1.083,0 1.958,0.417 2.667,1.292c0.708,0.833 1.083,2.083 1.083,3.708c0,1.75 -0.333,3.042 -1.042,3.917c-0.708,0.875 -1.583,1.292 -2.666,1.292c-1.084,-0 -1.959,-0.417 -2.667,-1.292c-0.708,-0.875 -1.083,-2.125 -1.083,-3.792l-0,-0.041Zm1.375,-0c-0,1.25 0.208,2.208 0.708,2.791c0.458,0.625 1.042,0.917 1.708,0.917c0.625,-0 1.167,-0.292 1.625,-0.917c0.459,-0.625 0.667,-1.541 0.667,-2.791c0,-1.25 -0.25,-2.167 -0.667,-2.792c-0.458,-0.625 -1.041,-0.917 -1.708,-0.917c-0.625,0 -1.208,0.292 -1.625,0.917c-0.458,0.625 -0.667,1.542 -0.667,2.792l-0.041,-0Z" style="fill:#231f20;fill-rule:nonzero;"/><path d="M36.625,4.853l1.333,-0l0,4.041l3.75,0l0,-4.041l1.334,-0l-0,9.708l-1.334,-0l0,-4.333l-3.75,-0l0,4.333l-1.333,-0l0,-9.708Z" style="fill:#231f20;fill-rule:nonzero;"/><path d="M50.292,13.394c-0.459,0.459 -0.917,0.834 -1.417,1.042c-0.5,0.25 -1,0.375 -1.5,0.375c-0.833,-0 -1.5,-0.25 -2,-0.75c-0.5,-0.5 -0.75,-1.167 -0.75,-2.042c0,-0.541 0.125,-1.041 0.333,-1.5c0.25,-0.416 0.542,-0.791 0.959,-1c0.416,-0.208 1,-0.416 1.833,-0.541c1.083,-0.167 1.917,-0.375 2.417,-0.584l-0,-0.416c-0,-0.667 -0.125,-1.125 -0.334,-1.417c-0.333,-0.375 -0.833,-0.583 -1.541,-0.583c-0.625,-0 -1.084,0.125 -1.417,0.375c-0.333,0.25 -0.542,0.75 -0.708,1.458l-1.334,-0.208c0.167,-1.042 0.584,-1.792 1.167,-2.292c0.583,-0.458 1.417,-0.708 2.458,-0.708c0.834,-0 1.5,0.166 1.959,0.458c0.458,0.333 0.791,0.708 0.916,1.167c0.125,0.458 0.167,1.125 0.167,2.041l0,2.209c0,1.541 0,2.5 0.083,2.916c0.042,0.417 0.167,0.792 0.334,1.167l-1.417,-0c-0.125,-0.333 -0.25,-0.75 -0.292,-1.208l0.084,0.041Zm-0.125,-3.666c-0.5,0.25 -1.209,0.458 -2.209,0.625c-0.583,0.083 -0.958,0.208 -1.208,0.333c-0.208,0.125 -0.417,0.292 -0.542,0.542c-0.125,0.208 -0.166,0.5 -0.166,0.791c-0,0.459 0.125,0.834 0.416,1.125c0.292,0.292 0.667,0.417 1.209,0.417c0.5,-0 0.916,-0.125 1.333,-0.375c0.375,-0.25 0.667,-0.583 0.875,-1c0.208,-0.417 0.292,-1.042 0.292,-1.833l-0,-0.625Z" style="fill:#231f20;fill-rule:nonzero;"/><path d="M53.667,4.853l3.125,-0c0.708,-0 1.25,0.083 1.625,0.208c0.375,0.125 0.708,0.417 1,0.833c0.291,0.417 0.458,0.917 0.458,1.542c0,0.917 -0.333,1.625 -0.958,2.083c0.875,0.375 1.333,1.167 1.333,2.334c0,0.75 -0.208,1.375 -0.667,1.916c-0.458,0.542 -1.208,0.792 -2.291,0.792l-3.584,-0l0,-9.708l-0.041,-0Zm1.333,4.083l1.458,-0c0.584,-0 0.959,-0 1.167,-0.125c0.208,-0.083 0.417,-0.208 0.583,-0.458c0.167,-0.209 0.25,-0.5 0.25,-0.834c0,-0.5 -0.166,-0.875 -0.458,-1.041c-0.292,-0.209 -0.792,-0.292 -1.542,-0.292l-1.5,-0l0,2.708l0.042,0.042Zm0,4.292l1.792,-0c0.75,-0 1.291,-0.125 1.583,-0.334c0.292,-0.25 0.458,-0.583 0.458,-1.083c0,-0.542 -0.166,-0.917 -0.458,-1.125c-0.292,-0.208 -0.875,-0.333 -1.708,-0.333l-1.667,-0l0,2.916l0,-0.041Z" style="fill:#231f20;fill-rule:nonzero;"/><path d="M67.292,11.436l1.375,0.208c-0.25,1.042 -0.667,1.834 -1.25,2.334c-0.625,0.541 -1.375,0.791 -2.25,0.791c-1.125,0 -2.042,-0.416 -2.75,-1.291c-0.709,-0.875 -1.042,-2.084 -1.042,-3.709c-0,-1.625 0.333,-2.958 1.042,-3.833c0.708,-0.875 1.583,-1.333 2.666,-1.333c1.084,-0 1.875,0.416 2.584,1.291c0.666,0.875 1.041,2.125 1.041,3.75l0,0.459l-5.958,-0c0.042,1.083 0.292,1.916 0.75,2.458c0.458,0.542 1,0.833 1.667,0.833c1,0 1.708,-0.666 2.125,-2l-0,0.042Zm-4.459,-2.667l4.459,0c-0.042,-0.833 -0.25,-1.458 -0.542,-1.875c-0.417,-0.583 -1,-0.916 -1.667,-0.916c-0.583,-0 -1.125,0.25 -1.541,0.75c-0.417,0.5 -0.667,1.166 -0.709,2.041Z" style="fill:#231f20;fill-rule:nonzero;"/><path d="M70.417,4.853l1.333,-0l0,8.375l3.75,-0l0,-8.375l1.333,-0l0,8.375l0.875,-0l0,5.083l-1.125,-0l0,-3.708l-6.208,-0l0,-9.709l0.042,-0.041Z" style="fill:#231f20;fill-rule:nonzero;"/><path d="M79.167,4.853l1.333,-0l0,3.791l1.708,0c1.25,0 2.125,0.292 2.667,0.875c0.542,0.584 0.833,1.292 0.833,2.125c0,0.792 -0.25,1.459 -0.75,2.042c-0.5,0.583 -1.291,0.875 -2.416,0.875l-3.375,-0l-0,-9.708Zm1.333,8.375l1.417,-0c1.041,-0 1.666,-0.167 1.958,-0.5c0.292,-0.334 0.417,-0.709 0.417,-1.084c-0,-0.5 -0.167,-0.916 -0.5,-1.208c-0.334,-0.292 -0.917,-0.417 -1.709,-0.417l-1.583,0l0,3.209Z" style="fill:#231f20;fill-rule:nonzero;"/><path d="M87.625,6.728l0,-1.875l1.542,-0l-0,1.875l-1.542,-0Zm0,7.833l0,-1.875l1.542,-0l-0,1.875l-1.542,-0Z" style="fill:#231f20;fill-rule:nonzero;"/></g></g></g></svg>