<?xml version="1.0" encoding="UTF-8" standalone="no"?><!DOCTYPE svg PUBLIC "-//W3C//DTD SVG 1.1//EN" "http://www.w3.org/Graphics/SVG/1.1/DTD/svg11.dtd"><svg width="100%" height="100%" viewBox="0 0 57 48" version="1.1" xmlns="http://www.w3.org/2000/svg" xmlns:xlink="http://www.w3.org/1999/xlink" xml:space="preserve" xmlns:serif="http://www.serif.com/" style="fill-rule:evenodd;clip-rule:evenodd;stroke-linejoin:round;stroke-miterlimit:2;"><rect id="Artboard1" x="-125" y="0" width="273.261" height="47.78" style="fill:none;"/><g id="Artboard11" serif:id="Artboard1"><g><g><path d="M4.88,36l-0,-3.05c-0.01,-0.4 -0.16,-0.66 -0.44,-0.88c-0.28,-0.23 -0.54,-0.34 -0.94,-0.35l-0.15,0c-0.41,0.01 -0.68,0.15 -0.96,0.41c-0.28,0.26 -0.42,0.53 -0.43,0.92l-0,2.81c0.01,0.39 0.16,0.66 0.43,0.92c0.28,0.26 0.55,0.4 0.96,0.41l0.15,0c0.39,0 0.66,-0.12 0.94,-0.35c0.28,-0.22 0.43,-0.46 0.44,-0.84Zm-0.18,2.19c-0,0 -0.1,0.07 -0.15,0.11l-0.01,0c-0,0 -0.02,0.03 -0.03,0.04c-0,0 -0.02,0.01 -0.03,0.02c-0.01,0 -0.02,0.01 -0.03,0.02c-0,0 -0.02,0.02 -0.03,0.02c-0.01,0 -0.03,0.01 -0.04,0.02c-0.01,0 -0.03,0.01 -0.04,0.02c-0.01,0 -0.03,0.01 -0.04,0.02c0,0 -0.02,0.01 -0.04,0.02c-0.01,0 -0.03,0.01 -0.04,0.02c-0.01,0 -0.03,0.01 -0.04,0.02c-0.01,0 -0.03,0.01 -0.04,0.02c-0.01,0 -0.03,0.01 -0.04,0.02c-0.01,0 -0.03,0 -0.04,0.01c-0.01,0 -0.03,0 -0.04,0.01c-0.01,0 -0.03,0 -0.04,0.01l-0.16,0c-0.16,0.02 -0.32,0.04 -0.48,0.04l-0.12,0c-0.81,-0.02 -1.48,-0.28 -2.02,-0.79c-0.54,-0.51 -0.82,-1.15 -0.84,-1.92l0,-3.02c0.02,-0.77 0.3,-1.41 0.84,-1.92c0.54,-0.51 1.21,-0.77 2.02,-0.8l0.16,0c0.15,0 0.3,0.01 0.43,0.03l0.04,0c0,0 0.03,0 0.04,0.01l0.08,0c0.01,0 0.03,0 0.04,0.01c0.01,0 0.03,0 0.04,0.01c0.01,0 0.03,0 0.04,0.01c0.02,0 0.03,0 0.04,0.01c0.01,0 0.03,0.01 0.04,0.02c0.01,0 0.03,0.01 0.04,0.02c0.01,0 0.03,0.01 0.04,0.02c0.01,0 0.03,0.01 0.04,0.02c0.01,0 0.03,0.01 0.04,0.02c0.01,0 0.02,0.01 0.04,0.02c0.01,0 0.02,0.01 0.04,0.02c0.02,0.01 0.02,0.02 0.02,0.02l0.02,0l0.01,0.02l0.02,0l0.01,0.02l0.02,0l0.01,0.02l0.01,0l0.01,0.02l0.01,0l0.01,0.02l0.01,0l0.02,0.02l0.01,0.02l0.01,0l-0,0.02c-0,0 0.01,0 0.03,0.02c-0,0 0.01,0 0.02,0.01c-0,0 0.02,0 0.03,0.01l0.06,0c0.01,0 0.02,0 0.03,-0.01c-0,0 0.02,0 0.03,-0.01c-0,0 0.02,-0.01 0.02,-0.02c-0,0 0.01,-0.01 0.02,-0.02c0,0 0.01,-0.02 0.02,-0.03l0,-0.06c0,-0.1 0,-0.24 0.11,-0.27c0.06,-0.02 0.15,0 0.21,0l1.02,0c0.11,0 0.26,-0.03 0.3,0.1c0.03,0.09 0,0.29 0,0.39l0,6.45c0,0.57 0.02,1.15 -0.04,1.72c-0.18,1.59 -0.97,2.94 -2.66,3.24c-1.02,0.18 -2.03,-0.18 -2.82,-0.83c-0.1,-0.08 -0.3,-0.21 -0.29,-0.35c0,-0.05 0.03,-0.09 0.05,-0.13c0,0 0.65,-0.69 0.7,-0.75c0.04,-0.05 0.11,-0.12 0.18,-0.12c0.1,0 0.21,0.1 0.4,0.2c0.32,0.19 0.66,0.36 1.02,0.41c0.23,0.04 0.48,0 0.7,-0.07c0.85,-0.28 1.09,-1.35 1.14,-2.2l0,-0.1l-0.01,0l0,-0.01l-0.13,0l-0.02,0.01l-0.03,0.03Z" style="fill:#d71d24;fill-rule:nonzero;"/><path d="M18.06,38.47l0,-1.11c0,-0.06 -0.02,-0.11 -0.05,-0.14c-0.03,-0.03 -0.08,-0.04 -0.13,-0.04l-3.06,0c-0.07,0 -0.12,-0.01 -0.16,-0.04c-0.03,-0.02 -0.05,-0.05 -0.05,-0.1c-0,-0.04 0.02,-0.1 0.04,-0.13l3.35,-6.32c-0,0 0.02,-0.04 0.03,-0.06c-0,-0.02 0.01,-0.05 0.01,-0.07c-0,-0.09 -0.07,-0.15 -0.2,-0.15l-5.49,0c-0.12,0 -0.19,0.06 -0.19,0.18l-0,1.11c-0,0.12 0.06,0.19 0.19,0.19l2.87,0c0.06,0 0.12,0.01 0.15,0.04c0.03,0.03 0.05,0.06 0.05,0.11c-0,0.02 -0,0.04 -0.01,0.06c-0,0.03 -0.02,0.05 -0.03,0.07l-3.38,6.32c0,0 -0.02,0.04 -0.03,0.06c-0,0.03 -0.01,0.04 -0.01,0.07c0,0.09 0.07,0.14 0.2,0.15l5.71,0c0.06,0 0.11,-0.02 0.14,-0.04c0.03,-0.03 0.04,-0.08 0.04,-0.14l0.01,-0.02Z" style="fill:#d71d24;fill-rule:nonzero;"/><path d="M8.57,29.23c-0,0.06 0.02,0.11 0.06,0.14c0.04,0.04 0.09,0.06 0.17,0.06l1.15,0c0.08,0 0.13,-0.02 0.17,-0.06c0.03,-0.03 0.05,-0.08 0.05,-0.14l-0,-1.32c-0,-0.08 -0.02,-0.14 -0.06,-0.17c-0.04,-0.04 -0.09,-0.05 -0.17,-0.06l-0.09,0c-0.07,0 -0.13,0.02 -0.2,0.08l-0.97,1.08l-0.04,0.06c-0.05,0.06 -0.07,0.11 -0.07,0.17l-0,0.16Z" style="fill:#d71d24;fill-rule:nonzero;"/><path d="M10.16,30.49c-0,-0.07 -0.02,-0.12 -0.04,-0.15c-0.04,-0.04 -0.09,-0.05 -0.15,-0.05l-1.2,0c-0.07,0 -0.12,0.02 -0.15,0.06c-0.03,0.04 -0.04,0.08 -0.05,0.14l-0,7.97c-0,0.07 0.02,0.12 0.05,0.15c0.04,0.04 0.08,0.05 0.15,0.05l1.2,0c0.07,0 0.12,-0.02 0.15,-0.06c0.03,-0.04 0.04,-0.08 0.04,-0.14l-0,-7.97Z" style="fill:#d71d24;fill-rule:nonzero;"/></g><g><path d="M22.24,38.51c0,0 -0.05,-0.04 -0.08,-0.04l-0.74,0l0.83,-1.6c-0,0 0.02,-0.05 0.02,-0.08c0,-0.04 -0.01,-0.07 -0.04,-0.09c-0.03,-0.02 -0.06,-0.04 -0.1,-0.04l-0.84,0c0,0 -0.07,0 -0.09,0.04c-0.02,0.02 -0.03,0.05 -0.03,0.08c0,0.03 0,0.05 0.03,0.08c0.02,0.02 0.05,0.03 0.09,0.03l0.69,0l-0.83,1.59c0,0 -0.02,0.04 -0.02,0.07c-0,0.04 0.01,0.07 0.04,0.1c0.02,0.03 0.05,0.04 0.1,0.04l0.88,0c-0,0 0.06,0 0.08,-0.04c0.02,-0.02 0.03,-0.05 0.03,-0.08c-0,-0.03 -0,-0.05 -0.03,-0.08l0.01,0.02Zm1.43,-1.13c0,0 0,-0.06 -0.03,-0.08c-0.02,-0.02 -0.05,-0.03 -0.08,-0.03c-0.03,0 -0.05,0 -0.07,0.03c-0.03,0.02 -0.04,0.05 -0.04,0.08l0,0.86c0,0.07 -0.02,0.13 -0.07,0.17c-0.05,0.05 -0.11,0.07 -0.18,0.07l-0.02,0c-0.07,0 -0.13,-0.03 -0.18,-0.07c-0.05,-0.05 -0.07,-0.11 -0.07,-0.17l0,-0.86c0,0 -0.01,-0.06 -0.04,-0.08c-0.02,-0.02 -0.05,-0.03 -0.08,-0.03c-0.03,0 -0.05,0 -0.08,0.03c-0.02,0.02 -0.04,0.05 -0.04,0.08l-0,0.86c-0,0.08 0.01,0.15 0.04,0.21c0.02,0.06 0.06,0.11 0.1,0.15c0.04,0.04 0.09,0.07 0.15,0.08c0.06,0.02 0.12,0.03 0.18,0.03l0.02,0c0.05,0 0.1,0 0.14,-0.02c0.05,-0.02 0.08,-0.04 0.11,-0.07c-0,0.03 0.02,0.05 0.04,0.07c0.02,0.02 0.05,0.02 0.07,0.02c0.03,0 0.05,0 0.08,-0.03c0.02,-0.02 0.03,-0.04 0.03,-0.08l-0,-1.22l0.02,0Zm1.5,0.91c0,-0.1 -0.02,-0.17 -0.06,-0.23c-0.04,-0.05 -0.09,-0.1 -0.14,-0.13c-0.05,-0.03 -0.12,-0.05 -0.18,-0.07c-0.07,-0.01 -0.13,-0.03 -0.19,-0.04c-0.05,-0.01 -0.1,-0.03 -0.14,-0.06c-0.04,-0.03 -0.06,-0.06 -0.06,-0.12c0,-0.05 0.03,-0.09 0.07,-0.12c0.04,-0.03 0.11,-0.04 0.19,-0.04l0.01,0c0.06,0 0.12,0 0.15,0.03c0.04,0.02 0.07,0.04 0.1,0.05c0.03,0.01 0.05,0.02 0.07,0.02c0.03,0 0.06,-0.01 0.08,-0.03c0.02,-0.02 0.03,-0.04 0.03,-0.07c0,-0.04 -0.01,-0.06 -0.04,-0.09c-0.01,0 -0.03,-0.02 -0.05,-0.04c-0.02,-0.01 -0.05,-0.03 -0.08,-0.04c-0.03,-0.01 -0.07,-0.02 -0.11,-0.03c-0.04,0 -0.09,-0.01 -0.14,-0.01l-0.01,0c0,0 -0.1,0 -0.15,0.02c-0.06,0.01 -0.11,0.03 -0.16,0.06c-0.05,0.03 -0.09,0.07 -0.12,0.12c-0.03,0.05 -0.05,0.11 -0.05,0.18c-0,0.09 0.02,0.16 0.06,0.21c0.04,0.05 0.09,0.09 0.14,0.11c0.05,0.03 0.12,0.05 0.18,0.06c0.07,0.01 0.13,0.03 0.18,0.04c0.06,0.02 0.1,0.04 0.14,0.07c0.04,0.03 0.06,0.08 0.06,0.14c-0,0.06 -0.03,0.1 -0.08,0.14c-0.05,0.04 -0.12,0.06 -0.21,0.06l-0.02,0c-0.05,0 -0.11,-0.02 -0.17,-0.05c-0.06,-0.04 -0.1,-0.08 -0.14,-0.13c-0.01,-0.02 -0.03,-0.03 -0.05,-0.04l-0.05,0c-0.03,0 -0.06,0 -0.08,0.03c-0.02,0.02 -0.04,0.04 -0.04,0.08c-0,0 -0,0.03 0.01,0.05c0.03,0.05 0.05,0.09 0.09,0.12c0.04,0.04 0.08,0.07 0.12,0.09c0.04,0.02 0.09,0.05 0.14,0.06c0.05,0.02 0.1,0.02 0.14,0.02l0.02,0c0.06,0 0.12,0 0.18,-0.03c0.06,-0.02 0.12,-0.04 0.16,-0.08c0.05,-0.03 0.09,-0.08 0.12,-0.13c0.03,-0.05 0.04,-0.11 0.04,-0.18l0.04,0Zm1.55,0.24c0,0 -0.04,-0.04 -0.07,-0.04c-0.05,0 -0.08,-0.04 -0.08,-0.1l0,-0.68c0,-0.06 -0.01,-0.12 -0.04,-0.18c-0.02,-0.05 -0.06,-0.1 -0.1,-0.14c-0.04,-0.04 -0.09,-0.07 -0.15,-0.1c-0.06,-0.02 -0.12,-0.04 -0.18,-0.04l-0.02,0c-0,0 -0.08,0 -0.12,0.01c-0.04,0.01 -0.08,0.03 -0.12,0.04c-0.04,0.02 -0.08,0.05 -0.11,0.08c-0.04,0.04 -0.06,0.08 -0.09,0.13c-0,0.01 -0.01,0.03 -0.01,0.05c-0,0.03 0.01,0.06 0.04,0.08c0.02,0.02 0.05,0.03 0.07,0.03c0.02,0 0.04,0 0.06,-0.01c0.02,0 0.03,-0.03 0.04,-0.05c0.03,-0.05 0.06,-0.08 0.09,-0.11c0.03,-0.03 0.08,-0.04 0.14,-0.04l0.02,0c0.06,0 0.12,0.02 0.17,0.05c0.05,0.04 0.07,0.1 0.07,0.19l-0,0.05c-0.01,0.02 -0.04,0.03 -0.08,0.04c-0.04,0 -0.09,0.02 -0.15,0.03c-0.06,0.01 -0.11,0.02 -0.17,0.04c-0.06,0.02 -0.12,0.04 -0.17,0.07c-0.05,0.03 -0.09,0.07 -0.13,0.12c-0.03,0.05 -0.05,0.11 -0.05,0.19l-0,0.04c-0,0.07 0.01,0.13 0.04,0.18c0.03,0.05 0.06,0.1 0.11,0.13c0.04,0.03 0.09,0.06 0.15,0.08c0.05,0.02 0.11,0.03 0.17,0.03l0.03,0c0.12,0 0.23,-0.04 0.32,-0.11c0.02,0.03 0.04,0.05 0.08,0.07c0.03,0.02 0.07,0.03 0.12,0.04l0.02,0c0.03,0 0.06,-0.01 0.08,-0.03c0.02,-0.02 0.03,-0.05 0.03,-0.08c-0,-0.02 -0,-0.05 -0.02,-0.07l0.01,0.01Zm-0.37,-0.3c0,0.07 -0.03,0.13 -0.08,0.18c-0.05,0.05 -0.11,0.07 -0.18,0.07l-0.03,0c-0.07,0 -0.13,-0.02 -0.18,-0.05c-0.05,-0.04 -0.07,-0.09 -0.07,-0.15l-0,-0.03c-0,-0.05 0.02,-0.09 0.05,-0.12c0.03,-0.03 0.08,-0.05 0.13,-0.06c0.05,-0.02 0.11,-0.03 0.17,-0.04c0.06,0 0.12,-0.02 0.18,-0.03l-0,0.23l0.01,0Zm2.57,-0.5c0,-0.08 -0.01,-0.15 -0.04,-0.21c-0.03,-0.06 -0.06,-0.11 -0.1,-0.15c-0.04,-0.04 -0.09,-0.07 -0.15,-0.08c-0.06,-0.02 -0.12,-0.03 -0.18,-0.03l-0.03,0c-0.07,0 -0.14,0.01 -0.2,0.04c-0.06,0.03 -0.11,0.07 -0.16,0.12c-0.04,-0.05 -0.1,-0.09 -0.16,-0.12c-0.06,-0.03 -0.13,-0.04 -0.2,-0.04l-0.03,0c-0.05,0 -0.1,0 -0.14,0.02c-0.04,0.02 -0.08,0.04 -0.11,0.06c0,-0.03 -0.02,-0.05 -0.04,-0.07c-0.02,-0.01 -0.04,-0.02 -0.07,-0.02c-0.03,0 -0.05,0 -0.08,0.03c-0.02,0.02 -0.04,0.05 -0.04,0.08l0,1.22c0,0 0.02,0.06 0.04,0.08c0.02,0.02 0.05,0.03 0.08,0.03c0.03,0 0.05,0 0.08,-0.03c0.02,-0.02 0.04,-0.05 0.04,-0.08l0,-0.89c0,-0.07 0.03,-0.12 0.08,-0.16c0.05,-0.04 0.11,-0.06 0.18,-0.06l0.03,0c0.07,0 0.13,0.02 0.18,0.07c0.05,0.05 0.07,0.11 0.07,0.18l0,0.86c0,0 0.01,0.07 0.04,0.09c0.03,0.02 0.05,0.03 0.08,0.03c0.03,0 0.05,0 0.08,-0.03c0.02,-0.02 0.04,-0.05 0.04,-0.09l0,-0.86c0,-0.07 0.02,-0.13 0.07,-0.18c0.05,-0.05 0.11,-0.07 0.18,-0.07l0.03,0c0.07,0 0.13,0.02 0.18,0.06c0.05,0.04 0.07,0.1 0.07,0.18l0,0.87c0,0 0.01,0.06 0.04,0.08c0.02,0.02 0.05,0.03 0.07,0.03c0.02,0 0.05,0 0.08,-0.03c0.03,-0.02 0.04,-0.05 0.04,-0.08l0,-0.87l-0.05,0.02Zm2.24,0c0,-0.08 -0.01,-0.15 -0.04,-0.21c-0.02,-0.06 -0.06,-0.11 -0.1,-0.15c-0.04,-0.04 -0.09,-0.07 -0.15,-0.08c-0.06,-0.02 -0.12,-0.03 -0.18,-0.03l-0.03,0c-0.07,0 -0.14,0.01 -0.21,0.04c-0.06,0.03 -0.11,0.07 -0.16,0.12c-0.04,-0.05 -0.1,-0.09 -0.16,-0.12c-0.06,-0.03 -0.13,-0.04 -0.2,-0.04l-0.03,0c0,0 -0.1,0 -0.14,0.02c-0.05,0.02 -0.08,0.04 -0.11,0.06c0,-0.03 -0.02,-0.05 -0.04,-0.07c-0.02,-0.01 -0.04,-0.02 -0.07,-0.02c-0.03,0 -0.05,0 -0.08,0.03c-0.02,0.02 -0.03,0.05 -0.03,0.08l0,1.22c0,0 0.01,0.06 0.03,0.08c0.03,0.02 0.05,0.03 0.08,0.03c0.03,0 0.05,0 0.08,-0.03c0.02,-0.02 0.03,-0.05 0.03,-0.08l0,-0.89c0,-0.07 0.03,-0.12 0.08,-0.16c0.05,-0.04 0.11,-0.06 0.18,-0.06l0.03,0c0.07,0 0.13,0.02 0.18,0.07c0.05,0.05 0.07,0.11 0.07,0.18l0,0.86c0,0 0.01,0.07 0.04,0.09c0.02,0.02 0.05,0.03 0.08,0.03c0.03,0 0.05,0 0.08,-0.03c0.02,-0.02 0.04,-0.05 0.04,-0.09l0,-0.86c0,-0.07 0.03,-0.13 0.07,-0.18c0.05,-0.05 0.11,-0.07 0.18,-0.07l0.03,0c0.07,0 0.13,0.02 0.18,0.06c0.04,0.04 0.07,0.1 0.07,0.18l0,0.87c0,0 0.01,0.06 0.04,0.08c0.02,0.02 0.05,0.03 0.08,0.03c0.03,0 0.05,0 0.07,-0.03c0.02,-0.02 0.04,-0.05 0.04,-0.08l0,-0.87l-0.03,0.02Zm1.46,0c0,-0.07 -0.01,-0.13 -0.04,-0.19c-0.03,-0.06 -0.06,-0.11 -0.1,-0.15c-0.04,-0.04 -0.09,-0.08 -0.15,-0.1c-0.06,-0.02 -0.12,-0.04 -0.18,-0.04l-0.03,0c-0.06,0 -0.12,0.01 -0.18,0.04c-0.06,0.02 -0.11,0.06 -0.15,0.1c-0.04,0.04 -0.08,0.09 -0.1,0.15c-0.03,0.06 -0.04,0.12 -0.04,0.18l0,0.5c0,0.07 0,0.13 0.04,0.18c0.02,0.06 0.05,0.11 0.1,0.15c0.04,0.04 0.09,0.08 0.15,0.1c0.06,0.02 0.12,0.04 0.18,0.04l0.03,0c0.1,0 0.19,-0.03 0.26,-0.08c0.08,-0.05 0.13,-0.12 0.17,-0.2c0,-0.01 0.01,-0.03 0.01,-0.05c0,-0.03 -0.01,-0.06 -0.04,-0.08c-0.02,-0.02 -0.05,-0.03 -0.08,-0.03c-0.02,0 -0.04,0 -0.06,0.02c-0.02,0.01 -0.03,0.03 -0.04,0.05c-0.02,0.04 -0.05,0.07 -0.09,0.1c-0.04,0.03 -0.08,0.04 -0.14,0.04l-0.03,0c-0.07,0 -0.12,-0.03 -0.17,-0.07c-0.05,-0.05 -0.07,-0.11 -0.07,-0.18l0,-0.15l0.64,0c0,0 0.06,-0.01 0.08,-0.03c0.02,-0.02 0.03,-0.05 0.03,-0.08l0,-0.24l0,0.02Zm-0.22,0.15l-0.53,0l0,-0.15c0,-0.07 0.03,-0.13 0.07,-0.18c0.05,-0.05 0.11,-0.07 0.18,-0.07l0.03,0c0.06,0 0.12,0.02 0.17,0.07c0.05,0.05 0.07,0.11 0.07,0.18l0,0.14l0.01,0.01Zm1.68,-0.15c0,-0.08 -0.01,-0.15 -0.04,-0.21c-0.03,-0.06 -0.06,-0.11 -0.1,-0.15c-0.04,-0.04 -0.09,-0.07 -0.15,-0.09c-0.05,-0.02 -0.12,-0.03 -0.18,-0.03l-0.03,0c0,0 -0.1,0 -0.14,0.02c-0.04,0.02 -0.08,0.04 -0.11,0.06c0,-0.03 -0.02,-0.05 -0.04,-0.07c-0.02,-0.01 -0.04,-0.02 -0.07,-0.02c-0.03,0 -0.06,0 -0.08,0.03c-0.02,0.02 -0.04,0.05 -0.04,0.08l0,1.22c0,0 0.01,0.06 0.04,0.08c0.02,0.02 0.05,0.03 0.08,0.03c0.03,0 0.05,0 0.08,-0.03c0.02,-0.02 0.04,-0.05 0.04,-0.08l0,-0.86c0,-0.07 0.02,-0.13 0.07,-0.18c0.05,-0.05 0.11,-0.07 0.18,-0.07l0.03,0c0.07,0 0.13,0.03 0.18,0.07c0.05,0.05 0.07,0.11 0.07,0.18l0,0.86c0,0 0,0.06 0.04,0.08c0.02,0.02 0.05,0.03 0.08,0.03c0.03,0 0.05,0 0.08,-0.03c0.02,-0.02 0.03,-0.05 0.03,-0.08l0,-0.86l-0.02,0.02Zm1.58,0.8c0,0 -0.04,-0.04 -0.07,-0.04c-0.05,0 -0.07,-0.04 -0.07,-0.1l0,-0.68c0,-0.06 -0.01,-0.12 -0.04,-0.18c-0.02,-0.05 -0.05,-0.1 -0.1,-0.14c-0.04,-0.04 -0.09,-0.07 -0.15,-0.1c-0.06,-0.02 -0.12,-0.04 -0.18,-0.04l-0.02,0c0,0 -0.08,0 -0.12,0.01c-0.04,0.01 -0.08,0.03 -0.12,0.04c-0.04,0.02 -0.07,0.05 -0.11,0.08c-0.04,0.04 -0.06,0.08 -0.09,0.13c0,0.01 -0.01,0.03 -0.01,0.05c0,0.03 0.01,0.06 0.04,0.08c0.02,0.02 0.05,0.03 0.08,0.03c0.02,0 0.04,0 0.06,-0.01c0.02,0 0.03,-0.03 0.04,-0.05c0.03,-0.05 0.06,-0.08 0.1,-0.11c0.04,-0.03 0.08,-0.04 0.14,-0.04l0.02,0c0.06,0 0.12,0.02 0.17,0.05c0.05,0.04 0.07,0.1 0.07,0.19l0,0.05c-0.01,0.02 -0.04,0.03 -0.08,0.04c-0.04,0 -0.09,0.02 -0.14,0.03c-0.06,0 -0.11,0.02 -0.17,0.04c-0.06,0.02 -0.12,0.04 -0.17,0.07c-0.05,0.03 -0.09,0.07 -0.12,0.12c-0.04,0.05 -0.05,0.11 -0.05,0.19l0,0.04c0,0.07 0.01,0.13 0.04,0.18c0.03,0.05 0.06,0.1 0.11,0.13c0.04,0.03 0.09,0.06 0.15,0.08c0.06,0.02 0.11,0.03 0.17,0.03l0.03,0c0.12,0 0.23,-0.04 0.32,-0.11c0.02,0.03 0.04,0.05 0.07,0.07c0.03,0.02 0.07,0.03 0.12,0.04l0.02,0c0.04,0 0.06,-0.01 0.08,-0.03c0.02,-0.02 0.03,-0.05 0.03,-0.08c0,-0.02 0,-0.05 -0.02,-0.07l-0.03,0.01Zm-0.37,-0.3c0,0.07 -0.03,0.13 -0.08,0.18c-0.05,0.05 -0.11,0.07 -0.18,0.07l-0.03,0c-0.07,0 -0.13,-0.02 -0.18,-0.05c-0.04,-0.04 -0.07,-0.09 -0.07,-0.15l0,-0.03c0,-0.05 0.02,-0.09 0.05,-0.12c0.03,-0.03 0.08,-0.05 0.13,-0.06c0.05,-0.02 0.11,-0.03 0.17,-0.04c0.06,0 0.12,-0.02 0.17,-0.03l0,0.23l0.02,0Zm1.56,-0.83c-0.04,-0.05 -0.08,-0.09 -0.13,-0.11c-0.06,-0.02 -0.11,-0.03 -0.17,-0.03l-0.1,0c-0.02,0 -0.05,0.01 -0.06,0.02c-0.02,0 -0.04,0.02 -0.05,0.03c0,-0.02 -0.02,-0.04 -0.04,-0.05c-0.02,0 -0.04,-0.01 -0.05,-0.01c-0.03,0 -0.05,0 -0.08,0.03c-0.03,0.02 -0.04,0.05 -0.04,0.08l0,1.22c0,0 0.01,0.07 0.04,0.09c0.02,0.02 0.05,0.03 0.08,0.03c0.03,0 0.05,0 0.07,-0.03c0.02,-0.02 0.04,-0.05 0.04,-0.09l0,-0.98c0,-0.02 0.01,-0.04 0.03,-0.06c0.01,-0.02 0.03,-0.03 0.06,-0.04c0.03,-0.01 0.06,-0.02 0.11,-0.02c0.04,0 0.06,0 0.08,0.02c0.02,0.02 0.04,0.03 0.05,0.04c0.03,0.03 0.06,0.04 0.09,0.04c0.03,0 0.05,-0.01 0.08,-0.03c0.02,-0.02 0.03,-0.04 0.03,-0.08c0,-0.02 0,-0.05 -0.03,-0.08l-0.01,0.01Zm1.45,0.33c0,-0.07 -0.01,-0.13 -0.04,-0.18c-0.03,-0.06 -0.06,-0.11 -0.1,-0.15c-0.04,-0.04 -0.09,-0.08 -0.15,-0.1c-0.06,-0.03 -0.12,-0.04 -0.19,-0.04l-0.02,0c-0.05,0 -0.1,0 -0.15,0.03c-0.04,0.01 -0.08,0.04 -0.11,0.07l0,-0.6c0,0 -0.01,-0.07 -0.04,-0.08c-0.02,-0.02 -0.05,-0.03 -0.07,-0.03c-0.03,0 -0.05,0 -0.08,0.03c-0.02,0.02 -0.04,0.05 -0.04,0.08l0,1.84c0,0 0.01,0.06 0.04,0.08c0.02,0.02 0.05,0.03 0.08,0.03c0.02,0 0.05,0 0.07,-0.02c0.02,-0.01 0.03,-0.04 0.04,-0.07c0.02,0.02 0.05,0.04 0.1,0.06c0.04,0.02 0.1,0.03 0.16,0.03l0.03,0c0.07,0 0.13,-0.01 0.18,-0.04c0.06,-0.03 0.11,-0.06 0.15,-0.1c0.04,-0.04 0.08,-0.09 0.1,-0.15c0.03,-0.05 0.04,-0.12 0.04,-0.18l0,-0.51Zm-0.22,0.5c0,0.07 -0.03,0.13 -0.07,0.17c-0.05,0.05 -0.11,0.07 -0.18,0.07l-0.03,0c-0.07,0 -0.12,-0.02 -0.17,-0.06c-0.05,-0.04 -0.08,-0.1 -0.08,-0.17l0,-0.54c0,-0.07 0.03,-0.12 0.08,-0.16c0.05,-0.04 0.11,-0.06 0.17,-0.06l0.03,0c0.07,0 0.13,0.03 0.18,0.07c0.05,0.05 0.07,0.11 0.07,0.18l0,0.5Zm1.68,-0.5c0,-0.07 -0.01,-0.13 -0.04,-0.19c-0.03,-0.06 -0.06,-0.11 -0.1,-0.15c-0.04,-0.04 -0.09,-0.08 -0.15,-0.1c-0.06,-0.02 -0.12,-0.04 -0.18,-0.04l-0.03,0c-0.06,0 -0.12,0.01 -0.18,0.04c-0.06,0.02 -0.11,0.06 -0.15,0.1c-0.04,0.04 -0.08,0.09 -0.1,0.15c-0.03,0.06 -0.04,0.12 -0.04,0.18l0,0.5c0,0.07 0.01,0.13 0.04,0.18c0.02,0.06 0.06,0.11 0.1,0.15c0.04,0.04 0.09,0.08 0.15,0.1c0.06,0.02 0.12,0.04 0.18,0.04l0.03,0c0.1,0 0.19,-0.03 0.26,-0.08c0.07,-0.05 0.13,-0.12 0.16,-0.2c0,-0.01 0.01,-0.03 0.01,-0.05c0,-0.03 -0.01,-0.06 -0.04,-0.08c-0.02,-0.02 -0.05,-0.03 -0.08,-0.03c-0.02,0 -0.04,0 -0.05,0.02c-0.02,0.01 -0.03,0.03 -0.04,0.05c-0.02,0.04 -0.05,0.07 -0.09,0.1c-0.04,0.03 -0.08,0.04 -0.14,0.04l-0.03,0c-0.07,0 -0.13,-0.03 -0.18,-0.07c-0.05,-0.05 -0.07,-0.11 -0.07,-0.18l0,-0.15l0.64,0c0,0 0.06,-0.01 0.08,-0.03c0.02,-0.02 0.03,-0.05 0.03,-0.08l0,-0.24l0.01,0.02Zm-0.22,0.15l-0.53,0l0,-0.15c0,-0.07 0.03,-0.13 0.08,-0.18c0.05,-0.05 0.11,-0.07 0.18,-0.07l0.03,0c0.06,0 0.12,0.02 0.17,0.07c0.05,0.05 0.07,0.11 0.07,0.18l0,0.15Zm0.95,-1.12c0,0 -0.01,-0.07 -0.04,-0.08c-0.02,-0.02 -0.05,-0.03 -0.07,-0.03c-0.02,0 -0.05,0 -0.08,0.03c-0.02,0.02 -0.03,0.05 -0.03,0.08l0,0.07c0,0 0.01,0.06 0.03,0.08c0.03,0.02 0.05,0.03 0.08,0.03c0.03,0 0.05,0 0.07,-0.03c0.02,-0.02 0.04,-0.05 0.04,-0.08l0,-0.07Zm0,0.61c0,0 -0.01,-0.06 -0.04,-0.08c-0.02,-0.02 -0.05,-0.03 -0.07,-0.03c-0.02,0 -0.05,0 -0.08,0.03c-0.02,0.02 -0.03,0.05 -0.03,0.08l0,1.22c0,0 0.01,0.06 0.03,0.08c0.03,0.02 0.05,0.03 0.08,0.03c0.03,0 0.05,0 0.07,-0.03c0.02,-0.02 0.04,-0.05 0.04,-0.08l0,-1.22Zm1.16,1.15c0,0 -0.04,-0.04 -0.08,-0.04c-0.04,0 -0.08,-0.02 -0.12,-0.05c-0.04,-0.03 -0.05,-0.07 -0.05,-0.12l0,-0.82l0.16,0c0,0 0.07,-0.01 0.08,-0.04c0.02,-0.02 0.03,-0.05 0.03,-0.08c0,-0.03 0,-0.05 -0.03,-0.07c-0.02,-0.03 -0.05,-0.04 -0.08,-0.04l-0.16,0l0,-0.51c0,0 -0.01,-0.07 -0.04,-0.08c-0.02,-0.02 -0.05,-0.03 -0.08,-0.03c-0.03,0 -0.05,0 -0.08,0.03c-0.02,0.02 -0.04,0.05 -0.04,0.08l-0,0.51l-0.1,0c0,0 -0.06,0.01 -0.08,0.04c-0.02,0.02 -0.03,0.05 -0.03,0.07c-0,0.02 -0,0.05 0.03,0.08c0.02,0.02 0.05,0.04 0.08,0.04l0.1,0l-0,0.83c-0,0.05 -0,0.1 0.03,0.15c0.02,0.05 0.05,0.09 0.08,0.12c0.04,0.03 0.08,0.06 0.12,0.08c0.04,0.02 0.1,0.03 0.15,0.03c0.04,0 0.07,-0.01 0.08,-0.03c0.02,-0.02 0.03,-0.05 0.03,-0.08c0,-0.03 0,-0.05 -0.03,-0.08l0.03,0.01Zm1.66,0.14c-0.05,-0.07 -0.09,-0.16 -0.12,-0.25c-0.04,-0.1 -0.06,-0.2 -0.09,-0.32c-0.02,-0.11 -0.03,-0.23 -0.03,-0.36c0,-0.13 0,-0.24 0.03,-0.35c0.02,-0.11 0.05,-0.22 0.09,-0.31c0.04,-0.1 0.07,-0.18 0.12,-0.26c0.04,-0.08 0.09,-0.14 0.14,-0.19c0.02,-0.02 0.03,-0.05 0.03,-0.07c0,-0.02 -0.01,-0.05 -0.04,-0.07c-0.03,-0.02 -0.05,-0.03 -0.08,-0.03c-0.03,0 -0.05,0.01 -0.08,0.04c-0.06,0.06 -0.12,0.14 -0.17,0.23c-0.05,0.09 -0.1,0.19 -0.14,0.29c-0.04,0.11 -0.07,0.22 -0.09,0.35c-0.02,0.12 -0.04,0.25 -0.04,0.38c0,0.13 0.01,0.27 0.04,0.39c0.03,0.12 0.05,0.24 0.1,0.35c0.04,0.11 0.09,0.21 0.14,0.29c0.05,0.09 0.11,0.16 0.17,0.22c0.02,0.02 0.05,0.04 0.07,0.04c0.03,0 0.05,-0.01 0.08,-0.04c0.03,-0.02 0.04,-0.04 0.04,-0.07c-0,-0.03 -0,-0.05 -0.03,-0.07c-0.05,-0.05 -0.1,-0.11 -0.15,-0.19l0.01,0Zm1.67,-0.97c0,0 -0.01,-0.05 -0.04,-0.08c-0.02,-0.02 -0.05,-0.03 -0.07,-0.03l-0.42,0c0,0 -0.06,0.01 -0.08,0.03c-0.02,0.02 -0.03,0.05 -0.03,0.08c0,0.03 0,0.05 0.03,0.08c0.02,0.02 0.05,0.03 0.08,0.03l0.31,0l0,0.34c0,0 0,0.09 -0.03,0.13c-0.02,0.04 -0.04,0.07 -0.07,0.11c-0.03,0.03 -0.06,0.05 -0.11,0.07c-0.04,0.02 -0.08,0.03 -0.13,0.03l-0.03,0c0,0 -0.09,0 -0.13,-0.03c-0.04,-0.02 -0.08,-0.04 -0.11,-0.07c-0.03,-0.03 -0.05,-0.07 -0.07,-0.11c-0.02,-0.04 -0.03,-0.08 -0.03,-0.13l0,-0.95c0,0 0,-0.09 0.03,-0.13c0.02,-0.04 0.04,-0.07 0.07,-0.1c0.03,-0.03 0.07,-0.06 0.11,-0.07c0.04,-0.02 0.08,-0.02 0.13,-0.02l0.03,0c0.1,0 0.17,0.02 0.23,0.08c0.05,0.05 0.09,0.12 0.11,0.21c0,0.03 0.02,0.06 0.04,0.07c0.02,0.01 0.04,0.02 0.07,0.02c0.03,0 0.05,0 0.07,-0.03c0.03,-0.02 0.04,-0.05 0.04,-0.08l0,-0.02c-0.01,-0.07 -0.03,-0.13 -0.06,-0.19c-0.03,-0.06 -0.07,-0.11 -0.12,-0.15c-0.05,-0.04 -0.11,-0.07 -0.17,-0.1c-0.06,-0.02 -0.13,-0.04 -0.2,-0.04l-0.03,0c-0.07,0 -0.15,0.02 -0.21,0.04c-0.07,0.03 -0.13,0.07 -0.18,0.12c-0.05,0.05 -0.09,0.11 -0.12,0.18c-0.03,0.07 -0.04,0.14 -0.04,0.22l0,0.95c0,0.08 0.01,0.15 0.04,0.22c0.03,0.07 0.07,0.13 0.12,0.17c0.05,0.05 0.11,0.09 0.18,0.12c0.07,0.03 0.14,0.04 0.21,0.04l0.03,0c0.08,0 0.15,-0.01 0.22,-0.04c0.07,-0.03 0.13,-0.07 0.18,-0.12c0.05,-0.05 0.09,-0.11 0.12,-0.17c0.03,-0.07 0.04,-0.14 0.04,-0.22l0,-0.46l-0.01,0Zm0.81,-0.94c0,0 -0.01,-0.07 -0.04,-0.08c-0.02,-0.02 -0.05,-0.03 -0.08,-0.03c-0.03,0 -0.05,0 -0.08,0.03c-0.02,0.02 -0.03,0.05 -0.03,0.08l0,1.84c0,0 0,0.06 0.03,0.08c0.02,0.02 0.05,0.03 0.08,0.03c0.03,0 0.05,0 0.08,-0.03c0.02,-0.02 0.04,-0.05 0.04,-0.08l0,-1.84Zm1.63,1.74c0,0 -0.05,-0.04 -0.08,-0.04l-0.74,0l0.83,-1.6c0,0 0.02,-0.05 0.02,-0.08c0,-0.04 -0.01,-0.07 -0.04,-0.09c-0.03,-0.02 -0.06,-0.04 -0.1,-0.04l-0.84,0c0,0 -0.07,0 -0.08,0.04c-0.02,0.02 -0.03,0.05 -0.03,0.08c0,0.03 0,0.05 0.03,0.08c0.02,0.02 0.05,0.03 0.08,0.03l0.69,0l-0.83,1.59c0,0 -0.02,0.04 -0.02,0.07c0,0.04 0,0.07 0.03,0.1c0.02,0.03 0.05,0.04 0.1,0.04l0.88,0c0,0 0.06,0 0.08,-0.04c0.02,-0.02 0.03,-0.05 0.03,-0.08c0,-0.03 0,-0.05 -0.03,-0.08l0.02,0.02Zm1.01,-1.15c-0.02,-0.12 -0.05,-0.24 -0.09,-0.35c-0.04,-0.11 -0.09,-0.21 -0.14,-0.29c-0.05,-0.09 -0.11,-0.17 -0.17,-0.23c-0.02,-0.02 -0.05,-0.04 -0.08,-0.04c-0.02,0 -0.05,0.01 -0.08,0.03c-0.02,0.02 -0.04,0.05 -0.04,0.07c0,0.02 0,0.05 0.03,0.07c0.05,0.05 0.1,0.11 0.15,0.19c0.04,0.08 0.09,0.16 0.12,0.26c0.04,0.09 0.06,0.2 0.08,0.31c0.02,0.11 0.03,0.23 0.03,0.35c0,0.12 0,0.24 -0.03,0.36c-0.02,0.11 -0.05,0.22 -0.09,0.32c-0.04,0.09 -0.08,0.18 -0.12,0.25c-0.05,0.08 -0.1,0.14 -0.15,0.19c-0.02,0.02 -0.03,0.05 -0.03,0.07c0,0.03 0.01,0.05 0.04,0.08c0.02,0.02 0.05,0.04 0.08,0.04c0.03,0 0.05,-0.01 0.07,-0.04c0.06,-0.06 0.12,-0.13 0.18,-0.22c0.05,-0.09 0.1,-0.19 0.14,-0.29c0.04,-0.11 0.07,-0.23 0.09,-0.35c0.03,-0.12 0.04,-0.26 0.04,-0.39c0,-0.13 -0.01,-0.26 -0.04,-0.38l0.01,-0.01Zm2.32,0.34c0,0 -0.01,-0.05 -0.04,-0.08c-0.02,-0.02 -0.05,-0.03 -0.08,-0.03l-0.42,0c0,0 -0.06,0.01 -0.08,0.03c-0.02,0.02 -0.03,0.05 -0.03,0.08c0,0.03 0,0.05 0.03,0.08c0.02,0.02 0.05,0.03 0.08,0.03l0.31,0l0,0.34c0,0 0,0.09 -0.03,0.13c-0.02,0.04 -0.04,0.07 -0.07,0.11c-0.03,0.03 -0.07,0.05 -0.11,0.07c-0.04,0.02 -0.08,0.03 -0.13,0.03l-0.03,0c0,0 -0.09,0 -0.13,-0.03c-0.04,-0.02 -0.08,-0.04 -0.11,-0.07c-0.03,-0.03 -0.05,-0.07 -0.07,-0.11c-0.02,-0.04 -0.03,-0.08 -0.03,-0.13l0,-0.95c0,0 0,-0.09 0.03,-0.13c0.02,-0.04 0.04,-0.07 0.07,-0.1c0.03,-0.03 0.06,-0.06 0.11,-0.07c0.04,-0.02 0.08,-0.02 0.13,-0.02l0.03,0c0.09,0 0.17,0.02 0.22,0.08c0.06,0.05 0.09,0.12 0.11,0.21c0,0.03 0.02,0.06 0.04,0.07c0.02,0.01 0.04,0.02 0.07,0.02c0.03,0 0.05,0 0.08,-0.03c0.02,-0.02 0.04,-0.05 0.04,-0.08l0,-0.02c0,-0.07 -0.03,-0.13 -0.06,-0.19c-0.03,-0.06 -0.07,-0.11 -0.12,-0.15c-0.05,-0.04 -0.11,-0.07 -0.17,-0.1c-0.06,-0.02 -0.13,-0.04 -0.2,-0.04l-0.03,0c-0.08,0 -0.15,0.02 -0.21,0.04c-0.07,0.03 -0.13,0.07 -0.18,0.12c-0.05,0.05 -0.09,0.11 -0.12,0.18c-0.03,0.07 -0.04,0.14 -0.04,0.22l0,0.95c0,0.08 0.01,0.15 0.04,0.22c0.03,0.07 0.07,0.13 0.12,0.17c0.05,0.05 0.11,0.09 0.18,0.12c0.07,0.03 0.14,0.04 0.21,0.04l0.03,0c0.07,0 0.15,-0.01 0.21,-0.04c0.07,-0.03 0.13,-0.07 0.18,-0.12c0.05,-0.05 0.09,-0.11 0.12,-0.17c0.03,-0.07 0.04,-0.14 0.04,-0.22l0,-0.46l0.01,0Zm2.26,0.03c0,-0.08 0,-0.15 -0.04,-0.21c-0.03,-0.06 -0.06,-0.11 -0.1,-0.15c-0.04,-0.04 -0.09,-0.07 -0.15,-0.08c-0.06,-0.02 -0.12,-0.03 -0.18,-0.03l-0.02,0c-0.08,0 -0.14,0.01 -0.21,0.04c-0.06,0.03 -0.11,0.07 -0.16,0.12c-0.05,-0.05 -0.1,-0.09 -0.16,-0.12c-0.06,-0.03 -0.13,-0.04 -0.21,-0.04l-0.03,0c0,0 -0.1,0 -0.14,0.02c-0.04,0.02 -0.08,0.04 -0.11,0.06c0,-0.03 -0.02,-0.05 -0.04,-0.07c-0.02,-0.01 -0.04,-0.02 -0.07,-0.02c-0.03,0 -0.06,0 -0.08,0.03c-0.02,0.02 -0.03,0.05 -0.03,0.08l0,1.22c0,0 0,0.06 0.03,0.08c0.02,0.02 0.05,0.03 0.08,0.03c0.03,0 0.05,0 0.08,-0.03c0.02,-0.02 0.03,-0.05 0.03,-0.08l0,-0.89c0,-0.07 0.03,-0.12 0.08,-0.16c0.05,-0.04 0.11,-0.06 0.18,-0.06l0.03,0c0.07,0 0.13,0.02 0.18,0.07c0.05,0.05 0.07,0.11 0.07,0.18l0,0.86c0,0 0.01,0.07 0.04,0.09c0.02,0.02 0.05,0.03 0.08,0.03c0.03,0 0.05,0 0.07,-0.03c0.03,-0.02 0.04,-0.05 0.04,-0.09l0,-0.86c0,-0.07 0.02,-0.13 0.07,-0.18c0.05,-0.05 0.11,-0.07 0.18,-0.07l0.02,0c0.07,0 0.13,0.02 0.18,0.06c0.05,0.04 0.07,0.1 0.07,0.18l0,0.87c0,0 0.01,0.06 0.04,0.08c0.02,0.02 0.05,0.03 0.07,0.03c0.03,0 0.05,0 0.08,-0.03c0.02,-0.02 0.03,-0.05 0.03,-0.08l0,-0.87l0,0.02Zm1.52,0c0,-0.07 -0.01,-0.13 -0.04,-0.18c-0.03,-0.06 -0.06,-0.11 -0.1,-0.15c-0.04,-0.04 -0.09,-0.08 -0.15,-0.1c-0.06,-0.03 -0.12,-0.04 -0.19,-0.04l-0.02,0c0,0 -0.1,0 -0.15,0.03c-0.04,0.01 -0.08,0.04 -0.11,0.07l0,-0.6c0,0 -0.01,-0.07 -0.04,-0.08c-0.02,-0.02 -0.05,-0.03 -0.08,-0.03c-0.03,0 -0.05,0 -0.08,0.03c-0.02,0.02 -0.03,0.05 -0.03,0.08l-0,1.84c-0,0 0.01,0.06 0.03,0.08c0.03,0.02 0.05,0.03 0.08,0.03c0.03,0 0.05,0 0.07,-0.02c0.02,-0.01 0.03,-0.04 0.04,-0.07c0.02,0.02 0.05,0.04 0.09,0.06c0.04,0.02 0.09,0.03 0.16,0.03l0.03,0c0.06,0 0.12,-0.01 0.18,-0.04c0.06,-0.03 0.11,-0.06 0.15,-0.1c0.04,-0.04 0.08,-0.09 0.1,-0.15c0.03,-0.05 0.04,-0.12 0.04,-0.18l-0,-0.5l0.02,-0.01Zm-0.22,0.5c0,0.07 -0.02,0.13 -0.07,0.17c-0.05,0.05 -0.11,0.07 -0.18,0.07l-0.03,0c-0.07,0 -0.12,-0.02 -0.18,-0.06c-0.05,-0.04 -0.07,-0.1 -0.07,-0.17l0,-0.54c0,-0.07 0.03,-0.12 0.07,-0.16c0.05,-0.04 0.11,-0.06 0.18,-0.06l0.03,0c0.07,0 0.13,0.03 0.18,0.07c0.05,0.05 0.07,0.11 0.07,0.18l0,0.5Zm1.91,-1.47c0,0 -0.01,-0.07 -0.03,-0.08c-0.02,-0.02 -0.05,-0.03 -0.08,-0.03c-0.03,0 -0.05,0 -0.08,0.03c-0.02,0.02 -0.04,0.05 -0.04,0.08l-0,0.77l-0.69,0l-0,-0.77c-0,0 -0.01,-0.07 -0.04,-0.08c-0.02,-0.02 -0.05,-0.03 -0.08,-0.03c-0.03,0 -0.05,0 -0.08,0.03c-0.02,0.02 -0.04,0.05 -0.04,0.08l-0,1.84c-0,0 0.01,0.06 0.04,0.08c0.02,0.02 0.05,0.03 0.08,0.03c0.03,0 0.05,0 0.08,-0.03c0.02,-0.02 0.04,-0.05 0.04,-0.08l-0,-0.84l0.69,0l-0,0.84c-0,0 0.01,0.07 0.04,0.08c0.03,0.02 0.05,0.03 0.08,0.03c0.03,0 0.05,0 0.08,-0.03c0.02,-0.02 0.03,-0.04 0.03,-0.08l0,-1.84Z" style="fill:#d71d24;fill-rule:nonzero;"/><path d="M21.8,33.49c0,0 -0.04,-0.04 -0.08,-0.04c-0.05,0 -0.11,0 -0.15,0.03c-0.05,0.02 -0.09,0.05 -0.12,0.08c-0.03,0.03 -0.06,0.07 -0.08,0.12c-0.02,0.05 -0.03,0.1 -0.03,0.15l-0,0.23l-0.06,0c-0,0 -0.06,0.01 -0.08,0.04c-0.02,0.02 -0.03,0.05 -0.03,0.08c-0,0.03 -0,0.05 0.03,0.08c0.02,0.02 0.04,0.03 0.08,0.03l0.06,0l-0,1.1c-0,0 0.01,0.07 0.03,0.08c0.03,0.02 0.05,0.02 0.08,0.02c0.03,0 0.05,0 0.08,-0.02c0.02,-0.02 0.04,-0.04 0.04,-0.08l-0,-1.1l0.14,0c-0,0 0.06,-0.01 0.08,-0.03c0.02,-0.02 0.03,-0.05 0.03,-0.08c-0,-0.03 -0,-0.05 -0.03,-0.08c-0.02,-0.02 -0.04,-0.04 -0.08,-0.04l-0.14,0l-0,-0.23c-0,0 0.02,-0.08 0.04,-0.12c0.03,-0.03 0.07,-0.05 0.12,-0.05c0.04,0 0.06,-0.01 0.08,-0.03c0.02,-0.02 0.03,-0.05 0.03,-0.08c0,-0.03 0,-0.05 -0.03,-0.08l-0.01,0.02Zm1.3,0.08c0,0 -0.01,-0.06 -0.04,-0.08c-0.02,-0.02 -0.05,-0.03 -0.08,-0.03c-0.03,0 -0.05,0 -0.07,0.03c-0.02,0.02 -0.04,0.05 -0.04,0.08l0,0.06c0,0 0.01,0.06 0.04,0.08c0.02,0.02 0.05,0.03 0.08,0.03c0.03,0 0.05,-0.01 0.07,-0.03c0.03,-0.02 0.04,-0.05 0.04,-0.08l0,-0.06Zm-0.54,0c0,0 -0.01,-0.06 -0.04,-0.08c-0.02,-0.02 -0.05,-0.03 -0.08,-0.03c-0.03,0 -0.05,0 -0.08,0.03c-0.02,0.02 -0.04,0.05 -0.04,0.08l0,0.06c0,0 0.01,0.06 0.04,0.08c0.02,0.02 0.05,0.03 0.08,0.03c0.03,0 0.05,-0.01 0.08,-0.03c0.02,-0.02 0.04,-0.05 0.04,-0.08l0,-0.06Zm0.65,0.61c0,0 -0.01,-0.06 -0.03,-0.08c-0.02,-0.02 -0.05,-0.03 -0.08,-0.03c-0.03,0 -0.05,0 -0.08,0.03c-0.02,0.02 -0.03,0.04 -0.03,0.08l0,0.86c0,0.07 -0.03,0.13 -0.07,0.18c-0.05,0.05 -0.11,0.07 -0.18,0.07l-0.03,0c-0.07,0 -0.12,-0.03 -0.17,-0.07c-0.05,-0.05 -0.07,-0.11 -0.07,-0.18l0,-0.86c0,0 0,-0.06 -0.04,-0.08c-0.02,-0.02 -0.05,-0.03 -0.08,-0.03c-0.03,0 -0.05,0 -0.08,0.03c-0.02,0.02 -0.03,0.04 -0.03,0.08l0,0.86c0,0.08 0.01,0.15 0.04,0.21c0.03,0.06 0.06,0.11 0.1,0.14c0.04,0.04 0.09,0.07 0.15,0.08c0.06,0.02 0.12,0.03 0.18,0.03l0.03,0c0.05,0 0.1,0 0.14,-0.02c0.04,-0.01 0.08,-0.04 0.11,-0.06c0,0.03 0.02,0.05 0.04,0.06c0.02,0.01 0.04,0.02 0.07,0.02c0.03,0 0.05,0 0.08,-0.03c0.02,-0.02 0.03,-0.04 0.03,-0.08l0,-1.22l0,0.01Zm1.25,0.03c-0.04,-0.05 -0.08,-0.09 -0.14,-0.11c-0.05,-0.02 -0.11,-0.04 -0.17,-0.04l-0.1,0c-0.02,0 -0.05,0.01 -0.06,0.02c-0.02,0 -0.04,0.02 -0.05,0.03c-0.01,-0.02 -0.03,-0.04 -0.04,-0.04c-0.02,0 -0.04,-0.01 -0.06,-0.01c-0.03,0 -0.05,0.01 -0.08,0.03c-0.03,0.02 -0.04,0.05 -0.04,0.08l0,1.22c0,0 0,0.07 0.03,0.08c0.02,0.02 0.05,0.03 0.08,0.03c0.03,0 0.05,0 0.07,-0.03c0.03,-0.02 0.04,-0.05 0.04,-0.08l0,-0.98c0,-0.02 0.01,-0.04 0.03,-0.06c0.01,-0.02 0.03,-0.04 0.06,-0.04c0.02,-0.01 0.06,-0.02 0.1,-0.02c0.04,0 0.07,0 0.09,0.02c0.02,0.01 0.04,0.03 0.05,0.04c0.03,0.03 0.06,0.04 0.09,0.04c0.03,0 0.05,0 0.08,-0.03c0.02,-0.02 0.03,-0.05 0.03,-0.08c0,-0.02 0,-0.05 -0.03,-0.08l0.02,0.01Zm1.67,-0.64c0,0 -0.01,-0.06 -0.04,-0.08c-0.02,-0.02 -0.05,-0.03 -0.08,-0.03c-0.03,0 -0.05,0 -0.08,0.03c-0.02,0.02 -0.03,0.05 -0.03,0.08l0,1.84c0,0 0.01,0.07 0.03,0.08c0.03,0.02 0.05,0.02 0.08,0.02c0.03,0 0.05,0 0.08,-0.02c0.02,-0.02 0.04,-0.04 0.04,-0.08l0,-1.84Zm1.57,0.97c0,-0.08 -0.02,-0.15 -0.04,-0.21c-0.03,-0.06 -0.06,-0.11 -0.1,-0.15c-0.04,-0.04 -0.09,-0.07 -0.15,-0.09c-0.06,-0.02 -0.12,-0.03 -0.18,-0.03l-0.03,0c-0.05,0 -0.1,0 -0.14,0.02c-0.04,0.02 -0.08,0.04 -0.11,0.07c0,-0.03 -0.02,-0.05 -0.04,-0.07c-0.02,-0.02 -0.05,-0.02 -0.07,-0.02c-0.03,0 -0.06,0.01 -0.08,0.03c-0.02,0.02 -0.04,0.05 -0.04,0.08l0,1.22c0,0 0.01,0.07 0.04,0.08c0.02,0.02 0.05,0.02 0.08,0.02c0.02,0 0.05,0 0.08,-0.02c0.02,-0.02 0.03,-0.04 0.03,-0.08l0,-0.86c0,-0.07 0.03,-0.13 0.08,-0.18c0.05,-0.05 0.11,-0.07 0.17,-0.07l0.03,0c0.07,0 0.13,0.03 0.18,0.08c0.05,0.05 0.07,0.11 0.07,0.17l0,0.86c0,0 0.01,0.07 0.04,0.08c0.02,0.02 0.05,0.02 0.07,0.02c0.03,0 0.05,0 0.08,-0.02c0.02,-0.02 0.04,-0.04 0.04,-0.08l0,-0.86l-0.01,0.01Zm1.1,0.79c0,0 -0.04,-0.03 -0.08,-0.04c-0.04,0 -0.08,-0.02 -0.12,-0.05c-0.04,-0.03 -0.05,-0.07 -0.05,-0.12l-0,-0.82l0.16,0c-0,0 0.06,-0.01 0.08,-0.03c0.02,-0.02 0.03,-0.05 0.03,-0.08c0,-0.03 0,-0.05 -0.03,-0.08c-0.02,-0.02 -0.04,-0.04 -0.08,-0.04l-0.16,0l-0,-0.51c-0,0 -0.01,-0.06 -0.04,-0.08c-0.02,-0.02 -0.05,-0.03 -0.07,-0.03c-0.03,0 -0.05,0 -0.08,0.03c-0.02,0.02 -0.04,0.05 -0.04,0.08l-0,0.51l-0.1,0c0,0 -0.07,0.01 -0.08,0.04c-0.02,0.02 -0.03,0.05 -0.03,0.08c-0,0.03 -0,0.05 0.03,0.08c0.02,0.02 0.05,0.03 0.08,0.03l0.1,0l-0,0.83c-0,0.05 -0,0.1 0.03,0.15c0.02,0.05 0.05,0.09 0.08,0.12c0.03,0.04 0.07,0.06 0.12,0.08c0.05,0.02 0.1,0.03 0.15,0.03c0.04,0 0.07,0 0.09,-0.03c0.02,-0.02 0.03,-0.05 0.03,-0.07c0,-0.03 0,-0.05 -0.03,-0.07l0.01,-0.01Zm1.4,-0.79c0,-0.07 -0.01,-0.13 -0.04,-0.19c-0.02,-0.06 -0.06,-0.11 -0.1,-0.15c-0.04,-0.04 -0.09,-0.08 -0.15,-0.1c-0.06,-0.02 -0.12,-0.04 -0.18,-0.04l-0.03,0c-0.06,0 -0.13,0.01 -0.18,0.04c-0.06,0.03 -0.11,0.06 -0.15,0.1c-0.04,0.04 -0.07,0.09 -0.1,0.15c-0.03,0.06 -0.04,0.12 -0.04,0.18l0,0.5c0,0.07 0.01,0.13 0.04,0.19c0.03,0.06 0.06,0.11 0.1,0.15c0.04,0.04 0.09,0.08 0.15,0.1c0.06,0.02 0.12,0.04 0.18,0.04l0.03,0c0.1,0 0.19,-0.02 0.26,-0.08c0.07,-0.05 0.13,-0.12 0.17,-0.2l-0,-0.05c-0,-0.03 -0,-0.06 -0.04,-0.08c-0.02,-0.02 -0.05,-0.03 -0.08,-0.03c-0.02,0 -0.04,0 -0.05,0.01c-0.02,0.01 -0.03,0.03 -0.04,0.06c-0.02,0.04 -0.05,0.08 -0.09,0.11c-0.04,0.03 -0.08,0.04 -0.14,0.04l-0.03,0c-0.07,0 -0.13,-0.03 -0.18,-0.07c-0.05,-0.05 -0.07,-0.11 -0.07,-0.18l-0,-0.15l0.64,0c-0,0 0.06,-0.01 0.08,-0.03c0.02,-0.02 0.03,-0.05 0.03,-0.08l-0,-0.24l0.01,0Zm-0.22,0.15l-0.53,0l0,-0.15c0,-0.07 0.03,-0.13 0.07,-0.18c0.05,-0.05 0.11,-0.07 0.18,-0.07l0.03,0c0.06,0 0.12,0.03 0.17,0.07c0.05,0.04 0.07,0.11 0.07,0.18l-0,0.15l0.01,0Zm1.42,-0.48c-0.04,-0.05 -0.08,-0.09 -0.13,-0.11c-0.06,-0.02 -0.11,-0.04 -0.17,-0.04l-0.1,0c-0.03,0 -0.05,0.01 -0.07,0.02c-0.02,0 -0.04,0.02 -0.05,0.03c0,-0.02 -0.02,-0.04 -0.04,-0.04c-0.02,0 -0.04,-0.01 -0.05,-0.01c-0.03,0 -0.05,0.01 -0.08,0.03c-0.02,0.02 -0.04,0.05 -0.04,0.08l0,1.22c0,0 0.01,0.07 0.04,0.08c0.02,0.02 0.05,0.03 0.08,0.03c0.03,0 0.05,0 0.08,-0.03c0.02,-0.02 0.04,-0.05 0.04,-0.08l0,-0.98c0,-0.02 0.01,-0.04 0.03,-0.06c0.01,-0.02 0.03,-0.04 0.06,-0.04c0.02,-0.01 0.06,-0.02 0.11,-0.02c0.04,0 0.06,0 0.09,0.02c0.02,0.01 0.04,0.03 0.05,0.04c0.03,0.03 0.06,0.04 0.09,0.04c0.03,0 0.05,0 0.08,-0.03c0.02,-0.02 0.03,-0.05 0.03,-0.08c0,-0.02 0,-0.05 -0.03,-0.08l-0.02,0.01Zm1.38,0.33c0,-0.08 -0.01,-0.15 -0.04,-0.21c-0.03,-0.06 -0.06,-0.11 -0.1,-0.15c-0.04,-0.04 -0.09,-0.07 -0.15,-0.09c-0.06,-0.02 -0.12,-0.03 -0.18,-0.03l-0.03,0c-0.05,0 -0.1,0 -0.14,0.02c-0.04,0.02 -0.08,0.04 -0.11,0.07c0,-0.03 -0.02,-0.05 -0.04,-0.07c-0.02,-0.02 -0.04,-0.02 -0.07,-0.02c-0.03,0 -0.06,0.01 -0.08,0.03c-0.03,0.02 -0.04,0.05 -0.04,0.08l0,1.22c0,0 0,0.07 0.04,0.08c0.02,0.02 0.05,0.02 0.08,0.02c0.03,0 0.05,0 0.08,-0.02c0.02,-0.02 0.04,-0.04 0.04,-0.08l0,-0.86c0,-0.07 0.02,-0.13 0.07,-0.18c0.05,-0.05 0.11,-0.07 0.18,-0.07l0.03,0c0.07,0 0.13,0.03 0.18,0.08c0.05,0.05 0.07,0.11 0.07,0.17l0,0.86c0,0 0,0.07 0.03,0.08c0.02,0.02 0.05,0.02 0.08,0.02c0.03,0 0.05,0 0.08,-0.02c0.02,-0.02 0.04,-0.04 0.04,-0.08l0,-0.86l-0.02,0.01Zm1.58,0.79c0,0 -0.04,-0.04 -0.07,-0.04c-0.05,-0.01 -0.08,-0.04 -0.08,-0.1l0,-0.68c0,-0.06 -0.01,-0.12 -0.04,-0.17c-0.03,-0.05 -0.05,-0.1 -0.1,-0.15c-0.04,-0.04 -0.09,-0.07 -0.15,-0.1c-0.06,-0.02 -0.12,-0.04 -0.18,-0.04l-0.02,0c0,0 -0.08,0 -0.12,0.01c-0.04,0 -0.08,0.02 -0.12,0.04c-0.04,0.02 -0.08,0.05 -0.11,0.08c-0.04,0.04 -0.06,0.08 -0.09,0.13c-0,0.01 -0.01,0.03 -0.01,0.05c-0,0.03 0.01,0.05 0.04,0.08c0.02,0.02 0.05,0.03 0.07,0.03c0.02,0 0.04,0 0.05,-0.01c0.02,0 0.03,-0.02 0.04,-0.05c0.03,-0.05 0.06,-0.08 0.09,-0.11c0.04,-0.02 0.08,-0.04 0.14,-0.04l0.02,0c0.06,0 0.12,0.02 0.17,0.05c0.04,0.04 0.07,0.09 0.07,0.18l-0,0.05c-0.01,0.01 -0.04,0.03 -0.08,0.04c-0.04,0 -0.09,0.02 -0.15,0.03c-0.05,0 -0.11,0.02 -0.17,0.04c-0.06,0.01 -0.12,0.04 -0.17,0.07c-0.05,0.03 -0.09,0.07 -0.12,0.12c-0.04,0.05 -0.05,0.11 -0.05,0.19l-0,0.04c-0,0.07 0.01,0.13 0.04,0.18c0.03,0.05 0.06,0.1 0.11,0.13c0.04,0.03 0.1,0.06 0.15,0.08c0.05,0.02 0.11,0.02 0.17,0.02l0.03,0c0.12,0 0.23,-0.04 0.32,-0.11c0.02,0.03 0.04,0.05 0.07,0.07c0.03,0.02 0.07,0.03 0.12,0.04l0.02,0c0.04,0 0.06,0 0.08,-0.03c0.02,-0.02 0.03,-0.05 0.03,-0.08c-0,-0.02 -0,-0.05 -0.02,-0.07l0.02,0.03Zm-0.37,-0.29c0,0.07 -0.03,0.13 -0.07,0.18c-0.05,0.05 -0.11,0.07 -0.18,0.07l-0.03,0c-0.07,0 -0.13,-0.02 -0.18,-0.06c-0.05,-0.04 -0.07,-0.09 -0.07,-0.15l0,-0.03c0,0 0.02,-0.09 0.05,-0.12c0.03,-0.03 0.08,-0.05 0.13,-0.06c0.05,-0.02 0.11,-0.03 0.17,-0.04c0.06,0 0.12,-0.02 0.17,-0.03l-0,0.23l0.01,0.01Zm1.36,0.29c0,0 -0.04,-0.03 -0.08,-0.04c-0.04,0 -0.09,-0.02 -0.12,-0.05c-0.03,-0.03 -0.05,-0.07 -0.05,-0.12l-0,-0.82l0.16,0c-0,0 0.06,-0.01 0.08,-0.03c0.02,-0.02 0.03,-0.05 0.03,-0.08c-0,-0.03 -0,-0.05 -0.03,-0.08c-0.02,-0.02 -0.04,-0.04 -0.08,-0.04l-0.16,0l-0,-0.51c-0,0 -0,-0.06 -0.04,-0.08c-0.02,-0.02 -0.05,-0.03 -0.08,-0.03c-0.03,0 -0.05,0 -0.08,0.03c-0.02,0.02 -0.03,0.05 -0.03,0.08l-0,0.51l-0.1,0c-0,0 -0.07,0.01 -0.08,0.04c-0.02,0.02 -0.03,0.05 -0.03,0.08c-0,0.03 -0,0.05 0.03,0.08c0.02,0.02 0.04,0.03 0.08,0.03l0.1,0l-0,0.83c-0,0.05 -0,0.1 0.03,0.15c0.02,0.05 0.04,0.09 0.08,0.12c0.04,0.04 0.08,0.06 0.12,0.08c0.05,0.02 0.1,0.03 0.15,0.03c0.04,0 0.07,0 0.08,-0.03c0.02,-0.02 0.03,-0.05 0.03,-0.07c0,-0.03 0,-0.05 -0.03,-0.07l0.02,-0.01Zm0.72,-1.76c0,0 -0.01,-0.06 -0.04,-0.08c-0.02,-0.02 -0.05,-0.03 -0.07,-0.03c-0.03,0 -0.05,0 -0.08,0.03c-0.02,0.02 -0.04,0.05 -0.04,0.08l0,0.06c0,0 0.01,0.06 0.04,0.08c0.02,0.02 0.05,0.03 0.08,0.03c0.03,0 0.05,-0.01 0.07,-0.03c0.03,-0.02 0.04,-0.05 0.04,-0.08l0,-0.06Zm0,0.61c0,0 -0.01,-0.06 -0.04,-0.08c-0.02,-0.02 -0.05,-0.03 -0.07,-0.03c-0.03,0 -0.05,0 -0.08,0.03c-0.02,0.02 -0.04,0.04 -0.04,0.08l0,1.22c0,0 0.01,0.07 0.04,0.08c0.02,0.02 0.05,0.02 0.08,0.02c0.03,0 0.05,0 0.07,-0.02c0.03,-0.02 0.04,-0.04 0.04,-0.08l0,-1.22Zm1.5,0.36c0,-0.06 -0.01,-0.12 -0.04,-0.18c-0.03,-0.06 -0.06,-0.11 -0.1,-0.15c-0.04,-0.05 -0.09,-0.08 -0.15,-0.1c-0.06,-0.02 -0.12,-0.04 -0.18,-0.04l-0.03,0c-0.06,0 -0.12,0.01 -0.18,0.04c-0.06,0.03 -0.11,0.06 -0.15,0.1c-0.04,0.04 -0.08,0.09 -0.1,0.15c-0.02,0.06 -0.04,0.12 -0.04,0.18l0,0.5c0,0.07 0.01,0.13 0.04,0.19c0.02,0.06 0.06,0.11 0.1,0.15c0.04,0.04 0.09,0.08 0.15,0.1c0.06,0.02 0.12,0.04 0.18,0.04l0.03,0c0.06,0 0.12,-0.01 0.18,-0.04c0.06,-0.03 0.11,-0.06 0.15,-0.1c0.04,-0.04 0.08,-0.09 0.1,-0.15c0.02,-0.06 0.04,-0.12 0.04,-0.19l0,-0.5Zm-0.22,0.5c0,0.07 -0.02,0.13 -0.07,0.18c-0.05,0.05 -0.11,0.07 -0.18,0.07l-0.03,0c-0.07,0 -0.13,-0.03 -0.18,-0.07c-0.05,-0.05 -0.08,-0.11 -0.08,-0.18l-0,-0.5c-0,-0.07 0.03,-0.13 0.08,-0.17c0.05,-0.05 0.11,-0.08 0.17,-0.08l0.03,0c0.07,0 0.13,0.03 0.18,0.08c0.05,0.05 0.07,0.11 0.07,0.17l-0,0.5l0.01,0Zm1.7,-0.5c-0,-0.08 -0.01,-0.15 -0.04,-0.21c-0.03,-0.06 -0.06,-0.11 -0.1,-0.15c-0.04,-0.04 -0.09,-0.07 -0.15,-0.09c-0.05,-0.02 -0.12,-0.03 -0.18,-0.03l-0.02,0c-0.05,0 -0.1,0 -0.14,0.02c-0.04,0.02 -0.08,0.04 -0.11,0.07c-0,-0.03 -0.02,-0.05 -0.04,-0.07c-0.02,-0.02 -0.04,-0.02 -0.07,-0.02c-0.03,0 -0.05,0.01 -0.08,0.03c-0.03,0.02 -0.04,0.05 -0.04,0.08l-0,1.22c-0,0 -0,0.07 0.04,0.08c0.02,0.02 0.05,0.02 0.07,0.02c0.02,0 0.05,0 0.08,-0.02c0.02,-0.02 0.03,-0.04 0.03,-0.08l-0,-0.86c-0,-0.07 0.03,-0.13 0.08,-0.18c0.05,-0.05 0.11,-0.07 0.18,-0.07l0.03,0c0.07,0 0.13,0.03 0.18,0.08c0.05,0.05 0.07,0.11 0.07,0.17l0,0.86c0,0 0.01,0.07 0.04,0.08c0.02,0.02 0.05,0.02 0.08,0.02c0.03,0 0.05,0 0.08,-0.02c0.02,-0.02 0.03,-0.04 0.03,-0.08l0,-0.86l-0.02,0.01Zm1.58,0.79c0,0 -0.04,-0.04 -0.07,-0.04c-0.05,-0.01 -0.08,-0.04 -0.08,-0.1l0,-0.68c0,-0.06 -0.01,-0.12 -0.03,-0.17c-0.03,-0.05 -0.06,-0.1 -0.1,-0.15c-0.04,-0.04 -0.09,-0.07 -0.15,-0.1c-0.06,-0.02 -0.12,-0.04 -0.18,-0.04l-0.02,0c-0,0 -0.08,0 -0.12,0.01c-0.04,0 -0.08,0.02 -0.12,0.04c-0.04,0.02 -0.08,0.05 -0.11,0.08c-0.03,0.04 -0.06,0.08 -0.09,0.13l-0,0.05c-0,0.03 -0,0.05 0.03,0.08c0.02,0.02 0.05,0.03 0.08,0.03c0.02,0 0.04,0 0.06,-0.01c0.02,0 0.03,-0.02 0.04,-0.05c0.03,-0.05 0.06,-0.08 0.09,-0.11c0.04,-0.02 0.08,-0.04 0.14,-0.04l0.02,0c0.06,0 0.12,0.02 0.17,0.05c0.05,0.04 0.07,0.09 0.07,0.18l-0,0.05c-0.01,0.01 -0.04,0.03 -0.08,0.04c-0.04,0 -0.09,0.02 -0.14,0.03c-0.05,0 -0.11,0.02 -0.17,0.04c-0.06,0.01 -0.12,0.04 -0.17,0.07c-0.05,0.03 -0.09,0.07 -0.12,0.12c-0.03,0.05 -0.05,0.11 -0.05,0.19l-0,0.04c-0,0.07 0.01,0.13 0.04,0.18c0.03,0.05 0.06,0.1 0.11,0.13c0.04,0.03 0.09,0.06 0.15,0.08c0.06,0.02 0.12,0.02 0.17,0.02l0.03,0c0.12,0 0.23,-0.04 0.32,-0.11c0.02,0.03 0.04,0.05 0.08,0.07c0.03,0.02 0.07,0.03 0.12,0.04l0.02,0c0.04,0 0.06,0 0.08,-0.03c0.02,-0.02 0.03,-0.05 0.03,-0.08c-0,-0.02 -0,-0.05 -0.02,-0.07l-0.03,0.03Zm-0.37,-0.29c0,0.07 -0.02,0.13 -0.07,0.18c-0.05,0.05 -0.11,0.07 -0.18,0.07l-0.03,0c-0.07,0 -0.13,-0.02 -0.18,-0.06c-0.04,-0.04 -0.07,-0.09 -0.07,-0.15l0,-0.03c0,0 0.02,-0.09 0.05,-0.12c0.04,-0.03 0.08,-0.05 0.13,-0.06c0.05,-0.02 0.11,-0.03 0.17,-0.04c0.06,0 0.12,-0.02 0.17,-0.03l-0,0.23l0.01,0.01Zm1.31,0.28c0,0 -0.05,-0.03 -0.09,-0.03c-0.04,0 -0.08,-0.02 -0.12,-0.05c-0.03,-0.03 -0.04,-0.07 -0.04,-0.11l0,-1.56c0,0 -0.01,-0.06 -0.04,-0.08c-0.02,-0.02 -0.05,-0.03 -0.08,-0.03c-0.03,0 -0.05,0 -0.07,0.03c-0.02,0.02 -0.04,0.05 -0.04,0.08l0,1.56c0,0.05 0.01,0.1 0.03,0.15c0.02,0.05 0.05,0.09 0.08,0.12c0.04,0.04 0.08,0.06 0.12,0.08c0.05,0.02 0.1,0.03 0.15,0.03c0.04,0 0.07,0 0.09,-0.03c0.02,-0.02 0.03,-0.05 0.03,-0.07c0,-0.03 0,-0.05 -0.03,-0.08l0.01,-0.01Zm1.4,-0.78c0,-0.07 -0.01,-0.13 -0.04,-0.19c-0.03,-0.06 -0.06,-0.11 -0.1,-0.15c-0.04,-0.04 -0.09,-0.08 -0.15,-0.1c-0.06,-0.02 -0.12,-0.04 -0.18,-0.04l-0.03,0c-0.06,0 -0.13,0.01 -0.18,0.04c-0.06,0.03 -0.11,0.06 -0.15,0.1c-0.04,0.04 -0.08,0.09 -0.1,0.15c-0.03,0.06 -0.04,0.12 -0.04,0.18l0,0.5c0,0.07 0.01,0.13 0.04,0.19c0.02,0.06 0.06,0.11 0.1,0.15c0.04,0.04 0.09,0.08 0.15,0.1c0.06,0.02 0.12,0.04 0.18,0.04l0.03,0c0.1,0 0.19,-0.02 0.26,-0.08c0.08,-0.05 0.13,-0.12 0.17,-0.2c-0,-0.01 0.01,-0.03 0.01,-0.05c-0,-0.03 -0.01,-0.06 -0.04,-0.08c-0.02,-0.02 -0.05,-0.03 -0.08,-0.03c-0.02,0 -0.04,0 -0.05,0.01c-0.02,0.01 -0.03,0.03 -0.04,0.06c-0.02,0.04 -0.05,0.08 -0.09,0.11c-0.04,0.03 -0.08,0.04 -0.14,0.04l-0.03,0c-0.07,0 -0.13,-0.03 -0.18,-0.07c-0.05,-0.05 -0.07,-0.11 -0.07,-0.18l-0,-0.15l0.64,0c-0,0 0.06,-0.01 0.08,-0.03c0.02,-0.02 0.03,-0.05 0.03,-0.08l0,-0.24Zm-0.22,0.15l-0.53,0l0,-0.15c0,-0.07 0.02,-0.13 0.08,-0.18c0.05,-0.05 0.11,-0.07 0.18,-0.07l0.03,0c0.06,0 0.12,0.03 0.17,0.07c0.05,0.04 0.07,0.11 0.07,0.18l0,0.15Z" style="fill:#d71d24;fill-rule:nonzero;"/><path d="M22.44,30.83c-0,-0.08 -0.02,-0.15 -0.04,-0.22c-0.03,-0.07 -0.07,-0.12 -0.12,-0.17c-0.05,-0.05 -0.11,-0.09 -0.18,-0.12c-0.07,-0.03 -0.14,-0.04 -0.21,-0.04l-0.47,0c-0,0 -0.06,0.01 -0.08,0.03c-0.02,0.02 -0.03,0.05 -0.03,0.08l-0,1.8c-0,0 -0,0.06 0.03,0.08c0.02,0.02 0.05,0.03 0.08,0.03l0.47,0c0.08,0 0.15,-0.01 0.21,-0.04c0.07,-0.03 0.13,-0.07 0.18,-0.12c0.05,-0.05 0.09,-0.11 0.12,-0.18c0.03,-0.07 0.04,-0.14 0.04,-0.22l-0,-0.91Zm-0.22,0.91c-0,0 -0,0.09 -0.03,0.13c-0.02,0.04 -0.04,0.07 -0.07,0.11c-0.03,0.03 -0.06,0.05 -0.1,0.07c-0.04,0.02 -0.08,0.03 -0.13,0.03l-0.36,0l0,-1.58l0.37,0c0,0 0.09,0 0.13,0.03c0.04,0.02 0.07,0.04 0.1,0.07c0.03,0.03 0.05,0.06 0.07,0.11c0.02,0.05 0.03,0.08 0.03,0.13l-0,0.91l-0.01,-0.01Zm1.71,-0.4c0,-0.07 -0.01,-0.13 -0.04,-0.19c-0.03,-0.06 -0.06,-0.11 -0.1,-0.15c-0.04,-0.04 -0.09,-0.08 -0.15,-0.1c-0.05,-0.02 -0.12,-0.03 -0.18,-0.03l-0.03,0c-0.06,0 -0.12,0.01 -0.18,0.04c-0.06,0.02 -0.11,0.06 -0.15,0.1c-0.04,0.04 -0.08,0.09 -0.1,0.15c-0.03,0.06 -0.04,0.12 -0.04,0.18l0,0.5c0,0.06 0.01,0.13 0.04,0.19c0.02,0.06 0.06,0.1 0.1,0.15c0.04,0.04 0.09,0.08 0.15,0.1c0.06,0.03 0.12,0.04 0.18,0.04l0.03,0c0.1,0 0.19,-0.03 0.26,-0.08c0.07,-0.05 0.13,-0.12 0.16,-0.2c-0,-0.01 0.01,-0.03 0.01,-0.05c-0,-0.04 -0.01,-0.06 -0.04,-0.08c-0.02,-0.02 -0.05,-0.03 -0.08,-0.03c-0.02,0 -0.04,0 -0.06,0.02c-0.02,0.01 -0.03,0.03 -0.04,0.05c-0.02,0.04 -0.05,0.08 -0.09,0.11c-0.04,0.03 -0.09,0.04 -0.14,0.04l-0.03,0c-0.07,0 -0.13,-0.02 -0.18,-0.07c-0.05,-0.05 -0.07,-0.11 -0.07,-0.17l-0,-0.15l0.64,0c-0,0 0.06,-0.01 0.08,-0.03c0.02,-0.02 0.03,-0.05 0.03,-0.08l-0,-0.24l0.02,-0.02Zm-0.22,0.15l-0.53,0l-0,-0.15c-0,-0.07 0.02,-0.13 0.07,-0.18c0.05,-0.05 0.11,-0.07 0.18,-0.07l0.03,0c0.06,0 0.12,0.03 0.17,0.07c0.05,0.05 0.08,0.11 0.08,0.18l-0,0.15Zm1.66,-0.51c-0,0 -0.01,-0.06 -0.04,-0.08c-0.02,-0.02 -0.05,-0.03 -0.08,-0.03c-0.03,0 -0.05,0 -0.08,0.03c-0.02,0.02 -0.04,0.05 -0.04,0.08l-0,0.86c-0,0.07 -0.02,0.12 -0.07,0.17c-0.05,0.05 -0.11,0.07 -0.18,0.07l-0.03,0c-0.07,0 -0.13,-0.02 -0.18,-0.07c-0.05,-0.05 -0.07,-0.11 -0.07,-0.17l-0,-0.86c-0,0 -0.01,-0.06 -0.04,-0.08c-0.02,-0.02 -0.05,-0.03 -0.08,-0.03c-0.03,0 -0.05,0 -0.07,0.03c-0.03,0.02 -0.04,0.05 -0.04,0.08l-0,0.87c-0,0.08 0.01,0.15 0.04,0.21c0.03,0.06 0.06,0.11 0.1,0.14c0.04,0.04 0.09,0.07 0.15,0.08c0.06,0.02 0.12,0.03 0.18,0.03l0.03,0c-0,0 0.1,0 0.14,-0.02c0.05,-0.02 0.08,-0.04 0.11,-0.06c-0,0.03 0.02,0.05 0.04,0.07c0.02,0.01 0.04,0.02 0.07,0.02c0.03,0 0.05,-0.01 0.08,-0.03c0.02,-0.02 0.04,-0.05 0.04,-0.08l-0,-1.22l0.02,-0.01Zm1.14,1.15c-0,0 -0.04,-0.03 -0.08,-0.04c-0.05,0 -0.09,-0.02 -0.12,-0.05c-0.04,-0.03 -0.05,-0.07 -0.05,-0.12l-0,-0.82l0.16,0c-0,0 0.07,-0.01 0.08,-0.03c0.02,-0.03 0.03,-0.05 0.03,-0.08c-0,-0.03 -0,-0.05 -0.03,-0.08c-0.02,-0.02 -0.05,-0.03 -0.08,-0.03l-0.16,0l-0,-0.51c-0,0 -0.01,-0.07 -0.04,-0.08c-0.02,-0.02 -0.05,-0.03 -0.07,-0.03c-0.03,0 -0.05,0 -0.08,0.03c-0.02,0.02 -0.04,0.05 -0.04,0.08l-0,0.51l-0.1,0c-0,0 -0.06,0.01 -0.08,0.03c-0.02,0.03 -0.03,0.05 -0.03,0.08c-0,0.03 -0,0.05 0.03,0.08c0.02,0.02 0.05,0.03 0.08,0.03l0.1,0l-0,0.83c-0,0.05 0.01,0.1 0.03,0.15c0.02,0.05 0.05,0.09 0.09,0.12c0.04,0.04 0.07,0.06 0.12,0.08c0.04,0.02 0.1,0.03 0.15,0.03c0.04,0 0.07,-0.01 0.09,-0.04c0.02,-0.02 0.03,-0.05 0.03,-0.08c-0,-0.03 -0,-0.05 -0.02,-0.07l-0.01,0.01Zm1.44,-0.24c-0,-0.09 -0.02,-0.17 -0.06,-0.23c-0.04,-0.05 -0.09,-0.1 -0.14,-0.13c-0.05,-0.03 -0.12,-0.05 -0.18,-0.07c-0.07,-0.01 -0.13,-0.03 -0.18,-0.04c-0.06,-0.02 -0.1,-0.04 -0.14,-0.06c-0.04,-0.02 -0.06,-0.06 -0.06,-0.11c-0,-0.05 0.03,-0.09 0.07,-0.12c0.04,-0.03 0.11,-0.05 0.19,-0.05l0.01,0c0.06,0 0.12,0 0.16,0.03c0.04,0.02 0.07,0.04 0.1,0.05c0.03,0.01 0.05,0.02 0.07,0.02c0.03,0 0.06,-0.01 0.08,-0.03c0.02,-0.02 0.03,-0.05 0.03,-0.07c-0,-0.04 -0.01,-0.06 -0.04,-0.09c-0.01,0 -0.03,-0.02 -0.05,-0.04c-0.02,-0.01 -0.05,-0.03 -0.08,-0.04c-0.03,-0.01 -0.07,-0.02 -0.11,-0.03c-0.04,-0.01 -0.09,-0.01 -0.14,-0.01l-0.01,0c-0,0 -0.1,0 -0.15,0.02c-0.05,0.01 -0.11,0.03 -0.16,0.06c-0.05,0.03 -0.09,0.07 -0.12,0.12c-0.03,0.05 -0.05,0.11 -0.05,0.17c-0,0.09 0.02,0.16 0.05,0.21c0.04,0.05 0.09,0.09 0.14,0.12c0.06,0.03 0.12,0.05 0.18,0.06c0.06,0.01 0.13,0.03 0.18,0.05c0.06,0.02 0.1,0.04 0.14,0.07c0.04,0.03 0.05,0.08 0.05,0.14c-0,0.06 -0.02,0.1 -0.07,0.15c-0.05,0.04 -0.12,0.06 -0.21,0.06l-0.01,0c-0.05,0 -0.11,-0.02 -0.17,-0.06c-0.06,-0.04 -0.1,-0.08 -0.14,-0.13c-0.01,-0.02 -0.03,-0.03 -0.05,-0.04l-0.05,0c-0.03,0 -0.05,0 -0.08,0.03c-0.02,0.02 -0.03,0.05 -0.03,0.08c-0,0 -0,0.03 0.01,0.06c0.02,0.04 0.05,0.09 0.09,0.12c0.04,0.04 0.08,0.07 0.12,0.09c0.04,0.02 0.09,0.04 0.14,0.06c0.05,0.01 0.1,0.02 0.14,0.02l0.02,0c0.06,0 0.12,0 0.18,-0.03c0.06,-0.02 0.12,-0.05 0.16,-0.08c0.05,-0.04 0.09,-0.08 0.12,-0.13c0.03,-0.05 0.04,-0.11 0.04,-0.18l0.01,-0.02Zm1.39,-0.14c-0,0 -0.05,-0.03 -0.08,-0.03c-0.03,0 -0.05,0 -0.07,0.03c-0.02,0.02 -0.04,0.05 -0.04,0.09c-0,0.07 -0.03,0.12 -0.08,0.17c-0.05,0.05 -0.1,0.07 -0.17,0.07l-0.03,0c-0.07,0 -0.13,-0.02 -0.18,-0.07c-0.05,-0.05 -0.07,-0.11 -0.07,-0.17l-0,-0.5c-0,-0.07 0.02,-0.12 0.07,-0.17c0.05,-0.05 0.11,-0.07 0.18,-0.07l0.03,0c0.07,0 0.12,0.02 0.17,0.07c0.05,0.05 0.07,0.11 0.08,0.18c-0,0.04 0.01,0.07 0.04,0.08c0.02,0.02 0.05,0.03 0.07,0.03c0.03,0 0.05,-0.01 0.08,-0.03c0.02,-0.02 0.04,-0.05 0.04,-0.08c-0,-0.07 -0.01,-0.13 -0.04,-0.18c-0.03,-0.05 -0.06,-0.11 -0.1,-0.15c-0.04,-0.04 -0.09,-0.08 -0.15,-0.1c-0.06,-0.02 -0.12,-0.04 -0.18,-0.04l-0.03,0c-0.06,0 -0.13,0.01 -0.18,0.04c-0.06,0.02 -0.11,0.06 -0.15,0.1c-0.04,0.04 -0.07,0.09 -0.1,0.15c-0.03,0.06 -0.04,0.12 -0.04,0.19l-0,0.5c-0,0.06 0.01,0.13 0.04,0.19c0.02,0.06 0.06,0.1 0.1,0.15c0.04,0.04 0.09,0.08 0.15,0.1c0.06,0.03 0.12,0.04 0.18,0.04l0.03,0c0.06,0 0.12,-0.01 0.18,-0.04c0.06,-0.02 0.11,-0.06 0.15,-0.1c0.04,-0.04 0.08,-0.09 0.1,-0.15c0.03,-0.06 0.04,-0.12 0.04,-0.18c-0,-0.04 -0.01,-0.07 -0.04,-0.09l-0,-0.03Zm1.51,-0.41c-0,-0.07 -0.01,-0.13 -0.04,-0.18c-0.02,-0.06 -0.06,-0.11 -0.1,-0.15c-0.04,-0.04 -0.09,-0.08 -0.15,-0.1c-0.06,-0.02 -0.12,-0.04 -0.18,-0.04l-0.02,0c-0.05,0 -0.1,0 -0.15,0.02c-0.05,0.01 -0.08,0.04 -0.11,0.06l-0,-0.59c-0,0 -0.01,-0.07 -0.04,-0.08c-0.02,-0.02 -0.05,-0.03 -0.08,-0.03c-0.03,0 -0.05,0 -0.08,0.03c-0.02,0.02 -0.04,0.05 -0.04,0.08l-0,1.84c-0,0 0.01,0.07 0.04,0.08c0.02,0.02 0.05,0.03 0.08,0.03c0.03,0 0.05,0 0.08,-0.03c0.02,-0.02 0.04,-0.05 0.04,-0.08l-0,-0.88c-0,0 -0,-0.07 0.02,-0.1c0.02,-0.03 0.04,-0.05 0.06,-0.08c0.02,-0.02 0.05,-0.04 0.08,-0.04c0.03,0 0.06,-0.02 0.1,-0.02c0.04,0 0.06,0 0.1,0.02c0.03,0 0.06,0.03 0.09,0.04c0.03,0.02 0.04,0.05 0.06,0.08c0.01,0.03 0.02,0.07 0.02,0.11l-0,0.86c-0,0 0.01,0.07 0.04,0.08c0.02,0.02 0.05,0.03 0.08,0.03c0.03,0 0.05,0 0.07,-0.03c0.02,-0.02 0.04,-0.05 0.04,-0.08l-0,-0.86l-0.01,0.01Zm1.45,0c-0,-0.07 -0.01,-0.13 -0.04,-0.19c-0.03,-0.06 -0.06,-0.11 -0.1,-0.15c-0.04,-0.04 -0.09,-0.08 -0.15,-0.1c-0.06,-0.02 -0.12,-0.03 -0.18,-0.03l-0.03,0c-0.06,0 -0.12,0.01 -0.18,0.04c-0.06,0.02 -0.11,0.06 -0.15,0.1c-0.04,0.04 -0.08,0.09 -0.1,0.15c-0.03,0.06 -0.04,0.12 -0.04,0.18l-0,0.5c-0,0.06 0.01,0.13 0.04,0.19c0.02,0.06 0.06,0.1 0.1,0.15c0.04,0.04 0.1,0.08 0.15,0.1c0.06,0.03 0.12,0.04 0.18,0.04l0.03,0c0.1,0 0.19,-0.03 0.26,-0.08c0.08,-0.05 0.13,-0.12 0.16,-0.2c-0,-0.01 0.01,-0.03 0.01,-0.05c-0,-0.04 -0.01,-0.06 -0.03,-0.08c-0.02,-0.02 -0.05,-0.03 -0.08,-0.03c-0.02,0 -0.04,0 -0.05,0.02c-0.02,0.01 -0.03,0.03 -0.04,0.05c-0.02,0.04 -0.05,0.08 -0.09,0.11c-0.04,0.03 -0.08,0.04 -0.14,0.04l-0.03,0c-0.07,0 -0.13,-0.02 -0.18,-0.07c-0.05,-0.05 -0.07,-0.11 -0.07,-0.17l-0,-0.15l0.64,0c-0,0 0.06,-0.01 0.08,-0.03c0.02,-0.02 0.03,-0.05 0.03,-0.08l-0,-0.26Zm-0.22,0.15l-0.53,0l-0,-0.15c-0,-0.07 0.03,-0.13 0.07,-0.18c0.05,-0.05 0.11,-0.07 0.18,-0.07l0.03,0c0.06,0 0.12,0.03 0.17,0.07c0.05,0.05 0.07,0.11 0.07,0.18l-0,0.15l0.01,0Zm2.81,-0.19c-0,0 -0,-0.05 -0.03,-0.08c-0.02,-0.02 -0.05,-0.04 -0.08,-0.04l-0.42,0c-0,0 -0.06,0.01 -0.08,0.04c-0.02,0.02 -0.03,0.05 -0.03,0.08c-0,0.03 -0,0.05 0.03,0.08c0.02,0.03 0.04,0.04 0.08,0.04l0.31,0l-0,0.34c-0,0 -0,0.09 -0.03,0.13c-0.02,0.04 -0.04,0.08 -0.07,0.11c-0.03,0.03 -0.07,0.05 -0.1,0.07c-0.04,0.02 -0.09,0.03 -0.13,0.03l-0.03,0c-0,0 -0.09,0 -0.13,-0.03c-0.04,-0.02 -0.08,-0.04 -0.11,-0.07c-0.03,-0.03 -0.05,-0.07 -0.07,-0.11c-0.02,-0.04 -0.03,-0.08 -0.03,-0.13l-0,-0.95c-0,0 -0,-0.09 0.03,-0.13c0.03,-0.04 0.04,-0.07 0.07,-0.11c0.03,-0.03 0.07,-0.05 0.11,-0.07c0.04,-0.02 0.08,-0.03 0.13,-0.03l0.03,0c0.1,0 0.17,0.03 0.23,0.08c0.05,0.05 0.09,0.12 0.11,0.21c-0,0.03 0.02,0.06 0.04,0.07c0.02,0.02 0.04,0.02 0.07,0.02c0.03,0 0.05,0 0.08,-0.03c0.02,-0.02 0.03,-0.04 0.03,-0.08l-0,-0.02c-0,-0.07 -0.03,-0.13 -0.06,-0.19c-0.03,-0.06 -0.07,-0.11 -0.12,-0.15c-0.05,-0.04 -0.11,-0.08 -0.17,-0.1c-0.06,-0.03 -0.13,-0.04 -0.2,-0.04l-0.03,0c-0.08,0 -0.15,0.01 -0.22,0.04c-0.07,0.03 -0.13,0.07 -0.18,0.12c-0.05,0.05 -0.09,0.11 -0.12,0.17c-0.03,0.07 -0.04,0.14 -0.04,0.22l-0,0.95c-0,0.08 0.01,0.15 0.04,0.22c0.03,0.07 0.07,0.13 0.12,0.18c0.05,0.05 0.11,0.09 0.18,0.12c0.07,0.03 0.14,0.04 0.22,0.04l0.03,0c0.08,0 0.15,-0.01 0.22,-0.04c0.07,-0.03 0.12,-0.07 0.18,-0.12c0.05,-0.05 0.09,-0.11 0.12,-0.18c0.03,-0.07 0.04,-0.14 0.04,-0.22l-0,-0.45l-0.02,0.01Zm1.49,0.04c-0,-0.07 -0.01,-0.13 -0.04,-0.19c-0.02,-0.06 -0.05,-0.11 -0.1,-0.15c-0.04,-0.04 -0.09,-0.08 -0.15,-0.1c-0.06,-0.02 -0.12,-0.03 -0.18,-0.03l-0.03,0c-0.07,0 -0.13,0.01 -0.18,0.04c-0.06,0.02 -0.11,0.06 -0.15,0.1c-0.04,0.04 -0.08,0.09 -0.1,0.15c-0.03,0.06 -0.04,0.12 -0.04,0.18l-0,0.5c-0,0.06 0.01,0.13 0.04,0.19c0.02,0.06 0.06,0.1 0.1,0.15c0.04,0.04 0.09,0.08 0.15,0.1c0.06,0.03 0.12,0.04 0.18,0.04l0.03,0c0.1,0 0.19,-0.03 0.26,-0.08c0.08,-0.05 0.13,-0.12 0.17,-0.2c-0,-0.01 0.01,-0.03 0.01,-0.05c-0,-0.04 -0.01,-0.06 -0.04,-0.08c-0.02,-0.02 -0.05,-0.03 -0.08,-0.03c-0.02,0 -0.04,0 -0.05,0.02c-0.02,0.01 -0.03,0.03 -0.04,0.05c-0.02,0.04 -0.05,0.08 -0.09,0.11c-0.04,0.03 -0.09,0.04 -0.14,0.04l-0.03,0c-0.07,0 -0.13,-0.02 -0.18,-0.07c-0.05,-0.05 -0.07,-0.11 -0.07,-0.17l-0,-0.15l0.64,0c-0,0 0.06,-0.01 0.08,-0.03c0.02,-0.02 0.03,-0.05 0.03,-0.08l-0,-0.26Zm-0.22,0.15l-0.53,0l-0,-0.15c-0,-0.07 0.02,-0.13 0.08,-0.18c0.05,-0.05 0.11,-0.07 0.18,-0.07l0.03,0c0.06,0 0.12,0.03 0.17,0.07c0.05,0.05 0.07,0.11 0.07,0.18l-0,0.15Zm1.69,0.4c-0,-0.09 -0.02,-0.17 -0.06,-0.23c-0.04,-0.05 -0.08,-0.1 -0.14,-0.13c-0.06,-0.03 -0.12,-0.05 -0.18,-0.07c-0.06,-0.01 -0.13,-0.03 -0.18,-0.04c-0.06,-0.02 -0.1,-0.04 -0.14,-0.06c-0.04,-0.02 -0.06,-0.06 -0.06,-0.11c-0,-0.05 0.02,-0.09 0.06,-0.12c0.04,-0.03 0.11,-0.05 0.19,-0.05l0.01,0c0.07,0 0.12,0 0.15,0.03c0.04,0.02 0.07,0.04 0.1,0.05c0.02,0.01 0.04,0.02 0.06,0.02c0.03,0 0.06,-0.01 0.08,-0.03c0.02,-0.02 0.03,-0.05 0.03,-0.07c-0,-0.04 -0.01,-0.06 -0.04,-0.09c-0.01,0 -0.03,-0.02 -0.05,-0.04c-0.02,-0.01 -0.05,-0.03 -0.08,-0.04c-0.03,-0.01 -0.07,-0.02 -0.11,-0.03c-0.04,-0.01 -0.09,-0.01 -0.14,-0.01l-0.01,0c-0,0 -0.1,0 -0.15,0.02c-0.06,0.01 -0.11,0.03 -0.16,0.06c-0.05,0.03 -0.09,0.07 -0.12,0.12c-0.03,0.05 -0.05,0.11 -0.05,0.17c-0,0.09 0.02,0.16 0.06,0.21c0.04,0.05 0.08,0.09 0.14,0.12c0.05,0.03 0.12,0.05 0.18,0.06c0.06,0.01 0.13,0.03 0.18,0.05c0.06,0.02 0.1,0.04 0.14,0.07c0.04,0.03 0.06,0.08 0.06,0.14c-0,0.06 -0.03,0.1 -0.07,0.15c-0.05,0.04 -0.12,0.06 -0.21,0.06l-0.01,0c-0.05,0 -0.11,-0.02 -0.17,-0.06c-0.05,-0.04 -0.1,-0.08 -0.14,-0.13c-0.01,-0.02 -0.03,-0.03 -0.05,-0.04l-0.05,0c-0.03,0 -0.05,0 -0.08,0.03c-0.03,0.02 -0.04,0.05 -0.04,0.08c-0,0 -0,0.03 0.01,0.06c0.03,0.04 0.05,0.09 0.09,0.12c0.04,0.04 0.08,0.07 0.12,0.09c0.04,0.02 0.09,0.04 0.14,0.06c0.05,0.01 0.1,0.02 0.14,0.02l0.02,0c0.06,0 0.12,0 0.18,-0.03c0.06,-0.02 0.12,-0.05 0.16,-0.08c0.05,-0.04 0.09,-0.08 0.12,-0.13c0.03,-0.05 0.04,-0.11 0.04,-0.18l0.03,-0.02Zm1.42,-0.55c-0,-0.07 -0,-0.13 -0.04,-0.19c-0.03,-0.06 -0.06,-0.11 -0.1,-0.15c-0.04,-0.04 -0.09,-0.08 -0.15,-0.1c-0.06,-0.02 -0.12,-0.03 -0.18,-0.03l-0.03,0c-0.06,0 -0.12,0.01 -0.18,0.04c-0.06,0.02 -0.11,0.06 -0.15,0.1c-0.04,0.04 -0.08,0.09 -0.1,0.15c-0.02,0.06 -0.04,0.12 -0.04,0.18l-0,0.5c-0,0.06 0.01,0.13 0.04,0.19c0.03,0.06 0.06,0.1 0.1,0.15c0.04,0.04 0.1,0.08 0.15,0.1c0.06,0.03 0.12,0.04 0.18,0.04l0.03,0c0.1,0 0.19,-0.03 0.26,-0.08c0.08,-0.05 0.13,-0.12 0.17,-0.2c-0,-0.01 0.01,-0.03 0.01,-0.05c-0,-0.04 -0.01,-0.06 -0.04,-0.08c-0.02,-0.02 -0.05,-0.03 -0.08,-0.03c-0.02,0 -0.04,0 -0.06,0.02c-0.02,0.01 -0.03,0.03 -0.04,0.05c-0.02,0.04 -0.05,0.08 -0.09,0.11c-0.04,0.03 -0.09,0.04 -0.14,0.04l-0.03,0c-0.07,0 -0.13,-0.02 -0.17,-0.07c-0.05,-0.05 -0.08,-0.11 -0.08,-0.17l-0,-0.15l0.64,0c-0,0 0.06,-0.01 0.08,-0.03c0.02,-0.02 0.03,-0.05 0.03,-0.08l-0,-0.24l0.01,-0.02Zm-0.22,0.15l-0.53,0l-0,-0.15c-0,-0.07 0.03,-0.13 0.08,-0.18c0.05,-0.05 0.11,-0.07 0.18,-0.07l0.03,0c0.07,0 0.12,0.03 0.17,0.07c0.05,0.05 0.07,0.11 0.07,0.18l-0,0.15Zm1.19,0.63c-0,0 -0.04,-0.03 -0.08,-0.03c-0.05,0 -0.09,-0.02 -0.12,-0.05c-0.03,-0.03 -0.04,-0.07 -0.04,-0.12l-0,-1.56c-0,0 -0.01,-0.07 -0.04,-0.08c-0.02,-0.02 -0.05,-0.03 -0.08,-0.03c-0.03,0 -0.05,0 -0.08,0.03c-0.02,0.02 -0.04,0.05 -0.04,0.08l-0,1.56c-0,0.05 -0,0.1 0.03,0.15c0.02,0.05 0.05,0.09 0.08,0.12c0.04,0.04 0.08,0.06 0.12,0.08c0.05,0.02 0.1,0.03 0.15,0.03c0.04,0 0.07,-0.01 0.08,-0.04c0.02,-0.02 0.03,-0.05 0.03,-0.08c-0,-0.03 -0,-0.05 -0.03,-0.08l0.02,0.02Zm0.92,0c-0,0 -0.05,-0.03 -0.08,-0.03c-0.04,0 -0.08,-0.02 -0.12,-0.05c-0.03,-0.03 -0.04,-0.07 -0.04,-0.12l-0,-1.56c-0,0 -0.01,-0.07 -0.04,-0.08c-0.02,-0.02 -0.05,-0.03 -0.08,-0.03c-0.03,0 -0.05,0 -0.07,0.03c-0.02,0.02 -0.04,0.05 -0.04,0.08l-0,1.56c-0,0.05 0.01,0.1 0.03,0.15c0.02,0.05 0.05,0.09 0.08,0.12c0.04,0.04 0.08,0.06 0.12,0.08c0.05,0.02 0.1,0.03 0.15,0.03c0.04,0 0.07,-0.01 0.08,-0.04c0.02,-0.02 0.03,-0.05 0.03,-0.08c-0,-0.03 -0,-0.05 -0.03,-0.08l0.01,0.02Zm1.45,-0.23c-0,-0.09 -0.02,-0.17 -0.06,-0.23c-0.04,-0.05 -0.08,-0.1 -0.14,-0.13c-0.05,-0.03 -0.12,-0.05 -0.18,-0.07c-0.07,-0.01 -0.13,-0.03 -0.18,-0.04c-0.06,-0.02 -0.1,-0.04 -0.14,-0.06c-0.04,-0.02 -0.05,-0.06 -0.05,-0.11c-0,-0.05 0.02,-0.09 0.07,-0.12c0.04,-0.03 0.11,-0.05 0.19,-0.05l0.01,0c0.07,0 0.12,0 0.16,0.03c0.04,0.02 0.07,0.04 0.1,0.05c0.02,0.01 0.04,0.02 0.06,0.02c0.03,0 0.06,-0.01 0.08,-0.03c0.02,-0.02 0.03,-0.05 0.03,-0.07c-0,-0.04 -0.01,-0.06 -0.04,-0.09c-0.01,0 -0.03,-0.02 -0.05,-0.04c-0.02,-0.01 -0.05,-0.03 -0.08,-0.04c-0.03,-0.01 -0.07,-0.02 -0.11,-0.03c-0.04,-0.01 -0.09,-0.01 -0.14,-0.01c-0.05,0 -0.1,0 -0.15,0.02c-0.06,0.01 -0.11,0.03 -0.16,0.06c-0.05,0.03 -0.09,0.07 -0.12,0.12c-0.03,0.05 -0.05,0.11 -0.05,0.17c-0,0.09 0.02,0.16 0.06,0.21c0.04,0.05 0.09,0.09 0.14,0.12c0.05,0.03 0.12,0.05 0.18,0.06c0.07,0.01 0.13,0.03 0.19,0.05c0.05,0.02 0.1,0.04 0.14,0.07c0.04,0.03 0.06,0.08 0.06,0.14c-0,0.06 -0.03,0.1 -0.07,0.15c-0.05,0.04 -0.12,0.06 -0.21,0.06l-0.01,0c-0.06,0 -0.11,-0.02 -0.17,-0.06c-0.06,-0.04 -0.1,-0.08 -0.14,-0.13c-0.01,-0.02 -0.03,-0.03 -0.04,-0.04l-0.05,0c-0.03,0 -0.05,0 -0.08,0.03c-0.02,0.02 -0.04,0.05 -0.04,0.08c-0,0 -0,0.03 0.02,0.06c0.02,0.04 0.05,0.09 0.09,0.12c0.04,0.04 0.08,0.07 0.12,0.09c0.04,0.02 0.09,0.04 0.14,0.06c0.05,0.01 0.1,0.02 0.14,0.02l0.02,0c0.06,0 0.12,0 0.18,-0.03c0.06,-0.02 0.11,-0.05 0.16,-0.08c0.05,-0.04 0.09,-0.08 0.12,-0.13c0.03,-0.05 0.04,-0.11 0.04,-0.18l-0.04,-0.02Zm1.39,-0.14c-0,0 -0.05,-0.03 -0.08,-0.03c-0.03,0 -0.05,0 -0.07,0.03c-0.02,0.02 -0.04,0.05 -0.04,0.09c-0,0.07 -0.03,0.12 -0.08,0.17c-0.05,0.05 -0.11,0.07 -0.17,0.07l-0.03,0c-0.07,0 -0.13,-0.02 -0.18,-0.07c-0.05,-0.05 -0.07,-0.11 -0.07,-0.17l-0,-0.5c-0,-0.07 0.02,-0.12 0.07,-0.17c0.05,-0.05 0.11,-0.07 0.18,-0.07l0.03,0c0.07,0 0.12,0.02 0.17,0.07c0.05,0.05 0.07,0.11 0.08,0.18c-0,0.04 0.01,0.07 0.04,0.08c0.02,0.02 0.05,0.03 0.07,0.03c0.03,0 0.05,-0.01 0.08,-0.03c0.02,-0.02 0.04,-0.05 0.04,-0.08c-0,-0.07 -0.01,-0.13 -0.04,-0.18c-0.02,-0.06 -0.06,-0.11 -0.1,-0.15c-0.04,-0.04 -0.09,-0.08 -0.15,-0.1c-0.06,-0.02 -0.12,-0.04 -0.18,-0.04l-0.03,0c-0.07,0 -0.13,0.01 -0.19,0.04c-0.06,0.02 -0.11,0.06 -0.15,0.1c-0.04,0.04 -0.08,0.09 -0.1,0.15c-0.03,0.06 -0.04,0.12 -0.04,0.19l-0,0.5c-0,0.06 0.01,0.13 0.04,0.19c0.02,0.06 0.06,0.1 0.1,0.15c0.04,0.04 0.09,0.08 0.15,0.1c0.06,0.03 0.12,0.04 0.19,0.04l0.03,0c0.06,0 0.12,-0.01 0.18,-0.04c0.06,-0.02 0.11,-0.06 0.15,-0.1c0.04,-0.04 0.08,-0.09 0.1,-0.15c0.02,-0.06 0.04,-0.12 0.04,-0.18c-0,-0.04 -0.01,-0.07 -0.04,-0.09l-0,-0.03Zm1.48,-0.41c-0,-0.07 -0.01,-0.13 -0.04,-0.18c-0.02,-0.06 -0.06,-0.11 -0.1,-0.15c-0.04,-0.04 -0.09,-0.08 -0.15,-0.1c-0.06,-0.02 -0.12,-0.04 -0.19,-0.04l-0.02,0c-0,0 -0.1,0 -0.15,0.02c-0.05,0.01 -0.08,0.04 -0.11,0.06l-0,-0.59c-0,0 -0.01,-0.07 -0.03,-0.08c-0.03,-0.02 -0.05,-0.03 -0.08,-0.03c-0.03,0 -0.05,0 -0.08,0.03c-0.02,0.02 -0.04,0.05 -0.04,0.08l-0,1.84c-0,0 0.01,0.07 0.04,0.08c0.02,0.02 0.05,0.03 0.08,0.03c0.03,0 0.05,0 0.08,-0.03c0.02,-0.02 0.03,-0.05 0.03,-0.08l-0,-0.88c-0,0 -0,-0.07 0.02,-0.1c0.02,-0.03 0.04,-0.05 0.06,-0.08c0.02,-0.02 0.05,-0.04 0.08,-0.04c0.03,0 0.06,-0.02 0.1,-0.02c0.03,0 0.06,0 0.09,0.02c0.03,0 0.06,0.03 0.09,0.04c0.02,0.02 0.04,0.05 0.06,0.08c0.01,0.03 0.02,0.07 0.02,0.11l-0,0.86c-0,0 -0,0.07 0.04,0.08c0.02,0.02 0.04,0.03 0.07,0.03c0.03,0 0.05,0 0.07,-0.03c0.03,-0.02 0.04,-0.05 0.04,-0.08l-0,-0.86l0.02,0.01Zm1.57,0.79c-0,0 -0.04,-0.03 -0.07,-0.04c-0.05,0 -0.07,-0.04 -0.07,-0.1l-0,-0.68c-0,-0.06 -0.01,-0.12 -0.04,-0.18c-0.02,-0.05 -0.06,-0.1 -0.1,-0.14c-0.04,-0.04 -0.09,-0.07 -0.15,-0.1c-0.06,-0.02 -0.12,-0.03 -0.18,-0.03l-0.02,0c-0,0 -0.08,0 -0.12,0.01c-0.04,0 -0.08,0.02 -0.12,0.04c-0.04,0.02 -0.07,0.05 -0.11,0.08c-0.03,0.04 -0.06,0.08 -0.09,0.13c-0,0.01 -0.01,0.03 -0.01,0.05c-0,0.03 0.01,0.06 0.04,0.08c0.02,0.02 0.05,0.03 0.08,0.03c0.02,0 0.04,0 0.05,-0.01c0.02,0 0.03,-0.02 0.04,-0.04c0.03,-0.05 0.06,-0.09 0.09,-0.11c0.03,-0.02 0.08,-0.04 0.14,-0.04l0.02,0c0.06,0 0.12,0.02 0.17,0.05c0.05,0.04 0.07,0.1 0.07,0.19l-0,0.04c-0,0.02 -0.04,0.03 -0.08,0.04c-0.04,0 -0.09,0.02 -0.14,0.03c-0.05,0.01 -0.11,0.02 -0.17,0.04c-0.06,0.02 -0.12,0.04 -0.17,0.07c-0.05,0.03 -0.09,0.07 -0.13,0.12c-0.03,0.05 -0.05,0.11 -0.05,0.19l-0,0.04c-0,0.07 0.01,0.13 0.04,0.18c0.03,0.05 0.06,0.1 0.11,0.13c0.04,0.04 0.09,0.06 0.15,0.08c0.06,0.02 0.12,0.03 0.17,0.03l0.03,0c0.12,0 0.23,-0.04 0.32,-0.11c0.02,0.03 0.04,0.05 0.08,0.07c0.03,0.02 0.07,0.03 0.12,0.04l0.02,0c0.04,0 0.06,-0.01 0.08,-0.04c0.02,-0.02 0.03,-0.05 0.03,-0.08c-0,-0.02 -0,-0.05 -0.02,-0.07l-0.01,0.01Zm-0.37,-0.29c-0,0.07 -0.02,0.13 -0.07,0.18c-0.05,0.05 -0.11,0.07 -0.18,0.07l-0.03,0c-0.07,0 -0.13,-0.02 -0.18,-0.06c-0.05,-0.04 -0.07,-0.08 -0.07,-0.15l-0,-0.02c-0,-0.05 0.02,-0.09 0.05,-0.11c0.03,-0.03 0.08,-0.05 0.13,-0.07c0.05,-0.02 0.11,-0.03 0.17,-0.04c0.06,0 0.12,-0.02 0.17,-0.03l-0,0.23l0.01,0Zm1.35,-1.55c-0,0 -0.04,-0.03 -0.08,-0.03c-0.05,0 -0.1,0 -0.15,0.03c-0.04,0.02 -0.09,0.04 -0.12,0.08c-0.04,0.04 -0.06,0.08 -0.08,0.12c-0.02,0.05 -0.03,0.1 -0.03,0.15l-0,0.23l-0.06,0c-0,0 -0.07,0.01 -0.08,0.03c-0.02,0.03 -0.03,0.05 -0.03,0.08c-0,0.03 -0,0.05 0.03,0.08c0.02,0.02 0.04,0.03 0.08,0.03l0.06,0l-0,1.11c-0,0 0.01,0.07 0.04,0.08c0.02,0.02 0.05,0.03 0.08,0.03c0.03,0 0.05,0 0.08,-0.03c0.02,-0.02 0.04,-0.05 0.04,-0.08l-0,-1.11l0.14,0c-0,0 0.06,-0.01 0.08,-0.03c0.02,-0.03 0.03,-0.05 0.03,-0.08c-0,-0.03 -0,-0.05 -0.03,-0.08c-0.02,-0.02 -0.05,-0.03 -0.08,-0.03l-0.14,0l-0,-0.23c-0,0 0.02,-0.08 0.04,-0.12c0.03,-0.03 0.07,-0.05 0.11,-0.05c0.04,0 0.07,-0.01 0.08,-0.04c0.02,-0.02 0.03,-0.05 0.03,-0.08c-0,-0.03 -0,-0.05 -0.03,-0.08l-0.01,0.02Zm0.96,1.84c-0,0 -0.04,-0.03 -0.08,-0.04c-0.04,0 -0.09,-0.02 -0.12,-0.05c-0.03,-0.03 -0.05,-0.07 -0.05,-0.12l-0,-0.82l0.16,0c-0,0 0.06,-0.01 0.08,-0.03c0.02,-0.03 0.03,-0.05 0.03,-0.08c-0,-0.03 -0,-0.05 -0.03,-0.08c-0.02,-0.02 -0.04,-0.03 -0.08,-0.03l-0.16,0l-0,-0.51c-0,0 -0.01,-0.07 -0.04,-0.08c-0.02,-0.02 -0.05,-0.03 -0.07,-0.03c-0.03,0 -0.05,0 -0.08,0.03c-0.02,0.02 -0.03,0.05 -0.03,0.08l-0,0.51l-0.1,0c-0,0 -0.06,0.01 -0.08,0.03c-0.02,0.03 -0.03,0.05 -0.03,0.08c-0,0.03 -0,0.05 0.03,0.08c0.02,0.02 0.04,0.03 0.08,0.03l0.1,0l-0,0.83c-0,0.05 -0,0.1 0.03,0.15c0.02,0.05 0.05,0.09 0.08,0.12c0.04,0.04 0.07,0.06 0.12,0.08c0.05,0.02 0.1,0.03 0.15,0.03c0.04,0 0.07,-0.01 0.08,-0.04c0.02,-0.02 0.03,-0.05 0.03,-0.08c-0,-0.03 -0,-0.05 -0.03,-0.07l0.01,0.01Z" style="fill:#d71d24;fill-rule:nonzero;"/></g><g><path d="M0.63,21.59l-0,-3.22l0.99,0c0.2,0 0.36,0.03 0.48,0.09c0.12,0.06 0.21,0.16 0.29,0.29c0.07,0.13 0.11,0.28 0.11,0.44c0,0.15 -0.03,0.28 -0.1,0.4c-0.06,0.12 -0.16,0.21 -0.27,0.29c0.15,0.06 0.27,0.15 0.36,0.28c0.09,0.13 0.13,0.3 0.13,0.5c0,0.2 -0.04,0.37 -0.12,0.51c-0.08,0.15 -0.19,0.25 -0.32,0.32c-0.13,0.07 -0.32,0.1 -0.55,0.1l-1.01,0l0.01,0Zm0.34,-1.87l0.58,0c0.15,0 0.26,-0.01 0.32,-0.03c0.09,-0.03 0.16,-0.08 0.21,-0.15c0.05,-0.07 0.07,-0.17 0.07,-0.3c-0,-0.12 -0.02,-0.21 -0.07,-0.29c-0.04,-0.08 -0.1,-0.13 -0.18,-0.16c-0.07,-0.03 -0.21,-0.04 -0.4,-0.04l-0.53,0l-0,0.97Zm0.01,1.49l0.66,0c0.14,0 0.25,-0.01 0.32,-0.04c0.1,-0.04 0.18,-0.1 0.23,-0.19c0.05,-0.09 0.08,-0.2 0.08,-0.33c-0,-0.12 -0.03,-0.22 -0.08,-0.31c-0.05,-0.08 -0.12,-0.15 -0.2,-0.18c-0.08,-0.04 -0.22,-0.06 -0.4,-0.06l-0.61,0l-0,1.11Z" style="fill:#231f20;fill-rule:nonzero;"/><path d="M3.06,19.26l0.32,0l-0,1.78l0.9,-1.78l0.35,0l-0,2.33l-0.32,0l0,-1.77l-0.9,1.77l-0.35,0l0,-2.33Z" style="fill:#231f20;fill-rule:nonzero;"/><path d="M5.12,19.26l0.32,0l-0,1.01c0.1,0 0.18,-0.02 0.22,-0.07c0.04,-0.05 0.1,-0.19 0.18,-0.42c0.06,-0.19 0.11,-0.31 0.16,-0.37c0.04,-0.06 0.08,-0.1 0.14,-0.12c0.06,-0.02 0.14,-0.03 0.26,-0.03l0.05,0l-0,0.33l-0.1,0c-0.07,0 -0.12,0.01 -0.15,0.04c-0.03,0.03 -0.05,0.07 -0.08,0.14c-0.07,0.24 -0.13,0.39 -0.17,0.46c-0.04,0.07 -0.11,0.13 -0.2,0.18c0.14,0.05 0.28,0.2 0.41,0.47l0.36,0.72l-0.36,0l-0.35,-0.72c-0.07,-0.15 -0.13,-0.24 -0.19,-0.29c-0.05,-0.05 -0.12,-0.07 -0.19,-0.07l0,1.08l-0.32,0l0,-2.33l0.01,-0.01Z" style="fill:#231f20;fill-rule:nonzero;"/><path d="M6.61,20.43c0,-0.4 0.08,-0.71 0.25,-0.91c0.17,-0.21 0.38,-0.31 0.64,-0.31c0.26,0 0.47,0.1 0.64,0.31c0.17,0.2 0.26,0.5 0.26,0.89c-0,0.42 -0.08,0.73 -0.25,0.94c-0.17,0.21 -0.38,0.31 -0.64,0.31c-0.26,0 -0.47,-0.1 -0.64,-0.31c-0.17,-0.21 -0.26,-0.51 -0.26,-0.91l0,-0.01Zm0.33,0c0,0.3 0.05,0.53 0.17,0.67c0.11,0.15 0.25,0.22 0.41,0.22c0.15,0 0.28,-0.07 0.39,-0.22c0.11,-0.15 0.16,-0.37 0.16,-0.67c-0,-0.3 -0.06,-0.52 -0.16,-0.67c-0.11,-0.15 -0.25,-0.22 -0.41,-0.22c-0.15,0 -0.29,0.07 -0.39,0.22c-0.11,0.15 -0.16,0.37 -0.16,0.67l-0.01,0Z" style="fill:#231f20;fill-rule:nonzero;"/><path d="M8.79,19.26l0.32,0l-0,0.97l0.9,0l-0,-0.97l0.32,0l-0,2.33l-0.32,0l-0,-1.04l-0.9,0l-0,1.04l-0.32,0l-0,-2.33Z" style="fill:#231f20;fill-rule:nonzero;"/><path d="M12.07,21.31c-0.11,0.11 -0.22,0.2 -0.34,0.25c-0.12,0.06 -0.24,0.09 -0.36,0.09c-0.2,0 -0.36,-0.06 -0.48,-0.18c-0.12,-0.12 -0.18,-0.28 -0.18,-0.49c-0,-0.13 0.03,-0.25 0.08,-0.36c0.06,-0.1 0.13,-0.19 0.23,-0.24c0.1,-0.05 0.24,-0.1 0.44,-0.13c0.26,-0.04 0.46,-0.09 0.58,-0.14l-0,-0.1c-0,-0.16 -0.03,-0.27 -0.08,-0.34c-0.08,-0.09 -0.2,-0.14 -0.37,-0.14c-0.15,0 -0.26,0.03 -0.34,0.09c-0.08,0.06 -0.13,0.18 -0.17,0.35l-0.32,-0.05c0.04,-0.25 0.14,-0.43 0.28,-0.55c0.14,-0.11 0.34,-0.17 0.59,-0.17c0.2,0 0.36,0.04 0.47,0.11c0.11,0.08 0.19,0.17 0.22,0.28c0.03,0.11 0.04,0.27 0.04,0.49l-0,0.53c-0,0.37 -0,0.6 0.02,0.7c0.01,0.1 0.04,0.19 0.08,0.28l-0.34,0c-0.03,-0.08 -0.06,-0.18 -0.07,-0.29l0.02,0.01Zm-0.03,-0.88c-0.12,0.06 -0.29,0.11 -0.53,0.15c-0.14,0.02 -0.23,0.05 -0.29,0.08c-0.05,0.03 -0.1,0.07 -0.13,0.13c-0.03,0.05 -0.04,0.12 -0.04,0.19c0,0.11 0.03,0.2 0.1,0.27c0.07,0.07 0.16,0.1 0.29,0.1c0.12,0 0.22,-0.03 0.32,-0.09c0.09,-0.06 0.16,-0.14 0.21,-0.24c0.05,-0.1 0.07,-0.25 0.07,-0.44l-0,-0.15Z" style="fill:#231f20;fill-rule:nonzero;"/><path d="M12.88,19.26l0.75,0c0.17,0 0.3,0.02 0.39,0.05c0.09,0.03 0.17,0.1 0.24,0.2c0.07,0.1 0.11,0.22 0.11,0.37c0,0.22 -0.08,0.39 -0.23,0.5c0.21,0.09 0.32,0.28 0.32,0.56c0,0.18 -0.05,0.33 -0.16,0.46c-0.11,0.13 -0.29,0.19 -0.55,0.19l-0.86,0l-0,-2.33l-0.01,0Zm0.32,0.98l0.35,0c0.14,0 0.23,0 0.28,-0.03c0.05,-0.02 0.1,-0.05 0.14,-0.11c0.04,-0.05 0.06,-0.12 0.06,-0.2c-0,-0.12 -0.04,-0.21 -0.11,-0.25c-0.07,-0.05 -0.19,-0.07 -0.37,-0.07l-0.36,0l-0,0.65l0.01,0.01Zm-0,1.03l0.43,0c0.18,0 0.31,-0.03 0.38,-0.08c0.07,-0.06 0.11,-0.14 0.11,-0.26c0,-0.13 -0.04,-0.22 -0.11,-0.27c-0.07,-0.05 -0.21,-0.08 -0.41,-0.08l-0.4,0l-0,0.7l-0,-0.01Z" style="fill:#231f20;fill-rule:nonzero;"/><path d="M16.15,20.84l0.33,0.05c-0.06,0.25 -0.16,0.44 -0.3,0.56c-0.15,0.13 -0.33,0.19 -0.54,0.19c-0.27,0 -0.49,-0.1 -0.66,-0.31c-0.17,-0.21 -0.25,-0.5 -0.25,-0.89c0,-0.39 0.08,-0.71 0.25,-0.92c0.17,-0.21 0.38,-0.32 0.64,-0.32c0.26,0 0.45,0.1 0.62,0.31c0.16,0.21 0.25,0.51 0.25,0.9l0,0.11l-1.43,0c0.01,0.26 0.07,0.46 0.18,0.59c0.11,0.13 0.24,0.2 0.4,0.2c0.24,0 0.41,-0.16 0.51,-0.48l0,0.01Zm-1.07,-0.64l1.07,0c-0.01,-0.2 -0.06,-0.35 -0.13,-0.45c-0.1,-0.14 -0.24,-0.22 -0.4,-0.22c-0.14,0 -0.27,0.06 -0.37,0.18c-0.1,0.12 -0.16,0.28 -0.17,0.49Z" style="fill:#231f20;fill-rule:nonzero;"/><path d="M16.9,19.26l0.32,0l0,2.01l0.9,0l0,-2.01l0.32,0l0,2.01l0.21,0l0,1.22l-0.27,0l-0,-0.89l-1.49,0l-0,-2.33l0.01,-0.01Z" style="fill:#231f20;fill-rule:nonzero;"/><path d="M19,19.26l0.32,0l-0,0.91l0.41,0c0.3,0 0.51,0.07 0.64,0.21c0.13,0.14 0.2,0.31 0.2,0.51c-0,0.19 -0.06,0.35 -0.18,0.49c-0.12,0.14 -0.31,0.21 -0.58,0.21l-0.81,0l-0,-2.33Zm0.32,2.01l0.34,0c0.25,0 0.4,-0.04 0.47,-0.12c0.07,-0.08 0.1,-0.17 0.1,-0.26c-0,-0.12 -0.04,-0.22 -0.12,-0.29c-0.08,-0.07 -0.22,-0.1 -0.41,-0.1l-0.38,0l-0,0.77Z" style="fill:#231f20;fill-rule:nonzero;"/><path d="M21.03,19.71l0,-0.45l0.37,0l0,0.45l-0.37,0Zm0,1.88l0,-0.45l0.37,0l0,0.45l-0.37,0Z" style="fill:#231f20;fill-rule:nonzero;"/></g></g></g></svg>