<svg width="17" height="21" viewBox="0 0 17 21" fill="none" xmlns="http://www.w3.org/2000/svg">
<path d="M13.4375 3C13.1641 3 12.9297 3.03906 12.6953 3.11719C12.1875 2.29688 11.2891 1.75 10.3125 1.75C10.0391 1.75 9.80469 1.78906 9.57031 1.86719C9.0625 1.04688 8.16406 0.5 7.1875 0.5C6.17188 0.5 5.27344 1.04688 4.76562 1.86719C4.53125 1.78906 4.29688 1.75 4.0625 1.75C2.5 1.75 1.25 3.03906 1.25 4.5625V7.0625C1.25 7.33594 1.28906 7.57031 1.32812 7.80469C0.507812 8.42969 0 9.40625 0 10.5V13.9766C0 15.0312 0.46875 16.0469 1.28906 16.6719L2.5 17.6094V19.5625C2.5 20.1094 2.89062 20.5 3.4375 20.5C3.94531 20.5 4.375 20.1094 4.375 19.5625V17.1016C4.375 16.5156 3.86719 16.2812 3.78906 16.2422L2.46094 15.1875C2.07031 14.9141 1.875 14.4453 1.875 13.9766V10.5C1.875 9.64062 2.53906 8.9375 3.4375 8.9375H6.71875C7.30469 8.9375 7.8125 9.44531 7.8125 10.0312C7.8125 10.6562 7.30469 11.125 6.71875 11.125H4.6875C4.14062 11.125 3.75 11.5547 3.75 12.0625C3.75 12.6094 4.14062 13 4.6875 13H6.71875C8.00781 13 9.10156 12.1797 9.49219 11.0078C9.76562 11.0859 10 11.125 10.3125 11.125C10.8594 11.125 11.4062 10.9688 11.875 10.6562C12.3047 10.9688 12.8516 11.125 13.4375 11.125C13.75 11.125 14.0625 11.0859 14.375 10.9688V12.6875C14.375 14.2109 13.5938 15.5781 12.3047 16.3984C12.0312 16.5547 11.875 16.8672 11.875 17.1797V19.5625C11.875 20.1094 12.2656 20.5 12.8125 20.5C13.3203 20.5 13.75 20.1094 13.75 19.5625V17.6875C15.3125 16.5156 16.25 14.6797 16.25 12.7266V5.85156C16.25 4.28906 14.9609 3 13.4375 3ZM6.25 3.3125C6.25 2.80469 6.64062 2.375 7.1875 2.375C7.69531 2.375 8.125 2.80469 8.125 3.3125V7.0625C8.125 7.21875 8.08594 7.29688 8.04688 7.41406C7.61719 7.21875 7.1875 7.0625 6.71875 7.0625H6.25V3.3125ZM3.125 7.0625V4.5625C3.125 4.05469 3.51562 3.625 4.0625 3.625C4.57031 3.625 5 4.05469 5 4.5625V7.0625H3.4375C3.32031 7.0625 3.20312 7.10156 3.125 7.10156C3.125 7.10156 3.125 7.10156 3.125 7.0625ZM11.25 8.3125C11.25 8.85938 10.8203 9.25 10.3125 9.25C9.76562 9.25 9.375 8.85938 9.375 8.3125V4.5625C9.375 4.05469 9.76562 3.625 10.3125 3.625C10.8203 3.625 11.25 4.05469 11.25 4.5625V8.3125ZM13.4375 9.25C12.8906 9.25 12.5 8.85938 12.5 8.3125V5.8125C12.5 5.30469 12.8906 4.875 13.4375 4.875C13.9453 4.875 14.375 5.30469 14.375 5.8125V8.3125C14.375 8.85938 13.9453 9.25 13.4375 9.25Z" fill="#009664"/>
</svg>
