<svg width="91" height="21" viewBox="0 0 91 21" fill="none" xmlns="http://www.w3.org/2000/svg">
<path d="M20.8996 0H0V20.8997H20.8996V0Z" fill="#B8B8B8"/>
<path d="M23.625 0.100342H28.4016V7.43529H33.6376V0.100342H38.506V20.9999H33.6376V12.4592H28.4016V20.8995H23.625V0.100342Z" fill="#B8B8B8"/>
<path d="M41.0293 0.100586H45.8978V21.0002H41.0293V0.100586Z" fill="#B8B8B8"/>
<path d="M47.3682 0.100342H51.9611L53.6145 11.7559L56.0028 0.100342H60.5958L62.9841 11.7559L64.6375 0.100342H69.2304L65.8317 20.9999H61.1469L58.3912 7.83723L55.6354 20.9999H50.9506L47.3682 0.100342Z" fill="#B8B8B8"/>
<path d="M69.1387 0.100586H73.7316L75.385 11.7561L77.7734 0.100586H82.3663L84.7546 11.7561L86.408 0.100586H91.0009L87.6022 21.0002H82.9174L80.1617 7.83747L77.4059 21.0002H72.7211L69.1387 0.100586Z" fill="#B8B8B8"/>
</svg>
