<svg width="77" height="18" viewBox="0 0 77 18" fill="none" xmlns="http://www.w3.org/2000/svg">
<path d="M17.5301 0H0V17.914H17.5301V0Z" fill="#65AAC2"/>
<path d="M19.8159 0.0859375H23.8224V6.37304H28.2142V0.0859375H32.2978V17.9999H28.2142V10.6793H23.8224V17.9138H19.8159V0.0859375Z" fill="#A5A5A5"/>
<path d="M34.4146 0.0859375H38.4981V17.9999H34.4146V0.0859375Z" fill="#A5A5A5"/>
<path d="M39.7314 0.0859375H43.5839L44.9707 10.0764L46.974 0.0859375H50.8264L52.8297 10.0764L54.2165 0.0859375H58.069L55.2182 17.9999H51.2887L48.9773 6.71756L46.6658 17.9999H42.7363L39.7314 0.0859375Z" fill="#65AAC2"/>
<path d="M57.9917 0.0859375H61.8441L63.231 10.0764L65.2343 0.0859375H69.0867L71.0899 10.0764L72.4768 0.0859375H76.3292L73.4784 17.9999H69.549L67.2375 6.71756L64.9261 17.9999H60.9966L57.9917 0.0859375Z" fill="#65AAC2"/>
</svg>
