<svg
  viewbox="0 0 24 24"
  fill="none"
  xmlns="http://www.w3.org/2000/svg"
>
  <path
    d="M12.027 5.813c-3.429 0-6.16 2.785-6.16 6.16a6.128 6.128 0 0 0 6.16 6.16c3.375 0 6.16-2.731 6.16-6.16 0-3.375-2.785-6.16-6.16-6.16Zm0 10.178a4.012 4.012 0 0 1-4.018-4.018c0-2.196 1.768-3.964 4.018-3.964a3.955 3.955 0 0 1 3.964 3.964c0 2.25-1.768 4.018-3.964 4.018Zm7.821-10.393a1.44 1.44 0 0 0-1.446-1.446 1.44 1.44 0 0 0-1.447 1.446 1.44 1.44 0 0 0 1.447 1.447 1.44 1.44 0 0 0 1.446-1.447Zm4.072 1.447c-.108-1.929-.536-3.643-1.929-5.036C20.598.616 18.884.188 16.955.08c-1.982-.107-7.928-.107-9.91 0-1.929.107-3.59.536-5.036 1.929C.616 3.402.188 5.116.08 7.045c-.107 1.982-.107 7.928 0 9.91.107 1.929.536 3.59 1.929 5.036 1.446 1.393 3.107 1.822 5.036 1.929 1.982.107 7.928.107 9.91 0 1.929-.108 3.643-.536 5.036-1.929 1.393-1.446 1.822-3.107 1.929-5.036.107-1.982.107-7.928 0-9.91Zm-2.572 12c-.375 1.071-1.232 1.875-2.25 2.303-1.607.643-5.357.482-7.071.482-1.768 0-5.518.161-7.072-.482a4.062 4.062 0 0 1-2.303-2.303c-.643-1.554-.482-5.304-.482-7.072 0-1.714-.161-5.464.482-7.071a4.132 4.132 0 0 1 2.303-2.25c1.554-.643 5.304-.482 7.072-.482 1.714 0 5.464-.161 7.071.482 1.018.375 1.822 1.232 2.25 2.25.643 1.607.482 5.357.482 7.071 0 1.768.161 5.518-.482 7.072Z"
    fill="currentColor"
  />
</svg>