<svg width="20" height="21" viewBox="0 0 20 21" fill="none" xmlns="http://www.w3.org/2000/svg">
<path d="M12.5 6.75H7.5C6.79688 6.75 6.25 7.33594 6.25 8V13C6.25 13.7031 6.79688 14.25 7.5 14.25H12.5C13.1641 14.25 13.75 13.7031 13.75 13V8C13.75 7.33594 13.1641 6.75 12.5 6.75ZM11.875 12.375H8.125V8.625H11.875V12.375ZM19.0625 11.4375C19.5703 11.4375 20 11.0469 20 10.5C20 9.99219 19.5703 9.5625 19.0625 9.5625H17.5V7.6875H19.0625C19.5703 7.6875 20 7.29688 20 6.75C20 6.24219 19.5703 5.8125 19.0625 5.8125H17.5V5.5C17.5 4.13281 16.3672 3 15 3H14.6875V1.4375C14.6875 0.929688 14.2578 0.5 13.75 0.5C13.2031 0.5 12.8125 0.929688 12.8125 1.4375V3H10.9375V1.4375C10.9375 0.929688 10.5078 0.5 10 0.5C9.45312 0.5 9.0625 0.929688 9.0625 1.4375V3H7.1875V1.4375C7.1875 0.929688 6.75781 0.5 6.25 0.5C5.70312 0.5 5.3125 0.929688 5.3125 1.4375V3H5C3.59375 3 2.5 4.13281 2.5 5.5V5.8125H0.9375C0.390625 5.8125 0 6.24219 0 6.75C0 7.29688 0.390625 7.6875 0.9375 7.6875H2.5V9.5625H0.9375C0.390625 9.5625 0 9.99219 0 10.5C0 11.0469 0.390625 11.4375 0.9375 11.4375H2.5V13.3125H0.9375C0.390625 13.3125 0 13.7422 0 14.25C0 14.7969 0.390625 15.1875 0.9375 15.1875H2.5V15.5C2.5 16.9062 3.59375 18 5 18H5.3125V19.5625C5.3125 20.1094 5.70312 20.5 6.25 20.5C6.75781 20.5 7.1875 20.1094 7.1875 19.5625V18H9.0625V19.5625C9.0625 20.1094 9.45312 20.5 10 20.5C10.5078 20.5 10.9375 20.1094 10.9375 19.5625V18H12.8125V19.5625C12.8125 20.1094 13.2031 20.5 13.75 20.5C14.2578 20.5 14.6875 20.1094 14.6875 19.5625V18H15C16.3672 18 17.5 16.9062 17.5 15.5V15.1875H19.0625C19.5703 15.1875 20 14.7969 20 14.25C20 13.7422 19.5703 13.3125 19.0625 13.3125H17.5V11.4375H19.0625ZM15.625 15.5C15.625 15.8516 15.3125 16.125 15 16.125H5C4.64844 16.125 4.375 15.8516 4.375 15.5V5.5C4.375 5.1875 4.64844 4.875 5 4.875H15C15.3125 4.875 15.625 5.1875 15.625 5.5V15.5Z" fill="#009664"/>
</svg>
