<svg width="69" height="21" viewBox="0 0 69 21" fill="none" xmlns="http://www.w3.org/2000/svg">
<path fill-rule="evenodd" clip-rule="evenodd" d="M68.941 8.84959V6.96168C68.9213 6.7064 68.9213 6.44999 68.941 6.19472L68.8328 6.03739H66.9351V1.51426H66.8663L65.883 1.82892L65.0472 2.07474L64.1721 2.31073L63.0314 2.59588L62.9331 2.76304V6.06689H61.6647L61.5073 6.22421V8.84959L61.645 9.00692H62.9331V17.1092C62.9445 17.5529 63.0005 17.9943 63.1003 18.4268C63.1968 18.7804 63.3567 19.1136 63.5723 19.4101C63.7904 19.6955 64.0648 19.9332 64.3785 20.1082C64.6673 20.2738 64.9787 20.3964 65.3028 20.4721C65.5868 20.5426 65.8763 20.5887 66.1681 20.6097H67.8496C68.1828 20.5703 68.5119 20.5012 68.8328 20.4032L69 20.1869V18.2203C68.9803 17.9749 68.9803 17.7283 69 17.4829L68.8328 17.3649C68.5681 17.5426 68.2569 17.6383 67.938 17.6402C67.6826 17.6517 67.4315 17.5714 67.2301 17.414C67.0533 17.2479 66.9242 17.0374 66.8564 16.8044C66.7779 16.5217 66.7285 16.2318 66.7089 15.9391V9.05608H68.5772L68.941 8.84959ZM51.8613 17.0011V19.7936L51.999 20.0394C52.4011 20.2166 52.8192 20.3549 53.2477 20.4524C53.6586 20.5506 54.0759 20.6197 54.4965 20.6589C54.8764 20.6786 55.2572 20.6786 55.6371 20.6589C56.0463 20.6884 56.4571 20.6884 56.8662 20.6589C57.3271 20.5914 57.7769 20.4624 58.2035 20.2754C58.6692 20.0693 59.0952 19.7831 59.4621 19.4298C59.916 19.0055 60.2689 18.4846 60.4946 17.9057C60.7211 17.3293 60.8378 16.7157 60.8387 16.0964C60.8465 15.5594 60.7531 15.0256 60.5634 14.5232C60.4064 14.0986 60.1694 13.708 59.8653 13.3727C59.5679 13.0573 59.2384 12.7738 58.882 12.5271C58.5378 12.2911 58.1937 12.0649 57.8495 11.8683C57.5054 11.6716 56.9941 11.357 56.6892 11.1505C56.4406 10.9802 56.2242 10.7671 56.0501 10.5212C55.9195 10.3099 55.8504 10.0665 55.8504 9.81813C55.8504 9.56978 55.9195 9.32634 56.0501 9.11508C56.1783 8.88981 56.3745 8.71084 56.6106 8.60377C56.9449 8.45725 57.3076 8.38673 57.6725 8.39728C58.0699 8.38706 58.466 8.44697 58.8426 8.57427C59.1222 8.66729 59.3871 8.79973 59.6293 8.96759C59.8007 9.08478 59.9619 9.21636 60.1111 9.3609L60.2979 9.30191V6.47987L60.1799 6.29304C59.8253 6.15848 59.4603 6.05324 59.0885 5.97839C58.7346 5.90277 58.3768 5.84697 58.0167 5.81123H57.0334C56.5727 5.80936 56.1125 5.84223 55.6568 5.90956C55.2089 5.97762 54.7701 6.09638 54.349 6.26355C53.9267 6.42685 53.5345 6.65948 53.1887 6.95185C52.8628 7.22825 52.5896 7.56139 52.3824 7.93514C52.1973 8.2421 52.0551 8.57293 51.9596 8.91842C51.8826 9.19851 51.83 9.48473 51.8023 9.77388V10.3639C51.8076 10.9097 51.9143 11.4499 52.1169 11.9568C52.2842 12.3918 52.5309 12.792 52.8446 13.1367C53.1709 13.5075 53.5406 13.8376 53.9459 14.12C54.3687 14.4052 54.8308 14.6903 55.3323 14.9853C55.5683 15.123 55.8043 15.2705 56.0206 15.4278C56.2225 15.5754 56.3958 15.7587 56.5319 15.9686C56.6684 16.1938 56.7399 16.4525 56.7384 16.7159C56.737 16.8699 56.7104 17.0227 56.6597 17.1682C56.5997 17.3471 56.5026 17.5113 56.3746 17.65C56.2163 17.8174 56.021 17.9454 55.8043 18.0237C55.4902 18.1408 55.1559 18.1943 54.821 18.181C54.409 18.1821 53.9998 18.1122 53.6115 17.9745C53.2965 17.8596 52.9961 17.7078 52.7168 17.5222C52.5064 17.3857 52.306 17.2346 52.1169 17.0699L51.8613 17.0011ZM45.9616 10.8162V11.7995C45.9487 12.2606 45.906 12.7204 45.8337 13.1761C45.7658 13.6733 45.6672 14.1659 45.5387 14.651C45.4146 15.1206 45.233 15.573 44.9979 15.9981C44.7928 16.3877 44.5 16.7243 44.1425 16.9814C43.9504 17.116 43.7379 17.2189 43.5132 17.2862C42.9567 17.4497 42.36 17.4079 41.8317 17.1682C41.5443 17.0663 41.2778 16.9131 41.0451 16.7159C40.8701 16.5391 40.7181 16.3409 40.5928 16.1259C40.5044 15.977 40.4256 15.8227 40.3568 15.6638C40.1688 15.2504 40.0238 14.8188 39.9242 14.3757C39.8161 13.919 39.7373 13.4559 39.6882 12.9892C39.6882 12.5369 39.6095 12.1141 39.5899 11.7405C39.5702 11.3668 39.5899 11.0718 39.5899 10.8653V9.62639C39.6028 9.1411 39.6554 8.65768 39.7472 8.18096C39.8247 7.68547 39.9364 7.19593 40.0815 6.71586C40.22 6.26695 40.415 5.83743 40.6616 5.43758C40.8883 5.07334 41.19 4.7616 41.5466 4.52313C41.9078 4.30817 42.3183 4.18983 42.7385 4.1795C43.1587 4.16917 43.5745 4.26719 43.9458 4.46413C44.2612 4.65361 44.5353 4.90437 44.7521 5.20159C44.9672 5.50732 45.1454 5.83737 45.2831 6.18488C45.4208 6.52917 45.5293 6.8844 45.6076 7.24683C45.6862 7.60082 45.7354 7.91547 45.7747 8.23012C45.8141 8.54477 45.8731 9.09542 45.8927 9.5379C45.9124 9.98037 45.8927 10.413 45.8927 10.8555M42.8937 0.983288C41.7074 0.964259 40.5306 1.19893 39.4424 1.67159C38.4708 2.11475 37.6232 2.79013 36.9743 3.63817C36.2771 4.5827 35.7726 5.65519 35.4895 6.79452C35.1409 8.17306 34.9723 9.59097 34.9881 11.0128C34.9703 12.4438 35.1523 13.8702 35.5289 15.2508C35.8155 16.322 36.3137 17.325 36.994 18.2007C37.4528 18.7764 38.0044 19.2716 38.6262 19.6658C39.1508 19.9913 39.7162 20.2459 40.3077 20.4229C40.7852 20.5669 41.276 20.6625 41.7728 20.708C42.1002 20.7277 42.4286 20.7277 42.756 20.708C44.5285 20.787 46.2712 20.2329 47.6725 19.1446C49.0215 17.9714 49.9359 16.3781 50.2684 14.6215C50.404 14.016 50.496 13.4015 50.5437 12.7827C50.6027 12.1534 50.6322 11.5241 50.6322 10.9047C50.6354 10.156 50.5993 9.40766 50.524 8.66277C50.4546 7.99796 50.3296 7.34013 50.1504 6.69619C49.7803 5.02008 48.8721 3.51104 47.5643 2.39922C46.2161 1.40508 44.567 0.905112 42.8937 0.983288ZM34.0441 8.84959V6.19472L33.8868 6.03739H31.9202V1.51426L31.7334 1.3766L30.7501 1.69126L29.8848 1.96658L29.0097 2.20257L27.8691 2.48772L27.7314 2.67454V5.94889H26.5515V8.84959L26.6891 9.00692H28.0166V17.1092C28.0279 17.5529 28.0839 17.9943 28.1837 18.4268C28.2802 18.7804 28.4402 19.1136 28.6557 19.4101C28.8739 19.6955 29.1483 19.9332 29.462 20.1082C29.7507 20.2738 30.0621 20.3964 30.3863 20.4721C30.6702 20.5426 30.9597 20.5887 31.2516 20.6097H31.8809C32.2784 20.6195 32.6761 20.5998 33.0707 20.5507C33.4039 20.5113 33.733 20.4422 34.0539 20.3442L34.2113 20.1279V18.2203C34.1916 17.9749 34.1916 17.7283 34.2113 17.4829L34.0441 17.3452C33.7794 17.5229 33.4682 17.6187 33.1493 17.6205C32.8939 17.632 32.6428 17.5518 32.4413 17.3944C32.2557 17.2356 32.125 17.0222 32.0677 16.7847C31.9892 16.5021 31.9398 16.2121 31.9202 15.9194V9.03642H33.7885L34.0441 8.84959ZM25.2633 20.2459C25.1748 18.8398 25.106 17.4337 25.0667 16.0374C25.0274 14.6412 25.0667 13.2351 25.0667 11.829V5.89973L24.8995 5.7424L23.7097 5.99806L22.7756 6.17505L21.8415 6.32254L20.6517 6.47004L20.5141 6.6372C20.5175 7.01808 20.5637 7.39738 20.6517 7.76798C20.6897 8.23591 20.6897 8.70615 20.6517 9.17408C20.6517 9.70505 20.6517 10.354 20.7107 11.1407C20.7697 11.9273 20.7107 12.8122 20.7107 13.8742V19.0561C20.7402 19.4948 20.7402 19.935 20.7107 20.3737L20.8779 20.5311L22.0972 20.4721H25.1552L25.2633 20.2459ZM24.8504 3.38251V0.147493L24.7225 0L23.7392 0.157326L22.933 0.265488L22.0873 0.363817L20.8779 0.491644L20.7107 0.64897V3.93315L20.8779 4.10031L21.989 3.93315L22.8248 3.80533L23.6606 3.69716L24.7029 3.57917L24.8504 3.38251ZM7.86898 5.7424L7.52482 4.3363L7.3085 3.35301L7.15118 2.68438C7.12375 2.48151 7.08101 2.281 7.02335 2.08457L6.88569 1.38644L6.71853 1.21928H0.985959L0.808967 1.3766V4.77878C0.808967 5.27042 0.690972 5.89973 0.671306 6.52903L0.425484 12.4779C0.437148 12.9084 0.414131 13.3392 0.356654 13.766C0.287824 14.1397 0.356654 14.4937 0.297657 14.828L0.238659 15.8113C0.248436 16.1892 0.228711 16.5672 0.179662 16.9421C0.120665 17.355 0.179662 17.8368 0.100999 18.3777C0.0227859 19.0301 -0.0100693 19.6872 0.00267031 20.3442L0.140331 20.5016H3.67034L3.808 20.3344V14.4347C3.808 13.7464 3.808 12.9401 3.86699 12.0059L4.03415 5.76207L6.00073 14.6707C6.14822 15.3098 6.29571 15.9489 6.43337 16.6372L6.86602 18.6038L7.26917 20.4327L7.43633 20.5901H10.8188L11.0057 20.4229C11.0778 20.0361 11.1564 19.6527 11.2417 19.2724C11.3302 18.889 11.4088 18.4662 11.5071 18.0138C11.6055 17.5615 11.7136 17.0306 11.8415 16.4897L12.2839 14.5232L14.339 5.67357L14.398 12.7827V20.3246L14.5652 20.4819H18.813L18.9506 20.3147C18.9506 19.7936 18.8916 19.3314 18.8621 18.8693C18.8326 18.4072 18.813 17.9745 18.7835 17.5124C18.754 17.0502 18.7343 16.5291 18.7048 15.9883C18.6753 15.4475 18.6458 14.7788 18.6065 14.0217C18.5672 13.2646 18.5278 12.4091 18.4787 11.4061L18.4295 7.178C18.4447 6.66897 18.4217 6.1595 18.3607 5.65391C18.2918 5.22126 18.3607 4.83778 18.3115 4.50346C18.2918 4.17599 18.2918 3.84764 18.3115 3.52017V1.35694L18.1247 1.18978H12.4511L12.2839 1.3471C12.2151 1.73059 12.1463 2.05507 12.0873 2.33039C12.0283 2.60571 11.9791 2.88103 11.93 3.12686C11.8808 3.37268 11.8218 3.6185 11.7628 3.87416C11.7038 4.12981 11.6448 4.41496 11.5661 4.71978C11.4875 5.0246 11.4088 5.39825 11.3007 5.8309L9.62906 13.4317L7.86898 5.7424Z" fill="#B8B8B8"/>
</svg>
