<svg width="211" height="18" viewBox="0 0 211 18" fill="none" xmlns="http://www.w3.org/2000/svg">
<path d="M0 18H4.01676V16.8702H1.30011V1.12979H4.01676V0H0V18Z" fill="#B8B8B8"/>
<path d="M20.8399 13.4043H22.1401V0.765958H12.9229V13.4043H14.2424V1.89575H20.8399V13.4043Z" fill="#B8B8B8"/>
<path d="M27.4527 0.765958L26.987 8.23404C26.9482 8.94255 26.9093 9.55532 26.8705 10.0532C26.8317 10.5702 26.7541 10.9915 26.6377 11.317C26.5019 11.6617 26.2884 11.9106 26.0167 12.0638C25.7451 12.217 25.3376 12.2936 24.8137 12.2936V13.4043C25.5704 13.4043 26.172 13.3277 26.5989 13.1362C27.0258 12.9447 27.3751 12.6574 27.6079 12.2362C27.8408 11.8149 27.996 11.2787 28.0736 10.6277C28.1512 9.9766 28.2289 9.19149 28.3065 8.23404L28.6558 1.89575H33.8562V13.4043H35.1563V0.765958H27.4527Z" fill="#B8B8B8"/>
<path d="M48.0381 13.4043H49.4158C48.5232 11.2979 47.6306 9.19149 46.7768 7.08511C45.9036 4.99787 45.0304 2.89149 44.1572 0.765958H42.9347L37.6566 13.4043H39.0149C39.209 12.9447 39.3836 12.4851 39.5777 12.0255C39.7717 11.566 39.9464 11.1064 40.1404 10.6468H46.9126C47.1067 11.1064 47.2813 11.566 47.4754 12.0255C47.65 12.4851 47.844 12.9447 48.0381 13.4043ZM40.6061 9.51702L42.5272 4.88298C42.7018 4.4617 42.8571 4.05957 42.9735 3.69574C43.0899 3.35106 43.2063 3.04468 43.284 2.7766C43.3616 2.47021 43.4392 2.20213 43.4974 1.97234H43.575C43.5168 1.99149 43.575 2.22128 43.7303 2.6617C43.8855 3.12128 44.099 3.69574 44.3706 4.40426C44.6423 5.11277 44.9722 5.91702 45.3409 6.79787C45.6901 7.69787 46.0588 8.59787 46.4469 9.51702H40.6061Z" fill="#B8B8B8"/>
<path d="M53.2802 13.4043H54.5803V1.89575H58.9464V0.765958H48.9142V1.89575H53.2802V13.4043Z" fill="#B8B8B8"/>
<path d="M65.4956 13.4043H66.8151V11.6809C67.9017 11.6617 68.8138 11.566 69.5511 11.3936C70.2885 11.2213 70.8901 10.9532 71.3364 10.5894C71.7827 10.2447 72.1125 9.76596 72.3066 9.19149C72.5006 8.61702 72.5977 7.92766 72.5977 7.08511C72.5977 6.28085 72.5006 5.57234 72.3066 4.99787C72.1125 4.4234 71.7827 3.96383 71.3364 3.6C70.8901 3.25532 70.2885 2.98723 69.5511 2.81489C68.8138 2.64255 67.9017 2.54681 66.8151 2.50851V0.765958L65.4956 0.957447V2.50851C64.3895 2.54681 63.4775 2.64255 62.7401 2.81489C62.0027 2.98723 61.4012 3.25532 60.9549 3.6C60.4892 3.96383 60.1787 4.4234 59.9847 4.99787C59.7906 5.57234 59.6936 6.28085 59.6936 7.08511C59.6936 7.92766 59.7906 8.61702 59.9847 9.19149C60.1787 9.76596 60.4892 10.2447 60.9549 10.5894C61.4012 10.9532 62.0027 11.2213 62.7401 11.3936C63.4775 11.566 64.3895 11.6617 65.4956 11.6809V13.4043ZM60.9937 7.08511C60.9937 6.47234 61.0519 5.93617 61.1877 5.51489C61.3042 5.09362 61.537 4.72979 61.8863 4.4617C62.2162 4.19362 62.6819 3.98298 63.264 3.84894C63.8462 3.73404 64.5836 3.65745 65.4956 3.61915V10.5511C64.5836 10.5511 63.8462 10.4745 63.264 10.3404C62.6819 10.2064 62.2162 9.99574 61.8863 9.72766C61.537 9.45957 61.3042 9.09575 61.1877 8.67447C61.0519 8.25319 60.9937 7.71702 60.9937 7.08511ZM71.2781 7.08511C71.2781 7.71702 71.2005 8.25319 71.0841 8.67447C70.9483 9.09575 70.7154 9.45957 70.3855 9.72766C70.0557 9.99574 69.6094 10.2064 69.0272 10.3404C68.4451 10.4745 67.7077 10.5511 66.8151 10.5511V3.61915C67.7077 3.65745 68.4451 3.73404 69.0272 3.86809C69.6094 4.00213 70.0557 4.19362 70.3855 4.4617C70.7154 4.72979 70.9483 5.09362 71.0841 5.51489C71.2005 5.95532 71.2781 6.47234 71.2781 7.08511Z" fill="#B8B8B8"/>
<path d="M80.5146 13.5957C81.446 13.5957 82.261 13.5 82.9596 13.2702C83.6581 13.0596 84.2209 12.6957 84.6672 12.1979C85.1135 11.7 85.4434 11.0298 85.6568 10.1872C85.8703 9.34468 85.9867 8.31064 85.9867 7.08511C85.9867 5.85957 85.8703 4.84468 85.6568 4.00213C85.4434 3.15957 85.1135 2.48936 84.6672 1.99149C84.2209 1.49362 83.6581 1.12979 82.9596 0.9C82.261 0.689362 81.446 0.574469 80.5146 0.574469C79.5444 0.574469 78.7294 0.689362 78.0308 0.9C77.3322 1.12979 76.7695 1.49362 76.3232 1.99149C75.8769 2.48936 75.547 3.15957 75.3336 4.00213C75.1201 4.84468 75.0231 5.85957 75.0231 7.08511C75.0231 8.31064 75.1201 9.34468 75.3336 10.1872C75.547 11.0298 75.8769 11.7 76.3232 12.1979C76.7695 12.6957 77.3322 13.0596 78.0308 13.2702C78.7294 13.5 79.5444 13.5957 80.5146 13.5957ZM80.5146 12.466C79.7772 12.466 79.1563 12.3894 78.6323 12.1979C78.089 12.0255 77.6621 11.7383 77.3322 11.317C76.983 10.8957 76.7307 10.3404 76.5755 9.65106C76.4202 8.9617 76.3426 8.11915 76.3426 7.08511C76.3426 6.08936 76.4202 5.22766 76.5755 4.5383C76.7307 3.84894 76.983 3.29362 77.3322 2.87234C77.6621 2.45106 78.089 2.16383 78.6323 1.97234C79.1563 1.8 79.7772 1.70426 80.5146 1.70426C81.2326 1.70426 81.8535 1.8 82.3774 1.97234C82.9014 2.16383 83.3283 2.45106 83.6775 2.87234C84.0268 3.29362 84.2791 3.84894 84.4343 4.5383C84.5896 5.22766 84.6866 6.08936 84.6866 7.08511C84.6866 8.11915 84.5896 8.9617 84.4343 9.65106C84.2791 10.3404 84.0268 10.8957 83.6775 11.317C83.3283 11.7383 82.9014 12.0255 82.3774 12.1979C81.8535 12.3894 81.2326 12.466 80.5146 12.466Z" fill="#B8B8B8"/>
<path d="M90.4396 13.4043V9.09575H93.7578C94.4952 9.09575 95.1549 9.0383 95.7177 8.88511C96.261 8.73192 96.7267 8.50213 97.076 8.15745C97.4253 7.83192 97.6969 7.39149 97.8716 6.85532C98.0462 6.31915 98.1432 5.64894 98.1432 4.84468C98.1432 4.07872 98.0462 3.44681 97.8716 2.92979C97.6969 2.41277 97.4253 1.99149 97.076 1.66596C96.7267 1.35958 96.261 1.12979 95.7177 0.976596C95.1549 0.842554 94.4952 0.765958 93.7578 0.765958H89.1201V13.4043H90.4396ZM93.6414 7.96596H90.4396V1.89575H93.6414C94.2041 1.89575 94.6892 1.95319 95.0967 2.04894C95.5042 2.16383 95.8341 2.31702 96.1058 2.54681C96.358 2.7766 96.5521 3.08298 96.6685 3.46596C96.7849 3.84894 96.8431 4.30851 96.8431 4.84468C96.8431 5.4383 96.7849 5.93617 96.6685 6.3383C96.5521 6.74043 96.358 7.06596 96.1058 7.29575C95.8341 7.54468 95.5042 7.71702 95.0967 7.81277C94.6892 7.92766 94.2041 7.96596 93.6414 7.96596Z" fill="#B8B8B8"/>
<path d="M106.494 13.4043H107.872L110.627 6.60638C110.782 6.24255 110.938 5.87872 111.093 5.49575C111.248 5.11277 111.403 4.72979 111.578 4.34681C111.791 3.82979 111.947 3.42766 112.044 3.12128C112.121 2.81489 112.18 2.64255 112.18 2.58511H112.238C112.199 2.7383 112.18 2.91064 112.18 3.10213C112.141 3.44681 112.121 3.96383 112.121 4.65319V13.4043H113.441V0.765958H111.772L107.561 11.2021C107.484 11.3936 107.425 11.5468 107.387 11.6617C107.348 11.7766 107.309 11.8915 107.29 11.9681C107.251 12.083 107.212 12.1596 107.212 12.217H107.154C107.134 12.1596 107.115 12.083 107.076 11.9681C107.037 11.8915 106.999 11.7766 106.96 11.6617C106.921 11.5468 106.863 11.3936 106.805 11.2021C106.707 11.0106 106.63 10.8 106.552 10.5702C106.475 10.3596 106.378 10.1298 106.281 9.88085C105.66 8.34894 105.039 6.83617 104.418 5.3234C103.797 3.82979 103.195 2.29787 102.574 0.765958H100.925V13.4043H102.244V4.65319C102.244 4.32766 102.225 4.04043 102.225 3.77234C102.206 3.50426 102.186 3.29362 102.186 3.10213L102.128 2.58511H102.186C102.186 2.7 102.225 2.85319 102.283 3.00638C102.322 3.15957 102.361 3.33192 102.438 3.54255C102.516 3.75319 102.613 3.98298 102.73 4.23191C103.37 5.70638 104.01 7.21915 104.631 8.78936C105.252 10.3596 105.873 11.8915 106.494 13.4043Z" fill="#B8B8B8"/>
<path d="M126.301 13.4043H127.679C126.786 11.2979 125.893 9.19149 125.04 7.08511C124.166 4.99787 123.293 2.89149 122.42 0.765958H121.197L115.919 13.4043H117.278C117.472 12.9447 117.646 12.4851 117.84 12.0255C118.034 11.566 118.209 11.1064 118.403 10.6468H125.175C125.369 11.1064 125.544 11.566 125.738 12.0255C125.913 12.4851 126.107 12.9447 126.301 13.4043ZM118.869 9.51702L120.79 4.88298C120.965 4.4617 121.12 4.05957 121.236 3.69574C121.353 3.35106 121.469 3.04468 121.547 2.7766C121.624 2.47021 121.702 2.20213 121.76 1.97234H121.838C121.78 1.99149 121.838 2.22128 121.993 2.6617C122.148 3.12128 122.362 3.69574 122.633 4.40426C122.905 5.11277 123.235 5.91702 123.604 6.79787C123.953 7.69787 124.322 8.59787 124.71 9.51702H118.869Z" fill="#B8B8B8"/>
<path d="M140.908 13.5957C141.839 13.5957 142.654 13.5 143.353 13.2702C144.051 13.0596 144.614 12.6957 145.06 12.1979C145.507 11.7 145.836 11.0298 146.05 10.1872C146.263 9.34468 146.38 8.31064 146.38 7.08511C146.38 5.85957 146.263 4.84468 146.05 4.00213C145.836 3.15957 145.507 2.48936 145.06 1.99149C144.614 1.49362 144.051 1.12979 143.353 0.9C142.654 0.689362 141.839 0.574469 140.908 0.574469C139.937 0.574469 139.122 0.689362 138.424 0.9C137.725 1.12979 137.163 1.49362 136.716 1.99149C136.27 2.48936 135.94 3.15957 135.727 4.00213C135.513 4.84468 135.416 5.85957 135.416 7.08511C135.416 8.31064 135.513 9.34468 135.727 10.1872C135.94 11.0298 136.27 11.7 136.716 12.1979C137.163 12.6957 137.725 13.0596 138.424 13.2702C139.122 13.5 139.937 13.5957 140.908 13.5957ZM140.908 12.466C140.17 12.466 139.549 12.3894 139.025 12.1979C138.482 12.0255 138.055 11.7383 137.725 11.317C137.376 10.8957 137.124 10.3404 136.969 9.65106C136.813 8.9617 136.736 8.11915 136.736 7.08511C136.736 6.08936 136.813 5.22766 136.969 4.5383C137.124 3.84894 137.376 3.29362 137.725 2.87234C138.055 2.45106 138.482 2.16383 139.025 1.97234C139.549 1.8 140.17 1.70426 140.908 1.70426C141.626 1.70426 142.247 1.8 142.771 1.97234C143.294 2.16383 143.721 2.45106 144.071 2.87234C144.42 3.29362 144.672 3.84894 144.827 4.5383C144.983 5.22766 145.08 6.08936 145.08 7.08511C145.08 8.11915 144.983 8.9617 144.827 9.65106C144.672 10.3404 144.42 10.8957 144.071 11.317C143.721 11.7383 143.294 12.0255 142.771 12.1979C142.247 12.3894 141.626 12.466 140.908 12.466Z" fill="#B8B8B8"/>
<path d="M158.672 10.3404H157.372C157.372 10.8 157.275 11.1638 157.081 11.4319C156.887 11.7 156.615 11.9106 156.305 12.0638C155.994 12.217 155.626 12.3319 155.218 12.3894C154.791 12.4468 154.384 12.466 153.957 12.466C153.278 12.466 152.696 12.3894 152.21 12.217C151.725 12.0447 151.318 11.7574 151.007 11.3362C150.697 10.9149 150.464 10.3596 150.309 9.67021C150.154 8.98085 150.095 8.11915 150.095 7.06596C150.095 6.03192 150.154 5.17021 150.309 4.48085C150.464 3.79149 150.697 3.25532 151.007 2.83404C151.318 2.41277 151.725 2.12553 152.21 1.95319C152.696 1.8 153.278 1.70426 153.976 1.70426C154.403 1.70426 154.83 1.74255 155.238 1.8C155.645 1.85745 156.014 1.95319 156.324 2.10638C156.635 2.25957 156.887 2.48936 157.081 2.75745C157.275 3.02553 157.372 3.38936 157.372 3.82979H158.672C158.672 3.17872 158.536 2.64255 158.284 2.22128C158.032 1.8 157.682 1.47447 157.256 1.22553C156.829 0.995746 156.324 0.823405 155.761 0.727659C155.179 0.631915 154.578 0.574469 153.957 0.574469C153.064 0.574469 152.288 0.689362 151.628 0.9C150.968 1.11064 150.445 1.47447 150.018 1.97234C149.591 2.47021 149.28 3.14043 149.086 3.96383C148.873 4.80638 148.776 5.84043 148.776 7.06596C148.776 8.31064 148.873 9.34468 149.086 10.1872C149.28 11.0298 149.591 11.7 150.018 12.1979C150.445 12.6957 150.968 13.0596 151.628 13.2702C152.269 13.5 153.045 13.5957 153.937 13.5957C154.558 13.5957 155.14 13.5574 155.723 13.4617C156.305 13.366 156.809 13.1936 157.236 12.9447C157.663 12.7149 158.012 12.3702 158.284 11.9489C158.536 11.5277 158.672 10.9915 158.672 10.3404Z" fill="#B8B8B8"/>
<path d="M164.648 13.4043H165.948V1.89575H170.314V0.765958H160.282V1.89575H164.648V13.4043Z" fill="#B8B8B8"/>
<path d="M174.122 13.4043V9.09575H177.44C178.178 9.09575 178.837 9.0383 179.4 8.88511C179.943 8.73192 180.409 8.50213 180.758 8.15745C181.108 7.83192 181.379 7.39149 181.554 6.85532C181.729 6.31915 181.826 5.64894 181.826 4.84468C181.826 4.07872 181.729 3.44681 181.554 2.92979C181.379 2.41277 181.108 1.99149 180.758 1.66596C180.409 1.35958 179.943 1.12979 179.4 0.976596C178.837 0.842554 178.178 0.765958 177.44 0.765958H172.802V13.4043H174.122ZM177.324 7.96596H174.122V1.89575H177.324C177.886 1.89575 178.372 1.95319 178.779 2.04894C179.187 2.16383 179.516 2.31702 179.788 2.54681C180.04 2.7766 180.234 3.08298 180.351 3.46596C180.467 3.84894 180.526 4.30851 180.526 4.84468C180.526 5.4383 180.467 5.93617 180.351 6.3383C180.234 6.74043 180.04 7.06596 179.788 7.29575C179.516 7.54468 179.187 7.71702 178.779 7.81277C178.372 7.92766 177.886 7.96596 177.324 7.96596Z" fill="#B8B8B8"/>
<path d="M184.646 13.4043H185.966V0.765958H184.646V13.4043Z" fill="#B8B8B8"/>
<path d="M189.838 13.4043H194.476C195.213 13.4043 195.873 13.366 196.417 13.2511C196.96 13.1362 197.426 12.9638 197.794 12.6957C198.144 12.4468 198.415 12.1021 198.59 11.6809C198.764 11.2596 198.861 10.7426 198.861 10.1106C198.861 9.15319 198.629 8.44468 198.182 7.96596C197.736 7.50638 197.037 7.2 196.106 7.04681C196.921 6.89362 197.503 6.58723 197.891 6.12766C198.279 5.66809 198.473 4.97872 198.473 4.05957C198.473 2.83404 198.144 1.99149 197.503 1.49362C196.843 1.01489 195.834 0.765958 194.476 0.765958H189.838V13.4043ZM194.36 12.2745H191.158V7.60213H194.36C195.505 7.60213 196.32 7.79362 196.824 8.15745C197.309 8.54043 197.561 9.17234 197.561 10.0532C197.561 10.4745 197.503 10.8191 197.387 11.1064C197.27 11.3936 197.076 11.6234 196.824 11.7957C196.572 11.9681 196.242 12.083 195.834 12.1596C195.427 12.2362 194.942 12.2745 194.36 12.2745ZM194.36 6.49149H191.158V1.89575H194.36C195.369 1.89575 196.106 2.06809 196.533 2.39362C196.96 2.71915 197.173 3.29362 197.173 4.09787C197.173 4.55745 197.115 4.92128 197.018 5.22766C196.902 5.53404 196.746 5.78298 196.514 5.97447C196.281 6.16596 195.99 6.3 195.64 6.3766C195.291 6.45319 194.864 6.49149 194.36 6.49149Z" fill="#B8B8B8"/>
<path d="M206.983 18H211V0H206.983V1.12979H209.7V16.8702H206.983V18Z" fill="#B8B8B8"/>
</svg>
