<svg width="456" height="251" viewBox="0 0 456 251" fill="none" xmlns="http://www.w3.org/2000/svg">
<path d="M24.2779 75.9685H0V109.497H4.42533V198.71H19.8526V109.497H24.2779V75.9685Z" fill="white"/>
<path d="M65.0896 136.417C65.0896 131.162 62.1854 128.258 56.9303 128.258H37.4158C32.1607 128.258 29.2566 131.162 29.2566 136.417V242.841C29.2566 248.096 32.1607 251 37.4158 251H56.9303C62.1854 251 65.0896 248.096 65.0896 242.841V136.417ZM49.6624 217.472H44.6838V161.771H49.6624V217.472Z" fill="white"/>
<path d="M70.0527 100.845V223.572H93.9926V190.059H85.48V100.845H70.0527Z" fill="white"/>
<path d="M134.789 61.3398C134.789 56.0847 131.885 53.1807 126.63 53.1807H107.115C101.86 53.1807 98.9558 56.0847 98.9558 61.3398V167.763C98.9558 173.018 101.86 175.922 107.115 175.922H126.63C131.885 175.922 134.789 173.018 134.789 167.763V61.3398ZM119.377 142.394H114.398V86.6934H119.377V142.394Z" fill="white"/>
<path d="M175.585 91.3188H160.173V109.051H155.194V53.3499H160.173V70.3906H175.585V27.9963C175.585 22.7412 172.681 19.8372 167.425 19.8372H147.911C142.656 19.8372 139.752 22.7412 139.752 27.9963V134.42C139.752 139.675 142.656 142.579 147.911 142.579H167.425C172.681 142.579 175.585 139.675 175.585 134.42V91.3188Z" fill="white"/>
<path d="M189.967 215.797C195.207 215.797 198.818 212.862 199.648 211.525L200.969 209.405V215.797H216.396V101.214C216.396 95.9592 213.492 93.0552 208.237 93.0552H188.722C183.467 93.0552 180.563 95.9592 180.563 101.214V132.422H195.99V126.568H200.969V136.679H191.919C184.497 136.679 180.563 140.597 180.563 148.034V204.442C180.563 209.62 182.192 215.797 189.967 215.797ZM195.99 171.989H200.969V182.284H195.99V171.989Z" fill="white"/>
<path d="M257.73 122.711V67.3789C257.73 64.1214 256.378 62.5848 253.213 62.2314L252.583 62.1699V60.5412L253.213 60.4796C256.409 60.1262 257.899 58.4975 257.899 55.3321V8.15917C257.899 2.90407 254.934 0 249.556 0H221.359V122.742H236.787V78.9339H241.765V122.742H257.73V122.711ZM236.787 43.6234V33.5127H242.303V43.6234H236.787Z" fill="white"/>
<path d="M292.933 61.9394L288.047 53.4421L288.016 53.3806H284.943V69.1766H287.908V58.5436L291.95 65.7808L291.996 65.8424H293.855L297.942 58.5436V69.1766H300.939V53.3806H297.865L292.933 61.9394Z" fill="white"/>
<path d="M311.387 69.3611C315.905 69.3611 319.178 65.9653 319.178 61.2788C319.178 56.5922 315.905 53.1963 311.387 53.1963C306.87 53.1963 303.597 56.5922 303.597 61.2788C303.597 65.9653 306.87 69.3611 311.387 69.3611ZM311.387 56.039C314.169 56.039 316.182 58.2364 316.182 61.2788C316.182 64.3212 314.169 66.5184 311.387 66.5184C308.606 66.5184 306.593 64.3212 306.593 61.2788C306.578 58.2364 308.606 56.039 311.387 56.039Z" fill="white"/>
<path d="M329.412 59.7573H324.817V56.0542H332.884V53.3652H321.852V69.1612H329.412C332.223 69.1612 334.267 67.179 334.267 64.4439C334.267 61.7395 332.223 59.7573 329.412 59.7573ZM329.412 66.503H324.817V62.431H329.412C330.487 62.431 331.271 63.2915 331.271 64.4747C331.271 65.6578 330.487 66.503 329.412 66.503Z" fill="white"/>
<path d="M339.737 53.3806H336.772V69.1766H339.737V53.3806Z" fill="white"/>
<path d="M344.301 69.3609C347.082 69.3609 348.066 65.8883 348.066 56.1003V56.0696H353.259V69.192H356.256V53.396H345.131V56.1003C345.131 63.691 344.731 66.3954 343.579 66.3954C343.318 66.3954 342.811 66.2724 342.457 66.1034L342.288 66.0112V68.9768L342.365 69.0076C342.857 69.1766 343.717 69.3609 344.301 69.3609Z" fill="white"/>
<path d="M371.56 64.4132C371.56 61.6781 369.547 59.696 366.766 59.696H362.479V53.3806H359.513V69.1766H366.766C369.532 69.1766 371.56 67.1791 371.56 64.4132ZM366.766 66.503H362.479V62.3543H366.766C367.811 62.3543 368.564 63.2147 368.564 64.4132C368.564 65.6425 367.826 66.503 366.766 66.503Z" fill="white"/>
<path d="M377.015 62.5079H384.698V69.1766H387.694V53.3806H384.698V59.8189H377.015V53.3806H374.049V69.1766H377.015V62.5079Z" fill="white"/>
<path d="M401.661 69.1766H404.658V53.3806H401.723L393.948 64.3364V53.3806H390.967V69.1766H393.886L401.661 58.2208V69.1766Z" fill="white"/>
<path d="M414.784 52.8581C417.227 52.8581 419.086 51.1372 419.086 48.863V48.74H416.536V48.863C416.536 49.8618 415.783 50.6146 414.784 50.6146C413.724 50.6146 412.971 49.8772 412.971 48.863V48.74H410.42V48.863C410.42 51.1833 412.264 52.8581 414.784 52.8581Z" fill="white"/>
<path d="M418.61 58.2208V69.1766H421.606V53.3806H418.671L410.881 64.3364V53.3806H407.915V69.1766H410.819L418.61 58.2208Z" fill="white"/>
<path d="M292.933 88.6143L288.047 80.117L288.016 80.0557H284.943V95.8517H287.908V85.2185L291.95 92.4557L291.996 92.5172H293.855L297.942 85.2185V95.8517H300.939V80.0557H297.865L292.933 88.6143Z" fill="white"/>
<path d="M315.582 82.7447V80.0557H304.196V95.8517H315.582V93.1779H307.162V89.1828H314.706V86.5093H307.162V82.7447H315.582Z" fill="white"/>
<path d="M325.386 79.533C327.829 79.533 329.688 77.8121 329.688 75.5379V75.415H327.137V75.5379C327.137 76.5367 326.384 77.2897 325.386 77.2897C324.325 77.2897 323.572 76.5521 323.572 75.5379V75.415H321.022V75.5379C321.022 77.8582 322.85 79.533 325.386 79.533Z" fill="white"/>
<path d="M321.483 91.0114V80.0557H318.502V95.8517H321.421L329.212 84.8959V95.8517H332.193V80.0557H329.258L321.483 91.0114Z" fill="white"/>
<path d="M338.416 89.3365H340.521L345.392 95.8056L345.438 95.8517H348.987L342.964 87.9075L348.096 80.2399L348.219 80.0557H344.839L340.383 86.6629H338.416V80.0557H335.45V95.8517H338.416V89.3365Z" fill="white"/>
<path d="M350.816 95.8517H362.217V93.1779H353.781V89.1828H361.326V86.5093H353.781V82.7447H362.217V80.0557H350.816V95.8517Z" fill="white"/>
<path d="M376.953 85.0956C376.953 82.1761 374.817 80.0557 371.883 80.0557H365.137V95.8517H368.103V90.0895H371.883C374.817 90.1049 376.953 87.9997 376.953 85.0956ZM368.103 82.7447H371.883C373.096 82.7447 373.972 83.7281 373.972 85.0956C373.972 86.4632 373.096 87.4465 371.883 87.4465H368.103V82.7447Z" fill="white"/>
<path d="M386.603 82.714C387.97 82.714 389.184 83.2364 390.045 84.1891L390.121 84.2659L392.396 82.3759L392.319 82.2838C390.874 80.7319 388.846 79.8713 386.603 79.8713C382.085 79.8713 378.812 83.2671 378.812 87.9537C378.812 92.6402 382.085 96.0362 386.603 96.0362C388.846 96.0362 390.874 95.1757 392.319 93.6237L392.396 93.5314L390.214 91.7183L390.137 91.6415L390.06 91.7183C389.169 92.671 387.955 93.1935 386.603 93.1935C383.821 93.1935 381.809 90.9961 381.809 87.9537C381.809 84.9266 383.821 82.714 386.603 82.714Z" fill="white"/>
<path d="M401.892 86.3709H397.605V80.0557H394.639V95.8517H401.892C404.673 95.8517 406.686 93.8541 406.686 91.0883C406.686 88.3532 404.673 86.3709 401.892 86.3709ZM401.892 93.1779H397.605V89.0292H401.892C402.937 89.0292 403.69 89.8897 403.69 91.0883C403.69 92.3175 402.952 93.1779 401.892 93.1779Z" fill="white"/>
<path d="M421.821 80.2399L421.944 80.0557H418.579L414.107 86.6629H412.156V80.0557H409.175V95.8517H412.156V89.3365H414.246L419.132 95.8056L419.163 95.8517H422.728L416.689 87.9075L421.821 80.2399Z" fill="white"/>
<path d="M427.522 91.0114V80.0557H424.541V95.8517H427.461L435.236 84.8959V95.8517H438.232V80.0557H435.297L427.522 91.0114Z" fill="white"/>
<path d="M452.246 80.0557L444.455 91.0114V80.0557H441.49V95.8517H444.394L452.184 84.8959V95.8517H455.18V80.0557H452.246Z" fill="white"/>
<path d="M448.374 79.533C450.817 79.533 452.676 77.8121 452.676 75.5379V75.415H450.125V75.5379C450.125 76.5367 449.372 77.2897 448.374 77.2897C447.313 77.2897 446.56 76.5521 446.56 75.5379V75.415H444.01V75.5379C444.01 77.8582 445.838 79.533 448.374 79.533Z" fill="white"/>
<path d="M284.943 122.542H287.908V109.42H295.468V122.542H298.465V106.746H284.943V122.542Z" fill="white"/>
<path d="M308.483 106.746H301.738V122.542H304.703V116.78H308.483C311.418 116.78 313.554 114.675 313.554 111.77C313.569 108.851 311.434 106.746 308.483 106.746ZM308.483 114.121H304.703V109.42H308.483C309.697 109.42 310.573 110.403 310.573 111.77C310.573 113.138 309.697 114.121 308.483 114.121Z" fill="white"/>
<path d="M323.203 106.562C318.686 106.562 315.413 109.957 315.413 114.644C315.413 119.33 318.686 122.726 323.203 122.726C327.721 122.726 330.994 119.33 330.994 114.644C330.994 109.957 327.721 106.562 323.203 106.562ZM323.203 119.884C320.422 119.884 318.409 117.686 318.409 114.644C318.409 111.601 320.422 109.404 323.203 109.404C325.985 109.404 327.998 111.601 327.998 114.644C328.013 117.671 325.985 119.884 323.203 119.884Z" fill="white"/>
<path d="M340.859 109.404C342.226 109.404 343.44 109.927 344.301 110.879L344.378 110.956L346.652 109.066L346.575 108.974C345.13 107.422 343.102 106.562 340.859 106.562C336.341 106.562 333.068 109.957 333.068 114.644C333.068 119.33 336.341 122.726 340.859 122.726C343.102 122.726 345.13 121.866 346.575 120.314L346.652 120.222L344.47 118.408L344.393 118.332L344.316 118.408C343.425 119.361 342.211 119.884 340.859 119.884C338.078 119.884 336.065 117.686 336.065 114.644C336.065 111.601 338.078 109.404 340.859 109.404Z" fill="white"/>
<path d="M347.635 109.42H352.706V122.542H355.702V109.42H360.773V106.746H347.635V109.42Z" fill="white"/>
<path d="M365.752 106.746H362.786V122.542H365.752V106.746Z" fill="white"/>
<path d="M375.77 106.746H369.025V122.542H371.99V116.78H375.77C378.705 116.78 380.841 114.675 380.841 111.77C380.841 108.851 378.705 106.746 375.77 106.746ZM375.77 114.121H371.99V109.42H375.77C376.984 109.42 377.86 110.403 377.86 111.77C377.86 113.138 376.984 114.121 375.77 114.121Z" fill="white"/>
</svg>
